<?xml version="1.0" encoding="UTF-8" standalone="no"?>
<!-- Created with Inkscape (http://www.inkscape.org/) -->

<svg
   xmlns:dc="http://purl.org/dc/elements/1.1/"
   xmlns:cc="http://creativecommons.org/ns#"
   xmlns:rdf="http://www.w3.org/1999/02/22-rdf-syntax-ns#"
   xmlns:svg="http://www.w3.org/2000/svg"
   xmlns="http://www.w3.org/2000/svg"
   version="1.1"
   width="1024"
   height="768"
   id="svg2">
  <defs
     id="defs4" />
  <metadata
     id="metadata7">
    <rdf:RDF>
      <cc:Work
         rdf:about="">
        <dc:format>image/svg+xml</dc:format>
        <dc:type
           rdf:resource="http://purl.org/dc/dcmitype/StillImage" />
        <dc:title></dc:title>
      </cc:Work>
    </rdf:RDF>
  </metadata>
  <path
     d="m 669,526 c -0.33331,-0.5 -0.66669,-0.66669 -1,-1 -0.33331,-0.33331 -0.66669,-0.83331 -1,-1 -0.33331,-0.16669 -0.83331,0 -1,0 -0.16669,0 0.33331,0.66669 0,0 -0.33331,-0.66669 -1.5,-3 -2,-4 -0.5,-1 -0.83331,-1.5 -1,-2 -0.16669,-0.5 0.16669,-0.66669 0,-1 -0.16669,-0.33331 -0.83331,-0.83331 -1,-1 -0.16669,-0.16669 0,0 0,0 0,0 0.16669,0.16669 0,0 -0.16669,-0.16669 0.11362,-2.4545 -0.38638,-3.4545 -0.5,-1 -2.28031,-1.5455 -2.61362,-2.5455 -0.33331,-1 0.16669,-0.66666 0,-1 -0.16669,-0.33334 -0.66669,-0.66666 -1,-1 -0.33331,-0.33334 -0.83331,-0.66666 -1,-1 -0.16669,-0.33334 0.16669,-0.66666 0,-1 -0.16669,-0.33334 -0.83331,-0.66666 -1,-1 -0.16669,-0.33334 0.5,0 0,-1 -0.5,-1 -2.5,-4 -3,-5 -0.5,-1 0.16669,-0.66666 0,-1 -0.16669,-0.33334 -0.83331,-0.66666 -1,-1 -0.16669,-0.33334 0.33331,-0.16666 0,-1 -0.33331,-0.83334 -1.5,-3.16666 -2,-4 -0.5,-0.83334 -0.66669,-0.66666 -1,-1 -0.33331,-0.33334 -0.66669,-0.66666 -1,-1 -0.33331,-0.33334 -0.66669,-0.66666 -1,-1 -0.33331,-0.33334 -0.66669,-0.5 -1,-1 -0.33331,-0.5 -0.66669,-1.5 -1,-2 -0.33331,-0.5 -0.83331,-0.83334 -1,-1 -0.16669,-0.16666 0.16669,0.16666 0,0 -0.16669,-0.16666 -0.66669,-0.5 -1,-1 -0.33331,-0.5 -0.83331,-1.66666 -1,-2 -0.16669,-0.33334 0.16669,0.16666 0,0 -0.16669,-0.16666 -0.66669,-0.5 -1,-1 -0.33331,-0.5 -0.66669,-1.33334 -1,-2 -0.33331,-0.66666 -0.66669,-1.5 -1,-2 -0.33331,-0.5 -0.5,-0.66666 -1,-1 -0.5,-0.33334 -1.66669,-0.66666 -2,-1 -0.33331,-0.33334 0.33331,-0.5 0,-1 -0.33331,-0.5 -1.5,-1.66666 -2,-2 -0.5,-0.33334 -0.83331,0 -1,0 -0.16669,0 0.16669,0.16666 0,0 -0.16669,-0.16666 -0.83331,-0.83334 -1,-1 -0.16669,-0.16666 0,0.16666 0,0 0,-0.16666 0,-0.83334 0,-1 0,-0.16666 0.16669,0 0,0 -0.16669,0 -0.83331,0 -1,0 -0.16669,0 0,0 0,0 0,0 0,0.16666 0,0 0,-0.16666 0,-0.83334 0,-1 0,-0.16666 0,0 0,0 0,0 0,-0.16666 0,0 0,0.16666 0,0.83334 0,1 0,0.16666 0,0 0,0 l 0,0 0,0 0,0 0,0 c 0,0 -0.16669,0 0,0 0.16669,0 0.83331,0 1,0 0.16669,0 0,0 0,0 l 0,0 c 0,0 -0.16669,-0.16666 0,0 0.16669,0.16666 0.66669,0.66666 1,1 0.33331,0.33334 0.83331,0.83334 1,1 0.16669,0.16666 -0.16669,-0.16666 0,0 0.16669,0.16666 0.66669,0.66666 1,1 0.33331,0.33334 0.66669,0.83334 1,1 0.33331,0.16666 0.66669,0 1,0 0.33331,0 0.66669,-0.16666 1,0 0.33331,0.16666 0.66669,0.83334 1,1 0.33331,0.16666 0.5,-0.16666 1,0 0.5,0.16666 1.33331,0.83334 2,1 0.66669,0.16666 1.5,0 2,0 0.5,0 0.5,0 1,0 0.5,0 1.5,0 2,0 0.5,0 0.66669,0 1,0 0.33331,0 0.66669,0 1,0 0.33331,0 0.83331,0 1,0 0.16669,0 -0.16669,0 0,0 0.16669,0 0.66669,-0.16666 1,0 0.33331,0.16666 0.66669,0.83334 1,1 0.33331,0.16666 0.83331,0 1,0 0.16669,0 0,0 0,0 0,0 0,-0.16666 0,0 0,0.16666 0,0.83334 0,1 0,0.16666 0,0 0,0 0,0 0,0.16666 0,0 0,-0.16666 0,-0.83334 0,-1 0,-0.16666 0.33331,1 0,0 -0.33331,-1 -1.66669,-5 -2,-6 -0.33331,-1 0,0.16666 0,0 0,-0.16666 0.16669,-0.83334 0,-1 -0.16669,-0.16666 -0.83331,0 -1,0 -0.16669,0 0,0 0,0 0,0 0,-0.16666 0,0 0,0.16666 -0.16669,0.83334 0,1 0.16669,0.16666 0.83331,-0.16666 1,0 0.16669,0.16666 0,0.83334 0,1 0,0.16666 -0.16669,-0.16666 0,0 0.16669,0.16666 0.83331,0.83334 1,1 0.16669,0.16666 0,-0.16666 0,0 0,0.16666 -0.16669,0.83334 0,1 0.16669,0.16666 0.83331,-0.16666 1,0 0.16669,0.16666 0,0.66666 0,1 0,0.33334 -0.16669,0.66666 0,1 0.16669,0.33334 0.83331,0.66666 1,1 0.16669,0.33334 -0.16669,0.66666 0,1 0.16669,0.33334 0.66669,0.5 1,1 0.33331,0.5 0.83331,1.5 1,2 0.16669,0.5 -0.16669,0.83334 0,1 0.16669,0.16666 0.83331,-0.16666 1,0 0.16669,0.16666 0,0.83334 0,1 0,0.16666 -0.16669,-0.16666 0,0 0.16669,0.16666 0.83331,0.83334 1,1 0.16669,0.16666 0,-0.16666 0,0 0,0.16666 -0.16669,0.83334 0,1 0.16669,0.16666 0.83331,0 1,0 0.16669,0 -0.16669,0 0,0 0.16669,0 0.83331,0 1,0 0.16669,0 -0.16669,0 0,0 0.16669,0 0.66669,0.16666 1,0 0.33331,-0.16666 0.83331,-0.66666 1,-1 0.16669,-0.33334 0,-0.83334 0,-1 0,-0.16666 -0.16669,0.16666 0,0 0.16669,-0.16666 0.83331,-0.83334 1,-1 0.16669,-0.16666 0,0.16666 0,0 0,-0.16666 0,-0.5 0,-1 0,-0.5 0,-1.66666 0,-2 0,-0.33334 0,0.16666 0,0 0,-0.16666 0,-0.83334 0,-1 0,-0.16666 0,0.16666 0,0 0,-0.16666 0.16669,-0.66666 0,-1 -0.16669,-0.33334 -0.83331,-0.83334 -1,-1 -0.16669,-0.16666 0,0.16666 0,0 0,-0.16666 0,-0.83334 0,-1 0,-0.16666 0,0 0,0 0,0 0.16669,0 0,0 -0.16669,0 -0.83331,0 -1,0 -0.16669,0 0,0 0,0 0,0 0,0.16666 0,0 0,-0.16666 0,-0.83334 0,-1 0,-0.16666 0,-0.16666 0,0 0,0.16666 0,0.83334 0,1 0,0.16666 0,0 0,0 l 0,0 c 0,0 -0.16669,0 0,0 0.16669,0 0.83331,0 1,0 0.16669,0 0,0 0,0 l 0,0 c 0,0 -0.16669,-0.16666 0,0 0.16669,0.16666 0.66669,0.66666 1,1 0.33331,0.33334 0.83331,0.83334 1,1 0.16669,0.16666 -0.16669,-0.16666 0,0 0.16669,0.16666 0.66669,0.83334 1,1 0.33331,0.16666 0.83331,-0.16666 1,0 0.16669,0.16666 0,0.83334 0,1 0,0.16666 0,0 0,0 0,0 0,-0.16666 0,0 0,0.16666 0,0.66666 0,1 0,0.33334 -0.33331,0.66666 0,1 0.33331,0.33334 1.66669,0.66666 2,1 0.33331,0.33334 0,0.83334 0,1 0,0.16666 -0.16669,0 0,0 0.16669,0 0.83331,0 1,0 0.16669,0 0,0 0,0 0,0 -0.16669,0 0,0 0.16669,0 0.83331,0 1,0 0.16669,0 0,0 0,0 0,0 -0.16669,0.16666 0,0 0.16669,-0.16666 0.83331,-0.83334 1,-1 0.16669,-0.16666 -0.16669,0.16666 0,0 0.16669,-0.16666 0.83331,-0.66666 1,-1 0.16669,-0.33334 0,-0.66666 0,-1 0,-0.33334 0,-0.33334 0,-1 0,-0.66666 0,-2.5 0,-3 0,-0.5 0,0 0,0 l 0,0 c 0,0 -0.16669,-0.16666 0,0 0.16669,0.16666 0.83331,0.83334 1,1 0.16669,0.16666 0,0 0,0 0,0 -0.16669,-0.16666 0,0 0.16669,0.16666 0.83331,0.83334 1,1 0.16669,0.16666 -0.16669,-0.16666 0,0 0.16669,0.16666 0.83331,0.83334 1,1 0.16669,0.16666 0,-0.16666 0,0 0,0.16666 -0.16669,0.83334 0,1 0.16669,0.16666 0.66669,-0.16666 1,0 0.33331,0.16666 0.66669,0.66666 1,1 0.33331,0.33334 0.66669,0.83334 1,1 0.33331,0.16666 0.66669,0 1,0 0.33331,0 0.83331,0 1,0 0.16669,0 -0.16669,0 0,0 0.16669,0 0.83331,0 1,0 0.16669,0 0,0 0,0 0,0 -0.16669,0.16666 0,0 0.16669,-0.16666 0.83331,-0.66666 1,-1 0.16669,-0.33334 0,-0.66666 0,-1 0,-0.33334 0,-0.66666 0,-1 0,-0.33334 0,-0.66666 0,-1 0,-0.33334 0,-0.83334 0,-1 0,-0.16666 0,-0.16666 0,0 0,0.16666 0,0.83334 0,1 0,0.16666 0,-0.16666 0,0 0,0.16666 0,0.83334 0,1 0,0.16666 -0.16669,-0.16666 0,0 0.16669,0.16666 0.83331,0.66666 1,1 0.16669,0.33334 0,0.83334 0,1 0,0.16666 0,0 0,0 0,0 -0.16669,0 0,0 0.16669,0 0.83331,-0.16666 1,0 0.16669,0.16666 0,0.83334 0,1 0,0.16666 0,0 0,0 l 0,0 0,0 c 0,0 -0.16669,0.16666 0,0 0.16669,-0.16666 0.83331,-0.83334 1,-1 0.16669,-0.16666 0,0 0,0 0,0 0,0.16666 0,0 0,-0.16666 0,-0.83334 0,-1 0,-0.16666 0,0 0,0 0,0 -0.16669,0.16666 0,0 0.16669,-0.16666 0.83331,-0.83334 1,-1 0.16669,-0.16666 0,0.16666 0,0 0,-0.16666 0,-0.66666 0,-1 0,-0.33334 0,-0.66666 0,-1 0,-0.33334 0,-0.66666 0,-1 0,-0.33334 0,-0.83334 0,-1 0,-0.16666 0,0.16666 0,0 0,-0.16666 0,-0.83334 0,-1 0,-0.16666 0,0.16666 0,0 0,-0.16666 -0.16669,-0.66666 0,-1 0.16669,-0.33334 0.83331,-0.66666 1,-1 0.16669,-0.33334 0,-0.83334 0,-1 0,-0.16666 0,0.33334 0,0 0,-0.33334 0,-1.5 0,-2 0,-0.5 0,-0.83334 0,-1 0,-0.16666 0,0.16666 0,0 0,-0.16666 0,-0.83334 0,-1 0,-0.16666 0,0.16666 0,0 0,-0.16666 0.16669,-0.5 0,-1 -0.16669,-0.5 -0.83331,-1.66666 -1,-2 -0.16669,-0.33334 0,0.16666 0,0 0,-0.16666 0,-0.83334 0,-1 0,-0.16666 0,0.16666 0,0 0,-0.16666 0,-0.83334 0,-1 0,-0.16666 0,0 0,0 0,0 0,0.16666 0,0 0,-0.16666 0,-0.83334 0,-1 0,-0.16666 0,0.16666 0,0 0,-0.16666 0,-0.83334 0,-1 0,-0.16666 0,0 0,0 0,0 0.16669,0.16666 0,0 -0.16669,-0.16666 -0.83331,-0.83334 -1,-1 -0.16669,-0.16666 0,0.16666 0,0 0,-0.16666 0,-0.83334 0,-1 0,-0.16666 0.16669,0.66666 0,0 -0.16669,-0.66666 -0.83331,-3.33334 -1,-4 -0.16669,-0.66666 0,0 0,0 l 0,0 c 0,0 0.16669,0 0,0 -0.16669,0 -0.83331,0 -1,0 -0.16669,0 0,0.16666 0,0 0,-0.16666 0,-0.83334 0,-1 0,-0.16666 0,0.16666 0,0 0,-0.16666 0,-0.83334 0,-1 0,-0.16666 0,0 0,0 l 0,0 c 0,0 0.16669,0 0,0 -0.16669,0 -0.83331,0.33334 -1,0 -0.16669,-0.33334 0.16669,-1.33334 0,-2 -0.16669,-0.66666 -0.83331,-1.5 -1,-2 -0.16669,-0.5 0.16669,-0.83334 0,-1 -0.16669,-0.16666 -0.83331,0 -1,0 -0.16669,0 0.16669,0.16666 0,0 -0.16669,-0.16666 -0.83331,-0.66666 -1,-1 -0.16669,-0.33334 0,-0.83334 0,-1 0,-0.16666 0.16669,0.33334 0,0 -0.16669,-0.33334 -0.66669,-1.5 -1,-2 -0.33331,-0.5 -0.83331,-0.83334 -1,-1 -0.16669,-0.16666 0,0 0,0 0,0 0,0.16666 0,0 0,-0.16666 0,-0.83334 0,-1 0,-0.16666 0,0 0,0 0,0 0.16669,0 0,0 -0.16669,0 -0.83331,0 -1,0 -0.16669,0 0,0.16666 0,0 0,-0.16666 0,-0.5 0,-1 0,-0.5 0.16669,-1.5 0,-2 -0.16669,-0.5 -0.83331,-0.66666 -1,-1 -0.16669,-0.33334 0,-0.66666 0,-1 0,-0.33334 0,-0.66666 0,-1 0,-0.33334 0,-0.83334 0,-1 0,-0.16666 0,0 0,0 0,0 0,0.16666 0,0 0,-0.16666 0,-0.83334 0,-1 0,-0.16666 0,0 0,0 0,0 0,0.16666 0,0 0,-0.16666 0,-0.66666 0,-1 0,-0.33334 0,-0.83334 0,-1 0,-0.16666 0,0.16666 0,0 0,-0.16666 0,-0.83334 0,-1 0,-0.16666 0,0.16666 0,0 0,-0.16666 0,-0.83334 0,-1 0,-0.16666 0,0 0,0 0,0 0,0.16666 0,0 0,-0.16666 0,-0.66666 0,-1 0,-0.33334 0,-0.66666 0,-1 0,-0.33334 0,-0.83334 0,-1 0,-0.16666 0,0 0,0 0,0 0,0.16666 0,0 0,-0.16666 0,-0.83334 0,-1 0,-0.16666 0,0.16666 0,0 0,-0.16666 0,-0.83334 0,-1 0,-0.16666 0,0.16666 0,0 0,-0.16666 0,-0.83334 0,-1 0,-0.16666 0,0 0,0 0,0 0,0.16666 0,0 0,-0.16666 0,-0.83334 0,-1 0,-0.16666 0,0.16666 0,0 0,-0.16666 0,-0.83334 0,-1 0,-0.16666 0,0 0,0 l 0,0 c 0,0 0,0.16666 0,0 0,-0.16666 0,-0.83334 0,-1 0,-0.16666 0,0 0,0 0,0 0,0.16666 0,0 0,-0.16666 0,-0.83334 0,-1 0,-0.16666 0,0.16666 0,0 0,-0.16666 0,-0.83334 0,-1 0,-0.16666 0,0 0,0 0,0 0,0.16666 0,0 0,-0.16666 0,-0.83334 0,-1 0,-0.16666 0,0.16666 0,0 0,-0.16666 0,-0.83334 0,-1 0,-0.16666 0,0.16666 0,0 0,-0.16666 0,-0.83334 0,-1 0,-0.16666 0,0 0,0 l 0,0 c 0,0 0,0.16666 0,0 0,-0.16666 0,-0.83334 0,-1 0,-0.16666 0,0.16666 0,0 0,-0.16666 0,-0.66666 0,-1 0,-0.33334 0,-0.5 0,-1 0,-0.5 0,-1.5 0,-2 0,-0.5 0,-0.16666 0,-1 0,-0.83334 0.16669,-3.16666 0,-4 -0.16669,-0.83334 -0.83331,-0.83334 -1,-1 -0.16669,-0.16666 0,0.16666 0,0 0,-0.16666 0,-0.83334 0,-1 0,-0.16666 0,0.16666 0,0 0,-0.16666 0,-0.83334 0,-1 0,-0.16666 0,0.16666 0,0 0,-0.16666 0,-0.83334 0,-1 0,-0.16666 0,0.16666 0,0 0,-0.16666 0,-0.83334 0,-1 0,-0.16666 0,0 0,0 l 0,0 c 0,0 0.16669,0.16666 0,0 -0.16669,-0.16666 -0.83331,-0.83334 -1,-1 -0.16669,-0.16666 0,0 0,0 l 0,0 c 0,0 0,0.16666 0,0 0,-0.16666 0,-0.66666 0,-1 0,-0.33334 0.16669,-0.66666 0,-1 -0.16669,-0.33334 -0.83331,-0.66666 -1,-1 -0.16669,-0.33334 0,-0.66666 0,-1 0,-0.33334 0.16669,-0.83334 0,-1 -0.16669,-0.16666 -0.83331,0 -1,0 -0.16669,0 0,0.16666 0,0 0,-0.16666 0,-0.83334 0,-1 0,-0.16666 0,0.16666 0,0 0,-0.16666 0,-0.83334 0,-1 0,-0.16666 0,0 0,0 l 0,0 0,0 0,0 0,0 0,0 c 0,0 0.16669,0.16666 0,0 -0.16669,-0.16666 -0.83331,-0.83334 -1,-1 -0.16669,-0.16666 0,0 0,0 l 0,0 0,0 0,0 0,0 c 0,0 0,0.16666 0,0 0,-0.16666 0,-0.83334 0,-1 0,-0.16666 0,0 0,0 l 0,0 c 0,0 0,0.16666 0,0 0,-0.16666 0,-0.83334 0,-1 0,-0.16666 0,0 0,0 l 0,0 0,0 c 0,0 0.16669,0 0,0 -0.16669,0 -0.83331,0 -1,0 -0.16669,0 0,0 0,0 l 0,0 c 0,0 0,0.16666 0,0 0,-0.16666 0,-0.83334 0,-1 0,-0.16666 0,0 0,0 l 0,0 c 0,0 0,0.16666 0,0 0,-0.16666 0,-0.83334 0,-1 0,-0.16666 0,0 0,0 l 0,0 c 0,0 0,0.16666 0,0 0,-0.16666 0,-0.83334 0,-1 0,-0.16666 0,0 0,0 0,0 0,0.16666 0,0 0,-0.16666 0,-0.83334 0,-1 0,-0.16666 0,0 0,0 l 0,0 0,0 0,0 c 0,0 0.16669,0 0,0 -0.16669,0 -0.83331,0 -1,0 -0.16669,0 0,0 0,0 l 0,0 0,0 0,0 0,0 0,0 0,0 c 0,0 -0.16669,0 0,0 0.16669,0 0.83331,0 1,0 0.16669,0 0,0 0,0 l 0,0 0,0 c 0,0 -0.16669,0 0,0 0.16669,0 0.83331,0 1,0 0.16669,0 0,0 0,0 l 0,0 0,0 0,0 0,0 c 0,0 0,-0.16666 0,0 0,0.16666 0,0.83334 0,1 0,0.16666 0,0 0,0 l 0,0 0,0 0,0 c 0,0 0,-0.16666 0,0 0,0.16666 0,0.83334 0,1 0,0.16666 0,0 0,0 0,0 0,-0.16666 0,0 0,0.16666 0,0.83334 0,1 0,0.16666 0,0 0,0 l 0,0 c 0,0 -0.16669,0 0,0 0.16669,0 0.83331,0 1,0 0.16669,0 0,0 0,0 l 0,0 0,0 0,0 0,0 c 0,0 0,-0.16666 0,0 0,0.16666 0,0.83334 0,1 0,0.16666 0,0 0,0 0,0 -0.16669,-0.16666 0,0 0.16669,0.16666 0.83331,0.83334 1,1 0.16669,0.16666 0,0 0,0 l 0,0 c 0,0 -0.16669,0 0,0 0.16669,0 0.83331,0 1,0 0.16669,0 0,0 0,0 l 0,0 c 0,0 -0.16669,-0.5 0,0 0.16669,0.5 0.66669,2.33334 1,3 0.33331,0.66666 0.66669,0.83334 1,1 0.33331,0.16666 0.83331,0 1,0 0.16669,0 -0.16669,0 0,0 0.16669,0 0.83331,0 1,0 0.16669,0 -0.33331,0 0,0 0.33331,0 1.66669,0 2,0 0.33331,0 0,-0.16666 0,0 0,0.16666 0,0.83334 0,1 0,0.16666 0,0 0,0 0,0 0,-0.16666 0,0 0,0.16666 0,0.83334 0,1 0,0.16666 0,0 0,0 0,0 0,-0.33334 0,0 0,0.33334 0,1.5 0,2 0,0.5 0,0.83334 0,1 0,0.16666 -0.16669,-0.16666 0,0 0.16669,0.16666 0.83331,0.66666 1,1 0.16669,0.33334 -0.16669,0.83334 0,1 0.16669,0.16666 0.83331,0 1,0 0.16669,0 0,0 0,0 l 0,0 c 0,0 -0.16669,0 0,0 0.16669,0 0.83331,0 1,0 0.16669,0 0,-0.16666 0,0 0,0.16666 0,0.83334 0,1 0,0.16666 -0.16669,0 0,0 0.16669,0 0.83331,0 1,0 0.16669,0 -0.33331,-1 0,0 0.33331,1 1.66669,5 2,6 0.33331,1 0,0 0,0 l 0,0 c 0,0 0,-0.16666 0,0 0,0.16666 0,0.83334 0,1 0,0.16666 0,0 0,0 l 0,0 0,0 c 0,0 0,-0.16666 0,0 0,0.16666 0,0.83334 0,1 0,0.16666 0,0 0,0 0,0 0,-0.16666 0,0 0,0.16666 0,0.83334 0,1 0,0.16666 0,0 0,0 0,0 0,-0.16666 0,0 0,0.16666 0,0.83334 0,1 0,0.16666 0,0 0,0 0,0 0,-0.16666 0,0 0,0.16666 0,0.83334 0,1 0,0.16666 0,0 0,0 0,0 0,-0.16666 0,0 0,0.16666 0,0.83334 0,1 0,0.16666 0,0 0,0 l 0,0 0,0 c 0,0 -0.16669,0 0,0 0.16669,0 0.83331,0 1,0 0.16669,0 0,0 0,0 l 0,0 c 0,0 0,-0.16666 0,0 0,0.16666 0,0.83334 0,1 0,0.16666 0,0 0,0 0,0 0,-0.16666 0,0 0,0.16666 0,0.83334 0,1 0,0.16666 0,0 0,0 0,0 0,-0.16666 0,0 0,0.16666 0,0.83334 0,1 0,0.16666 0,0 0,0 0,0 0,-0.16666 0,0 0,0.16666 0,0.83334 0,1 0,0.16666 0,0 0,0 l 0,0 c 0,0 0,-0.16666 0,0 0,0.16666 0,0.83334 0,1 0,0.16666 -0.16669,-0.16666 0,0 0.16669,0.16666 0.83331,0.83334 1,1 0.16669,0.16666 0,-0.16666 0,0 0,0.16666 0,0.83334 0,1 0,0.16666 -0.16669,-0.16666 0,0 0.16669,0.16666 0.83331,0.83334 1,1 0.16669,0.16666 0,-0.16666 0,0 0,0.16666 0,0.83334 0,1 0,0.16666 0,-0.16666 0,0 0,0.16666 0,0.83334 0,1 0,0.16666 0,0 0,0 0,0 0,-0.16666 0,0 0,0.16666 0,0.66666 0,1 0,0.33334 0,0.83334 0,1 0,0.16666 -0.16669,0 0,0 0.16669,0 0.83331,-0.16666 1,0 0.16669,0.16666 0,0.66666 0,1 0,0.33334 0,0.66666 0,1 0,0.33334 0,0.83334 0,1 0,0.16666 -0.16669,-0.16666 0,0 0.16669,0.16666 0.83331,0.83334 1,1 0.16669,0.16666 0,-0.16666 0,0 0,0.16666 0,0.66666 0,1 0,0.33334 0,0.83334 0,1 0,0.16666 -0.16669,-0.16666 0,0 0.16669,0.16666 0.83331,0.83334 1,1 0.16669,0.16666 0,-0.16666 0,0 0,0.16666 0,0.83334 0,1 0,0.16666 0,0 0,0 0,0 -0.16669,-0.16666 0,0 0.16669,0.16666 0.83331,0.66666 1,1 0.16669,0.33334 0,0.83334 0,1 0,0.16666 0,-0.16666 0,0 0,0.16666 0,0.83334 0,1 0,0.16666 -0.16669,-0.16666 0,0 0.16669,0.16666 0.83331,0.83334 1,1 0.16669,0.16666 0,-0.16666 0,0 0,0.16666 0,0.66666 0,1 0,0.33334 0,0.66666 0,1 0,0.33334 0,0.83334 0,1 0,0.16666 0,-0.16666 0,0 0,0.16666 0,0.83334 0,1 0,0.16666 -0.16669,0 0,0 0.16669,0 0.83331,0 1,0 0.16669,0 0,0 0,0 0,0 0,-0.16666 0,0 0,0.16666 0,0.66666 0,1 0,0.33334 0,0.83334 0,1 0,0.16666 0,-0.16666 0,0 0,0.16666 0,0.83334 0,1 0,0.16666 0,-0.16666 0,0 0,0.16666 0,0.83334 0,1 0,0.16666 0,-0.16666 0,0 0,0.16666 0,0.83334 0,1 0,0.16666 0,0 0,0 0,0 0,-0.16666 0,0 0,0.16666 0,0.83334 0,1 0,0.16666 0,-0.16666 0,0 0,0.16666 0,0.83334 0,1 0,0.16666 0,0 0,0 0,0 0,-0.16666 0,0 0,0.16666 0,0.83334 0,1 0,0.16666 0,0 0,0 l 0,0 0,0 0,0 c 0,0 0,-0.16666 0,0 0,0.16666 0,0.83334 0,1 0,0.16666 0,0 0,0 l 0,0 0,0 0,0 c 0,0 0,-0.16666 0,0 0,0.16666 0,0.83334 0,1 0,0.16666 0,0 0,0 l 0,0 c 0,0 0.16669,0 0,0 -0.16669,0 -0.83331,0 -1,0 -0.16669,0 0,0 0,0 0,0 -0.16669,-0.16666 0,0 0.16669,0.16666 0.83331,0.83334 1,1 0.16669,0.16666 0,0 0,0 l 0,0 c 0,0 0,0.16666 0,0 0,-0.16666 0,-0.83334 0,-1 0,-0.16666 0,0 0,0 l 0,0 0,0 c 0,0 0,-0.16666 0,0 0,0.16666 0,0.66666 0,1 0,0.33334 0,0.83334 0,1 0,0.16666 0,0 0,0 0,0 -0.16669,-0.16666 0,0 0.16669,0.16666 0.83331,0.66666 1,1 0.16669,0.33334 0,0.83334 0,1 0,0.16666 0,0 0,0 l 0,0 0,0 c 0,0 0,-0.16666 0,0 0,0.16666 0,0.83334 0,1 0,0.16666 0,0 0,0 l 0,0 0,0 0,0 0,0 0,0 0,0 c 0,0 -0.16669,0 0,0 0.16669,0 0.83331,0 1,0 0.16669,0 0,0 0,0 l 0,0 0,0 0,0 0,0 c 0,0 0,0.16666 0,0 0,-0.16666 0,-0.83334 0,-1 0,-0.16666 0,0 0,0 l 0,0 c 0,0 -0.16669,0 0,0 0.16669,0 0.83331,0 1,0 0.16669,0 0.16669,0 0,0 -0.16669,0 -0.83331,0 -1,0 -0.16669,0 0,0 0,0 l 0,0 c 0,0 -0.16669,0 0,0 0.16669,0 0.83331,0 1,0 0.16669,0 0,0 0,0 l 0,0 0,0 0,0 c 0,0 0,-0.16666 0,0 0,0.16666 0,0.83334 0,1 0,0.16666 0,0 0,0 l 0,0 0,0 0,0 0,0 0,0 0,0 0,0 c 0,0 -0.16669,0 0,0 0.16669,0 0.83331,0.16666 1,0 0.16669,-0.16666 0,-0.83334 0,-1 0,-0.16666 0,0 0,0 l 0,0 0,0 0,0 c 0,0 0,0.16666 0,0 0,-0.16666 0,-0.83334 0,-1 0,-0.16666 -0.16669,0.16666 0,0 0.16669,-0.16666 0.83331,-0.66666 1,-1 0.16669,-0.33334 0,-0.83334 0,-1 0,-0.16666 -0.16669,0 0,0 0.16669,0 0.66669,0.16666 1,0 0.33331,-0.16666 0.83331,-0.66666 1,-1 0.16669,-0.33334 -0.16669,-0.5 0,-1 0.16669,-0.5 0.83331,-1.5 1,-2 0.16669,-0.5 0,-0.66666 0,-1 0,-0.33334 0,-0.66666 0,-1 0,-0.33334 0,-0.66666 0,-1 0,-0.33334 0,-0.83334 0,-1 0,-0.16666 0,0 0,0 l 0,0 c 0,0 -0.16669,0.16666 0,0 0.16669,-0.16666 0.83331,-0.83334 1,-1 0.16669,-0.16666 0,0 0,0 l 0,0 c 0,0 0,0.16666 0,0 0,-0.16666 0,-0.83334 0,-1 0,-0.16666 0,0.16666 0,0 0,-0.16666 0,-0.83334 0,-1 0,-0.16666 -0.16669,0.16666 0,0 0.16669,-0.16666 0.83331,-0.83334 1,-1 0.16669,-0.16666 0,0.16666 0,0 0,-0.16666 0,-0.66666 0,-1 0,-0.33334 0,-0.83334 0,-1 0,-0.16666 -0.16669,0.16666 0,0 0.16669,-0.16666 0.83331,-0.83334 1,-1 0.16669,-0.16666 -0.16669,0.16666 0,0 0.16669,-0.16666 0.83331,-0.66666 1,-1 0.16669,-0.33334 0,-0.83334 0,-1 0,-0.16666 0,0.16666 0,0 0,-0.16666 0,-0.83334 0,-1 0,-0.16666 -0.16669,0.16666 0,0 0.16669,-0.16666 0.83331,-0.83334 1,-1 0.16669,-0.16666 0,0 0,0 0,0 0,0.16666 0,0 0,-0.16666 0,-0.83334 0,-1 0,-0.16666 -0.5,0.66666 0,0 0.5,-0.66666 2,-2.66666 3,-4 1,-1.33334 2.5,-3.33334 3,-4 0.5,-0.66666 0,0 0,0 0,0 -0.5,0.83334 0,0 0.5,-0.83334 2.33331,-4 3,-5 0.66669,-1 0.83331,-0.83334 1,-1 0.16669,-0.16666 0,0.33334 0,0 0,-0.33334 -0.16669,-1.33334 0,-2 0.16669,-0.66666 0.83331,-1.33334 1,-2 0.16669,-0.66666 0,-1.5 0,-2 0,-0.5 0,-0.83334 0,-1 0,-0.16666 0,0.16666 0,0 0,-0.16666 0,-0.83334 0,-1 0,-0.16666 -0.16669,0.33334 0,0 0.16669,-0.33334 0.83331,-1.5 1,-2 0.16669,-0.5 0,-0.66666 0,-1 0,-0.33334 -0.16669,-0.66666 0,-1 0.16669,-0.33334 0.83331,-0.83334 1,-1 0.16669,-0.16666 0,0.33334 0,0 0,-0.33334 0,-1.66666 0,-2 0,-0.33334 -0.16669,0.16666 0,0 0.16669,-0.16666 0.83331,-0.83334 1,-1 0.16669,-0.16666 0,0.5 0,0 0,-0.5 -0.16669,-2.5 0,-3 0.16669,-0.5 0.83331,0.16666 1,0 0.16669,-0.16666 0,-0.5 0,-1 0,-0.5 0,-1.5 0,-2 0,-0.5 0,-0.83334 0,-1 0,-0.16666 0,0 0,0 l 0,0 0,0 0,0 c 0,0 -0.16669,0 0,0 0.16669,0 0.83331,0 1,0 0.16669,0 0,0.16666 0,0 0,-0.16666 0,-0.83334 0,-1 0,-0.16666 0,-0.16666 0,0 0,0.16666 0,0.83334 0,1 0,0.16666 0,0 0,0 l 0,0 c 0,0 0,-0.16666 0,0 0,0.16666 0,0.83334 0,1 0,0.16666 0,0 0,0 0,0 0,-0.16666 0,0 0,0.16666 0,0.83334 0,1 0,0.16666 0,-0.16666 0,0 0,0.16666 0,0.66666 0,1 0,0.33334 0,0.83334 0,1 0,0.16666 0,-0.16666 0,0 0,0.16666 0,0.83334 0,1 0,0.16666 0,-0.16666 0,0 0,0.16666 0,0.83334 0,1 0,0.16666 0,0 0,0 0,0 0,-0.16666 0,0 0,0.16666 0,0.83334 0,1 0,0.16666 0,0 0,0 0,0 0,-0.16666 0,0 0,0.16666 0,0.83334 0,1 0,0.16666 0,0 0,0 l 0,0 c 0,0 0,-0.16666 0,0 0,0.16666 0,0.83334 0,1 0,0.16666 0,-0.16666 0,0 0,0.16666 0,0.83334 0,1 0,0.16666 0,0 0,0 0,0 0,-0.16666 0,0 0,0.16666 0,0.83334 0,1 0,0.16666 0,-0.16666 0,0 0,0.16666 0,0.83334 0,1 0,0.16666 0,0 0,0 0,0 0.16669,-0.16666 0,0 -0.16669,0.16666 -0.83331,0.83334 -1,1 -0.16669,0.16666 0,-0.16666 0,0 0,0.16666 0,0.66666 0,1 0,0.33334 0,0.83334 0,1 0,0.16666 0,-0.16666 0,0 0,0.16666 0,0.83334 0,1 0,0.16666 0,0 0,0 l 0,0 0,0 0,0 0,0 0,0 c 0,0 0,0.16666 0,0 0,-0.16666 0,-0.83334 0,-1 0,-0.16666 0,0 0,0 l 0,0 c 0,0 -0.16669,0 0,0 0.16669,0 0.83331,0 1,0 0.16669,0 0,0 0,0 l 0,0 c 0,0 -0.16669,0.16666 0,0 0.16669,-0.16666 0.83331,-0.83334 1,-1 0.16669,-0.16666 -0.16669,0 0,0 0.16669,0 0.83331,0 1,0 0.16669,0 0,-0.16666 0,0 0,0.16666 0,0.83334 0,1 0,0.16666 -0.16669,-0.16666 0,0 0.16669,0.16666 0.66669,0.83334 1,1 0.33331,0.16666 0.83331,0 1,0 0.16669,0 0,0 0,0 l 0,0 0,0 0,0 c 0,0 0,0.16666 0,0 0,-0.16666 0,-0.83334 0,-1 0,-0.16666 0,0 0,0 l 0,0 0,0 0,0 0,0 c 0,0 0,0.16666 0,0 0,-0.16666 0,-0.83334 0,-1 0,-0.16666 -0.16669,0.16666 0,0 0.16669,-0.16666 0.83331,-0.83334 1,-1 0.16669,-0.16666 0,0 0,0 0,0 0,0.16666 0,0 0,-0.16666 0,-0.83334 0,-1 0,-0.16666 0,0 0,0 0,0 -0.16669,0 0,0 0.16669,0 0.83331,-0.16666 1,0 0.16669,0.16666 0,0.83334 0,1 0,0.16666 0,0 0,0 0,0 0.16669,-0.16666 0,0 -0.16669,0.16666 -0.83331,0.83334 -1,1 -0.16669,0.16666 0,-0.16666 0,0 0,0.16666 0,0.66666 0,1 0,0.33334 0,0.83334 0,1 0,0.16666 0,-0.16666 0,0 0,0.16666 0,0.83334 0,1 0,0.16666 0.16669,-0.16666 0,0 -0.16669,0.16666 -0.83331,0.83334 -1,1 -0.16669,0.16666 0,0 0,0 0,0 0.16669,-0.16666 0,0 -0.16669,0.16666 -0.83331,0.83334 -1,1 -0.16669,0.16666 0,0 0,0 l 0,0 c 0,0 0.16669,-0.16666 0,0 -0.16669,0.16666 -0.83331,0.83334 -1,1 -0.16669,0.16666 0.16669,0 0,0 -0.16669,0 -0.66669,-0.16666 -1,0 -0.33331,0.16666 -0.83331,0.66666 -1,1 -0.16669,0.33334 0,0.83334 0,1 0,0.16666 0,0 0,0 0,0 0,-0.16666 0,0 0,0.16666 0,0.66666 0,1 0,0.33334 -0.16669,0.66666 0,1 0.16669,0.33334 0.83331,0.66666 1,1 0.16669,0.33334 0,0.83334 0,1 0,0.16666 0,0 0,0 l 0,0 c 0,0 0.16669,-0.16666 0,0 -0.16669,0.16666 -0.83331,0.83334 -1,1 -0.16669,0.16666 0,0 0,0 l 0,0 c 0,0 0,-0.16666 0,0 0,0.16666 0.16669,0.66666 0,1 -0.16669,0.33334 -0.83331,0.83334 -1,1 -0.16669,0.16666 0.33331,-0.16666 0,0 -0.33331,0.16666 -1.5,0.33334 -2,1 -0.5,0.66666 -0.83331,2.33334 -1,3 -0.16669,0.66666 0,0.83334 0,1 0,0.16666 0,-0.16666 0,0 0,0.16666 0,0.66666 0,1 0,0.33334 0,0.83334 0,1 0,0.16666 0,0 0,0 0,0 0,-0.16666 0,0 0,0.16666 0,0.83334 0,1 0,0.16666 0,-0.16666 0,0 0,0.16666 0,0.66666 0,1 0,0.33334 0,0.83334 0,1 0,0.16666 0.16669,-0.16666 0,0 -0.16669,0.16666 -0.83331,0.83334 -1,1 -0.16669,0.16666 0.16669,-0.16666 0,0 -0.16669,0.16666 -0.83331,0.5 -1,1 -0.16669,0.5 0,1.33334 0,2 0,0.66666 0,1.5 0,2 0,0.5 0.16669,0.66666 0,1 -0.16669,0.33334 -0.83331,0.83334 -1,1 -0.16669,0.16666 0.16669,-0.16666 0,0 -0.16669,0.16666 -0.83331,0.66666 -1,1 -0.16669,0.33334 0,0.83334 0,1 0,0.16666 0,-0.16666 0,0 0,0.16666 0,0.83334 0,1 0,0.16666 0.16669,-0.16666 0,0 -0.16669,0.16666 -0.83331,0.83334 -1,1 -0.16669,0.16666 0,-0.16666 0,0 0,0.16666 0.16669,0.66666 0,1 -0.16669,0.33334 -0.66669,0.66666 -1,1 -0.33331,0.33334 -0.83331,0.83334 -1,1 -0.16669,0.16666 0.16669,-0.16666 0,0 -0.16669,0.16666 -0.83331,0.66666 -1,1 -0.16669,0.33334 0,0.83334 0,1 0,0.16666 0.16669,-0.16666 0,0 -0.16669,0.16666 -0.83331,0.83334 -1,1 -0.16669,0.16666 0,-0.16666 0,0 0,0.16666 0,0.83334 0,1 0,0.16666 0,0 0,0 0,0 0,-0.16666 0,0 0,0.16666 0.16669,0.66666 0,1 -0.16669,0.33334 -0.83331,0.83334 -1,1 -0.16669,0.16666 0,0 0,0 0,0 0,-0.16666 0,0 0,0.16666 0,0.83334 0,1 0,0.16666 0,0 0,0 0,0 0.16669,-0.16666 0,0 -0.16669,0.16666 -0.66669,0.66666 -1,1 -0.33331,0.33334 -0.83331,0.83334 -1,1 -0.16669,0.16666 0,-0.16666 0,0 0,0.16666 0,0.83334 0,1 0,0.16666 0,-0.16666 0,0 0,0.16666 0,0.83334 0,1 0,0.16666 0,0 0,0 0,0 0,-0.16666 0,0 0,0.16666 0.16669,0.66666 0,1 -0.16669,0.33334 -0.83331,0.83334 -1,1 -0.16669,0.16666 0,-0.16666 0,0 0,0.16666 0.16669,0.83334 0,1 -0.16669,0.16666 -0.83331,-0.16666 -1,0 -0.16669,0.16666 0,0.83334 0,1 0,0.16666 0,-0.16666 0,0 0,0.16666 0.16669,0.66666 0,1 -0.16669,0.33334 -0.83331,0.66666 -1,1 -0.16669,0.33334 0,0.66666 0,1 0,0.33334 0,0.83334 0,1 0,0.16666 0,-0.16666 0,0 0,0.16666 0,0.83334 0,1 0,0.16666 0,0 0,0 0,0 0,-0.16666 0,0 0,0.16666 0,0.83334 0,1 0,0.16666 0,0 0,0 0,0 0,-0.16666 0,0 0,0.16666 0,0.83334 0,1 0,0.16666 0,0 0,0 l 0,0 0,0 c 0,0 0,-0.16666 0,0 0,0.16666 0,0.83334 0,1 0,0.16666 0,0 0,0 l 0,0 c 0,0 0.16669,-0.16666 0,0 -0.16669,0.16666 -0.83331,0.83334 -1,1 -0.16669,0.16666 0,0 0,0 l 0,0 0,0 0,0 0,0 0,0 0,0 0,0 c 0,0 -0.16669,0 0,0 0.16669,0 0.83331,0 1,0 0.16669,0 0,0 0,0 l 0,0 0,0 0,0 c 0,0 -0.16669,0 0,0 0.16669,0 0.83331,-0.16666 1,0 0.16669,0.16666 0,0.83334 0,1 0,0.16666 0,0 0,0 0,0 -0.16669,-0.16666 0,0 0.16669,0.16666 0.66669,0.83334 1,1 0.33331,0.16666 0.83331,0 1,0 0.16669,0 -0.16669,-0.16666 0,0 0.16669,0.16666 0.66669,1 1,1 0.33331,0 0.66669,-0.83334 1,-1 0.33331,-0.16666 0.83331,0 1,0 0.16669,0 -0.16669,0.16666 0,0 0.16669,-0.16666 0.33331,-0.66666 1,-1 0.66669,-0.33334 2.33331,-0.83334 3,-1 0.66669,-0.16666 0.66669,0.16666 1,0 0.33331,-0.16666 0.83331,-0.83334 1,-1 0.16669,-0.16666 -0.16669,0.16666 0,0 0.16669,-0.16666 0.83331,-0.66666 1,-1 0.16669,-0.33334 -0.16669,-0.83334 0,-1 0.16669,-0.16666 0.66669,0.16666 1,0 0.33331,-0.16666 0.83331,-0.83334 1,-1 0.16669,-0.16666 0,0 0,0 l 0,0 0,0 0,0 c 0,0 0,-0.16666 0,0 0,0.16666 0,0.83334 0,1 0,0.16666 0,0 0,0 0,0 0.16669,-0.16666 0,0 -0.16669,0.16666 -0.83331,0.66666 -1,1 -0.16669,0.33334 0,0.66666 0,1 0,0.33334 0.16669,0.66666 0,1 -0.16669,0.33334 -0.66669,0.66666 -1,1 -0.33331,0.33334 -0.66669,0.5 -1,1 -0.33331,0.5 -0.83331,1.5 -1,2 -0.16669,0.5 0,0.66666 0,1 0,0.33334 0,0.83334 0,1 0,0.16666 0,0 0,0 l 0,0 0,0 c 0,0 -0.16669,0 0,0 0.16669,0 0.83331,0 1,0 0.16669,0 0,0 0,0 l 0,0 0,0 c 0,0 -0.16669,0.16666 0,0 0.16669,-0.16666 0.66669,-0.83334 1,-1 0.33331,-0.16666 0.66669,0.16666 1,0 0.33331,-0.16666 0.66669,-0.66666 1,-1 0.33331,-0.33334 0.66669,-0.66666 1,-1 0.33331,-0.33334 0.66669,-0.83334 1,-1 0.33331,-0.16666 0.83331,0 1,0 0.16669,0 -0.16669,0.16666 0,0 0.16669,-0.16666 0.83331,-0.83334 1,-1 0.16669,-0.16666 -0.16669,0.16666 0,0 0.16669,-0.16666 0.83331,-0.83334 1,-1 0.16669,-0.16666 0,0 0,0 l 0,0 0,0 c 0,0 0,-0.16666 0,0 0,0.16666 0,0.66666 0,1 0,0.33334 0.16669,0.66666 0,1 -0.16669,0.33334 -0.83331,0.5 -1,1 -0.16669,0.5 0,1.5 0,2 0,0.5 0,0.66666 0,1 0,0.33334 0,0.83334 0,1 0,0.16666 0.16669,-0.16666 0,0 -0.16669,0.16666 -0.83331,0.83334 -1,1 -0.16669,0.16666 -0.16669,0 0,0 0.16669,0 0.66669,0.16666 1,0 0.33331,-0.16666 0.66669,-0.83334 1,-1 0.33331,-0.16666 0.66669,0.16666 1,0 0.33331,-0.16666 0.66669,-0.66666 1,-1 0.33331,-0.33334 0.5,-0.5 1,-1 0.5,-0.5 1.16669,-1.33334 2,-2 0.83331,-0.66666 2.33331,-1.5 3,-2 0.66669,-0.5 0.5,-0.83334 1,-1 0.5,-0.16666 1.5,0 2,0 0.5,0 0.66669,0 1,0 0.33331,0 0.33331,0 1,0 0.66669,0 2.5,0 3,0 0.5,0 -0.16669,-0.16666 0,0 0.16669,0.16666 0.83331,0.5 1,1 0.16669,0.5 -0.16669,1.5 0,2 0.16669,0.5 0.83331,0.66666 1,1 0.16669,0.33334 -0.16669,0.66666 0,1 0.16669,0.33334 0.66669,0.5 1,1 0.33331,0.5 0.83331,1.66666 1,2 0.16669,0.33334 -0.16669,-0.16666 0,0 0.16669,0.16666 0.66669,0.83334 1,1 0.33331,0.16666 0.16669,0.5 1,0 0.83331,-0.5 2.66669,-2.16666 4,-3 1.33331,-0.83334 3.16669,-1.5 4,-2 0.83331,-0.5 0.16669,-0.5 1,-1 0.83331,-0.5 3.16669,-1.66666 4,-2 0.83331,-0.33334 1.5,-0.66666 1,0 -0.5,0.66666 -1.33331,2.5 -4,4 -2.66669,1.5 -9.66669,4.16666 -12,5 -2.33331,0.83334 -1.33331,-0.83334 -2,0 -0.66669,0.83334 -1.5,4 -2,5 -0.5,1 -0.5,0.5 -1,1 -0.5,0.5 -1.5,1.5 -2,2 -0.5,0.5 -0.5,0.5 -1,1 -0.5,0.5 -1.5,1.5 -2,2 -0.5,0.5 -0.66669,0.83334 -1,1 -0.33331,0.16666 -0.66669,-0.16666 -1,0 -0.33331,0.16666 -0.33331,0.66666 -1,1 -0.66669,0.33334 -1.83331,0.5 -3,1 -1.16669,0.5 -3.16669,1.66666 -4,2 -0.83331,0.33334 -0.83331,-0.16666 -1,0 -0.16669,0.16666 0.33331,0.83334 0,1 -0.33331,0.16666 -1.5,-0.33334 -2,0 -0.5,0.33334 -0.83331,1.66666 -1,2 -0.16669,0.33334 0,-0.16666 0,0 0,0.16666 0,0.83334 0,1 0,0.16666 0.16669,0 0,0 -0.16669,0 -0.66669,-0.16666 -1,0 -0.33331,0.16666 -0.66669,0.66666 -1,1 -0.33331,0.33334 -0.83331,0.83334 -1,1 -0.16669,0.16666 0.16669,-0.16666 0,0 -0.16669,0.16666 -0.83331,0.83334 -1,1 -0.16669,0.16666 0.16669,-0.16666 0,0 -0.16669,0.16666 -0.66669,0.83334 -1,1 -0.33331,0.16666 -0.66669,0 -1,0 -0.33331,0 -0.66669,-0.33334 -1,0 -0.33331,0.33334 -0.83331,1.66666 -1,2 -0.16669,0.33334 0,0 0,0 0,0 0,-0.16666 0,0 0,0.16666 0.83331,0.33334 0,1 -0.83331,0.66666 -4.16669,2.5 -5,3 -0.83331,0.5 0,-0.16669 0,0 0,0.16669 0.16669,0.66669 0,1 -0.16669,0.33331 -0.83331,0.66669 -1,1 -0.16669,0.33331 0,0.83331 0,1 0,0.16669 0,-0.16669 0,0 0,0.16669 0.16669,0.66669 0,1 -0.16669,0.33331 -0.83331,0.83331 -1,1 -0.16669,0.16669 0.16669,-0.16669 0,0 -0.16669,0.16669 -0.83331,0.66669 -1,1 -0.16669,0.33331 0,0.66669 0,1 0,0.33331 0,0.83331 0,1 0,0.16669 0.16669,0 0,0 -0.16669,0 -0.83331,0 -1,0 -0.16669,0 0,0 0,0 0,0 0,-0.16669 0,0 0,0.16669 0,0.83331 0,1 0,0.16669 0,-0.16669 0,0 0,0.16669 0,0.83331 0,1 0,0.16669 0,-0.16669 0,0 0,0.16669 0,0.83331 0,1 0,0.16669 0,0 0,0 0,0 0,-0.16669 0,0 0,0.16669 0,0.83331 0,1 0,0.16669 0,-0.16669 0,0 0,0.16669 0,0.83331 0,1 0,0.16669 0,-0.16669 0,0 0,0.16669 0,0.83331 0,1 0,0.16669 0,0 0,0 l 0,0 c 0,0 0,-0.16669 0,0 0,0.16669 0,0.83331 0,1 0,0.16669 0,-0.16669 0,0 0,0.16669 0,0.83331 0,1 0,0.16669 0,0 0,0 l 0,0 0,0 c 0,0 0,-0.16669 0,0 0,0.16669 0,0.83331 0,1 0,0.16669 0,0 0,0 l 0,0 0,0 c 0,0 0,-0.16669 0,0 0,0.16669 0,0.83331 0,1 0,0.16669 0,0 0,0 l 0,0 0,0 c 0,0 0,-0.16669 0,0 0,0.16669 0,0.83331 0,1 0,0.16669 0,0 0,0 l 0,0 c 0,0 0.16669,-0.16669 0,0 -0.16669,0.16669 -0.83331,0.83331 -1,1 -0.16669,0.16669 0,0 0,0 l 0,0 0,0 c 0,0 0,-0.16669 0,0 0,0.16669 0,0.83331 0,1 0,0.16669 0,0 0,0 l 0,0 0,0 0,0 c 0,0 0.16669,0 0,0 -0.16669,0 -0.83331,0 -1,0 -0.16669,0 0,0 0,0 0,0 0,-0.16669 0,0 0,0.16669 0,0.83331 0,1 0,0.16669 0,0 0,0 l 0,0 0,0 c 0,0 0,0.16669 0,0 0,-0.16669 0,-0.83331 0,-1 0,-0.16669 0,0 0,0 l 0,0 0,0 c 0,0 0,-0.16669 0,0 0,0.16669 0,0.83331 0,1 0,0.16669 0,0 0,0 0,0 -1,-0.16669 0,0 1,0.16669 5,0.66669 6,1 1,0.33331 0,0.83331 0,1 0,0.16669 0,-0.16669 0,0 0,0.16669 0.16669,0.66669 0,1 -0.16669,0.33331 -1,0.66669 -1,1 0,0.33331 0.83331,0.5 1,1 0.16669,0.5 0.16669,1.5 0,2 -0.16669,0.5 -0.83331,0.66669 -1,1 -0.16669,0.33331 0,0.83331 0,1 0,0.16669 0.16669,-0.16669 0,0 -0.16669,0.16669 -0.83331,0.83331 -1,1 -0.16669,0.16669 0,-0.16669 0,0 0,0.16669 0,0.5 0,1 0,0.5 0,1.66669 0,2 0,0.33331 0.16669,-0.16669 0,0 -0.16669,0.16669 -0.83331,0.83331 -1,1 -0.16669,0.16669 0,0 0,0 l 0,0 c 0,0 0,-0.16669 0,0 0,0.16669 0,0.83331 0,1 0,0.16669 0,0 0,0 l 0,0 0,0 0,0 c 0,0 0,-0.16669 0,0 0,0.16669 0,0.83331 0,1 0,0.16669 0,0 0,0 0,0 0,-0.16669 0,0 0,0.16669 0,0.83331 0,1 0,0.16669 0.16669,0.16669 0,0 -0.16669,-0.16669 -0.66669,-0.83331 -1,-1 -0.33331,-0.16669 -0.66669,-0.16669 -1,0 -0.33331,0.16669 -0.66669,0.83331 -1,1 -0.33331,0.16669 -0.66669,0 -1,0 -0.33331,0 -0.66669,0 -1,0 -0.33331,0 -0.5,-0.16669 -1,0 -0.5,0.16669 -1.66669,0.83331 -2,1 -0.33331,0.16669 0,0 0,0 0,0 0.16669,0 0,0 -0.16669,0 -0.83331,0 -1,0 -0.16669,0 0,0 0,0 0,0 0.16669,0 0,0 -0.16669,0 -0.83331,0 -1,0 -0.16669,0 0,0 0,0 l 0,0 0,0 c 0,0 0,0.16669 0,0 0,-0.16669 0,-0.83331 0,-1 0,-0.16669 0,0 0,0 l 0,0 0,0 c 0,0 0.16669,0 0,0 -0.16669,0 -0.83331,0 -1,0 -0.16669,0 0,0 0,0 0,0 0.16669,0 0,0 -0.16669,0 -0.66669,0 -1,0 -0.33331,0 -0.66669,0 -1,0 -0.33331,0 -0.83331,0 -1,0 -0.16669,0 0.16669,-0.16669 0,0 -0.16669,0.16669 -0.83331,0.83331 -1,1 -0.16669,0.16669 0,0 0,0 0,0 0.16669,0 0,0 -0.16669,0 -0.83331,0 -1,0 -0.16669,0 0,0 0,0 0,0 0.16669,0 0,0 -0.16669,0 -0.83331,0 -1,0 -0.16669,0 0,0 0,0 l 0,0 0,0 0,0 0,0 0,0 0,0 0,0 0,0 c 0,0 0,0.16669 0,0 0,-0.16669 0,-0.83331 0,-1 0,-0.16669 0,0 0,0 l 0,0 0,0 0,0 0,0 0,0 0,0 c 0,0 0,0.16669 0,0 0,-0.16669 0,-0.83331 0,-1 0,-0.16669 0,0 0,0 l 0,0 c 0,0 0.16669,0 0,0 -0.16669,0 -0.83331,0 -1,0 -0.16669,0 0,0.16669 0,0 0,-0.16669 0,-0.83331 0,-1 0,-0.16669 0,0.16669 0,0 0,-0.16669 0,-0.66669 0,-1 0,-0.33331 0.16669,-0.83331 0,-1 -0.16669,-0.16669 -0.83331,0.16669 -1,0 -0.16669,-0.16669 0.16669,-0.83331 0,-1 -0.16669,-0.16669 -0.83331,0.16669 -1,0 -0.16669,-0.16669 0,-0.83331 0,-1 0,-0.16669 0,0.16669 0,0 0,-0.16669 -0.16669,-0.83331 0,-1 0.16669,-0.16669 0.83331,0.16669 1,0 0.16669,-0.16669 0,-0.83331 0,-1 0,-0.16669 -0.16669,0.16669 0,0 0.16669,-0.16669 0.83331,-0.83331 1,-1 0.16669,-0.16669 -0.16669,0.16669 0,0 0.16669,-0.16669 0.83331,-0.66669 1,-1 0.16669,-0.33331 0,-0.66669 0,-1 0,-0.33331 0,-0.83331 0,-1 0,-0.16669 0,0 0,0 0,0 -0.16669,0.16669 0,0 0.16669,-0.16669 0.83331,-0.83331 1,-1 0.16669,-0.16669 0,0 0,0 l 0,0 c 0,0 -0.16669,0.16669 0,0 0.16669,-0.16669 0.83331,-0.83331 1,-1 0.16669,-0.16669 0,0 0,0 l 0,0 0,0 0,0 0,0 0,0 0,0 c 0,0 0.16669,0 0,0 -0.16669,0 -0.83331,0 -1,0 -0.16669,0 0,0 0,0 l 0,0 c 0,0 0,0.16669 0,0 0,-0.16669 0,-0.83331 0,-1 0,-0.16669 0.16669,0 0,0 -0.16669,0 -0.83331,0 -1,0 -0.16669,0 0,0 0,0 0,0 0.16669,0 0,0 -0.16669,0 -0.83331,0 -1,0 -0.16669,0 0,0 0,0 l 0,0 c 0,0 0.33331,0 0,0 -0.33331,0 -1.66669,0 -2,0 -0.33331,0 0,0 0,0 l 0,0 c 0,0 0.16669,0.16669 0,0 -0.16669,-0.16669 -0.83331,-0.83331 -1,-1 -0.16669,-0.16669 0,0 0,0 l 0,0 0,0 c 0,0 0.16669,0.16669 0,0 -0.16669,-0.16669 -0.83331,-0.66669 -1,-1 -0.16669,-0.33331 0,-0.83331 0,-1 0,-0.16669 0,0 0,0 l 0,0 c 0,0 0.16669,0.16669 0,0 -0.16669,-0.16669 -0.83331,-0.83331 -1,-1 -0.16669,-0.16669 0,0 0,0 l 0,0 0,0 0,0 0,0 0,0 c 0,0 0,0.16669 0,0 0,-0.16669 0,-0.83331 0,-1 0,-0.16669 0,0 0,0 l 0,0 0,0 c 0,0 0,0.16669 0,0 0,-0.16669 -0.16669,-0.83331 0,-1 0.16669,-0.16669 0.83331,0.16669 1,0 0.16669,-0.16669 0,-0.83331 0,-1 0,-0.16669 0,0.16669 0,0 0,-0.16669 0,-0.83331 0,-1 0,-0.16669 0,0 0,0 0,0 0,0.16669 0,0 0,-0.16669 0,-0.83331 0,-1 0,-0.16669 -0.16669,0 0,0 0.16669,0 0.83331,0 1,0 0.16669,0 0,0 0,0 0,0 0,0.16669 0,0 0,-0.16669 -0.16669,-0.66669 0,-1 0.16669,-0.33331 0.66669,-0.83331 1,-1 0.33331,-0.16669 0.83331,0.16669 1,0 0.16669,-0.16669 0,-0.83331 0,-1 0,-0.16669 0,0 0,0 l 0,0 c 0,0 0,0.16669 0,0 0,-0.16669 0,-0.83331 0,-1 0,-0.16669 0,0 0,0 0,0 0,0.16669 0,0 0,-0.16669 0,-0.83331 0,-1 0,-0.16669 0,0 0,0 l 0,0 c 0,0 0,0.16669 0,0 0,-0.16669 0,-0.83331 0,-1 0,-0.16669 0,0 0,0 0,0 0,0.16669 0,0 0,-0.16669 0.16669,-0.83331 0,-1 -0.16669,-0.16669 -0.83331,0 -1,0 -0.16669,0 0,0 0,0 0,0 0,0.16669 0,0 0,-0.16669 0,-0.83331 0,-1 0,-0.16669 0,0 0,0 l 0,0 c 0,0 0.16669,0 0,0 -0.16669,0 -0.83331,0 -1,0 -0.16669,0 0,0 0,0 l 0,0 0,0 c 0,0 0,-0.16669 0,0 0,0.16669 0,0.83331 0,1 0,0.16669 0.16669,-0.16669 0,0 -0.16669,0.16669 -0.66669,0.66669 -1,1 -0.33331,0.33331 -0.83331,0.66669 -1,1 -0.16669,0.33331 0.16669,0.66669 0,1 -0.16669,0.33331 -0.66669,0.66669 -1,1 -0.33331,0.33331 -0.66669,0.83331 -1,1 -0.33331,0.16669 -0.83331,-0.33331 -1,0 -0.16669,0.33331 0,1.66669 0,2 0,0.33331 0,0 0,0 l 0,0 0,0 c 0,0 0.16669,0 0,0 -0.16669,0 -0.83331,0.16669 -1,0 -0.16669,-0.16669 0,-0.83331 0,-1 0,-0.16669 0,0 0,0 l 0,0 0,0 c 0,0 0.16669,0.16669 0,0 -0.16669,-0.16669 -0.83331,-0.83331 -1,-1 -0.16669,-0.16669 0.16669,0.16669 0,0 -0.16669,-0.16669 -0.83331,-0.83331 -1,-1 -0.16669,-0.16669 0.16669,0 0,0 -0.16669,0 -0.66669,0 -1,0 -0.33331,0 -0.83331,0.16669 -1,0 -0.16669,-0.16669 0.16669,-0.83331 0,-1 -0.16669,-0.16669 -0.83331,0 -1,0 -0.16669,0 0,0 0,0 l 0,0 0,0 0,0 c 0,0 0.16669,0.16669 0,0 -0.16669,-0.16669 -0.83331,-0.83331 -1,-1 -0.16669,-0.16669 0,0 0,0 l 0,0 0,0 0,0 c 0,0 0.16669,0.16669 0,0 -0.16669,-0.16669 -0.83331,-0.83331 -1,-1 -0.16669,-0.16669 0,0 0,0 l 0,0 0,0 c 0,0 0.16669,0.16669 0,0 -0.16669,-0.16669 -0.83331,-0.83331 -1,-1 -0.16669,-0.16669 0,0 0,0 l 0,0 0,0 0,0 0,0 c 0,0 0,0.16669 0,0 0,-0.16669 0.16669,-0.83331 0,-1 -0.16669,-0.16669 -0.83331,0 -1,0 -0.16669,0 0,0 0,0 l 0,0 0,0 0,0 0,0 0,0 c 0,0 0.16669,0 0,0 -0.16669,0 -0.83331,0 -1,0 -0.16669,0 0,0 0,0 l 0,0 0,0 0,0 c 0,0 0.14102,-0.0889 0,0 l -0.65085,0.41017"
     id="path0006"
     style="fill:none;stroke:#000000;stroke-opacity:1" />
</svg>
