<?xml version="1.0" encoding="UTF-8" standalone="no"?>
<!-- Created with Inkscape (http://www.inkscape.org/) -->

<svg
   xmlns:dc="http://purl.org/dc/elements/1.1/"
   xmlns:cc="http://creativecommons.org/ns#"
   xmlns:rdf="http://www.w3.org/1999/02/22-rdf-syntax-ns#"
   xmlns:svg="http://www.w3.org/2000/svg"
   xmlns="http://www.w3.org/2000/svg"
   version="1.1"
   width="1029.5891"
   height="733.04431"
   id="svg2">
  <defs
     id="defs4" />
  <metadata
     id="metadata7">
    <rdf:RDF>
      <cc:Work
         rdf:about="">
        <dc:format>image/svg+xml</dc:format>
        <dc:type
           rdf:resource="http://purl.org/dc/dcmitype/StillImage" />
        <dc:title></dc:title>
      </cc:Work>
    </rdf:RDF>
  </metadata>
  <path
     d="m 878.42644,58.947031 c 5.53192,-2.290289 -1.03856,-1.471443 -1.17496,-2.330733 -0.0156,-0.09845 0.0235,-0.753521 0.048,-0.841653 0.0255,-0.09196 0.12458,-0.137919 0.16785,-0.215809 0.11594,-0.208685 0.09,-0.664173 0.1199,-0.906396 0.0337,-0.272659 0.19906,-0.536464 0.26376,-0.798492 0.0558,-0.225857 -0.21408,-1.398108 -0.31172,-1.661726 -0.0651,-0.175776 -0.22309,-0.334892 -0.26377,-0.51794 -0.0986,-0.443577 -0.18161,-0.872808 -0.26376,-1.316433 -0.0352,-0.19008 -0.17695,-0.326699 -0.23979,-0.49636 -0.0557,-0.150487 -0.0409,-0.415242 -0.0719,-0.582683 -0.0488,-0.263486 -0.14424,-0.51928 -0.2158,-0.776911 -0.12264,-0.441476 -0.35997,-0.824398 -0.52754,-1.251689 -0.067,-0.170767 -0.0488,-0.356234 -0.14387,-0.517941 -0.52774,-0.897154 -1.02004,-1.965078 -1.22291,-2.999739 -0.0852,-0.434565 -0.0991,-0.899822 -0.19183,-1.338013 -0.19974,-0.943738 -0.71581,-1.810307 -0.76732,-2.783931 -0.0391,-0.738332 0.0253,-1.405953 0.0959,-2.136505 0.0194,-0.200444 -0.007,-0.4059 0.048,-0.604264 0.10672,-0.384189 0.29041,-0.742378 0.40764,-1.122205 0.0859,-0.27847 0.0896,-0.564764 0.14387,-0.841653 0.0412,-0.20995 0.18055,-0.382115 0.21581,-0.604264 0.006,-0.03702 0.0717,-0.834535 0.19183,-0.798492 0.034,0.01018 0.0209,0.126506 0.024,0.151066 0.0392,0.317544 0.21977,0.647088 0.35968,0.927977 0.61328,1.231273 1.05913,2.49721 1.55862,3.77665 0.30658,0.785323 0.62706,1.526476 0.98312,2.287571 0.27372,0.58506 0.26453,0.942591 0.93517,1.143786 0.60063,0.180187 0.88823,-0.448446 1.07905,-0.906396 0.48418,-1.162052 0.83925,-2.461252 0.83925,-3.733489 0,-0.993134 -0.24393,-1.950325 -0.19183,-2.934997 0.009,-0.169317 0.27548,-1.704887 0.4556,-1.704887 0.0224,0 0.0426,0.325122 0.0959,0.496359 0.0772,0.248173 0.1827,0.486809 0.26377,0.73375 0.43712,1.331536 0.69138,2.755473 1.27087,4.03562 0.097,0.214218 0.22941,0.403596 0.31173,0.625845 0.0232,0.06254 -0.0187,0.194228 0.0479,0.194228 0.003,0 0.89205,-1.631345 0.93517,-1.704888 0.2153,-0.367137 0.44061,-0.728341 0.64743,-1.100624 0.38635,-0.695425 0.75503,-1.406084 1.15098,-2.093343 0.51806,-0.899206 1.20325,-1.61317 1.84636,-2.417056 0.50519,-0.631489 0.99412,-1.253663 1.53464,-1.855954 0.95514,-1.064297 1.72201,-2.317211 2.73357,-3.323452 0.70437,-0.700658 1.52577,-1.22212 2.25401,-1.877535 0.30606,-0.275462 0.61363,-0.610023 0.93517,-0.863234 0.92788,-0.730706 2.17941,-1.317638 3.21315,-1.899116 0.10893,-0.06127 0.69027,-0.635032 0.64742,-0.712168 -0.0239,-0.04305 -0.0906,0.04675 -0.11989,0.08632 -0.30933,0.417595 -0.45169,0.920589 -0.69539,1.381174 -0.64427,1.217685 -1.36878,2.369479 -2.06217,3.560842 -0.86128,1.479844 -1.99201,3.326571 -2.49378,4.963597 -0.23013,0.750774 -0.42597,1.52585 -0.62345,2.287571 -0.0266,0.102682 -0.65623,1.85092 -0.35968,1.812792 0.24989,-0.03213 0.0198,-0.05117 0.0959,-0.129485 0.22505,-0.231477 0.64847,-0.351993 0.91119,-0.539521 0.56127,-0.40063 1.09154,-0.843599 1.63056,-1.273271 0.70705,-0.563618 1.3972,-1.149963 2.11013,-1.704888 0.52586,-0.40932 1.1141,-0.733097 1.65453,-1.122204 0.86723,-0.624406 1.64915,-1.327589 2.56572,-1.877535 0.2218,-0.133078 1.82151,-1.213474 1.9183,-1.143785 0.1327,0.09554 -0.36237,0.524783 -0.40764,0.582683 -0.32697,0.418182 -2.10647,2.415196 -2.01421,2.913416 0.0165,0.08933 0.16797,0.140224 0.23979,0.107904 0.0446,-0.02008 0.0471,-0.135224 0.11989,-0.172647 0.52433,-0.269655 1.05594,-0.583316 1.53464,-0.927977 1.58765,-1.143107 3.40862,-1.887813 5.01155,-3.02132 0.94425,-0.667714 1.94545,-1.253264 2.87745,-1.942277 0.4952,-0.366095 0.99613,-0.728834 1.48668,-1.100624 0.287,-0.217515 0.5416,-0.54331 0.86324,-0.712168 0.45121,-0.236886 1.00336,-0.257455 1.48668,-0.453198 0.36978,-0.149763 0.72408,-0.26444 1.10302,-0.388456 0.0516,-0.0169 0.14573,-0.04483 0.19183,-0.08632 0.02,-0.01797 0.0264,-0.08073 0.048,-0.06474 0.0465,0.03443 -0.24775,0.182217 -0.26377,0.194228 -0.13781,0.103355 -0.19671,0.241182 -0.31172,0.366875 -0.52104,0.569415 -1.08034,1.093392 -1.60658,1.661726 -0.89082,0.962085 -1.71076,1.986905 -2.5897,2.956577 -0.71878,0.79298 -1.51543,1.512076 -2.254,2.287571 -0.28829,0.302702 -0.5583,0.620937 -0.83926,0.927977 -0.49244,0.538175 -1.31891,0.928124 -1.67851,1.575403 -0.21074,0.379337 -0.0714,0.886693 -0.3357,1.27327 -0.67526,0.987568 -1.60606,1.558026 -1.43872,2.913416 0.0214,0.173114 0.54981,0.429779 0.6714,0.561102 0.69831,0.754173 2.45856,2.027418 1.70249,3.237129 -0.0869,0.138962 -1.04667,1.316432 -1.10302,1.316432 -0.0269,0 -0.032,-0.04316 -0.048,-0.06474 -0.048,0 -0.0961,-0.0039 -0.14387,0 -0.1744,0.01427 -0.33427,0.09563 -0.50355,0.129485 -0.37117,0.07423 -0.77137,0.105081 -1.15098,0.129485 -0.27844,0.0179 -0.42669,-0.02531 -0.67141,-0.107904 -0.54055,-0.182435 -0.98578,0.26136 -1.34281,0.582683 -0.058,0.05224 -0.23821,0.09217 -0.26376,0.172647 -0.0432,0.135937 0.0751,0.06619 0.11989,0.08632 0.0558,0.0251 -0.17677,0.501581 -0.19183,0.539522 -0.14667,0.369606 -0.35026,0.619526 -0.11989,0.992719 0.28618,0.463609 0.65483,0.926204 1.05506,1.316433 0.19296,0.188135 0.73348,0.450711 0.76732,0.75533 0.0153,0.137469 -0.20268,0.674683 -0.23979,0.841653 -0.0376,0.169409 -0.50385,1.279398 -0.71936,1.25169 -0.11529,-0.01482 -0.20968,-0.239682 -0.28774,-0.302132 -0.35671,-0.285369 -0.77758,-0.54932 -1.17496,-0.776911 -0.0575,-0.03296 -0.50355,-0.182944 -0.50355,-0.25897 0,-0.04796 0.16053,-0.04497 0.14387,0 -0.0669,0.180642 -0.52901,0.134862 -0.67141,0.237389 -0.1867,0.134429 -0.19183,1.742644 -0.19183,2.050182 0,0.817968 -0.40792,1.601903 -0.45559,2.417056 -0.0244,0.416697 -0.003,0.856203 0.14387,1.251689 0.0893,0.241113 0.28683,0.593368 0.26377,0.863235 -0.0276,0.322887 -0.97795,1.566944 -1.19894,1.467498 -0.0482,-0.02168 -0.0202,-0.106109 -0.048,-0.151066 -0.0754,-0.12222 -0.20576,-0.205663 -0.28774,-0.323713 -0.26599,-0.383022 -0.61623,-0.712104 -0.76732,-1.165366 -0.14813,-0.444395 -0.0345,-0.946085 -0.21581,-1.381175 -0.13224,-0.317374 -0.3654,-0.646417 -0.4556,-0.971139 -0.11554,-0.41595 -0.12905,-0.928218 -0.38366,-1.294851 -0.18236,-0.262605 -0.49687,-0.478556 -0.71936,-0.712168 -0.19354,-0.203221 -0.31361,-0.485454 -0.50355,-0.690588 -0.10087,-0.108935 -0.285,-0.148599 -0.40764,-0.25897 -0.0374,-0.03363 -0.13104,-0.173524 -0.16785,-0.194228 -0.17772,-0.09997 -0.43459,-0.129783 -0.64743,-0.151066 -0.32248,-0.03225 -0.64773,-0.142461 -0.98312,-0.172647 -0.52574,-0.04732 -1.11193,0.0992 -1.63056,0.151066 -0.23496,0.0235 -0.66829,0.07389 -0.88721,0 -0.15299,-0.05164 -0.32683,-0.107904 -0.50355,-0.107904 -0.20505,0 -0.3397,0.117255 -0.52754,0.151066 -0.16166,0.0291 -0.34353,-0.01442 -0.50355,0.02158 -0.31229,0.07027 -1.96999,0.570701 -2.13411,0.75533 -0.0993,0.111757 -0.13277,0.25098 -0.26376,0.345294 -0.13258,0.09546 -0.32303,0.128251 -0.40764,0.280551 -0.0681,0.122581 -0.28851,0.364459 -0.23979,0.51794 0.0856,0.269704 2.71358,0.675545 3.06928,0.73375 0.47038,0.07697 0.69033,0.678103 0.4556,1.100623 -0.2235,0.402289 -1.12598,0.887587 -1.10303,0.949558 0.0194,0.05247 0.11213,0.005 0.16785,0 0.8578,-0.0772 1.89874,-0.197303 2.68562,0.215809 0.16845,0.08843 0.52776,0.377355 0.35968,0.604264 -0.19002,0.256536 -1.46744,-0.28689 -1.67851,-0.366875 -1.01453,-0.384453 -2.07026,-0.584504 -3.11723,-0.820073 -0.31744,-0.07142 -0.648,-0.07106 -0.95915,-0.151066 -0.41536,-0.106805 -0.77821,-0.364908 -1.17496,-0.51794 -0.51973,-0.200466 -0.50884,-0.760645 -0.71936,-1.186947 -0.0263,-0.05326 0.006,-0.321136 -0.048,-0.345294 -0.35276,-0.158741 -1.15563,0.832012 -1.19894,1.143785 -0.0756,0.544354 0.23073,0.975896 0.28775,1.48908 0.0726,0.653803 -0.50526,0.795276 0.40764,1.467498 0.6761,0.497858 2.86947,0.683333 2.61368,1.834373 -0.13217,0.594759 -1.0445,1.357558 -1.43872,1.791211 -0.1099,0.12089 -0.16615,0.26765 -0.26377,0.388455 -0.12167,0.150569 -0.31021,0.298055 -0.38366,0.49636 -0.17569,0.474359 0.23059,1.13455 0.38366,1.575403 0.20693,0.595948 0.36618,1.178424 0.40764,1.812792 0.0351,0.536867 -0.0426,1.082319 0,1.618564 0.0524,0.66073 0.24671,1.342815 0.50355,1.920697 0.12829,0.288651 0.17027,0.693849 0.35968,0.949557 0.14459,0.195198 0.49451,0.443891 0.67141,0.625845 0.0524,0.05388 0.0829,0.194724 0.14387,0.23739 0.18234,0.127639 0.79092,0.186919 1.03108,0.25897 0.33658,0.100973 0.57671,0.319725 0.9112,0.410036 0.36673,0.09902 1.60405,-0.11756 1.96625,-0.280551 0.37,-0.166499 0.65992,-0.515804 0.91119,-0.798492 0.28953,-0.325719 1.17186,-0.687792 1.5826,-1.057462 0.2147,-0.193234 0.20373,-0.776778 0.38366,-1.035881 0.1324,-0.190661 0.2615,-0.38642 0.43162,-0.539521 0.23276,-0.20949 0.54588,-0.294535 0.74334,-0.561103 0.44383,-0.599169 0.32486,-1.167427 0.62344,-1.704887 0.25576,-0.460355 1.57213,-1.284517 2.0382,-1.424337 0.0289,-0.0087 0.2078,-0.07194 0.23978,-0.04316 0.0393,0.03534 -0.006,0.403425 0,0.453198 0.0402,0.307597 0.46923,1.815122 0.95915,1.704888 0.0918,-0.02066 0.26241,-0.643748 0.28775,-0.712168 0.44134,-1.191631 1.16663,-2.707195 1.89432,-3.755069 0.0663,-0.09547 0.23406,-0.410037 0.35968,-0.410037 0.319,0 0.40019,1.128677 0.40764,1.316433 0.0538,1.354521 0.44408,2.822186 0.0959,4.165105 -0.11909,0.459363 -0.35744,0.8865 -0.55151,1.316432 -0.20553,0.455323 -0.72334,1.388237 -0.7913,1.877535 -0.0239,0.17172 0.29362,0.19951 0.38366,0.280551 0.10074,0.09067 0.12427,0.282518 0.26377,0.345294 0.25768,0.115955 1.4175,-0.297357 1.72647,-0.366875 0.88537,-0.199208 1.65454,-0.69059 2.46981,-1.057462 0.28763,-0.129435 0.58267,-0.239177 0.83925,-0.431617 0.44516,-0.333867 0.77463,-0.796621 1.19894,-1.143785 0.23581,-0.192935 0.54477,-0.311467 0.7913,-0.49636 1.43337,-1.075028 2.89031,-2.097519 4.3881,-3.086063 0.8172,-0.539349 2.16112,-1.392005 2.78154,-2.136505 0.46949,-0.56339 0.98222,-1.082004 1.48668,-1.618564 0.54879,-0.583719 1.20422,-1.080305 1.77443,-1.640145 0.44092,-0.432911 0.8095,-0.986791 1.127,-1.51066 0.12361,-0.203971 0.34886,-0.36052 0.50355,-0.539522 0.31135,-0.360282 0.66734,-0.859985 0.93517,-1.251689 0.17608,-0.257514 0.23775,-0.545736 0.35968,-0.820073 0.25565,-0.575219 0.65537,-1.114926 0.95915,-1.661726 0.37215,-0.669872 0.95332,-1.22603 1.39077,-1.855954 0.16561,-0.238489 0.31306,-0.562305 0.52753,-0.75533 0.38731,-0.348585 0.76859,-0.719409 1.127,-1.100624 0.35055,-0.372858 0.62733,-0.820785 1.03108,-1.143785 0.29413,-0.235302 0.6562,-0.38614 0.95915,-0.604264 1.30327,-0.938354 3.1292,-0.923026 4.65188,-1.208528 0.75038,-0.140697 1.48036,-0.31826 2.23002,-0.453198 0.26713,-0.04808 0.50934,-0.17238 0.76732,-0.23739 0.33318,-0.08396 0.69244,-0.113658 1.03108,-0.172647 0.81629,-0.142192 1.60927,-0.380537 2.42186,-0.539521 1.43277,-0.280326 2.8345,-0.587056 4.24423,-0.949558 1.50525,-0.387063 3.04447,-0.632789 4.53198,-1.079043 0.96871,-0.290612 1.64075,-0.825627 2.42185,-1.445917 0.64727,-0.514005 1.45915,-0.895351 2.15809,-1.338013 1.03078,-0.652827 1.81285,-1.455366 2.66164,-2.309152 0.75008,-0.754493 1.53633,-1.490599 2.32593,-2.201248 0.49191,-0.442713 1.02511,-0.817117 1.48669,-1.294851 0.60483,-0.626006 1.07178,-1.327521 1.60657,-2.00702 0.35364,-0.449332 0.75176,-0.867182 1.10302,-1.316432 1.05879,-1.354136 2.04658,-2.76288 3.06928,-4.143525 0.50958,-0.687929 0.86028,-1.442751 1.31883,-2.158086 1.09889,-1.714263 2.22514,-3.491972 3.57283,-5.02834 0.25124,-0.286415 0.47728,-0.58957 0.74334,-0.863234 0.19841,-0.204081 0.45954,-0.345888 0.64743,-0.561102 0.48675,-0.557556 0.91859,-1.13692 1.36679,-1.726469 0.291,-0.382782 0.59228,-0.763437 0.91119,-1.122205 0.0607,-0.06832 0.42583,-0.494276 0.31172,-0.453198 -0.0433,0.01559 -0.002,0.129486 -0.048,0.129486 -0.0216,0 0.0216,-0.06474 0,-0.06474 -0.0281,0 -0.11426,0.236953 -0.0959,0.25897 0.0738,0.08855 0.61106,0.100943 0.71936,0.107905 0.19968,0.01284 0.36751,-0.09269 0.55151,-0.129486 0.29458,-0.05892 0.65971,-0.03743 0.95915,-0.02158 0.38474,0.02037 0.76591,0.151066 1.15098,0.151066 0.56423,0 1.14989,-0.111107 1.70249,-0.215809 1.48072,-0.280558 2.77894,-0.583763 3.98047,-1.51066 0.11199,-0.086396 0.10169,-0.1741223 0.14387,-0.2373894 0.14878,-0.2231688 0.61569,-0.3455508 0.81528,-0.5611023 0.0335,-0.036135 0.11989,-0.037078 0.11989,-0.086324 0,-0.05595 -0.16785,0.05595 -0.16785,0 0,-0.072295 0.14988,0.00809 0.21581,-0.021581 0.0245,-0.011021 -0.061,-0.041266 -0.048,-0.064743 0.0149,-0.026806 0.10797,-0.1389965 0.1199,-0.151066 0.019,-0.019285 0.31619,-0.254945 0.23978,-0.3237129 -0.0541,-0.048725 -0.24931,0.204247 -0.26376,0.2158086 -0.10568,0.084538 -0.24572,0.1121699 -0.35968,0.1942277 -0.43056,0.3100011 -0.86408,0.6178164 -1.29486,0.9279769 -0.83368,0.6002554 -1.59288,1.2929364 -2.42185,1.8991154 -1.32822,0.971262 -2.71983,1.860979 -4.0524,2.827093 -0.1841,0.133466 -1.91643,1.384551 -1.77443,1.640145 0.014,0.02526 0.20487,-0.09979 0.23979,-0.08632 0.1283,0.04949 0.25808,0.230209 0.38366,0.302132 1.51124,0.865533 3.05528,0.07104 4.508,-0.582683 0.59414,-0.267364 1.21347,-0.522836 1.82238,-0.75533 1.54315,-0.589202 3.11255,-1.152372 4.67586,-1.683307 0.40932,-0.139014 0.81091,-0.300747 1.22291,-0.431617 0.37984,-0.120656 0.7672,-0.216253 1.15098,-0.323713 1.4495,-0.405859 2.87732,-0.825001 4.26821,-1.402756 0.40985,-0.170243 0.76515,-0.335345 1.19894,-0.474778 0.15686,-0.05042 0.32525,-0.0774 0.47957,-0.129486 0.0265,-0.0089 0.0999,-0.04316 0.0719,-0.04316 -0.34221,0 -2.13583,1.777212 -2.51777,2.050181 -0.94293,0.673922 -1.9579,1.38551 -2.99734,1.899116 -0.63476,0.313645 -1.29993,0.585055 -1.94227,0.884815 -1.17908,0.550236 -2.3535,1.101949 -3.57284,1.553822 -0.35407,0.131217 -0.73238,0.210876 -1.07904,0.366874 -0.1119,0.05036 -0.44092,0.08793 -0.3357,0.151066 0.18308,0.109849 0.9371,-0.232767 1.10302,-0.280551 0.78039,-0.224751 1.57195,-0.414037 2.34992,-0.647426 0.24884,-0.07465 0.55432,-0.237389 0.81527,-0.237389 0.024,0 -0.048,0 -0.0719,0 -0.12956,0 -0.19523,0.0339 -0.31173,0.08632 -0.23851,0.107333 -0.47395,0.189159 -0.71936,0.280552 -0.97292,0.362329 -1.91253,0.92423 -2.78153,1.489079 -0.10919,0.07097 -0.58903,0.347373 -0.4556,0.539521 0.18544,0.267028 1.41359,0.304297 1.72647,0.366875 1.06549,0.213097 2.06281,0.07181 3.11724,-0.129485 1.01848,-0.194438 2.04818,-0.349388 3.06927,-0.539522 0.68575,-0.12769 1.36238,-0.31791 2.06218,-0.345294 0.37119,-0.01452 2.08263,-0.28762 2.27798,-0.237389 0.0794,0.02043 0.35018,0.225231 0.35968,0.302132 0.008,0.06884 -0.94359,0.490756 -1.07905,0.539521 -0.32637,0.117495 -0.61606,0.279492 -0.93517,0.410037 -0.5593,0.228807 -1.14528,0.343881 -1.70249,0.582683 -0.74439,0.319027 -1.43229,0.761071 -2.20604,1.0143 -0.43361,0.141908 -0.85109,0.222256 -1.29485,0.302132 -0.16339,0.02941 -0.33968,0.07103 -0.50356,0.107905 -0.0513,0.01154 -0.19646,0.06474 -0.14387,0.06474 0.2571,0 0.50653,-0.144518 0.7913,-0.107904 0.19532,0.02511 0.37929,0.131445 0.57549,0.151066 0.482,0.0482 0.97858,-0.0027 1.4627,0.04316 0.60423,0.05724 1.17188,0.271397 1.75045,0.431617 0.41914,0.116068 0.8696,0.105907 1.29485,0.194227 0.37622,0.07814 0.68196,0.129486 1.07904,0.129486 0.14388,0 0.28775,0 0.43162,0 0.024,0 0.0719,-0.02398 0.0719,0 0,0.07194 -0.14387,0 -0.21581,0 -0.13128,0 -0.21335,0.08054 -0.3357,0.129485 -0.68005,0.272019 -1.474,0.408185 -2.18207,0.604264 -1.44121,0.399104 -2.92807,0.540663 -4.41208,0.604264 -0.74421,0.03189 -1.49048,-0.05272 -2.23003,0.06474 -1.30119,0.206661 -2.61308,0.390453 -3.88455,0.73375 -0.27591,0.07449 -0.59718,0.05529 -0.86323,0.151066 -0.15086,0.05431 -0.22532,0.130651 -0.33571,0.215808 -0.0787,0.06069 -0.75322,0.237197 -0.88721,0.302132 -0.30383,0.147239 -0.54284,0.370394 -0.81528,0.561102 -0.0903,0.06323 -0.21848,0.07354 -0.31172,0.129486 -0.36223,0.21734 -0.62201,0.501043 -0.91119,0.798491 -0.20876,0.214721 -0.55177,0.248356 -0.7913,0.410037 -0.24895,0.168044 -0.4938,0.318726 -0.71936,0.496359 -0.54366,0.42813 -0.95098,1.031372 -1.41475,1.532241 -0.28842,0.311495 -0.58455,0.608765 -0.86323,0.927977 -0.12449,0.142596 -0.29669,0.212817 -0.43162,0.345294 -0.25118,0.246611 -0.53578,0.611972 -0.69538,0.927977 -0.63248,1.252297 -1.2774,2.53207 -2.11013,3.690326 -0.34339,0.477626 -0.86353,0.806754 -1.19894,1.273271 -0.63236,0.879553 -1.27714,1.756113 -1.94227,2.611284 -0.37021,0.475975 -0.88365,0.835895 -1.29486,1.273271 -1.02525,1.090499 -2.33486,2.203583 -3.54885,3.086062 -0.93973,0.683111 -2.06452,1.123263 -3.11723,1.596984 -1.7616,0.792718 -3.55045,1.500128 -5.32328,2.26599 -1.48657,0.642197 -2.7326,1.621884 -4.14832,2.395475 -1.52315,0.832291 -2.98051,1.6835 -4.41209,2.632865 -0.36727,0.243562 -0.79361,0.390124 -1.15098,0.647425 -0.62873,0.45269 -0.84957,1.008564 -1.36679,1.532241 -0.39553,0.400475 -0.87977,0.698357 -1.27087,1.100624 -0.51665,0.531414 -0.95551,1.125318 -1.48668,1.640145 -0.54227,0.525589 -1.26258,0.893589 -1.87034,1.338013 -0.40305,0.294734 -0.94434,1.011536 -1.34281,1.402756 -0.76659,0.752651 -1.59937,1.380302 -2.254,2.244409 -0.51069,0.674116 -0.85189,1.399542 -1.19894,2.158086 -0.17525,0.38306 -0.48276,0.711444 -0.71936,1.057462 -0.19059,0.278739 -0.32991,0.594592 -0.50355,0.884815 -0.31644,0.528907 -0.48965,1.154864 -0.91119,1.618565 -0.23379,0.257166 -0.51752,0.470048 -0.76732,0.712168 -0.4693,0.454856 -0.8835,1.013446 -1.39077,1.424337 -0.14937,0.120987 -0.34908,0.188385 -0.50355,0.302132 -0.49824,0.366881 -0.96081,0.795792 -1.46271,1.165366 -0.31429,0.231433 -0.57934,0.534254 -0.93517,0.712168 -0.62571,0.312859 -1.29479,0.598846 -1.94227,0.841654 -0.23114,0.08668 -0.37921,0.278769 -0.59947,0.366874 -0.37559,0.150237 -0.78623,0.206079 -1.15098,0.388456 -0.23759,0.118794 -0.40145,0.29842 -0.62345,0.431617 -0.1336,0.08016 -0.32161,0.121887 -0.43161,0.23739 -0.11568,0.121458 -0.14288,0.278762 -0.21581,0.410036 -0.37004,0.666072 -0.45929,1.059117 -0.57549,1.791211 -0.0178,0.111894 0.0206,0.23395 0,0.345294 -0.0408,0.220336 -0.11482,0.459053 -0.0719,0.690587 0.0202,0.108966 0.13786,0.129433 0.16785,0.23739 0.0276,0.09933 0.0348,0.260375 0.048,0.366874 0.0188,0.15247 0.024,0.347702 0.024,0.49636 0,0.0709 -0.10202,0.236578 -0.0959,0.280551 0.0218,0.156787 0.35164,0.608953 0.43162,0.776911 0.1433,0.300933 0.0307,0.501322 0.0719,0.798492 0.0407,0.292943 0.26641,0.534623 0.31172,0.820072 0.0398,0.250984 0.16015,1.142219 0.11989,1.359594 -0.0428,0.231364 -0.10179,0.470356 -0.0719,0.712169 0.0232,0.188302 0.14387,0.304955 0.14387,0.496359 0,0.132836 0.0963,0.421626 0.048,0.539522 -0.0571,0.139187 -0.16981,0.256887 -0.20102,0.404042 -0.006,0.03031 0.25523,-0.09005 0.0719,0.107904 -0.15906,0.17179 0.0959,0.135866 0.0959,0.172647 0,0.04849 -0.12994,0.06803 -0.14388,0.02158 -0.0134,-0.0446 0.17616,0.01495 0.1199,-0.08632 -0.0454,-0.08175 -0.0748,0.224441 0,0.280551 0.18443,0.138323 0.38366,-0.104169 0.38366,0.280551 0,0.01845 -0.0719,0.258941 -0.0719,0.258971 -0.0165,0.01425 -0.0533,-0.06783 -0.0444,-0.04796 0.18159,0.405483 0.38621,0.805868 0.57549,1.208528 0.54992,1.169839 1.1794,2.29756 1.70249,3.474518 0.23036,0.518315 0.32918,1.033979 0.47958,1.575403 0.13108,0.471916 0.45843,0.894172 0.59946,1.359594 0.0654,0.21581 0.0423,0.451942 0.0959,0.669007 0.0895,0.362436 0.29627,0.69043 0.38366,1.057462 0.1072,0.450258 0.19183,1.005785 0.19183,1.467498 0,0.135566 -0.0472,0.297748 -0.0719,0.431617 -0.004,0.02263 -9.6e-4,0.06474 -0.024,0.06474 -0.023,0 -0.045,-0.0553 -0.024,-0.06474 0.14397,-0.06478 0.52734,1.466423 0.55152,1.596984 0.0978,0.527915 0.23978,1.034689 0.23978,1.575402 0,0.499957 -0.0624,1.009577 -0.024,1.510657 0.077,1.0046 0.2494,2.11069 0.40764,3.10765 0.0854,0.53778 0.27759,1.04354 0.38366,1.5754 0.21115,1.05876 0.45111,2.11226 0.64743,3.17238 0.18994,1.02567 0.23204,2.07377 0.35968,3.10765 0.16692,1.35205 0.38755,2.69995 0.50355,4.0572 0.0497,0.58146 0.0278,1.1652 0.0959,1.74805 0.11178,0.95572 0.46125,1.87262 0.52753,2.82709 0.11597,1.66992 0.0295,3.35586 0.0959,5.02834 0.066,1.66396 0.44409,3.34675 0.88722,4.94202 0.40551,1.45985 0.75932,2.88464 1.4627,4.22985 0.26521,0.50721 0.29863,1.14964 0.55151,1.66172 0.50853,1.02977 1.12204,1.70043 1.96626,2.46022 0.33449,0.30105 0.61047,0.66712 0.98312,0.92798 0.17406,0.12184 0.40289,0.14946 0.59947,0.21581 0.27806,0.0938 0.5208,0.32219 0.81528,0.38845 0.66008,0.14852 1.35408,0.17518 2.01421,0.32371 0.42873,0.0965 0.62272,0.40971 1.00711,0.58269 0.39292,0.17681 0.84515,0.24315 1.24689,0.41003 0.4396,0.18261 0.85651,0.41862 1.29486,0.60427 0.46949,0.19884 0.96007,0.34885 1.41474,0.58268 0.66157,0.34024 1.29858,0.70811 1.96626,1.03588 0.15598,0.0766 0.28493,0.20777 0.45559,0.25897 0.22669,0.068 0.53372,0.0247 0.74334,0.12949 0.49821,0.2491 1.09312,0.40134 1.65454,0.51794 0.32182,0.0668 0.66868,0.0587 0.98312,0.12948 0.0862,0.0194 0.12999,0.085 0.19183,0.12949 0.21085,0.15181 0.70504,0.24243 0.95915,0.28055 0.14268,0.0214 0.2661,0.0867 0.40764,0.1079 0.0237,0.004 0.0836,-0.021 0.0719,0 -0.0706,0.12706 -0.16933,0.0785 0.11989,0.19423 0.53602,0.21441 1.05094,0.26493 1.60658,0.43162 0.42388,0.12716 0.85419,0.26597 1.29485,0.34529 2.59989,0.46798 5.27442,0.46932 7.91298,0.64743 3.97972,0.26863 7.97499,0.53952 11.96538,0.53952 1.42782,0 2.88983,-0.19054 4.2922,-0.41004 0.90306,-0.14135 1.78126,-0.21338 2.66164,-0.49636 0.9084,-0.29198 1.76708,-0.6657 2.63766,-1.05746 0.40441,-0.18198 0.82452,-0.36965 1.24689,-0.49636 0.0327,-0.01 0.43162,-0.13781 0.43162,-0.15106 0,-0.024 -0.0719,-0.024 -0.0719,0 0,0.135 0.80438,0.15106 0.91119,0.15106 0.33044,0 0.65554,0.15737 0.98313,0.19423 0.50381,0.0567 1.01404,0.0237 1.51066,0.17265 0.23787,0.0714 0.45748,0.20269 0.69539,0.28055 0.26253,0.0859 1.06405,0.11252 1.22291,0.19422 0.27767,0.14281 0.52012,0.38512 0.81528,0.51795 0.61149,0.27517 1.30581,0.55151 1.84636,0.94955 0.58635,0.43177 1.00043,1.15016 1.4627,1.70489 0.49357,0.59228 0.95734,1.12957 1.31883,1.81279 0.343,0.64828 0.98953,1.35098 1.127,2.09335 0.10667,0.57602 0.1031,1.14805 0.26377,1.72646 0.65377,2.35356 1.3614,4.68952 2.18206,6.9922 0.69949,1.96268 1.49598,3.8913 2.20605,5.84842 0.26386,0.72727 0.46041,1.47979 0.74335,2.20124 0.8905,2.27082 1.9281,4.47785 2.9014,6.71165 0.3221,0.7391 0.5555,1.51392 0.8393,2.26599 0.4877,1.29232 1.0212,2.57938 1.5346,3.86297 0.7735,1.9337 1.6546,3.82473 2.4698,5.74051 0.6522,1.53269 1.2281,3.07372 2.0382,4.53198 0.6762,1.21709 1.2412,2.47615 2.0622,3.604 0.7894,1.08445 1.7667,1.97845 2.7576,2.87026 0.1496,0.13464 0.3338,0.22802 0.4795,0.36687 0.2092,0.19934 0.5147,0.50846 0.6714,0.75533 0.034,0.0526 0.039,0.12002 0.072,0.17265 0.026,0.0406 0.1193,0.0658 0.096,0.1079 -0.028,0.0505 -0.2256,0.0432 -0.1679,0.0432 0.1644,0 0.1449,-0.008 0.2878,-0.0648 0.024,-0.01 1.351,0.15107 1.4867,0.15107 0.5209,0 1.0803,-0.28055 1.5106,-0.28055 0.1645,0 0.1038,0.13358 0.2398,0.15106 0.4312,0.0554 0.9676,-0.0838 1.3908,-0.15106 0.076,-0.012 0.7037,-0.12905 0.7673,-0.0432 0.021,0.0288 -0.155,0.15435 -0.072,0.25897 0.5386,0.67873 2.6163,0.26856 3.381,0.36687 0.5207,0.067 1.0089,0.13894 1.3428,0.53952 0.036,0.0428 -0.069,0.10671 -0.072,0.10791 -0.044,0.0197 -0.1438,-0.048 -0.1438,0 0,0.0913 0.4878,-0.0863 0.1438,-0.0863 -0.058,0 0.1152,-0.0669 0.1679,-0.0432 0.059,0.0264 0.1171,0.15869 0.2158,0.19423 0.2868,0.10327 0.5917,0.11128 0.8872,0.17265 0.091,0.0189 0.1942,0.0432 0.2877,0.0432 0.024,0 0.072,-0.024 0.072,0 0,0.0563 -0.3039,-0.0453 -0.048,0.0863 0.089,0.0459 0.1467,0.10918 0.2398,0.15107 0.026,0.0116 0.2638,0.0738 0.2638,0.1079 0,0.024 -0.072,-0.024 -0.072,0 0,0.10075 0.7216,0.32752 0.7434,0.25897 0.043,-0.13466 -0.8041,-0.26482 -0.9352,-0.28055 -0.7738,-0.0929 -1.6585,-0.0551 -2.4218,0.0863 -0.6784,0.12569 -0.1331,0.11368 -0.8393,0.15106 -0.5076,0.0269 -2.0789,-0.0356 -2.4938,0.15107 -0.1981,0.0891 -0.1971,0.38365 -0.048,0.51794 0.1197,0.10775 0.3336,0.0748 0.4795,0.19423 0.483,0.39512 0.7692,0.97832 1.1031,1.48907 0.1074,0.16441 0.3003,0.32762 0.3836,0.49636 0.01,0.0197 0,0.17127 -0.024,0.19423 -0.058,0.0518 -0.1523,0.0419 -0.2158,0.0863 -0.165,0.11555 -0.3793,0.36317 -0.5035,0.51794 -0.1211,0.15089 -0.5411,1.20852 -0.6714,1.20852 -0.1353,0 -0.3944,-0.14445 -0.5276,-0.17264 -0.4257,-0.0902 -0.8819,-0.17714 -1.3188,-0.19423 -0.9798,-0.0383 -1.8999,0.26754 -2.8774,0.19423 -0.2289,-0.0172 -0.4459,-0.11302 -0.6714,-0.15107 -0.9984,-0.16847 -2.0537,-0.28563 -3.0693,-0.32371 -1.3593,-0.051 -2.7466,0.19386 -4.0524,0.53952 -0.4285,0.11342 -0.8895,0.0838 -1.3189,0.19423 -0.9244,0.23771 -1.9127,0.34133 -2.8055,0.71217 -0.8736,0.36289 -2.9748,1.91937 -3.7167,1.25169 -0.083,-0.0749 -0.1993,-1.02285 -0.2877,-1.20853 -0.2232,-0.46864 -0.6944,-0.7713 -0.7913,-1.29485 -0.087,-0.46918 0.096,-0.94424 0.096,-1.40276 0,-0.18727 -0.094,-0.37737 -0.1199,-0.5611 -0.096,-0.69271 0.01,-1.42274 -0.096,-2.11493 -0.035,-0.2394 -0.1802,-0.45803 -0.2398,-0.69058 -0.075,-0.29086 -0.163,-0.95969 -0.1439,-1.25169 0.031,-0.46729 0.2547,-0.8792 0.1919,-1.3596 -0.03,-0.23021 -0.1804,-0.42387 -0.2158,-0.64742 -0.039,-0.24423 -0.075,-0.4909 -0.1199,-0.73375 -0.075,-0.40685 -0.072,-0.83984 -0.096,-1.25169 -0.032,-0.55091 -0.149,-1.13878 -0.2397,-1.68331 -0.075,-0.44831 -0.29333,-0.869 -0.38372,-1.31643 -0.21243,-1.05153 -0.3649,-2.08 -0.76732,-3.08606 -0.25721,-0.64304 -0.55478,-1.35008 -0.91119,-1.94228 -0.25589,-0.42518 -0.54458,-0.8377 -0.74334,-1.29485 -0.46506,-1.06964 -0.81573,-2.17218 -1.2469,-3.25871 -0.19171,-0.48311 -0.5385,-0.90186 -0.74334,-1.38118 -0.44476,-1.04074 -0.5767,-2.19618 -1.03108,-3.23713 -0.55051,-1.26115 -1.42086,-2.31085 -2.06217,-3.51768 -0.35419,-0.6665 -0.68279,-1.36508 -1.07905,-2.00702 -0.41885,-0.67854 -0.88899,-1.31724 -1.31883,-1.98543 -0.50249,-0.78115 -0.97262,-1.66458 -1.63055,-2.33074 -0.4751,-0.48104 -0.97943,-0.95593 -1.4627,-1.42433 -0.37666,-0.36507 -0.65745,-0.82909 -1.05507,-1.18695 -0.98817,-0.88935 -2.06886,-1.88568 -3.2611,-2.4818 -0.20628,-0.10314 -0.46468,-0.1012 -0.67141,-0.19423 -1.31085,-0.58988 -2.74898,-0.72469 -4.1723,-0.88481 -0.43531,-0.049 -0.86424,-0.13368 -1.29485,-0.19423 -0.74209,-0.10436 -1.52933,-0.0974 -2.27798,-0.12949 -1.61574,-0.0692 -3.22686,-0.1079 -4.8437,-0.1079 -2.0895,0 -4.19361,-0.13487 -6.28243,-0.0432 -0.5143,0.0226 -1.02063,0.12022 -1.53464,0.15106 -1.39008,0.0834 -2.7814,0.0342 -4.1723,0.0648 -0.79969,0.0175 -1.59721,0.065 -2.39787,0.0432 -1.23301,-0.0336 -2.4593,-0.21272 -3.69273,-0.25897 -1.72325,-0.0646 -3.45858,0.0643 -5.1794,-0.0647 -0.98943,-0.0742 -2.02389,-0.23482 -2.99734,-0.41004 -0.5228,-0.0941 -1.06276,-0.0988 -1.5826,-0.21581 -1.45171,-0.32663 -2.92796,-0.83733 -4.34015,-1.33801 -0.46993,-0.16661 -1.02054,-0.30739 -1.4627,-0.53952 -0.69566,-0.36522 -1.28268,-0.94651 -1.96626,-1.33802 -0.23613,-0.13524 -0.48056,-0.19834 -0.71936,-0.32371 -0.34546,-0.18136 -0.64081,-0.43311 -0.98313,-0.60426 -0.29938,-0.14969 -0.51462,-0.48226 -0.7913,-0.66901 -1.09067,-0.7362 -2.34272,-1.36553 -3.45293,-2.11492 -0.55294,-0.37323 -1.03086,-0.85769 -1.5826,-1.23011 -0.46639,-0.31482 -0.93427,-0.65227 -1.41475,-0.94956 -0.30034,-0.18584 -0.64696,-0.30182 -0.93517,-0.49636 -0.86957,-0.58697 -1.76584,-1.14347 -2.68561,-1.64015 -0.3891,-0.21011 -0.63889,-0.59714 -1.03109,-0.82007 -1.30931,-0.74424 -2.56364,-1.5626 -3.90853,-2.22283 -0.68066,-0.33414 -1.63792,-0.57248 -2.39788,-0.47478 -0.51884,0.0667 -1.02053,0.31263 -1.53463,0.41004 -0.63243,0.11983 -1.30348,0.17513 -1.94228,0.25897 -0.82422,0.10818 -1.64805,0.12863 -2.46981,0.23739 -0.77836,0.10302 -1.63283,0.26186 -2.42185,0.19423 -0.90859,-0.0779 -1.80872,-0.23174 -2.7096,-0.36688 -0.74139,-0.1112 -1.7945,-0.068 -2.37389,-0.64742 -0.0495,-0.0495 -0.35206,-0.25259 -0.26377,-0.3453 0.12269,-0.12882 1.11808,-0.26792 1.36679,-0.38845 0.59795,-0.28978 1.20501,-0.68962 1.87034,-0.79849 0.76815,-0.1257 1.57171,-0.0599 2.30196,-0.38846 0.14328,-0.0645 0.24059,-0.21281 0.35968,-0.30213 0.49577,-0.37183 0.98458,-0.71003 1.39076,-1.20853 0.22992,-0.28217 0.74455,-0.63236 0.81528,-1.0143 0.0288,-0.15544 -0.14501,-0.22301 -0.16785,-0.36687 -0.0921,-0.58 -0.0176,-1.2244 -0.50355,-1.66173 -0.0554,-0.0499 -0.10821,-0.15107 -0.19183,-0.15107 -0.69316,0 -1.03226,0.75586 -1.60658,1.0143 -0.47082,0.21188 -2.22586,-0.19339 -2.63766,-0.38845 -0.29467,-0.13958 -0.86024,-0.39926 -0.95915,-0.75533 -0.0516,-0.18566 0.2771,-0.43403 0.35968,-0.58268 0.1132,-0.20375 0.1634,-0.43895 0.31173,-0.62585 0.44783,-0.56427 1.16244,-0.95659 1.67851,-1.4675 0.41744,-0.41327 0.60193,-0.91715 0.69538,-1.48908 0.22124,-1.35395 -0.59413,-4.25697 -1.82238,-5.0715 -0.33348,-0.22115 -0.71022,-0.28236 -1.07905,-0.41003 -0.33587,-0.11627 -0.72354,-0.23965 -1.07904,-0.10791 -1.29468,0.47979 -1.89137,1.15417 -2.73357,2.17967 -0.46436,0.56541 -1.05308,1.00908 -1.43873,1.64014 -0.59342,0.97106 -0.91337,2.40382 -1.19893,3.4961 -0.22757,0.87046 -0.80688,2.05115 -0.86324,2.91342 -0.0594,0.90823 0.70888,1.78307 0.52753,2.76235 -0.20985,1.13323 -1.00913,2.14389 -1.51066,3.1508 -0.20743,0.41646 -0.38248,0.86421 -0.64742,1.25169 -0.36183,0.52917 -0.871,0.93186 -1.27087,1.42434 -0.26287,0.32374 -0.56705,0.60016 -0.83926,0.9064 -0.14011,0.15762 -0.23467,0.33856 -0.40764,0.47477 -0.53339,0.42005 -1.16535,0.70785 -1.70249,1.12221 -0.18298,0.14116 -0.40061,0.34641 -0.35968,0.60426 0.0625,0.39359 0.41966,0.74891 0.62345,1.07905 0.71786,1.16294 1.25156,1.13442 2.63766,0.86323 0.93821,-0.18356 1.85308,-0.42066 2.75755,-0.73375 0.37033,-0.12819 1.47281,-0.69059 1.82239,-0.69059 0.0655,0 -0.13355,0.0132 -0.19183,0.0432 -0.0422,0.0217 -0.29533,0.31449 -0.1199,0.2158 0.17431,-0.098 0.36111,-0.32862 0.62345,-0.47477 0.95387,-0.53145 1.55613,-0.84064 2.20604,-1.76964 0.0616,-0.088 0.14128,-0.16418 0.19183,-0.25897 0.0464,-0.087 0.44037,-1.01185 0.19183,-0.92797 -0.0402,0.0136 -0.091,0.012 -0.11989,0.0432 -0.16191,0.17486 0.0952,0.72777 0.23979,0.84165 0.0838,0.066 0.46689,0.19299 0.50355,0.25897 0.0323,0.0582 -0.12198,0.0597 -0.16785,0.10791 -0.17487,0.18361 -0.28285,0.4524 -0.35968,0.69058 -0.37022,1.14767 -0.53069,2.39379 -0.71937,3.58243 -0.0826,0.52041 -0.0705,1.01287 -0.45559,1.40275 -0.29185,0.2955 -0.87259,-0.0138 -1.22292,0.12949 -0.40164,0.16431 -0.73383,0.54994 -1.07904,0.79849 -0.93649,0.67427 -2.0745,1.34079 -3.21315,1.59698 -0.20719,0.0466 -1.68342,-0.16204 -1.94228,-0.21581 -0.0279,-0.006 -0.98312,-0.28922 -0.98312,-0.23738 0,0.0701 0.11989,0.10258 0.11989,0.17264 0,0.0355 -0.85638,1.05262 -0.93517,1.14379 -0.38522,0.44576 -0.56353,1.06397 -0.93517,1.53224 -0.22231,0.28011 -0.53151,0.49005 -0.76732,0.75533 -0.47991,0.53989 -0.97676,0.9752 -1.53464,1.44592 -0.59609,0.50295 -1.16454,1.04084 -1.7984,1.48908 -0.5556,0.39288 -1.15404,0.73992 -1.70249,1.14378 -0.30297,0.2231 -0.58693,0.49603 -0.9112,0.69059 -0.95526,0.57316 -1.94422,1.10899 -2.90142,1.68331 -0.13028,0.0782 -0.30296,0.0858 -0.43162,0.17264 -0.76892,0.51903 -1.60261,0.91851 -2.46981,1.27327 -0.39002,0.15956 -0.66637,0.51353 -1.05506,0.66901 -0.28271,0.11308 -0.61571,0.13679 -0.88722,0.25897 -0.24447,0.11001 -0.45673,0.29288 -0.69538,0.41004 -0.43225,0.21219 -0.93729,0.26836 -1.39077,0.43161 -0.54916,0.1977 -1.08719,0.37206 -1.65453,0.51794 -0.94555,0.24314 -1.86548,0.72281 -2.75755,1.10063 -0.97763,0.41405 -2.01285,0.65056 -2.94939,1.18694 -0.74004,0.42385 -1.4521,0.95203 -2.03819,1.57541 -0.41343,0.43973 -0.79632,0.91271 -1.27087,1.29485 -0.82834,0.66703 -1.61923,1.38455 -2.44583,2.05018 -0.30377,0.24461 -0.67333,0.41043 -0.98313,0.64743 -0.47069,0.36008 -0.93845,0.75812 -1.39077,1.14378 -0.89536,0.76342 -1.71791,1.69975 -2.73357,2.30915 -0.36948,0.22169 -0.76089,0.37043 -1.127,0.60427 -1.84829,1.18052 -4.0727,2.03368 -6.11458,2.80551 -0.53955,0.20395 -1.08031,0.33466 -1.63055,0.49636 -0.83843,0.24639 -1.64239,0.60556 -2.46981,0.88481 -0.62726,0.2117 -1.28557,0.41797 -1.87034,0.73375 -0.92494,0.49947 -1.61138,1.21749 -2.39788,1.89912 -0.54863,0.47548 -1.16545,0.86201 -1.72646,1.31643 -1.44025,1.1666 -2.68903,2.55115 -4.07639,3.77665 -1.0411,0.91964 -2.17571,1.71969 -3.23713,2.61128 -1.45265,1.22023 -2.82831,2.47552 -4.10036,3.88456 -1.85521,2.055 -3.32542,4.38219 -5.51511,6.12896 -0.8154,0.65047 -1.64941,1.32947 -2.56572,1.83438 -1.19737,0.65977 -2.46189,1.16237 -3.66875,1.79121 -0.89032,0.4639 -1.71705,1.03857 -2.5897,1.53224 -0.67878,0.38399 -1.4518,0.69401 -2.08615,1.1222 -0.12993,0.0877 -0.3204,0.10999 -0.4556,0.19423 -0.2103,0.13104 -0.37556,0.33985 -0.59947,0.4532 -1.04521,0.52914 -2.11187,0.98989 -3.23712,1.33801 -0.2386,0.0738 -1.82136,0.53767 -1.9183,0.71217 -0.0104,0.0188 0.0526,0.0222 0.048,0.0432 -0.0109,0.049 -0.76067,0.67836 -0.86324,0.73375 -0.0834,0.0451 -0.15873,-0.0958 -0.23979,-0.1079 -0.16552,-0.0248 -0.45266,0.20664 -0.62344,0.23739 -0.36576,0.0658 -0.73767,0.0963 -1.10303,0.15106 -0.10976,0.0165 -0.15115,0.12921 -0.26376,0.17265 -0.38709,0.1493 -0.76728,0.32369 -1.15098,0.49636 -0.44142,0.19864 -0.70743,0.50951 -1.07904,0.82007 -0.5522,0.46148 -1.09895,0.77121 -1.53464,1.38118 -0.18264,0.25569 -0.19623,0.56923 -0.23979,0.86323 -0.0367,0.24806 -0.19223,0.49708 -0.31172,0.71217 -0.2763,0.49733 -0.72888,0.77996 -1.05507,1.23011 -0.56491,0.77958 -0.66984,1.76683 -1.127,2.5897 -0.27261,0.4907 -0.63398,0.93806 -0.93517,1.40276 -1.31048,2.02189 -2.85462,3.32585 -4.67585,4.85569 -1.1893,0.99901 -2.29326,2.11824 -3.52487,3.06448 -1.43383,1.1016 -3.00351,1.95903 -4.55596,2.87025 -0.79424,0.46619 -1.63963,0.97307 -2.3739,1.53225 -0.20811,0.15848 -0.37289,0.37238 -0.57549,0.53952 -0.10992,0.0907 -0.4698,0.49556 -0.64742,0.43161 -0.0319,-0.0115 -0.0712,-0.0946 -0.048,-0.12948 0.1122,-0.1683 0.48087,-0.11043 0.76732,-0.66901 0.10966,-0.21383 0.15633,-0.45803 0.26377,-0.669 0.21617,-0.4245 0.55616,-0.80876 0.81527,-1.20853 0.41501,-0.64029 0.88476,-1.24068 1.27088,-1.89912 0.98494,-1.67958 1.79675,-3.53245 2.42185,-5.37363 0.32783,-0.96563 1.08635,-2.50735 1.15098,-3.4961 0.0582,-0.89061 -0.54591,-1.82313 -0.74334,-2.67603 -0.17307,-0.74765 -0.18637,-1.53024 -0.43162,-2.26599 -0.32636,-0.97906 -0.87499,-1.90397 -1.29485,-2.84867 -0.18598,-0.41844 -0.51645,-0.69198 -0.55151,-1.16537 -0.0314,-0.42324 0.0955,-0.8164 0.14387,-1.2301 0.0282,-0.24145 -0.0144,-0.50055 0.0719,-0.73375 0.26551,-0.71686 1.26646,-1.67535 1.70249,-2.46022 0.19467,-0.3504 0.19892,-0.6844 0.28775,-1.05746 0.15664,-0.65789 0.61108,-1.27424 1.07904,-1.74805 0.0332,-0.0336 0.1403,-0.16347 0.21581,-0.12949 0.0759,0.0341 0.0845,0.12379 0.21581,0.15107 0.52846,0.10975 1.18938,0.0279 1.70249,-0.10791 1.00594,-0.26628 1.94718,-0.85097 2.80551,-1.40275 0.41543,-0.26706 1.02715,-0.34681 1.48668,-0.51794 0.90045,-0.33534 1.78609,-0.81984 2.56573,-1.38118 0.16098,-0.11591 0.28556,-0.27859 0.43161,-0.41003 0.50505,-0.45455 1.05177,-0.86027 1.55862,-1.31644 0.43587,-0.39228 0.91519,-0.73798 1.31883,-1.16536 0.39562,-0.41889 0.61946,-0.9602 1.03109,-1.38118 0.65908,-0.67406 1.37362,-1.35518 2.11013,-1.94228 0.51637,-0.41162 1.04481,-0.8016 1.51066,-1.27327 0.88841,-0.89951 1.54501,-1.97418 2.44583,-2.87025 0.30308,-0.30149 0.68114,-0.56458 1.0071,-0.84165 0.37309,-0.31713 0.62577,-0.77874 1.00711,-1.07905 0.49549,-0.39019 0.9994,-0.76702 1.4627,-1.20852 0.53983,-0.51442 1.04741,-1.06022 1.55862,-1.59699 0.23163,-0.24321 0.51795,-0.44457 0.76732,-0.669 1.08463,-0.97617 2.17851,-1.92199 3.40498,-2.71919 0.71452,-0.46444 1.50467,-0.76073 2.20604,-1.25169 0.47614,-0.3333 0.90377,-0.92961 1.39077,-1.20853 0.57803,-0.33105 1.73307,-0.60396 2.39787,-0.86323 0.93957,-0.36643 1.85522,-0.86623 2.80551,-1.18695 0.74582,-0.25171 1.52927,-0.38659 2.27798,-0.64743 0.69411,-0.24182 1.43462,-0.56549 2.06217,-0.94956 0.35785,-0.219 1.19045,-0.87846 1.63056,-0.92797 2.47719,-0.27869 5.18973,-2.17517 7.0977,-3.69033 0.69125,-0.54893 1.26061,-1.26593 1.87034,-1.89911 0.38129,-0.39596 0.81499,-0.77462 1.17496,-1.18695 0.28533,-0.32684 0.48224,-0.75406 0.76732,-1.07904 0.70171,-0.79996 1.54081,-1.63732 1.96626,-2.63287 0.29749,-0.69613 0.28179,-1.42451 0.47957,-2.1365 0.27618,-0.99424 0.89906,-1.86537 1.34281,-2.78393 0.28121,-0.5821 0.65909,-1.49642 0.81528,-2.11493 0.10483,-0.41514 0.15849,-0.86943 0.35968,-1.25169 0.50949,-0.96804 1.28833,-1.70491 1.94227,-2.56812 0.51032,-0.67361 0.93322,-1.40556 1.48669,-2.05018 0.45318,-0.52784 1.00521,-0.95049 1.51066,-1.42434 0.75861,-0.7112 1.55413,-1.39547 2.30195,-2.11492 0.34173,-0.32877 0.65475,-0.69718 1.00711,-1.0143 1.39859,-1.25873 3.07466,-2.00733 4.72381,-2.87026 1.47383,-0.77119 2.8731,-1.69214 4.38811,-2.37389 0.73389,-0.33025 1.54351,-0.53139 2.30196,-0.79849 0.70801,-0.24935 1.40979,-0.61224 2.1341,-0.7985 0.34346,-0.0883 0.67139,0.0101 1.00711,-0.15106 0.57854,-0.2777 1.63384,-0.63327 2.11013,-1.0143 0.68156,-0.54525 1.43055,-0.97825 2.23002,-1.38118 1.68258,-0.84801 3.15663,-1.84626 4.65187,-2.99974 0.33391,-0.25758 0.74098,-0.51545 1.03109,-0.82007 0.41508,-0.43583 0.80773,-1.0214 1.127,-1.53224 0.3186,-0.50976 0.76294,-0.93383 1.07904,-1.44592 0.4052,-0.65641 0.67568,-1.42936 0.98313,-2.1365 0.35317,-0.81229 0.76616,-1.59414 1.10302,-2.41706 0.23507,-0.57424 0.42944,-1.49693 0.52753,-2.11492 0.0562,-0.35409 0.0421,-0.72919 0.1199,-1.07904 0.0679,-0.30575 0.19635,-0.59366 0.23979,-0.9064 0.11388,-0.82 0.16748,-1.67708 0.2158,-2.50338 0.0424,-0.7248 0.27559,-1.42319 0.38366,-2.13651 0.0469,-0.30936 0.0329,-0.63741 0.048,-0.94955 0.0314,-0.64924 -0.0648,-1.27593 -0.0959,-1.9207 -0.0256,-0.52955 0,-1.06675 0,-1.59698 0,-0.47921 0.21748,-0.97686 0.16785,-1.44592 -0.0991,-0.93658 -0.59213,-1.88558 -0.43162,-2.84867 0.11576,-0.69456 0.54243,-1.2983 0.64743,-2.00702 0.18581,-1.25423 0.44843,-2.50145 0.64742,-3.75507 0.0598,-0.37667 0.0602,-0.77562 0.16785,-1.14379 0.20587,-0.70406 0.55937,-1.38081 0.81528,-2.07176 0.20848,-0.56289 0.31776,-1.2412 0.40764,-1.83437 0.0399,-0.26301 0.1101,-1.65867 0.0719,-1.89912 -0.0425,-0.26788 -0.24011,-0.49868 -0.28774,-0.84165 -0.0629,-0.45279 0.0278,-0.92675 -0.048,-1.38118 -0.10273,-0.61637 -0.22788,-1.2198 -0.3357,-1.83437 -0.0724,-0.41237 10e-4,-0.84273 -0.0959,-1.25169 -0.0909,-0.38194 -0.22036,-0.753182 -0.26376,-1.143784 -0.0359,-0.323276 0.007,-0.647452 -0.048,-0.971139 -0.12475,-0.729793 -0.58643,-1.660222 -1.00711,-2.26599 -0.1716,-0.247105 -0.44129,-0.436178 -0.55151,-0.733749 -0.0795,-0.214732 -0.0267,-0.46685 -0.11989,-0.690588 -0.17121,-0.410912 -0.24268,-0.850341 -0.38366,-1.27327 -0.0549,-0.164791 -0.1645,-0.324174 -0.19183,-0.49636 -0.0251,-0.158075 0.1491,-0.196984 0.0959,-0.388455 -0.0663,-0.23864 -0.45321,-0.424082 -0.50356,-0.582684 -0.0324,-0.102026 0.10145,-0.243362 0.0719,-0.280551 -0.15256,-0.192226 -0.43229,-0.36808 -0.55151,-0.582683 -0.0798,-0.143578 -0.072,-0.259475 -0.0959,-0.410036 -0.0234,-0.147245 -0.1291,-0.270534 -0.16785,-0.410037 -0.11038,-0.397371 -0.14047,-0.823241 -0.26376,-1.230108 -0.16446,-0.542699 -0.5816,-0.945557 -0.86324,-1.424337 -0.15841,-0.269299 -0.29575,-0.552906 -0.45559,-0.820073 -0.24148,-0.403609 -0.37562,-0.8967 -0.57549,-1.316432 -0.1731,-0.363501 -0.54911,-0.528988 -0.81528,-0.798492 -0.10038,-0.101638 -0.18909,-0.28804 -0.31172,-0.366874 -0.3721,-0.239206 -0.81237,-0.242084 -1.22292,-0.410037 -0.16009,-0.06549 -0.28025,-0.190855 -0.43162,-0.25897 -0.55785,-0.251033 -1.1707,-0.4603 -1.75044,-0.669007 -1.22521,-0.441074 -2.48994,-0.766891 -3.71671,-1.208528 -2.16727,-0.780219 -4.20341,-1.86686 -6.33038,-2.740769 -1.15229,-0.473441 -2.35456,-0.825895 -3.52488,-1.251689 -0.81864,-0.297847 -1.62406,-0.664503 -2.42185,-1.014301 -1.96953,-0.863564 -3.75282,-2.140444 -5.61102,-3.215547 -1.90038,-1.099506 -3.9443,-2.147116 -5.58705,-3.625585 -1.86548,-1.678934 -3.56794,-3.546815 -5.5151,-5.136244 -0.6811,-0.555963 -1.42936,-1.027835 -2.13411,-1.553822 -2.40248,-1.793071 -4.98287,-3.566137 -6.80996,-5.977897 -0.59303,-0.782799 -1.28387,-1.488702 -1.9183,-2.222829 -0.79987,-0.925567 -1.43809,-2.027842 -2.23002,-2.978158 -0.54411,-0.652932 -1.3142,-1.111768 -1.9183,-1.704888 -0.35044,-0.344067 -0.60093,-0.778223 -0.95915,-1.100624 -0.11655,-0.104892 -0.29565,-0.139329 -0.43162,-0.215808 -0.74177,-0.417247 -1.75915,-0.504197 -2.37389,-1.057462 -0.27778,-0.249999 -0.46563,-0.619202 -0.69538,-0.906396 -0.47427,-0.592839 -1.02998,-1.196281 -1.63056,-1.661726 -1.24372,-0.963885 -2.64625,-1.740913 -3.95649,-2.611284 -0.86915,-0.577363 -1.68933,-1.225368 -2.56572,-1.791211 -1.65235,-1.066844 -3.40033,-2.028962 -5.17941,-2.870254 -2.08937,-0.988026 -4.24477,-1.872848 -6.4263,-2.632865 -1.26265,-0.439891 -2.55298,-0.798222 -3.81262,-1.25169 -1.12404,-0.404655 -2.21793,-0.899432 -3.30906,-1.381175 -2.20311,-0.972694 -4.64774,-1.312731 -7.02577,-1.532241 -2.26524,-0.209099 -5.07887,-0.103742 -6.88189,-1.726468 -0.62784,-0.56505 -0.95422,-1.38447 -1.36679,-2.093343 -0.32727,-0.56231 -0.94721,-1.068625 -1.03109,-1.74805 -0.0679,-0.549969 0.33442,-0.88251 0.57549,-1.316432 0.16526,-0.297459 -0.11885,0.01614 0.0959,-0.215809 0.0315,-0.03404 0.26769,-0.190695 0.16785,-0.280551 -0.0178,-0.01604 -0.0898,-0.01604 -0.0719,0 0.0244,0.02192 0.0741,-0.0029 0.0959,0.02158 0.0376,0.04235 0.0205,0.268159 0.048,0.323713 0.0719,0.145653 0.2289,0.260941 0.31173,0.410036 0.39033,0.702602 1.03433,1.202738 1.60657,1.748049 0.58263,0.555206 2.83213,1.943068 3.62079,2.179667 0.64862,0.194585 1.31327,0.219953 1.96626,0.366875 0.0632,0.01423 0.27064,0.03516 0.31172,0.06474 0.2138,0.153935 0.36259,0.416794 0.69538,0.366875 0.0649,-0.0097 0.0539,-0.09213 0.048,-0.129485 -0.0239,-0.150677 -0.18602,-0.274479 -0.21581,-0.453198 -0.0767,-0.460069 -0.15737,-0.870567 -0.28774,-1.316433 -0.65035,-2.224189 -0.29197,-4.629711 -1.10302,-6.819551 -0.12436,-0.33577 -0.77824,-1.33994 -0.76732,-1.359594 0.10857,-0.195423 0.2793,0.289476 0.28774,0.302132 0.36152,0.542282 0.58571,1.120052 0.71936,1.769631 0.279,1.355926 0.28072,3.148171 1.9183,3.560841 0.48385,0.121931 0.99351,0.09465 1.4627,-0.08632 1.1269,-0.434662 1.90356,-2.204472 1.77443,-3.366614 -0.0423,-0.380895 -0.34176,-0.844017 -0.26377,-1.230109 0.0536,-0.265521 0.76127,-1.281819 0.93517,-1.532241 0.16171,-0.232854 0.3738,-0.42655 0.55152,-0.647426 0.271,-0.336818 0.53963,-0.683534 0.81527,-1.0143 0.0856,-0.102703 0.26377,-0.435822 0.26377,-0.302132 0,0.129664 -0.21411,0.567331 -0.23979,0.733749 -0.13971,0.905323 -0.3357,1.842032 -0.3357,2.76235 0,0.288188 -0.0146,0.581908 0.048,0.863234 0.0769,0.346163 0.54248,1.00678 0.93517,0.582683 0.003,-0.003 0.25346,-0.712121 0.26376,-0.733749 0.53872,-1.1313 0.88347,-2.351778 1.53464,-3.431356 0.66515,-1.10275 1.64032,-1.95994 2.15809,-3.150805 0.0295,-0.0678 0.28369,-0.575676 0.26376,-0.647426 -0.0386,-0.139145 -0.1605,0.247481 -0.19183,0.388455 -0.15477,0.696504 -0.38339,1.380447 -0.62344,2.050182 -0.42864,1.195906 -0.8278,2.403865 -1.2469,3.604003 -0.38168,1.093013 -0.87065,2.212231 -1.0071,3.366614 -0.0686,0.580623 -0.18941,1.386129 0.3357,1.791211 0.0303,0.02341 0.18121,0.172647 0.21581,0.172647 0.046,0 -0.0138,-0.160276 -0.048,-0.129485 -0.11915,0.107233 0.0705,0.08888 0.0719,0.08632 0.0104,-0.0188 -0.0283,-0.03434 -0.048,-0.04316 -0.0574,-0.02582 0.12108,-0.04424 0.16785,-0.08632 0.11475,-0.103278 0.22195,-0.264502 0.3357,-0.366874 0.49017,-0.441156 0.97164,-0.885177 1.51066,-1.273271 1.32079,-0.950966 3.02366,-1.280286 4.22026,-2.417056 0.30701,-0.291665 0.54444,-0.814417 0.76732,-1.186947 0.0404,-0.06755 0.0748,-0.13996 0.0959,-0.215809 0.008,-0.02773 -0.0262,-0.07451 0,-0.08632 0.0759,-0.03414 0.008,0.378696 -0.0719,0.820072 -0.11813,0.655584 -0.21215,1.319496 -0.26377,1.985439 -0.10774,1.389891 0.0995,2.148468 0.47957,3.431357 0.15212,0.513397 -0.15285,1.135696 0.28775,1.532241 0.90333,0.812994 2.37354,0.668951 3.47692,0.841653 0.74568,0.116716 1.51573,-0.0028 2.254,0.107904 0.22841,0.03426 0.38833,0.122231 0.57549,0.215809 0.28548,0.142741 1.64667,0.129485 1.96625,0.129485 1.31307,0 2.66662,-0.426963 3.98047,-0.215809 0.49614,0.07974 0.98799,0.351793 1.4627,0.517941 0.47474,0.166158 0.91935,0.395027 1.41475,0.49636 0.77725,0.158983 1.57342,0.08477 2.34991,0.215808 0.7891,0.13316 1.51332,0.427202 2.27798,0.647426 0.62498,0.179994 1.28231,0.313967 1.9183,0.453198 1.12457,0.246189 2.27465,0.365375 3.33305,0.841654 0.80545,0.362453 1.1829,1.186527 1.7984,1.76963 0.67709,0.641449 1.51508,1.094471 2.15809,1.76963 0.43855,0.460477 0.78258,1.007303 1.19893,1.489079 0.30742,0.35572 0.66613,0.650363 0.98313,0.99272 0.43292,0.467553 0.80359,0.99641 1.19894,1.489079 0.44002,0.54834 0.97134,1.009467 1.4627,1.51066 0.6925,0.706351 0.83088,1.561261 1.24689,2.417056 0.38448,0.790922 1.16693,1.311204 1.53464,2.114924 0.62093,1.357176 0.62269,2.237904 1.87034,3.25871 0.18016,0.147403 0.42273,0.222269 0.59947,0.366874 0.23967,0.196095 0.42778,0.455783 0.62345,0.690588 0.42157,0.505881 0.88832,0.948043 1.27087,1.489079 0.0622,0.08804 0.52431,0.634866 0.4556,0.712168 -0.22155,0.24924 -1.74776,-0.166395 -1.96626,-0.323712 -0.41516,-0.298914 -0.0399,-0.470209 0.0959,-0.75533 0.0888,-0.1864 0.16923,-0.387063 0.21581,-0.582684 0.0333,-0.139899 0,-0.352128 0,-0.496359 0,-0.707652 0.0825,-0.85258 0.47957,-1.424337 0.0852,-0.122662 0.50006,-0.622808 0.71936,-0.474779 0.0264,0.01784 0.0434,0.512287 0.048,0.539522 0.0937,0.561937 0.34459,1.303603 0.7913,1.683306 0.42324,0.359754 1.23101,0.536752 1.77442,0.517941 0.12693,-0.0044 0.98264,-0.367319 1.03109,-0.323713 0.0245,0.02202 -0.0439,0.05365 -0.048,0.08632 -0.0168,0.136079 0.0946,0.289582 0.16785,0.388455 0.36712,0.495613 0.81368,0.90038 1.31883,1.25169 0.61635,0.428641 1.51398,0.453522 2.0382,0.992719 0.4344,0.446818 0.20125,1.230235 0.59946,1.726469 0.58743,0.732028 1.46079,1.114235 2.15809,1.704888 0.64259,0.544314 0.81192,1.447307 1.41474,2.0286 0.6548,0.631411 1.50407,1.029947 2.18207,1.640146 0.45592,0.410331 0.843,0.934991 1.34281,1.294851 0.30252,0.217819 0.70421,0.310079 0.98313,0.561102 0.64226,0.578038 1.03106,1.381159 1.75044,1.899116 1.19645,0.861438 2.57069,1.153024 3.90854,1.704888 0.5204,0.214667 0.98892,0.520309 1.51066,0.733749 1.14724,0.469327 2.33194,0.506341 3.54885,0.561102 0.62704,0.02822 1.19333,0.180682 1.82238,0.08632 0.84037,-0.126056 1.55746,-0.516897 2.18207,-1.079043 0.29962,-0.269663 0.52718,-0.607902 0.83925,-0.863235 0.51275,-0.419523 1.1713,-0.601439 1.67851,-0.992719 0.36663,-0.282825 0.53745,-0.756657 0.7913,-1.122205 0.0997,-0.143519 0.25163,-0.252309 0.35968,-0.388455 0.093,-0.117127 0.0815,-0.29655 0.19183,-0.410036 0.13651,-0.140412 0.29012,-0.222893 0.40764,-0.388456 0.53904,-0.759369 2.44743,-1.939322 1.58819,-2.298361 -0.93173,-0.389331 -1.49603,1.356992 -2.25959,2.01781 -0.0554,0.04795 -0.39765,0.05643 -0.52754,0.129485 -0.0639,0.03597 -0.13102,0.06686 -0.19183,0.107904 -0.0357,0.02407 -0.0671,0.118295 -0.0959,0.08632 -0.0166,-0.01849 0.18692,-0.163981 0.21581,-0.172647"
     id="path3382"
     style="fill:none;stroke:#000000;stroke-width:1px;stroke-linecap:butt;stroke-linejoin:miter;stroke-opacity:1" />
</svg>
