<?xml version="1.0" encoding="UTF-8" standalone="no"?>
<!-- Created with Inkscape (http://www.inkscape.org/) -->

<svg
   xmlns:dc="http://purl.org/dc/elements/1.1/"
   xmlns:cc="http://creativecommons.org/ns#"
   xmlns:rdf="http://www.w3.org/1999/02/22-rdf-syntax-ns#"
   xmlns:svg="http://www.w3.org/2000/svg"
   xmlns="http://www.w3.org/2000/svg"
   version="1.1"
   width="1029.5891"
   height="733.04431"
   id="svg2">
  <defs
     id="defs4" />
  <metadata
     id="metadata7">
    <rdf:RDF>
      <cc:Work
         rdf:about="">
        <dc:format>image/svg+xml</dc:format>
        <dc:type
           rdf:resource="http://purl.org/dc/dcmitype/StillImage" />
        <dc:title></dc:title>
      </cc:Work>
    </rdf:RDF>
  </metadata>
  <path
     d="m 775.84223,631.97596 c -0.42961,1.40937 -2.39515,0.56904 -3.18917,1.40275 -0.18639,0.19572 -0.23933,0.51742 -0.40764,0.71217 -0.73578,0.85141 -1.20429,1.84421 -1.31883,2.97816 -0.0541,0.53549 0.002,1.08169 -0.048,1.61857 -0.0212,0.22934 -0.16574,0.43415 -0.19183,0.669 -0.18209,1.6388 -0.39388,3.38577 -0.23979,5.04992 0.0193,0.20836 0.13593,0.36 0.16785,0.5611 0.13926,0.87735 0.19183,2.26911 0.19183,3.17239 0,0.19806 -0.11047,0.43043 -0.14387,0.62585 -0.055,0.32181 -0.0508,0.66816 -0.0959,0.99272 -0.0417,0.30029 0.005,-0.15972 -0.0959,0.17264 -0.0393,0.12979 -0.0246,0.27168 -0.0719,0.41004 -0.35108,1.02692 -1.11302,1.78313 -1.72647,2.61128 -0.17555,0.237 -0.14621,0.58691 -0.28774,0.84166 -0.81677,1.47017 -1.00685,3.2561 -1.17496,4.92043 -0.0285,0.28173 -0.1135,0.59987 -0.0959,0.88482 0.0152,0.24551 0.15799,0.47802 0.2158,0.71216 0.19282,0.78091 0.27962,1.56168 0.55152,2.33074 0.17985,0.50872 0.46178,0.98784 0.64742,1.48908 0.11298,0.30503 0.18324,0.6412 0.31172,0.94955 0.17331,0.41595 0.41951,0.78743 0.59947,1.20853 0.1477,0.34562 0.1559,0.69803 0.21581,1.05746 0.13126,0.78755 0.45008,1.6518 0.83926,2.35232 0.25596,0.46073 0.60699,0.90514 0.79129,1.40275 0.0202,0.0545 -0.003,0.12107 0.024,0.17265 0.11997,0.23136 0.33295,0.42984 0.4556,0.66901 0.1253,0.24434 0.21943,0.52091 0.35968,0.75533 0.26999,0.45126 0.67374,0.81453 0.88721,1.29485 0.21394,0.48136 0.0916,0.7809 0.19183,1.18695 0.13919,0.56371 0.32862,1.13202 0.38366,1.72646 0.0337,0.36434 -0.0858,0.57424 -0.16785,0.9064 -0.0402,0.16293 0.0333,0.35322 0,0.51794 -0.0358,0.17739 -0.12112,0.35522 -0.14387,0.53952 -0.0432,0.34994 -0.0371,0.73131 -0.11989,1.07905 -0.0776,0.32603 -0.19488,0.67723 -0.31173,0.99272 -0.0445,0.12016 -0.17295,0.24797 -0.19183,0.36687 -0.0688,0.43318 -0.16994,0.65589 -0.26376,1.03588 -0.0335,0.13584 -0.20107,0.28307 -0.26377,0.41004 -0.45614,0.92367 -0.98751,1.79909 -1.48668,2.6976 -0.0952,0.17136 -0.10502,0.36987 -0.16785,0.53953 -0.33004,0.8911 -0.54063,1.82272 -0.64743,2.78393 -0.0239,0.21547 -0.14806,0.41212 -0.16785,0.62584 -0.0891,0.9623 -0.17241,2.03592 -0.0959,2.99974 0.0284,0.35806 0.25823,0.67952 0.35968,1.0143 0.35393,1.16799 0.45721,1.7721 1.17496,2.87026 0.87272,1.33526 1.5974,2.76076 2.54174,4.03562 0.17695,0.23888 0.21654,0.58611 0.38366,0.82007 0.11449,0.16028 0.30992,0.29389 0.43162,0.4532 0.1694,0.22176 0.2637,0.50344 0.40764,0.73375 0.15381,0.2461 0.46652,0.42827 0.6714,0.62584 0.26113,0.25181 0.50705,0.58678 0.74334,0.86323 1.04224,1.21943 2.18207,3.92982 2.18207,5.56787 0,0.21374 0.10644,0.64954 0.19183,0.84165 -0.0151,0.13925 0.14763,0.11468 0.19183,0.19423 0.008,0.0148 -0.0868,0.22214 -0.0959,0.25897 -0.0601,0.24352 0.009,0.88399 -0.21581,1.03588 -0.0182,0.0123 -0.20058,0.0137 -0.21581,0 -0.093,-0.0837 0.0337,-0.0429 -0.024,-0.12949 -0.0726,-0.10898 -0.44843,-0.16373 -0.57549,-0.19422 -0.55823,-0.13398 -1.65782,-0.0812 -2.06217,-0.51794 -0.0316,-0.0341 -0.006,-0.22512 -0.024,-0.28056 -0.0875,-0.27562 -0.3804,-0.47036 -0.52754,-0.669 -0.11273,-0.15219 -0.561,-1.12723 -0.6714,-1.14379 -0.11415,-0.0171 -0.10692,0.24611 -0.14387,0.32371 -0.0521,0.1093 -0.19054,0.12354 -0.26377,0.21581 -0.28117,0.35427 -0.6388,0.59315 -0.98313,0.88482 -0.38665,0.32752 -0.69075,0.75229 -1.0071,1.14378 -0.0614,0.076 -0.40306,0.47685 -0.50356,0.43162 -0.0245,-0.011 -0.048,-0.0379 -0.048,-0.0647 0,-0.10174 0.20608,-0.17508 0.26377,-0.23739 0.0853,-0.0921 0.13428,-0.31077 0.16785,-0.43162 0.20611,-0.742 0.58933,-1.48084 0.69539,-2.24441 0.0896,-0.64531 -0.26263,-1.64461 -0.50356,-2.22283 -0.0277,-0.0665 -0.13534,-0.68224 -0.23979,-0.62584 -0.035,0.0189 -0.0371,0.19812 -0.048,0.23739 -0.4403,1.58508 -1.70689,2.6544 -2.78154,3.84139 -0.089,0.0983 -1.15585,1.38118 -1.19893,1.38118 -0.0777,0 0.12872,-0.18477 -0.0959,-0.15107 -0.10885,0.0163 -0.11077,0.15107 -0.26376,0.15107 -0.15515,0 -0.87182,0.27745 -0.88722,0.25897 -0.0607,-0.0728 0.28498,-0.2316 0.26377,-0.51794 -0.0199,-0.26932 -0.14479,-0.53601 -0.19183,-0.7985 -0.0369,-0.20594 -0.0192,-0.4186 -0.048,-0.62584 -0.17355,-1.24956 -0.63,-2.47604 -0.76732,-3.71191 -0.0561,-0.5048 0.27098,-0.85866 0.23979,-1.25169 -0.0263,-0.33204 -0.0204,-0.83825 -0.14387,-1.14378 -0.15636,-0.38698 -0.3553,-1.14543 -0.38366,-1.55383 -0.0177,-0.25522 -0.0794,-0.50199 -0.0959,-0.75533 -0.0235,-0.36016 0.0368,-0.72315 -0.048,-1.07904 -0.18257,-0.76676 -0.71021,-1.37186 -0.9112,-2.05018 -0.049,-0.16525 -0.005,-0.21192 -0.024,-0.38845 -0.0375,-0.35394 -0.1993,-0.68776 -0.26377,-1.03589 -0.071,-0.38343 -0.0439,-0.7778 -0.11989,-1.16536 -0.0737,-0.37566 -0.1512,-0.80063 -0.26377,-1.16537 -0.0787,-0.2551 -0.20829,-0.46748 -0.26377,-0.73375 -0.14728,-0.70694 -0.29393,-1.41656 -0.45559,-2.11492 -0.0583,-0.25181 -0.20183,-0.49073 -0.28775,-0.73375 -0.23757,-0.672 -0.47617,-1.34908 -0.76732,-1.98544 -0.28656,-0.62634 -0.44804,-1.36336 -0.57549,-2.0286 -0.12849,-0.67072 -0.42602,-1.33395 -0.62344,-1.98544 -0.0759,-0.25049 -0.30807,-0.43512 -0.35968,-0.69059 -0.33543,-1.66036 -1.33634,-3.02343 -1.99024,-4.55356 -0.18428,-0.43123 -0.23498,-0.91068 -0.35968,-1.35959 -0.14409,-0.51874 -0.38324,-1.00033 -0.4556,-1.55382 -0.0847,-0.64797 -0.13612,-1.40701 0,-2.05019 0.0499,-0.236 0.14388,-0.4864 0.14388,-0.73374 0,-0.13972 -0.10964,-0.22203 -0.14388,-0.3453 -0.12311,-0.44323 0.14217,-0.96359 0.16786,-1.40275 0.0257,-0.43938 -0.11229,-0.90799 0.0719,-1.29486 0.0435,-0.0915 -0.066,-0.31824 -0.048,-0.43161 0.0804,-0.50656 0.29731,-0.98387 0.35969,-1.48908 0.0464,-0.37554 -0.0464,-0.76825 0,-1.14379 0.0344,-0.27905 0.11422,-0.56144 0.14387,-0.84165 0.0415,-0.39194 0.013,-0.80204 0.11989,-1.18695 0.0934,-0.33639 0.17051,-0.67856 0.26377,-1.0143 0.0591,-0.21271 0.22718,-0.41184 0.26376,-0.62584 0.095,-0.55574 0.24566,-1.06142 0.43162,-1.59699 0.10174,-0.29301 0.0645,-0.60723 0.11989,-0.90639 0.055,-0.29709 0.18256,-0.58554 0.21581,-0.88482 0.0376,-0.33849 0.0308,-0.6953 0.048,-1.03588 0.0315,-0.62454 0.17415,-1.26544 0.0959,-1.89911 -0.0793,-0.64201 -0.20109,-1.38761 -0.0959,-2.05019 0.0465,-0.29311 0.14236,-0.588 0.19183,-0.88481 0.085,-0.51007 0.0514,-1.02938 0.16785,-1.53224 0.0778,-0.33589 0.20601,-0.66472 0.23979,-1.0143 0.0244,-0.25218 -0.0247,-0.50328 0.024,-0.75533 0.11063,-0.57253 0.31102,-1.09209 0.35968,-1.68331 0.0554,-0.67332 -0.0294,-1.35634 0.024,-2.0286 0.0726,-0.91542 0.31889,-1.82767 0.43161,-2.74077 0.1074,-0.86994 0.0753,-1.75854 0.16786,-2.63286 0.0311,-0.29413 0.14089,-0.48565 0.2158,-0.75533 0.0513,-0.18472 0.0301,-0.41603 0.0719,-0.60427 0.0766,-0.34484 0.20691,-0.69637 0.28774,-1.03588 0.0487,-0.20449 0.35643,-0.74106 0.26377,-0.94956 -0.0554,-0.12462 -0.18973,-0.22044 -0.23979,-0.36687 -0.0856,-0.25029 -0.11347,-0.52692 -0.21581,-0.77691 -0.0962,-0.23508 -0.2534,-0.43946 -0.35968,-0.66901 -0.20759,-0.44839 -0.35171,-0.91651 -0.57549,-1.35959 -0.32521,-0.64392 -0.73282,-1.25878 -1.10302,-1.87754 -0.11056,-0.1848 -0.23537,-0.2902 -0.31172,-0.49636 -0.19003,-0.51307 -0.11784,-1.09323 -0.26377,-1.61856 -0.0572,-0.20589 -0.22518,-0.35465 -0.28774,-0.5611 -0.0821,-0.27111 -0.0292,-0.52899 -0.0719,-0.7985 -0.0268,-0.16912 -0.10028,-0.33754 -0.11989,-0.49636 -0.046,-0.37223 0.13289,-1.23142 0.0959,-1.38117 -0.0166,-0.0672 -0.22934,-1.16351 -0.19183,-1.20853 0.026,-0.0312 0.1199,0.019 0.1199,-0.0216 0,-0.0729 -0.17235,-0.18884 -0.0959,-0.28055 0.0321,-0.0385 0.16819,6.1e-4 0.14387,-0.0432 -0.0159,-0.0287 -0.0716,3.4e-4 -0.0959,-0.0216 -0.0188,-0.0169 0.26014,-0.47415 0.28774,-0.56111 0.0582,-0.18345 -0.0382,-0.32202 0.024,-0.51794 0.0533,-0.16791 0.29978,-0.49628 0.19183,-0.69058 -0.0286,-0.0515 -0.14381,-0.0648 -0.024,-0.12949 0.15821,-0.0854 -0.0536,0.0989 -0.048,0.12949 0.004,0.0222 0.27104,0.1661 0.31172,0.12948 0.0235,-0.0212 0.0876,-0.19423 -0.024,-0.19423 -0.0376,0 -0.0979,0.12949 -0.11989,0.12949 -0.023,0 -0.0387,-0.0471 -0.024,-0.0647 0.0238,-0.0286 0.1639,-0.0216 0.19183,-0.0216 0.0639,0 -0.19183,0.0639 -0.19183,0 0,-0.0369 0.19685,0.0238 0.28774,0.0647 0.10259,0.0462 0.77672,-0.15849 0.86324,-0.17265 0.43172,-0.0706 0.8611,-0.16004 1.29485,-0.21581 0.0157,-0.002 0.54806,-0.0369 0.55151,-0.0432 0.0136,-0.0244 -0.0452,-0.0512 -0.0719,-0.0432 -0.0269,0.008 0.0362,0.12948 -0.024,0.12948 -0.0432,0 0.037,-0.10727 0,-0.12948 -0.0284,-0.017 -0.18567,-0.0376 -0.23979,-0.0863 -0.14182,-0.12764 -0.17462,-0.71578 -0.23979,-0.9064 -0.0618,-0.18088 -0.22874,-0.30673 -0.31172,-0.47478 -0.0394,-0.0797 0.0107,-0.1868 0,-0.21581 -0.0234,-0.0633 -0.13913,-0.0226 -0.19183,-0.0647 -0.51552,-0.41242 -0.65459,-0.61361 -1.34281,-0.82007 -0.0554,-0.0166 -0.15939,-0.18026 -0.23979,-0.10791 -0.0145,0.0131 -0.0517,0.32372 -0.0959,0.32372 -0.0299,0 0.0553,-0.16269 -0.0719,-0.0863 -0.037,0.0222 0.0321,0.10061 0,0.12949 -0.0375,0.0337 -0.14387,-0.0614 -0.14387,0.0647 0,0.1387 0.28955,0.0175 0.23979,0.12949 -0.0227,0.0511 -0.1145,0.0387 -0.14388,0.0863 -0.16143,0.26153 -0.23583,0.56377 -0.43161,0.82007 -0.14906,0.19513 -0.35911,0.34453 -0.50356,0.53952 -0.0286,0.0386 -0.28774,0.34202 -0.28774,0.38846 0,0.0215 0.0623,0.0272 0.048,0.0432 -0.0213,0.0236 -0.0272,-0.15795 -0.1199,-0.1079 -0.0405,0.0219 -0.002,0.12948 -0.048,0.12948 -0.0434,0 -0.0128,-0.12142 -0.024,-0.12948 -0.08,-0.0576 -0.4117,-0.0589 -0.47958,-0.0648 -0.58317,-0.05 -1.17406,-0.11206 -1.75045,-0.21581 -0.60497,-0.10889 -1.20693,-0.31891 -1.7984,-0.49636 -0.45132,-0.13539 -0.9129,-0.19072 -1.36679,-0.30213 -0.19367,-0.0475 -0.36773,-0.14689 -0.55151,-0.21581 -0.71387,-0.2677 -1.44377,-0.44467 -2.13411,-0.75533 -0.31641,-0.14238 -0.59136,-0.34377 -0.86323,-0.53952 -0.16273,-0.11716 -0.41349,-0.15633 -0.57549,-0.30213 -0.35636,-0.32072 -0.85783,-0.72308 -1.34281,-0.82007 -0.95757,-0.19152 -2.00007,-0.25897 -2.97336,-0.25897 -0.28126,0 -1.18719,0.43528 -1.53464,0.53952 -0.0655,0.0197 -0.11551,0.12751 -0.16785,0.15107 -1.06313,0.4784 -1.92845,0.9286 -2.73358,1.83437 -0.10897,0.12259 -0.27678,0.15291 -0.35968,0.30213 -0.0814,0.1465 0.0499,0.0297 -0.0719,0.19423 -0.23173,0.31283 -0.58864,0.56259 -0.83926,0.88481 -0.32843,0.42227 -0.4827,1.01992 -0.74334,1.48908 -0.50908,0.91634 -0.83532,1.90204 -0.74334,2.97816 0.028,0.32712 0.16873,0.6102 0.21581,0.92798 0.0209,0.14111 -0.0116,0.31446 0.024,0.4532 0.0446,0.17381 0.1524,0.34053 0.19183,0.51794 0.0806,0.36279 -0.0342,0.79563 0,1.16536 0.0289,0.31255 0.21185,0.56727 0.28774,0.86324 0.12844,0.5009 0.18595,1.01648 0.3357,1.51066 0.0419,0.13828 0.14913,0.25393 0.19183,0.38845 0.0287,0.0905 -0.008,0.18929 0.048,0.28055 0.45259,0.73319 0.87334,1.55363 1.43872,2.20125 0.47491,0.54399 1.22954,0.80445 1.75045,1.27327 0.4208,0.37872 0.88578,0.61779 1.36679,0.9064 1.00821,0.60492 1.8908,1.21777 3.09325,1.33801 1.77663,0.17766 3.50145,-0.60014 5.13145,-1.18695 0.48035,-0.17292 0.98676,-0.21744 1.46271,-0.43161 0.16877,-0.076 1.57453,-0.74674 1.67851,-0.69059 0.0918,0.01 -0.0209,0.12684 0.024,0.15107 0.24442,0.13198 0.75198,-0.0511 0.93517,0.23738 0.0871,0.13718 -0.1385,1.21298 -0.16785,1.42434 -0.0216,0.15546 -0.26377,0.96767 -0.26377,1.0143 0,0.0638 0.13852,0.11121 0.16785,0.10791 0.078,-0.009 0.0893,-0.12534 0.0959,-0.17265 0.052,-0.37438 0.77664,-1.00111 1.03108,-1.23011 0.17814,-0.16032 0.33519,-0.328 0.50355,-0.49636 0.285,-0.28499 1.01026,-0.6531 1.17496,-0.94956 0.0681,-0.12265 -0.2906,0.12177 -0.28774,0.12949 0.0208,0.0562 0.14702,-0.009 0.16785,-0.0647 0.0297,-0.0802 -0.14734,0.11115 -0.16785,0.19422 -0.0585,0.23697 -0.0103,0.6019 0,0.84166 0.0143,0.33519 0.20447,0.66313 0.16785,0.99272 -0.1042,0.93781 -0.42473,3.79823 -1.75045,3.79823 -0.48625,0 -0.93778,0.14057 -1.41474,0.19422 -0.31509,0.0354 -0.6424,-0.019 -0.95915,0 -1.05987,0.0636 -2.82912,0.19938 -3.71671,0.7985 -0.46911,0.31664 -0.85239,0.78873 -1.27087,1.16536 -0.45649,0.41084 -0.98068,1.0077 -1.19894,1.59699 -0.39822,1.07519 -0.42159,2.34748 -0.71936,3.45293 -0.20886,0.77541 -0.26581,1.62158 -0.38366,2.41706 -0.0911,0.61516 -0.33253,1.2036 -0.45559,1.81279 -0.0264,0.13064 -0.22553,0.97114 0.048,0.97114 0.008,0 -0.14936,-0.13804 -0.11989,-0.32371 0.0454,-0.28607 0.16802,-0.17842 0.11989,-0.58269 -0.0799,-0.67099 -0.1357,-1.36585 -0.26376,-2.0286 -0.1411,-0.73016 -0.3541,-1.43275 -0.40764,-2.17966 -0.0355,-0.49456 -0.0877,-0.99586 0,-1.48908 0.0981,-0.55197 0.3512,-1.24172 0.28774,-1.81279 -0.13664,-1.22984 -0.63091,-2.14939 -1.03108,-3.30188 -0.0331,-0.0952 -0.1534,-0.97113 -0.31172,-0.97113 -0.15345,0 -0.12313,0.60737 -0.28775,0.58268 -0.21244,-0.0319 0.004,-0.0929 0,-0.10791 -0.0196,-0.0707 -0.12728,-0.073 -0.19183,-0.1079 -0.25278,-0.1365 -0.54306,-0.19635 -0.7913,-0.34529 -0.71634,-0.42981 -1.58751,-1.21411 -2.49379,-0.71217 -1.68347,0.93238 -2.40896,1.32553 -3.33304,3.06448 -0.0493,0.0927 -0.65452,1.27327 -0.74334,1.27327 -0.15972,0 0.14362,-0.51326 0.19183,-0.58268 0.1826,-0.26294 0.14984,-0.79197 0.19183,-1.10063 0.0683,-0.50162 0.16785,-1.0243 0.16785,-1.53224 0,-0.60986 -0.17066,-1.62868 -0.3357,-2.22283 -0.11397,-0.41027 -0.066,-0.87964 -0.19183,-1.29485 -0.11919,-0.39332 -0.26837,-0.86502 -0.4556,-1.23011 -0.13648,-0.26614 -0.33777,-0.49413 -0.45559,-0.77691 -0.0847,-0.20317 -0.0148,-0.44166 -0.0719,-0.64742 -0.10871,-0.39137 -0.38617,-0.73924 -0.55151,-1.10063 -0.12105,-0.26457 -0.19441,-0.56863 -0.28774,-0.84165 -0.14738,-0.43107 -0.0215,-0.91699 -0.1199,-1.35959 -0.15827,-0.71223 -0.4419,-1.38428 -0.59947,-2.09335 -0.10115,-0.45521 -0.0305,-0.94946 -0.16785,-1.40275 -0.21201,-0.69963 -0.76736,-1.79179 -0.81527,-2.4818 -0.0276,-0.398 -0.0676,-0.92104 0,-1.31643 0.0376,-0.21988 0.16785,-0.41757 0.16785,-0.64743 0,-0.43656 0.0956,-0.91092 0.0719,-1.31643 -0.0114,-0.19439 -0.11974,-0.41126 -0.0959,-0.60427 0.0441,-0.35709 0.2789,-0.68692 0.35968,-1.03588 0.24632,-1.06412 0.65693,-2.14872 0.7913,-3.23713 0.0451,-0.36565 0.23311,-0.70353 0.3357,-1.05746 0.23666,-0.81647 0.40306,-1.68993 0.55151,-2.52496 0.0728,-0.40952 0.13504,-0.81663 0.16785,-1.23011 0.0115,-0.1454 -0.001,-0.55912 -0.0719,-0.43161 -0.12732,0.22919 0.69779,1.85214 0.81528,2.07176 0.14352,0.26827 0.32222,0.5321 0.50356,0.77691 0.0497,0.0672 0.0816,0.0738 0.0959,0.15107 0.007,0.0387 -0.0857,0.0966 -0.048,0.1079 0.0389,0.0117 0.0857,3.8e-4 0.1199,-0.0216 0.11404,-0.0733 0.22726,-0.70323 0.26376,-0.79849 0.18545,-0.48403 0.42476,-0.94748 0.62345,-1.42434 0.27819,-0.66766 0.45562,-1.37404 0.76732,-2.0286 0.76737,-1.61148 1.88208,-2.98134 2.78153,-4.5104 0.71267,-1.21153 1.23903,-2.56104 2.30196,-3.51768 0.50006,-0.45005 0.98909,-0.84671 1.55862,-1.20853 0.0286,-0.0182 0.52262,-0.33254 0.52753,-0.32371 0.0261,0.047 -0.17299,0.22222 -0.19183,0.25897 -0.15976,0.31152 -0.253,0.69247 -0.38366,1.0143 -0.41729,1.02784 -0.91864,2.0182 -1.34281,3.0429 -0.21491,0.51918 -0.38695,1.05785 -0.59947,1.5754 -0.4415,1.07519 -1.03887,2.07607 -1.48668,3.15081 -0.0935,0.22444 -0.23979,0.58958 -0.23979,0.84165 0,0.19121 0.34905,0.17026 0.4556,0.19423 0.78478,0.17658 1.58996,0.35872 2.37389,0.0647 0.48344,-0.18129 1.88177,-1.59698 1.9183,-1.59698 0.0597,0 -0.0743,0.37969 -0.0719,0.41004 0.0169,0.21287 0.10515,0.46484 0.2158,0.64742 0.13216,0.21805 0.43063,0.38354 0.47958,0.62585 0.0731,0.36175 0.0462,0.64936 0.21581,0.99272 0.033,0.0668 1.01233,0.62141 1.15098,0.71216 0.23691,0.15507 0.69026,0.35782 0.98313,0.25897 0.16787,-0.0566 0.58082,-0.80329 0.76731,-0.97113 0.23962,-0.21566 0.58307,-0.28978 0.86324,-0.43162 0.299,-0.15137 0.53539,-0.3632 0.81528,-0.53952 0.13541,-0.0853 0.30055,-0.11559 0.43161,-0.19423 0.16321,-0.0979 0.1906,-0.36954 0.35968,-0.49636 0.47453,-0.35589 2.24071,-0.62948 2.44583,-0.9064 0.79784,-1.07708 0.0801,-1.97007 -0.0719,-3.06448 -0.0186,-0.13411 0.0136,-0.27522 0,-0.41003 -0.0486,-0.48152 -0.40272,-1.33956 -0.67141,-1.72647 -0.38021,-0.54751 -1.35181,-1.92649 -1.84636,-2.24441 -0.25238,-0.16225 -0.50495,-0.25352 -0.76732,-0.38846 -0.36657,-0.18852 -0.64562,-0.51686 -1.0071,-0.73375 -0.26621,-0.15972 -0.58952,-0.21291 -0.86324,-0.36687 -0.80022,-0.45013 -1.68212,-0.83249 -2.51777,-1.20853 -0.44175,-0.19879 -0.94445,-0.25947 -1.39076,-0.43162 -0.12282,-0.0474 -0.17673,-0.1362 -0.31173,-0.17264 -0.5044,-0.13619 -1.08757,-0.11638 -1.60657,-0.19423 -0.14343,-0.0215 -0.49293,-0.0503 -0.62345,0 -0.0559,0.0216 -0.0875,0.0876 -0.14387,0.1079 -0.20942,0.0754 -0.94317,0.0406 -1.22292,0.0863 -0.83848,0.1372 -1.72058,0.39235 -2.49378,0.69058 -0.45765,0.17653 -0.97522,0.18467 -1.43873,0.32372 -0.11842,0.0355 -0.22874,0.14609 -0.3357,0.19422 -0.34204,0.15392 -0.75733,0.18974 -1.10302,0.3453 -0.27045,0.1217 -0.49585,0.33103 -0.76732,0.4532 -0.24542,0.11043 -0.53031,0.15457 -0.7913,0.25897 -0.39886,0.15954 -0.8554,0.46762 -1.27087,0.5611 -0.32371,0.0728 -0.62937,0.0597 -0.95915,0.15106 -0.57801,0.16007 -1.59626,0.4422 -2.18207,0.36688 -0.12677,-0.0163 -0.1845,-0.11124 -0.28774,-0.15107 -0.25235,-0.0973 -0.59312,-0.19267 -0.86323,-0.25897 -0.38002,-0.0933 -0.79322,-0.11998 -1.127,-0.34529 -0.27269,-0.18406 -0.47407,-0.4914 -0.71937,-0.71217 -0.4541,-0.40869 -0.93285,-0.76578 -1.34281,-1.20853 -0.63588,-0.68676 -1.43378,-1.2904 -2.1341,-1.92069 -0.0981,-0.0883 -0.13579,-0.22289 -0.21581,-0.32372 -0.15381,-0.1938 -0.36153,-0.37435 -0.52753,-0.5611 -0.16647,-0.18727 -1.17278,-0.91554 -1.22292,-1.03588 -0.10307,-0.24738 -0.13874,-0.54416 -0.21581,-0.79849 -0.07,-0.23103 0.0199,-0.51088 -0.048,-0.75533 -0.17705,-0.63737 -0.36054,-1.27714 -0.50356,-1.9207 -0.14148,-0.63666 -0.12238,-1.76453 -0.16785,-2.46022 -0.0307,-0.46966 -0.25504,-0.92205 -0.31172,-1.38117 -0.0494,-0.39989 -0.0244,-0.80525 -0.048,-1.20853 -0.0269,-0.45964 -0.19319,-0.93441 -0.28774,-1.38117 -0.0477,-0.22536 -0.17801,-0.41634 -0.26377,-0.62585 -0.17798,-0.43477 -0.31253,-0.92467 -0.40764,-1.38117 -0.12372,-0.59385 -0.23253,-1.15864 -0.38366,-1.74805 -0.0393,-0.15337 -0.005,-0.30002 -0.024,-0.4532 -0.0706,-0.57199 -0.29849,-1.27586 -0.52753,-1.79121 -0.17369,-0.3908 -0.0413,-0.88063 -0.21581,-1.27327 -0.0869,-0.19561 -0.22074,-0.44907 -0.3357,-0.60427 -0.23779,-0.32102 -0.16567,-0.90246 -0.35968,-1.25169 -0.14141,-0.25454 -0.29869,-0.5082 -0.4556,-0.75533 -0.0677,-0.10671 -0.0744,-0.28721 -0.11989,-0.41003 -0.12224,-0.33006 -0.41652,-0.88601 -0.62345,-1.16537 -0.1399,-0.18886 -0.35933,-0.32324 -0.50355,-0.51794 -0.18492,-0.24964 -0.31178,-0.58273 -0.55151,-0.79849 -0.36817,-0.33135 -0.73122,-0.65813 -1.15098,-0.92798 -0.15199,-0.0977 -0.24186,-0.29305 -0.38366,-0.41003 -0.26467,-0.21836 -0.60712,-0.44463 -0.91119,-0.60427 -0.29623,-0.15552 -0.64558,-0.24418 -0.93517,-0.41004 -0.58875,-0.33719 -1.19067,-0.76232 -1.75045,-1.16536 -0.34648,-0.24947 -0.58014,-0.58687 -0.88721,-0.86324 -0.18273,-0.16445 -0.44351,-0.25736 -0.64743,-0.38845 -0.42907,-0.27583 -0.77751,-0.6513 -1.22291,-0.9064 -0.40188,-0.23016 -0.83761,-0.37307 -1.22292,-0.60426 -0.6255,-0.3753 0.24736,0.10222 -0.19183,-0.19423 -0.24813,-0.16749 -0.57586,-0.24009 -0.81528,-0.43162 -0.2635,-0.2108 -0.6395,-0.46042 -0.95915,-0.60426 -0.24117,-0.10853 -0.55293,-0.179 -0.76732,-0.32371 -0.13152,-0.0888 -0.0172,-0.0444 -0.14387,-0.17265 -0.26842,-0.27178 -0.66607,-0.37346 -0.95915,-0.60426 -0.41276,-0.32505 -0.74791,-0.72768 -1.15098,-1.05747 -0.32269,-0.26402 -0.79402,-0.476 -1.17495,-0.64742 -1.32899,-0.59804 -2.76004,-0.80484 -4.1723,-1.14379 -0.34022,-0.0817 -0.67251,-0.24491 -1.00711,-0.34529 -0.53575,-0.16072 -1.09811,-0.22517 -1.60657,-0.47478 -0.46694,-0.22922 -1.51259,-0.24603 -1.84637,-0.49636 -0.2963,-0.22223 -0.81387,-1.05569 -1.05506,-1.35959 -0.057,-0.0718 -0.73161,-0.99272 -0.59947,-0.99272 0.10173,0 0.13707,0.15138 0.21581,0.21581 0.2447,0.20021 0.61172,0.36297 0.88721,0.51794 0.34092,0.19176 0.73931,0.30862 1.05507,0.53952 0.76819,0.56174 1.38598,1.43297 2.27798,1.83437 0.53373,0.24018 1.18503,0.39352 1.77442,0.34529 0.24442,-0.02 0.47015,-0.1395 0.71936,-0.0647 0.15926,0.0478 0.28267,0.14878 0.43162,0.21581 0.0659,0.0297 0.21581,-0.0507 0.21581,0.0216 0,0.0328 -0.0716,0.0435 -0.0959,0.0216 -0.0432,-0.0389 0.008,-0.1243 -0.024,-0.17264 -0.0961,-0.14416 -0.1735,-0.28767 -0.28775,-0.43162 -0.4166,-0.52492 -0.92332,-0.98211 -1.34281,-1.51066 -0.41296,-0.52034 -0.91034,-1.12042 -1.19893,-1.72647 -0.13134,-0.2758 -0.22293,-0.58127 -0.38366,-0.84165 -0.23763,-0.38496 -1.01595,-0.72354 -1.17496,-1.05747 -0.13063,-0.27431 -0.22686,-0.58597 -0.40764,-0.84165 -0.16059,-0.22711 -0.61116,-0.62372 -0.64743,-0.88481 -0.0685,-0.49309 -0.46627,-0.65867 -0.62344,-1.03589 -0.0522,-0.1254 0.0189,-0.33844 0,-0.47477 -0.0145,-0.10434 -0.12384,-0.42452 -0.0719,-0.51795 0.0131,-0.0236 0.0966,-0.10724 0.14387,-0.0647 0.0342,0.0308 -0.018,0.16296 0.024,0.21581 0.2222,0.27997 0.75851,0.74114 1.05507,0.92798 0.4042,0.25464 0.83489,0.58072 1.27087,0.77691 0.25774,0.11598 0.55809,0.11205 0.7913,0.25897 0.0595,0.0375 0.40764,0.20445 0.40764,0.28055 0,0.22835 -0.19319,-0.32413 -0.26377,-0.62585 -0.12562,-0.53703 -0.3064,-1.09103 -0.57549,-1.5754 -0.19387,-0.34896 -0.40847,-0.67169 -0.52753,-1.05746 -0.15741,-0.50999 -0.16643,-1.06759 -0.3357,-1.5754 -0.0472,-0.14162 -0.22129,-0.65915 -0.14388,-0.79849 0.0243,-0.0438 0.13047,-0.0914 0.14388,-0.0432 0.0149,0.0537 -0.10514,0.10625 -0.0719,0.15107 0.009,0.0116 0.19018,0.16348 0.21581,0.19423 0.41503,0.49804 0.88554,0.91225 1.39076,1.31643 0.55659,0.44527 1.23827,0.97093 1.67852,1.53224 0.12809,0.16332 0.25264,0.35687 0.40763,0.49636 0.69076,0.62168 1.50815,1.10191 2.06217,1.87754 0.7679,1.07504 2.17306,1.8411 3.35703,2.37389 0.13973,0.0629 0.32232,0.0811 0.45559,0.15107 0.46962,0.24654 0.92885,0.45897 1.43873,0.62584 0.3439,0.11255 0.61096,0.41521 0.93517,0.5611 0.13734,0.0618 0.29312,0.0612 0.43161,0.10791 0.39581,0.13358 0.79237,0.33182 1.19894,0.43161 1.24034,0.30445 2.02376,0.40858 3.14121,1.07905 0.18683,0.11209 0.34594,0.25791 0.52754,0.36687 0.35417,0.2125 0.84248,0.23884 1.22291,0.41004 0.52265,0.23519 1.04141,0.50707 1.55862,0.75533 0.71992,0.34556 1.39222,0.83566 2.08615,1.23011 0.71738,0.40777 1.50596,0.69891 2.23002,1.07904 0.39157,0.20557 0.74234,0.5388 1.10302,0.79849 0.58948,0.42443 1.23917,0.76047 1.82239,1.18695 0.94688,0.6924 1.41416,1.83385 2.27798,2.61128 0.34732,0.3126 0.71776,0.60273 1.05506,0.92798 0.38623,0.37244 0.70324,0.82714 1.10302,1.18695 0.15973,0.14375 0.43572,0.28372 0.55151,0.47478 0.0949,0.15656 0.13808,0.36165 0.28775,0.49636 0.11216,0.10094 0.22539,0.12624 0.28774,0.28055 0.40161,0.99398 1.02054,1.93134 1.43873,2.93499 0.14026,0.33664 0.0916,0.70054 0.2158,1.03588 0.0913,0.24651 0.23371,0.48099 0.31173,0.73375 0.0955,0.30948 0.0635,0.64152 0.19183,0.94956 0.10944,0.26266 0.26725,0.54656 0.28774,0.84165 0.0564,0.81279 0.19837,1.57537 0.35968,2.3739 0.0668,0.33058 0.0624,0.70367 0.19183,1.0143 0.0313,0.0751 0.1351,0.0927 0.19183,0.15107 0.19852,0.20418 0.39471,0.46279 0.57549,0.69058 0.19223,0.2422 0.98476,0.88244 1.2469,1.07905 0.43613,0.3271 0.97899,0.47949 1.43872,0.75533 0.42399,0.25439 0.76002,0.66123 1.17496,0.92797 0.17303,0.11124 0.36429,0.19016 0.52753,0.32372 0.20091,0.16437 0.34526,0.3798 0.57549,0.51794 0.3833,0.22998 0.84947,0.33825 1.22292,0.58268 0.16883,0.11051 0.35706,0.24871 0.55151,0.32371 0.21811,0.0841 0.13998,4.6e-4 0.31172,0.0863 0.3614,0.1807 0.68438,0.43745 1.05506,0.60426 0.34339,0.15452 0.71747,0.15991 1.07905,0.23739 0.45877,0.0983 0.91849,0.22566 1.36678,0.36687 0.78556,0.24745 1.52497,0.56244 2.30196,0.82008 0.70882,0.23502 1.45841,0.29715 2.18207,0.47478 0.3003,0.0737 0.55237,0.29456 0.83925,0.38845 0.9558,0.31281 1.95452,0.56551 2.90143,0.9064 1.10311,0.39712 2.31186,0.66295 3.45294,0.92797 0.83434,0.19379 1.9074,0.14098 2.66164,0.62585 0.24501,0.15751 0.44789,0.38764 0.71936,0.51794 0.3471,0.16661 0.72937,0.27652 1.05506,0.49636 0.18838,0.12715 0.41574,0.29498 0.62345,0.38845 0.16879,0.076 0.34672,0.0597 0.50355,0.17265 0.10732,0.0773 0.0562,0.17302 0.1199,0.25897 0.21823,0.29461 1.09543,1.02484 1.41474,1.23011 0.265,0.17036 0.45075,0.65771 0.62345,0.9064 0.239,0.34416 0.70334,0.66506 1.03108,0.90639 0.1696,0.12489 0.2344,0.34283 0.38366,0.49636 0.0687,0.0706 0.17113,0.10203 0.23979,0.17265 0.16129,0.1659 0.1604,0.39767 0.31172,0.5611 0.18265,0.19726 0.44563,0.41634 0.67141,0.51794 0.01,0.005 0.45513,0.6212 0.55151,0.69059 0.51529,0.37101 1.48558,1.29142 2.18206,1.18695 0.105,-0.0158 0.20633,-0.0705 0.31173,-0.0863 0.36344,-0.0545 0.70611,-0.0251 1.05506,-0.19422 0.13317,-0.0645 0.86484,-0.52084 0.93517,-0.64743 0.13145,-0.23661 0.31145,-0.45621 0.50356,-0.66901 0.26244,-0.29071 0.58765,-0.51815 0.83925,-0.82007 0.41906,-0.50287 0.86493,-0.99917 1.27087,-1.51066 0.30118,-0.37948 0.55901,-0.80434 0.88722,-1.16537 0.69757,-0.76732 1.40964,-1.53862 2.11012,-2.30915 0.22712,-0.24983 0.43843,-0.56722 0.69539,-0.79849 0.31225,-0.28103 0.64969,-0.54156 0.95915,-0.82007 0.42807,-0.38527 0.76885,-0.86232 1.22291,-1.23011 0.72361,-0.58612 1.50069,-1.08821 2.27798,-1.59698 0.33991,-0.22249 0.63114,-0.50414 0.95915,-0.73375 0.19574,-0.13702 0.42053,-0.22355 0.62345,-0.3453 1.04552,-0.62731 2.04687,-1.35587 3.18917,-1.81279 0.89513,-0.35805 1.81429,-0.54429 2.73357,-0.82007 1.45423,-0.43627 2.94428,-0.79639 4.43607,-1.07904 0.98569,-0.18677 2.00232,-0.21517 2.99734,-0.32372 1.47689,-0.16111 2.98833,-0.53516 4.48402,-0.43161 0.26022,0.018 0.49554,0.13248 0.74334,0.15106 0.48936,0.0367 1.00061,-0.0193 1.48669,0.0432 0.22653,0.0291 0.42452,0.16557 0.64742,0.19423 0.49924,0.0642 1.04373,0.0564 1.53464,0.15107 0.88132,0.16996 1.7512,0.41647 2.63766,0.58268 0.63581,0.11921 1.28851,0.16876 1.9183,0.30213 0.68974,0.14607 1.36927,0.42678 2.06217,0.58268 0.37152,0.0836 0.76177,0.12 1.127,0.23739 0.78903,0.25362 1.48097,0.68888 2.27798,0.92798 0.60265,0.1808 1.28705,0.31062 1.84636,0.60427 0.54843,0.28792 1.04422,0.65191 1.60658,0.92797 0.83353,0.40919 1.78855,0.6956 2.56572,1.20853 0.34117,0.22517 0.64512,0.52132 0.98313,0.75533 0.36953,0.25583 0.83016,0.39218 1.22292,0.60426 0.24991,0.13496 0.45554,0.35913 0.6714,0.53953 0.39087,0.32665 0.82224,0.62612 1.24689,0.90639 0.34813,0.22977 0.68744,0.51365 1.05507,0.71217 0.34535,0.18649 0.77035,0.35731 1.07904,0.60426 0.92515,0.74012 1.82685,1.50094 2.73358,2.26599 0.62092,0.52391 0.99128,1.29961 1.53463,1.87754 0.24173,0.25711 0.52901,0.43294 0.7913,0.66901 0.25944,0.23349 0.71482,0.9128 0.93517,1.2301 0.13479,0.1941 0.18737,0.45556 0.31173,0.64743 0.22476,0.34677 0.56545,0.60847 0.74334,0.99272 0.0893,0.19291 0.10109,0.40244 0.16785,0.58268 0.0702,0.18956 0.23177,0.36921 0.31172,0.5611 0.2495,0.59879 0.36243,1.30969 0.47958,1.94228 0.11852,0.64004 0.0969,1.2992 0.23978,1.94228 0.0967,0.43525 0.16084,0.88412 0.26377,1.31643 0.10696,0.44921 0.31714,0.85488 0.40764,1.31643 0.0974,0.4966 0.008,1.01007 0.048,1.51066 0.0197,0.24825 0.055,0.50768 0,0.75533 -0.10336,0.46511 -0.41613,1.398 -0.64743,1.79122 -0.37145,0.63146 -0.87095,1.16338 -1.19894,1.81279 -0.16166,0.32008 -0.16428,0.7241 -0.28774,1.05746 -0.11951,0.32266 -0.39289,0.56028 -0.52753,0.86323 -0.11425,0.25705 -0.19084,0.57912 -0.26377,0.84166 -0.0574,0.20667 -0.26168,0.33965 -0.3357,0.53952 -0.0324,0.0876 -0.003,0.17808 -0.048,0.25897 -0.0962,0.17317 -0.30117,0.33982 -0.43162,0.49636 -0.21917,0.263 -0.42062,0.65983 -0.59946,0.94956 -0.0681,0.11039 -0.76701,0.80137 -0.86324,0.86323 -0.10583,0.068 -0.26274,0.10089 -0.3357,0.21581 -0.2065,0.32523 -0.48072,0.67055 -0.71936,0.99272 -0.13397,0.18086 -0.44754,0.40986 -0.52753,0.62584 -0.0126,0.0339 0.0113,0.38846 -0.024,0.38846 -0.0698,0 0.0719,-0.17377 0.0719,-0.10791 0,0.1353 -0.28783,0.18565 0.0959,-0.0216 0.17713,-0.0956 -0.0386,0.12949 0.024,0.12949 0.0588,0 0.0611,-0.12949 0.11989,-0.12949 0.002,0 0.0684,0.1287 -0.024,0.10791 -0.0788,-0.0177 0.0497,-0.16792 0.0719,-0.10791 0.0526,0.14196 -0.23789,0.19081 -0.28775,0.28056 -0.0671,0.1207 0.0242,0.34472 -0.024,0.47477 -0.13906,0.37549 -0.40365,0.71764 -0.50355,1.12221 -0.0551,0.2231 -0.0719,0.48265 -0.0719,0.71217 0,0.0678 0.0818,0.0902 0.048,0.15106 -0.26996,0.48593 -0.0982,1.27007 -0.16785,1.83438 -0.0649,0.52569 -0.14359,1.07754 -0.23979,1.59698 -0.0949,0.51233 -0.008,1.07749 -0.0719,1.59698 -0.0147,0.11892 -0.0632,0.54791 0,0.64743 0.0591,0.0931 0.1553,0.12234 0.19183,0.23739 0.0456,0.14363 -0.043,0.33423 0.024,0.47478 0.0477,0.10021 0.156,0.18635 0.2158,0.28055 0.0617,0.0972 0.0632,0.37266 0.16786,0.5611 0.0587,0.10571 0.13631,0.0866 0.2158,0.12949 0.0446,0.0241 0.26599,0.33683 0.33571,0.41003 0.21085,0.2214 0.71061,0.56796 0.98312,0.69059 0.70762,0.31842 1.37739,0.59944 2.0382,0.97114 0.33545,0.18869 0.73781,0.21784 1.07904,0.38845 0.36579,0.1829 0.6143,0.57775 0.98313,0.77691 0.55612,0.30031 2.01868,1.04152 2.37389,1.48908 0.0391,0.0492 0.0221,0.17091 0.0719,0.21581 0.0992,0.0893 0.26297,0.11137 0.35968,0.21581 0.08,0.0864 0.0639,0.29489 0.16785,0.38846 0.13752,0.12376 0.5024,0.49222 0.55151,0.669 0.0864,0.3109 0.26757,0.5691 0.40764,0.86324 0.075,0.15749 0.076,0.37664 0.14387,0.53952 0.14253,0.34208 0.39209,1.02541 0.43162,1.38117 0.0925,0.83274 0.12506,1.67736 0.23979,2.50338 0.0324,0.23299 0.21381,0.43706 0.23978,0.64743 0.0187,0.15183 -0.0163,1.25306 -0.048,1.38117 -0.0331,0.13416 -0.11663,0.28252 -0.0959,0.43162 0.0129,0.0931 0.11989,0.17582 0.11989,0.28055 0,1.39324 -0.0201,2.73698 -0.3357,4.10036 -0.0965,0.41669 -0.1,0.85639 -0.21581,1.27328 -0.17879,0.64364 -0.43025,1.26158 -0.62344,1.89911 -0.18954,0.62548 -0.32365,1.27311 -0.57549,1.87754 -0.33768,0.81042 -0.8591,1.53328 -1.15098,2.37389 -0.32081,0.92393 -0.32559,1.92958 -0.62345,2.84867 -0.12087,0.37297 -0.25416,0.7639 -0.35968,1.14379 -0.17973,0.64704 -0.0948,1.37529 -0.21581,2.0286 -0.0341,0.18385 -0.0959,0.38911 -0.0959,0.58268 0,0.20436 0.13238,0.34798 0.16785,0.53952 0.0665,0.35902 0.026,0.74131 0.11989,1.10063 0.15608,0.59698 0.3801,1.05633 0.71936,1.5754 0.20153,0.30833 0.26804,0.65216 0.43162,0.97114 0.13898,0.27101 0.41471,0.4962 0.59947,0.73375 0.36408,0.4681 0.73575,0.91842 1.10302,1.38117 0.39347,0.49577 0.60371,1.15777 0.95915,1.68331 0.23572,0.34853 0.52706,0.66998 0.7913,0.99272 0.2928,0.35763 0.5288,0.77831 0.83925,1.1222 0.2781,0.30805 0.6115,0.55266 0.9112,0.84166 0.25573,0.2466 0.44297,0.58528 0.71936,0.79849 0.73417,0.56636 1.60666,0.99279 2.30196,1.61856 0.39812,0.35831 0.62482,0.87019 0.98312,1.27327 0.25015,0.28142 0.5603,0.50744 0.7913,0.7985 0.19944,0.25129 0.3108,0.58599 0.52753,0.82007 0.22691,0.24505 0.54005,0.37627 0.74334,0.669 0.35423,0.51009 0.68265,1.18606 1.07905,1.66173 0.13138,0.15766 0.26957,0.26092 0.40764,0.41004 0.0587,0.0634 0.0692,0.24021 0.14387,0.28055 0.0717,0.0387 0.18641,-0.008 0.21581,0.15106 0.0683,0.36872 -0.1199,0.62966 -0.1199,0.88482 0,0.0542 0.0624,0.0926 0.048,0.15107 -0.0307,0.12452 -0.85006,1.17509 -0.95915,1.27327 -0.096,0.0864 -0.31268,0.0872 -0.43162,0.19422 -0.23955,0.21561 -0.4126,0.49971 -0.69538,0.69059 -0.3466,0.23396 -1.38518,0.89575 -1.77443,1.03588 -0.17992,0.0648 -0.33342,-0.0443 -0.50355,0.0432 -0.086,0.0442 -0.13557,0.12451 -0.21581,0.17265 -0.13091,0.0785 -0.27396,0.0779 -0.40764,0.12949 -0.42031,0.16212 -0.81469,0.39898 -1.22291,0.58268 -0.15475,0.0696 -0.26436,0.19458 -0.40764,0.28055 -0.23831,0.14299 -0.50099,0.21443 -0.74334,0.34529 -0.71151,0.38422 -1.35436,1.00442 -1.9183,1.57541 -0.24637,0.24945 -0.4119,0.54719 -0.57549,0.84165 -0.12403,0.22325 -0.39801,0.37629 -0.50355,0.60426 -0.0824,0.17787 -0.10065,0.40489 -0.19183,0.58269 -0.26079,0.50854 -0.49819,0.99982 -0.69538,1.53224 -0.12878,0.34768 -0.14426,0.76366 -0.26377,1.1222 -0.0507,0.15202 -0.17485,0.28418 -0.21581,0.43162 -0.0424,0.15276 -0.006,0.31698 -0.0719,0.47478 -0.23777,0.57066 -0.62709,1.00153 -1.03108,1.44592 -0.25474,0.28021 -0.53451,0.50263 -0.81528,0.75533 -0.0447,0.0403 -0.2067,0.30213 -0.26376,0.30213 -0.14076,0 0.17674,-0.53759 0.19183,-0.62585 0.10272,-0.60092 0.24923,-1.16695 0.50355,-1.72646 0.37982,-0.8356 0.95609,-1.55642 1.43872,-2.33074 0.4799,-0.76992 1.0135,-1.70936 1.31883,-2.56812 0.16069,-0.45193 0.21037,-1.10949 0.28775,-1.59698 0.11482,-0.72338 0.42894,-1.84803 0.28774,-2.56813 -0.0378,-0.19266 -0.14404,-0.30685 -0.21581,-0.47477 -0.11157,-0.26108 -0.24878,-0.84167 -0.28774,-1.12221 -0.0821,-0.59142 -0.43641,-1.19557 -0.71936,-1.70489 -0.31865,-0.57357 -0.85011,-1.01028 -1.15098,-1.59698 -0.21337,-0.41607 -0.14619,-0.99898 -0.31172,-1.44592 -0.44476,-1.20084 -0.81528,-2.635 -0.81528,-3.92771 0,-0.21778 0.0852,-0.77469 0.0719,-0.9064 -0.0103,-0.10199 -0.10002,-0.25062 -0.11989,-0.36687 -0.0783,-0.4583 -0.1637,-0.93463 -0.28774,-1.38118 -0.14283,-0.51416 -0.4711,-1.08304 -0.74334,-1.53224 -0.10706,-0.17664 -0.20446,-0.46948 -0.26377,-0.64743 -0.052,-0.15612 -0.21702,-0.27 -0.28775,-0.41003 -0.27027,-0.53514 -0.62168,-1.05529 -1.0071,-1.53224 -0.53337,-0.66005 -1.26677,-1.1401 -1.89432,-1.70489 -0.25753,-0.23178 -0.58522,-0.94257 -0.7913,-1.25169 -0.40435,-0.60653 -0.92005,-1.15309 -1.19894,-1.83437 -0.26675,-0.65164 -0.24361,-1.32328 -0.3357,-2.00702 -0.10856,-0.80605 -0.32546,-1.59793 -0.47957,-2.39548 -0.12677,-0.656 -0.19135,-1.31382 -0.31173,-1.96386 -0.21462,-1.15896 -0.74111,-2.21482 -1.05506,-3.34503 -0.21109,-0.75991 -0.48399,-1.58393 -0.55151,-2.37389 -0.0261,-0.30554 0.0128,-0.62714 -0.048,-0.92798 -0.0608,-0.30081 -0.16759,-0.60259 -0.21581,-0.9064 -0.053,-0.33362 -0.11116,-0.86724 -0.048,-1.20852 0.0964,-0.52054 0.26898,-1.01524 0.31173,-1.55383 0.0288,-0.36325 -0.0951,-0.67898 -0.1199,-1.03588 -0.0488,-0.70259 -0.009,-1.37972 -0.19183,-2.07176 -0.0997,-0.37682 -0.3413,-0.62893 -0.47957,-0.97114 -0.57425,-1.42127 -1.66169,-2.53451 -2.75755,-3.58242 -0.7714,-0.73765 -1.40488,-1.59952 -2.08615,-2.41706 -0.66564,-0.79876 -1.32267,-1.53527 -1.84637,-2.43863 -0.19674,-0.3394 -0.52956,-0.61298 -0.69538,-0.97114 -0.16906,-0.36518 -0.33967,-0.71976 -0.52753,-1.07905 -0.17089,-0.32682 -0.22905,-0.76875 -0.31172,-1.1222 -0.1411,-0.60317 -0.41847,-1.3951 -0.62345,-1.98544 -0.11773,-0.33904 -0.70815,-2.03154 -0.59947,-2.37389 0.0492,-0.15506 0.17992,-0.30234 0.23979,-0.4532 0.29902,-0.75353 0.37933,-1.62651 0.62344,-2.39548 0.0616,-0.19401 0.0601,-0.41583 0.14388,-0.60426 0.17613,-0.39629 0.366,-0.80146 0.52753,-1.20853 0.15461,-0.38962 0.21335,-0.81343 0.35968,-1.20853 0.0941,-0.25409 -0.047,-0.69228 0.0719,-0.90639 0.0632,-0.11384 0.072,0.0214 0.11989,-0.0863 0.0455,-0.10231 -0.0356,-0.26008 0,-0.36687 0.0922,-0.27655 0.11989,-0.54056 0.11989,-0.84165 0,-0.12295 0.0245,-0.27199 -0.024,-0.38846 -0.0515,-0.12367 -0.14539,-0.18292 -0.2158,-0.25897 -0.11973,-0.1293 -0.15165,-0.56596 -0.4556,-0.47478 -0.15007,0.045 -0.0338,0.20086 -0.11989,0.25897 -0.086,0.0581 -0.12748,0 -0.14388,0 -0.0418,0 -1.11031,0.66697 -1.19893,0.71217 -0.25702,0.13108 -0.581,0.29067 -0.86324,0.36687 -0.54628,0.1475 -1.17512,0.1649 -1.67851,0.4532 -0.19505,0.11171 -0.36259,0.38977 -0.55151,0.47478 -0.41158,0.18521 -0.85375,0.68141 -1.27087,0.94956 -0.16001,0.10286 -0.36449,0.14306 -0.52753,0.23739 -0.81453,0.47126 -1.64674,0.94249 -2.44583,1.44592 -0.35309,0.22244 -0.64339,0.55073 -1.00711,0.75533 -0.52167,0.29344 -1.12047,0.54511 -1.67851,0.77691 -0.18584,0.0772 -0.33649,0.22347 -0.50356,0.32371 -0.69103,0.41462 -1.35441,0.85965 -2.01421,1.31643 -0.44209,0.30606 -1.18713,0.58568 -1.48668,1.05746 -0.18919,0.29797 -0.0806,0.82499 -0.16785,1.16537 -0.40767,1.5899 -0.43936,3.24276 -0.69538,4.85569 -0.22445,1.41399 -1.5639,3.16962 -2.30196,4.38092 -0.67509,1.10794 -0.81872,2.16568 -1.67851,3.23713 -0.73385,0.91448 -1.42788,1.93251 -2.30196,2.71918 -0.96894,0.87204 -2.15872,1.59738 -3.26111,2.28758 -0.44065,0.27588 -0.91603,0.49974 -1.34281,0.79849 -0.65639,0.45947 -1.29617,0.95838 -1.96625,1.40275 -0.82268,0.54557 -1.7022,0.98171 -2.49379,1.57541 -0.63067,0.47299 -1.17404,1.05058 -1.79841,1.53224 -0.36393,0.28074 -0.87062,0.4777 -1.17496,0.82007 -0.0382,0.0429 -0.3025,0.5943 -0.3357,0.66901 -0.0293,0.066 -0.14214,0.13875 -0.0959,0.19422 0.0203,0.0243 0.18535,-0.0531 0.11989,0.0648 -0.20371,0.36669 0.045,-0.14777 -0.14387,0.0647 -0.176,0.19799 0.0175,0.61894 0.0719,0.79849 0.0518,0.171 -0.0165,0.40402 0,0.58268 0.0273,0.29533 0.0941,0.57202 0.14387,0.86324 0.0478,0.27983 0.0295,0.55968 0.048,0.84165 0.0343,0.52514 0.19533,1.13483 0.3357,1.64015 0.11662,0.41983 0.31422,0.8313 0.40764,1.25169 0.18208,0.81936 0.27366,1.60111 0.3357,2.43863 0.0345,0.466 0.19209,0.88224 0.14387,1.3596 -0.11581,1.14649 -0.58648,2.25251 -0.98313,3.32345 -0.11518,0.31098 -0.18234,0.64389 -0.31172,0.94956 -0.34595,0.8173 -0.72518,1.56926 -0.93517,2.43863 -0.098,0.40555 -0.21756,0.78165 -0.35968,1.16537 -0.18352,0.4955 -0.52825,0.90895 -0.67141,1.42434 -0.27008,0.97228 -0.68218,2.40042 -1.29485,3.17238 -0.0844,0.10639 -0.0664,0.26232 -0.14387,0.36688 -0.40346,0.54467 -0.78221,1.08836 -1.17496,1.61856 -0.0284,0.0384 -0.4194,0.41751 -0.3357,0.51794 0.0782,0.0939 0.31383,-0.1917 0.45559,-0.0216 0.10195,0.12234 0.17649,0.30067 0.28775,0.43162 0.35209,0.41438 0.74246,0.76642 1.05506,1.20853 0.3476,0.49159 0.8505,0.8337 1.127,1.38117 0.23817,0.47157 0.28289,1.03543 0.35969,1.55382 0.0975,0.65791 0.13629,1.33119 0.28774,1.98544 0.1398,0.60393 0.36452,1.18641 0.50355,1.79121 0.1419,0.61726 0.20588,1.27161 0.4556,1.85596 0.23186,0.54255 0.18225,1.13522 0.28774,1.70489 0.0377,0.20331 0.048,0.3969 0.048,0.60426 0,0.0575 0,0.23019 0,0.17265 0,-0.0675 0.0254,-0.1718 -0.048,-0.21581 -0.0301,-0.018 -0.13012,0.0355 -0.0959,0.0432 0.0585,0.0132 0.11508,-0.0932 0.16785,-0.0647 0.0526,0.0284 -0.007,0.14813 0.048,0.17264 0.0255,0.0115 0.12091,-0.20524 -0.024,-0.17264 -0.0464,0.0104 0.0946,0.24082 0.21581,-0.0863 0.0255,-0.0687 -2.3e-4,-0.16114 0.024,-0.23739 0.11919,-0.37547 0.35648,-0.80433 0.57549,-1.14378 -1.31898,-0.23066 -0.0457,1.7942 -0.52758,3.40976 -0.11666,0.0225 -0.4285,-0.0103 -0.52753,0.0432 -0.16473,0.089 0.0892,0.0488 -0.11989,0.12948 -0.14012,0.054 -0.34916,0.0142 -0.50356,0.0647 -0.56566,0.18513 -1.16131,0.27902 -1.75044,0.3453 -0.10605,0.0119 -0.20964,-0.0494 -0.31173,-0.0648 -0.4612,-0.0692 -1.54576,0.0743 -1.89432,-0.30213 -0.11673,-0.12607 0.2583,-0.24642 0.1199,-0.47478 -0.56869,-0.93833 -0.72952,-2.10375 -1.05507,-3.12922 -0.0731,-0.23022 -0.009,-0.60153 -0.024,-0.84165 -0.0233,-0.37814 -0.11948,-0.74902 -0.14387,-1.12221 -0.0159,-0.24292 0.008,-0.49226 -0.024,-0.73375 -0.1263,-0.96623 -0.39018,-1.90091 -0.50355,-2.87025 -0.0726,-0.62047 0.015,-1.25174 -0.0719,-1.87754 -0.11932,-0.85911 -0.49823,-1.65817 -0.62344,-2.50338 -0.10126,-0.68349 -0.16063,-1.36946 -0.26377,-2.05018 -0.0865,-0.57098 -0.34459,-1.13748 -0.40764,-1.70489 -0.0663,-0.59638 0.0443,-1.21427 0,-1.81279 -0.0277,-0.37416 -0.0954,-0.74752 -0.11989,-1.1222 -0.0623,-0.95356 -0.002,-1.916 -0.048,-2.87026 -0.0344,-0.71193 -0.11363,-1.43145 -0.21581,-2.1365 -0.035,-0.24172 -0.14122,-0.4725 -0.16785,-0.71217 -0.0416,-0.37463 0.18562,-0.78493 0.21581,-1.16537 0.0899,-1.1333 0.0699,-2.30119 0.35968,-3.40977 0.13219,-0.50562 0.35563,-1.0007 0.47958,-1.51066 0.22911,-0.94263 0.46706,-1.95728 0.86323,-2.84867 0.11073,-0.24915 0.29587,-0.48229 0.40764,-0.73375 0.22941,-0.51617 0.38185,-1.03263 0.6714,-1.55383 0.16368,-0.29461 0.32904,-0.45049 0.47958,-0.75533 0.63068,-1.27712 1.04076,-2.70214 1.53464,-4.03562 0.0822,-0.22204 0.10604,-0.46998 0.19183,-0.69058 0.1386,-0.35642 0.36135,-0.69268 0.47957,-1.05747 0.15656,-0.48308 0.28758,-0.9836 0.4556,-1.46749 0.0984,-0.28326 0.23387,-0.45882 0.3357,-0.73375 0.10218,-0.27589 0.0452,-0.55651 0.0959,-0.84166 0.074,-0.41651 0.20607,-0.82685 0.23979,-1.25169 0.0208,-0.2625 -0.007,-0.53664 0.024,-0.79849 0.0816,-0.69776 0.259,-1.68533 0.11989,-2.37389 -0.03,-0.14879 -0.12697,-0.27956 -0.14387,-0.43162 -0.0492,-0.44269 -0.0893,-1.69797 0.024,-2.07176 0.27821,-0.91808 0.53519,-1.91289 1.00711,-2.76235 0.58684,-1.05631 1.32256,-1.99879 1.94227,-3.02132 0.71881,-1.18603 1.36229,-2.4247 2.13411,-3.58242 0.12432,-0.18648 0.19452,-0.45643 0.3357,-0.62585 0.26589,-0.31906 0.62828,-0.53929 0.9112,-0.84165 0.32425,-0.34655 0.60666,-0.73411 0.93517,-1.07905 0.65418,-0.68689 1.32495,-1.42492 2.08615,-1.98543 0.45899,-0.33799 1.09017,-0.51504 1.60657,-0.73375 0.82983,-0.35146 1.68621,-0.74734 2.49379,-1.14379 0.68743,-0.33747 1.24424,-0.8298 1.89432,-1.23011 0.7342,-0.45211 1.49533,-0.8774 2.18206,-1.40275 0.37339,-0.28564 0.84323,-0.58805 1.127,-0.97114 0.30361,-0.40987 0.55954,-0.85146 0.88722,-1.25169 0.75855,-0.92652 1.69794,-1.71975 2.37389,-2.71919 0.65998,-0.97582 0.98577,-2.18134 1.43872,-3.25871 0.50714,-1.20625 1.1062,-2.34842 1.48669,-3.604 0.16864,-0.55652 0.2203,-1.17145 0.28774,-1.74805 0.0855,-0.73099 0.35948,-1.07958 0.0719,-1.85596 -0.0372,-0.10053 -0.2657,-0.96756 -0.33571,-0.94955 -0.19494,0.0501 -0.0375,0.21861 -0.0959,0.32371 -0.172,0.30961 -0.63987,0.65496 -0.91119,0.86323 -0.77579,0.59553 -1.90632,1.45491 -2.97337,1.29485 -0.15115,-0.0227 -0.61012,-0.41483 -0.79129,-0.49636 -0.79815,-0.35916 -1.62015,-0.63442 -2.42186,-0.97113 -0.0541,-0.0227 -0.68619,-0.25836 -0.74334,-0.17265 -0.10619,0.15929 -0.23658,0.6854 -0.3357,0.88481 -0.25281,0.5086 -0.53795,1.00081 -0.74334,1.53225 -0.0922,0.23857 -0.10784,0.5286 -0.21581,0.75533 -0.23752,0.49879 -0.47622,1.0484 -0.6714,1.5754 -0.19004,0.5131 -0.35341,1.1302 -0.67141,1.5754 -0.49091,0.68728 -1.20849,1.009 -1.89432,1.48908 -1.04305,0.73013 -1.50114,1.0853 -2.75755,0.77691 -0.65117,-0.15983 -1.055,-1.05732 -1.29485,-1.59698 -0.29225,-0.65756 -0.80426,-1.20538 -1.00711,-1.89912 -0.23475,-0.80284 -0.12505,-1.64821 -0.31172,-2.46022 -0.14058,-0.61153 -0.33677,-1.32054 -0.67141,-1.85595 -0.13094,-0.20951 -0.30196,-0.45164 -0.38366,-0.69059 -0.14394,-0.42104 -0.17868,-0.88456 -0.28774,-1.31643 -0.0926,-0.36652 -0.19312,-0.75993 -0.35968,-1.10062 -0.0624,-0.12771 -0.55043,-1.10063 -0.76732,-1.10063 -0.021,0 0.0354,0.18523 0.048,0.19423 0.0266,0.0192 0.0639,0.0144 0.0959,0.0216 0.032,0.0144 0.0679,0.0221 0.0959,0.0432 0.0652,0.0489 0.39508,0.81132 0.43161,0.88482 0.48581,0.97733 0.98359,1.87909 1.29485,2.93499 0.55009,1.86607 1.27495,3.76081 1.17496,5.74051 -0.0534,1.05843 -0.48244,2.08227 -0.62344,3.12923 -0.0942,0.69939 0.1942,1.65497 -0.21581,2.28757 -0.17058,0.26317 -0.42338,0.57527 -0.64743,0.77691 -0.0795,0.0716 -0.147,-0.0647 -0.23979,-0.0647 -0.11132,0 -0.32787,0.15273 -0.43161,0.19422 -0.50082,0.20033 -1.04311,0.32102 -1.5826,0.28056 -0.48971,-0.0367 -0.96073,-0.22129 -1.43872,-0.32372 -0.049,-0.0105 -0.61524,-0.1147 -0.57549,-0.0432 0.0432,0.0777 0.43139,-0.0652 0.35968,-0.21581 -0.0803,-0.16865 -0.30312,-0.16933 -0.40764,-0.36687 -0.28046,-0.53007 -0.53514,-1.00979 -0.95915,-1.44592 -0.0131,-0.0134 -0.34705,-0.4252 -0.43162,-0.32371 -0.12648,0.15177 0.0886,0.19766 0.14388,0.28055 0.0663,0.0994 0.0667,0.22947 0.0959,0.34529 0.074,0.29311 0.11361,0.57137 0.26377,0.84166 0.59244,1.06639 1.44337,1.25014 0.43161,2.52496 -0.25066,0.31583 -0.64196,0.48107 -1.03108,0.51794 -0.22313,0.0211 -0.47186,0.0759 -0.69538,0.0647 -0.75309,-0.0377 -1.43745,-0.6119 -2.18207,-0.73375 -0.0934,-0.0153 -0.17569,0.0647 -0.19183,0.0647 -0.0558,0 -0.0166,-0.14395 -0.0719,-0.15106 -0.18633,-0.024 -1.89431,-0.006 -1.89431,-0.0216 0,-0.032 0.0754,-0.0246 0.0959,0 0.0382,0.0459 -0.0386,0.11365 -0.048,0.17264 -0.0147,0.0927 0.079,0.19953 0.1199,0.28055 0.18226,0.36089 0.0746,0.79566 0.35968,1.12221 0.44518,0.50994 1.16234,0.80341 1.70249,1.20853 0.0534,0.0401 0.40383,0.24595 0.35968,0.34529 -0.0349,0.0786 -0.18122,0.0562 -0.23979,0.15107 -0.13184,0.21358 -0.27134,0.46975 -0.4556,0.64742 -0.0515,0.0496 -0.52753,0.34341 -0.52753,0.41004 0,0.7574 0.73956,1.76919 0.16785,2.26599 -0.57847,0.50268 -1.49577,-0.34179 -2.254,-0.4532 -0.0938,-0.0138 -0.43077,0.60004 -0.55151,0.69059 -0.1447,0.10852 -0.7913,0.37449 -0.7913,0.60426 0,0.0222 0.1199,0.099 0.1199,-0.0216 0,-0.0538 -0.1199,-0.0541 -0.1199,-0.1079 0,-0.0538 0.0769,-0.0756 0.1199,-0.10791 0.1362,-0.10215 0.39145,-0.0815 0.55151,-0.12948"
     id="path3501"
     style="fill:none;stroke:#000000;stroke-width:1px;stroke-linecap:butt;stroke-linejoin:miter;stroke-opacity:1" />
</svg>
