<?xml version="1.0" encoding="UTF-8" standalone="no"?>
<!-- Created with Inkscape (http://www.inkscape.org/) -->

<svg
   xmlns:dc="http://purl.org/dc/elements/1.1/"
   xmlns:cc="http://creativecommons.org/ns#"
   xmlns:rdf="http://www.w3.org/1999/02/22-rdf-syntax-ns#"
   xmlns:svg="http://www.w3.org/2000/svg"
   xmlns="http://www.w3.org/2000/svg"
   version="1.1"
   width="1024"
   height="768"
   id="svg2">
  <defs
     id="defs4" />
  <metadata
     id="metadata7">
    <rdf:RDF>
      <cc:Work
         rdf:about="">
        <dc:format>image/svg+xml</dc:format>
        <dc:type
           rdf:resource="http://purl.org/dc/dcmitype/StillImage" />
        <dc:title></dc:title>
      </cc:Work>
    </rdf:RDF>
  </metadata>
  <path
     d="M 175.38066,451.46594 C 174.90191,453.23224 174.51461,451.14781 176,450 c 0.16667,-0.33334 -0.16667,-0.66666 0,-1 0.16667,-0.33334 0.83333,-0.66666 1,-1 0.16667,-0.33334 -0.16667,-0.83334 0,-1 0.16667,-0.16666 0.66667,0.33334 1,0 0.33333,-0.33334 0.66667,-1.5 1,-2 0.33333,-0.5 0.66667,-0.66666 1,-1 0.33333,-0.33334 0.5,-0.5 1,-1 0.5,-0.5 1.33333,-1.5 2,-2 0.66667,-0.5 1.5,-0.66666 2,-1 0.5,-0.33334 -0.16667,-0.83334 1,-1 1.16667,-0.16666 4.83333,-0.16666 6,0 1.16667,0.16666 0.66667,0.83334 1,1 0.33333,0.16666 0.5,-0.16666 1,0 0.5,0.16666 1.66667,0.5 2,1 0.33333,0.5 -0.16667,1.5 0,2 0.16667,0.5 0.83333,0.5 1,1 0.16667,0.5 0,1.5 0,2 0,0.5 0,0.33334 0,1 0,0.66666 0.16667,2 0,3 -0.16667,1 -0.66667,2.16666 -1,3 -0.33333,0.83334 -0.83333,1.33334 -1,2 -0.16667,0.66666 0,1.5 0,2 0,0.5 -0.16667,0.83334 0,1 0.16667,0.16666 0.66667,0 1,0 0.33333,0 0.66667,0 1,0 0.33333,0 0.66667,-0.16666 1,0 0.33333,0.16666 0.66667,0.83334 1,1 0.33333,0.16666 0.5,0.16666 1,0 0.5,-0.16666 1.16667,-0.5 2,-1 0.83333,-0.5 2.16667,-1.5 3,-2 0.83333,-0.5 1.33333,-0.66666 2,-1 0.66667,-0.33334 1.5,-0.83334 2,-1 0.5,-0.16666 0.83333,0.16666 1,0 0.16667,-0.16666 -0.16667,-0.66666 0,-1 0.16667,-0.33334 0.33333,-0.5 1,-1 0.66667,-0.5 2.5,-1.5 3,-2 0.5,-0.5 -0.16667,-0.5 0,-1 0.16667,-0.5 0.66667,-1.33334 1,-2 0.33333,-0.66666 0.66667,-1.33334 1,-2 0.33333,-0.66666 0.66667,-1.33334 1,-2 0.33333,-0.66666 0.5,-0.83334 1,-2 0.5,-1.16666 1.5,-3.83334 2,-5 0.5,-1.16666 0.5,-1.16666 1,-2 0.5,-0.83334 1.5,-2.16666 2,-3 0.5,-0.83334 0.5,-1.16666 1,-2 0.5,-0.83334 1.5,-2.16666 2,-3 0.5,-0.83334 0.5,-1.16666 1,-2 0.5,-0.83334 1.33333,-2 2,-3 0.66667,-1 1.5,-2.16666 2,-3 0.5,-0.83334 0.5,-1.33334 1,-2 0.5,-0.66666 1.33333,-1.33334 2,-2 0.66667,-0.66666 1.16667,-1 2,-2 0.83333,-1 2,-2.83334 3,-4 1,-1.16666 1.66667,-2 3,-3 1.33333,-1 3.83333,-2.16666 5,-3 1.16667,-0.83334 1,-1.33334 2,-2 1,-0.66666 2.66667,-1.33334 4,-2 1.33333,-0.66666 2.83333,-1.33334 4,-2 1.16666,-0.66666 2.16666,-1.66666 3,-2 0.83334,-0.33334 1.16666,0.16666 2,0 0.83334,-0.16666 2.33334,-0.66666 3,-1 0.66666,-0.33334 0.33334,-0.66666 1,-1 0.66666,-0.33334 2.33334,-0.66666 3,-1 0.66666,-0.33334 0,-0.33334 1,-1 1,-0.66666 3.83334,-2.33334 5,-3 1.16666,-0.66666 1,-0.33334 2,-1 1,-0.66666 2.5,-1.83334 4,-3 1.5,-1.16666 3.33334,-2.33334 5,-4 1.66666,-1.66666 3.66666,-4.5 5,-6 1.33334,-1.5 1.83334,-1.83334 3,-3 1.16666,-1.16666 3,-2.83334 4,-4 1,-1.16666 1,-1.83334 2,-3 1,-1.16666 3,-2.83334 4,-4 1,-1.16666 0.66666,-1.33334 2,-3 1.33334,-1.66666 4.5,-5.16666 6,-7 1.5,-1.83334 1.5,-2 3,-4 1.5,-2 4.83334,-6.33334 6,-8 1.16666,-1.66666 0.66666,-1.66666 1,-2 0.33334,-0.33334 1,0 1,0 l -1,0 c 0,0 0.83334,0 1,0 0.16666,0 -0.16666,0.16666 0,0 0.16666,-0.16666 0.66666,-0.66666 1,-1 0.33334,-0.33334 0.66666,-0.83334 1,-1 0.33334,-0.16666 0.5,0.33334 1,0 0.5,-0.33334 1,-1.33334 2,-2 1,-0.66666 3.16666,-1.5 4,-2 0.83334,-0.5 0.16666,-0.33334 1,-1 0.83334,-0.66666 2.5,-1.66666 4,-3 1.5,-1.33334 3.66666,-3.66666 5,-5 1.33334,-1.33334 2.16666,-2.16666 3,-3 0.83334,-0.83334 1.33334,-1.33334 2,-2 0.66666,-0.66666 1.66666,-1.66666 2,-2 0.33334,-0.33334 0,0 0,0 l 0,0 c 0,0 0.16666,-0.16666 0,0 -0.16666,0.16666 -0.83334,0.83334 -1,1 -0.16666,0.16666 0,0 0,0 0,0 0.33334,-0.5 0,0 -0.33334,0.5 -1.5,2.33334 -2,3 -0.5,0.66666 -0.16666,-0.33334 -1,1 -0.83334,1.33334 -3,5.5 -4,7 -1,1.5 -1.66666,1.5 -2,2 -0.33334,0.5 0.16666,0.33334 0,1 -0.16666,0.66666 -0.83334,2.5 -1,3 -0.16666,0.5 0,0 0,0 0,0 -0.16666,0 0,0 0.16666,0 0.83334,0 1,0 0.16666,0 -0.16666,0.16666 0,0 0.16666,-0.16666 0.5,-0.83334 1,-1 0.5,-0.16666 1.5,0 2,0 0.5,0 -0.5,0.33334 1,0 1.5,-0.33334 6.5,-1.66666 8,-2 1.5,-0.33334 0.33334,0.16666 1,0 0.66666,-0.16666 2.33334,-0.83334 3,-1 0.66666,-0.16666 -0.5,0.33334 1,0 1.5,-0.33334 6.33334,-1.5 8,-2 1.66666,-0.5 1.5,-0.66666 2,-1 0.5,-0.33334 0.5,-0.83334 1,-1 0.5,-0.16666 1,0 2,0 1,0 3.5,0 4,0 0.5,0 -0.83334,0 -1,0 -0.16666,0 1,-0.33334 0,0 -1,0.33334 -4.5,1.33334 -6,2 -1.5,0.66666 -2.16666,1.5 -3,2 -0.83334,0.5 -1.16666,0.66666 -2,1 -0.83334,0.33334 -2.5,0.66666 -3,1 -0.5,0.33334 -0.16666,1 0,1 0.16666,0 0.66666,-0.83334 1,-1 0.33334,-0.16666 0.66666,0 1,0 0.33334,0 0.5,0.16666 1,0 0.5,-0.16666 0.83334,-0.66666 2,-1 1.16666,-0.33334 4.16666,-0.83334 5,-1 0.83334,-0.16666 0,-0.16666 0,0 0,0.16666 0.16666,0.83334 0,1 -0.16666,0.16666 -0.33334,-0.33334 -1,0 -0.66666,0.33334 -2.5,1.5 -3,2 -0.5,0.5 0,0.66666 0,1 0,0.33334 -0.5,1 0,1 0.5,0 3.5,-1.16666 3,-1 -0.5,0.16666 -4.83334,1.66666 -6,2 -1.16666,0.33334 -0.66666,-0.16666 -1,0 -0.33334,0.16666 -0.33334,0.83334 -1,1 -0.66666,0.16666 -1.66666,-0.33334 -3,0 -1.33334,0.33334 -4,1.66666 -5,2 -1,0.33334 -0.33334,-0.16666 -1,0 -0.66666,0.16666 -2.16666,0.66666 -3,1 -0.83334,0.33334 -1.33334,0.66666 -2,1 -0.66666,0.33334 -1.33334,0.66666 -2,1 -0.66666,0.33334 -1.33334,0.83334 -2,1 -0.66666,0.16666 -1.33334,-0.33334 -2,0 -0.66666,0.33334 -1.33334,1.33334 -2,2 -0.66666,0.66666 -1.66666,1.5 -2,2 -0.33334,0.5 0.5,0.33334 0,1 -0.5,0.66666 -2.33334,2.16666 -3,3 -0.66666,0.83334 -0.5,1.16666 -1,2 -0.5,0.83334 -1.5,2.16666 -2,3 -0.5,0.83334 -0.33334,1 -1,2 -0.66666,1 -2.16666,2.66666 -3,4 -0.83334,1.33334 -1,2.66666 -2,4 -1,1.33334 -2.66666,2 -4,4 -1.33334,2 -3.33334,6.33334 -4,8 -0.66666,1.66666 0.33334,1.33334 0,2 -0.33334,0.66666 -1.33334,1.33334 -2,2 -0.66666,0.66666 -0.66666,0.33334 -2,2 -1.33334,1.66666 -4,5.66666 -6,8 -2,2.33334 -4.83334,4.66666 -6,6 -1.16666,1.33334 -0.33334,1.16666 -1,2 -0.66666,0.83334 -2.33334,2.33334 -3,3 -0.66666,0.66666 -0.5,0.5 -1,1 -0.5,0.5 -1.33334,1.5 -2,2 -0.66666,0.5 -1.33334,0.66666 -2,1 -0.66666,0.33334 -1.5,0.66666 -2,1 -0.5,0.33334 0,0.16666 -1,1 -1,0.83334 -3.5,3 -5,4 -1.5,1 1.16666,-2 -4,2 -5.16666,4 -22,17.66666 -27,22 -5,4.33334 -2.33333,3 -3,4 -0.66667,1 -0.66667,1.5 -1,2 -0.33333,0.5 -0.83333,0.66666 -1,1 -0.16667,0.33334 0,0.83334 0,1 0,0.16666 0.33333,-0.16666 0,0 -0.33333,0.16666 -1.66667,0.66666 -2,1 -0.33333,0.33334 0,0.66666 0,1 0,0.33334 0,0.66666 0,1 0,0.33334 0,0.66666 0,1 0,0.33334 0.16667,0.66666 0,1 -0.16667,0.33334 -0.83333,0.66666 -1,1 -0.16667,0.33334 0,0.66666 0,1 0,0.33334 0.16667,0.5 0,1 -0.16667,0.5 -0.16667,1 -1,2 -0.83333,1 -1.5,1.33334 -4,4 -2.5,2.66666 -8.66667,9.33334 -11,12 -2.33333,2.66666 -2.33333,3.33334 -3,4 -0.66667,0.66666 -0.83333,-0.16666 -1,0 -0.16667,0.16666 0.16667,0.83334 0,1 -0.16667,0.16666 -0.83333,-0.16666 -1,0 -0.16667,0.16666 0,0.5 0,1 0,0.5 0,1.66666 0,2 0,0.33334 0,-0.16666 0,0 0,0.16666 -0.16667,0.5 0,1 0.16667,0.5 0.66667,1.5 1,2 0.33333,0.5 0.83333,0.66666 1,1 0.16667,0.33334 -0.16667,0.66666 0,1 0.16667,0.33334 0.83333,0.66666 1,1 0.16667,0.33334 0,0.66666 0,1 0,0.33334 0,0.83334 0,1 0,0.16666 -0.16667,0 0,0 0.16667,0 0.83333,-0.33334 1,0 0.16667,0.33334 -0.16667,1.5 0,2 0.16667,0.5 0.66667,0.83334 1,1 0.33333,0.16666 0.83333,-0.33334 1,0 0.16667,0.33334 -0.16667,1.66666 0,2 0.16667,0.33334 0.83333,-0.33334 1,0 0.16667,0.33334 -0.16667,1.66666 0,2 0.16667,0.33334 0.83333,-0.33334 1,0 0.16667,0.33334 -0.16667,1.33334 0,2 0.16667,0.66666 0.83333,1.5 1,2 0.16667,0.5 0,0.66666 0,1 0,0.33334 0,0.66666 0,1 0,0.33334 0,0.66666 0,1 0,0.33334 0,0.66666 0,1 0,0.33334 -0.16667,0.66666 0,1 0.16667,0.33334 0.83333,0.5 1,1 0.16667,0.5 0,1.5 0,2 0,0.5 0,0.66666 0,1 0,0.33334 0,0.66666 0,1 0,0.33334 0,0.66666 0,1 0,0.33334 0,0.5 0,1 0,0.5 -0.16667,1.5 0,2 0.16667,0.5 0.83333,0.5 1,1 0.16667,0.5 0,1.5 0,2 0,0.5 0,0.66669 0,1 0,0.33331 0,0.66669 0,1 0,0.33331 0,0.66669 0,1 0,0.33331 0,0.5 0,1 0,0.5 0,1.5 0,2 0,0.5 0,0.66669 0,1 0,0.33331 0.16667,0.66669 0,1 -0.16667,0.33331 -0.83333,0.66669 -1,1 -0.16667,0.33331 0,0.5 0,1 0,0.5 0,1.33331 0,2 0,0.66669 0,1.33331 0,2 0,0.66669 0,1.5 0,2 0,0.5 0,0.5 0,1 0,0.5 0,1.5 0,2 0,0.5 0.16667,0.33331 0,1 -0.16667,0.66669 -0.83333,2.16669 -1,3 -0.16667,0.83331 0.16667,1.33331 0,2 -0.16667,0.66669 -0.83333,1.33331 -1,2 -0.16667,0.66669 0,1.5 0,2 0,0.5 0.16667,0.33331 0,1 -0.16667,0.66669 -0.83333,2.33331 -1,3 -0.16667,0.66669 0.16667,0.33331 0,1 -0.16667,0.66669 -0.83333,2 -1,3 -0.16667,1 0.16667,2.16669 0,3 -0.16667,0.83331 -0.83333,1.33331 -1,2 -0.16667,0.66669 0,1.5 0,2 0,0.5 0,0.5 0,1 0,0.5 0,1.16669 0,2 0,0.83331 -0.16667,2.16669 0,3 0.16667,0.83331 0.83333,1.5 1,2 0.16667,0.5 0,0.33331 0,1 0,0.66669 -0.16667,2 0,3 0.16667,1 0.83333,2.33331 1,3 0.16667,0.66669 -0.16667,0.33331 0,1 0.16667,0.66669 0.83333,2.33331 1,3 0.16667,0.66669 -0.16667,0.33331 0,1 0.16667,0.66669 0.83333,2.33331 1,3 0.16667,0.66669 0,0.33331 0,1 0,0.66669 -0.16667,2.16669 0,3 0.16667,0.83331 0.83333,1.33331 1,2 0.16667,0.66669 -0.16667,1.33331 0,2 0.16667,0.66669 0.83333,1.33331 1,2 0.16667,0.66669 0,1.16669 0,2 0,0.83331 -0.16667,2.33331 0,3 0.16667,0.66669 0.83333,0.5 1,1 0.16667,0.5 0,1.33331 0,2 0,0.66669 -0.16667,1.16669 0,2 0.16667,0.83331 0.83333,2.33331 1,3 0.16667,0.66669 -0.16667,0.16669 0,1 0.16667,0.83331 0.66667,2.83331 1,4 0.33333,1.16669 0.66667,2.16669 1,3 0.33333,0.83331 0.66667,1.5 1,2 0.33333,0.5 0.66667,0.5 1,1 0.33333,0.5 0.66667,1.66669 1,2 0.33333,0.33331 0.83333,-0.33331 1,0 0.16667,0.33331 -0.16667,1.5 0,2 0.16667,0.5 0.83333,0.66669 1,1 0.16667,0.33331 -0.16667,0.5 0,1 0.16667,0.5 0.66667,1.33331 1,2 0.33333,0.66669 0.83333,1.33331 1,2 0.16667,0.66669 -0.16667,1.16669 0,2 0.16667,0.83331 1,2 1,3 0,1 -0.83333,2.16669 -1,3 -0.16667,0.83331 0.16667,1 0,2 -0.16667,1 -0.83333,3 -1,4 -0.16667,1 0.33333,1.16669 0,2 -0.33333,0.83331 -1.66667,1.83331 -2,3 -0.33333,1.16669 0.83333,1.66669 0,4 -0.83333,2.33331 -4,7.83331 -5,10 -1,2.16669 -0.5,2 -1,3 -0.5,1 -1.33333,1.83331 -2,3 -0.66667,1.16669 -1.33333,2.83331 -2,4 -0.66667,1.16669 -1.33333,2 -2,3 -0.66667,1 -1.5,2.16669 -2,3 -0.5,0.83331 0.5,-0.16669 -1,2 -1.5,2.16669 -5.83333,8 -8,11 -2.16667,3 -4,5.33331 -5,7 -1,1.66669 -0.16667,1.66669 -1,3 -0.83333,1.33331 -3.33333,4 -4,5 -0.66667,1 0,0.66669 0,1 0,0.33331 0.16667,0.5 0,1 -0.16667,0.5 -0.83333,1.33331 -1,2 -0.16667,0.66669 0.16667,1.16669 0,2 -0.16667,0.83331 -0.83333,2.33331 -1,3 -0.16667,0.66669 0.16667,0.33331 0,1 -0.16667,0.66669 -0.83333,2 -1,3 -0.16667,1 0,2.16669 0,3 0,0.83331 0,1.16669 0,2 0,0.83331 0,1.66669 0,3 0,1.33331 0,3.66669 0,5 0,1.33331 0,2.33331 0,3 0,0.66669 0,0.5 0,1 0,0.5 0,1.66669 0,2 0,0.33331 0,-0.16669 0,0 0,0.16669 0,0.66669 0,1 0,0.33331 0,0.83331 0,1 0,0.16669 0.16667,-0.16669 0,0 -0.16667,0.16669 -0.83333,1 -1,1 -0.16667,0 0,-0.66669 0,-1 0,-0.33331 0,-0.66669 0,-1 0,-0.33331 0,-0.5 0,-1 0,-0.5 0.16667,-1.66669 0,-2 -0.16667,-0.33331 -0.83333,0.33331 -1,0 -0.16667,-0.33331 0.33333,-1.33331 0,-2 -0.33333,-0.66669 -1.5,-1.16669 -2,-2 -0.5,-0.83331 -0.83333,-2.16669 -1,-3 -0.16667,-0.83331 0.16667,-1 0,-2 -0.16667,-1 -0.66667,-3 -1,-4 -0.33333,-1 -0.66667,-1.33331 -1,-2 -0.33333,-0.66669 -0.83333,-1.5 -1,-2 -0.16667,-0.5 0.16667,-0.66669 0,-1 -0.16667,-0.33331 -0.83333,-0.83331 -1,-1 -0.16667,-0.16669 0,-0.16669 0,0 0,0.16669 0,0.83331 0,1 0,0.16669 0.16667,0 0,0 -0.16667,0 -0.83333,0 -1,0 -0.16667,0 0,-0.16669 0,0 0,0.16669 0.16667,0.83331 0,1 -0.16667,0.16669 -0.66667,-0.16669 -1,0 -0.33333,0.16669 -0.66667,0.66669 -1,1 -0.33333,0.33331 -0.33333,0.5 -1,1 -0.66667,0.5 -2.33333,1.66669 -3,2 -0.66667,0.33331 -0.33333,-0.33331 -1,0 -0.66667,0.33331 -2.16667,1.5 -3,2 -0.83333,0.5 -0.83333,0.33331 -2,1 -1.16667,0.66669 -3.83333,2.5 -5,3 -1.16667,0.5 -1.5,0 -2,0 -0.5,0 -1,0 -1,0 0,0 0.66667,0.16669 1,0 0.33333,-0.16669 0.83333,-0.66669 1,-1 0.16667,-0.33331 -0.16667,-0.66669 0,-1 0.16667,-0.33331 0.66667,-0.5 1,-1 0.33333,-0.5 -0.5,-0.16669 1,-2 1.5,-1.83331 6,-6.5 8,-9 2,-2.5 2.83333,-4.33331 4,-6 1.16667,-1.66669 2.33333,-3 3,-4 0.66667,-1 0.66667,-1.5 1,-2 0.33333,-0.5 0.5,-0.5 1,-1 0.5,-0.5 1.5,-1.16669 2,-2 0.5,-0.83331 0.66667,-2.33331 1,-3 0.33333,-0.66669 0.66667,-0.5 1,-1 0.33333,-0.5 0.66667,-1.33331 1,-2 0.33333,-0.66669 0.5,-1.33331 1,-2 0.5,-0.66669 1.33333,-1.16669 2,-2 0.66667,-0.83331 1.5,-2.33331 2,-3 0.5,-0.66669 0.66667,-0.33331 1,-1 0.33333,-0.66669 0.66667,-2.33331 1,-3 0.33333,-0.66669 0.66667,-0.5 1,-1 0.33333,-0.5 0.66667,-1.33331 1,-2 0.33333,-0.66669 0.83333,-1.5 1,-2 0.16667,-0.5 -0.16667,-0.66669 0,-1 0.16667,-0.33331 0.66667,-0.5 1,-1 0.33333,-0.5 0.83333,-1.5 1,-2 0.16667,-0.5 -0.16667,-0.5 0,-1 0.16667,-0.5 0.83333,-1.5 1,-2 0.16667,-0.5 -0.16667,-0.5 0,-1 0.16667,-0.5 0.83333,-1.33331 1,-2 0.16667,-0.66669 -0.16667,-1.33331 0,-2 0.16667,-0.66669 0.83333,-1.33331 1,-2 0.16667,-0.66669 0,-1.33331 0,-2 0,-0.66669 -0.16667,-1.5 0,-2 0.16667,-0.5 0.66667,-0.33331 1,-1 0.33333,-0.66669 0.83333,-2.33331 1,-3 0.16667,-0.66669 0,-0.5 0,-1 0,-0.5 0,-1.5 0,-2 0,-0.5 0,-0.66669 0,-1 0,-0.33331 0,-0.5 0,-1 0,-0.5 0,-1.33331 0,-2 0,-0.66669 0,-1.33331 0,-2 0,-0.66669 0,-1.5 0,-2 0,-0.5 0,-0.5 0,-1 0,-0.5 0.16667,-1.33331 0,-2 -0.16667,-0.66669 -0.83333,-1.5 -1,-2 -0.16667,-0.5 0.16667,-0.66669 0,-1 -0.16667,-0.33331 -0.66667,-0.66669 -1,-1 -0.33333,-0.33331 -0.83333,-0.5 -1,-1 -0.16667,-0.5 0.16667,-1.66669 0,-2 -0.16667,-0.33331 -0.66667,0.33331 -1,0 -0.33333,-0.33331 -0.66667,-1.5 -1,-2 -0.33333,-0.5 -0.66667,-0.66669 -1,-1 -0.33333,-0.33331 -0.83333,-0.66669 -1,-1 -0.16667,-0.33331 0.16667,-0.66669 0,-1 -0.16667,-0.33331 -0.66667,-0.66669 -1,-1 -0.33333,-0.33331 -0.5,-0.33331 -1,-1 -0.5,-0.66669 -1.33333,-2.33331 -2,-3 -0.66667,-0.66669 -1.66667,-0.66669 -2,-1 -0.33333,-0.33331 0.33333,-0.33331 0,-1 -0.33333,-0.66669 -1.5,-2.16669 -2,-3 -0.5,-0.83331 -0.83333,-1.16669 -1,-2 -0.16667,-0.83331 0,-2 0,-3 0,-1 -0.16667,-1.83331 0,-3 0.16667,-1.16669 0.66667,-3 1,-4 0.33333,-1 1,-1.5 1,-2 0,-0.5 -0.83333,-0.5 -1,-1 -0.16667,-0.5 0.33333,-1.33331 0,-2 -0.33333,-0.66669 -1.66667,-1.33331 -2,-2 -0.33333,-0.66669 0.16667,-1.5 0,-2 -0.16667,-0.5 -0.66667,-0.5 -1,-1 -0.33333,-0.5 -0.66667,-1.33331 -1,-2 -0.33333,-0.66669 -0.66667,-1.33331 -1,-2 -0.33333,-0.66669 -0.66667,-1.5 -1,-2 -0.33333,-0.5 -0.5,-0.5 -1,-1 -0.5,-0.5 -1.5,-1.33331 -2,-2 -0.5,-0.66669 -0.66667,-1.33331 -1,-2 -0.33333,-0.66669 -0.83333,-1.5 -1,-2 -0.16667,-0.5 0.33333,-0.33331 0,-1 -0.33333,-0.66669 -1.66667,-2.33331 -2,-3 -0.33333,-0.66669 0.16667,-0.5 0,-1 -0.16667,-0.5 -0.83333,-1.5 -1,-2 -0.16667,-0.5 0,-0.5 0,-1 0,-0.5 0.16667,-1.33331 0,-2 -0.16667,-0.66669 -0.83333,-1.5 -1,-2 -0.16667,-0.5 0,-0.66669 0,-1 0,-0.33331 -0.16667,-0.66669 0,-1 0.16667,-0.33331 0.83333,-0.66669 1,-1 0.16667,-0.33331 -0.33333,-0.16669 0,-1 0.33333,-0.83331 1.5,-3 2,-4 0.5,-1 0.66667,-1.66669 1,-2 0.33333,-0.33331 0.83333,0.16669 1,0 0.16667,-0.16669 0,-0.83331 0,-1 0,-0.16669 0,0 0,0 l 0,0 c 0,0 0,-0.16669 0,0 0,0.16669 0,0.83331 0,1 0,0.16669 0,0 0,0 0,0 0,-0.16669 0,0 0,0.16669 0.16667,0.66669 0,1 -0.16667,0.33331 -0.83333,0.33331 -1,1 -0.16667,0.66669 0.16667,2.16669 0,3 -0.16667,0.83331 -0.66667,1.33331 -1,2 -0.33333,0.66669 -0.66667,1.33331 -1,2 -0.33333,0.66669 -0.83333,1.16669 -1,2 -0.16667,0.83331 0,2.33331 0,3 0,0.66669 0,0.5 0,1 0,0.5 0,1.5 0,2 0,0.5 0,0.66669 0,1 0,0.33331 0,0.66669 0,1 0,0.33331 -0.16667,0.83331 0,1 0.16667,0.16669 0.83333,-0.16669 1,0 0.16667,0.16669 0,0.66669 0,1 0,0.33331 0,0.83331 0,1 0,0.16669 0,0 0,0 0,0 0,-0.16669 0,0 0,0.16669 0,0.66669 0,1 0,0.33331 0.16667,0.5 0,1 -0.16667,0.5 -0.83333,1.5 -1,2 -0.16667,0.5 0.16667,0.5 0,1 -0.16667,0.5 -0.5,1.5 -1,2 -0.5,0.5 -1.5,0.83331 -2,1 -0.5,0.16669 -0.5,-0.16669 -1,0 -0.5,0.16669 -1.66667,0.66669 -2,1 -0.33333,0.33331 0.16667,0.83331 0,1 -0.16667,0.16669 -0.83333,-0.16669 -1,0 -0.16667,0.16669 0,0.83331 0,1 0,0.16669 0.16667,0 0,0 -0.16667,0 -0.66667,-0.16669 -1,0 -0.33333,0.16669 -0.66667,0.83331 -1,1 -0.33333,0.16669 -0.83333,-0.16669 -1,0 -0.16667,0.16669 0.33333,0.66669 0,1 -0.33333,0.33331 -1.5,0.66669 -2,1 -0.5,0.33331 -0.33333,0.5 -1,1 -0.66667,0.5 -2.33333,1.5 -3,2 -0.66667,0.5 -0.66667,0.66669 -1,1 -0.33333,0.33331 -0.66667,0.83331 -1,1 -0.33333,0.16669 -0.83333,-0.16669 -1,0 -0.16667,0.16669 0.33333,0.5 0,1 -0.33333,0.5 -1.5,1.5 -2,2 -0.5,0.5 -0.66667,0.66669 -1,1 -0.33333,0.33331 -0.5,0.66669 -1,1 -0.5,0.33331 -1.5,0.66669 -2,1 -0.5,0.33331 -0.66667,0.5 -1,1 -0.33333,0.5 -0.66667,1.5 -1,2 -0.33333,0.5 -0.66667,0.5 -1,1 -0.33333,0.5 -0.66667,1.66669 -1,2 -0.33333,0.33331 -0.83333,-0.33331 -1,0 -0.16667,0.33331 0.16667,1.5 0,2 -0.16667,0.5 -0.83333,0.66669 -1,1 -0.16667,0.33331 0,0.66669 0,1 0,0.33331 0.16667,0.5 0,1 -0.16667,0.5 -0.83333,1.33331 -1,2 -0.16667,0.66669 0.33333,1.33331 0,2 -0.33333,0.66669 -1.33333,1.16669 -2,2 -0.66667,0.83331 -1.5,2.16669 -2,3 -0.5,0.83331 -0.66667,1.16669 -1,2 -0.33333,0.83331 -0.5,2.16669 -1,3 -0.5,0.83331 -1.33333,1.16669 -2,2 -0.66667,0.83331 -1.16667,2 -2,3 -0.83333,1 -2.33333,2.16669 -3,3 -0.66667,0.83331 -0.5,1.16669 -1,2 -0.5,0.83331 -1.33333,2.16669 -2,3 -0.66667,0.83331 -1.16667,1.33331 -2,2 -0.83333,0.66669 -2,1.16669 -3,2 -1,0.83331 -2.16667,2.16669 -3,3 -0.83333,0.83331 -1.16667,1.33331 -2,2 -0.83333,0.66669 -2.33333,1.5 -3,2 -0.66666,0.5 -0.66666,0.5 -1,1 -0.33334,0.5 -0.66666,1.5 -1,2 -0.33334,0.5 -0.33334,0.5 -1,1 -0.66666,0.5 -2.16666,1.16669 -3,2 -0.83334,0.83331 -1.33334,2.16669 -2,3 -0.66666,0.83331 -1.33334,1.33331 -2,2 -0.66666,0.66669 -1.16666,1.33331 -2,2 -0.83334,0.66669 -2.16666,1.33331 -3,2 -0.83334,0.66669 -1.16666,1.16669 -2,2 -0.83334,0.83331 -2.16666,2.33331 -3,3 -0.83334,0.66669 -1.33334,0.5 -2,1 -0.66666,0.5 -1.33334,1.66669 -2,2 -0.66666,0.33331 -1.16666,-0.33331 -2,0 -0.83334,0.33331 -1.66666,1 -3,2 -1.333336,1 -3.166664,2.66669 -5,4 -1.833336,1.33331 -4,2.5 -6,4 -2,1.5 -4.166664,3.83331 -6,5 -1.833336,1.16669 -3.166664,1 -5,2 -1.833336,1 -4.5,3.16669 -6,4 -1.5,0.83331 -1.5,0.16669 -3,1 -1.5,0.83331 -3.833336,1.83331 -6,4 -2.166668,2.16669 -5.166668,7.16669 -7,9 -1.833332,1.83331 -3.333332,1.33331 -4,2 -0.666668,0.66669 0.333332,1.16669 0,2 -0.333332,0.83331 -1.5,2.33331 -2,3 -0.5,0.66669 -0.833332,0.83331 -1,1 -0.166668,0.16669 0,0 0,0 l 0,0 0,0 0,0 c 0,0 0.166668,0 0,0 -0.166668,0 -0.833332,0 -1,0 -0.166668,0 0,0 0,0 l 0,0 0,0 c 0,0 0.166668,0 0,0 -0.166668,0 -0.666668,0 -1,0 -0.333332,0 -0.833332,0 -1,0 -0.166668,0 0,-0.16669 0,0 0,0.16669 0,0.83331 0,1 0,0.16669 0.166668,-0.16669 0,0 -0.166668,0.16669 -0.833332,0.83331 -1,1 -0.166668,0.16669 0,0 0,0 0,0 0,-0.16669 0,0 0,0.16669 0.166668,0.66669 0,1 -0.166668,0.33331 -0.666668,0.83331 -1,1 -0.333332,0.16669 -0.5,-0.66669 -1,0 -0.5,0.66669 -1.5,3.16669 -2,4 -0.5,0.83331 -0.833332,0.83331 -1,1 -0.166668,0.16669 0,-0.33331 0,0 0,0.33331 0.166668,1.5 0,2 -0.166668,0.5 -0.666668,0.5 -1,1 -0.333332,0.5 -0.666668,1.33331 -1,2 -0.333332,0.66669 -0.666668,1.33331 -1,2 -0.333332,0.66669 -0.666668,1 -1,2 -0.333332,1 -0.666668,2.83331 -1,4 -0.333332,1.16669 -0.833332,2.33331 -1,3 -0.166668,0.66669 0,0.66669 0,1 0,0.33331 0,0.83331 0,1 0,0.16669 0.166668,-0.16669 0,0 -0.166668,0.16669 -0.833332,0.5 -1,1 -0.166666,0.5 0.166668,1.66669 0,2 -0.166666,0.33331 -0.833334,-0.16669 -1,0 -0.166666,0.16669 0,0.83331 0,1 0,0.16669 0,0 0,0 0,0 0,0.16669 0,0 0,-0.16669 0,-0.83331 0,-1 0,-0.16669 0,0 0,0 l 0,0 0,0 c 0,0 0,-0.16669 0,0 0,0.16669 0,1 0,1 0,0 0,-0.83331 0,-1 0,-0.16669 0,-0.16669 0,0 0,0.16669 0,0.83331 0,1 0,0.16669 0.166666,0.16669 0,0 -0.166666,-0.16669 -0.833334,-0.83331 -1,-1 -0.166666,-0.16669 0,0 0,0 l 0,0 0,0 c 0,0 0,0.16669 0,0 0,-0.16669 0,-0.83331 0,-1 0,-0.16669 0,0 0,0 l 0,0 0,0 0,0 c 0,0 0,0.16669 0,0 0,-0.16669 0,-0.66669 0,-1 0,-0.33331 0,-0.5 0,-1 0,-0.5 -0.166666,-1 0,-2 0.166666,-1 0.833334,-3 1,-4 0.166666,-1 0,-1.16669 0,-2 0,-0.83331 0.166666,-2.33331 0,-3 -0.166666,-0.66669 -0.833334,-0.5 -1,-1 -0.166666,-0.5 0.166666,-1.16669 0,-2 -0.166666,-0.83331 -0.666666,-2 -1,-3 -0.333334,-1 -0.833334,-2.33331 -1,-3 -0.166666,-0.66669 0.166666,-0.66669 0,-1 -0.166666,-0.33331 -0.833334,-0.5 -1,-1 -0.166666,-0.5 0.166666,-1.5 0,-2 -0.166666,-0.5 -0.833334,-0.66669 -1,-1 -0.166666,-0.33331 0.166666,-0.66669 0,-1 -0.166666,-0.33331 -0.666666,-0.66669 -1,-1 -0.333334,-0.33331 -0.833334,-0.66669 -1,-1 -0.166666,-0.33331 0.166666,-0.5 0,-1 -0.166666,-0.5 -0.833334,-1.5 -1,-2 -0.166666,-0.5 0,-0.5 0,-1 0,-0.5 0,-1.5 0,-2 0,-0.5 0,-0.66669 0,-1 0,-0.33331 0,-0.5 0,-1 0,-0.5 -0.166666,-1.5 0,-2 0.166666,-0.5 0.833334,-0.66669 1,-1 0.166666,-0.33331 0,-0.83331 0,-1 0,-0.16669 -0.166666,0 0,0 0.166666,0 0.5,0.16669 1,0 0.5,-0.16669 1.5,-0.83331 2,-1 0.5,-0.16669 0.666666,0 1,0 0.333334,0 0.666666,0 1,0 0.333334,0 0.666666,0.16669 1,0 0.333334,-0.16669 0.666666,-0.83331 1,-1 0.333334,-0.16669 0.5,0 1,0 0.5,0 1.5,0.16669 2,0 0.5,-0.16669 0.5,-0.83331 1,-1 0.5,-0.16669 1.166668,0.33331 2,0 0.833332,-0.33331 2.333332,-1.66669 3,-2 0.666668,-0.33331 -0.333332,0.83331 1,0 1.333332,-0.83331 5.5,-3.83331 7,-5 1.5,-1.16669 1.333332,-1.16669 2,-2 0.666668,-0.83331 1.333332,-2.16669 2,-3 0.666668,-0.83331 1.5,-1.5 2,-2 0.5,-0.5 0.5,-0.33331 1,-1 0.5,-0.66669 1.5,-2.16669 2,-3 0.5,-0.83331 0.666668,-1.33331 1,-2 0.333332,-0.66669 0.5,-1.33331 1,-2 0.5,-0.66669 1.666668,-1.5 2,-2 0.333332,-0.5 -0.333332,-0.5 0,-1 0.333332,-0.5 1.5,-1.5 2,-2 0.5,-0.5 0.5,-0.33331 1,-1 0.5,-0.66669 1.5,-2.33331 2,-3 0.5,-0.66669 0.666664,-0.66669 1,-1 0.333336,-0.33331 0.5,-0.5 1,-1 0.5,-0.5 1.166664,-1.16669 2,-2 0.833336,-0.83331 1.833336,-2.16669 3,-3 1.166664,-0.83331 3.166664,-1.33331 4,-2 0.833336,-0.66669 0.666664,-1.5 1,-2 0.333336,-0.5 0.666664,-0.66669 1,-1 0.333336,-0.33331 0.333336,-0.66669 1,-1 0.666664,-0.33331 2.166664,-0.66669 3,-1 0.833336,-0.33331 1.333336,-0.66669 2,-1 0.666664,-0.33331 1.5,-0.83331 2,-1 0.5,-0.16669 0.666664,0.33331 1,0 0.333336,-0.33331 0.5,-1.66669 1,-2 0.5,-0.33331 1.166664,0.5 2,0 0.833336,-0.5 2.333336,-2.5 3,-3 0.666664,-0.5 0.5,0.16669 1,0 0.5,-0.16669 1.666664,-0.66669 2,-1 0.333336,-0.33331 -0.166664,-0.66669 0,-1 0.166664,-0.33331 0.833336,-0.5 1,-1 0.166664,-0.5 -0.333336,-1.16669 0,-2 0.333336,-0.83331 1.333336,-2.16669 2,-3 0.66666,-0.83331 1.5,-1.16669 2,-2 0.5,-0.83331 0.66666,-2.33331 1,-3 0.33334,-0.66669 0.66666,-0.33331 1,-1 0.33334,-0.66669 0.83334,-2.33331 1,-3 0.16666,-0.66669 -0.16666,-0.33331 0,-1 0.16666,-0.66669 0.66666,-2.33331 1,-3 0.33334,-0.66669 0.5,-0.33331 1,-1 0.5,-0.66669 1.5,-2.16669 2,-3 0.5,-0.83331 0.66666,-1.5 1,-2 0.33334,-0.5 0.5,-0.5 1,-1 0.5,-0.5 1.33334,-1.16669 2,-2 0.66666,-0.83331 1.5,-2.33331 2,-3 0.5,-0.66669 0.66666,-0.66669 1,-1 0.33334,-0.33331 0.5,-0.66669 1,-1 0.5,-0.33331 1.33334,-0.66669 2,-1 0.66666,-0.33331 1.16666,-0.5 2,-1 0.83334,-0.5 2.33334,-1.33331 3,-2 0.66666,-0.66669 0.66666,-1.5 1,-2 0.33334,-0.5 0.33334,-0.5 1,-1 0.66666,-0.5 2,-1 3,-2 1,-1 2.33333,-3.16669 3,-4 0.66667,-0.83331 0,0 1,-1 1,-1 4,-4 5,-5 1,-1 0.5,-0.5 1,-1 0.5,-0.5 1.5,-1.5 2,-2 0.5,-0.5 0.5,-0.66669 1,-1 0.5,-0.33331 1.5,-0.33331 2,-1 0.5,-0.66669 0.5,-2.16669 1,-3 0.5,-0.83331 1.5,-1.5 2,-2 0.5,-0.5 0.66667,-0.5 1,-1 0.33333,-0.5 0.66667,-1.33331 1,-2 0.33333,-0.66669 0.66667,-1.16669 1,-2 0.33333,-0.83331 0.83333,-2.33331 1,-3 0.16667,-0.66669 -0.33333,-0.5 0,-1 0.33333,-0.5 1.66667,-1.5 2,-2 0.33333,-0.5 -0.5,-0.16669 0,-1 0.5,-0.83331 2.33333,-3 3,-4 0.66667,-1 0.83333,-1.5 1,-2 0.16667,-0.5 -0.16667,-0.66669 0,-1 0.16667,-0.33331 0.66667,-0.66669 1,-1 0.33333,-0.33331 0.66667,-0.33331 1,-1 0.33333,-0.66669 0.66667,-2.5 1,-3 0.33333,-0.5 0.83333,0.66669 1,0 0.16667,-0.66669 0,-2.5 0,-4 0,-1.5 0,-4 0,-5 0,-1 0,-0.33331 0,-1 0,-0.66669 0,-2.33331 0,-3 0,-0.66669 0,-0.66669 0,-1 0,-0.33331 -0.16667,-0.5 0,-1 0.16667,-0.5 0.83333,-1.33331 1,-2 0.16667,-0.66669 -0.33333,-1.5 0,-2 0.33333,-0.5 1.5,-0.83331 2,-1 0.5,-0.16669 0.66667,0.16669 1,0 0.33333,-0.16669 0.66667,-0.66669 1,-1 0.33333,-0.33331 0.83333,-0.66669 1,-1 0.16667,-0.33331 -0.16667,-0.66669 0,-1 0.16667,-0.33331 0.83333,-0.66669 1,-1 0.16667,-0.33331 -0.16667,-0.66669 0,-1 0.16667,-0.33331 0.83333,-0.5 1,-1 0.16667,-0.5 0,-1.5 0,-2 0,-0.5 0,-0.33331 0,-1 0,-0.66669 -0.16667,-2.16669 0,-3 0.16667,-0.83331 0.83333,-1.16669 1,-2 0.16667,-0.83331 0,-2.16669 0,-3 0,-0.83331 0,-1.5 0,-2 0,-0.5 0,-0.5 0,-1 0,-0.5 0,-1.5 0,-2 0,-0.5 0.16667,-0.66669 0,-1 -0.16667,-0.33331 -0.83333,-0.5 -1,-1 -0.16667,-0.5 0,-1.5 0,-2 0,-0.5 0.16667,-0.33331 0,-1 -0.16667,-0.66669 -0.83333,-2.16669 -1,-3 -0.16667,-0.83331 0.16667,-1.33334 0,-2 -0.16667,-0.66666 -0.66667,-1.33334 -1,-2 -0.33333,-0.66666 -0.5,-1.16666 -1,-2 -0.5,-0.83334 -1.5,-2.33334 -2,-3 -0.5,-0.66666 -0.83333,-0.66666 -1,-1 -0.16667,-0.33334 0.16667,-0.66666 0,-1 -0.16667,-0.33334 -0.83333,-0.66666 -1,-1 -0.16667,-0.33334 0.16667,-0.66666 0,-1 -0.16667,-0.33334 -0.66667,-0.66666 -1,-1 -0.33333,-0.33334 -0.66667,-0.5 -1,-1 -0.33333,-0.5 -0.83333,-1.5 -1,-2 -0.16667,-0.5 0.16667,-0.66666 0,-1 -0.16667,-0.33334 -0.66667,-0.5 -1,-1 -0.33333,-0.5 -0.66667,-1.66666 -1,-2 -0.33333,-0.33334 -0.83333,0.33334 -1,0 -0.16667,-0.33334 0.16667,-1.66666 0,-2 -0.16667,-0.33334 -0.83333,0.16666 -1,0 -0.16667,-0.16666 0,-0.66666 0,-1 0,-0.33334 0.16667,-0.83334 0,-1 -0.16667,-0.16666 -0.83333,0.33334 -1,0 -0.16667,-0.33334 0.16667,-1.5 0,-2 -0.16667,-0.5 -0.83333,-0.66666 -1,-1 -0.16667,-0.33334 0.16667,-0.5 0,-1 -0.16667,-0.5 -0.83333,-1.5 -1,-2 -0.16667,-0.5 0.16667,-0.33334 0,-1 -0.16667,-0.66666 -0.66667,-2.16666 -1,-3 -0.33333,-0.83334 -0.83333,-1.5 -1,-2 -0.16667,-0.5 0.16667,-0.33334 0,-1 -0.16667,-0.66666 -0.66667,-2.33334 -1,-3 -0.33333,-0.66666 -0.66667,-0.5 -1,-1 -0.33333,-0.5 -0.66667,-1.16666 -1,-2 -0.33333,-0.83334 -0.66667,-2.33334 -1,-3 -0.33333,-0.66666 -0.5,-0.33334 -1,-1 -0.5,-0.66666 -1.33333,-2.33334 -2,-3 -0.66667,-0.66666 -1.16667,-0.33334 -2,-1 -0.83333,-0.66666 -2.16667,-2.16666 -3,-3 -0.83333,-0.83334 -1.33333,-1.33334 -2,-2 -0.66667,-0.66666 -0.83333,-1 -2,-2 -1.16667,-1 -3.66667,-3.16666 -5,-4 -1.33334,-0.83334 -1.83334,0 -3,-1 -1.16666,-1 -1.66666,-2 -4,-5 -2.33334,-3 -7,-8.66666 -10,-13 -3,-4.33334 -6.33334,-10 -8,-13 -1.66666,-3 -1.33334,-3.66666 -2,-5 -0.66666,-1.33334 -1.66666,-2.33334 -2,-3 -0.333336,-0.66666 0.16666,-0.5 0,-1 -0.166664,-0.5 -0.833336,-1.5 -1,-2 -0.166664,-0.5 0.166664,-0.5 0,-1 -0.166664,-0.5 -0.833336,-1.5 -1,-2 -0.166664,-0.5 0,-0.66666 0,-1 0,-0.33334 0,-0.66666 0,-1 0,-0.33334 0.166664,-0.33334 0,-1 -0.166664,-0.66666 -0.833336,-2.33334 -1,-3 -0.166664,-0.66666 0,-0.5 0,-1 0,-0.5 0.166664,-1.16666 0,-2 -0.166664,-0.83334 -0.666664,-2.33334 -1,-3 -0.333336,-0.66666 -0.833336,-0.5 -1,-1 -0.166664,-0.5 0.166664,-1.5 0,-2 -0.166664,-0.5 -0.833336,-0.5 -1,-1 -0.166664,-0.5 0.166664,-1.33334 0,-2 -0.166664,-0.66666 -0.833336,-1.5 -1,-2 -0.166664,-0.5 0.166664,-0.33334 0,-1 -0.166664,-0.66666 -0.5,-2 -1,-3 -0.5,-1 -1.666664,-2.33334 -2,-3 -0.333336,-0.66666 0.166664,-0.33334 0,-1 -0.166664,-0.66666 -0.666664,-2.16666 -1,-3 -0.333336,-0.83334 -0.5,-1.33334 -1,-2 -0.5,-0.66666 -1.5,-1.33334 -2,-2 -0.5,-0.66666 -0.666664,-1.33334 -1,-2 -0.333336,-0.66666 -0.5,-1 -1,-2 -0.5,-1 -1.333336,-3.16666 -2,-4 -0.666664,-0.83334 -1.5,-0.33334 -2,-1 -0.5,-0.66666 -0.5,-2.16666 -1,-3 -0.5,-0.83334 -1.666664,-1.5 -2,-2 -0.333336,-0.5 0.333336,-0.5 0,-1 -0.333336,-0.5 -1.333336,-1.5 -2,-2 -0.666664,-0.5 -1.5,-0.66666 -2,-1 -0.5,-0.33334 -0.666664,-0.66666 -1,-1 -0.333336,-0.33334 -0.666664,-0.66666 -1,-1 -0.333336,-0.33334 -0.5,-0.5 -1,-1 -0.5,-0.5 -1.5,-1.5 -2,-2 -0.5,-0.5 -0.833336,-0.83334 -1,-1 -0.166664,-0.16666 0,0.16666 0,0 0,-0.16666 0,-0.83334 0,-1 0,-0.16666 0.166664,0 0,0 -0.166664,0 -0.666664,0 -1,0 -0.333336,0 -0.833336,0 -1,0 -0.166664,0 0,0 0,0 l 0,0 c 0,0 0,0.16666 0,0 0,-0.16666 0,-0.83334 0,-1 0,-0.16666 0,0 0,0 l 0,0 c 0,0 0.166664,0.16666 0,0 -0.166664,-0.16666 -0.833336,-0.83334 -1,-1 -0.166668,-0.16666 0,0 0,0 l 0,0 0,0 0,0 c 0,0 -0.166668,0 0,0 0.166664,0 0.833336,0 1,0 0.166664,0 0,-0.16666 0,0 0,0.16666 -0.333336,0.83334 0,1 0.333336,0.16666 1.333336,-0.16666 2,0 0.666664,0.16666 1.666664,0.83334 2,1 0.333336,0.16666 0.166664,0 0,0 -0.166664,0 -0.833336,0 -1,0 -0.166664,0 0,0.16666 0,0 0,-0.16666 0.5,-0.16666 0,-1 -0.5,-0.83334 -2.333336,-3.16666 -3,-4 -0.666664,-0.83334 -0.666664,-0.66666 -1,-1 -0.333332,-0.33334 -0.833332,-0.83334 -1,-1 -0.166668,-0.16666 0,0 0,0 0,0 -0.166668,-0.16666 0,0 0.166668,0.16666 0.833332,0.83334 1,1 0.166664,0.16666 -0.666668,-0.33334 0,0 0.666664,0.33334 3,1.5 4,2 1,0.5 1.333336,0.66666 2,1 0.666664,0.33334 1.666664,1 2,1 0.333336,0 0,-0.83334 0,-1 0,-0.16666 0.166664,0 0,0 -0.166664,0 -0.833336,0 -1,0 -0.166664,0 -0.166664,0 0,0 0.166664,0 0.833336,-0.16666 1,0 0.166664,0.16666 -0.333336,0.83334 0,1 0.333336,0.16666 1.5,0 2,0 0.5,0 0.833336,0 1,0 0.166664,0 0,0.16666 0,0 0,-0.16666 0,-0.66666 0,-1 0,-0.33334 0,-0.66666 0,-1 0,-0.33334 0.166664,-0.5 0,-1 -0.166664,-0.5 -0.833336,-1.5 -1,-2 -0.166664,-0.5 -0.166664,-0.5 0,-1 0.166664,-0.5 0.666664,-1.16666 1,-2 0.333336,-0.83334 0.833336,-2.16666 1,-3 0.166664,-0.83334 -0.166664,-1.5 0,-2 0.166664,-0.5 0.833336,-0.33334 1,-1 0.166664,-0.66666 0,-2.33334 0,-3 0,-0.66666 -0.166664,-0.16666 0,-1 0.166664,-0.83334 0.833336,-3 1,-4 0.166664,-1 0,-1.5 0,-2 0,-0.5 0,-0.83334 0,-1 0,-0.16666 -0.166664,0 0,0 0.166664,0 0.833336,0 1,0 0.166664,0 0,0 0,0 0,0 0.166664,0 0,0 -0.166664,0 -0.833336,0 -1,0 -0.166664,0 0,0 0,0 l 0,0 c 0,0 0,-0.16666 0,0 0,0.16666 0,0.83334 0,1 0,0.16666 0,-0.5 0,0 0,0.5 0,1.66666 0,3 0,1.33334 0,3.83334 0,5 0,1.16666 -0.166664,1.33334 0,2 0.166664,0.66666 0.833336,1.5 1,2 0.166664,0.5 0,0.83334 0,1 0,0.16666 0,-0.16666 0,0 0,0.16666 -0.166664,1 0,1 0.166664,0 0.833336,-0.83334 1,-1 0.166664,-0.16666 0,0.16666 0,0 0,-0.16666 -0.333336,0 0,-1 0.333336,-1 1.666664,-3.83334 2,-5 0.333336,-1.16666 -0.333336,-1.33334 0,-2 0.333336,-0.66666 1.666664,-1.5 2,-2 0.333336,-0.5 0,-1 0,-1 0,0 0,0.66666 0,1 0,0.33334 0,0.5 0,1 0,0.5 -0.166664,1 0,2 0.166664,1 0.833336,2.83334 1,4 0.166664,1.16666 0,2.33334 0,3 0,0.66666 -0.166664,0.83334 0,1 0.166664,0.16666 0.833336,0.33334 1,0 0.166664,-0.33334 -0.166664,-1.33334 0,-2 0.166664,-0.66666 0.833336,-1.66666 1,-2 0.166664,-0.33334 0,-0.16666 0,0 0,0.16666 -0.166664,0.83334 0,1 0.166664,0.16666 1,-0.5 1,0 0,0.5 -0.833336,2.33334 -1,3 -0.166664,0.66666 -0.166664,0.5 0,1 0.166664,0.5 0.833336,1.5 1,2 0.166664,0.5 0,0.5 0,1 0,0.5 0,1.33334 0,2 0,0.66666 0,1.33334 0,2 0,0.66666 0,1.66666 0,2 0,0.33334 -0.166664,-0.16666 0,0 0.166664,0.16666 0.833336,0.5 1,1 0.166664,0.5 0,1.5 0,2 0,0.5 -0.166664,0.5 0,1 0.166664,0.5 0.833336,1.33334 1,2 0.166664,0.66666 -0.166664,1.5 0,2 0.166664,0.5 0.833336,0.66666 1,1 0.166664,0.33334 -0.166664,0.33334 0,1 0.166664,0.66666 0.666664,2.16666 1,3 0.333336,0.83334 0.666664,1.5 1,2 0.333336,0.5 0.666664,0.66666 1,1 0.333336,0.33334 0.833336,0.66666 1,1 0.166664,0.33334 -0.166664,0.5 0,1 0.166664,0.5 0.666664,1.5 1,2 0.333336,0.5 0.833336,0.66666 1,1 0.166664,0.33334 -0.166664,0.66666 0,1 0.166664,0.33334 0.666664,0.5 1,1 0.333336,0.5 0.666664,1.5 1,2 0.333336,0.5 0.666664,0.83334 1,1 0.33334,0.16666 0.5,-0.5 1,0 0.5,0.5 1.16666,2.16666 2,3 0.83334,0.83334 2,1.16666 3,2 1,0.83334 2.16666,2 3,3 0.83334,1 1.5,2.33334 2,3 0.5,0.66666 0.5,0.5 1,1 0.5,0.5 1.5,1.5 2,2 0.5,0.5 0.33334,0.16666 1,1 0.66666,0.83334 2,2.83334 3,4 1,1.16666 2.16666,2 3,3 0.83334,1 1.5,2.33334 2,3 0.5,0.66666 0.16666,0 1,1 0.83334,1 3.16666,3.83334 4,5 0.83333,1.16666 0.66667,1.16666 1,2 0.33333,0.83334 0.83333,2.33334 1,3 0.16667,0.66666 -0.16667,0.66666 0,1 0.16667,0.33334 0.66667,0.5 1,1 0.33333,0.5 0.83333,1.16666 1,2 0.16667,0.83334 -0.33333,1.83334 0,3 0.33333,1.16666 1.5,2.66666 2,4 0.5,1.33334 0.5,2.66666 1,4 0.5,1.33334 1.5,2.83334 2,4 0.5,1.16666 0.66667,2.33334 1,3 0.33333,0.66666 0.5,0.16666 1,1 0.5,0.83334 1.66667,3.16666 2,4 0.33333,0.83334 -0.33333,0.33334 0,1 0.33333,0.66666 1.33333,2 2,3 0.66667,1 1.5,2.16666 2,3 0.5,0.83334 0.5,1.33334 1,2 0.5,0.66666 1.33333,1.16666 2,2 0.66667,0.83334 1.16667,2.16666 2,3 0.83333,0.83334 2,1.33334 3,2 1,0.66666 2.33333,1.66666 3,2 0.66667,0.33334 0.5,-0.16666 1,0 0.5,0.16666 1.5,0.83334 2,1 0.5,0.16666 0.66667,-0.16666 1,0 0.33333,0.16666 0.66667,0.83334 1,1 0.33333,0.16666 0.66667,-0.16666 1,0 0.33333,0.16666 0.5,0.83334 1,1 0.5,0.16666 1.33333,0 2,0 0.66667,0 1.5,-0.16666 2,0 0.5,0.16666 0.5,0.83334 1,1 0.5,0.16666 1.16293,0.14674 2,0 0.85256,-0.14945 0.82606,1.14774 5.4545,-0.23297 0.50505,-0.15066 0.29355,-3.22153 0.46022,-3.22153 -2.43732,12.43363 -0.20316,-1.41517 -0.53406,1.92044 z"
     id="path0004"
     style="fill:none;stroke:#000000;stroke-opacity:1" />
</svg>
