<?xml version="1.0" encoding="UTF-8" standalone="no"?>
<!-- Created with Inkscape (http://www.inkscape.org/) -->

<svg
   xmlns:dc="http://purl.org/dc/elements/1.1/"
   xmlns:cc="http://creativecommons.org/ns#"
   xmlns:rdf="http://www.w3.org/1999/02/22-rdf-syntax-ns#"
   xmlns:svg="http://www.w3.org/2000/svg"
   xmlns="http://www.w3.org/2000/svg"
   version="1.1"
   width="1024"
   height="768"
   id="svg2">
  <defs
     id="defs4" />
  <metadata
     id="metadata7">
    <rdf:RDF>
      <cc:Work
         rdf:about="">
        <dc:format>image/svg+xml</dc:format>
        <dc:type
           rdf:resource="http://purl.org/dc/dcmitype/StillImage" />
        <dc:title></dc:title>
      </cc:Work>
    </rdf:RDF>
  </metadata>
  <path
     d="m 105,54 c 0.41667,-0.08334 0.83334,-0.166668 1,0 0.16666,0.166668 -0.16666,0.833332 0,1 0.16666,0.166668 0.83334,-0.166668 1,0 0.16666,0.166668 -0.16666,0.833332 0,1 0.16666,0.166668 0.83334,-0.166668 1,0 0.16666,0.166668 -0.16666,0.833332 0,1 0.16666,0.166668 0.83334,-0.166668 1,0 0.16666,0.166668 0,0.666668 0,1 0,0.333332 -0.16666,0.833332 0,1 0.16666,0.166668 0.83334,-0.166668 1,0 0.16666,0.166668 -0.16666,0.833332 0,1 0.16666,0.166668 0.83334,-0.166668 1,0 0.16666,0.166668 -0.16666,0.666668 0,1 0.16666,0.333332 0.83334,0.666668 1,1 0.16666,0.333332 -0.16666,0.833332 0,1 0.16666,0.166668 0.83334,-0.166668 1,0 0.16666,0.166668 0,0.666668 0,1 0,0.333336 -0.16666,0.833336 0,1 0.16666,0.166664 0.83334,-0.166664 1,0 0.16666,0.166664 0,0.666664 0,1 0,0.333336 -0.16666,0.666664 0,1 0.16666,0.333336 0.83334,0.666664 1,1 0.16666,0.333336 0,0.666664 0,1 0,0.333336 0,0.666664 0,1 0,0.333336 -0.16666,0.833336 0,1 0.16666,0.166664 0.83334,-0.166664 1,0 0.16666,0.166664 0,0.666664 0,1 0,0.333336 0,0.666664 0,1 0,0.333336 0,0.666664 0,1 0,0.333336 -0.16666,0.666664 0,1 0.16666,0.333336 0.83334,0.666664 1,1 0.16666,0.333336 0,0.666664 0,1 0,0.333336 0,0.666664 0,1 0,0.333336 0,0.666664 0,1 0,0.333336 0,0.666664 0,1 0,0.333336 0,0.666664 0,1 0,0.333336 -0.16666,0.666664 0,1 0.16666,0.333336 0.83334,0.666664 1,1 0.16666,0.333336 0,0.666664 0,1 0,0.333336 -0.16666,0.666664 0,1 0.16666,0.333336 0.83334,0.666664 1,1 0.16666,0.333336 0,0.666664 0,1 0,0.333336 -0.16666,0.666664 0,1 0.16666,0.333336 0.83334,0.666664 1,1 0.16666,0.333336 0,0.666664 0,1 0,0.333336 -0.16666,0.666664 0,1 0.16666,0.333336 0.83334,0.666664 1,1 0.16666,0.333336 0,0.666664 0,1 0,0.333336 -0.16666,0.666664 0,1 0.16666,0.333336 0.83334,0.666664 1,1 0.16666,0.333336 -0.16666,0.666664 0,1 0.16666,0.333336 0.66666,0.833336 1,1 0.33334,0.166664 0.83334,-0.166664 1,0 0.16666,0.166664 -0.16666,0.666664 0,1 0.16666,0.333336 0.66666,0.666664 1,1 0.33334,0.333336 0.66666,0.666664 1,1 0.33334,0.33334 0.83334,0.66666 1,1 0.16666,0.33334 -0.16666,0.66666 0,1 0.16666,0.33334 0.66666,0.66666 1,1 0.33333,0.33334 0.83333,0.66666 1,1 0.16667,0.33334 -0.16667,0.83334 0,1 0.16667,0.16666 0.83333,-0.16666 1,0 0.16667,0.16666 -0.16667,0.83334 0,1 0.16667,0.16666 0.83333,-0.16666 1,0 0.16667,0.16666 -0.16667,0.83334 0,1 0.16667,0.16666 0.83333,-0.16666 1,0 0.16667,0.16666 0,0.66666 0,1 0,0.33334 -0.16667,0.83334 0,1 0.16667,0.16666 1,0 1,0 0,0 -1,0 -1,0 0,0 0.66667,-0.16666 1,0 0.33333,0.16666 0.66667,0.83334 1,1 0.33333,0.16666 0.83333,-0.16666 1,0 0.16667,0.16666 -0.16667,0.66666 0,1 0.16667,0.33334 0.66667,0.66666 1,1 0.33333,0.33334 0.66667,0.66666 1,1 0.33333,0.33334 0.66667,0.66666 1,1 0.33333,0.33334 0.66667,0.66666 1,1 0.33333,0.33334 0.83333,0.66666 1,1 0.16667,0.33334 -0.16667,0.83334 0,1 0.16667,0.16666 0.83333,-0.16666 1,0 0.16667,0.16666 0,0.66666 0,1 0,0.33334 -0.16667,0.83334 0,1 0.16667,0.16666 0.83333,-0.16666 1,0 0.16667,0.16666 0,0.66666 0,1 0,0.33334 0,0.66666 0,1 0,0.33334 -0.16667,0.83334 0,1 0.16667,0.16666 0.83333,-0.16666 1,0 0.16667,0.16666 0,0.66666 0,1 0,0.33334 -0.16667,0.66666 0,1 0.16667,0.33334 0.83333,0.66666 1,1 0.16667,0.33334 -0.16667,0.66666 0,1 0.16667,0.33334 0.66667,0.66666 1,1 0.33333,0.33334 0.83333,0.66666 1,1 0.16667,0.33333 0,0.66667 0,1 0,0.33333 -0.16667,0.83333 0,1 0.16667,0.16667 0.83333,-0.16667 1,0 0.16667,0.16667 0,0.66667 0,1 0,0.33333 -0.16667,0.83333 0,1 0.16667,0.16667 0.83333,-0.16667 1,0 0.16667,0.16667 0,0.66667 0,1 0,0.33333 -0.16667,0.66667 0,1 0.16667,0.33333 0.83333,0.66667 1,1 0.16667,0.33333 -0.16667,0.66667 0,1 0.16667,0.33333 0.83333,0.66667 1,1 0.16667,0.33333 -0.16667,0.83333 0,1 0.16667,0.16667 0.66667,0 1,0 0.33333,0 0.83333,-0.16667 1,0 0.16667,0.16667 -0.16667,1 0,1 0.16667,0 0.66667,-0.83333 1,-1 0.33333,-0.16667 0.66667,0 1,0 0.33333,0 0.66667,0 1,0 0.33333,0 0.66667,0 1,0 0.33333,0 0.83333,0.16667 1,0 0.16667,-0.16667 -0.16667,-0.83333 0,-1 0.16667,-0.16667 0.83333,0.16667 1,0 0.16667,-0.16667 -0.16667,-0.83333 0,-1 0.16667,-0.16667 0.66667,0.16667 1,0 0.33333,-0.16667 0.83333,-0.66667 1,-1 0.16667,-0.33333 -0.16667,-0.83333 0,-1 0.16667,-0.16667 0.83333,0.16667 1,0 0.16667,-0.16667 -0.16667,-0.66667 0,-1 0.16667,-0.33333 0.66667,-0.83333 1,-1 0.33333,-0.16667 0.83333,0.16667 1,0 0.16667,-0.16667 -0.16667,-0.66667 0,-1 0.16667,-0.33333 0.83333,-0.66667 1,-1 0.16667,-0.33333 -0.16667,-0.83333 0,-1 0.16667,-0.16667 0.83333,0.16667 1,0 0.16667,-0.16667 0,-0.66667 0,-1 0,-0.33334 -0.16667,-0.83334 0,-1 0.16667,-0.16666 0.83333,0.16666 1,0 0.16667,-0.16666 -0.16667,-0.83334 0,-1 0.16667,-0.16666 0.83333,0.16666 1,0 0.16667,-0.16666 -0.16667,-0.66666 0,-1 0.16667,-0.33334 0.83333,-0.66666 1,-1 0.16667,-0.33334 -0.16667,-0.83334 0,-1 0.16667,-0.16666 0.83333,0.16666 1,0 0.16667,-0.16666 -0.16667,-0.83334 0,-1 0.16667,-0.16666 0.83333,0.16666 1,0 0.16667,-0.16666 -0.16667,-0.83334 0,-1 0.16667,-0.16666 0.66667,0 1,0 0.33333,0 0.66667,0.16666 1,0 0.33333,-0.16666 0.66667,-0.83334 1,-1 0.33333,-0.16666 0.83333,-0.16666 1,0 0.16667,0.16666 -0.16667,0.83334 0,1 0.16667,0.16666 0.66667,0 1,0 0.33333,0 0.66667,0 1,0 0.33333,0 0.83333,-0.16666 1,0 0.16667,0.16666 -0.16667,0.83334 0,1 0.16667,0.16666 0.83333,-0.16666 1,0 0.16667,0.16666 -0.16667,0.83334 0,1 0.16667,0.16666 0.83333,-0.16666 1,0 0.16667,0.16666 -0.16667,0.66666 0,1 0.16667,0.33334 0.66667,0.83334 1,1 0.33333,0.16666 0.66667,-0.16666 1,0 0.33333,0.16666 0.83333,1 1,1 0.16667,0 -0.16667,-0.83334 0,-1 0.16667,-0.16666 0.66667,0.16666 1,0 0.33333,-0.16666 0.66667,-0.66666 1,-1 0.33333,-0.33334 0.66667,-0.66666 1,-1 0.33333,-0.33334 0.66667,-0.66666 1,-1 0.33333,-0.33334 0.66667,-0.83334 1,-1 0.33333,-0.16666 0.66667,0.16666 1,0 0.33333,-0.16666 0.66667,-0.83334 1,-1 0.33333,-0.16666 0.83333,-0.16666 1,0 0.16667,0.16666 -0.16667,0.83334 0,1 0.16667,0.16666 0.66667,0 1,0 0.33333,0 0.83333,-0.16666 1,0 0.16667,0.16666 0,0.66666 0,1 0,0.33334 0,0.66666 0,1 0,0.33334 0.16667,0.66666 0,1 -0.16667,0.33334 -0.66667,0.5 -1,1 -0.33333,0.5 -0.66667,1.5 -1,2 -0.33333,0.5 -0.66667,0.66666 -1,1 -0.33333,0.33333 -0.83333,0.66667 -1,1 -0.16667,0.33333 0,0.66667 0,1 0,0.33333 0,0.66667 0,1 0,0.33333 0.16667,0.83333 0,1 -0.16667,0.16667 -0.83333,-0.16667 -1,0 -0.16667,0.16667 0,0.66667 0,1 0,0.33333 0.16667,0.66667 0,1 -0.16667,0.33333 -0.83333,0.66667 -1,1 -0.16667,0.33333 0.16667,0.66667 0,1 -0.16667,0.33333 -0.83333,0.66667 -1,1 -0.16667,0.33333 0,0.66667 0,1 0,0.33333 0,0.66667 0,1 0,0.33333 0.16667,0.5 0,1 -0.16667,0.5 -0.66667,1.5 -1,2 -0.33333,0.5 -0.83333,0.66667 -1,1 -0.16667,0.33333 0.33333,0.66667 0,1 -0.33333,0.33333 -1.66667,0.66667 -2,1 -0.33333,0.33333 0.16667,0.83333 0,1 -0.16667,0.16667 -0.83333,-0.16667 -1,0 -0.16667,0.16667 0,0.66667 0,1 0,0.33333 0.16667,0.83333 0,1 -0.16667,0.16667 -1,0.16667 -1,0 0,-0.16667 0.66667,-0.83333 1,-1 0.33333,-0.16667 0.66667,0 1,0 0.33333,0 0.66667,0 1,0 0.33333,0 0.66667,0 1,0 0.33333,0 0.66667,0 1,0 0.33333,0 0.66667,0 1,0 0.33333,0 0.66667,0.16667 1,0 0.33333,-0.16667 0.66667,-0.83333 1,-1 0.33333,-0.16667 0.66667,0 1,0 0.33333,0 0.66667,0 1,0 0.33333,0 0.83333,0.16667 1,0 0.16667,-0.16667 -0.16667,-0.83333 0,-1 0.16667,-0.16667 0.66667,0 1,0 0.33333,0 0.83333,0.16667 1,0 0.16667,-0.16667 -0.16667,-0.83333 0,-1 0.16667,-0.16667 0.66667,0 1,0 0.33333,0 0.66667,0.16667 1,0 0.33333,-0.16667 0.66667,-0.83333 1,-1 0.33333,-0.16667 0.66667,0.16667 1,0 0.33333,-0.16667 0.66667,-0.83333 1,-1 0.33333,-0.16667 0.66667,0 1,0 0.33333,0 0.83333,0.16667 1,0 0.16667,-0.16667 -0.16667,-0.83333 0,-1 0.16667,-0.16667 0.66667,0 1,0 0.33333,0 0.66667,0.16667 1,0 0.33333,-0.16667 0.66667,-0.83333 1,-1 0.33333,-0.16667 0.66667,0.16667 1,0 0.33333,-0.16667 0.5,-0.83333 1,-1 0.5,-0.16667 1.66667,0.16667 2,0 0.33333,-0.16667 -0.16667,-0.83333 0,-1 0.16667,-0.16667 0.66667,0.16667 1,0 0.33333,-0.16667 0.66667,-0.83333 1,-1 0.33333,-0.16667 0.5,0.16667 1,0 0.5,-0.16667 1.5,-0.66667 2,-1 0.5,-0.33333 0.5,-0.66667 1,-1 0.5,-0.33333 1.5,-0.66667 2,-1 0.5,-0.33333 0.5,-0.66667 1,-1 0.5,-0.33333 1.5,-0.66667 2,-1 0.5,-0.33333 0.5,-0.66667 1,-1 0.5,-0.33333 1.5,-0.66667 2,-1 0.5,-0.33333 0.5,-0.66667 1,-1 0.5,-0.33333 1.5,-0.66667 2,-1 0.5,-0.33334 0.5,-0.66666 1,-1 0.5,-0.33334 1.33333,-0.66666 2,-1 0.66667,-0.33334 1.5,-0.66666 2,-1 0.5,-0.33334 0.5,-0.66666 1,-1 0.5,-0.33334 1.16667,-0.66666 2,-1 0.83333,-0.33334 2.33333,-0.66666 3,-1 0.66667,-0.33334 0.33333,-0.66666 1,-1 0.66667,-0.33334 2.16667,-0.66666 3,-1 0.83333,-0.33334 1.33333,-0.66666 2,-1 0.66667,-0.33334 1.33333,-0.66666 2,-1 0.66667,-0.33334 1.16667,-0.66666 2,-1 0.83333,-0.33334 2.16667,-0.66666 3,-1 0.83333,-0.33334 1.16667,-0.66666 2,-1 0.83333,-0.33334 2,-0.66666 3,-1 1,-0.33334 2.16667,-0.83334 3,-1 0.83333,-0.16666 1.16666,0.16666 2,0 0.83334,-0.16666 2,-0.66666 3,-1 1,-0.33334 2.16666,-0.66666 3,-1 0.83334,-0.33334 1.16666,-0.66666 2,-1 0.83334,-0.33334 1.83334,-0.66666 3,-1 1.16666,-0.33334 3,-0.83334 4,-1 1,-0.16666 1.16666,0.16666 2,0 0.83334,-0.16666 2,-0.83334 3,-1 1,-0.16666 2.16666,0.16666 3,0 0.83334,-0.16666 1,-0.83334 2,-1 1,-0.16666 3,0.16666 4,0 1,-0.16666 1,-0.83334 2,-1 1,-0.16666 2.83334,0 4,0 1.16666,0 2.16666,0 3,0 0.83334,0 1.16666,0.16666 2,0 0.83334,-0.16666 2,-0.83334 3,-1 1,-0.16666 2,0 3,0 1,0 2.16666,0 3,0 0.83334,0 0.66666,0 2,0 1.33334,0 4.5,0.16666 6,0 1.5,-0.16666 1.83334,-0.83334 3,-1 1.16666,-0.16666 2.33334,0 4,0 1.66666,0 4.5,0 6,0 1.5,0 2,0 3,0 1,0 1.5,0.16666 3,0 1.5,-0.16666 4.33334,-0.83334 6,-1 1.66666,-0.16666 2.83334,0 4,0 1.16666,0 1.5,0 3,0 1.5,0 4.16666,0 6,0 1.83334,0 4,0 5,0 1,0 1,0 1,0 0,0 -0.66666,0 -1,0 -0.33334,0 -0.66666,0 -1,0 -0.33334,0 -0.5,-0.16666 -1,0 -0.5,0.16666 -0.83334,0.66666 -2,1 -1.16666,0.33334 -3.5,0.66666 -5,1 -1.5,0.33334 -2.66666,0.66666 -4,1 -1.33334,0.33334 -2.5,0.66666 -4,1 -1.5,0.33334 -3.33334,0.5 -5,1 -1.66666,0.5 -3.66666,1.5 -5,2 -1.33334,0.5 -2,0.83334 -3,1 -1,0.16666 -2.16666,-0.16666 -3,0 -0.83334,0.16666 -0.83334,0.5 -2,1 -1.16666,0.5 -3.66666,1.33334 -5,2 -1.33334,0.66666 -2,1.5 -3,2 -1,0.5 -1.66666,0.5 -3,1 -1.33334,0.5 -3.66666,1.33334 -5,2 -1.33334,0.66666 -2.33334,1.66666 -3,2 -0.66666,0.33334 -0.66666,-0.16666 -1,0 -0.33334,0.16666 -1,0.83334 -1,1 0,0.16666 0.66666,-0.16666 1,0 0.33334,0.16666 0.5,1 1,1 0.5,0 1.16666,-0.83334 2,-1 0.83334,-0.16666 2.16666,0 3,0 0.83334,0 1.5,0 2,0 0.5,0 0.5,0.16666 1,0 0.5,-0.16666 1.83334,-0.83334 2,-1 0.16666,-0.16666 -0.83334,-0.16666 -1,0 -0.16666,0.16666 0.16666,0.83334 0,1 -0.16666,0.16666 -0.16666,-0.16666 -1,0 -0.83334,0.16666 -3.16666,0.83334 -4,1 -0.83334,0.16666 -0.5,-0.16666 -1,0 -0.5,0.16666 -0.83334,0.5 -2,1 -1.16666,0.5 -3.66666,1.5 -5,2 -1.33334,0.5 -2,0.83334 -3,1 -1,0.16666 -1.83334,-0.33334 -3,0 -1.16666,0.33334 -3,1.66666 -4,2 -1,0.33333 -1.5,-0.16666 -2,0 -0.5,0.16667 -0.5,0.83333 -1,1 -0.5,0.16667 -1.66666,-0.16667 -2,0 -0.33334,0.16667 -0.16666,0.83333 0,1 0.16666,0.16667 0.66666,0 1,0 0.33334,0 0.66666,-0.16667 1,0 0.33334,0.16667 0.66666,0.66667 1,1 0.33334,0.33333 0.5,0.83333 1,1 0.5,0.16667 1.5,0 2,0 0.5,0 0.66666,0 1,0 0.33334,0 0.66666,0 1,0 0.33334,0 0.83334,-0.16667 1,0 0.16666,0.16667 0.16666,0.83333 0,1 -0.16666,0.16667 -0.5,0 -1,0 -0.5,0 -1.5,-0.16667 -2,0 -0.5,0.16667 -0.5,0.83333 -1,1 -0.5,0.16667 -1.33334,-0.16667 -2,0 -0.66666,0.16667 -1.5,0.83333 -2,1 -0.5,0.16667 -0.5,-0.16667 -1,0 -0.5,0.16667 -1,0.66667 -2,1 -1,0.33333 -2.83334,0.66667 -4,1 -1.16666,0.33333 -2,0.5 -3,1 -1,0.5 -1.5,1.33333 -3,2 -1.5,0.66667 -4.66666,1.5 -6,2 -1.33334,0.5 -1.33334,0.66667 -2,1 -0.66666,0.33333 -1.16666,0.5 -2,1 -0.83334,0.5 -2.33334,1.5 -3,2 -0.66666,0.5 -0.66666,0.66667 -1,1 -0.33334,0.33333 -0.66666,0.66667 -1,1 -0.33334,0.33333 -0.66666,0.66667 -1,1 -0.33333,0.33333 -0.66667,0.66667 -1,1 -0.33333,0.33333 -0.5,0.66667 -1,1 -0.5,0.33333 -1.66667,0.66667 -2,1 -0.33333,0.33333 0.16667,0.66667 0,1 -0.16667,0.33333 -0.66667,0.66667 -1,1 -0.33333,0.33333 -0.83333,0.66667 -1,1 -0.16667,0.33333 0,0.66667 0,1 0,0.33333 0,0.66667 0,1 0,0.33333 0,0.66667 0,1 0,0.33333 -0.16667,0.83333 0,1 0.16667,0.16667 0.83333,0.16667 1,0 0.16667,-0.16667 -0.16667,-0.83333 0,-1 0.16667,-0.16667 0.66667,0 1,0 0.33333,0 0.66667,-0.16667 1,0 0.33333,0.16667 0.66667,0.83333 1,1 0.33333,0.16667 0.66667,0 1,0 0.33333,0 0.66667,-0.16667 1,0 0.33334,0.16667 1,0.83333 1,1 0,0.16667 -0.66666,0 -1,0 -0.33333,0 -0.5,-0.16667 -1,0 -0.5,0.16667 -1.33333,0.83333 -2,1 -0.66667,0.16667 -1.33333,-0.16667 -2,0 -0.66667,0.16667 -1.5,0.66667 -2,1 -0.5,0.33333 -0.5,0.66667 -1,1 -0.5,0.33333 -1.33333,0.83333 -2,1 -0.66667,0.16667 -1.5,-0.16667 -2,0 -0.5,0.16667 -0.5,0.83333 -1,1 -0.5,0.16667 -1.33333,-0.16667 -2,0 -0.66667,0.16667 -1.5,0.66667 -2,1 -0.5,0.33333 -0.5,0.83333 -1,1 -0.5,0.16667 -1.33333,-0.16667 -2,0 -0.66667,0.16667 -1.5,0.83333 -2,1 -0.5,0.16667 -0.5,-0.16667 -1,0 -0.5,0.16667 -1.16667,0.66667 -2,1 -0.83333,0.33333 -2,0.66667 -3,1 -1,0.33333 -2.16667,0.66667 -3,1 -0.83333,0.33333 -1.33333,0.66667 -2,1 -0.66667,0.33333 -1.33333,0.83333 -2,1 -0.66667,0.16667 -1.5,-0.16667 -2,0 -0.5,0.16667 -0.5,0.83333 -1,1 -0.5,0.16667 -1.33333,-0.16667 -2,0 -0.66667,0.16667 -1.5,0.83333 -2,1 -0.5,0.16667 -0.66667,-0.16667 -1,0 -0.33333,0.16667 -0.5,0.66667 -1,1 -0.5,0.33333 -1.33333,0.83333 -2,1 -0.66667,0.16667 -1.33333,-0.16667 -2,0 -0.66667,0.16667 -1.33333,0.83333 -2,1 -0.66667,0.16667 -1.5,-0.16667 -2,0 -0.5,0.16667 -0.66667,0.83333 -1,1 -0.33333,0.16667 -0.5,-0.16667 -1,0 -0.5,0.16667 -1.5,0.83333 -2,1 -0.5,0.16667 -0.66667,-0.16667 -1,0 -0.33333,0.16667 -0.66667,0.66667 -1,1 -0.33333,0.33333 -0.66667,0.83333 -1,1 -0.33333,0.16667 -0.66667,-0.16667 -1,0 -0.33333,0.16667 -0.5,0.66667 -1,1 -0.5,0.33333 -1.5,0.83333 -2,1 -0.5,0.16667 -0.66667,-0.16667 -1,0 -0.33333,0.16667 -0.66667,0.66667 -1,1 -0.33333,0.33333 -0.5,0.66667 -1,1 -0.5,0.33333 -1.66667,0.66667 -2,1 -0.33333,0.33333 0.16667,0.66667 0,1 -0.16667,0.33333 -0.66667,0.83333 -1,1 -0.33333,0.16667 -0.66667,-0.16667 -1,0 -0.33333,0.16667 -0.66667,0.66667 -1,1 -0.33333,0.33333 -0.83333,0.66667 -1,1 -0.16667,0.33333 0.16667,0.66667 0,1 -0.16667,0.33333 -0.66667,0.66667 -1,1 -0.33333,0.33333 -0.66667,0.66667 -1,1 -0.33333,0.33333 -0.83333,0.66667 -1,1 -0.16667,0.33333 0.16667,0.66667 0,1 -0.16667,0.33333 -0.66667,0.66667 -1,1 -0.33333,0.33333 -0.83333,0.66667 -1,1 -0.16667,0.33333 0,0.66667 0,1 0,0.33333 0.16667,0.66667 0,1 -0.16667,0.33333 -0.83333,0.66667 -1,1 -0.16667,0.33333 0,0.66667 0,1 0,0.33333 0.16667,0.83333 0,1 -0.16667,0.16667 -0.83333,-0.33333 -1,0 -0.16667,0.33333 0,1.5 0,2 0,0.5 0.16667,0.66667 0,1 -0.16667,0.33333 -0.83333,0.66667 -1,1 -0.16667,0.33333 0,0.66667 0,1 0,0.33333 0,0.66667 0,1 0,0.33333 0.16667,0.66667 0,1 -0.16667,0.33333 -0.83333,0.66667 -1,1 -0.16667,0.33333 0,0.66667 0,1 0,0.33333 0,0.66667 0,1 0,0.33333 0,0.66667 0,1 0,0.33333 0.16667,0.66667 0,1 -0.16667,0.33333 -0.83333,0.66667 -1,1 -0.16667,0.33333 0,0.66667 0,1 0,0.33333 0.16667,0.66667 0,1 -0.16667,0.33333 -0.83333,0.66667 -1,1 -0.16667,0.33333 0,0.66667 0,1 0,0.33333 0.16667,0.5 0,1 -0.16667,0.5 -0.66667,1.5 -1,2 -0.33333,0.5 -0.83333,0.66667 -1,1 -0.16667,0.33333 0.16667,0.66667 0,1 -0.16667,0.33333 -0.66667,0.66667 -1,1 -0.33333,0.33333 -0.5,0.5 -1,1 -0.5,0.5 -1.5,1.33333 -2,2 -0.5,0.66667 -0.66667,1.5 -1,2 -0.33333,0.5 -0.5,0.5 -1,1 -0.5,0.5 -1.33333,1.33333 -2,2 -0.66667,0.66667 -1.5,1.66667 -2,2 -0.5,0.33333 -0.5,-0.5 -1,0 -0.5,0.5 -1.33333,2.16667 -2,3 -0.66667,0.83333 -1.5,1.5 -2,2 -0.5,0.5 -0.5,0.5 -1,1 -0.5,0.5 -1.5,1.5 -2,2 -0.5,0.5 -0.5,0.5 -1,1 -0.5,0.5 -1.33333,1.5 -2,2 -0.66667,0.5 -1.5,0.66667 -2,1 -0.5,0.33333 -0.5,0.5 -1,1 -0.5,0.5 -1.5,1.5 -2,2 -0.5,0.5 -0.5,0.66667 -1,1 -0.5,0.33333 -1.33333,0.5 -2,1 -0.66667,0.5 -1.5,1.33333 -2,2 -0.5,0.66667 -0.5,1.33334 -1,2 -0.5,0.66666 -1.33333,1.33334 -2,2 -0.66667,0.66666 -1.33333,1.33334 -2,2 -0.66667,0.66666 -1.5,1.5 -2,2 -0.5,0.5 -0.66667,0.5 -1,1 -0.33333,0.5 -0.5,1.5 -1,2 -0.5,0.5 -1.5,0.5 -2,1 -0.5,0.5 -0.5,1.33334 -1,2 -0.5,0.66666 -1.33334,1.33334 -2,2 -0.66666,0.66666 -1.5,1.5 -2,2 -0.5,0.5 -0.66666,0.5 -1,1 -0.33334,0.5 -0.5,1.33334 -1,2 -0.5,0.66666 -1.5,1.33334 -2,2 -0.5,0.66666 -0.66666,1.33334 -1,2 -0.33334,0.66666 -0.66666,1.5 -1,2 -0.33334,0.5 -0.5,0.5 -1,1 -0.5,0.5 -1.5,1.33334 -2,2 -0.5,0.66666 -0.66666,1.5 -1,2 -0.33334,0.5 -0.83334,0.5 -1,1 -0.16666,0.5 0.33334,1.33334 0,2 -0.33334,0.66666 -1.5,1.33334 -2,2 -0.5,0.66666 -0.83334,1.5 -1,2 -0.16666,0.5 0.33334,0.5 0,1 -0.33334,0.5 -1.66666,1.33334 -2,2 -0.33334,0.66666 0.16666,1.5 0,2 -0.16666,0.5 -0.66666,0.5 -1,1 -0.33334,0.5 -0.83334,1.5 -1,2 -0.16666,0.5 0.16666,0.5 0,1 -0.16666,0.5 -0.66666,1.33334 -1,2 -0.33334,0.66666 -0.83334,1.5 -1,2 -0.16666,0.5 0.16666,0.33334 0,1 -0.16666,0.66666 -0.83334,2.33334 -1,3 -0.16666,0.66666 0.16666,0.66666 0,1 -0.16666,0.33334 -0.83334,0.5 -1,1 -0.16666,0.5 0.16666,1.33334 0,2 -0.16666,0.66666 -0.83334,1.5 -1,2 -0.16666,0.5 0.16666,0.33334 0,1 -0.16666,0.66666 -0.83334,2.16666 -1,3 -0.166664,0.83334 0.16666,1.5 0,2 -0.166664,0.5 -0.666664,0.33334 -1,1 -0.333336,0.66666 -0.833336,2.16666 -1,3 -0.166664,0.83334 0,1.5 0,2 0,0.5 0.166664,0.33334 0,1 -0.166664,0.66666 -0.833336,2.16666 -1,3 -0.166664,0.83334 0.166664,1.5 0,2 -0.166664,0.5 -0.666664,0.33334 -1,1 -0.333336,0.66666 -0.833336,2.16666 -1,3 -0.166664,0.83334 0.166664,1.33334 0,2 -0.166664,0.66666 -0.666664,1.33334 -1,2 -0.333336,0.66666 -0.833336,1.5 -1,2 -0.166664,0.5 0.166664,0.33334 0,1 -0.166664,0.66666 -0.5,2.16666 -1,3 -0.5,0.83334 -1.5,1.33334 -2,2 -0.5,0.66666 -0.666664,1.16666 -1,2 -0.333336,0.83334 -0.666664,2.16666 -1,3 -0.333336,0.83334 -0.666664,1.5 -1,2 -0.333336,0.5 -0.666664,0.5 -1,1 -0.333336,0.5 -0.833336,1.5 -1,2 -0.166664,0.5 0.166664,0.66666 0,1 -0.166664,0.33334 -0.5,0.16666 -1,1 -0.5,0.83334 -1.5,3 -2,4 -0.5,1 -0.5,1.5 -1,2 -0.5,0.5 -1.166664,0.16666 -2,1 -0.833336,0.83334 -2.333336,3 -3,4 -0.666664,1 -0.5,1.5 -1,2 -0.5,0.5 -1.333336,0.33334 -2,1 -0.666664,0.66666 -1.333336,2.16666 -2,3 -0.666664,0.83334 -1.5,1.33334 -2,2 -0.5,0.66666 -0.5,1.33334 -1,2 -0.5,0.66666 -1.166664,1.33334 -2,2 -0.833336,0.66666 -2.166668,1.33334 -3,2 -0.833332,0.66666 -1.333332,1.33334 -2,2 -0.666668,0.66666 -1.333332,1.5 -2,2 -0.666668,0.5 -1.166668,0.33334 -2,1 -0.833332,0.66666 -2.166668,2.16666 -3,3 -0.833332,0.83334 -1.333332,1.5 -2,2 -0.666668,0.5 -1.166668,0.5 -2,1 -0.833332,0.5 -2.333332,1.5 -3,2 -0.666668,0.5 -0.666668,0.83334 -1,1 -0.333332,0.16666 -0.666668,0 -1,0 -0.333332,0 -1,0 -1,0 0,0 0.666668,0.16666 1,0 0.333332,-0.16666 0.666668,-0.66666 1,-1 0.333332,-0.33334 0.666668,-0.66666 1,-1 0.333332,-0.33334 0.666668,-0.5 1,-1 0.333332,-0.5 0.833332,-1.5 1,-2 0.166668,-0.5 -0.333332,-0.5 0,-1 0.333332,-0.5 1.5,-1.5 2,-2 0.5,-0.5 0.5,-0.33334 1,-1 0.5,-0.66666 1.333332,-2.16666 2,-3 0.666668,-0.83334 1.5,-1.33334 2,-2 0.5,-0.66666 0.5,-1.16666 1,-2 0.5,-0.83334 1.5,-2.16666 2,-3 0.5,-0.83334 0.5,-1.33334 1,-2 0.5,-0.66666 1.5,-1.16666 2,-2 0.5,-0.83334 0.666668,-2.33334 1,-3 0.333332,-0.66666 0.666668,-0.5 1,-1 0.333336,-0.5 0.5,-1.16666 1,-2 0.5,-0.83334 1.5,-2.16666 2,-3 0.5,-0.83334 0.833336,-1.33334 1,-2 0.166664,-0.66666 -0.5,-1.16666 0,-2 0.5,-0.83334 2.333336,-2 3,-3 0.666664,-1 0.666664,-2.16666 1,-3 0.333336,-0.83334 0.666664,-1.33334 1,-2 0.333336,-0.66666 0.666664,-1.5 1,-2 0.333336,-0.5 0.666664,-0.33334 1,-1 0.333336,-0.66666 0.833336,-2 1,-3 0.166664,-1 -0.166664,-2.16666 0,-3 0.166664,-0.83334 0.833336,-1.33334 1,-2 0.166664,-0.66666 -0.166664,-1.16666 0,-2 0.166664,-0.83334 0.666664,-2.33334 1,-3 0.333336,-0.66666 0.833336,-0.66666 1,-1 0.166664,-0.33334 0,-0.5 0,-1 0,-0.5 0,-1.16666 0,-2 0,-0.83334 0,-2.16666 0,-3 0,-0.83334 -0.166664,-1.33334 0,-2 0.166664,-0.66666 0.833336,-1.33334 1,-2 0.166664,-0.66666 0,-1.16666 0,-2 0,-0.83334 0,-2.16666 0,-3 0,-0.83334 0,-1.5 0,-2 0,-0.5 0,-0.33334 0,-1 0,-0.66666 0,-2.16666 0,-3 0,-0.83334 0,-1.33334 0,-2 0,-0.66666 0,-1.33334 0,-2 0,-0.66666 0,-1.16666 0,-2 0,-0.83334 0,-2.16666 0,-3 0,-0.83334 0,-1.33334 0,-2 0,-0.66666 0,-1.5 0,-2 0,-0.5 0,-0.66666 0,-1 0,-0.33334 0.166664,-0.5 0,-1 -0.166664,-0.5 -0.833336,-1.5 -1,-2 -0.166664,-0.5 0,-0.66666 0,-1 0,-0.33334 0.166664,-0.5 0,-1 -0.166664,-0.5 -0.833336,-1.5 -1,-2 -0.166664,-0.5 0,-0.5 0,-1 0,-0.5 0,-1.5 0,-2 0,-0.5 0.166664,-0.5 0,-1 -0.166664,-0.5 -0.833336,-1.5 -1,-2 -0.166664,-0.5 0,-0.66666 0,-1 0,-0.33334 0.166664,-0.66666 0,-1 -0.166664,-0.33334 -0.833336,-0.5 -1,-1 -0.166664,-0.5 0,-1.33334 0,-2 0,-0.66666 0,-1.5 0,-2 0,-0.5 0,-0.5 0,-1 0,-0.5 0,-1.16666 0,-2 0,-0.83334 0,-2.16666 0,-3 0,-0.83334 0,-1.5 0,-2 0,-0.5 0,-0.66666 0,-1 0,-0.33334 0,-0.5 0,-1 0,-0.5 0,-1.5 0,-2 0,-0.5 0,-0.5 0,-1 0,-0.5 -0.166664,-1.5 0,-2 0.166664,-0.5 0.833336,-0.66666 1,-1 0.166664,-0.33334 -0.166664,-0.33334 0,-1 0.166664,-0.66666 0.666664,-2.33334 1,-3 0.333336,-0.66666 0.833336,-0.66666 1,-1 0.166664,-0.33334 -0.166664,-0.33334 0,-1 0.166664,-0.66666 0.666664,-2.33334 1,-3 0.333336,-0.66666 0.666664,-0.66666 1,-1 0.333336,-0.33334 0.666664,-0.5 1,-1 0.333336,-0.5 0.833336,-1.5 1,-2 0.166664,-0.5 -0.166664,-0.66666 0,-1 0.166664,-0.33333 0.666664,-0.66667 1,-1 0.333336,-0.33333 0.666664,-0.66667 1,-1 0.333336,-0.33333 0.666664,-0.66667 1,-1 0.333336,-0.33333 0.833336,-0.66667 1,-1 0.166664,-0.33333 -0.166664,-0.83333 0,-1 0.166664,-0.16667 0.666664,0.16667 1,0 0.333336,-0.16667 0.833336,-0.66667 1,-1 0.166664,-0.33333 -0.166664,-0.83333 0,-1 0.166664,-0.16667 0.666664,0.33333 1,0 0.333336,-0.33333 0.666664,-1.66667 1,-2 0.333336,-0.33333 0.5,0.5 1,0 0.5,-0.5 1.5,-2.33333 2,-3 0.5,-0.66667 0.666664,-0.66667 1,-1 0.333336,-0.33333 0.666664,-0.5 1,-1 0.333336,-0.5 0.666664,-1.5 1,-2 0.333336,-0.5 0.666664,-0.66667 1,-1 0.333336,-0.33333 0.666664,-0.66667 1,-1 0.333336,-0.33333 0.666664,-0.66667 1,-1 0.33334,-0.33333 0.66666,-0.66667 1,-1 0.33334,-0.33333 0.66666,-0.5 1,-1 0.33334,-0.5 0.83334,-1.5 1,-2 0.16666,-0.5 -0.16666,-0.5 0,-1 0.16666,-0.5 0.66666,-1.5 1,-2 0.33334,-0.5 0.66666,-0.5 1,-1 0.33334,-0.5 1,-1.66667 1,-2 0,-0.33333 -0.83334,-0.16667 -1,0 -0.16666,0.16667 0.16666,0.83333 0,1 -0.16666,0.16667 -0.5,-0.33333 -1,0 -0.5,0.33333 -1.5,1.5 -2,2 -0.5,0.5 -0.66666,0.5 -1,1 -0.33334,0.5 -0.33334,1.5 -1,2 -0.666664,0.5 -2.166664,0.5 -3,1 -0.833336,0.5 -1.5,1.5 -2,2 -0.5,0.5 -0.666664,0.66667 -1,1 -0.333336,0.33333 -0.666664,0.83333 -1,1 -0.333336,0.16667 -0.666664,-0.16667 -1,0 -0.333336,0.16667 -0.666664,0.83333 -1,1 -0.333336,0.16667 -0.5,-0.16667 -1,0 -0.5,0.16667 -1.5,0.66667 -2,1 -0.5,0.33333 -0.5,0.66667 -1,1 -0.5,0.33333 -1.333336,0.83333 -2,1 -0.666664,0.16667 -1.5,-0.16667 -2,0 -0.5,0.16667 -0.666664,0.83333 -1,1 -0.333336,0.16667 -0.666664,0 -1,0 -0.333336,0 -0.666664,-0.16667 -1,0 -0.333336,0.16667 -0.666664,0.83333 -1,1 -0.333336,0.16667 -0.666664,0 -1,0 -0.333336,0 -0.666664,0 -1,0 -0.333336,0 -0.666664,-0.16667 -1,0 -0.333336,0.16667 -0.666664,0.83333 -1,1 -0.333336,0.16667 -0.5,0 -1,0 -0.5,0 -1.333336,0 -2,0 -0.666664,0 -1.5,-0.16667 -2,0 -0.5,0.16667 -0.333336,0.83333 -1,1 -0.666664,0.16667 -2.333336,0 -3,0 -0.666664,0 -0.666664,0 -1,0 -0.333336,0 -0.5,-0.16667 -1,0 -0.5,0.16667 -1.5,0.83333 -2,1 -0.5,0.16667 -0.666668,0 -1,0 -0.333332,0 -0.666668,0.16667 -1,0 -0.333332,-0.16667 -0.666668,-0.83333 -1,-1 -0.333332,-0.16667 -0.666668,0 -1,0 -0.333332,0 -0.5,0 -1,0 -0.5,0 -1.5,0 -2,0 -0.5,0 -0.666668,0 -1,0 -0.333332,0 -0.666668,0 -1,0 -0.333332,0 -0.666668,0.16667 -1,0 -0.333332,-0.16667 -0.666668,-0.83333 -1,-1 -0.333332,-0.16667 -0.666668,0 -1,0 -0.333332,0 -0.5,0 -1,0 -0.5,0 -1.5,0.16667 -2,0 -0.5,-0.16667 -0.666668,-0.83333 -1,-1 -0.333332,-0.16667 -0.666668,0 -1,0 -0.333332,0 -0.5,0 -1,0 -0.5,0 -1.666668,0.16667 -2,0 -0.333332,-0.16667 0.166668,-0.83333 0,-1 -0.166668,-0.16667 -0.666668,0.16667 -1,0 -0.333332,-0.16667 -0.666668,-0.83333 -1,-1 -0.333332,-0.16667 -0.666668,0.16667 -1,0 -0.333332,-0.16667 -0.666668,-0.66667 -1,-1 -0.333332,-0.33333 -0.666668,-0.66667 -1,-1 -0.333332,-0.33333 -0.833332,-0.66667 -1,-1 -0.166668,-0.33333 0.166668,-0.83333 0,-1 -0.166668,-0.16667 -0.666668,0.16667 -1,0 -0.333332,-0.16667 -0.833332,-0.66667 -1,-1 -0.166668,-0.33333 0.166668,-0.83333 0,-1 -0.166668,-0.16667 -0.833332,0.16667 -1,0 -0.166668,-0.16667 0.166668,-0.83333 0,-1 -0.166668,-0.16667 -0.833332,0.16667 -1,0 -0.166666,-0.16667 0.166668,-0.83333 0,-1 -0.166666,-0.16667 -0.833334,0.16667 -1,0 -0.166666,-0.16667 0.166666,-0.83333 0,-1 -0.166666,-0.16667 -0.833334,0.16667 -1,0 -0.166666,-0.16667 0.166666,-0.83333 0,-1 -0.166666,-0.16667 -0.666666,0.16667 -1,0 -0.333334,-0.16667 -0.666666,-0.83333 -1,-1 -0.333334,-0.16667 -0.833334,0.16667 -1,0 -0.166666,-0.16667 0.166666,-0.83333 0,-1 -0.166666,-0.16667 -0.666666,0 -1,0 -0.333334,0 -0.833334,0.16667 -1,0 -0.166666,-0.16667 0.166666,-0.83333 0,-1 -0.166666,-0.16667 -1,0 -1,0 0,0 0.666666,-0.16667 1,0 0.333334,0.16667 0.666666,0.83333 1,1 0.333334,0.16667 0.666666,0 1,0 0.333334,0 0.5,0 1,0 0.5,0 1.5,0 2,0 0.5,0 0.5,0 1,0 0.5,0 1.333332,0 2,0 0.666668,0 1.166668,0 2,0 0.833332,0 2.166668,0 3,0 0.833332,0 1.333332,0 2,0 0.666668,0 1.166668,0 2,0 0.833332,0 2.333332,0 3,0 0.666668,0 0.666668,0 1,0 0.333332,0 0.333332,0 1,0 0.666668,0 2.333332,0.16667 3,0 0.666668,-0.16667 0.5,-0.83333 1,-1 0.5,-0.16667 1.333332,0.16667 2,0 0.666668,-0.16667 1.5,-0.83333 2,-1 0.5,-0.16667 0.166668,0.16667 1,0 0.833332,-0.16667 3.166668,-0.83333 4,-1 0.833332,-0.16667 0.5,0.16667 1,0 0.5,-0.16667 1.166668,-0.66667 2,-1 0.833332,-0.33333 2.333336,-0.83333 3,-1 0.666664,-0.16667 0.666664,0.16667 1,0 0.333336,-0.16667 0.666664,-0.66667 1,-1 0.333336,-0.33333 0.666664,-0.83333 1,-1 0.333336,-0.16667 0.833336,0.16667 1,0 0.166664,-0.16667 -0.166664,-0.83333 0,-1 0.166664,-0.16667 0.666664,0.16667 1,0 0.333336,-0.16667 0.833336,-0.66667 1,-1 0.166664,-0.33333 -0.166664,-0.66667 0,-1 0.166664,-0.33333 0.666664,-0.66667 1,-1 0.333336,-0.33333 0.666664,-0.66667 1,-1 0.333336,-0.33333 0.666664,-0.66667 1,-1 0.333336,-0.33333 0.666664,-0.66667 1,-1 0.333336,-0.33333 0.666664,-0.66667 1,-1 0.333336,-0.33333 0.5,-0.66667 1,-1 0.5,-0.33333 1.333336,-0.33333 2,-1 0.666664,-0.66667 1.5,-2.16667 2,-3 0.5,-0.83333 0.666664,-1.5 1,-2 0.333336,-0.5 0.5,-0.66667 1,-1 0.5,-0.33333 1.5,-0.5 2,-1 0.5,-0.5 0.666664,-1.5 1,-2 0.333336,-0.5 0.5,-0.5 1,-1 0.5,-0.5 1.333336,-1.33333 2,-2 0.666664,-0.66667 1.5,-1.5 2,-2 0.5,-0.5 0.5,-0.66667 1,-1 0.5,-0.33333 1.333336,-0.66667 2,-1 0.666664,-0.33333 1.5,-0.66667 2,-1 0.5,-0.33333 0.333336,-0.83333 1,-1 0.666664,-0.16667 2.16666,0.16667 3,0 0.83334,-0.16667 1.33334,-0.83333 2,-1 0.66666,-0.16667 1.33334,0.16667 2,0 0.66666,-0.16667 1.5,-0.83333 2,-1 0.5,-0.16667 0.83334,0.16667 1,0 0.16666,-0.16667 -0.16666,-0.83333 0,-1 0.16666,-0.16667 0.5,0.33333 1,0 0.5,-0.33333 1.33334,-1.5 2,-2 0.66666,-0.5 1.16666,-0.33333 2,-1 0.83334,-0.66667 2.16666,-2.33333 3,-3 0.83334,-0.66667 1.16666,-0.5 2,-1 0.83334,-0.5 1.83334,-1.16667 3,-2 1.16666,-0.83333 3.16666,-2.16667 4,-3 0.83334,-0.83333 0.66666,-1.66667 1,-2 0.33334,-0.33333 0.66666,0.16667 1,0 0.33334,-0.16667 0.66666,-0.66667 1,-1 0.33333,-0.33333 0.66667,-0.66667 1,-1 0.33333,-0.33333 0.66667,-0.83333 1,-1 0.33333,-0.16667 1,0 1,0 0,0 -0.66667,0 -1,0 -0.33333,0 -0.66667,0.16667 -1,0 -0.33333,-0.16667 -0.66667,-0.66667 -1,-1 -0.33334,-0.33333 -0.66666,-0.66667 -1,-1 -0.33334,-0.33333 -0.5,-0.83333 -1,-1 -0.5,-0.16667 -1.5,0.16667 -2,0 -0.5,-0.16667 -0.5,-0.66667 -1,-1 -0.5,-0.33333 -1.33334,-0.66667 -2,-1 -0.66666,-0.33333 -1.33334,-0.83333 -2,-1 -0.66666,-0.16667 -1.5,0.16667 -2,0 -0.5,-0.16667 -0.66666,-0.66667 -1,-1 -0.33334,-0.33333 -0.66666,-0.66667 -1,-1 -0.33334,-0.33333 -0.66666,-0.66667 -1,-1 -0.33334,-0.33333 -0.66666,-0.66667 -1,-1 -0.33334,-0.33333 -0.83334,-0.66667 -1,-1 -0.16666,-0.33333 0.16666,-0.83333 0,-1 -0.16666,-0.16667 -0.83334,0.16667 -1,0 -0.16666,-0.16667 0.16666,-0.83333 0,-1 -0.16666,-0.16667 -0.83334,0.16667 -1,0 -0.16666,-0.16667 0.16666,-0.83333 0,-1 -0.16666,-0.16667 -0.83334,0.16667 -1,0 -0.16666,-0.16667 0.16666,-0.66667 0,-1 -0.16666,-0.33333 -0.83334,-0.66667 -1,-1 -0.16666,-0.33333 0.16666,-0.83333 0,-1 -0.16666,-0.16667 -0.83334,0.16667 -1,0 -0.16666,-0.16667 0,-0.66667 0,-1 0,-0.33333 0,-0.66667 0,-1 0,-0.33333 0,-0.66667 0,-1 0,-0.33333 0,-0.66667 0,-1 0,-0.33333 0,-0.66667 0,-1 0,-0.33333 0,-0.5 0,-1 0,-0.5 0,-1.33333 0,-2 0,-0.66667 -0.16666,-1.5 0,-2 0.16666,-0.5 1,-0.66667 1,-1 0,-0.33333 -0.83334,-0.5 -1,-1 -0.16666,-0.5 0,-1.5 0,-2 0,-0.5 0,-0.66667 0,-1 0,-0.33333 0.16666,-0.5 0,-1 -0.16666,-0.5 -0.83334,-1.5 -1,-2 -0.16666,-0.5 0,-0.5 0,-1 0,-0.5 0,-1.33333 0,-2 0,-0.66667 0.16666,-1.5 0,-2 -0.16666,-0.5 -0.83334,-0.5 -1,-1 -0.16666,-0.5 0.16666,-1.33333 0,-2 -0.16666,-0.66667 -0.83334,-1.5 -1,-2 -0.16666,-0.5 0,-0.5 0,-1 0,-0.5 0,-1.33334 0,-2 0,-0.66666 0.16666,-1.33334 0,-2 -0.16666,-0.66666 -0.83334,-1.33334 -1,-2 -0.16666,-0.66666 0.16666,-1.5 0,-2 -0.16666,-0.5 -0.83334,-0.66666 -1,-1 -0.16666,-0.33334 0.16666,-0.5 0,-1 -0.16666,-0.5 -0.83334,-1.5 -1,-2 -0.16666,-0.5 0,-0.66666 0,-1 0,-0.33334 0.16666,-0.66666 0,-1 -0.16666,-0.33334 -0.66666,-0.66666 -1,-1 -0.333336,-0.33334 -0.833336,-0.66666 -1,-1 -0.166664,-0.33334 0.166664,-0.66666 0,-1 -0.166664,-0.33334 -0.666664,-0.83334 -1,-1 -0.333336,-0.16666 -0.833336,0.16666 -1,0 -0.166664,-0.16666 0.166664,-0.83334 0,-1 -0.166664,-0.16666 -0.833336,0.16666 -1,0 -0.166664,-0.16666 0.166664,-0.66666 0,-1 -0.166664,-0.33334 -0.833336,-0.66666 -1,-1 -0.166664,-0.33334 0,-0.66666 0,-1 0,-0.33334 0.166664,-0.83334 0,-1 -0.166664,-0.16666 -0.833336,0.33334 -1,0 -0.166664,-0.33334 0,-1.33334 0,-2 0,-0.66666 0,-1.5 0,-2 0,-0.5 -0.166664,-0.5 0,-1 0.166664,-0.5 0.833336,-1.5 1,-2 0.166664,-0.5 0,-0.666664 0,-1 0,-0.333336 0,-0.666664 0,-1 0,-0.333336 0,-0.666664 0,-1 0,-0.333336 -0.166664,-0.666664 0,-1 0.166664,-0.333336 0.833336,-0.5 1,-1 0.166664,-0.5 0,-1.5 0,-2 0,-0.5 0,-0.666664 0,-1 0,-0.333336 0,-0.666664 0,-1 0,-0.333336 0,-0.666664 0,-1 0,-0.333336 0,-0.666664 0,-1 0,-0.333336 0,-0.666664 0,-1 0,-0.333336 0,-0.666664 0,-1 0,-0.333336 0,-0.5 0,-1 0,-0.5 0.166664,-1.5 0,-2 -0.166664,-0.5 -0.833336,-0.5 -1,-1 -0.166664,-0.5 0,-1.5 0,-2 0,-0.5 0,-0.5 0,-1 0,-0.5 0.166664,-1.333336 0,-2 -0.166664,-0.666664 -0.833336,-1.333336 -1,-2 -0.166664,-0.666664 0.166664,-1.333336 0,-2 -0.166664,-0.666664 -0.833336,-1.5 -1,-2 -0.166664,-0.5 0,-0.5 0,-1 0,-0.5 0.166664,-1.333336 0,-2 -0.166664,-0.666664 -0.833336,-1.5 -1,-2 -0.166664,-0.5 0,-0.666664 0,-1 0,-0.333336 0.166664,-0.5 0,-1 -0.166664,-0.5 -0.833336,-1.5 -1,-2 -0.166664,-0.5 0.166664,-0.333332 0,-1 -0.166664,-0.666668 -0.833336,-2.333332 -1,-3 -0.166664,-0.666668 0,-0.666668 0,-1 0,-0.333332 0,-0.5 0,-1 0,-0.5 0.166664,-1.5 0,-2 -0.166664,-0.5 -0.833336,-0.666668 -1,-1 -0.166664,-0.333332 0.166664,-0.666668 0,-1 -0.166664,-0.333332 -0.833336,-0.666668 -1,-1 -0.166664,-0.333332 0,-0.5 0,-1 0,-0.5 0.166664,-1.5 0,-2 -0.166664,-0.5 -0.833336,-0.666668 -1,-1 -0.166664,-0.333332 0,-0.666668 0,-1 0,-0.333332 0.166664,-0.5 0,-1 -0.166664,-0.5 -0.666664,-1.5 -1,-2 -0.333336,-0.5 -0.833336,-0.666668 -1,-1 -0.166664,-0.333332 0.166664,-0.666668 0,-1 -0.166664,-0.333332 -0.666664,-0.5 -1,-1 -0.333336,-0.5 -0.666664,-1.5 -1,-2 -0.333336,-0.5 -0.666664,-0.666668 -1,-1 -0.333336,-0.333332 -0.833336,-0.666668 -1,-1 -0.166664,-0.333332 0.166664,-0.5 0,-1 -0.166664,-0.5 -0.833336,-1.5 -1,-2 -0.166664,-0.5 0.166664,-0.666668 0,-1 -0.166664,-0.333334 -0.833336,-0.666666 -1,-1 -0.166664,-0.333334 0.166664,-0.666666 0,-1 -0.166664,-0.333334 -0.833336,-0.666666 -1,-1 -0.166664,-0.333334 0,-0.666666 0,-1 0,-0.333334 0.166664,-0.833334 0,-1 -0.166664,-0.166666 -0.833336,0.166666 -1,0 -0.166664,-0.166666 0.166664,-0.833334 0,-1 -0.166664,-0.166666 -0.833336,0.166666 -1,0 -0.166664,-0.166666 0.166664,-0.666666 0,-1 -0.166664,-0.333334 -0.666664,-0.666666 -1,-1 -0.333336,-0.333334 -0.666664,-0.666666 -1,-1 -0.333336,-0.333334 -0.666664,-0.833334 -1,-1 -0.333336,-0.166666 -0.833336,0.166666 -1,0 -0.166664,-0.166666 0.166664,-0.833334 0,-1 -0.166664,-0.166666 -0.666664,0.166666 -1,0 -0.333336,-0.166666 -1.166664,-1 -1,-1 0.166664,0 1.5,0.833334 2,1 0.5,0.166666 0.5,-0.166666 1,0 0.5,0.166666 1.5,0.833334 2,1 0.5,0.166666 0.5,-0.166666 1,0 0.5,0.166666 1.333336,0.833334 2,1 0.666664,0.166666 1.5,-0.166666 2,0 0.5,0.166666 0.5,0.833334 1,1 0.5,0.166666 1.5,-0.166666 2,0 0.5,0.166666 0.5,0.833334 1,1 0.5,0.166666 1.5,0 2,0 0.5,0 0.666664,-0.166666 1,0 0.333336,0.166666 0.666664,0.666666 1,1 0.333336,0.333334 0.666664,0.833334 1,1 0.333336,0.166666 0.666664,-0.166666 1,0 0.333336,0.166666 0.666664,0.833334 1,1 0.333336,0.166666 0.666664,-0.166666 1,0 0.333336,0.166666 0.666664,0.666666 1,1 0.333336,0.333334 0.666664,0.833334 1,1 0.333336,0.166666 0.833336,-0.166666 1,0 0.166664,0.166666 -0.166664,0.833334 0,1 0.166664,0.166666 0.666664,0 1,0 0.333336,0 0.833336,-0.166666 1,0 0.166664,0.166666 -0.166664,0.833334 0,1 0.166664,0.166668 0.666664,-0.166666 1,0 0.333336,0.166668 0.666664,0.666668 1,1 0.333336,0.333332 0.666664,0.833332 1,1 0.33334,0.166668 0.66666,-0.166668 1,0 0.33334,0.166668 0.66666,0.666668 1,1 0.33334,0.333332 0.66666,0.666668 1,1 0.33334,0.333332 0.83334,0.666668 1,1 0.16666,0.333332 -0.16666,0.833332 0,1 0.16666,0.166668 0.83334,-0.166668 1,0 0.16666,0.166668 -0.16666,0.833332 0,1 0.16666,0.166668 0.83334,-0.166668 1,0 0.16666,0.166668 -0.16666,0.666668 0,1 0.16666,0.333332 0.66666,0.666668 1,1 0.33334,0.333332 0.83334,0.666668 1,1 0.16666,0.333332 -0.16666,0.666668 0,1 0.16666,0.333332 0.66666,0.666668 1,1 0.33334,0.333332 0.83334,0.666668 1,1 0.16666,0.333332 0,0.666668 0,1 0,0.333332 -0.16666,0.833332 0,1 0.16666,0.166668 0.83334,-0.166668 1,0 0.16666,0.166668 0,0.666668 0,1 0,0.333332 -0.16666,0.666668 0,1 0.16666,0.333332 0.83334,0.666668 1,1 0.16666,0.333332 0,0.666668 0,1 0,0.333332 0,0.666668 0,1 0,0.333332 -0.16666,0.833332 0,1 0.16666,0.166668 0.83334,-0.166668 1,0 0.16666,0.166668 0,0.666668 0,1 0,0.333332 0,0.666668 0,1 0,0.333332 0,0.666668 0,1 0,0.333332 0,0.666668 0,1 0,0.333332 0,0.666668 0,1 0,0.333332 0,0.666668 0,1 0,0.333332 0,0.666668 0,1 0,0.333332 0,0.666668 0,1 0,0.333332 0,0.666668 0,1 0,0.333332 0,0.666668 0,1 0,0.333332 0,0.666668 0,1 0,0.333336 0,0.666664 0,1 0,0.333336 0,0.666664 0,1 0,0.333336 -0.16666,0.833336 0,1 0.16666,0.166664 0.83334,-0.166664 1,0 0.16666,0.166664 0,0.666664 0,1 0,0.333336 0,0.666664 0,1 0,0.333336 0,0.666664 0,1 0,0.333336 0,0.666664 0,1 0,0.333336 -0.16666,0.666664 0,1 0.16666,0.333336 0.83334,0.666664 1,1 0.16666,0.333336 0,0.666664 0,1 0,0.333336 0,0.666664 0,1 0,0.333336 -0.16666,0.666664 0,1 0.16666,0.333336 0.83334,0.666664 1,1 0.16666,0.333336 0,0.666664 0,1 0,0.333336 -0.16666,0.833336 0,1 0.16666,0.166664 0.83334,-0.166664 1,0 0.16666,0.166664 0,1 0,1 0,0 0,-1 0,-1 0,0 0,1 0,1 0,0 0,-1 0,-1"
     id="path0000"
     style="fill:none;stroke:#000000;stroke-opacity:1" />
</svg>
