<?xml version="1.0" encoding="UTF-8" standalone="no"?>
<svg xmlns="http://www.w3.org/2000/svg" version="1.0" xmlns:xlink="http://www.w3.org/1999/xlink" viewBox="0 0 100 100" id="shu">
<a xlink:href="http://wiktionary.org/wiki/%E6%9B%B8">
<path d="M 40.23,5.78 C 40.12,6.26 44.51,8.85 43.65,13.61 L 43.65,14.39 C 39.66,15.17 36.38,15.82 33.81,16.35 L 30.82,16.74 C 30.815861,17 30.96,17.52 31.24,18.30 C 31.529018,18.56 32.1,19.08 32.96,19.87 C 35.899094,21.023569 39.092,22.21 42.37,22.21 L 43.652717,22.212928 L 43.652717,25.342363 C 41.655831,25.863976 42.57,25.32 36.81,27.3 C 31.077091,29.262034 15.569118,31.845529 5.1422607,34.730686 C 4.8221741,35.143579 5.1422607,35.513019 5.1422607,35.513019 L 11.988565,40.989555 C 13.945172,40.921173 14.05659,40.826673 15.411717,40.207221 C 16.552745,39.424878 18.54958,38.642535 21.402232,37.86012 L 43.652717,30.818827 L 43.652717,34.730686 C 38.627282,36.974502 33.052397,37.496403 27.82064,39.03 L 25.681171,39.424806 L 25.681171,40.207221 C 30.711452,44.67402 36.783623,43.123626 42.796929,41.77  L 42.796929,42.554313 C 40.2052,45.225837 37.349092,46.62801 33.811156,47.63961 C 32.270032,48.110175 30.448285,47.832624 29.104323,48.030777 C 26.018801,48.48579 29.945412,51.680636 31.671686,53.116145 L 33.383262,54.289727 C 34.436445,54.719891 38.489692,53.4 41.09,52.72 L 42.796929,51.942626 C 39.783111,58.980347 28.880521,60.29 21.83,60.94 C 19.83717,61.05392 18.692213,61.200584 18.406973,61.722116 L 17.98,62.11 L 17.98,62.9 C 20.46,65.39 25.87,67.46 28.25,66.42 L 33.38,64.460384 C 31.67,66.807485 30.67323,68.763409 30.39,70.328086 C 29.88,76.711678 35.719546,89.8791 36.81,90.28 C 37.79,90.638376 48.060194,87.435123 53.92,87.15 C 55.99,89.426616 58.353326,94.906356 59.06,94.97 C 61.84,95.232679 62.980797,93.594885 64.61952,92.23 C 69.33,87.600165 70.5602,81.096028 74.033189,75.8 C 75.03,74.23846 75.917823,72.895957 76.172661,71.110429 C 75.85,66.109742 71.593793,62.323568 66.331095,61.72 C 56,60.721532 45.03278,64.020104 36.378519,69.154576 L 35.094838,69.94 L 34.24,69.936919 C 35.094797,67.329089 35.665321,65.76434 35.95,65.24 L 36.81,63.678041 C 47.71431,60.554708 53.616781,57.72 70.18,57.42 L 76.17,57.42 L 77.03,56.636747 C 76.785013,53.865296 74.221079,52.111241 71.465824,51.55 L 50.14,53.733815 C 51.069488,51.568649 51.925276,50.63868 52.21,50.38 C 52.78,49.595535 53.77948,49.073994 55.205853,48.813192 C 59.41,47.254167 64.051976,46.972602 68.470563,46.074924 L 69.33,45.683757 C 69.108541,43.666965 68.43005,42.642864 66.33,42.16 C 63.68,41.501574 60.884325,41.788944 58.201112,42.163074 L 55.63,42.55 C 58.41,39.722742 61.963129,37.73898 65.475308,35.9 C 65.47,35.904195 66.283236,35.17327 65.748368,34.1 C 65.21,33.021793 64.641758,32.703922 63.335838,31.6 C 63.91,30.558097 64.476819,29.775754 65.047414,29.25 C 72.25,24.579001 80.91311,24.662485 91.576846,27.3 C 93.32,27.907705 93.907037,27.90622 95,26.91 C 93.23,19.684198 82.224003,19.869031 76.172661,21.82 C 75.14,21.987019 74.236452,22.212928 73.177396,22.21 L 71.89,22.21 C 72.8,20.833597 72.838062,19.717678 72.321609,18.30 C 68.22,12.792764 61.177375,11.568512 54.350066,12.433367 L 53.07,12.82 C 52.84235,11.341784 54.613306,9.46 53.92,8.91 C 50.34,6.07 42.01,4.96 41.51,5 C 41,5.04 40.34,5.31 40.23,5.78 z M 52.21,19.87 C 54.207374,18.040349 55.35,17.13 55.63,17.13 C 57.834178,15.78269 60.12,15.61 62.05,17.13 L 62.48005,17.5187 C 62.46,19.18 61.88,20.75 61.2,22.21 L 60.77,22.9952 C 57.345259,23.26 54.92,23.65 53.49,24.17 L 51.35,24.56 L 52.2,19.87 z M 58.2,27.69 C 57.08,29.89 55.42,30.78 52.81,31.99 L 51.35,32.38 L 51.35,29.25 L 58.2,27.69 z M 65.05,66.81 C 69.4,70.35 63.52,79.66 59.91,84.8 C 58.84,87.29 57.32,85.55 55.63,84.41 C 53.29,82.99 50.81,83.29 47.93,84.02 C 51.16,79.72 50.58,78.22 55.48,77.77 C 60.26,77.33 57.62,75.29 56.63,74.71 C 55.67,74.15 40.22,75.43 39.37,75.8 C 36.51,77.79 42.96,79.16 44.51,79.32 L 45.36,80.11 L 39.37,84.8 L 38.52,84.8 C 36.06,82.6 36.28,78.57 35.95,75.41 C 35.77,73.14 38.3,72.3 40.23,71.50 C 41.48,70.93 42.87,70.44 44.51,69.94 C 49.3,69.25 63.63,65.65 65.05,66.81 z" id="kaishu"/></a></svg>