<?xml version="1.0" encoding="UTF-8" standalone="no"?>
<!-- Created with Inkscape (http://www.inkscape.org/) -->

<svg
   xmlns:dc="http://purl.org/dc/elements/1.1/"
   xmlns:cc="http://creativecommons.org/ns#"
   xmlns:rdf="http://www.w3.org/1999/02/22-rdf-syntax-ns#"
   xmlns:svg="http://www.w3.org/2000/svg"
   xmlns="http://www.w3.org/2000/svg"
   version="1.1"
   width="1920"
   height="1080"
   id="svg2">
  <defs
     id="defs4" />
  <metadata
     id="metadata7">
    <rdf:RDF>
      <cc:Work
         rdf:about="">
        <dc:format>image/svg+xml</dc:format>
        <dc:type
           rdf:resource="http://purl.org/dc/dcmitype/StillImage" />
        <dc:title></dc:title>
      </cc:Work>
    </rdf:RDF>
  </metadata>
  <g
     transform="translate(0.0,0.0)"
     id="layer1">
    <path
       initial_time="202.960000"
       final_time="208.889000"
       d="M 1521,467 M 1521,467 C 1521.21,467.714 1520.17,468.275 1520,469 C 1521.21,467.714 1520.17,468.275 1520,469 C 1521.21,467.714 1520.17,468.275 1520,469 C 1519.85,469.649 1520,470.333 1520,471 C 1519.85,469.649 1520,470.333 1520,471 C 1519.85,469.649 1520,470.333 1520,471 C 1520,471.667 1519.65,472.433 1520,473 C 1520,471.667 1519.65,472.433 1520,473 C 1520.2,473.317 1521.64,473.914 1522,474 C 1520.2,473.317 1521.64,473.914 1522,474 C 1522.65,474.153 1523.33,474 1524,474 C 1524.67,474 1525.35,474.153 1526,474 C 1524.67,474 1525.35,474.153 1526,474 C 1526.73,473.829 1527.4,473.436 1528,473 C 1526.73,473.829 1527.4,473.436 1528,473 C 1529.15,472.173 1530.26,471.203 1531,470 C 1531.55,469.103 1531.6,467.974 1532,467 C 1532.29,466.311 1532.83,465.725 1533,465 C 1532.29,466.311 1532.83,465.725 1533,465 C 1533.15,464.351 1533,463.667 1533,463 C 1533.15,464.351 1533,463.667 1533,463 C 1533,462.333 1533.26,461.616 1533,461 C 1533,462.333 1533.26,461.616 1533,461 C 1532.64,460.129 1531.87,459.361 1531,459 C 1530.38,458.745 1529.67,459 1529,459 C 1530.38,458.745 1529.67,459 1529,459 C 1528.33,459 1527.67,459 1527,459 C 1528.33,459 1527.67,459 1527,459 C 1526.33,459 1525.67,459 1525,459 C 1524.33,459 1523.57,458.65 1523,459 C 1524.33,459 1523.57,458.65 1523,459 C 1522.37,459.392 1522.33,460.333 1522,461 C 1521.67,461.667 1521.17,462.275 1521,463 C 1520.85,463.649 1521,464.333 1521,465 C 1520.85,463.649 1521,464.333 1521,465 C 1521,465.667 1521,466.333 1521,467 C 1521,467.667 1521,468.333 1521,469 C 1521,467.667 1521,468.333 1521,469 C 1521,467.667 1521,468.333 1521,469 C 1521,469.667 1520.74,470.384 1521,471 C 1521,469.667 1520.74,470.384 1521,471 C 1521,469.667 1520.74,470.384 1521,471 C 1521.18,471.436 1522.62,472.724 1523,473 C 1523.6,473.436 1524.27,473.829 1525,474 C 1523.6,473.436 1524.27,473.829 1525,474 C 1525.65,474.153 1526.38,474.255 1527,474 C 1525.65,474.153 1526.38,474.255 1527,474 C 1527.87,473.639 1528.27,472.598 1529,472 C 1527.87,473.639 1528.27,472.598 1529,472 C 1529.93,471.238 1531.2,470.901 1532,470 C 1529.93,471.238 1531.2,470.901 1532,470 C 1532.49,469.441 1532.67,468.667 1533,468 C 1533.33,467.333 1533.83,466.725 1534,466 C 1533.33,467.333 1533.83,466.725 1534,466 C 1534.15,465.351 1534,464.667 1534,464 C 1534.15,465.351 1534,464.667 1534,464 C 1534.15,465.351 1534,464.667 1534,464 C 1534,463.333 1534.26,462.616 1534,462 C 1534,463.333 1534.26,462.616 1534,462 C 1533.64,461.129 1532.8,460.496 1532,460 C 1533.64,461.129 1532.8,460.496 1532,460 C 1531.1,459.446 1530.04,459.169 1529,459 C 1531.1,459.446 1530.04,459.169 1529,459 C 1528.34,458.893 1527.65,458.847 1527,459 C 1528.34,458.893 1527.65,458.847 1527,459 C 1526.27,459.171 1525.73,459.829 1525,460 C 1526.27,459.171 1525.73,459.829 1525,460 C 1524.35,460.153 1523.62,459.745 1523,460 C 1524.35,460.153 1523.62,459.745 1523,460 C 1522.56,460.18 1521.28,461.618 1521,462 C 1520.56,462.605 1520.17,463.275 1520,464 C 1520.56,462.605 1520.17,463.275 1520,464 C 1519.85,464.649 1520.11,465.342 1520,466 C 1519.85,464.649 1520.11,465.342 1520,466 C 1519.83,467.04 1519.17,467.96 1519,469 C 1519.83,467.04 1519.17,467.96 1519,469 C 1518.79,470.316 1518.61,471.724 1519,473 C 1518.79,470.316 1518.61,471.724 1519,473 C 1518.79,470.316 1518.61,471.724 1519,473 C 1519.17,473.575 1520.62,475.535 1521,476 C 1521.6,476.729 1522.13,477.639 1523,478 C 1523.62,478.255 1524.35,477.847 1525,478 C 1525.73,478.171 1526.25,479 1527,479 C 1527.75,479 1528.27,478.171 1529,478 C 1529.65,477.847 1530.36,478.193 1531,478 C 1532.15,477.652 1532.85,476.348 1534,476 C 1534.64,475.807 1535.43,476.35 1536,476 C 1536.63,475.608 1536.47,474.527 1537,474 C 1536.63,475.608 1536.47,474.527 1537,474 C 1537.53,473.473 1538.51,473.563 1539,473 C 1539.35,472.602 1539.92,470.52 1540,470 C 1539.35,472.602 1539.92,470.52 1540,470 C 1540.11,469.342 1540,468.667 1540,468 C 1540,467.333 1540,466.667 1540,466 C 1540,465.333 1540,464.667 1540,464 C 1540,465.333 1540,464.667 1540,464 C 1540,463.333 1540.26,462.616 1540,462 C 1540,463.333 1540.26,462.616 1540,462 C 1539.82,461.564 1538.38,460.276 1538,460 C 1539.82,461.564 1538.38,460.276 1538,460 C 1537.4,459.564 1536.6,459.436 1536,459 C 1535.24,458.449 1534.76,457.551 1534,457 C 1535.24,458.449 1534.76,457.551 1534,457 C 1533.4,456.564 1532.73,456.171 1532,456 C 1531.03,455.77 1529.97,456.23 1529,456 C 1531.03,455.77 1529.97,456.23 1529,456 C 1528.27,455.829 1527.73,455.171 1527,455 C 1528.27,455.829 1527.73,455.171 1527,455 C 1525.7,454.694 1524.32,454.786 1523,455 C 1521.96,455.169 1521.04,455.831 1520,456 C 1521.96,455.169 1521.04,455.831 1520,456 C 1519.34,456.107 1518.62,455.745 1518,456 C 1519.34,456.107 1518.62,455.745 1518,456 C 1517.13,456.361 1516.8,457.504 1516,458 C 1517.13,456.361 1516.8,457.504 1516,458 C 1515.1,458.554 1513.8,458.309 1513,459 C 1515.1,458.554 1513.8,458.309 1513,459 C 1512.44,459.488 1512.37,460.355 1512,461 C 1511.4,462.039 1510.35,462.85 1510,464 C 1509.81,464.638 1510,465.333 1510,466 C 1509.81,464.638 1510,465.333 1510,466 C 1510,466.667 1510,467.333 1510,468 C 1510,469 1510,470 1510,471 C 1510,471.667 1509.85,472.351 1510,473 C 1510.17,473.725 1510.83,474.275 1511,475 C 1510.17,473.725 1510.83,474.275 1511,475 C 1511.15,475.649 1510.81,476.362 1511,477 C 1511.15,475.649 1510.81,476.362 1511,477 C 1511.17,477.575 1512.62,479.535 1513,480 C 1513.6,480.729 1514.24,481.449 1515,482 C 1515.6,482.436 1516.33,482.667 1517,483 C 1517.67,483.333 1518.27,483.829 1519,484 C 1519.65,484.153 1520.34,483.893 1521,484 C 1522.04,484.169 1522.96,484.831 1524,485 C 1524.99,485.16 1526.01,485.16 1527,485 C 1528.04,484.831 1528.99,484.295 1530,484 C 1531.32,483.616 1532.71,483.477 1534,483 C 1534.7,482.741 1535.31,482.285 1536,482 C 1536.97,481.597 1538.1,481.554 1539,481 C 1539.8,480.504 1540.24,479.551 1541,479 C 1541.6,478.564 1542.47,478.527 1543,478 C 1543.53,477.473 1543.67,476.667 1544,476 C 1544.33,475.333 1544.67,474.667 1545,474 C 1545.33,473.333 1545.71,472.689 1546,472 C 1545.33,473.333 1545.71,472.689 1546,472 C 1546.4,471.026 1546.83,470.04 1547,469 C 1547.21,467.684 1547.21,466.316 1547,465 C 1547.21,467.684 1547.21,466.316 1547,465 C 1546.83,463.96 1546.55,462.897 1546,462 C 1546.83,463.96 1546.55,462.897 1546,462 C 1545.63,461.398 1543.55,459.448 1543,459 C 1542.07,458.238 1540.93,457.762 1540,457 C 1539.27,456.402 1538.76,455.551 1538,455 C 1537.4,454.564 1536.67,454.333 1536,454 C 1535.33,453.667 1534.69,453.285 1534,453 C 1535.33,453.667 1534.69,453.285 1534,453 C 1533.03,452.597 1532.01,452.295 1531,452 C 1529.68,451.616 1528.36,451.168 1527,451 C 1526.01,450.878 1525,451 1524,451 C 1523.33,451 1522.67,451 1522,451 C 1520.67,451 1519.3,450.694 1518,451 C 1517.27,451.171 1516.69,451.715 1516,452 C 1515.03,452.403 1513.95,452.537 1513,453 C 1511.92,453.528 1511.04,454.397 1510,455 C 1509.36,455.374 1508.6,455.564 1508,456 C 1507.24,456.551 1506.5,457.198 1506,458 C 1505.45,458.897 1505.55,460.103 1505,461 C 1504.5,461.802 1503.44,462.169 1503,463 C 1502.6,463.749 1502.08,467.154 1502,468 C 1501.84,469.659 1502,471.333 1502,473 C 1502,473.667 1502,474.333 1502,475 C 1502,476 1501.88,477.008 1502,478 C 1502.17,479.364 1502.83,480.636 1503,482 C 1503.08,482.662 1502.81,483.362 1503,484 C 1503.35,485.15 1504.4,485.961 1505,487 C 1505.37,487.645 1505.56,488.395 1506,489 C 1506.83,490.147 1507.91,491.103 1509,492 C 1509.93,492.762 1510.92,493.472 1512,494 C 1512.95,494.463 1513.96,494.831 1515,495 C 1515.99,495.16 1517,495 1518,495 C 1520,495 1522.02,495.244 1524,495 C 1525.36,494.832 1526.71,494.477 1528,494 C 1530.1,493.224 1531.97,491.941 1534,491 C 1536.3,489.932 1538.77,489.209 1541,488 C 1542.06,487.428 1543.07,486.762 1544,486 C 1545.09,485.103 1545.95,483.943 1547,483 C 1548.59,481.577 1550.56,480.573 1552,479 C 1552.41,478.557 1553.7,476.52 1554,476 C 1555.12,474.066 1556.27,472.115 1557,470 C 1557.55,468.392 1557.83,466.691 1558,465 C 1558.13,463.673 1558,462.333 1558,461 C 1558,459.667 1558.51,458.232 1558,457 C 1557.64,456.129 1556.67,455.667 1556,455 C 1555.33,454.333 1554.71,453.618 1554,453 C 1552.74,451.908 1551.5,450.716 1550,450 C 1549.38,449.705 1546.67,449.14 1546,449 C 1544.01,448.587 1541.99,448.413 1540,448 C 1538.65,447.72 1537.36,447.168 1536,447 C 1534.02,446.756 1532,447 1530,447 C 1528.67,447 1527.33,447 1526,447 C 1524.33,447 1522.65,446.733 1521,447 C 1520.48,447.084 1518.49,447.798 1518,448 C 1516.62,448.57 1515.38,449.43 1514,450 C 1513.03,450.403 1511.9,450.446 1511,451 C 1510.2,451.496 1509.67,452.333 1509,453 C 1508,454 1506.83,454.853 1506,456 C 1505.56,456.605 1505.33,457.333 1505,458 C 1504.33,459.333 1503.61,460.64 1503,462 C 1502.26,463.638 1501.51,465.279 1501,467 C 1500.52,468.629 1500.17,470.309 1500,472 C 1499.87,473.327 1500,474.667 1500,476 C 1500,477.333 1500,478.667 1500,480 C 1500,481 1499.77,482.027 1500,483 C 1500.17,483.725 1500.71,484.311 1501,485 C 1501.4,485.974 1501.54,487.053 1502,488 C 1502.53,489.08 1503.1,490.205 1504,491 C 1504.56,491.493 1505.4,491.564 1506,492 C 1506.76,492.551 1507.18,493.535 1508,494 C 1509.2,494.677 1510.67,494.667 1512,495 C 1513.33,495.333 1514.64,495.832 1516,496 C 1516.99,496.122 1518,496 1519,496 C 1520,496 1521.01,496.122 1522,496 C 1522.68,495.916 1525.34,495.192 1526,495 C 1527.01,494.705 1528.01,494.363 1529,494 C 1530.69,493.383 1532.36,492.735 1534,492 C 1535.36,491.389 1536.79,490.872 1538,490 C 1538.76,489.449 1539.27,488.598 1540,488 C 1540.93,487.238 1542.07,486.762 1543,486 C 1544.09,485.103 1545,484 1546,483 C 1546.67,482.333 1547.45,481.765 1548,481 C 1548.44,480.395 1549.71,477.689 1550,477 C 1550.4,476.026 1550.73,475.019 1551,474 C 1551.44,472.357 1551.63,470.658 1552,469 C 1552.3,467.659 1553.15,466.366 1553,465 C 1552.92,464.259 1552.29,463.689 1552,463 C 1551.6,462.026 1551.55,460.897 1551,460 C 1550.63,459.398 1548.53,457.463 1548,457 C 1547.37,456.454 1544.68,454.481 1544,454 C 1543.02,453.306 1542.08,452.528 1541,452 C 1540.05,451.537 1536.02,450.271 1535,450 C 1533.36,449.564 1531.66,449.373 1530,449 C 1528.66,448.698 1527.35,448.28 1526,448 C 1524.01,447.587 1522.02,447.167 1520,447 C 1518.67,446.89 1517.32,447.163 1516,447 C 1514.64,446.832 1513.36,446.168 1512,446 C 1510.68,445.837 1509.3,445.694 1508,446 C 1507.27,446.171 1506.69,446.715 1506,447 C 1507.27,446.171 1506.69,446.715 1506,447 C 1505.03,447.403 1503.86,447.384 1503,448 C 1501.65,448.975 1501.09,450.741 1500,452 C 1499.38,452.712 1498.44,453.169 1498,454 C 1497.2,455.499 1497.48,457.371 1497,459 C 1496.49,460.721 1495.46,462.266 1495,464 C 1494.39,466.277 1494.17,468.649 1494,471 C 1493.91,472.33 1494,473.667 1494,475 C 1494,476.667 1494,478.333 1494,480 C 1494,482 1493.62,484.036 1494,486 C 1494.34,487.763 1495.16,489.411 1496,491 C 1496.56,492.064 1497.17,493.127 1498,494 C 1498.29,494.303 1501.66,496.759 1502,497 C 1502.98,497.694 1504,498.333 1505,499 C 1506,499.667 1506.88,500.571 1508,501 C 1506,499.667 1506.88,500.571 1508,501 C 1510.2,501.841 1512.65,502.121 1515,502 C 1516.37,501.929 1521.68,500.384 1523,500 C 1525.02,499.411 1527.05,498.807 1529,498 C 1530.38,497.43 1531.71,496.748 1533,496 C 1535.08,494.794 1537.14,493.524 1539,492 C 1540.09,491.103 1541.07,490.068 1542,489 C 1543.09,487.741 1543.98,486.318 1545,485 C 1546.31,483.313 1547.8,481.765 1549,480 C 1549.76,478.889 1552.37,474.185 1553,473 C 1553.7,471.686 1554.56,470.423 1555,469 C 1555.35,467.875 1555.92,463.176 1556,462 C 1556.09,460.67 1556.21,459.316 1556,458 C 1555.96,457.74 1555.09,455.247 1555,455 C 1554.38,453.314 1554.13,451.394 1553,450 C 1552.24,449.067 1550.93,448.762 1550,448 C 1548.54,446.805 1547.53,445.103 1546,444 C 1545.4,443.564 1542.68,442.305 1542,442 C 1540.36,441.265 1538.69,440.617 1537,440 C 1535.02,439.275 1533.08,438.338 1531,438 C 1529.68,437.786 1528.33,438.131 1527,438 C 1525.31,437.833 1523.69,437.167 1522,437 C 1520.01,436.803 1517.99,436.774 1516,437 C 1511.58,437.503 1507.18,438.495 1503,440 C 1502.3,440.252 1501.45,440.406 1501,441 C 1498.33,444.517 1495.98,462.587 1496,467 C 1496.01,468.7 1496.83,470.309 1497,472 C 1497.07,472.663 1496.95,473.336 1497,474 C 1497.17,476.021 1497.25,478.115 1498,480 C 1498.44,481.118 1499.47,481.92 1500,483 C 1500.46,483.947 1500.45,485.103 1501,486 C 1501.5,486.802 1502.4,487.271 1503,488 C 1501.5,486.802 1502.4,487.271 1503,488 C 1503.76,488.929 1504.17,490.127 1505,491 C 1506.15,492.211 1507.52,493.227 1509,494 C 1509.93,494.489 1511,494.667 1512,495 C 1513,495.333 1513.96,495.831 1515,496 C 1516.32,496.214 1517.68,496.163 1519,496 C 1519.34,495.958 1522.67,495.089 1523,495 C 1525.34,494.372 1527.74,493.88 1530,493 C 1532.08,492.189 1534.1,491.176 1536,490 C 1537.42,489.124 1538.64,487.963 1540,487 C 1541.96,485.612 1544.14,484.524 1546,483 C 1547.09,482.103 1548,481 1549,480 C 1550,479 1551.1,478.094 1552,477 C 1553.52,475.141 1554.79,473.079 1556,471 C 1556.75,469.711 1557.33,468.333 1558,467 C 1559,465 1560.31,463.126 1561,461 C 1559,465 1560.31,463.126 1561,461 C 1561.63,459.072 1562,457.028 1562,455 C 1562,452.972 1561.55,450.953 1561,449 C 1560.52,447.271 1559.99,445.499 1559,444 C 1558.48,443.213 1557.67,442.667 1557,442 C 1555.67,440.667 1554.46,439.195 1553,438 C 1552.07,437.238 1551.08,436.528 1550,436 C 1549.05,435.537 1545.01,434.295 1544,434 C 1542.68,433.616 1541.36,433.168 1540,433 C 1538.68,432.837 1537.33,433 1536,433 C 1534,433 1532,433 1530,433 C 1528.33,433 1526.65,432.733 1525,433 C 1522.92,433.338 1521.04,434.459 1519,435 C 1517.36,435.436 1515.57,435.35 1514,436 C 1512.89,436.46 1512,437.333 1511,438 C 1510,438.667 1508.98,439.306 1508,440 C 1506.64,440.963 1505.07,441.72 1504,443 C 1503.52,443.572 1503.36,444.347 1503,445 C 1502.06,446.704 1500.74,448.204 1500,450 C 1499.74,450.635 1499.13,453.326 1499,454 C 1498.55,456.313 1498.17,458.649 1498,461 C 1497.83,463.327 1497.77,465.678 1498,468 C 1498.08,468.846 1498.81,472.171 1499,473 C 1499.3,474.341 1499.62,475.68 1500,477 C 1500.59,479.024 1500.89,481.207 1502,483 C 1502.74,484.203 1504,485 1505,486 C 1506.33,487.333 1507.59,488.742 1509,490 C 1510.59,491.423 1511.99,493.294 1514,494 C 1514.63,494.221 1515.35,493.874 1516,494 C 1517.76,494.339 1519.24,495.661 1521,496 C 1522.96,496.378 1525.02,496.244 1527,496 C 1527.68,495.916 1530.34,495.192 1531,495 C 1533.02,494.411 1535.08,493.881 1537,493 C 1537.88,492.594 1541.19,490.542 1542,490 C 1542.69,489.535 1545.34,487.51 1546,487 C 1547.69,485.693 1549.51,484.533 1551,483 C 1552.16,481.803 1553,480.333 1554,479 C 1555,477.667 1556.04,476.361 1557,475 C 1558.39,473.038 1559.94,471.159 1561,469 C 1561.93,467.106 1562.66,465.081 1563,463 C 1563.16,462.013 1563,461 1563,460 C 1563,458.333 1563.27,456.645 1563,455 C 1562.83,453.96 1562.33,453 1562,452 C 1561.67,451 1561.5,449.926 1561,449 C 1559.98,447.125 1558.53,445.485 1557,444 C 1555.8,442.84 1554.44,441.834 1553,441 C 1552.45,440.682 1546.59,438.236 1546,438 C 1543.36,436.939 1540.72,435.847 1538,435 C 1536.69,434.591 1535.35,434.252 1534,434 C 1531.36,433.507 1528.68,433.167 1526,433 C 1524.34,432.896 1522.66,432.882 1521,433 C 1518.65,433.167 1516.31,433.547 1514,434 C 1512.65,434.264 1511.34,434.698 1510,435 C 1508.34,435.373 1506.57,435.35 1505,436 C 1503.89,436.46 1503,437.333 1502,438 C 1501,438.667 1499.93,439.238 1499,440 C 1497.91,440.897 1496.9,441.906 1496,443 C 1495.24,443.929 1494.53,444.92 1494,446 C 1493.07,447.894 1492.34,449.919 1492,452 C 1491.79,453.316 1492,454.667 1492,456 C 1492,458.667 1492,461.333 1492,464 C 1492,465.667 1491.77,467.349 1492,469 C 1492.34,471.403 1493.37,473.656 1494,476 C 1494.36,477.328 1494.41,478.759 1495,480 C 1495.72,481.505 1497.07,482.617 1498,484 C 1499.08,485.613 1499.66,487.593 1501,489 C 1501.83,489.87 1503.07,490.238 1504,491 C 1504.73,491.598 1505.16,492.569 1506,493 C 1506.9,493.464 1510.99,493.916 1512,494 C 1513.33,494.11 1514.67,494 1516,494 C 1518,494 1520.04,494.378 1522,494 C 1522.22,493.958 1526.79,492.086 1527,492 C 1529.35,491.029 1531.7,490.068 1534,489 C 1535.35,488.373 1536.71,487.748 1538,487 C 1539.04,486.397 1543.02,483.694 1544,483 C 1545.36,482.037 1546.74,481.092 1548,480 C 1549.78,478.456 1551.62,476.912 1553,475 C 1553.87,473.791 1554.33,472.333 1555,471 C 1556,469 1557,467 1558,465 C 1558.67,463.667 1559.52,462.41 1560,461 C 1560.55,459.392 1560.83,457.691 1561,456 C 1561.13,454.673 1561.16,453.323 1561,452 C 1560.83,450.636 1560.56,449.257 1560,448 C 1559.88,447.725 1558.17,445.245 1558,445 C 1557.04,443.639 1556.21,442.145 1555,441 C 1554.13,440.174 1553.1,439.486 1552,439 C 1550.74,438.444 1549.32,438.384 1548,438 C 1545.98,437.411 1544.08,436.338 1542,436 C 1540.35,435.733 1538.66,436.104 1537,436 C 1534.32,435.833 1531.69,434.945 1529,435 C 1526.97,435.041 1525.01,435.708 1523,436 C 1520.34,436.388 1517.63,436.463 1515,437 C 1512.62,437.485 1510.2,437.981 1508,439 C 1506.91,439.504 1506,440.333 1505,441 C 1504,441.667 1502.8,442.099 1502,443 C 1501.26,443.838 1499.43,447.967 1499,449 C 1498.19,450.948 1497.56,452.968 1497,455 C 1496.18,457.962 1495.55,460.977 1495,464 C 1494.58,466.319 1494.17,468.649 1494,471 C 1493.76,474.325 1493.67,477.683 1494,481 C 1494.17,482.691 1494.53,484.366 1495,486 C 1495.78,488.739 1496.46,491.605 1498,494 C 1499.02,495.585 1500.47,496.897 1502,498 C 1502.91,498.654 1506.98,500.542 1508,501 C 1509.64,501.735 1511.22,502.759 1513,503 C 1515.99,503.406 1519.11,502.855 1522,502 C 1524.86,501.156 1527.25,499.141 1530,498 C 1530.97,497.597 1532.08,497.513 1533,497 C 1534.14,496.367 1538.04,492.878 1539,492 C 1540.74,490.411 1542.46,488.781 1544,487 C 1545.09,485.741 1546.07,484.383 1547,483 C 1548.08,481.387 1549.3,479.813 1550,478 C 1548.08,481.387 1549.3,479.813 1550,478 C 1550.61,476.415 1551.11,474.696 1551,473 C 1550.93,471.948 1550.86,470.616 1550,470 C 1549.19,469.415 1548,470 1547,470 C 1546.33,470 1545.64,470.173 1545,470 Z"
       colors="0.692157,0.135294,0.447059,1 0.692157,0.135294,0.447059,1 0.692157,0.135294,0.447059,1 0.692157,0.135294,0.447059,1 0.692157,0.135294,0.447059,1 0.692157,0.135294,0.447059,1 0.692157,0.135294,0.447059,1 0.692157,0.135294,0.447059,1 0.692157,0.135294,0.447059,1 0.692157,0.135294,0.447059,1 0.692157,0.135294,0.447059,1 0.692157,0.135294,0.447059,1 0.692157,0.135294,0.447059,1 0.790196,0.164706,0.430719,1 0.790196,0.164706,0.430719,1 0.692157,0.135294,0.447059,1 0.692157,0.135294,0.447059,1 0.692157,0.135294,0.447059,1 0.692157,0.135294,0.447059,1 0.692157,0.135294,0.447059,1 0.790196,0.164706,0.430719,1 0.692157,0.135294,0.447059,1 0.692157,0.135294,0.447059,1 0.692157,0.135294,0.447059,1 0.692157,0.135294,0.447059,1 0.692157,0.135294,0.447059,1 0.692157,0.135294,0.447059,1 0.692157,0.135294,0.447059,1 0.692157,0.135294,0.447059,1 0.692157,0.135294,0.447059,1 0.692157,0.135294,0.447059,1 0.692157,0.135294,0.447059,1 0.692157,0.135294,0.447059,1 0.790196,0.164706,0.430719,1 0.692157,0.135294,0.447059,1 0.692157,0.135294,0.447059,1 0.692157,0.135294,0.447059,1 0.692157,0.135294,0.447059,1 0.692157,0.135294,0.447059,1 0.790196,0.164706,0.430719,1 0.790196,0.164706,0.430719,1 0.692157,0.135294,0.447059,1 0.692157,0.135294,0.447059,1 0.692157,0.135294,0.447059,1 0.692157,0.135294,0.447059,1 0.692157,0.135294,0.447059,1 0.692157,0.135294,0.447059,1 0.692157,0.135294,0.447059,1 0.692157,0.135294,0.447059,1 0.692157,0.135294,0.447059,1 0.692157,0.135294,0.447059,1 0.692157,0.135294,0.447059,1 0.692157,0.135294,0.447059,1 0.692157,0.135294,0.447059,1 0.692157,0.135294,0.447059,1 0.692157,0.135294,0.447059,1 0.790196,0.164706,0.430719,1 0.790196,0.164706,0.430719,1 0.790196,0.164706,0.430719,1 0.692157,0.135294,0.447059,1 0.692157,0.135294,0.447059,1 0.692157,0.135294,0.447059,1 0.692157,0.135294,0.447059,1 0.790196,0.164706,0.430719,1 0.692157,0.135294,0.447059,1 0.692157,0.135294,0.447059,1 0.692157,0.135294,0.447059,1 0.692157,0.135294,0.447059,1 0.692157,0.135294,0.447059,1 0.790196,0.164706,0.430719,1 0.790196,0.164706,0.430719,1 0.692157,0.135294,0.447059,1 0.692157,0.135294,0.447059,1 0.692157,0.135294,0.447059,1 0.692157,0.135294,0.447059,1 0.692157,0.135294,0.447059,1 0.692157,0.135294,0.447059,1 0.692157,0.135294,0.447059,1 0.692157,0.135294,0.447059,1 0.692157,0.135294,0.447059,1 0.692157,0.135294,0.447059,1 0.692157,0.135294,0.447059,1 0.692157,0.135294,0.447059,1 0.790196,0.164706,0.430719,1 0.692157,0.135294,0.447059,1 0.692157,0.135294,0.447059,1 0.692157,0.135294,0.447059,1 0.692157,0.135294,0.447059,1 0.790196,0.164706,0.430719,1 0.692157,0.135294,0.447059,1 0.692157,0.135294,0.447059,1 0.692157,0.135294,0.447059,1 0.692157,0.135294,0.447059,1 0.692157,0.135294,0.447059,1 0.692157,0.135294,0.447059,1 0.692157,0.135294,0.447059,1 0.692157,0.135294,0.447059,1 0.692157,0.135294,0.447059,1 0.692157,0.135294,0.447059,1 0.692157,0.135294,0.447059,1 0.790196,0.164706,0.430719,1 0.790196,0.164706,0.430719,1 0.692157,0.135294,0.447059,1 0.692157,0.135294,0.447059,1 0.692157,0.135294,0.447059,1 0.692157,0.135294,0.447059,1 0.692157,0.135294,0.447059,1 0.790196,0.164706,0.430719,1 0.692157,0.135294,0.447059,1 0.692157,0.135294,0.447059,1 0.692157,0.135294,0.447059,1 0.692157,0.135294,0.447059,1 0.692157,0.135294,0.447059,1 0.790196,0.164706,0.430719,1 0.790196,0.164706,0.430719,1 0.790196,0.164706,0.430719,1 0.692157,0.135294,0.447059,1 0.692157,0.135294,0.447059,1 0.692157,0.135294,0.447059,1 0.692157,0.135294,0.447059,1 0.790196,0.164706,0.430719,1 0.790196,0.164706,0.430719,1 0.692157,0.135294,0.447059,1 0.692157,0.135294,0.447059,1 0.692157,0.135294,0.447059,1 0.692157,0.135294,0.447059,1 0.692157,0.135294,0.447059,1 0.692157,0.135294,0.447059,1 0.790196,0.164706,0.430719,1 0.790196,0.164706,0.430719,1 0.692157,0.135294,0.447059,1 0.692157,0.135294,0.447059,1 0.692157,0.135294,0.447059,1 0.692157,0.135294,0.447059,1 0.692157,0.135294,0.447059,1 0.692157,0.135294,0.447059,1 0.692157,0.135294,0.447059,1 0.692157,0.135294,0.447059,1 0.692157,0.135294,0.447059,1 0.692157,0.135294,0.447059,1 0.692157,0.135294,0.447059,1 0.692157,0.135294,0.447059,1 0.692157,0.135294,0.447059,1 0.692157,0.135294,0.447059,1 0.692157,0.135294,0.447059,1 0.692157,0.135294,0.447059,1 0.692157,0.135294,0.447059,1 0.692157,0.135294,0.447059,1 0.692157,0.135294,0.447059,1 0.790196,0.164706,0.430719,1 0.790196,0.164706,0.430719,1 0.692157,0.135294,0.447059,1 0.692157,0.135294,0.447059,1 0.692157,0.135294,0.447059,1 0.692157,0.135294,0.447059,1 0.692157,0.135294,0.447059,1 0.692157,0.135294,0.447059,1 0.692157,0.135294,0.447059,1 0.692157,0.135294,0.447059,1 0.692157,0.135294,0.447059,1 0.692157,0.135294,0.447059,1 0.692157,0.135294,0.447059,1 0.692157,0.135294,0.447059,1 0.692157,0.135294,0.447059,1 0.790196,0.164706,0.430719,1 0.692157,0.135294,0.447059,1 0.692157,0.135294,0.447059,1 0.692157,0.135294,0.447059,1 0.692157,0.135294,0.447059,1 0.790196,0.164706,0.430719,1 0.692157,0.135294,0.447059,1 0.692157,0.135294,0.447059,1 0.692157,0.135294,0.447059,1 0.692157,0.135294,0.447059,1 0.692157,0.135294,0.447059,1 0.692157,0.135294,0.447059,1 0.692157,0.135294,0.447059,1 0.692157,0.135294,0.447059,1 0.692157,0.135294,0.447059,1 0.692157,0.135294,0.447059,1 0.790196,0.164706,0.430719,1 0.692157,0.135294,0.447059,1 0.692157,0.135294,0.447059,1 0.692157,0.135294,0.447059,1 0.692157,0.135294,0.447059,1 0.692157,0.135294,0.447059,1 0.692157,0.135294,0.447059,1 0.692157,0.135294,0.447059,1 0.790196,0.164706,0.430719,1 0.692157,0.135294,0.447059,1 0.692157,0.135294,0.447059,1 0.692157,0.135294,0.447059,1 0.692157,0.135294,0.447059,1 0.692157,0.135294,0.447059,1 0.692157,0.135294,0.447059,1 0.692157,0.135294,0.447059,1 0.692157,0.135294,0.447059,1 0.692157,0.135294,0.447059,1 0.692157,0.135294,0.447059,1 0.692157,0.135294,0.447059,1 0.692157,0.135294,0.447059,1 0.692157,0.135294,0.447059,1 0.692157,0.135294,0.447059,1 0.692157,0.135294,0.447059,1 0.692157,0.135294,0.447059,1 0.692157,0.135294,0.447059,1 0.692157,0.135294,0.447059,1 0.692157,0.135294,0.447059,1 0.692157,0.135294,0.447059,1 0.692157,0.135294,0.447059,1 0.790196,0.164706,0.430719,1 0.790196,0.164706,0.430719,1 0.692157,0.135294,0.447059,1 0.692157,0.135294,0.447059,1 0.692157,0.135294,0.447059,1 0.692157,0.135294,0.447059,1 0.692157,0.135294,0.447059,1 0.790196,0.164706,0.430719,1 0.692157,0.135294,0.447059,1 0.692157,0.135294,0.447059,1 0.692157,0.135294,0.447059,1 0.692157,0.135294,0.447059,1 0.692157,0.135294,0.447059,1 0.692157,0.135294,0.447059,1 0.692157,0.135294,0.447059,1 0.692157,0.135294,0.447059,1 0.692157,0.135294,0.447059,1 0.692157,0.135294,0.447059,1 0.790196,0.164706,0.430719,1 0.790196,0.164706,0.430719,1 0.692157,0.135294,0.447059,1 0.692157,0.135294,0.447059,1 0.692157,0.135294,0.447059,1 0.692157,0.135294,0.447059,1 0.692157,0.135294,0.447059,1 0.692157,0.135294,0.447059,1 0.692157,0.135294,0.447059,1 0.692157,0.135294,0.447059,1 0.692157,0.135294,0.447059,1 0.790196,0.164706,0.430719,1 0.790196,0.164706,0.430719,1 0.692157,0.135294,0.447059,1 0.692157,0.135294,0.447059,1 0.692157,0.135294,0.447059,1 0.692157,0.135294,0.447059,1 0.692157,0.135294,0.447059,1 0.692157,0.135294,0.447059,1 0.692157,0.135294,0.447059,1 0.692157,0.135294,0.447059,1 0.692157,0.135294,0.447059,1 0.692157,0.135294,0.447059,1 0.692157,0.135294,0.447059,1 0.790196,0.164706,0.430719,1 0.790196,0.164706,0.430719,1 0.692157,0.135294,0.447059,1 0.692157,0.135294,0.447059,1 0.692157,0.135294,0.447059,1 0.692157,0.135294,0.447059,1 0.790196,0.164706,0.430719,1 0.790196,0.164706,0.430719,1 0.692157,0.135294,0.447059,1 0.692157,0.135294,0.447059,1 0.692157,0.135294,0.447059,1 0.692157,0.135294,0.447059,1 0.692157,0.135294,0.447059,1 0.790196,0.164706,0.430719,1 0.790196,0.164706,0.430719,1 0.692157,0.135294,0.447059,1 0.692157,0.135294,0.447059,1 0.692157,0.135294,0.447059,1 0.692157,0.135294,0.447059,1 0.790196,0.164706,0.430719,1 0.790196,0.164706,0.430719,1 0.692157,0.135294,0.447059,1 0.692157,0.135294,0.447059,1 0.692157,0.135294,0.447059,1 0.790196,0.164706,0.430719,1 0.790196,0.164706,0.430719,1 0.790196,0.164706,0.430719,1 0.692157,0.135294,0.447059,1 0.692157,0.135294,0.447059,1 0.692157,0.135294,0.447059,1 0.692157,0.135294,0.447059,1 0.790196,0.164706,0.430719,1 0.790196,0.164706,0.430719,1 0.790196,0.164706,0.430719,1 0.692157,0.135294,0.447059,1 0.692157,0.135294,0.447059,1 0.692157,0.135294,0.447059,1 0.692157,0.135294,0.447059,1 0.790196,0.164706,0.430719,1 0.790196,0.164706,0.430719,1 0.692157,0.135294,0.447059,1 0.692157,0.135294,0.447059,1 0.692157,0.135294,0.447059,1 0.692157,0.135294,0.447059,1 0.692157,0.135294,0.447059,1 0.790196,0.164706,0.430719,1 0.790196,0.164706,0.430719,1 0.692157,0.135294,0.447059,1 0.692157,0.135294,0.447059,1 0.692157,0.135294,0.447059,1 0.790196,0.164706,0.430719,1 0.790196,0.164706,0.430719,1 0.790196,0.164706,0.430719,1 0.692157,0.135294,0.447059,1 0.692157,0.135294,0.447059,1 0.692157,0.135294,0.447059,1 0.790196,0.164706,0.430719,1 0.790196,0.164706,0.430719,1 0.790196,0.164706,0.430719,1 0.790196,0.164706,0.430719,1 0.692157,0.135294,0.447059,1 0.692157,0.135294,0.447059,1 0.692157,0.135294,0.447059,1 0.790196,0.164706,0.430719,1 0.790196,0.164706,0.430719,1 0.692157,0.135294,0.447059,1 0.692157,0.135294,0.447059,1 0.692157,0.135294,0.447059,1 0.692157,0.135294,0.447059,1 0.692157,0.135294,0.447059,1 0.692157,0.135294,0.447059,1 0.790196,0.164706,0.430719,1 0.790196,0.164706,0.430719,1 0.692157,0.135294,0.447059,1 0.692157,0.135294,0.447059,1 0.692157,0.135294,0.447059,1 0.692157,0.135294,0.447059,1 0.692157,0.135294,0.447059,1 0.692157,0.135294,0.447059,1 0.692157,0.135294,0.447059,1 0.692157,0.135294,0.447059,1 0.692157,0.135294,0.447059,1 0.692157,0.135294,0.447059,1 0.692157,0.135294,0.447059,1 0.692157,0.135294,0.447059,1 0.692157,0.135294,0.447059,1 0.692157,0.135294,0.447059,1 0.692157,0.135294,0.447059,1 0.692157,0.135294,0.447059,1 0.692157,0.135294,0.447059,1 0.692157,0.135294,0.447059,1 0.692157,0.135294,0.447059,1 0.692157,0.135294,0.447059,1 0.692157,0.135294,0.447059,1 0.692157,0.135294,0.447059,1 0.790196,0.164706,0.430719,1 0.790196,0.164706,0.430719,1 0.692157,0.135294,0.447059,1 0.692157,0.135294,0.447059,1 0.692157,0.135294,0.447059,1 0.692157,0.135294,0.447059,1 0.692157,0.135294,0.447059,1 0.692157,0.135294,0.447059,1 0.790196,0.164706,0.430719,1 0.790196,0.164706,0.430719,1 0.692157,0.135294,0.447059,1 0.692157,0.135294,0.447059,1 0.692157,0.135294,0.447059,1 0.790196,0.164706,0.430719,1 0.692157,0.135294,0.447059,1 0.692157,0.135294,0.447059,1 0.692157,0.135294,0.447059,1 0.692157,0.135294,0.447059,1 0.692157,0.135294,0.447059,1 0.692157,0.135294,0.447059,1 0.692157,0.135294,0.447059,1 0.692157,0.135294,0.447059,1 0.692157,0.135294,0.447059,1 0.692157,0.135294,0.447059,1 0.790196,0.164706,0.430719,1 0.692157,0.135294,0.447059,1 0.692157,0.135294,0.447059,1 0.692157,0.135294,0.447059,1 0.692157,0.135294,0.447059,1 0.692157,0.135294,0.447059,1 0.692157,0.135294,0.447059,1 0.692157,0.135294,0.447059,1 0.790196,0.164706,0.430719,1 0.790196,0.164706,0.430719,1 0.790196,0.164706,0.430719,1 0.790196,0.164706,0.430719,1 0.790196,0.164706,0.430719,1 0.692157,0.135294,0.447059,1 0.790196,0.164706,0.430719,1 0.790196,0.164706,0.430719,1 0.790196,0.164706,0.430719,1 0.692157,0.135294,0.447059,1 0.692157,0.135294,0.447059,1 0.692157,0.135294,0.447059,1 0.692157,0.135294,0.447059,1 0.790196,0.164706,0.430719,1 0.790196,0.164706,0.430719,1 0.790196,0.164706,0.430719,1 0.692157,0.135294,0.447059,1 0.692157,0.135294,0.447059,1 0.692157,0.135294,0.447059,1 0.692157,0.135294,0.447059,1 0.692157,0.135294,0.447059,1 0.692157,0.135294,0.447059,1 0.692157,0.135294,0.447059,1 0.692157,0.135294,0.447059,1 0.692157,0.135294,0.447059,1 0.692157,0.135294,0.447059,1 0.692157,0.135294,0.447059,1 0.692157,0.135294,0.447059,1 0.790196,0.164706,0.430719,1 0.790196,0.164706,0.430719,1 0.790196,0.164706,0.430719,1 0.692157,0.135294,0.447059,1 0.692157,0.135294,0.447059,1 0.692157,0.135294,0.447059,1 0.790196,0.164706,0.430719,1 0.790196,0.164706,0.430719,1 0.790196,0.164706,0.430719,1 0.790196,0.164706,0.430719,1 0.790196,0.164706,0.430719,1 0.692157,0.135294,0.447059,1 0.692157,0.135294,0.447059,1 0.692157,0.135294,0.447059,1 0.692157,0.135294,0.447059,1 0.692157,0.135294,0.447059,1 0.692157,0.135294,0.447059,1 0.692157,0.135294,0.447059,1 0.692157,0.135294,0.447059,1 0.790196,0.164706,0.430719,1 0.790196,0.164706,0.430719,1 0.790196,0.164706,0.430719,1 "
       brushes="0,6.80386,6.80386 0,6.79081,6.79081 0,6.77776,6.77776 0,6.75104,6.75104 0,6.73551,6.73551 0,6.70071,6.70071 0,6.65473,6.65473 0,6.62552,6.62552 0,6.63795,6.63795 0,6.6802,6.6802 0,6.72432,6.72432 0,6.75912,6.75912 0,6.79019,6.79019 0,6.84736,6.84736 0,6.87843,6.87843 0,6.90887,6.90887 0,6.92814,6.92814 0,6.96977,6.96977 0,6.9822,6.9822 0,6.98468,6.98468 0,6.99773,6.99773 0,7.01575,7.01575 0,7.0027,7.0027 0,6.94926,6.94926 0,6.91074,6.91074 0,6.8747,6.8747 0,6.82064,6.82064 0,6.77465,6.77465 0,6.71873,6.71873 0,6.67834,6.67834 0,6.6684,6.6684 0,6.60874,6.60874 0,6.57208,6.57208 0,6.55655,6.55655 0,6.57208,6.57208 0,6.58264,6.58264 0,6.57332,6.57332 0,6.55592,6.55592 0,6.53853,6.53853 0,6.51864,6.51864 0,6.49068,6.49068 0,6.49876,6.49876 0,6.52858,6.52858 0,6.55779,6.55779 0,6.58699,6.58699 0,6.63919,6.63919 0,6.66591,6.66591 0,6.70879,6.70879 0,6.73364,6.73364 0,6.78149,6.78149 0,6.81442,6.81442 0,6.84301,6.84301 0,6.8834,6.8834 0,6.91012,6.91012 0,6.94243,6.94243 0,6.94553,6.94553 0,6.96293,6.96293 0,6.97225,6.97225 0,6.97101,6.97101 0,6.95548,6.95548 0,6.92503,6.92503 0,6.86538,6.86538 0,6.84425,6.84425 0,6.8138,6.8138 0,6.76782,6.76782 0,6.71749,6.71749 0,6.70195,6.70195 0,6.69139,6.69139 0,6.67772,6.67772 0,6.63484,6.63484 0,6.60999,6.60999 0,6.56711,6.56711 0,6.56462,6.56462 0,6.56276,6.56276 0,6.53853,6.53853 0,6.56152,6.56152 0,6.55903,6.55903 0,6.56027,6.56027 0,6.55965,6.55965 0,6.56027,6.56027 0,6.54847,6.54847 0,6.54847,6.54847 0,6.58513,6.58513 0,6.6336,6.6336 0,6.66653,6.66653 0,6.69574,6.69574 0,6.73613,6.73613 0,6.75539,6.75539 0,6.77838,6.77838 0,6.82809,6.82809 0,6.87035,6.87035 0,6.92441,6.92441 0,6.94305,6.94305 0,6.95921,6.95921 0,6.95921,6.95921 0,6.98158,6.98158 0,6.99649,6.99649 0,6.99835,6.99835 0,6.97598,6.97598 0,6.97598,6.97598 0,6.97039,6.97039 0,6.9387,6.9387 0,6.93497,6.93497 0,6.91944,6.91944 0,6.90266,6.90266 0,6.86538,6.86538 0,6.83928,6.83928 0,6.83741,6.83741 0,6.81256,6.81256 0,6.80075,6.80075 0,6.77465,6.77465 0,6.77155,6.77155 0,6.76906,6.76906 0,6.75042,6.75042 0,6.73923,6.73923 0,6.73923,6.73923 0,6.69884,6.69884 0,6.66964,6.66964 0,6.63733,6.63733 0,6.64168,6.64168 0,6.63981,6.63981 0,6.64975,6.64975 0,6.6597,6.6597 0,6.64975,6.64975 0,6.6628,6.6628 0,6.66405,6.66405 0,6.69512,6.69512 0,6.70444,6.70444 0,6.72556,6.72556 0,6.73488,6.73488 0,6.73488,6.73488 0,6.71686,6.71686 0,6.72991,6.72991 0,6.73986,6.73986 0,6.76844,6.76844 0,6.80448,6.80448 0,6.83741,6.83741 0,6.86227,6.86227 0,6.88153,6.88153 0,6.90639,6.90639 0,6.9387,6.9387 0,6.96728,6.96728 0,7.01886,7.01886 0,7.04185,7.04185 0,7.06671,7.06671 0,7.09715,7.09715 0,7.09715,7.09715 0,7.11828,7.11828 0,7.11704,7.11704 0,7.1158,7.1158 0,7.0984,7.0984 0,7.09591,7.09591 0,7.06733,7.06733 0,7.05863,7.05863 0,7.04309,7.04309 0,7.04185,7.04185 0,7.00767,7.00767 0,7.00767,7.00767 0,6.98841,6.98841 0,6.96418,6.96418 0,6.96293,6.96293 0,6.91322,6.91322 0,6.9126,6.9126 0,6.89085,6.89085 0,6.83928,6.83928 0,6.82809,6.82809 0,6.81691,6.81691 0,6.76285,6.76285 0,6.75353,6.75353 0,6.74421,6.74421 0,6.74793,6.74793 0,6.74793,6.74793 0,6.76906,6.76906 0,6.79205,6.79205 0,6.78087,6.78087 0,6.81194,6.81194 0,6.81194,6.81194 0,6.84363,6.84363 0,6.88402,6.88402 0,6.90142,6.90142 0,6.9126,6.9126 0,7.01016,7.01016 0,7.07665,7.07665 0,7.10523,7.10523 0,7.145,7.145 0,7.17172,7.17172 0,7.2003,7.2003 0,7.24194,7.24194 0,7.2699,7.2699 0,7.28916,7.28916 0,7.29724,7.29724 0,7.296,7.296 0,7.27922,7.27922 0,7.24691,7.24691 0,7.19968,7.19968 0,7.14065,7.14065 0,7.08348,7.08348 0,7.0375,7.0375 0,7.02197,7.02197 0,7.00581,7.00581 0,7.00767,7.00767 0,7.01016,7.01016 0,6.98033,6.98033 0,6.96356,6.96356 0,6.94616,6.94616 0,6.91944,6.91944 0,6.88526,6.88526 0,6.86973,6.86973 0,6.88526,6.88526 0,6.9561,6.9561 0,6.98841,6.98841 0,6.98841,6.98841 0,7.0288,7.0288 0,7.05676,7.05676 0,7.05738,7.05738 0,7.07478,7.07478 0,7.1071,7.1071 0,7.11517,7.11517 0,7.13816,7.13816 0,7.18725,7.18725 0,7.20714,7.20714 0,7.21087,7.21087 0,7.22019,7.22019 0,7.26369,7.26369 0,7.27736,7.27736 0,7.30035,7.30035 0,7.3308,7.3308 0,7.35317,7.35317 0,7.36249,7.36249 0,7.38734,7.38734 0,7.41173,7.41173 0,7.44032,7.44032 0,7.4515,7.4515 0,7.47573,7.47573 0,7.49686,7.49686 0,7.51861,7.51861 0,7.52793,7.52793 0,7.54844,7.54844 0,7.54968,7.54968 0,7.52296,7.52296 0,7.48754,7.48754 0,7.45896,7.45896 0,7.44094,7.44094 0,7.43348,7.43348 0,7.41608,7.41608 0,7.408,7.408 0,7.40676,7.40676 0,7.3993,7.3993 0,7.35814,7.35814 0,7.32272,7.32272 0,7.29227,7.29227 0,7.30345,7.30345 0,7.30035,7.30035 0,7.2991,7.2991 0,7.30967,7.30967 0,7.3308,7.3308 0,7.33452,7.33452 0,7.36062,7.36062 0,7.36249,7.36249 0,7.38858,7.38858 0,7.40925,7.40925 0,7.44901,7.44901 0,7.47138,7.47138 0,7.48319,7.48319 0,7.50245,7.50245 0,7.51675,7.51675 0,7.54844,7.54844 0,7.56024,7.56024 0,7.60685,7.60685 0,7.63729,7.63729 0,7.64599,7.64599 0,7.65842,7.65842 0,7.66774,7.66774 0,7.66774,7.66774 0,7.66339,7.66339 0,7.66526,7.66526 0,7.66588,7.66588 0,7.65469,7.65469 0,7.65159,7.65159 0,7.6025,7.6025 0,7.58572,7.58572 0,7.55962,7.55962 0,7.54098,7.54098 0,7.53166,7.53166 0,7.49997,7.49997 0,7.4776,7.4776 0,7.3993,7.3993 0,7.37864,7.37864 0,7.41235,7.41235 0,7.43162,7.43162 0,7.44839,7.44839 0,7.47573,7.47573 0,7.4894,7.4894 0,7.4894,7.4894 0,7.51923,7.51923 0,7.55092,7.55092 0,7.56459,7.56459 0,7.56708,7.56708 0,7.5764,7.5764 0,7.58572,7.58572 0,7.58386,7.58386 0,7.59131,7.59131 0,7.63667,7.63667 0,7.6491,7.6491 0,7.66029,7.66029 0,7.69198,7.69198 0,7.70441,7.70441 0,7.72305,7.72305 0,7.73423,7.73423 0,7.7448,7.7448 0,7.75847,7.75847 0,7.7827,7.7827 0,7.79202,7.79202 0,7.81066,7.81066 0,7.84422,7.84422 0,7.84608,7.84608 0,7.82185,7.82185 0,7.80134,7.80134 0,7.78643,7.78643 0,7.76033,7.76033 0,7.73237,7.73237 0,7.67209,7.67209 0,7.64227,7.64227 0,7.61306,7.61306 0,7.5851,7.5851 0,7.559,7.559 0,7.54222,7.54222 0,7.5211,7.5211 0,7.4894,7.4894 0,7.45709,7.45709 0,7.47946,7.47946 0,7.51737,7.51737 0,7.55092,7.55092 0,7.59069,7.59069 0,7.60374,7.60374 0,7.63419,7.63419 0,7.64786,7.64786 0,7.70006,7.70006 0,7.71683,7.71683 0,7.72429,7.72429 0,7.72367,7.72367 0,7.7361,7.7361 0,7.73796,7.73796 0,7.76033,7.76033 0,7.78829,7.78829 0,7.79078,7.79078 0,7.81315,7.81315 0,7.82123,7.82123 0,7.83241,7.83241 0,7.83428,7.83428 0,7.86099,7.86099 0,7.8815,7.8815 0,7.90014,7.90014 0,7.90884,7.90884 0,7.91008,7.91008 0,7.89144,7.89144 0,7.86162,7.86162 0,7.82558,7.82558 0,7.82495,7.82495 0,7.82558,7.82558 0,7.77897,7.77897 0,7.76406,7.76406 0,7.73858,7.73858 0,7.70441,7.70441 0,7.66899,7.66899 0,7.66526,7.66526 0,7.6199,7.6199 0,7.56956,7.56956 0,7.54284,7.54284 0,7.53912,7.53912 0,7.55651,7.55651 0,7.56459,7.56459 0,7.58137,7.58137 0,7.62797,7.62797 0,7.64164,7.64164 0,7.67893,7.67893 0,7.72988,7.72988 0,7.72988,7.72988 0,7.73112,7.73112 0,7.72926,7.72926 0,7.74417,7.74417 0,7.7653,7.7653 0,7.77586,7.77586 0,7.80693,7.80693 0,7.81626,7.81626 0,7.838,7.838 0,7.86472,7.86472 0,7.87529,7.87529 0,7.88585,7.88585 0,7.90139,7.90139 0,7.91195,7.91195 0,7.92127,7.92127 0,7.92003,7.92003 0,7.91008,7.91008 0,7.89331,7.89331 0,7.87094,7.87094 0,7.85851,7.85851 0,7.83428,7.83428 0,7.80072,7.80072 0,7.77835,7.77835 0,7.72988,7.72988 0,7.67893,7.67893 0,7.66401,7.66401 0,7.65594,7.65594 0,7.63481,7.63481 0,7.6143,7.6143 0,7.62238,7.62238 0,7.63978,7.63978 0,7.65842,7.65842 0,7.68452,7.68452 0,7.71994,7.71994 0,7.73299,7.73299 0,7.77586,7.77586 0,7.78456,7.78456 0,7.78705,7.78705 0,7.78767,7.78767 0,7.81936,7.81936 0,7.85913,7.85913 0,7.86037,7.86037 0,7.90325,7.90325 0,7.94985,7.94985 0,7.9511,7.9511 0,7.95172,7.95172 0,7.84297,7.84297 0,7.7274,7.7274 0,7.58075,7.58075 0,7.29041,7.29041 0,6.88153,6.88153 0,4,4 "
       timeStamps="203.481 203.493 203.509 203.52 203.53 203.54 203.553 203.564 203.577 203.589 203.602 203.614 203.625 203.638 203.651 203.662 203.675 203.688 203.699 203.712 203.724 203.736 203.749 203.761 203.773 203.786 203.799 203.81 203.822 203.835 203.847 203.859 203.872 203.883 203.896 203.909 203.921 203.933 203.946 203.958 203.97 203.982 203.995 204.005 204.017 204.03 204.041 204.054 204.065 204.079 204.09 204.103 204.115 204.126 204.139 204.151 204.162 204.175 204.187 204.2 204.211 204.223 204.235 204.248 204.259 204.273 204.283 204.295 204.307 204.318 204.331 204.343 204.355 204.367 204.379 204.391 204.403 204.415 204.427 204.439 204.452 204.463 204.476 204.487 204.5 204.511 204.524 204.537 204.55 204.562 204.575 204.587 204.6 204.614 204.626 204.638 204.651 204.663 204.675 204.687 204.7 204.711 204.723 204.736 204.748 204.759 204.772 204.783 204.796 204.808 204.821 204.833 204.845 204.857 204.869 204.882 204.893 204.906 204.917 204.93 204.942 204.954 204.966 204.978 204.991 205.003 205.015 205.027 205.039 205.052 205.064 205.076 205.088 205.101 205.114 205.126 205.14 205.152 205.165 205.176 205.189 205.201 205.213 205.225 205.237 205.25 205.261 205.274 205.287 205.3 205.312 205.325 205.337 205.348 205.36 205.373 205.386 205.398 205.411 205.423 205.434 205.447 205.459 205.473 205.485 205.498 205.51 205.523 205.534 205.547 205.56 205.571 205.584 205.596 205.609 205.621 205.634 205.646 205.659 205.671 205.683 205.696 205.709 205.722 205.734 205.746 205.759 205.771 205.783 205.797 205.81 205.821 205.834 205.846 205.858 205.871 205.883 205.896 205.907 205.921 205.933 205.945 205.958 205.97 205.983 205.995 206.008 206.021 206.034 206.045 206.058 206.07 206.081 206.094 206.107 206.119 206.132 206.145 206.157 206.17 206.182 206.194 206.206 206.218 206.231 206.243 206.256 206.267 206.281 206.293 206.306 206.318 206.331 206.344 206.356 206.368 206.381 206.394 206.406 206.419 206.431 206.443 206.456 206.468 206.481 206.493 206.507 206.518 206.531 206.543 206.555 206.567 206.58 206.592 206.605 206.618 206.63 206.643 206.655 206.669 206.681 206.693 206.705 206.717 206.73 206.741 206.754 206.766 206.778 206.791 206.803 206.816 206.828 206.841 206.853 206.865 206.877 206.889 206.902 206.915 206.927 206.94 206.951 206.964 206.977 206.989 207.039 207.049 207.117 207.127 207.138 207.149 207.158 207.168 207.179 207.189 207.199 207.21 207.22 207.23 207.24 207.251 207.263 207.275 207.289 207.3 207.313 207.325 207.337 207.35 207.361 207.374 207.386 207.399 207.412 207.424 207.436 207.447 207.46 207.472 207.485 207.497 207.51 207.521 207.534 207.546 207.558 207.571 207.583 207.596 207.608 207.62 207.633 207.645 207.657 207.671 207.683 207.695 207.709 207.72 207.733 207.746 207.758 207.771 207.783 207.795 207.808 207.82 207.833 207.846 207.857 207.871 207.882 207.895 207.907 207.919 207.931 207.943 207.961 207.97 207.982 207.993 208.008 208.021 208.034 208.046 208.059 208.071 208.083 208.097 208.109 208.122 208.135 208.147 208.16 208.173 208.185 208.197 208.209 208.222 208.234 208.246 208.259 208.272 208.283 208.297 208.309 208.322 208.334 208.346 208.358 208.372 208.383 208.396 208.407 208.42 208.432 208.444 208.457 208.47 208.481 208.494 208.506 208.519 208.531 208.542 208.556 208.567 208.581 208.593 208.606 208.617 208.631 208.642 208.655 208.667 208.679 208.691 208.703 208.716 208.728 208.741 208.754 208.767 208.778 208.791 208.804 208.815 208.828 "
       id="path0004"
       style="fill:none;stroke:#000000;stroke-opacity:1;stroke-width:4px" />
  </g>
</svg>
