<?xml version="1.0" encoding="UTF-8" standalone="no"?>
<!-- Created with Inkscape (http://www.inkscape.org/) -->

<svg
   xmlns:dc="http://purl.org/dc/elements/1.1/"
   xmlns:cc="http://creativecommons.org/ns#"
   xmlns:rdf="http://www.w3.org/1999/02/22-rdf-syntax-ns#"
   xmlns:svg="http://www.w3.org/2000/svg"
   xmlns="http://www.w3.org/2000/svg"
   version="1.1"
   width="1920"
   height="1080"
   id="svg2">
  <defs
     id="defs4" />
  <metadata
     id="metadata7">
    <rdf:RDF>
      <cc:Work
         rdf:about="">
        <dc:format>image/svg+xml</dc:format>
        <dc:type
           rdf:resource="http://purl.org/dc/dcmitype/StillImage" />
        <dc:title></dc:title>
      </cc:Work>
    </rdf:RDF>
  </metadata>
  <g
     transform="translate(0.0,0.0)"
     id="layer1">
    <path
       initial_time="234.589000"
       final_time="240.154000"
       d="M 830,222 M 830,222 M 830,222 M 830,222 M 830,222 C 829.807,222.638 828.649,221.847 828,222 C 829.807,222.638 828.649,221.847 828,222 C 829.807,222.638 828.649,221.847 828,222 C 827.275,222.171 826.527,222.473 826,223 C 827.275,222.171 826.527,222.473 826,223 C 827.275,222.171 826.527,222.473 826,223 C 825.473,223.527 825.333,224.333 825,225 C 825.473,223.527 825.333,224.333 825,225 C 824.667,225.667 824.285,226.311 824,227 C 824.667,225.667 824.285,226.311 824,227 C 823.597,227.974 823.169,228.96 823,230 C 822.84,230.987 823,232 823,233 C 822.84,230.987 823,232 823,233 C 823,233.667 822.847,234.351 823,235 C 823,233.667 822.847,234.351 823,235 C 823.171,235.725 823.564,236.395 824,237 C 824.551,237.765 825.235,238.449 826,239 C 824.551,237.765 825.235,238.449 826,239 C 826.605,239.436 827.275,239.829 828,240 C 828.973,240.23 830.013,240.16 831,240 C 828.973,240.23 830.013,240.16 831,240 C 832.04,239.831 833.066,239.489 834,239 C 835.476,238.226 836.932,237.28 838,236 C 838.478,235.428 838.564,234.605 839,234 C 839.551,233.235 840.449,232.765 841,232 C 841.436,231.395 841.829,230.725 842,230 C 842.153,229.351 841.847,228.649 842,228 C 842.171,227.275 842.829,226.725 843,226 C 842.171,227.275 842.829,226.725 843,226 C 843.153,225.351 843.107,224.658 843,224 C 843.153,225.351 843.107,224.658 843,224 C 842.831,222.96 842.691,221.796 842,221 C 841.512,220.437 840.667,220.333 840,220 C 839.333,219.667 838.725,219.171 838,219 C 837.351,218.847 836.667,219 836,219 C 835,219 834,219 833,219 C 832.333,219 831.667,219 831,219 C 830.333,219 829.662,218.919 829,219 C 830.333,219 829.662,218.919 829,219 C 827.636,219.168 826.289,219.523 825,220 C 827.636,219.168 826.289,219.523 825,220 C 827.636,219.168 826.289,219.523 825,220 C 824.301,220.259 823.605,220.564 823,221 C 824.301,220.259 823.605,220.564 823,221 C 822.235,221.551 821.361,222.129 821,223 C 820.745,223.616 821,224.333 821,225 C 821,225.667 821,226.333 821,227 C 821,227.667 821,228.333 821,229 C 821,230 820.77,231.027 821,232 C 821.171,232.725 821.667,233.333 822,234 C 822.333,234.667 822.626,235.355 823,236 C 823.603,237.039 824.238,238.071 825,239 C 825.598,239.729 826.449,240.235 827,241 C 827.436,241.605 827.507,242.441 828,243 C 828.795,243.901 829.85,244.652 831,245 C 831.638,245.193 832.338,244.919 833,245 C 834.364,245.168 835.636,245.832 837,246 C 837.662,246.081 838.342,246.107 839,246 C 840.04,245.831 840.988,245.295 842,245 C 843.32,244.616 844.73,244.526 846,244 C 847.796,243.256 849.593,242.341 851,241 C 851.87,240.171 852.306,238.981 853,238 C 853.963,236.639 854.908,235.259 856,234 C 856.618,233.288 857.402,232.729 858,232 C 858.762,231.071 859.54,230.11 860,229 C 860.65,227.43 860.448,225.608 861,224 C 861.242,223.295 861.829,222.725 862,222 C 862.306,220.702 862.306,219.298 862,218 C 861.829,217.275 861.527,216.527 861,216 C 860.473,215.473 859.605,215.436 859,215 C 858.235,214.449 857.765,213.551 857,213 C 856.698,212.782 855.344,212.143 855,212 C 854.026,211.597 853.019,211.271 852,211 C 850.357,210.564 848.691,210.167 847,210 C 845.673,209.869 844.333,210 843,210 C 841.667,210 840.327,209.869 839,210 C 837.309,210.167 835.691,210.833 834,211 C 833.337,211.066 832.649,210.847 832,211 C 831.637,211.086 830.322,211.813 830,212 C 828.961,212.603 828.039,213.397 827,214 C 826.355,214.374 825.667,214.667 825,215 C 826.355,214.374 825.667,214.667 825,215 C 824.333,215.333 823.559,215.507 823,216 C 822.099,216.795 821.667,218 821,219 C 820.333,220 819.348,220.85 819,222 C 818.71,222.957 819.16,224.013 819,225 C 818.831,226.04 818.295,226.988 818,228 C 817.616,229.32 817.168,230.636 817,232 C 816.878,232.993 817,234 817,235 C 817,236.333 817,237.667 817,239 C 817,240.667 816.733,242.355 817,244 C 817.169,245.04 817.667,246 818,247 C 818.333,248 818.446,249.103 819,250 C 819.743,251.203 821.103,251.906 822,253 C 822.762,253.929 823.15,255.15 824,256 C 824.85,256.85 826,257.333 827,258 C 828,258.667 828.901,259.514 830,260 C 830.314,260.139 833.665,260.925 834,261 C 835.658,261.373 837.301,262.04 839,262 C 839.687,261.984 842.346,261.211 843,261 C 844.708,260.448 846.362,259.735 848,259 C 850.04,258.084 852.116,257.205 854,256 C 855.798,254.85 857.41,253.423 859,252 C 859.703,251.371 860.333,250.667 861,250 C 862,249 863.173,248.147 864,247 C 864.436,246.395 864.626,245.645 865,245 C 865.603,243.961 866.54,243.11 867,242 C 867.65,240.43 867.833,238.691 868,237 C 868.131,235.673 868,234.333 868,233 C 868,231.667 868.163,230.323 868,229 C 867.832,227.636 867.556,226.257 867,225 C 866.514,223.901 865.762,222.929 865,222 C 864.103,220.906 863,220 862,219 C 861.333,218.333 860.765,217.551 860,217 C 858.791,216.128 857.289,215.748 856,215 C 854.961,214.397 854.11,213.46 853,213 C 851.43,212.35 849.691,212.167 848,212 C 847.005,211.901 846,212 845,212 C 843.333,212 841.667,212 840,212 C 839,212 838,212 837,212 C 835.333,212 833.667,212 832,212 C 831.333,212 830.658,211.893 830,212 C 828.96,212.169 828.04,212.831 827,213 C 828.96,212.169 828.04,212.831 827,213 C 826.342,213.107 825.616,212.745 825,213 C 824.347,213.271 822.413,215.426 822,216 C 821.564,216.605 821.333,217.333 821,218 C 820.333,219.333 819.504,220.597 819,222 C 817.495,226.185 816.503,230.581 816,235 C 815.887,235.994 815.729,237.037 816,238 C 817.905,244.769 822.269,250.797 827,256 C 817.905,244.769 822.269,250.797 827,256 C 828.121,257.233 829.547,258.183 831,259 C 832.565,259.879 834.362,260.265 836,261 C 836.68,261.305 837.275,261.829 838,262 C 838.973,262.23 840,262 841,262 C 842,262 843.008,262.122 844,262 C 842,262 843.008,262.122 844,262 C 844.682,261.916 847.34,261.192 848,261 C 850.024,260.411 852.106,259.926 854,259 C 855.08,258.472 856.071,257.762 857,257 C 857.729,256.402 858.271,255.598 859,255 C 859.929,254.238 861.15,253.85 862,253 C 862.85,252.15 863.306,250.981 864,250 C 864.963,248.639 866.227,247.476 867,246 C 867.489,245.066 867.537,243.947 868,243 C 868.528,241.92 869.54,241.11 870,240 C 870.65,238.43 870.833,236.691 871,235 C 871.099,234.005 871,233 871,232 C 871,230.667 871.306,229.298 871,228 C 870.658,226.549 869.667,225.333 869,224 C 868.667,223.333 868.436,222.605 868,222 C 867.173,220.853 866,220 865,219 C 864.333,218.333 863.765,217.551 863,217 C 862.395,216.564 861.667,216.333 861,216 C 859.667,215.333 858.377,214.57 857,214 C 856.026,213.597 855.019,213.271 854,213 C 852.357,212.564 850.691,212.167 849,212 C 847.341,211.836 845.667,212 844,212 C 843,212 842,212 841,212 C 840,212 839,212 838,212 C 836.333,212 834.654,211.796 833,212 C 831.636,212.168 830.289,212.523 829,213 C 827.602,213.517 826.377,214.43 825,215 C 824.026,215.403 822.974,215.597 822,216 C 820.623,216.57 819.289,217.252 818,218 C 816.961,218.603 815.929,219.238 815,220 C 813.906,220.897 813,222 812,223 C 811.333,223.667 810.519,224.213 810,225 C 809.506,225.749 808.276,229.146 808,230 C 807.577,231.308 807.168,232.636 807,234 C 806.796,235.654 806.863,237.339 807,239 C 807.084,240.01 807.794,244.007 808,245 C 808.28,246.346 808.523,247.711 809,249 C 809.517,250.398 810.333,251.667 811,253 C 812,255 812.878,257.066 814,259 C 814.603,260.039 815.357,260.984 816,262 C 817.039,263.642 817.961,265.358 819,267 C 819.643,268.016 820.238,269.071 821,270 C 822.195,271.458 823.576,272.765 825,274 C 825.63,274.546 828.32,276.519 829,277 C 829.981,277.694 830.961,278.397 832,279 C 833.289,279.748 834.582,280.539 836,281 C 837.928,281.627 839.979,281.833 842,282 C 843.329,282.11 844.671,282.11 846,282 C 847.01,281.916 851.007,281.206 852,281 C 853.346,280.72 854.743,280.556 856,280 C 858.198,279.028 860.141,277.524 862,276 C 863.094,275.103 864,274 865,273 C 866.667,271.333 868.333,269.667 870,268 C 871,267 872.173,266.147 873,265 C 873.654,264.093 875.542,260.02 876,259 C 876.735,257.362 877.448,255.708 878,254 C 878.846,251.385 879.664,248.728 880,246 C 880.326,243.353 880,240.667 880,238 C 880,237 880.071,235.997 880,235 C 879.833,232.649 879.703,230.25 879,228 C 878.667,226.933 876.561,222.967 876,222 C 875.397,220.961 874.87,219.829 874,219 C 873.648,218.665 869.426,216.234 869,216 C 867.693,215.283 866.41,214.484 865,214 C 864.598,213.862 860.418,213.077 860,213 C 858.006,212.634 856.021,212.167 854,212 C 851.675,211.808 849.333,212 847,212 C 845.667,212 844.329,211.89 843,212 C 840.979,212.167 838.953,212.454 837,213 C 835.271,213.484 833.763,214.661 832,215 C 831.018,215.189 829.957,214.71 829,215 C 827.85,215.348 827.039,216.397 826,217 C 825.355,217.374 824.527,217.473 824,218 C 823.473,218.527 823.436,219.395 823,220 C 822.173,221.147 820.827,221.853 820,223 C 819.128,224.209 818.517,225.602 818,227 C 817.523,228.289 817.477,229.711 817,231 C 816.483,232.398 815.461,233.582 815,235 C 814.373,236.928 814.167,238.979 814,241 C 813.89,242.329 814,243.667 814,245 C 814,246.667 813.769,248.349 814,250 C 814.337,252.403 815.12,254.738 816,257 C 816.54,258.389 817.252,259.711 818,261 C 819.206,263.079 820.794,264.921 822,267 C 822.748,268.289 823.128,269.791 824,271 C 824.689,271.956 828.11,275.228 829,276 C 830.259,277.092 831.582,278.124 833,279 C 833.317,279.196 834.66,279.847 835,280 C 836.638,280.735 838.279,281.488 840,282 C 841.629,282.484 843.309,282.833 845,283 C 846.327,283.131 847.702,283.306 849,283 C 851.176,282.486 852.96,280.916 855,280 C 856.638,279.265 858.435,278.879 860,278 C 860.363,277.796 863.673,275.258 864,275 C 866.042,273.385 868.207,271.887 870,270 C 871.148,268.792 871.908,267.259 873,266 C 874.544,264.219 876.622,262.912 878,261 C 879.307,259.186 880,257 881,255 C 881.667,253.667 882.43,252.377 883,251 C 883.807,249.052 884.662,247.081 885,245 C 885.267,243.355 885,241.667 885,240 C 885,238.333 885.118,236.662 885,235 C 884.833,232.649 884.453,230.313 884,228 C 883.736,226.651 883.61,225.232 883,224 C 882.053,222.087 880.509,220.509 879,219 C 877.491,217.491 875.913,215.947 874,215 C 872.768,214.39 871.289,214.477 870,214 C 868.602,213.483 867.423,212.444 866,212 C 863.75,211.297 861.329,211.36 859,211 C 856.996,210.69 855.021,210.167 853,210 C 850.342,209.78 847.667,210 845,210 C 842.667,210 840.322,209.77 838,210 C 837.154,210.084 833.829,210.814 833,211 C 831.659,211.302 830.32,211.616 829,212 C 826.976,212.589 824.894,213.074 823,214 C 822.46,214.264 820.491,215.653 820,216 C 818.639,216.963 817.145,217.789 816,219 C 815.587,219.437 814.302,221.48 814,222 C 813.252,223.289 812.517,224.602 812,226 C 811.523,227.289 811.477,228.711 811,230 C 810.483,231.398 809.461,232.582 809,234 C 808.373,235.928 808.413,238.015 808,240 C 807.72,241.346 807.168,242.636 807,244 C 806.715,246.316 807,248.667 807,251 C 807,253 806.622,255.036 807,257 C 807.042,257.22 808.914,261.793 809,262 C 809.971,264.345 810.844,266.74 812,269 C 812.885,270.731 813.915,272.387 815,274 C 815.93,275.383 817.037,276.639 818,278 C 819.388,279.962 820.376,282.228 822,284 C 822.361,284.393 826.578,287.673 827,288 C 828.318,289.021 829.582,290.124 831,291 C 832.902,292.176 834.903,293.224 837,294 C 838.289,294.477 839.667,294.667 841,295 C 842.333,295.333 843.651,295.736 845,296 C 847.313,296.453 849.646,297.121 852,297 C 852.686,296.965 855.34,296.192 856,296 C 858.024,295.411 859.976,294.589 862,294 C 863.32,293.616 864.743,293.556 866,293 C 868.198,292.028 870.141,290.524 872,289 C 873.823,287.506 875.456,285.781 877,284 C 878.092,282.741 879,281.333 880,280 C 881,278.667 882.124,277.418 883,276 C 883.784,274.732 886.389,269.36 887,268 C 888.471,264.725 890.033,261.457 891,258 C 891.137,257.512 891.927,252.502 892,252 C 892.388,249.341 892.833,246.682 893,244 C 893.104,242.337 893.383,240.622 893,239 C 892.914,238.637 891.179,235.327 891,235 C 890.065,233.296 889.039,231.642 888,230 C 887.357,228.984 886.812,227.886 886,227 C 884.558,225.427 882.831,224.097 881,223 C 880.728,222.837 874.293,220.121 874,220 C 872.342,219.313 870.708,218.552 869,218 C 866.385,217.154 863.702,216.505 861,216 C 858.358,215.507 855.682,215.167 853,215 C 851.337,214.896 849.667,215 848,215 C 846,215 843.981,214.723 842,215 C 839.597,215.337 837.358,216.428 835,217 C 833.348,217.4 831.623,217.496 830,218 C 827.576,218.753 825.26,219.844 823,221 C 827.576,218.753 825.26,219.844 823,221 C 821.269,221.885 819.596,222.89 818,224 C 816.248,225.218 814.342,226.34 813,228 C 812.063,229.159 811.872,230.791 811,232 C 810.449,232.765 809.445,233.169 809,234 C 808.198,235.499 808.436,237.357 808,239 C 807.729,240.019 807.169,240.96 807,242 C 806.68,243.974 807,246 807,248 C 807,250.333 807,252.667 807,255 C 807,255.667 806.919,256.338 807,257 C 807.168,258.364 808.616,263.68 809,265 C 809.884,268.036 810.912,271.031 812,274 C 812.617,275.686 813.265,277.362 814,279 C 815.221,281.72 816.667,284.333 818,287 C 818.667,288.333 819.184,289.752 820,291 C 820.712,292.089 824.122,296.039 825,297 C 825.954,298.044 826.946,299.057 828,300 C 829.59,301.423 831.087,303.053 833,304 C 833.308,304.152 836.665,304.925 837,305 C 838.658,305.373 840.309,305.833 842,306 C 843.327,306.131 844.684,306.214 846,306 C 846.52,305.916 848.507,305.187 849,305 C 851.373,304.098 853.898,303.423 856,302 C 857.561,300.943 858.667,299.333 860,298 C 862,296 864.147,294.137 866,292 C 868.184,289.482 870.248,286.836 872,284 C 872.588,283.049 874.523,279.011 875,278 C 876.401,275.031 878.005,272.129 879,269 C 879.258,268.19 880.847,259.836 881,259 C 881.366,257.006 881.634,254.994 882,253 C 882.306,251.328 882.833,249.691 883,248 C 883.164,246.341 883,244.667 883,243 C 883,241.667 883.306,240.298 883,239 C 882.829,238.275 881.374,235.645 881,235 C 880.397,233.961 879.762,232.929 879,232 C 877.805,230.542 876.405,229.258 875,228 C 874.205,227.288 870.844,224.654 870,224 C 868.682,222.979 867.383,221.93 866,221 C 864.387,219.915 862.783,218.774 861,218 C 858.774,217.034 856.296,216.785 854,216 C 852.301,215.419 850.738,214.448 849,214 C 847.699,213.664 842.341,213.083 841,213 C 839.337,212.896 837.667,213 836,213 C 833.667,213 831.322,212.77 829,213 C 827.309,213.167 825.672,213.694 824,214 C 822.006,214.366 819.928,214.373 818,215 C 816.582,215.461 815.333,216.333 814,217 C 812.667,217.667 811.209,218.128 810,219 C 809.235,219.551 808.496,220.198 808,221 C 807.446,221.897 807.333,223 807,224 C 806.333,226 805.508,227.954 805,230 C 804.511,231.968 804.366,234.006 804,236 C 803.694,237.672 803.167,239.309 803,241 C 802.803,242.99 803,245 803,247 C 803,248.667 802.769,250.349 803,252 C 803.337,254.403 804.372,256.656 805,259 C 805.711,261.655 806.046,264.422 807,267 C 807.259,267.699 807.686,268.324 808,269 C 809.068,271.303 809.844,273.74 811,276 C 811.885,277.731 812.804,279.468 814,281 C 815.16,282.486 816.542,283.805 818,285 C 819.859,286.524 822.038,287.612 824,289 C 825.361,289.963 826.495,291.284 828,292 C 828.62,292.295 831.327,292.86 832,293 C 833.985,293.413 835.979,293.833 838,294 C 840.325,294.192 842.729,294.536 845,294 C 845.725,293.829 848.35,292.365 849,292 C 851.743,290.462 854.435,288.819 857,287 C 858.741,285.766 860.465,284.483 862,283 C 864.21,280.864 866.144,278.45 868,276 C 870.177,273.126 872.416,270.239 874,267 C 874.463,266.053 874.637,264.99 875,264 C 876.235,260.629 877.765,257.371 879,254 C 880.088,251.031 881.493,248.121 882,245 C 882.374,242.697 882,240.333 882,238 C 882,235.333 882.613,232.595 882,230 C 881.743,228.912 879.561,224.967 879,224 C 878.397,222.961 877.762,221.929 877,221 C 876.103,219.906 875.115,218.87 874,218 C 872.468,216.804 870.813,215.701 869,215 C 867.415,214.387 865.658,214.373 864,214 C 862.659,213.698 861.364,213.168 860,213 C 858.015,212.756 856,213 854,213 C 852.333,213 850.645,212.733 849,213 C 847.96,213.169 843.974,214.597 843,215 C 841.623,215.57 840.289,216.252 839,217 C 837.961,217.603 836.873,218.174 836,219 C 835.697,219.286 833.241,222.66 833,223 C 832.306,223.981 831.504,224.909 831,226 C 829.981,228.203 829.337,230.597 829,233 C 828.676,235.311 829,237.667 829,240 C 829,241.667 829,243.333 829,245 C 829,246.333 829,247.667 829,249 C 829,252 828.704,255.015 829,258 C 829.084,258.846 829.814,262.171 830,263 C 830.302,264.341 830.644,265.672 831,267 C 831.628,269.344 832.428,271.642 833,274 C 833.4,275.652 833.404,277.408 834,279 C 834.942,281.517 836.369,283.864 838,286 C 838.858,287.124 839.932,288.073 841,289 C 842.259,290.092 843.507,291.259 845,292 C 846.087,292.54 850.813,293.747 852,294 C 854.305,294.492 856.644,295.065 859,295 C 860.699,294.953 862.392,294.552 864,294 C 866.82,293.032 869.489,291.607 872,290 C 873.798,288.85 875.41,287.423 877,286 C 878.756,284.428 880.477,282.798 882,281 C 883.853,278.812 885.624,276.516 887,274 C 887.431,273.212 888.691,269.843 889,269 C 890.088,266.031 891.065,263.021 892,260 C 892.717,257.682 893.663,255.403 894,253 C 894.185,251.68 894,250.333 894,249 C 894.185,251.68 894,250.333 894,249 C 894,248 894.16,246.987 894,246 C 894,248 894.16,246.987 894,246 C 893.831,244.96 893.691,243.796 893,243 C 893.831,244.96 893.691,243.796 893,243 C 893.831,244.96 893.691,243.796 893,243 C 892.512,242.437 891.667,242.333 891,242 C 890.333,241.667 889.667,241.333 889,241 C 890.333,241.667 889.667,241.333 889,241 C 888.333,240.667 887.645,240.374 887,240 C 885.961,239.397 885.15,238.348 884,238 C 883.043,237.71 882,238 881,238 C 879.667,238 878.323,237.837 877,238 C 875.636,238.168 874.27,238.474 873,239 C 871.204,239.744 869.571,240.855 868,242 C 865.136,244.086 862.336,246.336 860,249 C 858.415,250.807 857.159,252.894 856,255 C 854.417,257.876 852.907,260.845 852,264 C 851.349,266.265 851.167,268.649 851,271 C 850.882,272.662 850.617,274.378 851,276 C 851.086,276.363 852.821,279.673 853,280 C 853.935,281.704 854.804,283.468 856,285 C 856.58,285.743 857.18,286.535 858,287 C 858.598,287.339 861.318,287.916 862,288 C 862.992,288.122 864.043,288.29 865,288 C 866.15,287.652 867.106,286.803 868,286 C 868.484,285.565 872.596,280.51 873,280 C 874.034,278.693 875.183,277.453 876,276 Z"
       colors="0.790196,0.164706,0.430719,1 0.692157,0.135294,0.447059,1 0.692157,0.135294,0.447059,1 0.692157,0.135294,0.447059,1 0.692157,0.135294,0.447059,1 0.692157,0.135294,0.447059,1 0.692157,0.135294,0.447059,1 0.692157,0.135294,0.447059,1 0.692157,0.135294,0.447059,1 0.692157,0.135294,0.447059,1 0.692157,0.135294,0.447059,1 0.692157,0.135294,0.447059,1 0.692157,0.135294,0.447059,1 0.725403,0.157132,0.466615,1 0.705045,0.14376,0.45464,1 0.705045,0.14376,0.45464,1 0.740767,0.167225,0.475653,1 0.692157,0.135294,0.447059,1 0.692157,0.135294,0.447059,1 0.692157,0.135294,0.447059,1 0.692157,0.135294,0.447059,1 0.692157,0.135294,0.447059,1 0.790196,0.164706,0.430719,1 0.790196,0.164706,0.430719,1 0.692157,0.135294,0.447059,1 0.692157,0.135294,0.447059,1 0.790196,0.164706,0.430719,1 0.790196,0.164706,0.430719,1 0.790196,0.164706,0.430719,1 0.692157,0.135294,0.447059,1 0.692157,0.135294,0.447059,1 0.790196,0.164706,0.430719,1 0.790196,0.164706,0.430719,1 0.790196,0.164706,0.430719,1 0.692157,0.135294,0.447059,1 0.692157,0.135294,0.447059,1 0.790196,0.164706,0.430719,1 0.790196,0.164706,0.430719,1 0.790196,0.164706,0.430719,1 0.790196,0.164706,0.430719,1 0.790196,0.164706,0.430719,1 0.692157,0.135294,0.447059,1 0.790196,0.164706,0.430719,1 0.790196,0.164706,0.430719,1 0.790196,0.164706,0.430719,1 0.692157,0.135294,0.447059,1 0.692157,0.135294,0.447059,1 0.790196,0.164706,0.430719,1 0.790196,0.164706,0.430719,1 0.692157,0.135294,0.447059,1 0.790196,0.164706,0.430719,1 0.790196,0.164706,0.430719,1 0.692157,0.135294,0.447059,1 0.790196,0.164706,0.430719,1 0.790196,0.164706,0.430719,1 0.692157,0.135294,0.447059,1 0.692157,0.135294,0.447059,1 0.692157,0.135294,0.447059,1 0.692157,0.135294,0.447059,1 0.692157,0.135294,0.447059,1 0.790196,0.164706,0.430719,1 0.790196,0.164706,0.430719,1 0.692157,0.135294,0.447059,1 0.790196,0.164706,0.430719,1 0.790196,0.164706,0.430719,1 0.790196,0.164706,0.430719,1 0.692157,0.135294,0.447059,1 0.692157,0.135294,0.447059,1 0.692157,0.135294,0.447059,1 0.692157,0.135294,0.447059,1 0.692157,0.135294,0.447059,1 0.790196,0.164706,0.430719,1 0.790196,0.164706,0.430719,1 0.790196,0.164706,0.430719,1 0.790196,0.164706,0.430719,1 0.790196,0.164706,0.430719,1 0.692157,0.135294,0.447059,1 0.692157,0.135294,0.447059,1 0.692157,0.135294,0.447059,1 0.790196,0.164706,0.430719,1 0.790196,0.164706,0.430719,1 0.790196,0.164706,0.430719,1 0.790196,0.164706,0.430719,1 0.790196,0.164706,0.430719,1 0.692157,0.135294,0.447059,1 0.692157,0.135294,0.447059,1 0.692157,0.135294,0.447059,1 0.790196,0.164706,0.430719,1 0.790196,0.164706,0.430719,1 0.692157,0.135294,0.447059,1 0.692157,0.135294,0.447059,1 0.692157,0.135294,0.447059,1 0.790196,0.164706,0.430719,1 0.790196,0.164706,0.430719,1 0.692157,0.135294,0.447059,1 0.692157,0.135294,0.447059,1 0.790196,0.164706,0.430719,1 0.692157,0.135294,0.447059,1 0.692157,0.135294,0.447059,1 0.692157,0.135294,0.447059,1 0.692157,0.135294,0.447059,1 0.692157,0.135294,0.447059,1 0.790196,0.164706,0.430719,1 0.790196,0.164706,0.430719,1 0.692157,0.135294,0.447059,1 0.692157,0.135294,0.447059,1 0.692157,0.135294,0.447059,1 0.790196,0.164706,0.430719,1 0.790196,0.164706,0.430719,1 0.790196,0.164706,0.430719,1 0.790196,0.164706,0.430719,1 0.692157,0.135294,0.447059,1 0.692157,0.135294,0.447059,1 0.790196,0.164706,0.430719,1 0.790196,0.164706,0.430719,1 0.692157,0.135294,0.447059,1 0.692157,0.135294,0.447059,1 0.692157,0.135294,0.447059,1 0.692157,0.135294,0.447059,1 0.692157,0.135294,0.447059,1 0.692157,0.135294,0.447059,1 0.692157,0.135294,0.447059,1 0.692157,0.135294,0.447059,1 0.692157,0.135294,0.447059,1 0.692157,0.135294,0.447059,1 0.692157,0.135294,0.447059,1 0.790196,0.164706,0.430719,1 0.692157,0.135294,0.447059,1 0.692157,0.135294,0.447059,1 0.692157,0.135294,0.447059,1 0.790196,0.164706,0.430719,1 0.790196,0.164706,0.430719,1 0.692157,0.135294,0.447059,1 0.692157,0.135294,0.447059,1 0.692157,0.135294,0.447059,1 0.692157,0.135294,0.447059,1 0.692157,0.135294,0.447059,1 0.692157,0.135294,0.447059,1 0.692157,0.135294,0.447059,1 0.692157,0.135294,0.447059,1 0.692157,0.135294,0.447059,1 0.692157,0.135294,0.447059,1 0.692157,0.135294,0.447059,1 0.692157,0.135294,0.447059,1 0.692157,0.135294,0.447059,1 0.692157,0.135294,0.447059,1 0.692157,0.135294,0.447059,1 0.692157,0.135294,0.447059,1 0.790196,0.164706,0.430719,1 0.790196,0.164706,0.430719,1 0.790196,0.164706,0.430719,1 0.692157,0.135294,0.447059,1 0.692157,0.135294,0.447059,1 0.692157,0.135294,0.447059,1 0.790196,0.164706,0.430719,1 0.790196,0.164706,0.430719,1 0.692157,0.135294,0.447059,1 0.692157,0.135294,0.447059,1 0.692157,0.135294,0.447059,1 0.692157,0.135294,0.447059,1 0.692157,0.135294,0.447059,1 0.692157,0.135294,0.447059,1 0.790196,0.164706,0.430719,1 0.790196,0.164706,0.430719,1 0.692157,0.135294,0.447059,1 0.692157,0.135294,0.447059,1 0.790196,0.164706,0.430719,1 0.692157,0.135294,0.447059,1 0.692157,0.135294,0.447059,1 0.692157,0.135294,0.447059,1 0.692157,0.135294,0.447059,1 0.692157,0.135294,0.447059,1 0.692157,0.135294,0.447059,1 0.790196,0.164706,0.430719,1 0.790196,0.164706,0.430719,1 0.692157,0.135294,0.447059,1 0.692157,0.135294,0.447059,1 0.692157,0.135294,0.447059,1 0.692157,0.135294,0.447059,1 0.692157,0.135294,0.447059,1 0.692157,0.135294,0.447059,1 0.692157,0.135294,0.447059,1 0.790196,0.164706,0.430719,1 0.692157,0.135294,0.447059,1 0.692157,0.135294,0.447059,1 0.692157,0.135294,0.447059,1 0.692157,0.135294,0.447059,1 0.692157,0.135294,0.447059,1 0.692157,0.135294,0.447059,1 0.692157,0.135294,0.447059,1 0.692157,0.135294,0.447059,1 0.692157,0.135294,0.447059,1 0.692157,0.135294,0.447059,1 0.692157,0.135294,0.447059,1 0.692157,0.135294,0.447059,1 0.692157,0.135294,0.447059,1 0.790196,0.164706,0.430719,1 0.790196,0.164706,0.430719,1 0.692157,0.135294,0.447059,1 0.692157,0.135294,0.447059,1 0.692157,0.135294,0.447059,1 0.692157,0.135294,0.447059,1 0.692157,0.135294,0.447059,1 0.692157,0.135294,0.447059,1 0.790196,0.164706,0.430719,1 0.790196,0.164706,0.430719,1 0.692157,0.135294,0.447059,1 0.692157,0.135294,0.447059,1 0.692157,0.135294,0.447059,1 0.692157,0.135294,0.447059,1 0.692157,0.135294,0.447059,1 0.692157,0.135294,0.447059,1 0.692157,0.135294,0.447059,1 0.692157,0.135294,0.447059,1 0.692157,0.135294,0.447059,1 0.692157,0.135294,0.447059,1 0.692157,0.135294,0.447059,1 0.790196,0.164706,0.430719,1 0.692157,0.135294,0.447059,1 0.692157,0.135294,0.447059,1 0.692157,0.135294,0.447059,1 0.692157,0.135294,0.447059,1 0.692157,0.135294,0.447059,1 0.790196,0.164706,0.430719,1 0.790196,0.164706,0.430719,1 0.790196,0.164706,0.430719,1 0.790196,0.164706,0.430719,1 0.790196,0.164706,0.430719,1 0.790196,0.164706,0.430719,1 0.790196,0.164706,0.430719,1 0.790196,0.164706,0.430719,1 0.692157,0.135294,0.447059,1 0.692157,0.135294,0.447059,1 0.790196,0.164706,0.430719,1 0.692157,0.135294,0.447059,1 0.692157,0.135294,0.447059,1 0.692157,0.135294,0.447059,1 0.692157,0.135294,0.447059,1 0.790196,0.164706,0.430719,1 0.790196,0.164706,0.430719,1 0.790196,0.164706,0.430719,1 0.790196,0.164706,0.430719,1 0.790196,0.164706,0.430719,1 0.692157,0.135294,0.447059,1 0.790196,0.164706,0.430719,1 0.790196,0.164706,0.430719,1 0.692157,0.135294,0.447059,1 0.692157,0.135294,0.447059,1 0.692157,0.135294,0.447059,1 0.692157,0.135294,0.447059,1 0.692157,0.135294,0.447059,1 0.790196,0.164706,0.430719,1 0.692157,0.135294,0.447059,1 0.692157,0.135294,0.447059,1 0.692157,0.135294,0.447059,1 0.692157,0.135294,0.447059,1 0.692157,0.135294,0.447059,1 0.692157,0.135294,0.447059,1 0.692157,0.135294,0.447059,1 0.692157,0.135294,0.447059,1 0.692157,0.135294,0.447059,1 0.790196,0.164706,0.430719,1 0.692157,0.135294,0.447059,1 0.692157,0.135294,0.447059,1 0.692157,0.135294,0.447059,1 0.790196,0.164706,0.430719,1 0.790196,0.164706,0.430719,1 0.692157,0.135294,0.447059,1 0.692157,0.135294,0.447059,1 0.790196,0.164706,0.430719,1 0.692157,0.135294,0.447059,1 0.692157,0.135294,0.447059,1 0.692157,0.135294,0.447059,1 0.692157,0.135294,0.447059,1 0.692157,0.135294,0.447059,1 0.692157,0.135294,0.447059,1 0.692157,0.135294,0.447059,1 0.692157,0.135294,0.447059,1 0.790196,0.164706,0.430719,1 0.790196,0.164706,0.430719,1 0.790196,0.164706,0.430719,1 0.790196,0.164706,0.430719,1 0.790196,0.164706,0.430719,1 0.692157,0.135294,0.447059,1 0.692157,0.135294,0.447059,1 0.692157,0.135294,0.447059,1 0.790196,0.164706,0.430719,1 0.790196,0.164706,0.430719,1 0.692157,0.135294,0.447059,1 0.692157,0.135294,0.447059,1 0.692157,0.135294,0.447059,1 0.790196,0.164706,0.430719,1 0.790196,0.164706,0.430719,1 0.790196,0.164706,0.430719,1 0.692157,0.135294,0.447059,1 0.692157,0.135294,0.447059,1 0.790196,0.164706,0.430719,1 0.692157,0.135294,0.447059,1 0.692157,0.135294,0.447059,1 0.790196,0.164706,0.430719,1 0.790196,0.164706,0.430719,1 0.692157,0.135294,0.447059,1 0.790196,0.164706,0.430719,1 0.790196,0.164706,0.430719,1 0.692157,0.135294,0.447059,1 0.692157,0.135294,0.447059,1 0.692157,0.135294,0.447059,1 0.692157,0.135294,0.447059,1 0.692157,0.135294,0.447059,1 0.692157,0.135294,0.447059,1 0.790196,0.164706,0.430719,1 0.790196,0.164706,0.430719,1 0.790196,0.164706,0.430719,1 0.790196,0.164706,0.430719,1 0.790196,0.164706,0.430719,1 0.692157,0.135294,0.447059,1 0.692157,0.135294,0.447059,1 0.692157,0.135294,0.447059,1 0.692157,0.135294,0.447059,1 0.692157,0.135294,0.447059,1 0.692157,0.135294,0.447059,1 0.692157,0.135294,0.447059,1 0.692157,0.135294,0.447059,1 0.692157,0.135294,0.447059,1 0.692157,0.135294,0.447059,1 0.692157,0.135294,0.447059,1 0.790196,0.164706,0.430719,1 0.790196,0.164706,0.430719,1 0.692157,0.135294,0.447059,1 0.692157,0.135294,0.447059,1 0.790196,0.164706,0.430719,1 0.692157,0.135294,0.447059,1 0.692157,0.135294,0.447059,1 0.692157,0.135294,0.447059,1 0.692157,0.135294,0.447059,1 0.692157,0.135294,0.447059,1 0.790196,0.164706,0.430719,1 0.790196,0.164706,0.430719,1 0.692157,0.135294,0.447059,1 0.692157,0.135294,0.447059,1 0.692157,0.135294,0.447059,1 0.692157,0.135294,0.447059,1 0.692157,0.135294,0.447059,1 0.692157,0.135294,0.447059,1 0.692157,0.135294,0.447059,1 0.692157,0.135294,0.447059,1 0.692157,0.135294,0.447059,1 0.790196,0.164706,0.430719,1 0.790196,0.164706,0.430719,1 0.692157,0.135294,0.447059,1 0.790196,0.164706,0.430719,1 0.790196,0.164706,0.430719,1 0.790196,0.164706,0.430719,1 0.790196,0.164706,0.430719,1 0.692157,0.135294,0.447059,1 0.692157,0.135294,0.447059,1 0.790196,0.164706,0.430719,1 0.790196,0.164706,0.430719,1 0.790196,0.164706,0.430719,1 0.790196,0.164706,0.430719,1 0.692157,0.135294,0.447059,1 0.692157,0.135294,0.447059,1 0.692157,0.135294,0.447059,1 0.692157,0.135294,0.447059,1 0.790196,0.164706,0.430719,1 0.692157,0.135294,0.447059,1 0.790196,0.164706,0.430719,1 0.790196,0.164706,0.430719,1 0.790196,0.164706,0.430719,1 0.790196,0.164706,0.430719,1 0.790196,0.164706,0.430719,1 0.790196,0.164706,0.430719,1 0.790196,0.164706,0.430719,1 0.692157,0.135294,0.447059,1 0.692157,0.135294,0.447059,1 0.692157,0.135294,0.447059,1 0.790196,0.164706,0.430719,1 0.790196,0.164706,0.430719,1 0.790196,0.164706,0.430719,1 0.790196,0.164706,0.430719,1 0.692157,0.135294,0.447059,1 0.692157,0.135294,0.447059,1 0.692157,0.135294,0.447059,1 0.692157,0.135294,0.447059,1 0.790196,0.164706,0.430719,1 0.790196,0.164706,0.430719,1 0.692157,0.135294,0.447059,1 0.692157,0.135294,0.447059,1 0.692157,0.135294,0.447059,1 0.692157,0.135294,0.447059,1 0.692157,0.135294,0.447059,1 0.790196,0.164706,0.430719,1 0.692157,0.135294,0.447059,1 0.692157,0.135294,0.447059,1 0.692157,0.135294,0.447059,1 0.692157,0.135294,0.447059,1 0.692157,0.135294,0.447059,1 0.692157,0.135294,0.447059,1 0.692157,0.135294,0.447059,1 0.692157,0.135294,0.447059,1 0.692157,0.135294,0.447059,1 0.692157,0.135294,0.447059,1 0.692157,0.135294,0.447059,1 0.692157,0.135294,0.447059,1 0.692157,0.135294,0.447059,1 0.790196,0.164706,0.430719,1 0.790196,0.164706,0.430719,1 0.790196,0.164706,0.430719,1 0.790196,0.164706,0.430719,1 0.692157,0.135294,0.447059,1 0.692157,0.135294,0.447059,1 0.692157,0.135294,0.447059,1 0.692157,0.135294,0.447059,1 0.692157,0.135294,0.447059,1 0.692157,0.135294,0.447059,1 0.692157,0.135294,0.447059,1 0.692157,0.135294,0.447059,1 0.692157,0.135294,0.447059,1 0.692157,0.135294,0.447059,1 0.692157,0.135294,0.447059,1 0.692157,0.135294,0.447059,1 0.692157,0.135294,0.447059,1 0.692157,0.135294,0.447059,1 0.692157,0.135294,0.447059,1 0.692157,0.135294,0.447059,1 0.692157,0.135294,0.447059,1 0.692157,0.135294,0.447059,1 0.692157,0.135294,0.447059,1 0.692157,0.135294,0.447059,1 0.692157,0.135294,0.447059,1 0.790196,0.164706,0.430719,1 0.692157,0.135294,0.447059,1 0.692157,0.135294,0.447059,1 0.692157,0.135294,0.447059,1 0.692157,0.135294,0.447059,1 0.692157,0.135294,0.447059,1 0.790196,0.164706,0.430719,1 0.790196,0.164706,0.430719,1 0.790196,0.164706,0.430719,1 0.692157,0.135294,0.447059,1 0.692157,0.135294,0.447059,1 0.692157,0.135294,0.447059,1 0.692157,0.135294,0.447059,1 "
       brushes="0,6.69263,6.69263 0,6.68952,6.68952 0,6.67772,6.67772 0,6.6684,6.6684 0,6.63795,6.63795 0,6.61247,6.61247 0,6.57954,6.57954 0,6.56214,6.56214 0,6.5522,6.5522 0,6.5292,6.5292 0,6.49316,6.49316 0,6.43289,6.43289 0,6.4304,6.4304 0,6.43103,6.43103 0,6.41425,6.41425 0,6.42233,6.42233 0,6.49379,6.49379 0,6.49316,6.49316 0,6.4565,6.4565 0,6.45526,6.45526 0,6.47142,6.47142 0,6.52051,6.52051 0,6.56897,6.56897 0,6.60812,6.60812 0,6.70879,6.70879 0,6.7759,6.7759 0,6.86413,6.86413 0,6.93684,6.93684 0,7.02259,7.02259 0,7.04558,7.04558 0,7.07416,7.07416 0,7.10088,7.10088 0,7.14251,7.14251 0,7.16737,7.16737 0,7.19595,7.19595 0,7.19782,7.19782 0,7.19782,7.19782 0,7.16799,7.16799 0,7.14314,7.14314 0,7.1015,7.1015 0,7.08224,7.08224 0,7.05552,7.05552 0,7.05303,7.05303 0,7.05303,7.05303 0,7.04247,7.04247 0,7.03315,7.03315 0,6.98903,6.98903 0,6.91819,6.91819 0,6.87221,6.87221 0,6.84238,6.84238 0,6.86165,6.86165 0,6.86413,6.86413 0,6.88899,6.88899 0,6.91198,6.91198 0,6.91944,6.91944 0,6.8921,6.8921 0,6.8921,6.8921 0,6.85792,6.85792 0,6.8573,6.8573 0,6.86848,6.86848 0,6.88588,6.88588 0,6.94926,6.94926 0,6.99462,6.99462 0,7.06733,7.06733 0,7.15246,7.15246 0,7.17918,7.17918 0,7.23199,7.23199 0,7.24069,7.24069 0,7.25934,7.25934 0,7.28792,7.28792 0,7.29724,7.29724 0,7.35752,7.35752 0,7.3993,7.3993 0,7.43534,7.43534 0,7.45585,7.45585 0,7.44094,7.44094 0,7.40303,7.40303 0,7.35938,7.35938 0,7.35938,7.35938 0,7.34384,7.34384 0,7.31899,7.31899 0,7.29538,7.29538 0,7.26679,7.26679 0,7.23137,7.23137 0,7.2233,7.2233 0,7.22019,7.22019 0,7.20776,7.20776 0,7.16799,7.16799 0,7.12014,7.12014 0,7.11828,7.11828 0,7.13195,7.13195 0,7.15246,7.15246 0,7.14997,7.14997 0,7.18104,7.18104 0,7.209,7.209 0,7.209,7.209 0,7.21708,7.21708 0,7.21708,7.21708 0,7.23572,7.23572 0,7.23386,7.23386 0,7.26431,7.26431 0,7.3078,7.3078 0,7.39107,7.39107 0,7.44218,7.44218 0,7.47573,7.47573 0,7.52482,7.52482 0,7.54657,7.54657 0,7.55651,7.55651 0,7.59193,7.59193 0,7.61803,7.61803 0,7.64289,7.64289 0,7.66153,7.66153 0,7.68204,7.68204 0,7.66588,7.66588 0,7.65345,7.65345 0,7.61182,7.61182 0,7.55838,7.55838 0,7.54657,7.54657 0,7.52979,7.52979 0,7.50929,7.50929 0,7.46579,7.46579 0,7.44156,7.44156 0,7.43845,7.43845 0,7.42167,7.42167 0,7.41919,7.41919 0,7.40738,7.40738 0,7.39169,7.39169 0,7.38983,7.38983 0,7.35006,7.35006 0,7.30656,7.30656 0,7.27425,7.27425 0,7.27425,7.27425 0,7.27052,7.27052 0,7.30843,7.30843 0,7.31588,7.31588 0,7.35006,7.35006 0,7.37864,7.37864 0,7.41795,7.41795 0,7.45399,7.45399 0,7.50121,7.50121 0,7.54222,7.54222 0,7.58013,7.58013 0,7.59504,7.59504 0,7.65532,7.65532 0,7.67334,7.67334 0,7.6752,7.6752 0,7.69943,7.69943 0,7.72367,7.72367 0,7.75349,7.75349 0,7.77773,7.77773 0,7.78581,7.78581 0,7.80631,7.80631 0,7.82868,7.82868 0,7.838,7.838 0,7.85851,7.85851 0,7.86534,7.86534 0,7.8554,7.8554 0,7.85478,7.85478 0,7.83179,7.83179 0,7.8293,7.8293 0,7.8088,7.8088 0,7.77897,7.77897 0,7.74542,7.74542 0,7.73547,7.73547 0,7.72305,7.72305 0,7.68017,7.68017 0,7.64351,7.64351 0,7.62238,7.62238 0,7.62052,7.62052 0,7.60063,7.60063 0,7.58448,7.58448 0,7.54657,7.54657 0,7.54284,7.54284 0,7.48257,7.48257 0,7.47325,7.47325 0,7.46455,7.46455 0,7.45523,7.45523 0,7.44218,7.44218 0,7.42789,7.42789 0,7.44653,7.44653 0,7.44715,7.44715 0,7.44342,7.44342 0,7.46766,7.46766 0,7.51675,7.51675 0,7.51488,7.51488 0,7.54098,7.54098 0,7.59193,7.59193 0,7.63481,7.63481 0,7.6578,7.6578 0,7.68266,7.68266 0,7.71435,7.71435 0,7.73982,7.73982 0,7.74107,7.74107 0,7.75412,7.75412 0,7.78021,7.78021 0,7.82682,7.82682 0,7.8349,7.8349 0,7.8436,7.8436 0,7.83241,7.83241 0,7.81688,7.81688 0,7.78519,7.78519 0,7.71373,7.71373 0,7.68949,7.68949 0,7.66215,7.66215 0,7.64724,7.64724 0,7.62238,7.62238 0,7.57578,7.57578 0,7.54595,7.54595 0,7.54471,7.54471 0,7.53414,7.53414 0,7.52793,7.52793 0,7.5155,7.5155 0,7.50743,7.50743 0,7.49065,7.49065 0,7.45647,7.45647 0,7.42664,7.42664 0,7.42602,7.42602 0,7.42851,7.42851 0,7.42975,7.42975 0,7.42043,7.42043 0,7.45834,7.45834 0,7.48071,7.48071 0,7.49003,7.49003 0,7.5124,7.5124 0,7.51302,7.51302 0,7.54471,7.54471 0,7.58013,7.58013 0,7.59442,7.59442 0,7.62052,7.62052 0,7.64227,7.64227 0,7.67582,7.67582 0,7.71683,7.71683 0,7.79016,7.79016 0,7.80072,7.80072 0,7.81936,7.81936 0,7.81812,7.81812 0,7.82185,7.82185 0,7.84049,7.84049 0,7.86907,7.86907 0,7.88399,7.88399 0,7.90574,7.90574 0,7.90449,7.90449 0,7.87839,7.87839 0,7.86037,7.86037 0,7.82806,7.82806 0,7.79264,7.79264 0,7.77649,7.77649 0,7.76219,7.76219 0,7.7448,7.7448 0,7.74169,7.74169 0,7.72118,7.72118 0,7.70006,7.70006 0,7.68328,7.68328 0,7.67147,7.67147 0,7.65904,7.65904 0,7.61741,7.61741 0,7.58013,7.58013 0,7.53663,7.53663 0,7.51053,7.51053 0,7.46144,7.46144 0,7.45026,7.45026 0,7.4428,7.4428 0,7.45088,7.45088 0,7.45088,7.45088 0,7.42851,7.42851 0,7.44901,7.44901 0,7.4863,7.4863 0,7.49935,7.49935 0,7.51799,7.51799 0,7.53849,7.53849 0,7.58323,7.58323 0,7.60747,7.60747 0,7.64164,7.64164 0,7.66961,7.66961 0,7.69881,7.69881 0,7.69881,7.69881 0,7.70254,7.70254 0,7.71745,7.71745 0,7.70441,7.70441 0,7.70316,7.70316 0,7.71186,7.71186 0,7.71497,7.71497 0,7.74355,7.74355 0,7.77897,7.77897 0,7.81253,7.81253 0,7.83241,7.83241 0,7.83987,7.83987 0,7.84297,7.84297 0,7.82993,7.82993 0,7.8293,7.8293 0,7.79761,7.79761 0,7.8001,7.8001 0,7.76282,7.76282 0,7.74852,7.74852 0,7.73299,7.73299 0,7.71062,7.71062 0,7.71994,7.71994 0,7.69571,7.69571 0,7.68825,7.68825 0,7.69011,7.69011 0,7.67706,7.67706 0,7.63792,7.63792 0,7.61182,7.61182 0,7.60995,7.60995 0,7.58634,7.58634 0,7.54471,7.54471 0,7.52793,7.52793 0,7.50805,7.50805 0,7.51861,7.51861 0,7.5211,7.5211 0,7.53042,7.53042 0,7.53042,7.53042 0,7.56459,7.56459 0,7.59815,7.59815 0,7.59939,7.59939 0,7.60685,7.60685 0,7.60685,7.60685 0,7.66899,7.66899 0,7.69508,7.69508 0,7.69011,7.69011 0,7.70441,7.70441 0,7.7274,7.7274 0,7.74666,7.74666 0,7.76903,7.76903 0,7.83428,7.83428 0,7.86472,7.86472 0,7.90014,7.90014 0,7.91816,7.91816 0,7.93494,7.93494 0,7.96477,7.96477 0,7.97595,7.97595 0,7.98341,7.98341 0,7.9977,7.9977 0,8.02256,8.02256 0,8.04493,8.04493 0,8.12136,8.12136 0,8.15864,8.15864 0,8.16547,8.16547 0,8.14435,8.14435 0,8.12384,8.12384 0,8.09961,8.09961 0,8.10147,8.10147 0,8.06978,8.06978 0,8.03747,8.03747 0,8.03685,8.03685 0,7.99149,7.99149 0,7.94861,7.94861 0,7.92065,7.92065 0,7.90014,7.90014 0,7.8554,7.8554 0,7.80258,7.80258 0,7.76157,7.76157 0,7.70689,7.70689 0,7.7013,7.7013 0,7.69073,7.69073 0,7.68204,7.68204 0,7.68079,7.68079 0,7.6926,7.6926 0,7.7274,7.7274 0,7.72864,7.72864 0,7.74542,7.74542 0,7.78643,7.78643 0,7.80631,7.80631 0,7.86099,7.86099 0,7.87964,7.87964 0,7.88771,7.88771 0,7.90574,7.90574 0,7.94861,7.94861 0,7.97968,7.97968 0,8.04741,8.04741 0,8.06667,8.06667 0,8.10955,8.10955 0,8.13565,8.13565 0,8.14497,8.14497 0,8.15491,8.15491 0,8.14746,8.14746 0,8.12695,8.12695 0,8.10893,8.10893 0,8.0878,8.0878 0,8.06046,8.06046 0,8.04741,8.04741 0,8.01696,8.01696 0,7.99708,7.99708 0,7.98279,7.98279 0,7.925,7.925 0,7.88958,7.88958 0,7.84795,7.84795 0,7.83117,7.83117 0,7.80693,7.80693 0,7.77959,7.77959 0,7.74604,7.74604 0,7.7274,7.7274 0,7.75101,7.75101 0,7.74977,7.74977 0,7.74728,7.74728 0,7.75722,7.75722 0,7.76903,7.76903 0,7.79886,7.79886 0,7.81315,7.81315 0,7.82247,7.82247 0,7.83925,7.83925 0,7.83987,7.83987 0,7.83179,7.83179 0,7.83738,7.83738 0,7.86969,7.86969 0,7.88834,7.88834 0,7.96849,7.96849 0,8.01137,8.01137 0,8.06046,8.06046 0,8.14248,8.14248 0,8.17604,8.17604 0,8.23196,8.23196 0,8.23445,8.23445 0,8.24626,8.24626 0,8.25868,8.25868 0,8.26614,8.26614 0,8.26863,8.26863 0,8.22824,8.22824 0,8.20773,8.20773 0,8.18598,8.18598 0,8.17231,8.17231 0,8.16485,8.16485 0,8.17542,8.17542 0,8.17417,8.17417 0,8.15491,8.15491 0,8.13441,8.13441 0,8.06357,8.06357 0,7.99584,7.99584 0,7.91568,7.91568 0,7.85602,7.85602 0,7.83925,7.83925 0,7.81688,7.81688 0,7.79078,7.79078 0,7.79264,7.79264 0,7.81501,7.81501 0,7.87901,7.87901 0,7.87964,7.87964 0,7.82123,7.82123 0,7.74107,7.74107 0,7.62797,7.62797 0,7.17358,7.17358 0,6.52299,6.52299 0,5.60877,5.60877 "
       timeStamps="234.613 234.624 234.636 234.647 234.66 234.671 234.683 234.695 234.707 234.719 234.731 234.742 234.755 234.766 234.78 234.792 234.805 234.816 234.828 234.84 234.852 234.864 234.877 234.888 234.9 234.913 234.925 234.937 234.949 234.961 234.974 234.985 234.999 235.01 235.023 235.035 235.047 235.06 235.071 235.084 235.097 235.108 235.121 235.133 235.146 235.158 235.172 235.183 235.196 235.207 235.219 235.232 235.243 235.256 235.268 235.28 235.293 235.306 235.317 235.331 235.343 235.355 235.368 235.38 235.393 235.404 235.418 235.429 235.442 235.454 235.465 235.48 235.492 235.504 235.516 235.529 235.541 235.553 235.565 235.577 235.59 235.602 235.615 235.626 235.64 235.651 235.663 235.677 235.689 235.702 235.714 235.726 235.738 235.751 235.764 235.775 235.788 235.801 235.814 235.825 235.838 235.851 235.864 235.876 235.888 235.9 235.914 235.927 235.939 235.951 235.964 235.976 235.989 236.002 236.014 236.026 236.039 236.051 236.064 236.076 236.088 236.101 236.114 236.126 236.14 236.153 236.164 236.178 236.19 236.204 236.216 236.229 236.279 236.289 236.359 236.369 236.38 236.391 236.401 236.411 236.421 236.431 236.441 236.451 236.462 236.472 236.482 236.493 236.505 236.518 236.53 236.543 236.555 236.567 236.579 236.592 236.604 236.617 236.629 236.641 236.653 236.666 236.678 236.691 236.703 236.716 236.728 236.741 236.753 236.766 236.778 236.791 236.803 236.816 236.828 236.84 236.853 236.865 236.877 236.891 236.903 236.915 236.928 236.939 236.953 236.963 236.977 236.989 237.001 237.015 237.025 237.039 237.05 237.063 237.075 237.088 237.1 237.113 237.125 237.138 237.15 237.162 237.175 237.187 237.199 237.211 237.224 237.238 237.25 237.263 237.276 237.289 237.301 237.314 237.327 237.339 237.353 237.364 237.377 237.389 237.401 237.414 237.426 237.438 237.451 237.463 237.476 237.489 237.5 237.511 237.524 237.537 237.549 237.562 237.574 237.587 237.598 237.612 237.624 237.636 237.649 237.661 237.673 237.685 237.698 237.709 237.722 237.735 237.747 237.759 237.772 237.784 237.797 237.809 237.82 237.833 237.846 237.858 237.87 237.883 237.895 237.907 237.92 237.932 237.944 237.957 237.969 237.981 237.994 238.006 238.018 238.031 238.043 238.056 238.068 238.081 238.093 238.105 238.118 238.131 238.144 238.156 238.168 238.18 238.193 238.205 238.218 238.232 238.243 238.255 238.268 238.281 238.294 238.306 238.319 238.331 238.343 238.355 238.368 238.381 238.393 238.406 238.418 238.432 238.444 238.456 238.468 238.48 238.491 238.504 238.518 238.53 238.542 238.555 238.567 238.579 238.592 238.605 238.617 238.63 238.641 238.654 238.666 238.679 238.691 238.703 238.715 238.728 238.742 238.754 238.767 238.779 238.792 238.804 238.816 238.829 238.841 238.855 238.866 238.878 238.891 238.903 238.916 238.927 238.94 238.952 238.965 238.976 238.99 239.002 239.015 239.027 239.039 239.051 239.063 239.076 239.088 239.101 239.115 239.126 239.14 239.15 239.163 239.176 239.189 239.2 239.213 239.226 239.237 239.251 239.263 239.275 239.288 239.301 239.314 239.325 239.339 239.351 239.365 239.375 239.388 239.401 239.415 239.426 239.439 239.451 239.464 239.476 239.488 239.5 239.513 239.526 239.539 239.551 239.564 239.577 239.589 239.6 239.614 239.626 239.638 239.651 239.663 239.675 239.687 239.7 239.711 239.724 239.737 239.749 239.761 239.773 239.786 239.798 239.811 239.823 239.836 239.848 239.86 239.871 239.885 239.897 239.908 239.92 239.933 239.944 239.957 239.968 239.981 239.993 240.005 240.017 240.031 240.043 240.056 240.067 240.08 240.093 240.104 240.117 240.129 240.142 240.154 "
       id="path0005"
       style="fill:none;stroke:#000000;stroke-opacity:1;stroke-width:4px" />
  </g>
</svg>
