<?xml version="1.0" encoding="UTF-8" standalone="no"?>
<!-- Created with Inkscape (http://www.inkscape.org/) -->

<svg
   xmlns:dc="http://purl.org/dc/elements/1.1/"
   xmlns:cc="http://creativecommons.org/ns#"
   xmlns:rdf="http://www.w3.org/1999/02/22-rdf-syntax-ns#"
   xmlns:svg="http://www.w3.org/2000/svg"
   xmlns="http://www.w3.org/2000/svg"
   version="1.1"
   width="1920"
   height="1080"
   id="svg2">
  <defs
     id="defs4" />
  <metadata
     id="metadata7">
    <rdf:RDF>
      <cc:Work
         rdf:about="">
        <dc:format>image/svg+xml</dc:format>
        <dc:type
           rdf:resource="http://purl.org/dc/dcmitype/StillImage" />
        <dc:title></dc:title>
      </cc:Work>
    </rdf:RDF>
  </metadata>
  <g
     transform="translate(0.0,0.0)"
     id="layer1">
    <path
       initial_time="302.445000"
       final_time="308.981000"
       d="M 385,786 C 384.397,784.631 384.564,785.395 385,786 C 385.551,786.765 386.235,787.449 387,788 C 385.551,786.765 386.235,787.449 387,788 C 385.551,786.765 386.235,787.449 387,788 C 385.551,786.765 386.235,787.449 387,788 C 385.551,786.765 386.235,787.449 387,788 C 387.605,788.436 388.366,789.392 389,789 C 389.567,788.65 389,787.667 389,787 C 389,786.333 389.153,785.649 389,785 C 389,786.333 389.153,785.649 389,785 C 388.829,784.275 388.285,783.689 388,783 C 388.829,784.275 388.285,783.689 388,783 C 388.829,784.275 388.285,783.689 388,783 C 387.597,782.026 387.554,780.897 387,780 C 387.597,782.026 387.554,780.897 387,780 C 387.597,782.026 387.554,780.897 387,780 C 387.597,782.026 387.554,780.897 387,780 C 387.597,782.026 387.554,780.897 387,780 C 387.597,782.026 387.554,780.897 387,780 C 387.597,782.026 387.554,780.897 387,780 C 387.597,782.026 387.554,780.897 387,780 C 387.597,782.026 387.554,780.897 387,780 C 387.597,782.026 387.554,780.897 387,780 C 387.597,782.026 387.554,780.897 387,780 C 386.504,779.198 385.871,777.639 385,778 C 384.384,778.255 385,779.333 385,780 C 385,780.667 384.847,781.351 385,782 C 385,780.667 384.847,781.351 385,782 C 385.171,782.725 385.667,783.333 386,784 C 385.171,782.725 385.667,783.333 386,784 C 385.171,782.725 385.667,783.333 386,784 C 386.333,784.667 386.473,785.473 387,786 C 386.333,784.667 386.473,785.473 387,786 C 386.333,784.667 386.473,785.473 387,786 C 387.527,786.527 388.293,787.236 389,787 C 387.527,786.527 388.293,787.236 389,787 C 389.177,786.941 389.929,785.172 390,785 C 389.177,786.941 389.929,785.172 390,785 C 390.403,784.026 391.075,783.051 391,782 C 390.403,784.026 391.075,783.051 391,782 C 390.947,781.257 390.333,780.667 390,780 C 390.947,781.257 390.333,780.667 390,780 C 389.667,779.333 389.563,778.488 389,778 C 389.667,779.333 389.563,778.488 389,778 C 388.602,777.655 386.52,777.084 386,777 C 388.602,777.655 386.52,777.084 386,777 C 385.342,776.893 384.667,777 384,777 C 385.342,776.893 384.667,777 384,777 C 385.342,776.893 384.667,777 384,777 C 385.342,776.893 384.667,777 384,777 C 383.333,777 382.567,776.65 382,777 C 381.366,777.392 381,778.255 381,779 C 381.366,777.392 381,778.255 381,779 C 381,779.186 381.906,780.839 382,781 C 382.603,782.039 383.099,783.205 384,784 C 382.603,782.039 383.099,783.205 384,784 C 384.559,784.493 385.333,784.667 386,785 C 384.559,784.493 385.333,784.667 386,785 C 384.559,784.493 385.333,784.667 386,785 C 386.667,785.333 387.264,786.119 388,786 C 388.465,785.924 389.724,784.382 390,784 C 388.465,785.924 389.724,784.382 390,784 C 390.436,783.395 390.829,782.725 391,782 C 390.436,783.395 390.829,782.725 391,782 C 391.23,781.027 391.16,779.987 391,779 C 391.23,781.027 391.16,779.987 391,779 C 390.831,777.96 390.691,776.796 390,776 C 390.831,777.96 390.691,776.796 390,776 C 389.512,775.437 388.667,775.333 388,775 C 389.512,775.437 388.667,775.333 388,775 C 387.333,774.667 386.745,774 386,774 C 385.255,774 384.667,774.667 384,775 C 385.255,774 384.667,774.667 384,775 C 385.255,774 384.667,774.667 384,775 C 383.333,775.333 382.527,775.473 382,776 C 383.333,775.333 382.527,775.473 382,776 C 381.473,776.527 381,777.255 381,778 C 381.473,776.527 381,777.255 381,778 C 381,778.373 381.782,779.698 382,780 C 382.827,781.147 383.853,782.173 385,783 C 382.827,781.147 383.853,782.173 385,783 C 385.302,783.218 386.656,783.857 387,784 C 385.302,783.218 386.656,783.857 387,784 C 385.302,783.218 386.656,783.857 387,784 C 387.974,784.403 388.955,785.14 390,785 C 387.974,784.403 388.955,785.14 390,785 C 391.191,784.84 392.433,784.06 393,783 C 391.191,784.84 392.433,784.06 393,783 C 393.472,782.118 393,781 393,780 C 393,779.333 393.153,778.649 393,778 C 392.829,777.275 392.333,776.667 392,776 C 391.667,775.333 391.527,774.527 391,774 C 391.667,775.333 391.527,774.527 391,774 C 390.473,773.473 389.725,773.171 389,773 C 388.351,772.847 387.667,773 387,773 C 388.351,772.847 387.667,773 387,773 C 386.333,773 385.588,772.685 385,773 C 386.333,773 385.588,772.685 385,773 C 383.94,773.567 383.667,775 383,776 C 383.94,773.567 383.667,775 383,776 C 382.333,777 381.348,777.85 381,779 C 380.807,779.638 380.847,780.351 381,781 C 380.807,779.638 380.847,780.351 381,781 C 381.171,781.725 381.564,782.395 382,783 C 382.827,784.147 384,785 385,786 C 385.667,786.667 386.235,787.449 387,788 C 385.667,786.667 386.235,787.449 387,788 C 387.605,788.436 388.275,788.829 389,789 C 387.605,788.436 388.275,788.829 389,789 C 389.973,789.23 391.027,789.23 392,789 C 392.725,788.829 393.473,788.527 394,788 C 394.527,787.473 394.667,786.667 395,786 C 394.527,787.473 394.667,786.667 395,786 C 395.333,785.333 395.829,784.725 396,784 C 395.333,785.333 395.829,784.725 396,784 C 396.306,782.702 396.163,781.323 396,780 C 395.832,778.636 395.86,777.072 395,776 C 394.534,775.419 393.527,775.527 393,775 C 392.473,774.473 392.634,773.392 392,773 C 391.433,772.65 390.649,773.153 390,773 C 389.275,772.829 388.725,772.171 388,772 C 389.275,772.829 388.725,772.171 388,772 C 387.351,771.847 386.658,771.893 386,772 C 384.96,772.169 383.897,772.446 383,773 C 384.96,772.169 383.897,772.446 383,773 C 382.198,773.496 381.496,774.198 381,775 C 382.198,773.496 381.496,774.198 381,775 C 380.446,775.897 380.169,776.96 380,778 C 379.84,778.987 380,780 380,781 C 380,781.667 379.807,782.362 380,783 C 380.348,784.15 381.397,784.961 382,786 C 382.374,786.645 382.564,787.395 383,788 C 383.551,788.765 384.235,789.449 385,790 C 385.605,790.436 386.333,790.667 387,791 C 387.667,791.333 388.333,791.667 389,792 C 389.667,792.333 390.275,792.829 391,793 C 391.649,793.153 392.342,793.107 393,793 C 394.04,792.831 395.053,792.463 396,792 C 397.08,791.472 398.27,790.955 399,790 C 399.64,789.162 399.667,788 400,787 C 400.333,786 400.667,785 401,784 C 401.333,783 401.831,782.04 402,781 C 402.107,780.342 402,779.667 402,779 C 402.107,780.342 402,779.667 402,779 C 402,778 402.316,776.949 402,776 C 402,778 402.316,776.949 402,776 C 401.736,775.209 399.589,772.589 399,772 C 397.822,770.821 396.581,769.527 395,769 C 394.368,768.789 393.667,769 393,769 C 392.333,769 391.667,769 391,769 C 390,769 389,769 388,769 C 387,769 385.973,768.77 385,769 C 384.637,769.086 383.322,769.813 383,770 C 381.961,770.603 381.039,771.397 380,772 C 379.355,772.374 378.605,772.564 378,773 C 377.235,773.551 376.667,774.333 376,775 C 375.333,775.667 374.551,776.235 374,777 C 373.782,777.302 373.143,778.656 373,779 C 372.597,779.974 372.169,780.96 372,782 C 371.84,782.987 372,784 372,785 C 372,785.667 371.893,786.342 372,787 C 372.169,788.04 372.446,789.103 373,790 C 373.496,790.802 374.333,791.333 375,792 C 376,793 376.906,794.103 378,795 C 378.929,795.762 380,796.333 381,797 C 382,797.667 382.92,798.472 384,799 C 384.947,799.463 385.96,799.831 387,800 C 387.987,800.16 389,800 390,800 C 390.667,800 391.362,800.193 392,800 C 392.575,799.826 394.535,798.381 395,798 C 396.094,797.103 397.103,796.094 398,795 C 398.762,794.071 399.306,792.981 400,792 C 400.963,790.639 402.284,789.505 403,788 C 400.963,790.639 402.284,789.505 403,788 C 403.591,786.759 403.832,785.364 404,784 C 404.204,782.346 404.267,780.645 404,779 C 403.916,778.48 403.202,776.487 403,776 C 402.715,775.311 402.374,774.645 402,774 C 401.397,772.961 400.901,771.795 400,771 C 398.882,770.013 397.333,769.667 396,769 C 395.333,768.667 394.699,768.259 394,768 C 392.711,767.523 391.364,767.168 390,767 C 389.338,766.919 388.667,767 388,767 C 387.333,767 386.667,767 386,767 C 384.667,767 383.232,766.49 382,767 C 381.129,767.361 380.729,768.402 380,769 C 379.071,769.762 377.85,770.15 377,771 C 379.071,769.762 377.85,770.15 377,771 C 376.15,771.85 375.667,773 375,774 C 374.333,775 373.348,775.85 373,777 C 372.71,777.957 372.77,779.027 373,780 C 373.171,780.725 373.667,781.333 374,782 C 374.667,783.333 375.128,784.791 376,786 C 376.827,787.147 378,788 379,789 C 379.667,789.667 380.271,790.402 381,791 C 381.929,791.762 382.961,792.397 384,793 C 384.645,793.374 385.333,793.667 386,794 C 386.667,794.333 387.311,794.715 388,795 C 388.974,795.403 389.96,795.831 391,796 C 391.987,796.16 393.027,796.23 394,796 C 394.363,795.914 395.678,795.187 396,795 C 397.039,794.397 398.205,793.901 399,793 C 399.493,792.441 399.667,791.667 400,791 C 400.667,789.667 401.333,788.333 402,787 C 402.333,786.333 402.829,785.725 403,785 C 403.23,784.027 403,783 403,782 C 403,781.333 403.081,780.662 403,780 C 402.832,778.636 402.556,777.257 402,776 C 401.514,774.901 400.762,773.929 400,773 C 399.402,772.271 398.667,771.667 398,771 C 397,770 396.147,768.827 395,768 C 394.395,767.564 393.667,767.333 393,767 C 392.333,766.667 391.725,766.171 391,766 C 390.027,765.77 389,766 388,766 C 387,766 385.992,765.878 385,766 C 384.318,766.084 381.66,766.808 381,767 C 379.988,767.295 378.974,767.597 378,768 C 376.623,768.57 375.209,769.128 374,770 C 373.235,770.551 372.598,771.271 372,772 C 373.235,770.551 372.598,771.271 372,772 C 371.238,772.929 370.603,773.961 370,775 C 369.252,776.289 368,777.509 368,779 C 368,779.745 368.667,780.333 369,781 C 369.667,782.333 370.252,783.711 371,785 C 371.603,786.039 372.238,787.071 373,788 C 374.195,789.458 375.667,790.667 377,792 C 377.667,792.667 378.257,793.42 379,794 C 379.766,794.598 383.148,796.532 384,797 C 384.653,797.359 385.301,797.741 386,798 C 387.289,798.477 388.627,799.053 390,799 C 391.053,798.96 392,798.333 393,798 C 394,797.667 395.053,797.463 396,797 C 397.08,796.472 398.071,795.762 399,795 C 399.729,794.402 400.382,793.712 401,793 C 402.092,791.741 403.32,790.521 404,789 C 404.347,788.224 404.916,784.846 405,784 C 405.099,783.005 405,782 405,781 C 405,780 405.099,778.995 405,778 C 404.833,776.309 404.436,774.643 404,773 C 403.729,771.981 403.44,770.958 403,770 C 402.188,768.234 401.196,766.532 400,765 C 399.42,764.257 398.712,763.618 398,763 C 396.741,761.908 395.476,760.773 394,760 C 393.066,759.511 391.974,759.403 391,759 C 390.311,758.715 389.725,758.171 389,758 C 388.351,757.847 387.662,757.919 387,758 C 385.636,758.168 384.364,758.832 383,759 C 382.338,759.081 381.649,758.847 381,759 C 379.549,759.342 378.209,760.128 377,761 C 376.235,761.551 375.667,762.333 375,763 C 374,764 372.827,764.853 372,766 C 371.128,767.209 370.667,768.667 370,770 C 369.667,770.667 369.285,771.311 369,772 C 368.597,772.974 368.169,773.96 368,775 C 367.84,775.987 368,777 368,778 C 368,779.333 367.644,780.715 368,782 C 368.065,782.234 370.87,786.795 371,787 C 371.643,788.016 372.333,789 373,790 C 373.667,791 374.306,792.019 375,793 C 375.963,794.361 376.72,795.932 378,797 C 379.145,797.955 380.791,798.128 382,799 C 382.765,799.551 383.129,800.639 384,801 C 385.232,801.51 386.667,801 388,801 C 388.667,801 389.338,801.081 390,801 C 391.364,800.832 392.743,800.556 394,800 C 395.099,799.514 396,798.667 397,798 C 398,797.333 399.205,796.901 400,796 C 400.987,794.882 401.333,793.333 402,792 C 402.667,790.667 403.43,789.377 404,788 C 404.403,787.026 404.831,786.04 405,785 C 404.403,787.026 404.831,786.04 405,785 C 405.267,783.355 405.315,781.637 405,780 C 404.83,779.119 403.368,775.819 403,775 C 402.389,773.64 401.872,772.209 401,771 C 400.449,770.235 399.667,769.667 399,769 C 398.333,768.333 397.667,767.667 397,767 C 396.333,766.333 395.871,765.361 395,765 C 394.076,764.617 392.995,765.099 392,765 C 390.309,764.833 388.691,764.167 387,764 C 386.337,763.934 385.649,763.847 385,764 C 384.275,764.171 383.667,764.667 383,765 C 381.667,765.667 380.209,766.128 379,767 C 378.235,767.551 377.667,768.333 377,769 C 375.667,770.333 374.103,771.47 373,773 C 375.667,770.333 374.103,771.47 373,773 C 372.564,773.605 371.305,776.32 371,777 C 370.265,778.638 369.339,780.237 369,782 C 368.748,783.309 368.786,784.684 369,786 C 369.169,787.04 369.511,788.066 370,789 C 370.387,789.738 372.454,792.37 373,793 C 373.927,794.068 375.103,794.906 376,796 C 376.762,796.929 377.13,798.171 378,799 C 379.407,800.341 381.204,801.256 383,802 C 384.27,802.526 385.711,802.523 387,803 C 387.699,803.259 388.275,803.829 389,804 C 390.298,804.306 391.684,804.214 393,804 C 394.04,803.831 395.053,803.463 396,803 C 397.08,802.472 398.071,801.762 399,801 C 400.094,800.103 401,799 402,798 C 402.667,797.333 403.504,796.802 404,796 C 404.277,795.552 404.865,793.509 405,793 C 405.436,791.357 405.833,789.691 406,788 C 406.164,786.341 406,784.667 406,783 C 406,782 406.082,780.997 406,780 C 405.833,777.979 405.489,775.968 405,774 C 404.746,772.977 404.403,771.974 404,771 C 403.715,770.311 403.333,769.667 403,769 C 402.333,767.667 401.987,766.118 401,765 C 400.205,764.099 398.929,763.762 398,763 C 397.271,762.402 396.802,761.496 396,761 C 395.103,760.446 394.04,760.169 393,760 C 392.013,759.84 391,760 390,760 C 389,760 387.987,759.84 387,760 C 386.48,760.084 384.487,760.798 384,761 C 382.623,761.57 381.289,762.252 380,763 C 378.961,763.603 377.829,764.13 377,765 C 375.659,766.407 375.039,768.358 374,770 C 373.357,771.016 372.694,772.019 372,773 C 371.037,774.361 369.876,775.582 369,777 C 368.608,777.634 368.285,778.311 368,779 C 367.597,779.974 367.169,780.96 367,782 C 366.786,783.316 366.786,784.684 367,786 C 367.169,787.04 367.446,788.103 368,789 C 368.496,789.802 369.402,790.271 370,791 C 370.762,791.929 371.306,793.019 372,794 C 372.963,795.361 373.908,796.741 375,798 C 375.927,799.068 376.797,800.257 378,801 C 378.897,801.554 380.053,801.537 381,802 C 382.08,802.528 382.92,803.472 384,804 C 384.947,804.463 385.96,804.831 387,805 C 388.645,805.267 390.355,805.267 392,805 C 392.52,804.916 394.513,804.202 395,804 C 396.377,803.43 397.882,802.987 399,802 C 399.901,801.205 400.238,799.929 401,799 C 401.598,798.271 402.481,797.787 403,797 C 403.247,796.625 404.846,792.421 405,792 C 405.363,791.01 405.729,790.019 406,789 C 406.436,787.357 407,785.7 407,784 C 407,783.575 406.093,779.415 406,779 C 405.698,777.659 405.477,776.289 405,775 C 404.483,773.602 403.784,772.268 403,771 C 402.124,769.582 401.092,768.259 400,767 C 399.382,766.288 398.667,765.667 398,765 C 397.333,764.333 396.82,763.465 396,763 C 394.804,762.323 393.333,762.333 392,762 C 390.667,761.667 389.364,761.168 388,761 C 387.008,760.878 385.992,760.878 385,761 C 384.318,761.084 381.66,761.808 381,762 C 379.988,762.295 379,762.667 378,763 C 377,763.333 375.99,763.637 375,764 C 373.314,764.617 371.589,765.164 370,766 C 368.936,766.56 367.929,767.238 367,768 C 365.906,768.897 364.897,769.906 364,771 C 363.238,771.929 362.603,772.961 362,774 C 361.252,775.289 360.517,776.602 360,778 C 359.523,779.289 359.168,780.636 359,782 C 358.878,782.992 359,784 359,785 C 359,786 358.811,787.018 359,788 C 359.339,789.763 360.164,791.411 361,793 C 361.56,794.064 362.357,794.984 363,796 C 364.039,797.642 364.698,799.557 366,801 C 366.279,801.309 369.66,803.759 370,804 C 370.981,804.694 371.92,805.472 373,806 C 373.947,806.463 375.026,806.597 376,807 C 377.377,807.57 378.623,808.43 380,809 C 380.974,809.403 381.96,809.831 383,810 C 384.645,810.267 386.339,810.137 388,810 C 390.021,809.833 392.115,809.746 394,809 C 394.279,808.89 396.755,807.174 397,807 C 398.361,806.037 399.803,805.16 401,804 C 402.533,802.515 403.85,800.798 405,799 C 405.402,798.372 406.695,795.68 407,795 C 407.735,793.362 408.488,791.721 409,790 C 409.484,788.371 409.833,786.691 410,785 C 410.099,784.005 410.082,782.997 410,782 C 409.833,779.979 409.627,777.928 409,776 C 408.77,775.291 407.374,772.645 407,772 C 406.397,770.961 405.709,769.97 405,769 C 403.74,767.277 402.26,765.723 401,764 C 400.291,763.03 399.87,761.829 399,761 C 397.593,759.659 395.796,758.744 394,758 C 392.73,757.474 391.373,756.947 390,757 C 388.947,757.04 388.019,757.729 387,758 C 385.357,758.436 383.608,758.448 382,759 C 381.295,759.242 378.645,760.626 378,761 C 376.961,761.603 376.016,762.357 375,763 C 373.358,764.039 371.642,764.961 370,766 C 368.984,766.643 367.873,767.174 367,768 C 365.789,769.145 365.092,770.741 364,772 C 363.382,772.712 362.598,773.271 362,774 C 361.238,774.929 360.348,775.85 360,777 C 359.71,777.957 360,779 360,780 C 360,781.333 359.694,782.702 360,784 C 360.171,784.725 360.695,785.32 361,786 C 361.735,787.638 362.012,789.501 363,791 C 363.779,792.181 365,793 366,794 C 367.333,795.333 368.667,796.667 370,798 C 371.333,799.333 372.258,801.278 374,802 C 374.616,802.255 375.342,801.893 376,802 C 378.081,802.338 379.962,803.459 382,804 C 383.643,804.436 385.301,805.04 387,805 C 387.344,804.992 390.67,804.096 391,804 C 393.024,803.411 395.133,802.978 397,802 C 398.476,801.227 399.822,800.179 401,799 C 402.178,797.821 403.183,796.453 404,795 C 404.879,793.435 405.448,791.708 406,790 C 406.211,789.346 406.849,786.67 407,786 C 407.373,784.342 408.106,782.696 408,781 C 407.935,779.948 407.333,779 407,778 C 406.333,776 405.926,773.894 405,772 C 404.472,770.92 401.694,766.981 401,766 C 400.037,764.639 399.092,763.259 398,762 C 397.073,760.932 396.115,759.87 395,759 C 393.468,757.804 391.741,756.864 390,756 C 388.392,755.202 386.763,754.339 385,754 C 384.018,753.811 382.987,753.84 382,754 C 380.96,754.169 376.974,755.597 376,756 C 374.623,756.57 373.289,757.252 372,758 C 370.961,758.603 369.886,759.188 369,760 C 368.213,760.721 365.63,764.139 365,765 C 364.291,765.97 363.348,766.85 363,768 C 362.517,769.595 363,771.333 363,773 C 363,774 362.71,775.043 363,776 C 363.348,777.15 366.238,781.071 367,782 C 368.494,783.823 370.088,785.622 372,787 C 373.209,787.872 374.791,788.128 376,789 C 377.147,789.827 377.797,791.257 379,792 C 380.793,793.108 382.919,793.662 385,794 C 385.987,794.16 387,794 388,794 C 389.667,794 391.363,794.315 393,794 C 394.763,793.661 396.501,792.988 398,792 C 398.394,791.74 399.701,790.365 400,790 C 400.762,789.071 401.54,788.11 402,787 C 402.65,785.43 402.833,783.691 403,782 C 403.131,780.673 403,779.333 403,778 C 403,776 403.197,773.99 403,772 C 402.833,770.309 402.552,768.608 402,767 C 401.637,765.943 399.538,761.98 399,761 C 398.065,759.296 397.196,757.532 396,756 C 395.42,755.257 394.765,754.551 394,754 C 393.395,753.564 392.667,753.333 392,753 C 390.667,752.333 389.451,751.342 388,751 C 387.351,750.847 386.667,751 386,751 C 384.667,751 383.309,750.748 382,751 C 384.667,751 383.309,750.748 382,751 C 380.237,751.339 378.551,752.096 377,753 C 375.156,754.075 373.442,755.427 372,757 C 371.188,757.886 370.528,758.92 370,760 C 369.537,760.947 369.082,761.949 369,763 C 368.841,765.021 369.833,766.979 370,769 C 370.055,769.664 369.784,770.369 370,771 C 371.233,774.595 374.693,776.98 377,780 C 378.012,781.325 378.822,782.821 380,784 C 381.178,785.179 382.582,786.124 384,787 C 385.902,788.176 387.934,789.144 390,790 C 390.974,790.403 391.96,790.831 393,791 C 394.645,791.267 396.419,791.527 398,791 C 399.581,790.473 400.932,789.28 402,788 C 402.955,786.856 403.333,785.333 404,784 C 404.667,782.667 405.389,781.36 406,780 C 406.735,778.362 407.661,776.763 408,775 C 408.189,774.018 408,773 408,772 C 408,770.333 408.383,768.622 408,767 C 407.829,766.275 406.374,763.645 406,763 C 405.397,761.961 404.762,760.929 404,760 C 402.805,758.542 401.333,757.333 400,756 C 399.333,755.333 398.729,754.598 398,754 C 397.071,753.238 396.099,752.486 395,752 C 393.743,751.444 392.364,751.168 391,751 C 390.008,750.878 388.973,750.77 388,751 C 386.549,751.342 385.209,752.128 384,753 C 382.853,753.827 381.897,754.906 381,756 C 380.238,756.929 379.348,757.85 379,759 C 378.71,759.957 379,761 379,762 C 379,764 378.466,766.073 379,768 C 379.519,769.873 381.065,771.296 382,773 C 382.717,774.307 383.128,775.791 384,777 C 385.103,778.53 386.667,779.667 388,781 C 388.667,781.667 389.198,782.504 390,783 C 390.897,783.554 392,783.667 393,784 C 394,784.333 394.949,785.075 396,785 C 396.186,784.987 397.839,784.094 398,784 C 399.039,783.397 400.15,782.85 401,782 C 401.85,781.15 402.54,780.11 403,779 C 403.65,777.43 403.627,775.658 404,774 C 404.302,772.659 404.832,771.364 405,770 C 405.122,769.008 405.16,767.987 405,767 C 404.831,765.96 404.44,764.958 404,764 C 403.594,763.117 401.52,759.821 401,759 C 400.357,757.984 399.762,756.929 399,756 C 398.103,754.906 397.147,753.827 396,753 C 395.395,752.564 394.699,752.259 394,752 C 392.711,751.523 391.364,751.168 390,751 C 389.338,750.919 388.662,750.919 388,751 C 386.636,751.168 385.257,751.444 384,752 C 382.901,752.486 381.886,753.188 381,754 C 379.427,755.442 378.15,757.202 377,759 C 376.598,759.628 375.305,762.32 375,763 C 374.265,764.638 373.214,766.218 373,768 C 372.86,769.17 373.773,773.843 374,775 C 374.264,776.349 374.409,777.759 375,779 C 375.358,779.752 377.454,782.37 378,783 C 379.544,784.781 381.177,786.506 383,788 C 383.929,788.762 384.936,789.44 386,790 C 387.589,790.836 389.237,791.661 391,792 C 392.637,792.315 394.355,792.267 396,792 C 397.04,791.831 398.162,791.64 399,791 C 399.239,790.818 400.849,788.26 401,788 C 401.748,786.711 402.46,785.389 403,784 C 403.88,781.738 404.466,779.367 405,777 C 405.446,775.022 405.833,773.021 406,771 C 406.11,769.671 406.214,768.316 406,767 C 405.662,764.919 404.926,762.894 404,761 C 403.736,760.46 402.347,758.491 402,758 C 401.037,756.639 400.352,754.974 399,754 C 398.145,753.384 397.04,753.169 396,753 C 395.342,752.893 394.667,753 394,753 C 393.333,753 392.596,752.702 392,753 C 391.255,753.373 389.387,756.262 389,757 C 388.511,757.934 388.169,758.96 388,760 C 387.786,761.316 388,762.667 388,764 C 388,765 388.945,766.673 388,767 Z"
       colors="0.692157,0.135294,0.447059,1 0.692157,0.135294,0.447059,1 0.692157,0.135294,0.447059,1 0.692157,0.135294,0.447059,1 0.692157,0.135294,0.447059,1 0.692157,0.135294,0.447059,1 0.692157,0.135294,0.447059,1 0.692157,0.135294,0.447059,1 0.692157,0.135294,0.447059,1 0.692157,0.135294,0.447059,1 0.692157,0.135294,0.447059,1 0.692157,0.135294,0.447059,1 0.692157,0.135294,0.447059,1 0.692157,0.135294,0.447059,1 0.790196,0.164706,0.430719,1 0.790196,0.164706,0.430719,1 0.790196,0.164706,0.430719,1 0.692157,0.135294,0.447059,1 0.692157,0.135294,0.447059,1 0.692157,0.135294,0.447059,1 0.692157,0.135294,0.447059,1 0.692157,0.135294,0.447059,1 0.790196,0.164706,0.430719,1 0.790196,0.164706,0.430719,1 0.692157,0.135294,0.447059,1 0.692157,0.135294,0.447059,1 0.790196,0.164706,0.430719,1 0.692157,0.135294,0.447059,1 0.692157,0.135294,0.447059,1 0.692157,0.135294,0.447059,1 0.692157,0.135294,0.447059,1 0.692157,0.135294,0.447059,1 0.790196,0.164706,0.430719,1 0.790196,0.164706,0.430719,1 0.692157,0.135294,0.447059,1 0.692157,0.135294,0.447059,1 0.692157,0.135294,0.447059,1 0.692157,0.135294,0.447059,1 0.692157,0.135294,0.447059,1 0.692157,0.135294,0.447059,1 0.692157,0.135294,0.447059,1 0.692157,0.135294,0.447059,1 0.692157,0.135294,0.447059,1 0.692157,0.135294,0.447059,1 0.692157,0.135294,0.447059,1 0.692157,0.135294,0.447059,1 0.692157,0.135294,0.447059,1 0.692157,0.135294,0.447059,1 0.692157,0.135294,0.447059,1 0.692157,0.135294,0.447059,1 0.692157,0.135294,0.447059,1 0.692157,0.135294,0.447059,1 0.692157,0.135294,0.447059,1 0.692157,0.135294,0.447059,1 0.692157,0.135294,0.447059,1 0.692157,0.135294,0.447059,1 0.692157,0.135294,0.447059,1 0.692157,0.135294,0.447059,1 0.692157,0.135294,0.447059,1 0.692157,0.135294,0.447059,1 0.692157,0.135294,0.447059,1 0.692157,0.135294,0.447059,1 0.790196,0.164706,0.430719,1 0.790196,0.164706,0.430719,1 0.790196,0.164706,0.430719,1 0.790196,0.164706,0.430719,1 0.790196,0.164706,0.430719,1 0.692157,0.135294,0.447059,1 0.790196,0.164706,0.430719,1 0.790196,0.164706,0.430719,1 0.790196,0.164706,0.430719,1 0.790196,0.164706,0.430719,1 0.692157,0.135294,0.447059,1 0.692157,0.135294,0.447059,1 0.692157,0.135294,0.447059,1 0.692157,0.135294,0.447059,1 0.692157,0.135294,0.447059,1 0.692157,0.135294,0.447059,1 0.692157,0.135294,0.447059,1 0.692157,0.135294,0.447059,1 0.692157,0.135294,0.447059,1 0.692157,0.135294,0.447059,1 0.692157,0.135294,0.447059,1 0.692157,0.135294,0.447059,1 0.692157,0.135294,0.447059,1 0.692157,0.135294,0.447059,1 0.692157,0.135294,0.447059,1 0.692157,0.135294,0.447059,1 0.692157,0.135294,0.447059,1 0.692157,0.135294,0.447059,1 0.692157,0.135294,0.447059,1 0.692157,0.135294,0.447059,1 0.692157,0.135294,0.447059,1 0.790196,0.164706,0.430719,1 0.790196,0.164706,0.430719,1 0.692157,0.135294,0.447059,1 0.692157,0.135294,0.447059,1 0.790196,0.164706,0.430719,1 0.692157,0.135294,0.447059,1 0.692157,0.135294,0.447059,1 0.692157,0.135294,0.447059,1 0.692157,0.135294,0.447059,1 0.692157,0.135294,0.447059,1 0.692157,0.135294,0.447059,1 0.692157,0.135294,0.447059,1 0.692157,0.135294,0.447059,1 0.692157,0.135294,0.447059,1 0.692157,0.135294,0.447059,1 0.790196,0.164706,0.430719,1 0.790196,0.164706,0.430719,1 0.692157,0.135294,0.447059,1 0.790196,0.164706,0.430719,1 0.790196,0.164706,0.430719,1 0.790196,0.164706,0.430719,1 0.790196,0.164706,0.430719,1 0.692157,0.135294,0.447059,1 0.692157,0.135294,0.447059,1 0.692157,0.135294,0.447059,1 0.692157,0.135294,0.447059,1 0.692157,0.135294,0.447059,1 0.692157,0.135294,0.447059,1 0.692157,0.135294,0.447059,1 0.790196,0.164706,0.430719,1 0.790196,0.164706,0.430719,1 0.790196,0.164706,0.430719,1 0.790196,0.164706,0.430719,1 0.790196,0.164706,0.430719,1 0.692157,0.135294,0.447059,1 0.692157,0.135294,0.447059,1 0.692157,0.135294,0.447059,1 0.692157,0.135294,0.447059,1 0.692157,0.135294,0.447059,1 0.692157,0.135294,0.447059,1 0.692157,0.135294,0.447059,1 0.692157,0.135294,0.447059,1 0.790196,0.164706,0.430719,1 0.790196,0.164706,0.430719,1 0.692157,0.135294,0.447059,1 0.692157,0.135294,0.447059,1 0.692157,0.135294,0.447059,1 0.692157,0.135294,0.447059,1 0.692157,0.135294,0.447059,1 0.790196,0.164706,0.430719,1 0.790196,0.164706,0.430719,1 0.692157,0.135294,0.447059,1 0.692157,0.135294,0.447059,1 0.692157,0.135294,0.447059,1 0.692157,0.135294,0.447059,1 0.692157,0.135294,0.447059,1 0.692157,0.135294,0.447059,1 0.692157,0.135294,0.447059,1 0.692157,0.135294,0.447059,1 0.692157,0.135294,0.447059,1 0.692157,0.135294,0.447059,1 0.692157,0.135294,0.447059,1 0.692157,0.135294,0.447059,1 0.692157,0.135294,0.447059,1 0.692157,0.135294,0.447059,1 0.692157,0.135294,0.447059,1 0.692157,0.135294,0.447059,1 0.790196,0.164706,0.430719,1 0.790196,0.164706,0.430719,1 0.692157,0.135294,0.447059,1 0.692157,0.135294,0.447059,1 0.692157,0.135294,0.447059,1 0.790196,0.164706,0.430719,1 0.692157,0.135294,0.447059,1 0.692157,0.135294,0.447059,1 0.692157,0.135294,0.447059,1 0.692157,0.135294,0.447059,1 0.692157,0.135294,0.447059,1 0.692157,0.135294,0.447059,1 0.692157,0.135294,0.447059,1 0.692157,0.135294,0.447059,1 0.790196,0.164706,0.430719,1 0.790196,0.164706,0.430719,1 0.692157,0.135294,0.447059,1 0.790196,0.164706,0.430719,1 0.790196,0.164706,0.430719,1 0.790196,0.164706,0.430719,1 0.790196,0.164706,0.430719,1 0.692157,0.135294,0.447059,1 0.692157,0.135294,0.447059,1 0.790196,0.164706,0.430719,1 0.692157,0.135294,0.447059,1 0.692157,0.135294,0.447059,1 0.790196,0.164706,0.430719,1 0.790196,0.164706,0.430719,1 0.790196,0.164706,0.430719,1 0.692157,0.135294,0.447059,1 0.692157,0.135294,0.447059,1 0.692157,0.135294,0.447059,1 0.790196,0.164706,0.430719,1 0.790196,0.164706,0.430719,1 0.790196,0.164706,0.430719,1 0.790196,0.164706,0.430719,1 0.790196,0.164706,0.430719,1 0.790196,0.164706,0.430719,1 0.790196,0.164706,0.430719,1 0.790196,0.164706,0.430719,1 0.692157,0.135294,0.447059,1 0.692157,0.135294,0.447059,1 0.790196,0.164706,0.430719,1 0.790196,0.164706,0.430719,1 0.790196,0.164706,0.430719,1 0.790196,0.164706,0.430719,1 0.790196,0.164706,0.430719,1 0.790196,0.164706,0.430719,1 0.790196,0.164706,0.430719,1 0.790196,0.164706,0.430719,1 0.790196,0.164706,0.430719,1 0.692157,0.135294,0.447059,1 0.692157,0.135294,0.447059,1 0.790196,0.164706,0.430719,1 0.790196,0.164706,0.430719,1 0.692157,0.135294,0.447059,1 0.692157,0.135294,0.447059,1 0.692157,0.135294,0.447059,1 0.692157,0.135294,0.447059,1 0.790196,0.164706,0.430719,1 0.790196,0.164706,0.430719,1 0.692157,0.135294,0.447059,1 0.692157,0.135294,0.447059,1 0.692157,0.135294,0.447059,1 0.692157,0.135294,0.447059,1 0.692157,0.135294,0.447059,1 0.790196,0.164706,0.430719,1 0.790196,0.164706,0.430719,1 0.692157,0.135294,0.447059,1 0.790196,0.164706,0.430719,1 0.790196,0.164706,0.430719,1 0.692157,0.135294,0.447059,1 0.692157,0.135294,0.447059,1 0.692157,0.135294,0.447059,1 0.692157,0.135294,0.447059,1 0.692157,0.135294,0.447059,1 0.692157,0.135294,0.447059,1 0.692157,0.135294,0.447059,1 0.692157,0.135294,0.447059,1 0.692157,0.135294,0.447059,1 0.692157,0.135294,0.447059,1 0.692157,0.135294,0.447059,1 0.692157,0.135294,0.447059,1 0.692157,0.135294,0.447059,1 0.692157,0.135294,0.447059,1 0.692157,0.135294,0.447059,1 0.692157,0.135294,0.447059,1 0.790196,0.164706,0.430719,1 0.790196,0.164706,0.430719,1 0.692157,0.135294,0.447059,1 0.692157,0.135294,0.447059,1 0.692157,0.135294,0.447059,1 0.692157,0.135294,0.447059,1 0.692157,0.135294,0.447059,1 0.692157,0.135294,0.447059,1 0.692157,0.135294,0.447059,1 0.692157,0.135294,0.447059,1 0.692157,0.135294,0.447059,1 0.692157,0.135294,0.447059,1 0.692157,0.135294,0.447059,1 0.692157,0.135294,0.447059,1 0.692157,0.135294,0.447059,1 0.692157,0.135294,0.447059,1 0.692157,0.135294,0.447059,1 0.692157,0.135294,0.447059,1 0.692157,0.135294,0.447059,1 0.692157,0.135294,0.447059,1 0.692157,0.135294,0.447059,1 0.692157,0.135294,0.447059,1 0.692157,0.135294,0.447059,1 0.692157,0.135294,0.447059,1 0.692157,0.135294,0.447059,1 0.692157,0.135294,0.447059,1 0.692157,0.135294,0.447059,1 0.692157,0.135294,0.447059,1 0.692157,0.135294,0.447059,1 0.790196,0.164706,0.430719,1 0.790196,0.164706,0.430719,1 0.692157,0.135294,0.447059,1 0.692157,0.135294,0.447059,1 0.692157,0.135294,0.447059,1 0.692157,0.135294,0.447059,1 0.692157,0.135294,0.447059,1 0.790196,0.164706,0.430719,1 0.692157,0.135294,0.447059,1 0.692157,0.135294,0.447059,1 0.692157,0.135294,0.447059,1 0.790196,0.164706,0.430719,1 0.790196,0.164706,0.430719,1 0.692157,0.135294,0.447059,1 0.692157,0.135294,0.447059,1 0.692157,0.135294,0.447059,1 0.692157,0.135294,0.447059,1 0.692157,0.135294,0.447059,1 0.692157,0.135294,0.447059,1 0.692157,0.135294,0.447059,1 0.692157,0.135294,0.447059,1 0.692157,0.135294,0.447059,1 0.692157,0.135294,0.447059,1 0.692157,0.135294,0.447059,1 0.790196,0.164706,0.430719,1 0.790196,0.164706,0.430719,1 0.692157,0.135294,0.447059,1 0.692157,0.135294,0.447059,1 0.692157,0.135294,0.447059,1 0.692157,0.135294,0.447059,1 0.692157,0.135294,0.447059,1 0.692157,0.135294,0.447059,1 0.692157,0.135294,0.447059,1 0.692157,0.135294,0.447059,1 0.692157,0.135294,0.447059,1 0.692157,0.135294,0.447059,1 0.692157,0.135294,0.447059,1 0.692157,0.135294,0.447059,1 0.692157,0.135294,0.447059,1 0.692157,0.135294,0.447059,1 0.692157,0.135294,0.447059,1 0.692157,0.135294,0.447059,1 0.692157,0.135294,0.447059,1 0.692157,0.135294,0.447059,1 0.692157,0.135294,0.447059,1 0.692157,0.135294,0.447059,1 0.692157,0.135294,0.447059,1 0.692157,0.135294,0.447059,1 0.692157,0.135294,0.447059,1 0.692157,0.135294,0.447059,1 0.692157,0.135294,0.447059,1 0.692157,0.135294,0.447059,1 0.692157,0.135294,0.447059,1 0.692157,0.135294,0.447059,1 0.692157,0.135294,0.447059,1 0.692157,0.135294,0.447059,1 0.692157,0.135294,0.447059,1 0.692157,0.135294,0.447059,1 0.692157,0.135294,0.447059,1 0.692157,0.135294,0.447059,1 0.692157,0.135294,0.447059,1 0.692157,0.135294,0.447059,1 0.692157,0.135294,0.447059,1 0.692157,0.135294,0.447059,1 0.692157,0.135294,0.447059,1 0.692157,0.135294,0.447059,1 0.790196,0.164706,0.430719,1 0.692157,0.135294,0.447059,1 0.692157,0.135294,0.447059,1 0.692157,0.135294,0.447059,1 0.692157,0.135294,0.447059,1 0.692157,0.135294,0.447059,1 0.692157,0.135294,0.447059,1 0.692157,0.135294,0.447059,1 0.790196,0.164706,0.430719,1 0.790196,0.164706,0.430719,1 0.790196,0.164706,0.430719,1 0.692157,0.135294,0.447059,1 0.692157,0.135294,0.447059,1 0.692157,0.135294,0.447059,1 0.692157,0.135294,0.447059,1 0.692157,0.135294,0.447059,1 0.692157,0.135294,0.447059,1 0.692157,0.135294,0.447059,1 0.692157,0.135294,0.447059,1 0.692157,0.135294,0.447059,1 0.692157,0.135294,0.447059,1 0.790196,0.164706,0.430719,1 0.692157,0.135294,0.447059,1 0.692157,0.135294,0.447059,1 0.692157,0.135294,0.447059,1 0.692157,0.135294,0.447059,1 0.692157,0.135294,0.447059,1 0.692157,0.135294,0.447059,1 0.692157,0.135294,0.447059,1 0.692157,0.135294,0.447059,1 0.692157,0.135294,0.447059,1 0.692157,0.135294,0.447059,1 0.790196,0.164706,0.430719,1 0.790196,0.164706,0.430719,1 0.692157,0.135294,0.447059,1 0.692157,0.135294,0.447059,1 0.692157,0.135294,0.447059,1 0.692157,0.135294,0.447059,1 0.790196,0.164706,0.430719,1 0.790196,0.164706,0.430719,1 0.692157,0.135294,0.447059,1 0.692157,0.135294,0.447059,1 0.692157,0.135294,0.447059,1 0.692157,0.135294,0.447059,1 0.692157,0.135294,0.447059,1 0.790196,0.164706,0.430719,1 0.790196,0.164706,0.430719,1 0.692157,0.135294,0.447059,1 0.692157,0.135294,0.447059,1 0.692157,0.135294,0.447059,1 0.790196,0.164706,0.430719,1 0.692157,0.135294,0.447059,1 0.692157,0.135294,0.447059,1 0.692157,0.135294,0.447059,1 0.692157,0.135294,0.447059,1 0.692157,0.135294,0.447059,1 0.790196,0.164706,0.430719,1 0.790196,0.164706,0.430719,1 0.790196,0.164706,0.430719,1 0.790196,0.164706,0.430719,1 0.790196,0.164706,0.430719,1 0.692157,0.135294,0.447059,1 0.692157,0.135294,0.447059,1 0.790196,0.164706,0.430719,1 0.692157,0.135294,0.447059,1 0.692157,0.135294,0.447059,1 0.692157,0.135294,0.447059,1 0.790196,0.164706,0.430719,1 0.790196,0.164706,0.430719,1 0.790196,0.164706,0.430719,1 0.790196,0.164706,0.430719,1 0.692157,0.135294,0.447059,1 0.692157,0.135294,0.447059,1 0.790196,0.164706,0.430719,1 0.790196,0.164706,0.430719,1 0.790196,0.164706,0.430719,1 0.790196,0.164706,0.430719,1 0.692157,0.135294,0.447059,1 0.692157,0.135294,0.447059,1 0.692157,0.135294,0.447059,1 0.692157,0.135294,0.447059,1 0.692157,0.135294,0.447059,1 0.790196,0.164706,0.430719,1 0.790196,0.164706,0.430719,1 0.790196,0.164706,0.430719,1 0.790196,0.164706,0.430719,1 0.790196,0.164706,0.430719,1 0.692157,0.135294,0.447059,1 0.692157,0.135294,0.447059,1 0.790196,0.164706,0.430719,1 0.692157,0.135294,0.447059,1 0.692157,0.135294,0.447059,1 0.790196,0.164706,0.430719,1 0.790196,0.164706,0.430719,1 0.790196,0.164706,0.430719,1 0.692157,0.135294,0.447059,1 0.692157,0.135294,0.447059,1 0.692157,0.135294,0.447059,1 0.790196,0.164706,0.430719,1 0.790196,0.164706,0.430719,1 0.692157,0.135294,0.447059,1 0.790196,0.164706,0.430719,1 0.790196,0.164706,0.430719,1 0.790196,0.164706,0.430719,1 0.790196,0.164706,0.430719,1 0.790196,0.164706,0.430719,1 0.790196,0.164706,0.430719,1 0.790196,0.164706,0.430719,1 0.692157,0.135294,0.447059,1 0.790196,0.164706,0.430719,1 0.790196,0.164706,0.430719,1 0.790196,0.164706,0.430719,1 0.790196,0.164706,0.430719,1 0.692157,0.135294,0.447059,1 0.692157,0.135294,0.447059,1 0.692157,0.135294,0.447059,1 0.692157,0.135294,0.447059,1 0.692157,0.135294,0.447059,1 0.692157,0.135294,0.447059,1 0.790196,0.164706,0.430719,1 0.790196,0.164706,0.430719,1 0.692157,0.135294,0.447059,1 0.692157,0.135294,0.447059,1 0.790196,0.164706,0.430719,1 0.790196,0.164706,0.430719,1 0.692157,0.135294,0.447059,1 0.692157,0.135294,0.447059,1 0.790196,0.164706,0.430719,1 0.790196,0.164706,0.430719,1 0.692157,0.135294,0.447059,1 0.692157,0.135294,0.447059,1 0.692157,0.135294,0.447059,1 0.790196,0.164706,0.430719,1 0.790196,0.164706,0.430719,1 0.790196,0.164706,0.430719,1 0.790196,0.164706,0.430719,1 0.790196,0.164706,0.430719,1 0.692157,0.135294,0.447059,1 0.790196,0.164706,0.430719,1 0.790196,0.164706,0.430719,1 0.790196,0.164706,0.430719,1 0.790196,0.164706,0.430719,1 0.790196,0.164706,0.430719,1 0.790196,0.164706,0.430719,1 0.790196,0.164706,0.430719,1 0.790196,0.164706,0.430719,1 0.790196,0.164706,0.430719,1 0.692157,0.135294,0.447059,1 0.790196,0.164706,0.430719,1 0.790196,0.164706,0.430719,1 0.692157,0.135294,0.447059,1 0.692157,0.135294,0.447059,1 0.692157,0.135294,0.447059,1 0.692157,0.135294,0.447059,1 0.692157,0.135294,0.447059,1 0.692157,0.135294,0.447059,1 0.692157,0.135294,0.447059,1 0.692157,0.135294,0.447059,1 0.692157,0.135294,0.447059,1 0.692157,0.135294,0.447059,1 0.692157,0.135294,0.447059,1 0.692157,0.135294,0.447059,1 0.692157,0.135294,0.447059,1 0.692157,0.135294,0.447059,1 0.692157,0.135294,0.447059,1 0.692157,0.135294,0.447059,1 0.692157,0.135294,0.447059,1 0.692157,0.135294,0.447059,1 0.692157,0.135294,0.447059,1 0.692157,0.135294,0.447059,1 0.692157,0.135294,0.447059,1 0.692157,0.135294,0.447059,1 0.692157,0.135294,0.447059,1 0.692157,0.135294,0.447059,1 0.692157,0.135294,0.447059,1 0.692157,0.135294,0.447059,1 0.692157,0.135294,0.447059,1 0.692157,0.135294,0.447059,1 0.692157,0.135294,0.447059,1 0.692157,0.135294,0.447059,1 0.692157,0.135294,0.447059,1 "
       brushes="0,7.06981,7.06981 0,7.00519,7.00519 0,6.96853,6.96853 0,6.96853,6.96853 0,7.00332,7.00332 0,7.0928,7.0928 0,7.15929,7.15929 0,7.20279,7.20279 0,7.22516,7.22516 0,7.23945,7.23945 0,7.24069,7.24069 0,7.23075,7.23075 0,7.22205,7.22205 0,7.21708,7.21708 0,7.21397,7.21397 0,7.19347,7.19347 0,7.19533,7.19533 0,7.19223,7.19223 0,7.16986,7.16986 0,7.145,7.145 0,7.09218,7.09218 0,7.08038,7.08038 0,7.05552,7.05552 0,7.04434,7.04434 0,6.98903,6.98903 0,6.94491,6.94491 0,6.90887,6.90887 0,6.89458,6.89458 0,6.88588,6.88588 0,6.86724,6.86724 0,6.84425,6.84425 0,6.76347,6.76347 0,6.73302,6.73302 0,6.75788,6.75788 0,6.80013,6.80013 0,6.85792,6.85792 0,6.91695,6.91695 0,6.9648,6.9648 0,6.98965,6.98965 0,7.02383,7.02383 0,7.06049,7.06049 0,7.0984,7.0984 0,7.12014,7.12014 0,7.12077,7.12077 0,7.11952,7.11952 0,7.11766,7.11766 0,7.10647,7.10647 0,7.08908,7.08908 0,7.06111,7.06111 0,7.02445,7.02445 0,6.94864,6.94864 0,6.89085,6.89085 0,6.8486,6.8486 0,6.83866,6.83866 0,6.83803,6.83803 0,6.8051,6.8051 0,6.77465,6.77465 0,6.73799,6.73799 0,6.73737,6.73737 0,6.7585,6.7585 0,6.81815,6.81815 0,6.86786,6.86786 0,6.89458,6.89458 0,6.9387,6.9387 0,6.98282,6.98282 0,7.0288,7.0288 0,7.06298,7.06298 0,7.09156,7.09156 0,7.10088,7.10088 0,7.08659,7.08659 0,7.0375,7.0375 0,6.98406,6.98406 0,6.92503,6.92503 0,6.90949,6.90949 0,6.87283,6.87283 0,6.80821,6.80821 0,6.78087,6.78087 0,6.76409,6.76409 0,6.77217,6.77217 0,6.80448,6.80448 0,6.80075,6.80075 0,6.79019,6.79019 0,6.7616,6.7616 0,6.75974,6.75974 0,6.7703,6.7703 0,6.83741,6.83741 0,6.86227,6.86227 0,6.91571,6.91571 0,6.93497,6.93497 0,7.00208,7.00208 0,7.03812,7.03812 0,7.06298,7.06298 0,7.07106,7.07106 0,7.07043,7.07043 0,7.06173,7.06173 0,7.01575,7.01575 0,6.94491,6.94491 0,6.90701,6.90701 0,6.87221,6.87221 0,6.83617,6.83617 0,6.83368,6.83368 0,6.82001,6.82001 0,6.80883,6.80883 0,6.81815,6.81815 0,6.82685,6.82685 0,6.84798,6.84798 0,6.84736,6.84736 0,6.79764,6.79764 0,6.78149,6.78149 0,6.79392,6.79392 0,6.85916,6.85916 0,6.88961,6.88961 0,6.92254,6.92254 0,6.93684,6.93684 0,6.92752,6.92752 0,6.94616,6.94616 0,6.97536,6.97536 0,6.9766,6.9766 0,7.00705,7.00705 0,7.04496,7.04496 0,7.02569,7.02569 0,7.02383,7.02383 0,6.98593,6.98593 0,6.98468,6.98468 0,6.96231,6.96231 0,6.96231,6.96231 0,6.89645,6.89645 0,6.86351,6.86351 0,6.81007,6.81007 0,6.79578,6.79578 0,6.79827,6.79827 0,6.79764,6.79764 0,6.82064,6.82064 0,6.81132,6.81132 0,6.78397,6.78397 0,6.77092,6.77092 0,6.78832,6.78832 0,6.83617,6.83617 0,6.88837,6.88837 0,6.89707,6.89707 0,6.89893,6.89893 0,6.90639,6.90639 0,6.9387,6.9387 0,6.96728,6.96728 0,6.98841,6.98841 0,7.00892,7.00892 0,7.01202,7.01202 0,7.0288,7.0288 0,6.9996,6.9996 0,6.99835,6.99835 0,6.96604,6.96604 0,6.93373,6.93373 0,6.90701,6.90701 0,6.88029,6.88029 0,6.86475,6.86475 0,6.86538,6.86538 0,6.83431,6.83431 0,6.83306,6.83306 0,6.82436,6.82436 0,6.82499,6.82499 0,6.82499,6.82499 0,6.85233,6.85233 0,6.85233,6.85233 0,6.88588,6.88588 0,6.89458,6.89458 0,6.89458,6.89458 0,6.86413,6.86413 0,6.84736,6.84736 0,6.8747,6.8747 0,6.90514,6.90514 0,6.93186,6.93186 0,6.88215,6.88215 0,6.87283,6.87283 0,6.86227,6.86227 0,6.86227,6.86227 0,6.88153,6.88153 0,6.91757,6.91757 0,6.94864,6.94864 0,6.96418,6.96418 0,6.93746,6.93746 0,6.90763,6.90763 0,6.88215,6.88215 0,6.8834,6.8834 0,6.88215,6.88215 0,6.86724,6.86724 0,6.88091,6.88091 0,6.86973,6.86973 0,6.89085,6.89085 0,6.89085,6.89085 0,6.86351,6.86351 0,6.86165,6.86165 0,6.8604,6.8604 0,6.90639,6.90639 0,6.91633,6.91633 0,6.91757,6.91757 0,6.93932,6.93932 0,6.92441,6.92441 0,6.91695,6.91695 0,6.90825,6.90825 0,6.91384,6.91384 0,6.91571,6.91571 0,6.92317,6.92317 0,6.89831,6.89831 0,6.88526,6.88526 0,6.90514,6.90514 0,6.91509,6.91509 0,6.94553,6.94553 0,6.98033,6.98033 0,6.99152,6.99152 0,6.99214,6.99214 0,7.01264,7.01264 0,7.0114,7.0114 0,7.00084,7.00084 0,7.00519,7.00519 0,6.98406,6.98406 0,6.93808,6.93808 0,6.91509,6.91509 0,6.89707,6.89707 0,6.90328,6.90328 0,6.92814,6.92814 0,6.91509,6.91509 0,6.89396,6.89396 0,6.8865,6.8865 0,6.9126,6.9126 0,6.95672,6.95672 0,7.00457,7.00457 0,7.00643,7.00643 0,7.04931,7.04931 0,7.03812,7.03812 0,7.0288,7.0288 0,7.06298,7.06298 0,7.06484,7.06484 0,7.0549,7.0549 0,7.03502,7.03502 0,7.03067,7.03067 0,7.03004,7.03004 0,7.03999,7.03999 0,7.06111,7.06111 0,7.07416,7.07416 0,7.08908,7.08908 0,7.081,7.081 0,7.06608,7.06608 0,7.04931,7.04931 0,7.02632,7.02632 0,7.03377,7.03377 0,7.02569,7.02569 0,6.98033,6.98033 0,6.97039,6.97039 0,6.95858,6.95858 0,6.93186,6.93186 0,6.89147,6.89147 0,6.86351,6.86351 0,6.85046,6.85046 0,6.83368,6.83368 0,6.82996,6.82996 0,6.87408,6.87408 0,6.92565,6.92565 0,6.96542,6.96542 0,6.96728,6.96728 0,7.00519,7.00519 0,6.99649,6.99649 0,7.01575,7.01575 0,7.01202,7.01202 0,7.04993,7.04993 0,7.08224,7.08224 0,7.0841,7.0841 0,7.06733,7.06733 0,7.03129,7.03129 0,7.03377,7.03377 0,7.04558,7.04558 0,7.06919,7.06919 0,7.07665,7.07665 0,7.09964,7.09964 0,7.1189,7.1189 0,7.11828,7.11828 0,7.09591,7.09591 0,7.08535,7.08535 0,7.07975,7.07975 0,7.05676,7.05676 0,7.03812,7.03812 0,7.03626,7.03626 0,7.01637,7.01637 0,6.98033,6.98033 0,6.95361,6.95361 0,6.92814,6.92814 0,6.92814,6.92814 0,6.89955,6.89955 0,6.92254,6.92254 0,6.9474,6.9474 0,6.9909,6.9909 0,7.02507,7.02507 0,7.04682,7.04682 0,7.07913,7.07913 0,7.06981,7.06981 0,7.08659,7.08659 0,7.13444,7.13444 0,7.13319,7.13319 0,7.13133,7.13133 0,7.10461,7.10461 0,7.09405,7.09405 0,7.0928,7.0928 0,7.11952,7.11952 0,7.13133,7.13133 0,7.14438,7.14438 0,7.15805,7.15805 0,7.18042,7.18042 0,7.1885,7.1885 0,7.2003,7.2003 0,7.21397,7.21397 0,7.20838,7.20838 0,7.20465,7.20465 0,7.19471,7.19471 0,7.16053,7.16053 0,7.09777,7.09777 0,7.06546,7.06546 0,7.02507,7.02507 0,6.99462,6.99462 0,6.9853,6.9853 0,6.97536,6.97536 0,6.96666,6.96666 0,6.94864,6.94864 0,6.96791,6.96791 0,6.95299,6.95299 0,6.96853,6.96853 0,6.97101,6.97101 0,6.99835,6.99835 0,7.04247,7.04247 0,7.05117,7.05117 0,7.05303,7.05303 0,7.07603,7.07603 0,7.12947,7.12947 0,7.14438,7.14438 0,7.13257,7.13257 0,7.11704,7.11704 0,7.10958,7.10958 0,7.12201,7.12201 0,7.15432,7.15432 0,7.20217,7.20217 0,7.23821,7.23821 0,7.24069,7.24069 0,7.25002,7.25002 0,7.24194,7.24194 0,7.23075,7.23075 0,7.21211,7.21211 0,7.21211,7.21211 0,7.20465,7.20465 0,7.17234,7.17234 0,7.14686,7.14686 0,7.13754,7.13754 0,7.13754,7.13754 0,7.10896,7.10896 0,7.0984,7.0984 0,7.05055,7.05055 0,7.03129,7.03129 0,6.99587,6.99587 0,6.95423,6.95423 0,6.94429,6.94429 0,6.9766,6.9766 0,7.00643,7.00643 0,7.01948,7.01948 0,7.04806,7.04806 0,7.06484,7.06484 0,7.06733,7.06733 0,7.08224,7.08224 0,7.10399,7.10399 0,7.10772,7.10772 0,7.17234,7.17234 0,7.17234,7.17234 0,7.16116,7.16116 0,7.14935,7.14935 0,7.14562,7.14562 0,7.14624,7.14624 0,7.14686,7.14686 0,7.14811,7.14811 0,7.16923,7.16923 0,7.18415,7.18415 0,7.19782,7.19782 0,7.18228,7.18228 0,7.08535,7.08535 0,7.0288,7.0288 0,7.0201,7.0201 0,6.99338,6.99338 0,6.98406,6.98406 0,6.97163,6.97163 0,6.9909,6.9909 0,6.9909,6.9909 0,6.99027,6.99027 0,6.98158,6.98158 0,6.97412,6.97412 0,6.97225,6.97225 0,6.95423,6.95423 0,6.97288,6.97288 0,6.97598,6.97598 0,6.994,6.994 0,6.99711,6.99711 0,7.0375,7.0375 0,7.06298,7.06298 0,7.10647,7.10647 0,7.1071,7.1071 0,7.14873,7.14873 0,7.21522,7.21522 0,7.22392,7.22392 0,7.22827,7.22827 0,7.22454,7.22454 0,7.19471,7.19471 0,7.19285,7.19285 0,7.19471,7.19471 0,7.22454,7.22454 0,7.23386,7.23386 0,7.26058,7.26058 0,7.23386,7.23386 0,7.18663,7.18663 0,7.14873,7.14873 0,7.11455,7.11455 0,7.1158,7.1158 0,7.08162,7.08162 0,7.04496,7.04496 0,7.02197,7.02197 0,7.02197,7.02197 0,7.00643,7.00643 0,7.00643,7.00643 0,6.9909,6.9909 0,6.95113,6.95113 0,6.97163,6.97163 0,6.98095,6.98095 0,7.05303,7.05303 0,7.06422,7.06422 0,7.12263,7.12263 0,7.15743,7.15743 0,7.19285,7.19285 0,7.18228,7.18228 0,7.17296,7.17296 0,7.17296,7.17296 0,7.1972,7.1972 0,7.2177,7.2177 0,7.25561,7.25561 0,7.28046,7.28046 0,7.3047,7.3047 0,7.33514,7.33514 0,7.34819,7.34819 0,7.34819,7.34819 0,7.34447,7.34447 0,7.31775,7.31775 0,7.23697,7.23697 0,7.18353,7.18353 0,7.18166,7.18166 0,7.12512,7.12512 0,7.0928,7.0928 0,7.06049,7.06049 0,7.03191,7.03191 0,7.04682,7.04682 0,7.09653,7.09653 0,7.14189,7.14189 0,7.15681,7.15681 0,7.18291,7.18291 0,7.20714,7.20714 0,7.24442,7.24442 0,7.25934,7.25934 0,7.28978,7.28978 0,7.28854,7.28854 0,7.27549,7.27549 0,7.27673,7.27673 0,7.31215,7.31215 0,7.35752,7.35752 0,7.36684,7.36684 0,7.3687,7.3687 0,7.37243,7.37243 0,7.38175,7.38175 0,7.32334,7.32334 0,7.28543,7.28543 0,7.24629,7.24629 0,7.23262,7.23262 0,7.2233,7.2233 0,7.1972,7.1972 0,7.18539,7.18539 0,7.21397,7.21397 0,7.24442,7.24442 0,7.24318,7.24318 0,7.24629,7.24629 0,7.23883,7.23883 0,7.24939,7.24939 0,7.21895,7.21895 0,7.23386,7.23386 0,7.26617,7.26617 0,7.26866,7.26866 0,7.26928,7.26928 0,7.29227,7.29227 0,7.31837,7.31837 0,7.34074,7.34074 0,7.34322,7.34322 0,7.36932,7.36932 0,7.36746,7.36746 0,7.31278,7.31278 0,7.27301,7.27301 0,7.16923,7.16923 0,7.1158,7.1158 0,7.07043,7.07043 0,7.04869,7.04869 0,7.06484,7.06484 0,7.09653,7.09653 0,7.12884,7.12884 0,7.15743,7.15743 0,7.1798,7.1798 0,7.21149,7.21149 0,7.24194,7.24194 0,7.25312,7.25312 0,7.2525,7.2525 0,7.25623,7.25623 0,7.26741,7.26741 0,7.23759,7.23759 0,7.20155,7.20155 0,7.20217,7.20217 0,7.22392,7.22392 0,7.24318,7.24318 0,7.26182,7.26182 0,7.30345,7.30345 0,7.29786,7.29786 0,7.27549,7.27549 0,7.18228,7.18228 0,7.1276,7.1276 0,7.08162,7.08162 0,6.81256,6.81256 0,4,4 "
       timeStamps="302.456 302.467 302.481 302.491 302.503 302.516 302.528 302.539 302.551 302.563 302.574 302.587 302.599 302.611 302.623 302.635 302.647 302.658 302.671 302.683 302.694 302.707 302.718 302.73 302.742 302.753 302.765 302.777 302.788 302.801 302.813 302.826 302.838 302.85 302.861 302.873 302.887 302.898 302.911 302.924 302.936 302.948 302.961 302.974 302.985 302.998 303.009 303.021 303.034 303.047 303.058 303.071 303.081 303.094 303.106 303.118 303.13 303.142 303.155 303.166 303.18 303.191 303.203 303.215 303.226 303.239 303.251 303.263 303.275 303.288 303.299 303.311 303.324 303.336 303.348 303.36 303.373 303.385 303.396 303.409 303.42 303.433 303.444 303.456 303.469 303.481 303.493 303.505 303.516 303.529 303.54 303.553 303.564 303.577 303.591 303.602 303.614 303.626 303.638 303.65 303.662 303.674 303.686 303.699 303.71 303.723 303.735 303.748 303.759 303.773 303.784 303.797 303.809 303.821 303.835 303.846 303.86 303.871 303.885 303.896 303.909 303.922 303.934 303.947 303.959 303.971 303.983 303.995 304.008 304.02 304.033 304.044 304.058 304.069 304.081 304.096 304.106 304.119 304.132 304.144 304.157 304.168 304.181 304.194 304.205 304.218 304.23 304.243 304.254 304.267 304.278 304.291 304.303 304.315 304.328 304.34 304.353 304.365 304.378 304.39 304.401 304.415 304.426 304.439 304.452 304.464 304.476 304.489 304.501 304.513 304.526 304.538 304.552 304.564 304.575 304.589 304.6 304.613 304.626 304.638 304.651 304.662 304.675 304.687 304.7 304.712 304.725 304.737 304.749 304.762 304.775 304.788 304.799 304.813 304.825 304.838 304.851 304.863 304.876 304.889 304.901 304.913 304.926 304.939 304.952 304.964 304.976 304.989 305.001 305.014 305.026 305.038 305.051 305.063 305.075 305.088 305.099 305.113 305.125 305.138 305.15 305.162 305.175 305.187 305.199 305.212 305.223 305.237 305.248 305.261 305.273 305.285 305.298 305.309 305.323 305.334 305.347 305.359 305.371 305.383 305.396 305.409 305.421 305.433 305.446 305.457 305.471 305.483 305.496 305.508 305.52 305.532 305.544 305.557 305.568 305.582 305.593 305.605 305.619 305.632 305.645 305.656 305.668 305.681 305.693 305.705 305.717 305.73 305.742 305.755 305.767 305.779 305.792 305.804 305.816 305.828 305.841 305.853 305.865 305.878 305.891 305.903 305.915 305.928 305.94 305.952 305.965 305.977 305.99 306.001 306.014 306.026 306.038 306.051 306.064 306.077 306.089 306.101 306.114 306.127 306.14 306.152 306.166 306.177 306.191 306.203 306.215 306.227 306.24 306.252 306.265 306.278 306.291 306.303 306.315 306.328 306.34 306.353 306.366 306.377 306.389 306.403 306.415 306.427 306.439 306.451 306.464 306.476 306.488 306.501 306.517 306.527 306.538 306.551 306.563 306.576 306.589 306.601 306.614 306.626 306.638 306.651 306.663 306.676 306.69 306.703 306.714 306.726 306.739 306.75 306.764 306.776 306.788 306.801 306.814 306.825 306.838 306.851 306.863 306.876 306.888 306.902 306.914 306.925 306.939 306.95 306.963 306.976 306.988 307 307.011 307.024 307.037 307.05 307.061 307.074 307.086 307.099 307.113 307.124 307.136 307.149 307.161 307.174 307.185 307.199 307.212 307.224 307.236 307.248 307.261 307.272 307.285 307.297 307.31 307.321 307.334 307.347 307.359 307.371 307.384 307.397 307.408 307.421 307.433 307.445 307.458 307.47 307.482 307.495 307.507 307.52 307.532 307.545 307.557 307.57 307.582 307.595 307.606 307.62 307.632 307.644 307.656 307.669 307.68 307.693 307.706 307.717 307.731 307.743 307.755 307.768 307.78 307.793 307.804 307.817 307.83 307.841 307.854 307.868 307.879 307.892 307.904 307.916 307.929 307.94 307.952 307.965 307.978 307.989 308.001 308.015 308.027 308.039 308.051 308.063 308.077 308.089 308.101 308.113 308.126 308.139 308.151 308.163 308.176 308.189 308.2 308.213 308.226 308.238 308.251 308.263 308.276 308.288 308.301 308.313 308.324 308.337 308.349 308.363 308.374 308.386 308.4 308.411 308.424 308.437 308.448 308.461 308.474 308.486 308.499 308.511 308.524 308.536 308.548 308.561 308.574 308.585 308.599 308.61 308.624 308.636 308.647 308.661 308.673 308.685 308.697 308.71 308.721 308.734 308.746 308.759 308.773 308.783 308.797 308.808 308.821 308.834 308.846 308.859 308.871 308.884 308.897 "
       id="path0006"
       style="fill:none;stroke:#000000;stroke-opacity:1;stroke-width:4px" />
  </g>
</svg>
