<?xml version="1.0" encoding="UTF-8" standalone="no"?>
<!-- Created with Inkscape (http://www.inkscape.org/) -->

<svg
   xmlns:dc="http://purl.org/dc/elements/1.1/"
   xmlns:cc="http://creativecommons.org/ns#"
   xmlns:rdf="http://www.w3.org/1999/02/22-rdf-syntax-ns#"
   xmlns:svg="http://www.w3.org/2000/svg"
   xmlns="http://www.w3.org/2000/svg"
   xmlns:sodipodi="http://sodipodi.sourceforge.net/DTD/sodipodi-0.dtd"
   xmlns:inkscape="http://www.inkscape.org/namespaces/inkscape"
   version="1.1"
   width="1024"
   height="768"
   id="svg2"
   inkscape:version="0.91 r13725"
   sodipodi:docname="les_ateliers_portatifs_Doppler.svg">
  <sodipodi:namedview
     pagecolor="#ffffff"
     bordercolor="#666666"
     borderopacity="1"
     objecttolerance="10"
     gridtolerance="10"
     guidetolerance="10"
     inkscape:pageopacity="0"
     inkscape:pageshadow="2"
     inkscape:window-width="1360"
     inkscape:window-height="745"
     id="namedview6"
     showgrid="false"
     inkscape:zoom="0.56835937"
     inkscape:cx="548.01775"
     inkscape:cy="317.70118"
     inkscape:window-x="-8"
     inkscape:window-y="-8"
     inkscape:window-maximized="1"
     inkscape:current-layer="svg2" />
  <defs
     id="defs4" />
  <metadata
     id="metadata7">
    <rdf:RDF>
      <cc:Work
         rdf:about="">
        <dc:format>image/svg+xml</dc:format>
        <dc:type
           rdf:resource="http://purl.org/dc/dcmitype/StillImage" />
        <dc:title></dc:title>
      </cc:Work>
    </rdf:RDF>
  </metadata>
  <path
     style="fill:none;fill-rule:evenodd;stroke:#000000;stroke-width:1px;stroke-linecap:butt;stroke-linejoin:miter;stroke-opacity:1"
     d="m 134.36487,735.6529 c -0.87592,-0.35827 0.48712,-7.24748 0,-8.70883 -0.18546,-0.55639 -1.05866,-0.68773 -1.24412,-1.24412 -0.26228,-0.78685 0,-1.65883 0,-2.48824 0,-0.82941 0,-1.65882 0,-2.48824 0,-2.07353 0,-4.14706 0,-6.22059 0,-1.24412 0.17594,-2.50075 0,-3.73236 -0.24181,-1.69269 -1.03204,-3.2798 -1.24412,-4.97648 -0.46294,-3.70353 0.33791,-7.48004 0,-11.19707 -3.34069,-20.04414 0.42043,5.04512 -1.24412,-14.92943 -0.20949,-2.51385 -1.05065,-4.94958 -1.24412,-7.46471 -0.4771,-6.20228 0.36529,-12.45193 0,-18.66179 -0.22052,-3.74885 -1.03581,-7.44753 -1.24412,-11.19707 -0.41407,-7.45323 0.37277,-14.93875 0,-22.39415 -0.22874,-4.57487 -1.02624,-9.10991 -1.24412,-13.68531 -0.19725,-4.14237 0,-8.29413 0,-12.44119 0,-4.97648 0,-9.95295 0,-14.92943 0,-41.39484 0.41328,11.57597 -1.24412,-29.85886 -0.21547,-5.38688 0,-10.78237 0,-16.17355 0,-5.80589 0,-11.61178 0,-17.41767 0,-18.24708 0,-36.49416 0,-54.74124 0,-6.6353 0,-13.2706 0,-19.90591 0,-6.6353 0.21393,-13.27405 0,-19.9059 -0.201,-6.23117 -1.04939,-12.43043 -1.24412,-18.66179 -0.2202,-7.04657 0,-14.10002 0,-21.15003 0,-6.6353 0,-13.2706 0,-19.9059 0,-6.6353 0.20726,-13.27384 0,-19.90591 -0.20765,-6.645 -1.03646,-13.2609 -1.24411,-19.9059 -0.41451,-13.26413 0.42786,-26.54811 0,-39.81182 -0.20101,-6.23116 -1.03643,-12.43084 -1.24412,-18.66178 -0.41448,-12.43429 0.42875,-24.88978 0,-37.32358 -0.2006,-5.81722 -1.02869,-11.60097 -1.24412,-17.41767 -0.39908,-10.77498 0.43095,-21.57334 0,-32.34709 -1.6574,-41.43483 -1.24412,11.53598 -1.24412,-29.85886 0,-29.7973 0.41265,4.93943 -1.24412,-24.88239 -0.32205,-5.79695 0,-11.61178 0,-17.41767 0,-3.732353 0,-7.46471 0,-11.197068 0,-0.829412 0.37092,-1.746389 0,-2.488238 -0.18546,-0.370925 -0.95088,-0.293242 -1.24412,0 -0.29324,0.293242 0,0.829413 0,1.244119 0,0.829413 0,1.658826 0,2.488238 0,2.488239 0,4.976477 0,7.464719 0,1.65882 -0.18319,3.32779 0,4.97647 0.23352,2.10167 1.06851,4.11331 1.24412,6.2206 0.24108,2.89292 0,5.80589 0,8.70883 0,6.6353 0,13.27061 0,19.90591 0,4.14706 -0.19726,8.29882 0,12.44119 0.21788,4.5754 1.05343,9.1087 1.24412,13.68531 0.4834,11.60171 -0.38685,23.23 0,34.83534 0.2077,6.23094 1.05528,12.43024 1.24412,18.66178 0.2261,7.46129 0,14.92943 0,22.39415 0,15.75884 0,31.51768 0,47.27653 0,8.70883 -0.19788,17.41991 0,26.1265 0.21692,9.54479 1.03201,19.06984 1.24412,28.61474 0.20269,9.12129 0,18.24708 0,27.37062 0,9.95295 0,19.90591 0,29.85886 0,9.95295 -0.20731,19.90807 0,29.85886 0.41497,19.91886 2.07326,39.79886 2.48823,59.71772 1.59151,76.39236 -2.00723,-16.68911 1.24412,59.71772 2.823,66.34044 -0.75343,-8.31099 3.73236,55.98536 0.60681,8.69756 0.60787,17.43105 1.24412,26.1265 7.09979,97.03047 -1.57194,-44.30465 3.73236,48.52065 0.37928,6.63742 0.58259,13.29065 1.24412,19.90591 0.58357,5.83572 2.7053,11.55685 2.48824,17.41766 -0.20479,5.52909 -3.9836,10.64639 -3.73236,16.17355 0.18546,4.08017 3.98587,7.23464 4.97647,11.19707 0.70407,2.81627 -0.24107,5.81592 0,8.70884 1.56945,18.8333 1.24412,-4.5122 1.24412,11.19707 0,0.41471 0,-0.82941 0,-1.24412 0,-21.80827 0.48799,5.36782 -1.24412,-13.68531 -0.22527,-2.47802 0,-4.97648 0,-7.46471 0,-6.63531 0.34875,-13.27978 0,-19.90591 -0.21905,-4.16199 -1.05487,-8.27774 -1.24411,-12.44119 -0.22597,-4.97135 0.19126,-9.95663 0,-14.92943 -0.22371,-5.81638 -1.04353,-11.60045 -1.24412,-17.41767 -0.44305,-12.84826 0.40155,-25.71807 0,-38.56769 -0.20766,-6.64501 -1.04867,-13.26053 -1.24412,-19.90591 -0.21946,-7.46149 0,-14.92943 0,-22.39414 0,-7.46472 0,-14.92943 0,-22.39415 0,-32.7618 0,-65.52361 0,-98.28541 0,-8.29413 0,-16.58826 0,-24.88238 0,-8.70884 -0.2073,-17.42014 0,-26.12651 0.20753,-8.71623 1.03659,-17.41027 1.24412,-26.1265 0.41459,-17.41273 -0.41459,-34.84027 0,-52.253 0.20753,-8.71624 1.03153,-17.41039 1.24412,-26.12651 0.20223,-8.29166 -0.20729,-16.59084 0,-24.88238 0.20754,-8.30189 1.03657,-16.58049 1.24411,-24.88238 0.20729,-8.29154 -0.2126,-16.59098 0,-24.88238 0.20225,-7.88774 1.03095,-15.75082 1.24412,-23.63827 0.20168,-7.46199 -0.21945,-14.93265 0,-22.39414 0.19546,-6.64538 1.03647,-13.2609 1.24412,-19.90591 0.20725,-6.63206 0,-13.2706 0,-19.90591 0,-11.61177 0,-23.22355 0,-34.83533 0,-4.56177 -0.20714,-9.12825 0,-13.68531 1.58203,-34.804682 1.24412,5.07507 1.24412,-24.882385 0,-8.294128 0,-16.588255 0,-24.882383 0,-1.709878 0.46576,-4.976477 -1.24412,-4.976477 -0.4147,0 0,0.829413 0,1.244119 0,1.658826 0.16506,3.325884 0,4.976477 -0.81133,8.113375 -1.95088,7.57594 -2.48824,16.173549 -0.23281,3.725089 0.18639,7.469372 0,11.197072 -0.22874,4.574867 -0.86372,9.120548 -1.24411,13.685308 -0.44904,5.38844 -0.64701,10.79951 -1.24412,16.17355 -0.64767,5.82896 -1.90467,11.58194 -2.48824,17.41767 -0.66153,6.61526 -0.84193,13.26983 -1.24412,19.90591 -0.87604,14.45461 -1.7068,29.08751 -2.48824,43.54417 -1.36713,25.29194 -2.58224,50.58866 -3.73236,75.89126 -0.4147,9.12355 -1.0366,18.24002 -1.24412,27.37063 -0.2073,9.12118 0,18.24708 0,27.37062 0,19.07649 0,38.15298 0,57.22948 0,19.4912 0,38.9824 0,58.4736 0,24.90705 -0.41431,32.35297 1.24412,57.22948 0.60939,9.14087 1.85064,18.23167 2.48824,27.37062 1.21361,17.39512 1.1841,34.86444 2.48824,52.253 3.70697,35.21623 1.59564,11.66923 3.73236,44.78829 0.3359,5.20655 1.99924,27.96779 2.48824,33.59122 1.14161,13.12858 1.61619,13.41792 2.48823,27.37062 0.15522,2.48339 0,4.97648 0,7.46472 0,0.4147 0,-0.82942 0,-1.24412 0,-0.82942 0,-1.65883 0,-2.48824 0,-2.90295 0,-5.80589 0,-8.70883 0,-8.70884 0,-17.41767 0,-26.12651 0,-3.73235 0.17753,-7.46894 0,-11.19707 -0.23752,-4.98807 -1.03622,-9.94003 -1.24412,-14.92943 -0.43161,-10.35867 0.37004,-20.74192 0,-31.10298 -3.21737,-48.26059 0.3119,10.9128 -1.24411,-37.32357 -0.21435,-6.64479 -1.04275,-13.26071 -1.24412,-19.90591 -0.21354,-7.04677 0.20134,-14.10289 0,-21.15002 -0.21352,-7.47318 -0.82942,-14.92943 -1.24412,-22.39415 0,-7.87942 0.20197,-15.76143 0,-23.63826 -0.21287,-8.30176 -0.83951,-16.58776 -1.24412,-24.88239 -0.4248,-8.70834 -0.82941,-17.41766 -1.24412,-26.1265 -0.41471,-8.70883 -1.04141,-17.41015 -1.24412,-26.1265 -0.21212,-9.12107 0.2073,-18.24944 0,-27.37062 -0.20751,-9.1306 -1.03178,-18.24013 -1.24412,-27.37062 -0.20248,-8.70648 0,-17.41767 0,-26.1265 0,-17.41767 0,-34.83534 0,-52.25301 0,-16.17355 0,-32.3471 0,-48.52065 0,-7.87942 -0.21879,-15.76188 0,-23.63826 0.1961,-7.05947 1.0365,-14.09088 1.24412,-21.15002 0.20726,-7.04697 -0.22021,-14.10346 0,-21.15003 0.62588,-20.02817 1.73864,-16.5899 2.48824,-36.07946 0.19126,-4.9728 -0.21617,-9.95765 0,-14.92943 0.55822,-12.839035 1.75574,-13.674003 2.48824,-26.126497 0.17046,-2.897936 -0.22265,-5.814441 0,-8.708835 0.19347,-2.51513 1.01573,-4.952514 1.24412,-7.464714 0.30036,-3.304027 0,-6.635303 0,-9.952954 0,-0.414706 0,-0.829412 0,-1.244119 0,-0.414706 -0.41471,-1.244119 0,-1.244119 0.4147,0 -0.13115,0.850694 0,1.244119 0.29324,0.879725 1.09167,1.573544 1.24411,2.488239 0.27271,1.636255 0,3.317651 0,4.976476 0,5.805889 0,11.611779 0,17.417668 0,15.344136 0,30.688276 0,46.032406 0,6.2206 0.1943,12.44423 0,18.66179 -0.22058,7.05875 -1.04242,14.09071 -1.24411,21.15003 -0.2132,7.46167 0.20167,14.93215 0,22.39414 -0.21318,7.88745 -1.04693,15.7504 -1.24412,23.63826 -0.21766,8.70612 0,17.41767 0,26.12651 0,17.83237 0,35.66475 0,53.49712 0,19.07649 0,38.15299 0,57.22948 0,9.95295 -0.20731,19.90807 0,29.85886 0.20748,9.95943 1.03663,19.89943 1.24412,29.85886 0.2073,9.95079 -0.21172,19.90816 0,29.85886 0.20308,9.5451 0.82941,19.07649 1.24411,28.61474 1.20814,27.78719 2.37721,55.57546 3.73236,83.35598 0.40462,8.29463 0.81881,16.58879 1.24412,24.88239 0.4041,7.87997 1.02503,15.75097 1.24412,23.63826 0.19576,7.04729 -0.2202,14.10346 0,21.15002 0.1547,4.95031 2.02277,29.01695 2.48824,34.83534 0.39822,4.97782 0.77067,9.9582 1.24412,14.92943 0.35604,3.73841 1.0236,7.44823 1.24412,11.19707 0.19482,3.31193 -0.23638,6.64374 0,9.95296 1.51683,21.23559 1.24412,-3.03753 1.24412,12.44119 0,0.82941 0,1.65882 0,2.48824 0,0.4147 0,1.65882 0,1.24412 0,-5.80589 0,-11.61178 0,-17.41767 0,-2.90295 0.17046,-5.8109 0,-8.70884 -0.24474,-4.16055 -0.84898,-8.29221 -1.24412,-12.44119 -0.43428,-4.55995 -0.84731,-9.12195 -1.24412,-13.68531 -0.43261,-4.97495 -0.87523,-9.94935 -1.24412,-14.92943 -0.46055,-6.21737 -0.6436,-12.45637 -1.24412,-18.66179 -0.64411,-6.65584 -1.88283,-13.24642 -2.48824,-19.9059 -0.63938,-7.03319 -0.641,-14.11363 -1.24412,-21.15003 -0.64142,-7.48321 -1.89713,-14.90679 -2.48824,-22.39414 -0.65358,-8.27873 -0.62302,-16.60116 -1.24412,-24.88239 -0.62341,-8.31215 -1.89435,-16.56807 -2.48823,-24.88238 -0.6507,-9.10975 -0.63661,-18.25789 -1.24412,-27.37062 -0.63687,-9.55303 -1.87836,-19.05994 -2.48824,-28.61474 -0.17958,-2.81341 -2.40472,-58.87383 -2.48824,-60.96184 -0.41471,-10.36766 -0.82941,-20.73532 -1.24412,-31.10298 -0.4147,-10.36766 -1.03241,-20.72919 -1.24412,-31.10298 -0.20308,-9.95088 0,-19.9059 0,-29.85886 0,-19.9059 0,-39.81181 0,-59.71771 0,-17.41767 0,-34.83534 0,-52.25301 0,-7.87942 -0.21879,-15.76188 0,-23.63826 0.63414,-22.82894 1.74534,-18.76885 2.48824,-41.05593 0.19342,-5.80267 0,-11.61178 0,-17.417673 0.41471,-5.805889 1.01148,-11.601637 1.24412,-17.417668 0.18232,-4.558125 -0.20714,-9.128246 0,-13.685311 2.03049,-44.670691 0.37232,13.20408 2.48824,-24.882383 0.20703,-3.72661 -0.23282,-7.471983 0,-11.197072 0.18292,-2.926706 1.08146,-5.780932 1.24412,-8.708834 0.25304,-4.554747 -0.32502,-9.135133 0,-13.685311 0.0934,-1.3080835 0.98693,-2.4464071 1.24412,-3.732357 0.16266,-0.8133061 -0.82942,-2.4882383 0,-2.4882383 0.82941,0 0,1.6588256 0,2.4882383 0,4.147064 0,8.294128 0,12.441192 0,6.635302 0.25501,13.275506 0,19.905906 -0.16018,4.164668 -0.86679,8.29056 -1.24412,12.441191 -0.45211,4.973218 -1.04453,9.939694 -1.24412,14.92943 -0.21548,5.386875 0.19953,10.78606 0,16.173549 -0.21544,5.816693 -0.85694,11.609879 -1.24412,17.417668 -0.44224,6.633523 -0.84193,13.269833 -1.24412,19.905903 -0.42723,7.04926 -1.0365,14.09089 -1.24412,21.15003 -0.20726,7.04696 0,14.10002 0,21.15002 0,24.46768 0,48.93536 0,73.40303 0,18.66179 0,37.32358 0,55.98537 0,9.53824 -0.19867,19.07856 0,28.61474 0.21612,10.3737 0.82096,20.73566 1.24412,31.10298 0.81251,19.9066 1.65883,39.81181 2.48824,59.71771 0.4147,9.95296 0.62273,19.91667 1.24412,29.85886 0.623,9.96801 1.83826,19.89258 2.48824,29.85886 0.59436,9.1136 0.81978,18.24753 1.24411,27.37062 0.40509,8.70929 0.81933,17.41816 1.24412,26.12651 0.40462,8.29462 1.02566,16.58077 1.24412,24.88238 0.19637,7.46213 -0.21945,14.93266 0,22.39414 0.19546,6.64538 0.82942,13.27061 1.24412,19.90591 0.9532,15.25116 1.34305,22.43609 2.48824,37.32358 0.766,9.95803 2.03473,19.8817 2.48824,29.85885 0.18831,4.14279 -0.21797,8.29986 0,12.4412 1.22807,23.33329 0.97844,0.27852 2.48824,19.9059 0.19084,2.48091 0,4.97648 0,7.46472 0,1.65882 -0.27271,3.34022 0,4.97647 0.15245,0.9147 0.95087,1.60852 1.24412,2.48824 0.13114,0.39343 0.4147,1.24412 0,1.24412 -0.41471,0 0,-0.82941 0,-1.24412 0,-1.24412 0.20453,-2.50516 0,-3.73235 -0.2156,-1.29358 -1.08146,-2.43107 -1.24412,-3.73236 -0.25719,-2.05752 0,-4.14707 0,-6.2206 -0.41471,-2.07353 -0.89648,-4.13477 -1.24412,-6.22059 -1.71557,-10.29343 -2.74372,-20.72232 -3.73236,-31.10298 -1.42018,-14.91189 -2.66513,-29.84706 -3.73236,-44.78829 -2.48618,-34.80657 -4.4335,-69.6577 -6.22059,-104.50601 -0.85063,-16.58718 -1.96124,-33.16415 -2.48824,-49.76477 -0.56598,-17.82821 -0.96545,-35.6621 -1.24412,-53.49712 -0.13606,-8.70777 0,-17.41767 0,-26.1265 0,-32 0,-22.74124 0,-54.74124 0,-17.00297 0,-34.00593 0,-51.00889 0,-7.87942 -0.21288,-15.76172 0,-23.63826 0.37742,-13.96461 3.20548,-47.93612 3.73236,-58.4736 1.14046,-22.80926 -1.44261,-4.73191 1.24412,-24.88239 0.33339,-2.50043 1.01573,-4.95251 1.24412,-7.46471 0.30036,-3.30403 0,-6.6353 0,-9.95295 0,-0.74353 -0.29325,-2.48824 1.24411,-2.48824 0.41471,0 0,0.82941 0,1.24412 0,1.24412 0,2.48823 0,3.73235 0,4.56177 0,9.12354 0,13.68531 0,3.73236 -0.17753,7.46894 0,11.19708 0.23753,4.98807 1.0522,9.93939 1.24412,14.92943 0.22314,5.8016 0,11.61178 0,17.41766 0,7.05001 0,14.10002 0,21.15003 0,63.45008 0,126.90015 0,190.35023 0,20.73532 0,41.47064 0,62.20596 0,10.78236 -0.21137,21.5668 0,32.3471 0.20341,10.37395 0.82097,20.73566 1.24412,31.10297 1.1681,28.61834 2.33684,57.23596 3.73236,85.84423 0.40462,8.29462 0.57299,16.60505 1.24412,24.88238 0.57368,7.07541 1.80447,14.0844 2.48824,21.15002 0.56067,5.79362 0.77995,11.61553 1.24412,17.41767 0.36528,4.566 0.78833,9.12746 1.24412,13.68531 0.37367,3.73669 0.99431,7.45007 1.24412,11.19707 1.64831,24.72468 -1.65559,-3.30145 1.24411,11.19708 0.16267,0.8133 -0.37092,1.74639 0,2.48824 0.18547,0.37092 0.95088,0.29324 1.24412,0 0.29325,-0.29325 0,-0.82942 0,-1.24412 0,-0.82942 0,-1.65883 0,-2.48824 0,-1.65883 0,-3.31765 0,-4.97648 0,-14.48126 0.27271,7.27758 -1.24412,-12.44119 -0.47709,-6.20227 0.36529,-12.45193 0,-18.66179 -0.22052,-3.74884 -0.82941,-7.46471 -1.24411,-11.19707 0,-4.14706 0.19725,-8.29882 0,-12.44119 -1.09393,-22.97253 -1.52035,-4.41745 -2.48824,-28.61474 -0.21548,-5.38688 0.19953,-10.78606 0,-16.17355 -0.21544,-5.81669 -0.82942,-11.61178 -1.24412,-17.41767 -0.25485,-3.56781 -2.39228,-33.10472 -2.48824,-36.07945 -0.21393,-6.63186 0.20098,-13.27365 0,-19.90591 -0.42782,-14.11791 -2.09605,-28.18111 -2.48824,-42.30005 -0.21879,-7.87638 0.20728,-15.76157 0,-23.63827 -0.20757,-7.88759 -1.03655,-15.75066 -1.24412,-23.63826 -0.20728,-7.87669 0.20197,-15.76143 0,-23.63826 -0.21286,-8.30176 -1.03657,-16.58049 -1.24412,-24.88239 -0.20729,-8.29153 0,-16.58825 0,-24.88238 0,-8.29413 0,-16.58825 0,-24.88238 0,-8.29413 0.20729,-16.59085 0,-24.88238 -0.20754,-8.3019 -1.03125,-16.58063 -1.24412,-24.88239 -0.20197,-7.87683 0,-15.75884 0,-23.63826 0,-7.46472 0,-14.92943 0,-22.39415 0,-7.05 0,-14.10001 0,-21.15002 0,-49.46071 0.44138,8.62611 -1.24412,-38.5677 -0.19241,-5.38774 0,-10.78236 0,-16.17354 0,-15.75885 0,-31.51769 0,-47.27653 0,-3.31765 0,-6.6353 0,-9.95295 0,-0.82942 0,-1.65883 0,-2.48824 0,-0.41471 -0.4147,-1.24412 0,-1.24412 0.41471,0 -0.0813,0.83746 0,1.24412 1.74703,8.73512 1.24412,1.14802 1.24412,11.19707 0,19.07649 0,38.15299 0,57.22948 0,14.92943 0,29.85886 0,44.78829 0,8.29413 0.20224,16.59072 0,24.88238 -0.21258,8.71611 -1.03659,17.41027 -1.24412,26.1265 -0.20729,8.70637 0,17.41767 0,26.12651 0,9.53824 0,19.07649 0,28.61474 0,28.61474 0,57.22948 0,85.84422 0,9.95295 0,19.9059 0,29.85886 0,9.53824 -0.2073,19.07874 0,28.61474 0.2075,9.545 1.03662,19.06974 1.24412,28.61474 0.20731,9.53599 -0.21672,19.07895 0,28.61474 0.39621,17.4329 2.05244,34.82105 2.48824,52.253 0.19693,7.87696 -0.21288,15.76172 0,23.63827 0.20199,7.47349 1.02433,14.92115 1.24412,22.39414 0.19507,6.63244 -0.22105,13.27429 0,19.90591 1.59868,47.96035 1.24412,-10.27203 1.24412,32.3471 0,3.73235 0,7.46471 0,11.19707 0,2.90294 -0.24108,5.81592 0,8.70883 1.56944,18.8333 1.24412,-4.5122 1.24412,11.19707 0,0.41471 0.41471,1.24412 0,1.24412 -0.41471,0 0,-0.82941 0,-1.24412 0,-8.4045 -0.20116,6.9881 1.24412,-7.46471 0.24759,-2.47589 0,-4.97648 0,-7.46472 0,-2.90294 0,-5.80588 0,-8.70883 0,-38.04003 0.41265,13.22327 -1.24412,-24.88238 -0.48637,-11.18651 0.38588,-22.4008 0,-33.59122 -0.21485,-6.2307 -1.04939,-12.43042 -1.24412,-18.66179 -0.44041,-14.09313 0.40269,-28.20578 0,-42.30005 -0.21352,-7.47317 -1.04213,-14.92065 -1.24412,-22.39414 -0.21288,-7.87655 0,-15.75884 0,-23.63827 0,-8.29412 0,-16.58825 0,-24.88238 0,-8.70883 0,-17.41767 0,-26.1265 0,-8.70884 -0.20729,-17.42014 0,-26.1265 0.20753,-8.71624 1.04602,-17.41005 1.24412,-26.12651 0.43345,-19.07156 -0.41461,-38.15749 0,-57.22948 0.2075,-9.545 0.83822,-19.07611 1.24412,-28.61474 0.42351,-9.95258 0.8206,-19.90627 1.24412,-29.85886 0.4059,-9.53862 1.04103,-19.06964 1.24412,-28.61474 0.21171,-9.9507 -0.21172,-19.90815 0,-29.85886 0.0237,-1.11531 2.35752,-54.11183 2.48824,-55.98536 0.60886,-8.72702 1.83395,-17.40276 2.48823,-26.1265 0.59012,-7.86823 0.81824,-15.75944 1.24412,-23.63826 0.40353,-7.46533 1.0306,-14.92097 1.24412,-22.39415 0.20135,-7.04713 -0.2202,-14.10346 0,-21.15002 0.19473,-6.23137 1.02927,-12.43109 1.24412,-18.661791 0.37159,-10.775961 -0.44887,-21.57408 0,-32.347098 1.58852,-38.124337 1.24412,5.894566 1.24412,-27.370621 0,-11.197073 0,-22.394145 0,-33.5912173 0,-1.7098782 0.46576,-4.97647656 -1.24412,-4.97647656 -0.4147,0 0,0.82941277 0,1.24411915 0,1.24411911 0,2.48823831 0,3.73235741 0,16.2190213 0.29324,-5.8249416 -1.24412,14.9294303 -0.61346,8.281798 -0.74174,16.593103 -1.24412,24.882382 -0.70424,11.620042 -1.73874,23.218126 -2.48823,34.835337 -0.42803,6.634456 -0.85373,13.269129 -1.24412,19.905906 -0.43902,7.463322 -0.63993,14.942372 -1.24412,22.394142 -0.6403,7.89704 -1.91006,15.73644 -2.48824,23.63827 -0.66648,9.10861 -0.82941,18.24708 -1.24412,27.37062 -0.44541,9.79904 -2.32178,49.98397 -2.48824,58.4736 -0.21138,10.78029 0.20341,21.56665 0,32.3471 -0.21137,11.20275 -1.03666,22.38838 -1.24412,33.59121 -0.20732,11.19516 0,22.39415 0,33.59122 0,34.42063 0,68.84126 0,103.26189 0,11.19707 0,22.39414 0,33.59122 0,11.19707 -0.20732,22.39606 0,33.59121 0.20746,11.20283 0.81349,22.39475 1.24412,33.59122 0.6362,16.5412 1.77805,44.27242 2.48824,60.96184 0.4059,9.53862 1.02719,19.06995 1.24412,28.61474 0.19788,8.70658 -0.21765,17.42039 0,26.1265 0.1972,7.88786 0.80644,15.76009 1.24412,23.63826 0.78314,14.09658 1.29852,23.64182 2.48824,37.32358 0.36105,4.15208 1.01293,8.27986 1.24412,12.44119 0.18403,3.31254 0,6.6353 0,9.95295 0,4.05067 -0.52457,5.17147 1.24411,8.70884 0.18547,0.37092 0,-0.82941 0,-1.24412 0,-1.24412 0,-2.48824 0,-3.73236 0,-2.07353 0,-4.14706 0,-6.22059 0,-6.63531 0,-13.27061 0,-19.90591 0,-4.56177 0.18991,-9.1275 0,-13.68531 -1.24934,-29.98418 -1.42973,-2.02185 -2.48823,-34.83534 -0.21393,-6.63185 0.1895,-13.27331 0,-19.9059 -0.22535,-7.88711 -0.82942,-15.75885 -1.24412,-23.63827 -0.36425,-6.92063 -2.34742,-43.85035 -2.48824,-49.76476 -0.2073,-8.70637 0.20247,-17.42003 0,-26.12651 -3.24715,-71.43727 0.34299,16.67881 -1.24412,-54.74124 -0.21211,-9.5449 -1.03662,-19.06974 -1.24412,-28.61474 -0.2073,-9.53599 0,-19.07649 0,-28.61474 0,-29.44415 0,-58.88831 0,-88.33246 0,-19.4912 0,-38.9824 0,-58.4736 0,-9.95295 -0.21172,-19.90816 0,-29.85886 0.20309,-9.5451 0.82022,-19.0769 1.24412,-28.61474 0.40551,-9.12395 0.81979,-18.24752 1.24412,-27.37062 0.40508,-8.70929 1.03153,-17.41039 1.24412,-26.1265 0.20223,-8.29166 -0.2126,-16.59098 0,-24.88239 0.20225,-7.88773 0.79398,-15.76078 1.24412,-23.63826 0.25807,-4.51625 2.09123,-33.538986 2.48824,-38.567693 0.82941,-9.538246 1.65882,-19.076493 2.48823,-28.61474 0,-3.317651 -0.23637,-6.643733 0,-9.952953 1.51683,-21.235598 1.24412,3.037527 1.24412,-12.441192 0,-0.829412 0,-1.658825 0,-2.488238 0,-0.414706 0,-1.658826 0,-1.244119 0,2.902945 0.26282,5.817811 0,8.708834 -0.26549,2.920374 -1.0612,5.782128 -1.24412,8.708834 -0.23281,3.725089 0.19617,7.469874 0,11.197072 -0.21905,4.161987 -0.88307,8.289112 -1.24412,12.441192 -0.46841,5.386782 -0.85887,10.78018 -1.24411,16.173549 -2.04191,28.586664 -3.54535,57.221494 -4.97648,85.844224 -0.17101,3.42025 -2.42737,50.75798 -2.48824,53.49712 -0.21191,9.53589 0.2029,19.07865 0,28.61474 -3.31909,79.65819 0.41507,-19.92318 -1.24412,59.71772 -0.20749,9.95943 -1.03663,19.89943 -1.24412,29.85886 -0.20731,9.95079 0,19.90591 0,29.85886 0,10.36766 0,20.73532 0,31.10298 0,9.95295 -0.20731,19.90806 0,29.85886 0.20749,9.95943 1.04087,19.89934 1.24412,29.85886 0.21154,10.3655 -0.21594,20.73757 0,31.10298 0.77754,37.32176 1.302,19.96398 3.73236,57.22948 0.90554,13.88492 1.44505,40.48432 2.48824,54.74124 0.60829,8.31327 1.8146,16.57415 2.48824,24.88238 1.07456,13.25301 1.5409,26.54911 2.48823,39.81181 0.38524,5.39337 0.75459,10.78865 1.24412,16.17355 0.33999,3.73991 1.0236,7.44823 1.24412,11.19708 0,20.9858 -0.65064,1.01543 1.24412,16.17354 0.259,2.07201 -0.76507,4.97648 1.24412,4.97648 0.41471,0 0,-0.82941 0,-1.24412 0,-1.65882 0,-3.31765 0,-4.97647 0,-4.56177 0.30344,-9.13365 0,-13.68531 -0.2224,-3.33607 -0.89411,-6.62786 -1.24412,-9.95296 -1.11618,-10.60372 -1.74999,-20.39837 -2.48824,-31.10298 -0.42894,-6.21963 -0.85522,-12.43952 -1.24412,-18.66178 -0.44052,-7.04845 -0.65763,-14.11223 -1.24412,-21.15003 -0.65796,-7.89559 -1.88057,-15.73865 -2.48823,-23.63826 -0.63693,-8.28003 -0.84912,-16.5873 -1.24412,-24.88239 -4.8e-4,-0.0101 -2.48817,-54.74021 -2.48824,-54.74124 -0.63687,-9.55303 -2.07829,-19.04928 -2.48824,-28.61474 -0.83476,-19.47773 -0.70278,-38.98551 -1.24412,-58.4736 -0.28811,-10.37195 -1.03241,-20.72919 -1.24412,-31.10298 -0.20308,-9.95088 0,-19.9059 0,-29.85886 0,-10.36766 0,-20.73532 0,-31.10298 0,-20.73532 0,-41.47063 0,-62.20595 0,-9.95296 -0.20731,-19.90807 0,-29.85886 0.20749,-9.95943 0.82061,-19.90628 1.24412,-29.85886 0.61117,-14.36244 1.79558,-41.43956 2.48824,-55.98536 0.395,-8.29509 1.02566,-16.58077 1.24412,-24.88239 0.19637,-7.46213 -0.21946,-14.93265 0,-22.39414 0.13617,-4.62982 2.05837,-31.735296 2.48824,-37.323577 0.383,-4.979017 1.00659,-9.941356 1.24412,-14.929429 0.17753,-3.728133 -0.24828,-7.472982 0,-11.197073 0.16779,-2.516973 0.99311,-4.954673 1.24412,-7.464715 0.24758,-2.475889 0,-4.976476 0,-7.464715 0,-0.414706 0,0.829413 0,1.24412 0,1.658825 0,3.317651 0,4.976476 0,10.495138 0.25719,2.661767 -1.24412,16.173549 -1.70001,15.300042 -2.67346,30.678381 -3.73236,46.032404 -1.35802,19.6913 -1.35808,20.14796 -2.48824,41.05594 -0.42588,7.87882 -1.04187,15.75053 -1.24412,23.63826 -0.2126,8.2914 0.19742,16.59061 0,24.88238 -0.85398,35.86717 -1.70843,19.33437 -2.48824,55.98537 -0.21171,9.9507 0.20731,19.90806 0,29.85885 -0.20749,9.95943 -1.04086,19.89935 -1.24412,29.85886 -0.21154,10.36551 0,20.73532 0,31.10298 0,9.95296 0,19.90591 0,29.85886 0,10.36766 0,20.73532 0,31.10298 0,9.95295 -0.2073,19.90807 0,29.85886 2.06299,99.02316 0.40754,-37.23866 2.48824,58.4736 0.20731,9.53599 -0.21191,19.07885 0,28.61474 0.12228,5.50255 2.151,45.67681 2.48824,52.25301 0.4041,7.87997 1.03095,15.75081 1.24412,23.63826 0.20167,7.46199 -0.2261,14.93285 0,22.39414 0.65538,21.62754 1.7111,15.09667 2.48824,36.07946 0,41.07048 -0.53644,-5.21594 1.24412,28.61474 0.34874,6.62613 -0.50891,13.29015 0,19.90591 0.19347,2.51513 0.99311,4.95467 1.24412,7.46471 0.24759,2.47589 0,4.97648 0,7.46472 0,0.74352 -0.29325,2.48823 1.24412,2.48823 0.4147,0 0,-0.82941 0,-1.24412 0,-0.82941 0,-1.65882 0,-2.48823 0,-2.90295 0,-5.80589 0,-8.70884 0,-2.48824 0.19083,-4.9838 0,-7.46471 -0.22491,-2.92378 -1.0612,-5.78213 -1.24412,-8.70884 -0.23282,-3.72509 0.18638,-7.46937 0,-11.19707 -0.22875,-4.57487 -1.04516,-9.10905 -1.24412,-13.68531 -0.21617,-4.97178 0.1989,-9.95693 0,-14.92943 -0.21611,-5.40279 -0.85888,-10.78018 -1.24412,-16.17355 -0.22744,-3.18411 -2.41099,-36.01848 -2.48824,-38.56769 -0.21354,-7.04678 0.20135,-14.10289 0,-21.15003 -0.21352,-7.47317 -1.03653,-14.9208 -1.24412,-22.39414 -0.20727,-7.46184 0.19637,-14.93202 0,-22.39415 -0.21846,-8.30161 -1.03657,-16.58048 -1.24412,-24.88238 -0.20729,-8.29154 0,-16.58825 0,-24.88238 0,-8.70884 0,-17.41767 0,-26.1265 0,-9.12355 0.2073,-18.24944 0,-27.37063 -0.20751,-9.1306 -1.04121,-18.23991 -1.24412,-27.37062 -0.21191,-9.53589 0,-19.07649 0,-28.61474 0,-9.53824 0,-19.07649 0,-28.61474 0,-26.95591 0,-53.91183 0,-80.86774 0,-62.79519 -0.43593,11.96111 1.24412,-48.52065 0.19576,-7.04729 -0.21354,-14.10325 0,-21.15002 0.20137,-6.6452 1.02264,-13.26135 1.24412,-19.90591 0.19342,-5.80267 -0.21489,-11.61576 0,-17.41767 0.20013,-5.4034 1.00925,-10.77154 1.24412,-16.17355 0.34226,-7.87198 -0.49151,-15.77419 0,-23.63826 0.18292,-2.92671 0.97863,-5.78846 1.24412,-8.70884 0.26282,-2.89102 0,-5.805886 0,-8.70883 0,-0.414707 0,-1.658826 0,-1.244119 0,28.200029 0,56.400069 0,84.600099 0,6.6353 0,13.27061 0,19.90591 0,7.87942 -0.20728,15.76157 0,23.63826 0.20757,7.8876 1.05173,15.75029 1.24412,23.63827 0.22246,9.12082 0,18.24708 0,27.37062 0,9.12354 0,18.24708 0,27.37062 0,48.52065 0,97.04129 0,145.56194 0,9.95295 0,19.90591 0,29.85886 0,9.95295 -0.21172,19.90816 0,29.85886 0.20309,9.5451 0.82941,19.07649 1.24412,28.61474 0.4147,9.53825 0.8106,19.07733 1.24412,28.61474 1.11216,24.46752 2.17209,48.95887 3.73235,73.40303 0.76791,12.03057 1.87085,24.04022 2.48824,36.07945 0,27.47436 -0.45796,-1.89302 1.24412,23.63827 0.16552,2.48273 -0.24759,4.98882 0,7.46471 1.44528,14.45282 1.24412,-0.93978 1.24412,7.46472 0,0.4147 0,1.65882 0,1.24412 0,-8.70884 0,-17.41767 0,-26.1265 0,-3.31766 0.18403,-6.64041 0,-9.95296 -0.23118,-4.16133 -1.05487,-8.27774 -1.24412,-12.44119 -0.22597,-4.97134 0.1989,-9.95693 0,-14.92943 -0.21611,-5.40279 -1.04399,-10.77014 -1.24412,-16.17355 -0.21488,-5.80191 0.20009,-11.61523 0,-17.41767 -1.44854,-42.00761 -1.1786,6.02532 -2.48824,-39.81181 -0.21319,-7.46167 0.20168,-14.93215 0,-22.39414 -0.21317,-7.88745 -1.04187,-15.75053 -1.24412,-23.63827 -0.44646,-17.41194 0.39576,-34.83983 0,-52.253 -0.20751,-9.1306 -1.04562,-18.23982 -1.24411,-27.37062 -0.21632,-9.95061 0.2073,-19.90807 0,-29.85886 -0.20749,-9.95943 -1.04087,-19.89935 -1.24412,-29.85886 -0.21154,-10.3655 0,-20.73532 0,-31.10298 0,-1 0,-59.96184 0,-60.96184 0,-9.53825 -0.21673,-19.07896 0,-28.61474 0.1981,-8.71645 0.81932,-17.41815 1.24412,-26.1265 0.96683,-19.82006 1.29218,-26.89551 2.48823,-46.03241 0.72617,-11.61869 1.784,-23.21529 2.48824,-34.83534 0.41471,-8.29412 0.82941,-16.58825 1.24412,-24.88238 0.41471,-2.90294 1.01921,-5.78505 1.24412,-8.70883 0,-17.24058 -0.60349,0.49204 1.24412,-12.44119 0.29324,-2.0527 0,-4.14707 0,-6.2206 0,-0.41471 -0.41471,-1.24412 0,-1.24412 0.41471,0 0.18546,0.87319 0,1.24412 -0.66869,1.33739 -1.65883,2.48824 -2.48824,3.73236 z"
     id="path4142"
     inkscape:connector-curvature="0" />
</svg>
