<?xml version="1.0" encoding="UTF-8" standalone="no"?>
<svg
   xmlns:dc="http://purl.org/dc/elements/1.1/"
   xmlns:cc="http://creativecommons.org/ns#"
   xmlns:rdf="http://www.w3.org/1999/02/22-rdf-syntax-ns#"
   xmlns:svg="http://www.w3.org/2000/svg"
   xmlns="http://www.w3.org/2000/svg"
   id="svg2"
   height="768"
   width="1024"
   version="1.1">
  <defs
     id="defs4" />
  <metadata
     id="metadata7">
    <rdf:RDF>
      <cc:Work
         rdf:about="">
        <dc:format>image/svg+xml</dc:format>
        <dc:type
           rdf:resource="http://purl.org/dc/dcmitype/StillImage" />
        <dc:title></dc:title>
      </cc:Work>
    </rdf:RDF>
  </metadata>
  <path
     id="path4141"
     d="m 252.7236,86.341858 c -4.94628,3.70971 -4.63713,1.54571 -4.63713,4.63713 0,0.38643 -0.27325,0.88604 0,1.15929 0.27324,0.27324 0.77285,0 1.15928,0 0.38643,0 0.77285,0 1.15928,0 0.52209,0 3.12504,0.1764 3.47785,0 1.52062,-0.76032 4.12528,-5.79642 -1.15928,-5.79642 -1.59329,0 0.44674,3.21206 1.15928,4.63713 0.55709,1.11418 11.75373,-4.63713 -1.15928,-4.63713 -1.59329,0 0.84681,3.07479 1.15928,4.63713 0.0758,0.37893 0.38643,1.15929 0,1.15929 -0.38643,0 0.0758,-0.78036 0,-1.15929 -0.31247,-1.56234 0.434,-4.63713 -1.15928,-4.63713 -1.54571,0 -0.37489,3.13758 0,4.63713 0.0937,0.37489 0.88603,-0.27324 1.15928,0 0.27324,0.27325 -0.27325,0.88604 0,1.15929 0.27324,0.27324 0.77285,0 1.15928,0 0.38643,0 0.81365,0.17281 1.15928,0 0.4888,-0.2444 0.91489,-0.67049 1.15929,-1.15929 0.1764,-0.3528 0,-2.95575 0,-3.47784 0,-0.38643 0,-0.77286 0,-1.15929 0,-0.38642 0.38642,-1.15928 0,-1.15928 -1.59329,0 -3.64182,-0.0849 -4.63713,1.15928 -1.14197,1.42746 -0.68924,4.87216 1.15928,5.79642 0.34563,0.17281 0.77285,0 1.15928,0 0.38643,0 0.77286,0 1.15928,0 0.38643,0 0.88604,0.27324 1.15929,0 0.27324,-0.27325 -0.27325,-0.88604 0,-1.15929 0.27324,-0.27324 0.88603,0.27325 1.15928,0 0.54649,-0.54649 -0.34563,-1.6273 0,-2.31856 0.2444,-0.4888 0.98646,-0.64084 1.15928,-1.15928 0.2444,-0.7332 0,-1.54571 0,-2.31857 0,-0.38643 0.17282,-0.81365 0,-1.15928 -0.32486,-0.64973 -1.39603,-1.71281 -2.31856,-1.15928 -1.6568,0.99407 -3.27091,2.11162 -4.63713,3.47784 -1.36623,1.36623 -2.76027,2.84319 -3.47785,4.63713 -0.20296,0.50741 0.77285,0.77286 1.15928,1.15929 0.38643,0.38642 0.67049,0.91488 1.15928,1.15928 0.0665,0.0332 5.41372,0.19135 5.79642,0 0.48879,-0.2444 0.77285,-0.77286 1.15928,-1.15928 0.38643,-0.38643 0.98646,-0.64084 1.15928,-1.15929 0.3666,-1.09979 0,-2.31856 0,-3.47784 0,-0.42573 0.0466,-4.59048 0,-4.63713 -0.27325,-0.27325 -0.88604,0.27324 -1.15928,0 -0.27325,-0.27325 0.27324,-0.88604 0,-1.15929 -0.27325,-0.27324 -0.88604,0.27325 -1.15928,0 -0.27325,-0.27324 0.27324,-0.88603 0,-1.15928 -0.5465,-0.54649 -1.62731,0.34563 -2.31857,0 -0.4888,-0.2444 -0.67049,-0.91488 -1.15928,-1.15928 -0.35281,-0.17641 -2.95576,0 -3.47785,0 -0.42573,0 -4.59048,-0.0466 -4.63713,0 -0.27325,0.27324 0.17282,0.81365 0,1.15928 -2.41233,4.82466 0.08,-1.23931 -2.31857,1.15928 -0.61099,0.611 -0.77285,1.54571 -1.15928,2.31857 -0.38643,0.77285 -0.88603,1.49883 -1.15928,2.31856 -0.21802,0.65407 0,2.71608 0,3.47785 0,0.38643 0,0.77286 0,1.15928 0,0.38643 -0.17282,0.81366 0,1.15929 0.2444,0.48879 0.77285,0.77285 1.15928,1.15928 0.38643,0.38643 0.67049,0.91488 1.15928,1.15928 0.30483,0.15241 4.03092,0 4.63714,0 0.60621,0 4.3323,0.15241 4.63713,0 0.48879,-0.2444 0.77285,-0.77285 1.15928,-1.15928 1.48511,-1.48511 6.99096,-5.79138 -1.15928,-6.9557 -1.91272,-0.27324 -3.27091,2.11162 -4.63713,3.47785 -0.27325,0.27325 0,0.77286 0,1.15928 0,0.38643 0,0.77286 0,1.15929 0,0.38642 -0.27325,0.88603 0,1.15928 0.54649,0.54649 1.77207,-0.54649 2.31856,0 0.27325,0.27325 -0.27325,0.88604 0,1.15928 0.16349,0.16349 3.24005,0.1189 3.47785,0 0.48879,-0.2444 0.77285,-0.77285 1.15928,-1.15928 0.38643,-0.38643 1.3321,-0.64084 1.15928,-1.15928 -2.52841,-7.58525 -3.79244,-7.48578 -6.95569,-1.15929 -0.34563,0.69127 1.77207,-0.54649 2.31856,0 0.27325,0.27325 -0.27324,0.88604 0,1.15929 0.27325,0.27324 0.88604,0.27324 1.15929,0 0.27324,-0.27325 0,-0.77286 0,-1.15929 0,-1.54571 1.54571,-4.63713 0,-4.63713 -1.93214,0 -2.61377,2.90898 -3.47785,4.63713 -0.17282,0.34564 0.77285,0 1.15928,0 0.38643,0 0.98647,0.34564 1.15928,0 0.71254,-1.42507 0.77286,-3.09142 1.15929,-4.63713 0.38642,-1.54571 1.15928,-3.04384 1.15928,-4.63713 0,-0.38642 -0.77286,0 -1.15928,0 -0.38643,0 -0.77286,0 -1.15929,0 -0.38642,0 -1.253,-0.37489 -1.15928,0 0.41914,1.67656 3.54056,3.41514 2.31857,4.63713 -1.222,1.222 -2.90898,-2.31856 -4.63713,-2.31856 -1.31711,0 -1.40895,5.29709 -1.15929,5.79641 0.88394,1.76788 3.04646,1.15928 4.63713,1.15928 0.38643,0 1.06556,0.37489 1.15929,0 0.37488,-1.49955 1.54571,-4.63713 0,-4.63713 -1.72816,0 -1.67675,3.03258 -2.31857,4.63713 -0.14352,0.35879 -0.27325,0.88604 0,1.15929 0.27325,0.27324 0.77286,0 1.15928,0 0.52209,0 3.12504,0.1764 3.47785,0 0.4888,-0.2444 0.77286,-0.77286 1.15928,-1.15929 0.38643,-0.38642 0.91489,-0.67048 1.15929,-1.15928 0.34563,-0.69126 -0.2444,-1.58537 0,-2.31856 0.1608,-0.48242 1.6831,-2.43021 1.15928,-3.47785 -0.2444,-0.4888 -0.65188,-1.36224 -1.15928,-1.15928 -1.61956,0.64782 -9.35539,6.79345 -8.11498,9.27426 0.2444,0.48879 0.70457,0.85614 1.15928,1.15928 1.92067,1.28044 2.63295,1.15928 4.63713,1.15928 0.38643,0 0.77286,0 1.15928,0 0.38643,0 0.81365,0.17282 1.15929,0 1.76787,-0.88394 1.15928,-3.04645 1.15928,-4.63713 0,-0.38643 0.27324,-0.88603 0,-1.15928 -0.27325,-0.27325 -0.88604,0.27325 -1.15928,0 -0.27325,-0.27325 0.34563,-0.98647 0,-1.15928 -1.42508,-0.71254 -3.1453,-0.59985 -4.63713,-1.15929 -1.61813,-0.60679 -2.90898,-2.31856 -4.63713,-2.31856 -1.11745,0 -5.55351,6.55085 -5.79642,6.95569 -0.44456,0.74095 -0.94971,1.48029 -1.15928,2.31857 -0.28117,1.12467 0,2.31856 0,3.47785 0,0.38642 -0.17282,0.81365 0,1.15928 0.2444,0.4888 0.67049,0.91488 1.15928,1.15928 0.25983,0.12992 4.36165,0 4.63713,0 1.15929,0 2.37806,0.3666 3.47785,0 0.51845,-0.17281 0.72209,-0.83139 1.15928,-1.15928 1.11463,-0.83597 2.49265,-1.33336 3.47785,-2.31857 0.611,-0.61099 0.67998,-1.5996 1.15928,-2.31856 0.30314,-0.45471 1.02674,-0.62911 1.15929,-1.15928 0.28116,-1.12467 -0.28117,-2.35318 0,-3.47785 0.13254,-0.53017 0.91488,-0.67049 1.15928,-1.15928 0.17281,-0.34563 0,-0.77286 0,-1.15929 0,-0.38642 0.27324,-0.88603 0,-1.15928 -0.27325,-0.27324 -0.78036,-0.0758 -1.15928,0 -5.79642,1.15928 -4.63713,0 -5.79642,5.79641 -0.0758,0.37893 0,0.77286 0,1.15929 0,0.38642 -0.17281,0.81365 0,1.15928 0.66451,1.32902 2.41886,1.61257 3.47785,2.31856 0.45471,0.30314 0.67049,0.91489 1.15928,1.15929 0.61829,0.30914 2.08671,-0.69557 1.15929,1.15928 -0.2444,0.4888 -0.77286,0.77285 -1.15929,1.15928 -0.38642,0.38643 -0.67048,0.914892 -1.15928,1.159282 -0.35281,0.17641 -2.95576,0 -3.47785,0 -0.38642,0 -0.88603,0.27325 -1.15928,0 -0.27325,-0.273242 0.27325,-0.886032 0,-1.159282 -0.27325,-0.27324 -0.88604,0.27325 -1.15928,0 -0.0525,-0.0525 0,-5.24981 0,-5.79641 0,-0.38643 -0.27325,-0.88604 0,-1.15928 0.54649,-0.54649 1.6273,0.34563 2.31856,0 0.4888,-0.2444 0.67049,-0.91489 1.15929,-1.15929 0.34563,-0.17281 1.15928,0.38643 1.15928,0 0,-1.59328 -2.6708,-4.13329 -1.15928,-4.63713 1.83298,-0.61099 2.90897,2.61377 4.63713,3.47785 0.34563,0.17282 -0.27325,-0.88603 0,-1.15928 0.27324,-0.27325 0.77285,0 1.15928,0 0.38643,0 0.88603,-0.27325 1.15928,0 0.54649,0.54649 -0.34563,1.6273 0,2.31856 0.2444,0.4888 0.91488,0.67049 1.15928,1.15929 0.30915,0.61828 -0.69557,2.08671 1.15929,1.15928 0.48879,-0.2444 0.91488,-0.67049 1.15928,-1.15928 0.14986,-0.29974 0,-6.134 0,-6.9557 0,-0.38643 0.27324,-0.88604 0,-1.15928 -0.27325,-0.27325 -0.81365,0.17281 -1.15928,0 -0.4888,-0.2444 -0.67049,-0.91489 -1.15929,-1.15928 -0.34563,-0.17282 -0.77285,0 -1.15928,0 -2.61351,0 -5.83413,-0.44763 -6.95569,3.47784 -0.47477,1.66167 1.67674,3.03258 2.31856,4.63713 0.14352,0.35879 -0.27325,0.88604 0,1.15929 0.27325,0.27324 0.77286,0 1.15928,0 0.38643,0 0.77286,0 1.15929,0 0.60621,0 4.3323,0.15241 4.63713,0 0.48879,-0.2444 0.77285,-0.77286 1.15928,-1.15929 1.78881,-1.78881 2.31856,-3.18623 2.31856,-5.79641 0,-0.38643 0,-0.77285 0,-1.15928 0,-0.38643 0.17282,-0.81365 0,-1.15928 -0.85288,-1.70578 -1.81895,-1.15929 -3.47784,-1.15929 -0.80988,0 -4.31969,-0.25395 -4.63713,0 -3.44584,2.75667 -5.79642,4.70821 -5.79642,9.27426 0,1.92243 1.62574,0.81288 2.31857,1.15929 1.91888,0.95944 0.31141,2.21476 3.47785,1.15928 0.51844,-0.17282 0.77285,-0.77286 1.15928,-1.15928 0.77285,-0.77286 1.82977,-1.34098 2.31856,-2.31857 0.51845,-1.03689 0,-2.31856 0,-3.47785 0,-0.38642 0.17282,-0.81365 0,-1.15928 -1.42303,-2.84606 -7.21845,-0.18551 -8.11497,1.15928 -0.85741,1.28611 0,3.09142 0,4.63713 0,0.38643 -0.27325,0.88604 0,1.15929 0.27324,0.27324 0.77285,0 1.15928,0 0.38643,0 0.77285,0 1.15928,0 0.38643,0 0.88604,0.27324 1.15928,0 0.27325,-0.27325 -0.17281,-0.81365 0,-1.15929 0.2444,-0.48879 0.91489,-0.67048 1.15929,-1.15928 0.17281,-0.34563 0,-0.77285 0,-1.15928 0,-0.77286 0,-1.54571 0,-2.31857 0,-0.38642 0,-0.77285 0,-1.15928 0,-0.38643 0.37489,-1.253 0,-1.15928 -4.80888,1.20222 -5.23824,2.66206 -6.9557,6.95569 -0.14352,0.35879 -0.17282,0.81366 0,1.15929 0.80457,1.60913 2.06273,1.15928 3.47785,1.15928 0.38643,0 0.81365,0.17282 1.15928,0 4.80953,-2.40477 -3.81465,-9.37139 -6.95569,-8.11498 -1.1346,0.45384 -0.91964,2.27959 -1.15929,3.47785 -0.15157,0.75785 0,1.54571 0,2.31856 0,0.38643 -0.17281,0.81366 0,1.15929 0.78205,1.5641 3.41649,2.0134 4.63713,2.31856 0.37489,0.0937 0.77286,0 1.15929,0 0.38642,0 0.81365,0.17282 1.15928,0 0.48879,-0.2444 0.77285,-0.77285 1.15928,-1.15928 0.38643,-0.38643 1.3321,-0.64084 1.15928,-1.15928 -1.21035,-3.63105 -3.32564,-8.19108 -8.11497,-5.79642 -2.96162,1.48081 -2.31857,4.54878 -2.31857,6.9557 0,0.38643 0,0.77285 0,1.15928 0,0.38643 -0.17282,0.81365 0,1.15928 1.05548,2.11096 0.87941,0.67957 2.31857,1.15929 0.81973,0.27324 1.45448,1.15928 2.31856,1.15928 1.22199,0 2.31857,-0.77286 3.47785,-1.15928 3.32137,-1.10713 4.48548,-0.70435 5.79641,-4.63713 0.3666,-1.09979 0,-2.31857 0,-3.47785 0,-0.38643 0,-0.77286 0,-1.15928 0,-0.38643 0.17282,-0.81365 0,-1.15929 -0.2444,-0.48879 -0.61279,-1.15928 -1.15928,-1.15928 -3.78619,0 -8.93224,1.97654 -11.59283,4.63713 -0.54649,0.54649 0,1.54571 0,2.31857 0,0.38642 0,0.77285 0,1.15928 0,0.38643 -0.17281,0.81365 0,1.15928 0.80457,1.60913 2.06274,1.15928 3.47785,1.15928 1.15928,0 2.35318,0.28117 3.47785,0 0.53017,-0.13254 0.77285,-0.77285 1.15928,-1.15928 0.38643,-0.38643 0.77286,-0.77285 1.15928,-1.15928 0.77286,-0.77286 1.75623,-1.38134 2.31857,-2.31857 0.90026,-1.50043 1.7528,-5.17515 1.15928,-6.95569 -0.1222,-0.3666 -0.88604,0.27324 -1.15928,0 -0.27325,-0.27325 0.27324,-0.88604 0,-1.15928 -0.27325,-0.27325 -0.82793,-0.19882 -1.15928,0 -3.58985,2.15391 -8.11498,5.75948 -8.11498,10.43354 0,0.38643 -0.17282,0.81365 0,1.15928 0.85288,1.70578 1.81895,1.15928 3.47785,1.15928 0.38642,0 0.77285,0 1.15928,0 0.38643,0 0.81365,0.17282 1.15928,0 0.4888,-0.24439 0.85614,-0.70457 1.15928,-1.15928 1.28045,-1.92067 1.15929,-2.63295 1.15929,-4.63713 0,-0.77285 0.61828,-1.85485 0,-2.31856 -1.27463,-0.95597 -3.36251,-2.11525 -4.63713,-1.15929 -1.23657,0.92743 0.42463,3.1509 0,4.63713 -0.38277,1.33968 -1.87797,2.15607 -2.31857,3.47785 -0.3666,1.09979 0,2.31857 0,3.47785 0,0.38643 -0.27325,0.88604 0,1.15928 0.27325,0.27325 0.81365,-0.17281 1.15928,0 0.4888,0.2444 0.64084,0.986472 1.15929,1.159282 0.73319,0.2444 1.56071,0.15157 2.31856,0 2.68311,-0.536622 4.25203,-1.161272 5.79641,-3.477842 0.21435,-0.32153 -0.17281,-0.81365 0,-1.15929 0.2444,-0.48879 1.02674,-0.6291 1.15929,-1.15928 0.28116,-1.12467 0,-2.31856 0,-3.47785 0,-0.38642 0.17281,-0.81365 0,-1.15928 -0.2444,-0.48879 -0.85615,-0.70457 -1.15929,-1.15928 -0.4793,-0.71896 -0.44032,-1.83926 -1.15928,-2.31857 -0.64305,-0.4287 -1.54571,0 -2.31856,0 -1.54571,0 -3.54415,-1.09298 -4.63713,0 -1.09299,1.09299 0,3.09142 0,4.63713 0,1.15929 0,2.31857 0,3.47785 0,0.38643 0,0.77286 0,1.15928 0,0.38643 -0.27325,0.88604 0,1.15929 0.27324,0.27324 0.81365,-0.17282 1.15928,0 0.48879,0.2444 0.67048,0.91488 1.15928,1.15928 1.48303,0.74151 3.69351,-1.37495 4.63713,-2.31857 0.38643,-0.38642 1.02674,-0.6291 1.15928,-1.15928 0.28117,-1.12467 0,-2.31856 0,-3.47785 0,-0.38642 0,-0.77285 0,-1.15928 0,-0.38643 0.17282,-0.81365 0,-1.15928 -0.2444,-0.4888 -0.85614,-0.70458 -1.15928,-1.15928 -0.4793,-0.71896 -0.30696,-2.17651 -1.15928,-2.31857 -6.12413,-1.02069 -6.72834,1.13679 -5.79641,5.79641 0.10717,0.53588 0.91488,0.67049 1.15928,1.15929 0.61828,1.23657 -1.14763,1.54959 1.15928,2.31856 0.73319,0.2444 1.54571,0 2.31857,0 0.38642,0 0.77285,0 1.15928,0 0.38643,0 0.88603,0.27325 1.15928,0 0.27325,-0.27324 -0.17282,-0.81365 0,-1.15928 0.2444,-0.4888 0.98647,-0.64084 1.15928,-1.15928 0.3666,-1.09979 0,-2.31857 0,-3.47785 0,-0.38643 0.17282,-0.81365 0,-1.15928 -0.2444,-0.4888 -0.85614,-0.70458 -1.15928,-1.15929 -0.4793,-0.71895 -0.54829,-1.70757 -1.15928,-2.31856 -0.27325,-0.27325 -0.8005,-0.14352 -1.15928,0 -1.60456,0.64182 -3.86428,0.77285 -4.63713,2.31856 -0.71254,1.42508 0.84681,3.07479 1.15928,4.63713 0.0758,0.37893 -0.27325,0.88604 0,1.15929 0.27324,0.27324 0.77285,0 1.15928,0 0.38643,0 0.77286,0 1.15928,0 0.38643,0 0.88604,0.27324 1.15929,0 0.27324,-0.27325 -0.17282,-0.81365 0,-1.15929 0.24439,-0.48879 0.91488,-0.67048 1.15928,-1.15928 0.17623,-0.35246 0,-3.83662 0,-4.63713 0,-3.09142 0.38643,0.38643 -1.15928,-1.15928 -0.27325,-0.27325 0.34563,-1.3321 0,-1.15928 -6.18284,3.09142 -6.18284,3.86427 0,6.95569 0.34563,0.17282 0,-0.77285 0,-1.15928 0,-0.77286 0,-1.54571 0,-2.31857 0,-1.15928 0.36659,-2.37805 0,-3.47784 -0.17282,-0.51845 -0.77286,-0.77286 -1.15929,-1.15929 -0.38642,-0.38642 -0.61279,-1.15928 -1.15928,-1.15928 -0.54649,0 -0.67049,0.91489 -1.15928,1.15928 -0.34563,0.17282 -1.06556,-0.37489 -1.15928,0 -0.37489,1.49956 0,3.09142 0,4.63713 0,1.54571 -0.37489,3.13758 0,4.63713 0.30389,1.2156 11.34911,-4.63713 0,-4.63713 -1.59329,0 -0.84682,3.07479 -1.15929,4.63713 -0.0758,0.37893 -0.27324,0.88604 0,1.15929 0.11593,0.11593 3.36192,0.11593 3.47785,0 0.27325,-0.27325 -0.27325,-0.88604 0,-1.15929 0.27325,-0.27324 1.3321,0.34564 1.15928,0 -0.86408,-1.72815 -1.54571,-4.63713 -3.47784,-4.63713 -5.28457,0 -2.67991,5.0361 -1.15929,5.79642 0.34563,0.17281 0.77286,0 1.15929,0 0.38642,0 0.77285,0 1.15928,0 0.38643,0 0.77285,0 1.15928,0 0.38643,0 0.88604,0.27324 1.15928,0 1.49311,-1.49311 -3.47784,-2.35695 -3.47784,-5.79642 0,-1.93213 2.61376,-2.90897 3.47784,-4.63713 0.17282,-0.34563 -0.88603,0.27325 -1.15928,0 -0.27325,-0.27324 0.27325,-0.88603 0,-1.15928 -0.23043,-0.23043 -3.47785,-0.24444 -3.47785,1.15928 0,1.94073 2.15879,7.9552 3.47785,9.27426 0.54649,0.5465 1.54571,0 2.31857,0 0.38642,0 0.81365,0.17282 1.15928,0 0.48879,-0.24439 0.77285,-0.77285 1.15928,-1.15928 1.1993,-1.1993 1.87555,-1.32905 1.15928,-3.47785 -0.17281,-0.51844 -0.77285,-0.77285 -1.15928,-1.15928 -0.38643,-0.38643 -0.62023,-1.24912 -1.15928,-1.15928 -2.05266,0.34211 -4.21642,0.96428 -5.79641,2.31856 -1.17852,1.01016 -4.09369,6.64778 -1.15929,8.11498 0.34563,0.17282 0.77286,0 1.15929,0 0.38642,0 0.77285,0 1.15928,0 0.38643,0 0.81365,0.17282 1.15928,0 0.4888,-0.2444 0.85614,-0.70457 1.15928,-1.15928 1.52188,-2.28282 1.15929,-3.29096 1.15929,-5.79641 0,-1.61991 0.48493,-7.56186 -4.63713,-1.15929 -0.9656,1.207 -0.37489,3.13758 0,4.63713 0.0937,0.37489 0.81365,-0.17281 1.15928,0 0.48879,0.2444 0.64083,0.98647 1.15928,1.15929 0.73319,0.2444 1.54571,0 2.31857,0 0.38642,0 0.81365,0.17281 1.15928,0 0.48879,-0.2444 0.98646,-0.64084 1.15928,-1.15929 0.0176,-0.0527 0.0833,-5.62977 0,-5.79641 -0.1539,-0.3078 -3.17005,-3.32394 -3.47785,-3.47785 -0.34563,-0.17281 -0.77285,0 -1.15928,0 -1.9277,0 -4.46657,-0.37489 -2.31856,4.63713 0.7611,1.77592 2.84318,2.76027 4.63713,3.47785 0.5074,0.20296 0.91488,-0.67048 1.15928,-1.15928 0.1189,-0.2378 0.16349,-3.31436 0,-3.47785 -0.27325,-0.27324 -0.88604,0.27325 -1.15928,0 -0.27325,-0.27324 0,-0.77285 0,-1.15928 -1.54571,0.77285 -3.63266,0.91231 -4.63713,2.31856 -4.70582,6.58814 -1.72604,5.79642 1.15928,5.79642 0.38643,0 0.88603,0.27324 1.15928,0 0.27325,-0.27325 0.14352,-0.8005 0,-1.15929 -0.64182,-1.60455 -0.59041,-4.63713 -2.31856,-4.63713 -1.59329,0 -0.84682,3.07479 -1.15929,4.63713 -0.0758,0.37893 -0.17281,0.81366 0,1.15929 0.2444,0.48879 0.67049,0.91488 1.15929,1.15928 0.34563,0.17282 0.77285,0 1.15928,0 0.38643,0 0.88603,0.27325 1.15928,0 0.27325,-0.27325 0,-0.77286 0,-1.15928 0,-0.38643 0.14352,-0.8005 0,-1.15929 -0.64182,-1.60455 -0.59041,-4.63713 -2.31856,-4.63713 -1.54571,0 0,3.09142 0,4.63713 0,0.38643 -0.27325,0.88604 0,1.15929 0.27324,0.27324 0.88603,0.27324 1.15928,0 0.27324,-0.27325 0.0758,-0.78036 0,-1.15929 -0.31247,-1.56234 0.434,-4.63713 -1.15928,-4.63713 -1.59329,0 -0.84682,3.07479 -1.15929,4.63713 -0.0758,0.37893 -0.27324,0.88604 0,1.15929 0.27325,0.27324 0.77286,0 1.15929,0 0.38642,0 0.88603,0.27324 1.15928,0 0.27324,-0.27325 0.0758,-0.78036 0,-1.15929 -0.31247,-1.56234 0.434,-4.63713 -1.15928,-4.63713 -1.59329,0 -0.84682,3.07479 -1.15929,4.63713 -0.0758,0.37893 -0.27324,0.88604 0,1.15929 0.27325,0.27324 0.88604,-0.27325 1.15929,0 0.27324,0.27324 -0.27325,0.88603 0,1.15928 0.27324,0.27325 0.88603,0.27325 1.15928,0 0.27324,-0.27325 0,-0.77286 0,-1.15928 0,-0.38643 0.0758,-0.78036 0,-1.15929 -0.31247,-1.56234 0.434,-4.63713 -1.15928,-4.63713 -1.54571,0 0,3.09142 0,4.63713 0,0.38643 -0.27325,0.88604 0,1.15929 0.27324,0.27324 0.88603,0.27324 1.15928,0 0.27324,-0.27325 0.0758,-0.78036 0,-1.15929 -0.31247,-1.56234 0.434,-4.63713 -1.15928,-4.63713 -1.54571,0 0,3.09142 0,4.63713 0,0.38643 0,0.77286 0,1.15929 0,0.38642 -0.27325,0.88603 0,1.15928 0.27324,0.27325 0.77285,0 1.15928,0 0.38643,0 0.88603,0.27325 1.15928,0 0.27325,-0.27325 0,-0.77286 0,-1.15928 0,-0.38643 0.14352,-0.8005 0,-1.15929 -0.64182,-1.60455 -0.59041,-4.63713 -2.31856,-4.63713 -1.59329,0 -0.84682,3.07479 -1.15929,4.63713 -0.0758,0.37893 0,0.77286 0,1.15929 0,0.38642 -0.17281,0.81365 0,1.15928 2.41233,4.82466 -0.08,-1.23931 2.31857,1.15928 0.51523,0.51524 -0.90167,2.18976 1.15928,1.15928 0.4888,-0.24439 0.70457,-0.85614 1.15928,-1.15928 0.71896,-0.4793 1.83926,-0.44032 2.31857,-1.15928 0.4287,-0.64305 0,-1.54571 0,-2.31857 0,-0.38642 0,-0.77285 0,-1.15928 0,-0.28115 0.0373,-3.44056 0,-3.47785 -0.27325,-0.27324 -0.88604,0.27325 -1.15928,0 -1.08475,-1.08474 4.8474,-8.1296 -4.63713,0 -1.71079,1.46639 -2.76532,3.65881 -3.47785,5.79642 -0.17282,0.51844 0.77285,0.77285 1.15928,1.15928 2.49493,2.49493 3.06324,3.47785 6.9557,3.47785 0.38642,0 0.88603,0.27324 1.15928,0 1.58922,-1.58922 1.15928,-3.82406 1.15928,-5.79642 0,-0.77285 0,-1.54571 0,-2.31856 0,-0.38643 0.17282,-0.81365 0,-1.15928 -0.2444,-0.4888 -0.77285,-0.77286 -1.15928,-1.15929 -1.25202,-1.25202 -3.64337,-4.30608 -5.79641,0 -0.8812,1.76239 0.83535,3.85283 1.15928,5.79642 0.0772,0.46331 -0.0925,2.22602 0,2.31856 0.27324,0.27325 0.77285,0 1.15928,0 0.38643,0 0.77286,0 1.15928,0 0.38643,0 0.88604,0.27325 1.15929,0 0.27324,-0.27324 -0.17282,-0.81365 0,-1.15928 0.24439,-0.4888 0.98646,-0.64084 1.15928,-1.15928 0.2444,-0.7332 0,-1.54571 0,-2.31857 0,-0.38643 0,-0.77285 0,-1.15928 0,-0.38643 0.27324,-0.88604 0,-1.15928 -0.27325,-0.27325 -0.78036,0.0758 -1.15928,0 -1.56235,-0.31247 -3.75334,-2.48498 -4.63713,-1.15929 -0.95861,1.43792 1.97964,2.94254 2.31856,4.63713 0.10718,0.53588 -0.98647,0.64084 -1.15928,1.15929 -1.02805,3.08415 0.54392,2.31856 2.31856,2.31856 0.38643,0 0.81365,0.17282 1.15929,0 0.48879,-0.2444 0.91488,-0.67048 1.15928,-1.15928 0.0303,-0.0607 0.0303,-3.4172 0,-3.47785 -0.77704,-1.55407 -5.74353,-3.53073 -5.79641,-3.47785 -1.222,1.222 1.67674,3.03258 2.31856,4.63713 0.208,0.52 0,2.82279 0,3.47785 0,0.38643 -0.27325,0.88604 0,1.15928 0.27325,0.27325 0.88604,0.27325 1.15928,0 0.0373,-0.0373 0,-3.19669 0,-3.47784 0,-0.38643 0.27325,-0.88604 0,-1.15929 -0.27324,-0.27324 -0.88603,-0.27324 -1.15928,0 -0.27325,0.27325 0,0.77286 0,1.15929 0,0.38642 -0.27325,0.88603 0,1.15928 0.27325,0.27325 0.88604,0.27325 1.15928,0 0.27325,-0.27325 0,-0.77286 0,-1.15928 0,-0.38643 0.27325,-0.88604 0,-1.15929 -0.79953,-0.79953 -2.16765,0.85747 -2.31856,1.15929 -0.17282,0.34563 0,0.77285 0,1.15928 0,0.38643 -0.27325,0.88604 0,1.15928 2.00381,2.00382 0.79915,-3.47785 1.15928,-3.47785 0.77286,0 -0.34563,1.62731 0,2.31857 0.15091,0.30182 2.06552,1.41232 1.15928,2.31856 -0.27324,0.27325 -0.88603,0.27325 -1.15928,0 -0.27325,-0.27324 0,-0.77285 0,-1.15928 0,-0.38643 -0.27325,-0.88603 0,-1.15928 0.27325,-0.27325 0.88604,0.27325 1.15928,0 0.27325,-0.27325 -0.17281,-0.81365 0,-1.15928 0.15091,-0.30182 1.51904,-1.95882 2.31857,-1.15929 0.0313,0.0313 0.63122,5.26835 -1.15928,3.47785 -0.77286,-0.77285 0.38642,-1.93214 1.15928,-1.15928 0.27324,0.27325 0.27324,0.88604 0,1.15928 -0.27325,0.27325 -0.77286,0 -1.15928,0 -0.38643,0 -0.88604,0.27325 -1.15929,0 -0.27324,-0.27324 0,-0.77285 0,-1.15928 0,-0.38643 -0.27324,-0.88604 0,-1.15928 0.27325,-0.27325 0.88604,-0.27325 1.15929,0 0.27324,0.27324 -0.27325,0.88603 0,1.15928 0.27324,0.27325 0.88603,-0.27325 1.15928,0 0.27324,0.27325 -0.27325,0.88604 0,1.15928 0.27324,0.27325 0.88603,0.27325 1.15928,0 0.16349,-0.16349 0.1189,-3.24004 0,-3.47785 -0.2444,-0.48879 -0.91488,-0.67048 -1.15928,-1.15928 -0.17282,-0.34563 0.27324,-0.88603 0,-1.15928 -0.27325,-0.27325 -0.88604,-0.27325 -1.15928,0 -0.27325,0.27325 0,0.77285 0,1.15928 0,0.38643 -0.17282,0.81365 0,1.15928 0.1509,0.30182 1.51903,1.95882 2.31856,1.15929 0.27325,-0.27325 -0.17282,-0.81365 0,-1.15929 0.2444,-0.48879 0.91488,-0.67048 1.15928,-1.15928 0.1189,-0.2378 0.16349,-3.31436 0,-3.47785 -0.11593,-0.11592 -3.36192,-0.11592 -3.47784,0 -0.16349,0.16349 -0.11891,3.24005 0,3.47785 0.24439,0.4888 0.67048,0.91489 1.15928,1.15928 0.34563,0.17282 0.81365,-0.17281 1.15928,0 0.30182,0.15091 1.41232,2.06553 2.31857,1.15929 0.27324,-0.27325 0,-0.77286 0,-1.15929 0,-0.38642 0,-0.77285 0,-1.15928 0,-0.38643 0,-0.77285 0,-1.15928 0,-0.38643 0.27324,-0.88604 0,-1.15928 -0.27325,-0.27325 -0.88604,0.27324 -1.15929,0 -0.27324,-0.27325 0.27325,-0.88604 0,-1.15929 -0.0373,-0.0373 -3.19669,0 -3.47784,0 -1.54571,0 -3.94587,-1.38252 -4.63713,0 -0.77286,1.54571 1.67674,3.03258 2.31856,4.63713 0.59965,1.49913 -1.12128,1.17829 1.15928,2.31857 0.34563,0.17282 0.81365,-0.17282 1.15929,0 1.23656,0.61828 1.08199,2.47314 2.31856,0 0.0303,-0.0607 0.0303,-3.4172 0,-3.47785 -0.2444,-0.48879 -0.77285,-0.77285 -1.15928,-1.15928 -1.27312,-1.27312 -3.58186,-3.97948 -5.79641,-2.31857 -1.23657,0.92743 0,3.09142 0,4.63713 0,0.38643 -0.17282,0.81366 0,1.15929 0.24439,0.48879 0.91488,0.67048 1.15928,1.15928 0.17281,0.34563 -0.27325,0.88604 0,1.15928 0.27324,0.27325 0.77285,0 1.15928,0 0.38643,0 0.88604,0.27325 1.15928,0 0.0313,-0.0313 0.63122,-5.26835 -1.15928,-3.47785 -0.27325,0.27325 0.27325,0.88604 0,1.15929 -0.27325,0.27324 -0.88604,-0.27325 -1.15928,0 -0.54649,0.54649 0.54649,1.77207 0,2.31856 -3.09142,0 0.38643,-0.38643 -1.15928,1.15928 -0.27325,0.27325 -0.81366,0.17282 -1.15929,0 -2.34462,-1.17231 -0.37175,-2.69031 -1.15928,-3.47784 -0.27325,-0.27325 -0.88604,0.27324 -1.15928,0 -0.27325,-0.27325 -0.27325,-0.88604 0,-1.15929 0.27324,-0.27324 0.77285,0 1.15928,0 0.38643,0 0.77286,0 1.15928,0 3.09142,0 -0.38642,-0.38642 1.15929,1.15929 0.27324,0.27324 0.88603,-0.27325 1.15928,0 0.237,0.237 -0.22983,3.0182 0,3.47784 0.2444,0.4888 0.91488,0.67049 1.15928,1.15929 0.17282,0.34563 -0.27325,0.88603 0,1.15928 0.27325,0.27325 0.77286,0 1.15928,0 2.31857,0 0.38643,0.38643 1.15929,-1.15928 0.24439,-0.4888 0.77285,-0.77286 1.15928,-1.15929 0,-0.77285 -0.2444,-1.58537 0,-2.31856 0.17281,-0.51845 0.91488,-0.67049 1.15928,-1.15928 0.1189,-0.2378 0.16349,-3.31436 0,-3.47785 -0.27325,-0.27325 -0.77285,0 -1.15928,0 -0.38643,0 -0.88604,-0.27325 -1.15928,0 -0.27325,0.27325 0.17281,0.81365 0,1.15928 -0.2444,0.4888 -0.91489,0.67049 -1.15929,1.15928 -0.17281,0.34564 0,0.77286 0,1.15929 0,0.38642 -0.27324,0.88603 0,1.15928 0.27325,0.27325 0.88604,-0.27325 1.15929,0 1.54571,1.54571 -1.93214,1.15928 1.15928,1.15928 0.38643,0 0.77285,0 1.15928,0 0.38643,0 0.88604,0.27325 1.15928,0 0.27325,-0.27324 0,-0.77285 0,-1.15928 0,-0.52209 0.17641,-3.12504 0,-3.47785 -0.2444,-0.48879 -0.91488,-0.67048 -1.15928,-1.15928 -0.17282,-0.34563 0.27325,-0.88604 0,-1.15928 -0.11182,-0.11182 -1.8495,0.0938 -2.31856,0 -1.56235,-0.31247 -3.51051,-2.28591 -4.63713,-1.15929 -1.12662,1.12662 0.84681,3.07479 1.15928,4.63713 0.0938,0.46907 -0.11182,2.20675 0,2.31857 0.27324,0.27325 0.88603,-0.27325 1.15928,0 0.27325,0.27325 -0.27325,0.88604 0,1.15928 0.27325,0.27325 0.77286,0 1.15928,0 0.38643,0 0.88604,0.27325 1.15929,0 0.27324,-0.27324 0,-0.77285 0,-1.15928 0,-0.38643 0.17281,-0.81365 0,-1.15928 -0.99712,-1.99422 -6.2351,-2.60048 -4.63713,-5.79642 0.77285,-1.54571 3.03257,1.67675 4.63713,2.31857 0.64697,0.25879 4.35577,-0.28135 4.63713,0 0.27324,0.27325 0,0.77285 0,1.15928 0,1.09186 0.21982,5.13694 0,5.79641 -0.17282,0.51845 -0.98647,0.64084 -1.15929,1.15929 -0.15091,0.45273 0.6532,3.477842 -1.15928,3.477842 -0.38643,0 -0.17282,-0.813652 0,-1.159282 0.31093,-0.62186 2.00763,-1.6967 2.31857,-2.31856 1.28238,-2.56478 1.15928,-4.34222 1.15928,-6.9557 0,-0.38643 0.27324,-0.88603 0,-1.15928 -0.27325,-0.27325 -0.81365,0.17282 -1.15928,0 -0.4888,-0.2444 -0.67049,-0.91488 -1.15929,-1.15928 -0.58897,-0.29449 -2.71753,0.15206 -3.47784,0 -1.56235,-0.31247 -4.13329,-2.67081 -4.63713,-1.15929 -0.611,1.83299 2.48377,2.98034 3.47784,4.63713 0.19882,0.33136 -0.17281,0.81366 0,1.15929 0.2444,0.48879 0.85615,0.70457 1.15929,1.15928 0.4793,0.71896 0.54828,1.70757 1.15928,2.31856 0.27324,0.27325 0.77285,0 1.15928,0 0.38643,0 0.88604,0.27325 1.15928,0 0.27325,-0.27324 0,-0.77285 0,-1.15928 0,-0.52209 0.17641,-3.12504 0,-3.47785 -0.2444,-0.48879 -0.91488,-0.67048 -1.15928,-1.15928 -0.17282,-0.34563 0.27325,-0.88603 0,-1.15928 -0.27325,-0.27325 -0.77285,0 -1.15928,0 -0.38643,0 -0.88604,-0.27325 -1.15928,0 -0.27325,0.27325 0,0.77285 0,1.15928 0,0.42573 -0.0467,4.59048 0,4.63713 0.27324,0.27325 0.88603,0.27325 1.15928,0 0.27324,-0.27324 0,-0.77285 0,-1.15928 0,-0.38643 0,-0.77286 0,-1.15928 0,-0.38643 0.27324,-0.88604 0,-1.15929 -0.27325,-0.27324 -0.77286,0 -1.15928,0 -0.38643,0 -0.88604,-0.27324 -1.15929,0 -0.27324,0.27325 0,0.77286 0,1.15929 0,0.38642 -0.27324,0.88603 0,1.15928 0.27325,0.27325 0.88604,0.27325 1.15929,0 0.27324,-0.27325 0,-0.77286 0,-1.15928 0,-1.54008 0.61928,-9.30069 -4.63713,-5.79642 -1.3257,0.8838 0.84681,3.07479 1.15928,4.63713 0.0938,0.46907 -0.11182,2.20675 0,2.31857 0.27324,0.27325 0.81365,-0.17282 1.15928,0 0.30182,0.15091 1.41232,2.06552 2.31857,1.15928 0.27324,-0.27324 -0.27325,-0.88603 0,-1.15928 0.27324,-0.27325 0.88603,0.27325 1.15928,0 0.11593,-0.11593 0.11593,-3.36192 0,-3.47785 -0.27325,-0.27324 -0.82793,0.19882 -1.15928,0 -1.6568,-0.99407 -3.27091,-4.84407 -4.63713,-3.47785 -1.36623,1.36623 2.48377,2.98034 3.47784,4.63713 0.19882,0.33136 -0.27324,0.88604 0,1.15929 0.27325,0.27324 0.88604,0.27324 1.15929,0 0.27324,-0.27325 -0.38643,-1.15929 0,-1.15929 0.38642,0 0,0.77286 0,1.15929 0,0.38642 0,0.77285 0,1.15928 0,0.38643 0.27324,0.88604 0,1.15928 -0.69283,0.69283 -2.31857,-0.70655 -2.31857,-1.15928 0,-0.38643 0.88604,-0.27325 1.15928,0 0.27325,0.27325 -0.38642,1.15928 0,1.15928 0.54649,0 0.77286,-0.77285 1.15929,-1.15928 0.38642,-0.38643 0.91488,-0.67049 1.15928,-1.15928 0.17281,-0.34563 0,-0.77286 0,-1.15929 0,-0.38642 0.27324,-0.88603 0,-1.15928 -0.27325,-0.27324 -0.82793,0.19882 -1.15928,0 -1.6568,-0.99407 -3.27091,-4.84407 -4.63713,-3.47785 -1.36623,1.36623 2.61376,2.90898 3.47784,4.63713 0.17282,0.34564 -0.88603,-0.27324 -1.15928,0 -0.27325,0.27325 0,0.77286 0,1.15929 0,0.38642 -0.27325,0.88603 0,1.15928 0.27325,0.27325 0.88604,-0.27325 1.15928,0 0.27325,0.27325 -0.27324,0.88604 0,1.15928 0.11593,0.11593 3.36192,0.11593 3.47785,0 0.27325,-0.27324 0,-0.77285 0,-1.15928 0,-0.38643 0,-0.77286 0,-1.15928 0,-0.38643 0.17282,-0.81365 0,-1.15929 -1.44315,-2.88629 -0.60528,-0.13131 -2.31856,-1.15928 -1.6568,-0.99407 -2.80415,-4.08884 -4.63713,-3.47785 -1.51152,0.50384 0.84681,3.07479 1.15928,4.63713 0.0758,0.37893 0,0.77286 0,1.15929 0,1.1993 -0.27325,1.6023 1.15928,2.31856 0.34563,0.17282 0.88604,-0.27324 1.15928,0 0.27325,0.27325 -0.27324,0.88604 0,1.15928 0.27325,0.27325 1.15929,-0.38642 1.15929,0 0,0.38643 -0.77286,0 -1.15929,0 -0.77285,0 -1.54571,0 -2.31856,0 -0.77286,0 -1.93214,0.38643 -1.15928,-1.15928 0.24439,-0.48879 0.67048,-0.91488 1.15928,-1.15928 2.26902,-1.13451 0.58955,1.74883 1.15928,2.31856 0.27325,0.27325 0.88604,0.27325 1.15928,0 0.54649,-0.54649 -0.34563,-1.6273 0,-2.31856 0.2444,-0.4888 0.91489,-0.67049 1.15929,-1.15928 0.1764,-0.35281 0,-2.95576 0,-3.47785 0,-0.38643 0.34563,-0.98647 0,-1.15928 -1.42508,-0.71254 -3.75334,-2.48498 -4.63713,-1.15929 -0.95861,1.43792 1.67674,3.03258 2.31856,4.63713 0,3.09142 -0.38643,-0.38642 1.15928,1.15929 0.27325,0.27324 -0.27324,0.88603 0,1.15928 0.27325,0.27325 0.81365,0.17282 1.15929,0 0.48879,-0.2444 0.77285,-0.77286 1.15928,-1.15928 1.45154,-1.45155 2.31856,-2.47323 2.31856,-4.63713 0,-0.38643 0.17282,-0.81365 0,-1.15929 -0.37705,-0.7541 -1.35912,-1.639 -2.31856,-1.15928 -0.4888,0.2444 -0.62341,1.05211 -1.15928,1.15928 -1.5157,0.30314 -3.94587,-1.38252 -4.63713,0 -0.0317,0.0635 1.91708,5.01604 3.47784,5.79642 0.0607,0.0303 3.4172,0.0303 3.47785,0 0.4888,-0.2444 0.91488,-0.67049 1.15928,-1.15929 0.0303,-0.0606 0.0303,-3.41719 0,-3.47784 -0.2444,-0.4888 -0.67048,-0.91489 -1.15928,-1.15929 -0.34563,-0.17281 -0.77285,0 -1.15928,0 -0.38643,0 -0.77286,0 -1.15928,0 -1.54571,0 -3.94587,-1.38252 -4.63713,0 -0.0317,0.0635 1.91708,5.01604 3.47784,5.79642 0.34563,0.17281 0.81365,-0.17282 1.15929,0 0.48879,0.2444 0.64083,0.98646 1.15928,1.15928 0.73319,0.2444 1.6273,0.34563 2.31856,0 0.34563,-0.17282 0,-0.77286 0,-1.15928 0,-0.38643 0,-0.77286 0,-1.15929 0,-0.38642 0,-0.77285 0,-1.15928 0,-0.38643 0.27325,-0.88603 0,-1.15928 -0.27324,-0.27325 -0.88603,0.27325 -1.15928,0 -0.27325,-0.27325 0.17282,-0.81365 0,-1.15928 -1.05024,-2.10048 -5.82866,-2.662 -6.95569,-1.15929 -1.0369,1.38253 1.67674,3.03258 2.31856,4.63713 0.14352,0.35879 -0.27325,0.88604 0,1.15929 0.27325,0.27324 0.88604,-0.27325 1.15928,0 0.27325,0.27324 -0.27324,0.88603 0,1.15928 0.27325,0.27325 0.88604,0.27325 1.15929,0 0.27324,-0.27325 0,-0.77286 0,-1.15928 0,-2.11833 0.52915,-7.51851 -4.63713,-5.79642 -1.51152,0.50384 0.84681,3.07479 1.15928,4.63713 0.0758,0.37893 -0.17282,0.81366 0,1.15929 0.2444,0.48879 0.91488,0.67048 1.15928,1.15928 0.17282,0.34563 -0.27325,0.88604 0,1.15928 0.27325,0.27325 1.15928,-0.38643 1.15928,0 0,0.0851 -3.26513,-0.10635 -3.47784,0 -0.30182,0.15091 -1.41233,2.06553 -2.31857,1.15928 -0.27325,-0.27324 0,-0.77285 0,-1.15928 0,-0.38643 -0.27325,-0.88603 0,-1.15928 0.27325,-0.27325 0.77286,0 1.15928,0 0.38643,0 0.88604,-0.27325 1.15929,0 0.27324,0.27325 -0.27325,0.88604 0,1.15928 0.27324,0.27325 0.88603,-0.27324 1.15928,0 0.27324,0.27325 -0.27325,0.88604 0,1.15928 0.11593,0.11593 3.36192,0.11593 3.47785,0 0.27324,-0.27324 -0.17282,-0.81365 0,-1.15928 0.24439,-0.48879 0.91488,-0.67048 1.15928,-1.15928 0.17281,-0.34563 0,-0.77286 0,-1.15928 0,-1.54571 0,-3.09142 0,-4.63713 0,-0.38643 0.27324,-0.88604 0,-1.15929 -0.27325,-0.27324 -0.77286,0 -1.15928,0 -4.74205,0 -6.5462,-1.49955 -3.47785,4.63713 0.17281,0.34564 0.77285,0 1.15928,0 0.38643,0 0.77286,0 1.15928,0 0.38643,0 0.77286,0 1.15929,0 0.38642,0 0.88603,0.27325 1.15928,0 0.0373,-0.0373 0,-3.19669 0,-3.47784 0,-0.38643 0.27324,-0.88604 0,-1.15929 -0.27325,-0.27324 -0.77286,0 -1.15928,0 -6.18284,0 -4.63713,-1.54571 -4.63713,4.63713 0,0.38643 -0.27325,0.88604 0,1.15929 0.0373,0.0373 3.19669,0 3.47784,0 0.38643,0 0.77286,0 1.15929,0 0.38642,0 0.88603,0.27324 1.15928,0 0.27324,-0.27325 0,-0.77286 0,-1.15929 0,-0.38642 0,-0.77285 0,-1.15928 0,-0.38643 0.17281,-0.81365 0,-1.15928 -0.83983,-1.67966 -4.8451,-2.79422 -5.79641,-2.31857 -5.49683,2.74842 -1.63399,6.25738 1.15928,6.9557 0.74978,0.18744 1.54571,0 2.31856,0 0.38643,0 0.88604,0.27325 1.15929,0 0.27324,-0.27325 0,-0.77286 0,-1.15928 0,-2.47721 0.27324,-5.79642 -4.63713,-5.79642 -1.72816,0 -1.67675,3.03258 -2.31857,4.63713 -0.14352,0.35879 -0.27325,0.88604 0,1.15929 0.27325,0.27324 0.81365,-0.17282 1.15928,0 0.66239,0.33119 2.34902,3.44739 3.47785,2.31856 0.27325,-0.27324 0,-0.77285 0,-1.15928 0,-0.38643 0,-0.77286 0,-1.15928 0,-1.77326 0.17282,-5.79642 -2.31856,-5.79642 -1.59329,0 -1.15929,3.04385 -1.15929,4.63713 0,0.5465 0.77286,0.77286 1.15929,1.15929 0.38642,0.38642 0.67048,0.91488 1.15928,1.15928 0.34563,0.17282 0.77285,0 1.15928,0 0.38643,0 0.88604,0.27325 1.15928,0 1.59117,-1.59117 -2.04579,-1.15928 -2.31856,-1.15928 -0.38643,0 -0.81365,-0.17282 -1.15928,0 -0.4888,0.2444 -0.67049,0.91488 -1.15929,1.15928 -0.34563,0.17282 -0.77285,0 -1.15928,0 -0.38643,0 -0.88604,0.27325 -1.15928,0 -0.27325,-0.27325 0,-0.77286 0,-1.15928 0,-2.10217 -0.23186,-5.79642 3.47785,-5.79642 1.54571,0 0,3.09142 0,4.63713 0,0.28116 0.0373,3.44057 0,3.47785 -0.27325,0.27325 -0.88604,0.27325 -1.15929,0 -0.12617,-0.12617 -0.13344,-2.81061 0,-3.47785 0.31247,-1.56234 -0.434,-4.63713 1.15929,-4.63713 1.72815,0 1.28167,3.25461 2.31856,4.63713 0.23186,0.30915 0.88604,-0.27324 1.15928,0 0.27325,0.27325 0,0.77286 0,1.15929 0,0.38642 0.27325,0.88603 0,1.15928 -0.27324,0.27325 -0.88603,-0.27325 -1.15928,0 -0.27325,0.27325 0.27325,0.88604 0,1.15928 -1.83799,1.83799 -1.08628,-3.11283 -1.15928,-3.47785 -0.31247,-1.56234 -2.6708,-4.13329 -1.15928,-4.63713 1.83298,-0.61099 3.2709,2.11162 4.63713,3.47785 0.27324,0.27325 -0.17282,0.81365 0,1.15928 0.41007,0.82015 3.40633,2.31857 0,2.31857 -0.38643,0 -0.88604,0.27325 -1.15929,0 -0.27324,-0.27325 -0.27324,-0.88604 0,-1.15928 0.27325,-0.27325 0.77286,0 1.15929,0 0.38642,0 0.88603,-0.27325 1.15928,0 0.27324,0.27324 -0.27325,0.88603 0,1.15928 0.27324,0.27325 0.81365,-0.17282 1.15928,0 0.30182,0.15091 1.41232,2.06552 2.31857,1.15928 0.27324,-0.27324 0,-0.77285 0,-1.15928 0,-1.59068 0.60859,-3.75319 -1.15929,-4.63713 -0.34563,-0.17282 -0.88603,0.27325 -1.15928,0 -0.51524,-0.51524 0.90166,-2.18976 -1.15928,-1.15928 -1.76788,0.88394 -1.15928,3.04645 -1.15928,4.63713 0,0.38642 -0.27325,0.88603 0,1.15928 0.27324,0.27325 0.88603,-0.27325 1.15928,0 0.27324,0.27325 -0.27325,0.88604 0,1.15928 0.27324,0.27325 0.77285,0 1.15928,0 0.38643,0 0.88604,0.27325 1.15928,0 0.27325,-0.27324 -0.17281,-0.81365 0,-1.15928 0.2444,-0.4888 0.91489,-0.67049 1.15929,-1.15928 0.1764,-0.35281 0,-2.95576 0,-3.47785 0,-0.38643 0.27324,-0.88604 0,-1.15928 -0.27325,-0.27325 -0.88604,0.27324 -1.15929,0 -0.27324,-0.27325 0.27325,-0.88604 0,-1.15929 -0.27324,-0.27324 -0.77285,0 -1.15928,0 -0.38643,0 -0.88604,-0.27324 -1.15928,0 -0.27325,0.27325 0.17281,0.81366 0,1.15929 -0.2444,0.48879 -0.91489,0.67048 -1.15928,1.15928 -0.17282,0.34563 0,0.77285 0,1.15928 0,0.38643 -0.27325,0.88604 0,1.15928 0.27324,0.27325 0.77285,0 1.15928,0 0.38643,0 0.88603,0.27325 1.15928,0 0.27325,-0.27324 0,-0.77285 0,-1.15928 0,-0.38643 0.27325,-0.88603 0,-1.15928 -0.27325,-0.27325 -0.88604,-0.27325 -1.15928,0 -0.27325,0.27325 0,0.77285 0,1.15928 0,1.54571 0,3.09142 0,4.63713 0,0.38643 0.38643,1.15928 0,1.15928 -2.41233,0 -0.46646,-1.62574 -1.15928,-2.31856 -0.27325,-0.27325 -0.77286,0 -1.15929,0 0,-0.38643 0.17282,-0.81365 0,-1.15928 -0.61828,-1.23657 -6.48994,-4.29037 -3.47784,-5.79642 1.72815,-0.86407 2.84318,2.76027 4.63713,3.47785 0.5074,0.20296 0.67048,-0.91488 1.15928,-1.15928 0.34563,-0.17282 0.77285,0 1.15928,0 0.38643,0 0.88604,-0.27325 1.15928,0 0.27325,0.27325 -0.17281,0.81365 0,1.15928 0.2444,0.4888 0.91489,0.67049 1.15929,1.15928 0.34563,0.69127 -0.5465,1.77208 0,2.31857 0.27324,0.27325 0.88603,0.27325 1.15928,0 0.27324,-0.27325 0,-0.77286 0,-1.15928 0,-0.38643 0,-0.77286 0,-1.15929 0,-1.93213 0,-3.86427 0,-5.79641 0,-0.38643 0.27324,-0.88604 0,-1.15928 -0.27325,-0.27325 -0.88604,0.27324 -1.15928,0 -0.27325,-0.27325 0.27324,-0.88604 0,-1.15928 -0.27325,-0.27325 -0.81366,0.17281 -1.15929,0 -0.48879,-0.2444 -0.67048,-0.91489 -1.15928,-1.15929 -0.34563,-0.17281 -0.77285,0 -1.15928,0 -2.93685,0 -5.13949,-0.61828 -5.79641,4.63713 -0.21436,1.71482 1.28167,3.25461 2.31856,4.63713 0.23186,0.30915 0.77286,0 1.15928,0 0.38643,0 0.77286,0 1.15929,0 0.52209,0 3.12503,0.17641 3.47784,0 1.32902,-0.66451 1.61257,-2.41885 2.31857,-3.47784 0.30314,-0.45471 0.91488,-0.67049 1.15928,-1.15929 0.17282,-0.34563 0,-0.77285 0,-1.15928 0,-0.38643 0.17282,-0.81365 0,-1.15928 -0.2444,-0.4888 -0.77285,-0.77286 -1.15928,-1.15928 -0.38643,-0.38643 -0.64084,-0.98647 -1.15928,-1.15929 -0.7332,-0.24439 -1.54571,0 -2.31857,0 -0.38643,0 -0.81365,-0.17281 -1.15928,0 -0.4888,0.2444 -0.73255,0.8179 -1.15928,1.15929 -1.50875,1.20699 -4.63713,1.54571 -4.63713,3.47784 0,1.93214 3.12838,2.27086 4.63713,3.47785 0.22521,0.18017 2.24607,2.2944 2.31856,2.31857 0.7332,0.2444 1.58537,0.2444 2.31857,0 0.51844,-0.17282 0.91488,-0.67049 1.15928,-1.15929 0.86613,-1.73226 -3.57555,-4.28326 -4.63713,-4.63713 -0.3666,-0.12219 -0.77286,0 -1.15928,0 -1.54571,0 -3.94587,-1.38252 -4.63713,0 -0.77286,1.54571 1.67674,3.03258 2.31856,4.63713 0.14352,0.35879 0,0.77286 0,1.15929 0.38643,0.38642 0.91488,0.67048 1.15928,1.15928 0.17282,0.34563 -0.27324,0.88604 0,1.15928 0.27325,0.27325 0.77286,0 1.15929,0 0.38642,0 0.88603,0.27325 1.15928,0 0.27324,-0.27324 -0.27325,-0.88603 0,-1.15928 0.27324,-0.27325 0.88603,0.27325 1.15928,0 0.27325,-0.27325 0,-0.77286 0,-1.15928 0,-0.38643 0.17282,-0.81365 0,-1.15929 -0.76351,-1.52701 -6.21388,-5.13167 -6.95569,-4.63713 -1.3257,0.8838 0.84681,3.07479 1.15928,4.63713 0.15157,0.75785 0,1.54571 0,2.31857 0,0.38643 0,0.77285 0,1.15928 0,0.38643 -0.17282,0.81365 0,1.15928 0.15091,0.30182 1.51903,1.95882 2.31856,1.15929 0.85289,-0.85289 -0.93292,-2.0922 -1.15928,-2.31857 -0.38643,-0.38643 -0.67049,-0.91488 -1.15928,-1.15928 -0.34563,-0.17282 -0.77286,0 -1.15928,0 -0.38643,0 -0.88604,-0.27325 -1.15929,0 -0.27324,0.27325 0,0.77285 0,1.15928 0,0.38643 -0.17281,0.81365 0,1.15928 0.2444,0.4888 0.67049,0.91489 1.15929,1.15929 3.09142,0 -0.38643,-0.38643 1.15928,1.15928 0.27324,0.27325 0.88603,0.27325 1.15928,0 0.27325,-0.27325 0.17282,-0.81365 0,-1.15928 -0.2444,-0.4888 -0.91488,-0.67049 -1.15928,-1.15929 -0.17282,-0.34563 0.17281,-0.81365 0,-1.15928 -0.2444,-0.48879 -0.77286,-0.77285 -1.15928,-1.15928 -1.73298,-1.73298 -4.22153,-3.57847 0,-6.9557 1.24414,-0.99531 3.04384,1.15929 4.63713,1.15929 1.22199,0 2.61376,-2.02336 3.47784,-1.15929 0.27325,0.27325 0,0.77286 0,1.15929 0,0.38642 0.17282,0.81365 0,1.15928 -0.2444,0.4888 -0.98646,0.64084 -1.15928,1.15928 -0.2444,0.7332 0.2444,1.58537 0,2.31857 -0.17282,0.51844 -0.91488,0.67048 -1.15928,1.15928 -0.17282,0.34563 -0.27325,1.43253 0,1.15928 1.72123,-1.72123 1.15928,-4.81075 1.15928,-6.95569 0,-0.38643 0,-0.77286 0,-1.15929 0,-0.38642 0.27325,-0.88603 0,-1.15928 -0.27325,-0.27324 -0.88604,0.27325 -1.15928,0 -0.66245,-0.66245 1.04887,-2.04254 -1.15928,-1.15928 -1.60456,0.64182 -4.63713,0.59041 -4.63713,2.31856 0,1.93214 2.98033,2.48378 4.63713,3.47785 0.33135,0.19882 0.88603,0.27325 1.15928,0 0.11593,-0.11593 0.11593,-3.36192 0,-3.47785 -0.27325,-0.27324 -0.77286,0 -1.15928,0 -4.74205,0 -6.5462,-1.49955 -3.47785,4.63713 0.17281,0.34564 0.77285,0 1.15928,0 0.38643,0 0.77286,0 1.15928,0 0.38643,0 0.77286,0 1.15929,0 0.38642,0 0.88603,0.27325 1.15928,0 0.27324,-0.27324 0,-0.77285 0,-1.15928 0,-0.81414 0.52889,-6.13405 -1.15928,-5.79641 -1.6946,0.33892 -3.51247,1.00645 -4.63713,2.31856 -1.35429,1.58 -1.66051,3.82223 -2.31857,5.79642 -0.1222,0.36659 -0.17282,0.81365 0,1.15928 0.2444,0.4888 0.77286,0.77285 1.15928,1.15928 0.38643,0.38643 0.64084,0.98647 1.15929,1.15928 0.73319,0.2444 1.54571,0 2.31856,0 0.38643,0 0.77286,0 1.15928,0 0.38643,0 0.88604,0.27325 1.15929,0 0.27324,-0.27324 -0.38643,-1.15928 0,-1.15928 0.38642,0 0,0.77286 0,1.15928 0,2.71873 0.27324,-0.54649 -1.15929,2.31857 -0.17281,0.34563 0.17282,0.81365 0,1.15928 -0.2444,0.4888 -0.91488,0.67049 -1.15928,1.159282 -0.17282,0.34564 0.27325,0.88604 0,1.15929 -0.27325,0.27324 -0.88604,0.27324 -1.15928,0 -0.27325,-0.27325 0,-0.77286 0,-1.15929 0,-0.281152 -0.0373,-3.440562 0,-3.477842 0.27896,-0.27896 4.35817,0.27896 4.63713,0 0.27324,-0.27325 -0.27325,-0.88604 0,-1.15929 0.27324,-0.27324 0.88603,0.27325 1.15928,0 0.27325,-0.27324 0,-0.77285 0,-1.15928 0,-0.28115 0.0373,-3.44056 0,-3.47785 -0.27325,-0.27324 -0.88604,0.27325 -1.15928,0 -0.27325,-0.27324 0,-0.77285 0,-1.15928 -0.38643,0 -0.82793,0.19882 -1.15928,0 -1.6568,-0.99407 -3.27091,-4.84407 -4.63713,-3.47785 -1.36623,1.36623 2.61376,2.90898 3.47784,4.63713 0.17282,0.34564 -0.77285,0 -1.15928,0 0,0.38643 -0.17282,0.81366 0,1.15929 0.2444,0.48879 0.77286,0.77285 1.15928,1.15928 0.38643,0.38643 0.67049,0.91488 1.15929,1.15928 0.0606,0.0303 3.41719,0.0303 3.47784,0 0.4888,-0.2444 0.98647,-0.64083 1.15929,-1.15928 0.24439,-0.73319 0,-1.54571 0,-2.31857 0,-0.38642 0.17281,-0.81365 0,-1.15928 -2.41233,-4.82465 0.08,1.23932 -2.31857,-1.15928 -0.27325,-0.27325 0.27325,-0.88604 0,-1.15928 -0.27325,-0.27325 -0.77811,0.0635 -1.15928,0 -1.94359,-0.32394 -4.22009,-2.34153 -5.79641,-1.15929 -1.27463,0.95597 0.84681,3.07479 1.15928,4.63713 0.15206,0.76032 -0.29449,2.88888 0,3.47785 0.2444,0.4888 0.67048,0.91489 1.15928,1.15928 0.0607,0.0303 3.4172,0.0303 3.47785,0 1.70577,-0.85288 1.15928,-1.81895 1.15928,-3.47784 0,-0.38643 0,-0.77286 0,-1.15929 0,-0.38642 0.17282,-0.81365 0,-1.15928 -0.2444,-0.48879 -0.77285,-0.77285 -1.15928,-1.15928 -1.25202,-1.25202 -3.64337,-4.041 -5.79641,-2.31857 -0.54604,0.43683 -2.75238,6.03824 0,6.9557 0.73319,0.2444 1.54571,0 2.31856,0 0.38643,0 0.77286,0 1.15928,0 0.38643,0 0.88604,0.27325 1.15929,0 0.27324,-0.27325 0,-0.77286 0,-1.15928 0,-0.26316 0.007,-3.47263 0,-3.47785 -4.69926,-3.52444 -5.81813,-3.58644 -4.63713,2.31856 0.34115,1.70578 2.54265,1.15929 3.47784,1.15929 0.38643,0 0.77286,0 1.15929,0 0.38642,0 0.88603,0.27324 1.15928,0 0.27324,-0.27325 0,-0.77286 0,-1.15929 0,-0.38642 0,-0.77285 0,-1.15928 0,-0.38643 0,-0.77285 0,-1.15928 0,-0.38643 0.17281,-0.81365 0,-1.15928 -0.92426,-1.84852 -4.36896,-2.30125 -5.79641,-1.15929 -8.70237,6.9619 -0.94583,4.16422 0,4.63713 0.48879,0.2444 0.67048,0.91489 1.15928,1.15929 0.34563,0.17281 0.81365,-0.17282 1.15928,0 0.30182,0.15091 1.41232,2.06552 2.31857,1.15928 0.27324,-0.27325 -0.17282,-0.81365 0,-1.15928 0.24439,-0.4888 0.91488,-0.67049 1.15928,-1.15929 0.50023,-1.00045 -0.43419,-1.8835 -1.15928,-2.31856 -1.48189,-0.88913 -3.09142,-3.09142 -4.63713,-2.31857 -1.38253,0.69127 0,3.09142 0,4.63713 0,0.38643 0,0.77286 0,1.15929 0,0.38642 -0.27325,0.88603 0,1.15928 0.27324,0.27325 0.77285,0 1.15928,0 0.38643,0 0.88603,0.27325 1.15928,0 0.27325,-0.27325 -0.17282,-0.81365 0,-1.15928 0.2444,-0.4888 1.36224,-0.65188 1.15928,-1.15929 -0.71758,-1.79394 -4.84407,-3.2709 -3.47784,-4.63713 1.36622,-1.36622 3.2709,2.11162 4.63713,3.47785 0.27324,0.27325 0,0.77286 0,1.15928 0,0.5466 0.0525,5.74388 0,5.79642 -0.27325,0.27324 -0.77286,0 -1.15929,0 -0.38642,0 -0.88603,0.27324 -1.15928,0 -0.27325,-0.27325 0.27325,-0.88604 0,-1.15929 -0.27325,-0.27324 -0.88604,0.27325 -1.15928,0 -0.11593,-0.11592 -0.11593,-3.36191 0,-3.47784 0.27324,-0.27325 0.77285,0 1.15928,0 1.54571,0 3.09142,0 4.63713,0 0.38643,0 0.77286,0 1.15928,0 0.38643,0 1.15929,0.38642 1.15929,0 0,-0.54649 -0.85615,-0.70458 -1.15929,-1.15929 -0.55191,-0.82786 -2.44724,-5.79641 -3.47784,-5.79641 -1.59329,0 -4.63713,-0.434 -4.63713,1.15928 0,2.18597 2.93017,3.27157 4.63713,4.63713 0.30174,0.2414 0.88603,0.27325 1.15928,0 0.11593,-0.11592 0.11593,-3.36191 0,-3.47784 -0.27325,-0.27325 -0.88604,0.27324 -1.15928,0 -0.0644,-0.0644 0.64404,-11.72164 -4.63713,-1.15929 -0.77286,1.54571 1.42943,3.15525 2.31856,4.63713 0.28117,0.46862 0.64084,0.98647 1.15928,1.15929 0.0527,0.0176 5.62977,0.0833 5.79642,0 2.11095,-1.05548 0.67956,-0.87941 1.15928,-2.31857 0.60276,-1.80829 2.27682,-2.33943 0,-3.47785 -0.35281,-0.1764 -2.95576,0 -3.47785,0 -0.38643,0 -0.88604,-0.27324 -1.15928,0 -0.40853,0.40853 0.85099,2.72062 -1.15928,2.31857 -1.6946,-0.33892 -3.86428,-3.86428 -4.63713,-2.31857 -0.86408,1.72816 2.48377,2.98034 3.47784,4.63713 0.39763,0.66272 -0.69126,1.97294 0,2.31857 1.0369,0.51845 2.31857,0 3.47785,0 0.38643,0 1.15928,-0.38643 1.15928,0 0,0.77285 -1.77207,-0.54649 -2.31856,0 -0.27325,0.27325 0.27324,0.88604 0,1.15928 -0.11593,0.11593 -3.36192,0.11593 -3.47785,0 -0.2068,-0.2068 0.18544,-3.01423 0,-3.47785 -0.64182,-1.60455 -3.27717,-3.19921 -2.31856,-4.63713 0.88379,-1.32569 3.21205,0.44675 4.63713,1.15929 0.12392,0.062 -0.24021,4.39693 0,4.63713 0.27324,0.27324 0.88603,-0.27325 1.15928,0 0.27324,0.27324 -0.38643,1.15928 0,1.15928 0.54649,0 0.91488,-0.67049 1.15928,-1.15928 0.20962,-0.41924 0,-4.99009 0,-5.79642 0,-0.38642 0.27325,-0.88603 0,-1.15928 -0.27325,-0.27324 -0.77285,0 -1.15928,0 -0.38643,0 -0.78036,-0.0758 -1.15928,0 -5.30456,1.06091 -6.44423,0.29553 -2.31857,5.79641 0.23186,0.30915 0.77286,0 1.15928,0 0.38643,0 0.77286,0 1.15929,0 0.52209,0 3.12503,0.17641 3.47784,0 0.4888,-0.24439 0.77286,-0.77285 1.15929,-1.15928 1.78881,-1.78881 2.31856,-3.18623 2.31856,-5.79641 0,-0.38643 0.27325,-0.88604 0,-1.15928 -0.27324,-0.27325 -0.88604,0.27324 -1.15928,0 -0.27325,-0.27325 0.27324,-0.88604 0,-1.15929 -0.27325,-0.27324 -0.77286,0 -1.15928,0 -1.15929,0 -2.37806,-0.36659 -3.47785,0 -0.51845,0.17282 -0.73255,0.8179 -1.15928,1.15929 -1.50875,1.20699 -3.87603,1.70193 -4.63713,3.47784 -0.62763,1.46446 0.84681,3.07479 1.15928,4.63713 0.0938,0.46907 -0.11182,2.20675 0,2.31857 1.6447,1.6447 3.77505,1.15928 5.79641,1.15928 0.38643,0 0.88604,0.27325 1.15928,0 0.54649,-0.54649 -0.54649,-1.77207 0,-2.31856 0.27325,-0.27325 0.88604,0.27324 1.15929,0 0.11592,-0.11593 0.11592,-3.36192 0,-3.47785 -0.27325,-0.27325 -0.81366,0.17282 -1.15929,0 -0.48879,-0.2444 -0.67048,-0.91488 -1.15928,-1.15928 -0.69126,-0.34563 -1.56072,0.15157 -2.31856,0 -1.56235,-0.31247 -3.36251,-2.11525 -4.63713,-1.15929 -1.23657,0.92743 0,3.09142 0,4.63713 0,2.31857 -0.38643,0.38643 1.15928,1.15929 0.48879,0.2444 0.67048,0.91488 1.15928,1.15928 2.80736,1.40368 3.14362,1.15928 5.79641,1.15928 0.38643,0 0.88604,0.27325 1.15929,0 0.27324,-0.27324 0,-0.77285 0,-1.15928 0,-0.38643 0,-0.77286 0,-1.15928 0,-0.38643 0.17281,-0.81365 0,-1.15929 -0.2444,-0.48879 -0.77286,-0.77285 -1.15929,-1.15928 -0.38642,-0.38643 -0.70457,-0.85614 -1.15928,-1.15928 -1.20712,-0.80475 -6.15739,-2.91729 -6.95569,-2.31857 -1.23657,0.92743 0,3.09142 0,4.63713 0,0.38643 -0.17282,0.81366 0,1.15929 0.24439,0.48879 0.77285,0.77285 1.15928,1.15928 1.32639,1.32639 1.37232,1.61672 3.47785,2.31856 0.36659,0.1222 0.88603,0.27325 1.15928,0 0.90624,-0.90624 -1.00838,-2.01674 -1.15928,-2.31856 -0.17282,-0.34563 0.27324,-0.88604 0,-1.15928 -0.0373,-0.0373 -3.1967,0 -3.47785,0 -0.38643,0 -0.88604,-0.27325 -1.15928,0 -0.27325,0.27324 -0.27325,0.88603 0,1.15928 0.27324,0.27325 0.77285,0 1.15928,0 1.54571,0 1.15928,0.38643 1.15928,-1.15928 0,-0.38643 0.14352,-0.8005 0,-1.15929 -0.64182,-1.60455 -4.04672,-4.63713 -2.31856,-4.63713 8.96511,0 2.42676,3.69425 3.47784,5.79642 0.2444,0.48879 0.77286,0.77285 1.15929,1.15928 0.38642,0.38643 0.61279,1.15928 1.15928,1.15928 0.38643,0 0,-0.77285 0,-1.15928 0,-0.38643 0,-0.77286 0,-1.15928 0,-0.28116 0.0373,-3.44057 0,-3.47785 -0.27325,-0.27325 -0.8005,0.14352 -1.15928,0 -1.60456,-0.64182 -3.41514,-3.54056 -4.63713,-2.31857 -0.0529,0.0529 1.92377,5.01938 3.47784,5.79642 0.34563,0.17281 0.77286,0 1.15929,0 0.38642,0 0.88603,0.27324 1.15928,0 0.27324,-0.27325 0,-0.77286 0,-1.15929 0,-0.42573 0.0466,-4.59047 0,-4.63713 -0.27325,-0.27324 -0.77286,0 -1.15928,0 -1.54571,0 -3.70971,-1.23656 -4.63713,0 -0.95597,1.27463 0.84681,3.07479 1.15928,4.63713 0.0758,0.37893 -0.17282,0.81366 0,1.15929 0.2444,0.48879 0.77285,0.77285 1.15928,1.15928 0.38643,0.38643 0.64084,0.98647 1.15928,1.15928 0.7332,0.2444 1.54571,0 2.31857,0 0.38643,0 0.77285,0 1.15928,0 0.38643,0 0.88604,0.27325 1.15928,0 0.27325,-0.27324 0,-0.77285 0,-1.15928 0,-1.59068 0.6086,-3.75319 -1.15928,-4.63713 -0.69126,-0.34563 -1.60099,0.28703 -2.31856,0 -1.60456,-0.64182 -3.41514,-3.54056 -4.63713,-2.31857 -1.222,1.222 1.67674,3.03258 2.31856,4.63713 0.28703,0.71758 -0.34563,1.62731 0,2.31857 0.2444,0.4888 0.64084,0.98647 1.15928,1.15928 0.65947,0.21983 4.70456,0 5.79642,0 0.38642,0 0.88603,0.27325 1.15928,0 0.27324,-0.27324 -0.17282,-0.81365 0,-1.15928 1.70577,-3.41155 1.15928,1.79954 1.15928,-3.47785 0,-0.38643 0,-0.77285 0,-1.15928 0,-0.38643 0.27325,-0.88604 0,-1.15928 -0.27324,-0.27325 -0.81365,0.17281 -1.15928,0 -0.4888,-0.2444 -0.67049,-0.91489 -1.15928,-1.15929 -0.25983,-0.12991 -4.36165,0 -4.63713,0 -1.54571,0 -3.54415,-1.09298 -4.63713,0 -1.09299,1.09299 0,3.09142 0,4.63713 0,0.77286 -0.2444,1.58538 0,2.31857 0.17281,0.51845 0.85614,0.70457 1.15928,1.15928 0.4793,0.71896 0.38643,1.93214 1.15928,2.31857 1.03689,0.51844 2.31857,0 3.47785,0 0.38643,0 0.77285,0 1.15928,0 0.38643,0 0.81365,0.17281 1.15928,0 0.4888,-0.2444 0.91489,-0.67049 1.15929,-1.15929 0.15241,-0.30482 0,-4.03091 0,-4.63713 0,-0.38642 0,-0.77285 0,-1.15928 0,-0.38643 0.27324,-0.88603 0,-1.15928 -0.28136,-0.28135 -3.99016,0.25879 -4.63713,0 -1.60456,-0.64182 -3.86428,-3.86428 -4.63713,-2.31857 -0.86408,1.72816 2.76026,2.84319 3.47784,4.63713 0.20296,0.50741 -1.02674,0.62911 -1.15928,1.15929 -0.28117,1.12467 -0.3666,2.37805 0,3.47784 0.1222,0.3666 0.88604,-0.27324 1.15928,0 0.27325,0.27325 -0.27324,0.88604 0,1.15929 0.0313,0.0313 5.26835,0.63122 3.47785,-1.15929 -1.59117,-1.59117 -1.15928,2.0458 -1.15928,2.31857 0,0.38643 -0.17282,0.81365 0,1.15928 0.15091,0.30182 1.51903,1.958822 2.31856,1.159282 0.27325,-0.273242 0,-0.772852 0,-1.159282 0,-0.60621 0.15241,-4.3323 0,-4.63713 -0.88394,-1.76788 -3.04645,-1.15928 -4.63713,-1.15928 -0.38642,0 -0.88603,-0.27325 -1.15928,0 -0.27325,0.27325 0.17282,0.81365 0,1.15928 -1.43253,2.86506 -1.15928,-0.40016 -1.15928,2.31857 0,0.38642 0,1.54571 0,1.15928 0,-1.54571 0,-3.09142 0,-4.63713 0,-0.38643 -0.27325,-0.88604 0,-1.15928 0.27324,-0.27325 0.77285,0 1.15928,0 0.38643,0 0.88604,-0.27325 1.15928,0 0.27325,0.27324 -0.27324,0.88603 0,1.15928 0.54649,0.54649 1.77208,-0.54649 2.31857,0 0.27324,0.27325 -0.27325,0.88604 0,1.15928 0.27324,0.27325 0.88603,-0.27324 1.15928,0 0.27325,0.27325 0.27325,0.88604 0,1.15928 -0.27325,0.27325 -0.88604,-0.27324 -1.15928,0 -0.27325,0.27325 0,0.77286 0,1.15929 0,0.38642 -0.38643,1.15928 0,1.15928 2.41233,0 0.46646,-1.62574 1.15928,-2.31857 0.27325,-0.27324 0.88604,0.27325 1.15928,0 0.27325,-0.27324 -0.17281,-0.81365 0,-1.15928 0.2444,-0.48879 0.98647,-0.64083 1.15929,-1.15928 0.24439,-0.73319 0,-1.54571 0,-2.31857 0,-0.38642 0.27324,-0.88603 0,-1.15928 -0.27325,-0.27324 -0.77286,0 -1.15929,0 -0.38642,0 -0.77285,0 -1.15928,0 -0.38643,0 -0.88604,-0.27324 -1.15928,0 -0.27325,0.27325 0,0.77286 0,1.15928 0,0.38643 0,0.77286 0,1.15929 0,0.28115 -0.0373,3.44056 0,3.47784 0.27324,0.27325 0.88603,-0.27324 1.15928,0 0.27325,0.27325 -0.27325,0.88604 0,1.15929 0.27325,0.27324 0.77286,0 1.15928,0 0.38643,0 0.81365,0.17281 1.15929,0 0.48879,-0.2444 0.67048,-0.91489 1.15928,-1.15929 0.34563,-0.17281 0.94493,0.32153 1.15928,0 0.67784,-1.01675 0.61279,-2.38486 1.15928,-3.47784 0.2444,-0.4888 1.02674,-0.62911 1.15929,-1.15929 0.37489,-1.49955 0,-3.09142 0,-4.63713 0,-0.38642 0,-0.77285 0,-1.15928 0,-0.38643 0.27324,-0.88604 0,-1.15928 -0.27325,-0.27325 -0.81366,0.17281 -1.15929,0 -0.48879,-0.2444 -0.64083,-0.98647 -1.15928,-1.15928 -0.73319,-0.2444 -1.54571,0 -2.31856,0 -0.38643,0 -0.81366,-0.17282 -1.15929,0 -0.97759,0.48879 -1.28167,1.97293 -2.31856,2.31856 -1.86929,0.6231 -5.17332,-0.71 -5.79641,1.15928 -0.55231,1.65691 5.10634,7.88725 6.95569,9.27426 0.69126,0.51845 1.47127,0.98983 2.31857,1.15929 1.13677,0.22735 2.31856,0 3.47784,0 0.38643,0 0.88604,0.27324 1.15929,0 0.27324,-0.27325 -0.17282,-0.81365 0,-1.15929 0.24439,-0.48879 1.02673,-0.6291 1.15928,-1.15928 0.28117,-1.12467 0,-2.31856 0,-3.47785 0,-0.38642 0.27324,-0.88603 0,-1.15928 -0.27325,-0.27324 -0.88604,0.27325 -1.15928,0 -0.27325,-0.27324 0.17281,-0.81365 0,-1.15928 -0.71627,-1.43253 -1.11927,-1.15928 -2.31857,-1.15928 -0.38643,0 -0.81365,-0.17282 -1.15928,0 -0.4888,0.2444 -0.77286,0.77285 -1.15928,1.15928 -0.38643,0.38643 -0.98647,0.64084 -1.15929,1.15928 -0.36659,1.09979 0,2.31857 0,3.47785 0,0.38643 0,0.77285 0,1.15928 0,0.38643 -0.27324,0.88604 0,1.15928 0.79954,0.79954 2.16766,-0.85746 2.31857,-1.15928 0.17281,-0.34563 0,-0.77285 0,-1.15928 0,-0.38643 0,-0.77286 0,-1.15928 0,-0.38643 0.27324,-1.43253 0,-1.15929 -2.16313,2.16313 -0.53879,3.39614 -1.15928,4.63713 -0.2444,0.4888 -0.67049,0.91489 -1.15929,1.15929 -0.34563,0.17281 -0.88603,0.27324 -1.15928,0 -0.27325,-0.27325 0,-0.77286 0,-1.15929 0,-0.38642 -0.38643,-1.15928 0,-1.15928 0.38643,0 0,0.77286 0,1.15928 0,0.38643 0.27325,0.88604 0,1.15929 -0.27325,0.27324 -0.88604,0.27324 -1.15928,0 -0.0373,-0.0373 0,-3.19669 0,-3.47785 0,-0.38643 -0.27325,-0.88604 0,-1.15928 0.54649,-0.54649 1.77207,0.54649 2.31856,0 1.7905,-1.7905 -3.44658,-1.19055 -3.47784,-1.15929 -0.27325,0.27325 -0.27325,0.88604 0,1.15929 0.11592,0.11593 3.36191,0.11593 3.47784,0 0.27325,-0.27325 0,-0.77286 0,-1.15929 0,-1.19929 0.27325,-1.6023 -1.15928,-2.31856 -0.69126,-0.34563 -1.60099,0.28703 -2.31856,0 -1.60456,-0.64182 -3.41514,-3.54056 -4.63713,-2.31857 -1.222,1.222 2.03445,2.93249 2.31856,4.63713 0.14205,0.85233 -0.88604,1.49883 -1.15928,2.31857 -0.2444,0.73319 0,1.54571 0,2.31856 0,0.38643 -0.27325,0.88604 0,1.15929 0.27324,0.27324 0.77285,0 1.15928,0 0.38643,0 0.77286,0 1.15928,0 1.70578,0 0.88604,0.27324 2.31857,-1.15929 0.38643,-0.38642 0.95632,-0.65187 1.15928,-1.15928 1.13803,-2.84507 1.15928,-4.34761 1.15928,-6.95569 0,-0.38643 0,-0.77286 0,-1.15929 0,-0.38642 0.17282,-0.81365 0,-1.15928 -0.37747,-0.75494 -2.87271,-2.52028 -3.47784,-2.31856 -5.36931,1.78977 -5.45067,4.39307 -4.63713,9.27426 0.0898,0.53905 0.70457,0.85614 1.15928,1.15928 0.83483,0.55656 2.94522,1.69191 3.47785,1.15928 0.27324,-0.27324 0,-0.77285 0,-1.15928 0,-0.38643 0,-0.77286 0,-1.15928 0,-1.73082 0.85818,-8.54407 -4.63713,-5.79642 -0.20519,0.1026 -0.86372,5.79642 1.15928,5.79642 0.54649,0 1.26646,-0.62341 1.15928,-1.15929 -0.33892,-1.69459 -2.10421,-2.92231 -2.31856,-4.63713 -0.19763,-1.58097 1.15928,-3.04384 1.15928,-4.63713 0,-0.38642 -1.06556,-0.37489 -1.15928,0 -0.37489,1.49956 0.19172,3.10336 0,4.63713 -0.19763,1.58098 -1.15929,3.04385 -1.15929,4.63713 0,1.43253 1.62574,1.15929 2.31857,1.15929 0.38643,0 0.81365,0.17281 1.15928,0 3.88621,-1.94311 -3.32364,-2.7812 -2.31856,-5.79642 0.50384,-1.51152 3.09142,1.54571 4.63713,1.15929 0.74977,-0.18745 0,-1.54571 0,-2.31857 0,-0.38643 0.37489,-1.253 0,-1.15928 -6.69234,1.67308 -5.65401,2.96941 0,5.79641 0.34563,0.17282 -0.17282,-0.81365 0,-1.15928 0.24439,-0.4888 0.98646,-0.64084 1.15928,-1.15928 0.3666,-1.0998 0,-2.31857 0,-3.47785 0,-0.38643 0.17281,-0.81365 0,-1.15928 -0.2444,-0.4888 -0.77286,-0.77286 -1.15928,-1.15929 -0.38643,-0.38642 -0.67049,-0.91488 -1.15929,-1.15928 -0.34563,-0.17281 -0.77285,0 -1.15928,0 -0.38643,0 -0.81365,-0.17281 -1.15928,0 -1.84852,0.92426 -2.30125,4.36896 -1.15928,5.79641 0.99531,1.24415 3.04384,1.15929 4.63713,1.15929 1.70577,0 1.15928,-3.02512 1.15928,-3.47785 0,-0.38643 0.17281,-0.81365 0,-1.15928 -0.2444,-0.4888 -0.77286,-0.77286 -1.15928,-1.15929 -1.68305,-1.68304 -1.25497,-1.15928 -3.47785,-1.15928 -1.54571,0 -1.15928,-0.38643 -1.15928,1.15928 0,1.54571 -1.09299,3.54415 0,4.63713 1.09298,1.09299 3.13757,0.37489 4.63713,0 0.74977,-0.18744 -0.34564,-1.6273 0,-2.31856 0.24439,-0.4888 0.91488,-0.67049 1.15928,-1.15928 0.17281,-0.34563 0,-0.77286 0,-1.15929 0,-0.38642 0.17281,-0.81365 0,-1.15928 -0.2444,-0.48879 -0.77286,-0.77285 -1.15928,-1.15928 -0.38643,-0.38643 -0.67049,-0.91489 -1.15929,-1.15928 -0.34563,-0.17282 -0.77285,0 -1.15928,0 -0.38643,0 -0.77285,0 -1.15928,0 -0.38643,0 -0.81365,-0.17282 -1.15928,0 -0.4888,0.24439 -0.77286,0.77285 -1.15929,1.15928 -0.38642,0.38643 -0.91488,0.67049 -1.15928,1.15928 -0.17282,0.34563 -0.14352,0.8005 0,1.15928 0.64182,1.60456 0.77286,3.86428 2.31857,4.63713 5.31217,2.65609 4.63713,-1.44479 4.63713,-3.47784 0,-0.38643 0.17281,-0.81365 0,-1.15929 -0.2444,-0.48879 -0.77286,-0.77285 -1.15929,-1.15928 -0.38642,-0.38643 -0.77285,-0.77285 -1.15928,-1.15928 -1.43253,-1.43253 -0.61279,-1.15928 -2.31856,-1.15928 -0.38643,0 -0.81366,-0.17282 -1.15929,0 -0.48879,0.24439 -0.77285,0.77285 -1.15928,1.15928 -0.38643,0.38643 -0.91488,0.67049 -1.15928,1.15928 -0.17282,0.34563 -0.19882,0.82793 0,1.15928 0.99407,1.6568 1.54571,4.63713 3.47785,4.63713 1.93213,0 2.48377,-2.98033 3.47784,-4.63713 0.19882,-0.33135 0.27325,-0.88603 0,-1.15928 -0.27324,-0.27324 -0.81365,0.17282 -1.15928,0 -0.4888,-0.2444 -0.64084,-0.98647 -1.15928,-1.15928 -0.7332,-0.2444 -1.54571,0 -2.31857,0 -0.38642,0 -0.81365,-0.17282 -1.15928,0 -2.86749,1.43374 -0.0275,6.95569 2.31857,6.95569 1.93213,0 2.61376,-2.90897 3.47784,-4.63713 0.34563,-0.69126 -1.77207,0.5465 -2.31856,0 -0.27325,-0.27324 0.27324,-0.88603 0,-1.15928 -0.27325,-0.27324 -0.77286,0 -1.15928,0 -0.38643,0 -0.88604,-0.27324 -1.15929,0 -0.27324,0.27325 0.27325,0.88604 0,1.15928 -0.27324,0.27325 -1.253,-0.37489 -1.15928,0 1.30349,5.21397 2.23478,5.83831 6.9557,3.47785 0.34563,-0.17281 0.37489,-1.253 0,-1.15928 -1.67656,0.41914 -3.41514,3.54056 -4.63713,2.31856 -1.222,-1.22199 1.97964,-2.94253 2.31856,-4.63713 0.32237,-1.61184 -4.54408,-1.25233 -4.63713,-1.15928 -0.27325,0.27325 -0.14352,0.8005 0,1.15928 0.64182,1.60456 0.59041,4.63713 2.31857,4.63713 1.72815,0 1.67674,-3.03257 2.31856,-4.63713 0.14352,-0.35878 0.27325,-0.88603 0,-1.15928 -0.27325,-0.27324 -0.77285,0 -1.15928,0 -0.38643,0 -0.88604,-0.27324 -1.15928,0 -0.27325,0.27325 0,0.77286 0,1.15928 0,1.54571 -1.54571,4.63713 0,4.63713 1.93213,0 2.61376,-2.90897 3.47784,-4.63713 0.17282,-0.34563 -0.77285,0 -1.15928,0 -0.38643,0 -0.98647,-0.34563 -1.15928,0 -0.71254,1.42508 -2.75257,4.63713 -1.15928,4.63713 1.93213,0 2.61376,-2.90897 3.47784,-4.63713 0.17282,-0.34563 -0.77285,0 -1.15928,0 -0.38643,0 -0.77285,0 -1.15928,0 -0.38643,0 -1.06556,-0.37489 -1.15928,0 -0.37489,1.49956 -1.54571,4.63713 0,4.63713 5.02536,0 4.49911,-4.70613 2.31856,-5.79641 -0.34563,-0.17281 -0.77285,0 -1.15928,0 -0.38643,0 -0.88604,-0.27324 -1.15928,0 -0.27325,0.27325 0,0.77286 0,1.15928 0,1.54571 -1.54571,4.63713 0,4.63713 1.93213,0 2.61376,-2.90897 3.47784,-4.63713 0.17282,-0.34563 -0.81365,0.17282 -1.15928,0 -0.4888,-0.24439 -0.67049,-0.91488 -1.15928,-1.15928 -0.34563,-0.17281 -0.77286,0 -1.15928,0 -0.38643,0 -0.88604,-0.27324 -1.15929,0 -0.27324,0.27325 0.27325,0.88604 0,1.15928 -0.27324,0.27325 -1.253,-0.37489 -1.15928,0 0.41914,1.67656 0.59041,4.63713 2.31857,4.63713 1.72815,0 1.67674,-3.03257 2.31856,-4.63713 0.14352,-0.35878 0.27325,-0.88603 0,-1.15928 -0.27325,-0.27324 -0.77285,0 -1.15928,0 -0.38643,0 -0.77286,0 -1.15928,0 -0.38643,0 -0.81366,-0.17281 -1.15929,0 -1.52062,0.76032 -4.12528,5.79641 1.15929,5.79641 1.59328,0 1.15928,-3.04384 1.15928,-4.63713 0,-0.38642 -0.77286,0 -1.15928,0 -0.38643,0 -0.77286,0 -1.15929,0 -0.38642,0 -1.253,-0.37489 -1.15928,0 1.54571,6.18284 3.09142,6.18284 4.63713,0 0.0937,-0.37489 -0.77285,0 -1.15928,0 -0.38643,0 -0.77286,0 -1.15928,0 -0.38643,0 -1.15929,-0.38642 -1.15929,0 0,1.59329 -0.434,4.63713 1.15929,4.63713 1.93213,0 2.61376,-2.90897 3.47784,-4.63713 0.17282,-0.34563 -0.77285,0 -1.15928,0 -0.38643,0 -0.77285,0 -1.15928,0 -0.38643,0 -1.06556,-0.37489 -1.15928,0 -0.37489,1.49956 -1.23657,3.70971 0,4.63713 5.18227,3.88671 4.63713,-1.90853 4.63713,-3.47784 0,-0.38643 0.27324,-0.88604 0,-1.15929 -0.27325,-0.27324 -0.77286,0 -1.15929,0 -0.55301,0 -10.80612,-0.85907 -3.47784,4.63713 5.18227,3.88671 4.63713,-1.90853 4.63713,-3.47784 0,-0.38643 0,-0.77286 0,-1.15929 0,-0.38642 0.17281,-0.81365 0,-1.15928 -0.82346,-1.64691 -2.6544,-1.64691 -3.47785,0 -0.17282,0.34563 0.0758,0.78036 0,1.15928 -0.31247,1.56235 -2.2859,3.51051 -1.15928,4.63713 1.12662,1.12662 3.07478,-0.84681 4.63713,-1.15928 0.46906,-0.0938 2.20674,0.11182 2.31856,0 0.27325,-0.27324 0,-0.77285 0,-1.15928 0,-0.42573 0.0466,-4.59048 0,-4.63713 -0.27325,-0.27325 -0.88604,-0.27325 -1.15928,0 -0.27325,0.27324 0.27324,0.88604 0,1.15928 -0.27325,0.27325 -0.88604,-0.27324 -1.15928,0 -0.0373,0.0373 0,3.19669 0,3.47785 0,0.38643 -0.27325,0.88604 0,1.15928 0.85288,0.85289 2.0922,-0.93292 2.31856,-1.15928 0.38643,-0.38643 0.91488,-0.67049 1.15928,-1.15928 0.10636,-0.21272 -0.0851,-3.47785 0,-3.47785 0.38643,0 0,0.77285 0,1.15928 0,0.38643 0,0.77286 0,1.15928 0,0.38643 0.27325,0.88604 0,1.15929 -0.27324,0.27324 -0.88603,-0.27325 -1.15928,0 -0.54649,0.54649 0.77286,2.31856 0,2.31856 -0.38643,0 0.27325,-0.88604 0,-1.15928 -0.27325,-0.27325 -0.88604,0.27324 -1.15928,0 -0.27325,-0.27325 0.27324,-0.88604 0,-1.15928 -0.27325,-0.27325 -0.88604,0.27324 -1.15928,0 -0.27325,-0.27325 -0.27325,-0.88604 0,-1.15929 0.27324,-0.27324 0.88603,0.27325 1.15928,0 0.27324,-0.27324 -0.27325,-0.88603 0,-1.15928 0.27324,-0.27324 0.81365,0.17282 1.15928,0 0.4888,-0.2444 0.67049,-0.91488 1.15928,-1.15928 0.34563,-0.17282 0.77286,0 1.15929,0 0.38642,0 0.88603,-0.27325 1.15928,0 0.93292,0.93292 -1.0461,1.97902 -1.15928,2.31856 -0.3666,1.0998 0.36659,2.37806 0,3.47785 -0.27325,0.81974 -0.88604,1.49883 -1.15929,2.31857 -0.1222,0.36659 0,0.77285 0,1.15928 0,0.38643 -0.38642,1.15928 0,1.15928 0.54649,0 0.91489,-0.67048 1.15929,-1.15928 0.46371,-0.92743 -0.46372,-2.55042 0,-3.47785 0.24439,-0.48879 0.98646,-0.64083 1.15928,-1.15928 0.2444,-0.7332 0,-1.54571 0,-2.31857 0,-0.77285 0.38643,-1.93213 -1.15928,-1.15928 -0.4888,0.2444 -0.91489,0.67049 -1.15929,1.15928 -0.1189,0.23781 -0.16349,3.31436 0,3.47785 0.79954,0.79953 2.16766,-0.85746 2.31857,-1.15928 0.17281,-0.34563 -0.17282,-0.81365 0,-1.15928 0.2444,-0.4888 0.91488,-0.67049 1.15928,-1.15929 0.17282,-0.34563 0,-0.77285 0,-1.15928 0,-0.38643 0.27325,-0.88604 0,-1.15928 -0.27324,-0.27325 -0.77285,0 -1.15928,0 -0.38643,0 -0.88604,-0.27325 -1.15928,0 -0.27325,0.27324 0.27324,0.88604 0,1.15928 -0.27325,0.27325 -0.88604,-0.27324 -1.15929,0 -0.27324,0.27325 0,0.77286 0,1.15928 0,0.28116 -0.0373,3.44057 0,3.47785 0.27325,0.27325 0.77286,0 1.15929,0 0.38642,0 0.77285,0 1.15928,0 0.38643,0 0.81365,0.17282 1.15928,0 2.56324,-1.28162 0.35975,-0.7195 1.15928,-2.31856 0.2444,-0.4888 0.91489,-0.67049 1.15929,-1.15929 0.17281,-0.34563 0,-0.77285 0,-1.15928 0,-0.38643 0.27324,-0.88604 0,-1.15928 -0.85289,-0.85289 -2.09221,0.93292 -2.31857,1.15928 -0.38643,0.38643 -0.91488,0.67049 -1.15928,1.15928 -0.17282,0.34564 0.27324,0.88604 0,1.15929 -0.27325,0.27324 -0.88604,-0.27325 -1.15928,0 -0.27325,0.27324 -0.27325,0.88603 0,1.15928 0.27324,0.27324 0.77285,0 1.15928,0 0.38643,0 0.81365,0.17281 1.15928,0 0.4888,-0.2444 0.91489,-0.67049 1.15928,-1.15928 0.17282,-0.34563 -0.27324,-0.88604 0,-1.15929 0.27325,-0.27324 0.88604,0.27325 1.15929,0 0.27324,-0.27324 -0.17282,-0.81365 0,-1.15928 0.24439,-0.48879 0.91488,-0.67048 1.15928,-1.15928 0.17281,-0.34563 0,-0.77286 0,-1.15928 0,-0.38643 0.27324,-0.88604 0,-1.15929 -0.27325,-0.27324 -0.77286,0 -1.15928,0 -0.38643,0 -0.81366,-0.17281 -1.15929,0 -0.48879,0.2444 -0.91488,0.67049 -1.15928,1.15929 -0.17281,0.34563 0.17282,0.81365 0,1.15928 -0.2444,0.4888 -0.91488,0.67049 -1.15928,1.15928 -0.17282,0.34563 0,0.77286 0,1.15928 0,0.38643 -0.27325,0.88604 0,1.15929 0.77285,0.77285 1.93214,-0.38643 1.15928,-1.15929 -0.27324,-0.27324 -0.77285,0 -1.15928,0 -0.42573,0 -4.59048,-0.0466 -4.63713,0 -0.27325,0.27325 0.27324,0.88604 0,1.15929 -0.27325,0.27324 -0.88604,-0.27325 -1.15928,0 -0.0313,0.0313 -0.63122,5.26835 1.15928,3.47784 0.27324,-0.27324 0,-0.77285 0,-1.15928 0,-0.38643 0.27324,-0.88604 0,-1.15928 -0.27325,-0.27325 -0.88604,0.27324 -1.15928,0 -0.27325,-0.27325 0.34563,-1.3321 0,-1.15928 -1.72816,0.86407 -2.90898,4.34192 -4.63713,3.47784 -1.54571,-0.77285 1.89942,-2.96057 2.31856,-4.63713 0.0937,-0.37489 -0.77285,0 -1.15928,0 -0.38643,0 -1.06556,-0.37489 -1.15928,0 -0.37489,1.49956 -0.9656,3.43014 0,4.63713 0.99531,1.24415 3.04384,1.15929 4.63713,1.15929 0.38642,0 0,-0.77286 0,-1.15929 0,-0.38642 0,-0.77285 0,-1.15928 0,-0.38643 0,-0.77285 0,-1.15928 0,-0.38643 0.34563,-1.3321 0,-1.15928 -1.72816,0.86407 -3.27091,4.84407 -4.63713,3.47784 -1.36623,-1.36622 2.61376,-2.90897 3.47784,-4.63713 0.17282,-0.34563 -0.77285,0 -1.15928,0 -0.38643,0 -0.98647,-0.34563 -1.15928,0 -2.37006,4.74013 -1.94164,5.992 3.47785,4.63713 0.37489,-0.0937 0,-0.77285 0,-1.15928 0,-0.38643 0,-0.77285 0,-1.15928 0,-0.38643 0,-0.77286 0,-1.15928 0,-0.38643 0.27324,-0.88604 0,-1.15929 -0.27325,-0.27324 -0.88604,0.27325 -1.15929,0 -0.27324,-0.27324 0.17282,-0.81365 0,-1.15928 -0.37705,-0.7541 -1.35912,-1.639 -2.31856,-1.15928 -0.4888,0.2444 -0.91489,0.67049 -1.15928,1.15928 -0.17282,0.34563 0,0.77286 0,1.15928 0,1.54571 -0.9656,3.43014 0,4.63713 0.99531,1.24415 3.04384,1.15929 4.63713,1.15929 0.38642,0 0,-0.77286 0,-1.15929 0,-0.38642 0,-0.77285 0,-1.15928 0,-0.38643 0.37489,-1.253 0,-1.15928 -1.67656,0.41914 -3.41514,3.54056 -4.63713,2.31856 -1.222,-1.22199 1.89942,-2.96057 2.31856,-4.63713 0.0937,-0.37489 -0.77285,0 -1.15928,0 -0.38643,0 -1.06556,-0.37489 -1.15928,0 -1.63846,6.55381 1.12064,5.89302 3.47784,0 0.56581,-1.41452 -4.63713,-1.87611 -4.63713,0 0,5.12342 1.44625,5.21563 5.79642,6.9557 0.35878,0.14352 0.77285,0 1.15928,0 0.38643,0 0.88603,0.27325 1.15928,0 0.27325,-0.27325 -0.17282,-0.81365 0,-1.15928 0.2444,-0.4888 0.98647,-0.64084 1.15928,-1.15929 0.3666,-1.09979 0,-2.31856 0,-3.47784 0,-0.38643 0.17282,-0.81365 0,-1.15929 -0.2444,-0.48879 -0.77285,-0.77285 -1.15928,-1.15928 -0.38643,-0.38643 -0.67049,-0.91488 -1.15928,-1.15928 -0.95944,-0.47972 -1.94152,0.40518 -2.31857,1.15928 -0.17281,0.34563 0.19882,0.82793 0,1.15928 -0.99407,1.6568 -3.85677,2.74252 -3.47784,4.63713 0.31246,1.56235 3.07478,0.84682 4.63713,1.15929 0.37892,0.0758 0.77285,0 1.15928,0 0.38643,0 0.88603,0.27324 1.15928,0 0.77733,-0.77733 -0.77733,-1.54124 0,-2.31857 0.27325,-0.27324 0.88604,0.27325 1.15928,0 0.11593,-0.11593 0.11593,-3.36192 0,-3.47785 -0.11593,-0.11592 -3.36192,-0.11592 -3.47784,0 -0.27325,0.27325 0.27324,0.88604 0,1.15929 -1.36623,1.36622 -4.63713,1.54571 -4.63713,3.47784 0,1.72816 3.03257,1.67675 4.63713,2.31857 0.35878,0.14352 0.77285,0 1.15928,0 0.38643,0 0.88603,0.27325 1.15928,0 0.27325,-0.27325 0,-0.77286 0,-1.15928 0,-0.38643 0,-0.77286 0,-1.15929 0,-0.38642 0,-0.77285 0,-1.15928 0,-0.38643 0.27325,-0.88604 0,-1.15928 -0.27325,-0.27325 -0.77285,0 -1.15928,0 -0.38643,0 -0.8005,-0.14352 -1.15928,0 -1.60456,0.64182 -3.86428,0.77285 -4.63713,2.31856 -0.47566,0.95132 0.6389,4.95659 2.31856,5.79642 0.34563,0.17281 0.77286,0 1.15928,0 0.38643,0 0.77286,0 1.15929,0 0.38642,0 0.88603,0.27324 1.15928,0 0.0373,-0.0373 0,-3.19669 0,-3.47785 0,-0.38643 0.27324,-0.88604 0,-1.15928 -0.27325,-0.27325 -0.78036,0.0758 -1.15928,0 -1.56235,-0.31247 -3.75334,-2.48498 -4.63713,-1.15929 -0.49455,0.74182 3.11011,6.19219 4.63713,6.9557 0.34563,0.17282 0.77285,0 1.15928,0 0.38643,0 0.88603,0.27325 1.15928,0 0.11593,-0.11593 0.11593,-3.36192 0,-3.47785 -0.54649,-0.54649 -1.65585,0.39763 -2.31856,0 -1.6568,-0.99407 -3.27091,-4.84407 -4.63713,-3.47785 -1.36623,1.36623 2.48377,2.98034 3.47784,4.63713 0.39763,0.66272 -0.54649,1.77208 0,2.31857 0.27325,0.27325 0.81365,-0.17282 1.15929,0 0.48879,0.2444 0.67048,0.91488 1.15928,1.15928 0.34563,0.17282 0.77285,0 1.15928,0 0.38643,0 0.88604,0.27325 1.15928,0 0.27325,-0.27324 -0.27324,-0.88603 0,-1.15928 0.27325,-0.27325 0.88604,0.27325 1.15929,0 0.54649,-0.54649 -0.5465,-1.77207 0,-2.31857 0.27324,-0.27324 0.88603,0.27325 1.15928,0 0.16349,-0.16348 0.1189,-3.24004 0,-3.47784 -0.2444,-0.4888 -0.67049,-0.91489 -1.15928,-1.15929 -0.23781,-0.1189 -3.31436,-0.16348 -3.47785,0 -0.27325,0.27325 0.17281,0.81366 0,1.15929 -1.76765,3.5353 -0.91904,-2.12027 -2.31857,3.47784 -0.74022,2.96089 -0.0231,1.70432 1.15929,3.47785 1.26838,1.90257 0.50676,3.30893 3.47784,2.31857 0.51845,-0.17282 0.91489,-0.67049 1.15929,-1.15929 0.18471,-0.36943 0,-4.76033 0,-5.79641 0,-0.38643 0,-0.77285 0,-1.15928 0,-0.38643 0.27324,-0.88604 0,-1.15928 -0.27325,-0.27325 -0.88604,0.27324 -1.15929,0 -0.27324,-0.27325 0.27325,-0.88604 0,-1.15929 -0.27324,-0.27324 -0.77285,0 -1.15928,0 -0.38643,0 -0.81365,-0.17281 -1.15928,0 -0.4888,0.2444 -0.61279,1.15929 -1.15928,1.15929 -1.59329,0 -3.9246,-2.58436 -4.63713,-1.15929 -0.93065,1.86129 1.6605,3.82223 2.31856,5.79642 0.1222,0.36659 -0.17282,0.81365 0,1.15928 0.2444,0.4888 0.77286,0.77285 1.15928,1.15928 1.03048,1.03048 1.56781,2.1143 3.47785,1.15928 0.34563,-0.17281 -0.17282,-0.81365 0,-1.15928 0.2444,-0.48879 0.77286,-0.77285 1.15928,-1.15928 0,-0.77286 -0.2444,-1.58537 0,-2.31857 0.17282,-0.51844 0.91489,-0.67048 1.15929,-1.15928 0.17281,-0.34563 0,-0.77285 0,-1.15928 0,-0.38643 0.17281,-0.81365 0,-1.15928 -0.2444,-0.4888 -0.85615,-0.70458 -1.15929,-1.15929 -1.77613,-2.66419 -0.0966,-2.31856 -2.31856,-2.31856 -0.38643,0 -0.88604,-0.27325 -1.15928,0 -0.27325,0.27324 0.34563,0.98647 0,1.15928 -1.42508,0.71254 -4.13329,-0.35224 -4.63713,1.15928 -0.65807,1.97419 1.6605,3.82223 2.31856,5.79642 0.1222,0.36659 -0.17282,0.81365 0,1.15928 0.80599,1.61198 3.00043,2.31856 4.63713,2.31856 0.38643,0 0.88604,0.27325 1.15928,0 0.27325,-0.27324 -0.27324,-0.88603 0,-1.15928 0.27325,-0.27324 0.88604,0.27325 1.15929,0 0.27324,-0.27324 0,-0.77285 0,-1.15928 0,-0.38643 0,-0.77286 0,-1.15928 0,-0.80051 0.17623,-4.28467 0,-4.63713 -0.2444,-0.4888 -0.77286,-0.77286 -1.15929,-1.15929 -1.43253,-1.43252 -0.61279,-1.15928 -2.31856,-1.15928 -0.38643,0 -0.78036,-0.0758 -1.15928,0 -1.56235,0.31247 -4.32467,-0.40306 -4.63713,1.15928 -0.37893,1.89462 2.27085,3.12839 3.47784,4.63713 0.53865,0.67331 1.24487,1.69614 2.31857,1.15929 2.56324,-1.28162 0.35975,-0.7195 1.15928,-2.31857 0.2444,-0.48879 0.91488,-0.67048 1.15928,-1.15928 0.0833,-0.16664 0.0176,-5.74375 0,-5.79641 -0.17281,-0.51845 -0.91488,-0.67049 -1.15928,-1.15929 -0.17282,-0.34563 0.27325,-0.88603 0,-1.15928 -0.27325,-0.27324 -0.77285,0 -1.15928,0 -0.38643,0 -0.81365,-0.17281 -1.15928,0 -0.4888,0.2444 -0.8179,0.73255 -1.15929,1.15928 -1.20699,1.50875 -3.75109,2.72442 -3.47784,4.63713 0.52995,3.70971 3.58825,3.47785 5.79641,3.47785 0.38643,0 0.88603,0.27325 1.15928,0 0.27325,-0.27324 -0.17282,-0.81365 0,-1.15928 0.2444,-0.4888 0.98647,-0.64084 1.15928,-1.15928 0.20775,-0.62324 0,-3.65563 0,-4.63713 0,-0.38643 0.27325,-0.88604 0,-1.15929 -0.27324,-0.27324 -0.77285,0 -1.15928,0 -0.38643,0 -0.77285,0 -1.15928,0 -2.47721,0 -5.79641,-0.27324 -5.79641,4.63713 0,1.54571 3.13757,0.37489 4.63713,0 0.37489,-0.0937 0,-0.77285 0,-1.15928 0,-0.38643 0.37489,-1.253 0,-1.15928 -1.67656,0.41914 -4.63713,0.59041 -4.63713,2.31856 0,1.59329 3.04384,1.15929 4.63713,1.15929 0.38642,0 0,-0.77286 0,-1.15929 0,-0.38642 0.38642,-1.15928 0,-1.15928 -5.40999,0 -5.79642,1.15928 -3.47785,5.79641 0.17281,0.34564 0.81365,-0.17281 1.15928,0 0.30182,0.15091 1.41232,2.06553 2.31857,1.15929 0.27324,-0.27325 0,-0.77286 0,-1.15929 0,-2.01972 0.30914,-6.28588 -4.63713,-4.63713 -1.51152,0.50384 0.44674,3.21206 1.15928,4.63713 0.17281,0.34564 0.88603,-0.27324 1.15928,0 0.27325,0.27325 -0.27325,0.88604 0,1.15929 0.27325,0.27324 0.77286,0 1.15928,0 0.38643,0 0.77286,0 1.15929,0 0.38642,0 0.88603,0.27324 1.15928,0 0.27324,-0.27325 0,-0.77286 0,-1.15929 0,-0.38642 0.17281,-0.81365 0,-1.15928 -0.77286,-1.54571 -5.75675,-3.55717 -5.79641,-3.47785 -4.32799,8.65598 3.15324,3.89519 4.63713,4.63713 0.48879,0.2444 0.6291,1.02674 1.15928,1.15929 1.12467,0.28116 2.37805,0.36659 3.47785,0 0.36659,-0.1222 0,-0.77286 0,-1.15929 0,-0.38642 0,-0.77285 0,-1.15928 0,-0.38643 0,-0.77285 0,-1.15928 0,-0.38643 0.27324,-0.88604 0,-1.15928 -0.27325,-0.27325 -0.88604,0.27324 -1.15929,0 -0.27324,-0.27325 0.17282,-0.81365 0,-1.15929 -0.71626,-1.43252 -1.11926,-1.15928 -2.31856,-1.15928 -0.38643,0 -0.88604,-0.27324 -1.15928,0 -0.27325,0.27325 0,0.77286 0,1.15928 0,0.28116 -0.0373,3.44057 0,3.47785 0.27324,0.27325 0.81365,-0.17281 1.15928,0 0.82014,0.41007 2.31856,3.40634 2.31856,0 0,-2.22288 0.52376,-1.7948 -1.15928,-3.47785 -0.38643,-0.38642 -0.67049,-0.91488 -1.15928,-1.15928 -0.34563,-0.17281 -0.78036,-0.0758 -1.15928,0 -1.56235,0.31247 -4.63713,-0.434 -4.63713,1.15928 0,14.220542 3.69424,1.37569 5.79641,3.47785 0.27324,0.27325 -0.27325,0.88604 0,1.15928 0.27324,0.27325 0.77285,0 1.15928,0 0.38643,0 0.88604,0.27325 1.15928,0 0.11593,-0.11592 0.11593,-3.36191 0,-3.47784 -0.27324,-0.27325 -0.77285,0 -1.15928,0 -0.38643,0 -0.88604,-0.27325 -1.15928,0 -0.11593,0.11593 -0.11593,3.36192 0,3.47784 0.27324,0.27325 0.77285,0 1.15928,0 0.38643,0 0.88604,0.27325 1.15928,0 0.27325,-0.27324 0,-0.77285 0,-1.15928 0,-0.38643 0.27325,-0.88603 0,-1.15928 -0.27324,-0.27325 -0.88603,0.27325 -1.15928,0 -0.27325,-0.27325 0.27325,-0.88604 0,-1.15928 -0.11182,-0.11182 -1.8495,0.0938 -2.31856,0 -1.56235,-0.31247 -3.75334,-2.48498 -4.63713,-1.15929 -0.0397,0.0595 1.91959,5.01729 3.47784,5.79642 0.34563,0.17281 0.77286,0 1.15929,0 0.38642,0 0.77285,0 1.15928,0 0.38643,0 0.88603,0.27324 1.15928,0 0.27325,-0.27325 0,-0.77286 0,-1.15929 0,-0.38642 0.27325,-0.88603 0,-1.15928 -0.27325,-0.27324 -0.88604,0.27325 -1.15928,0 -0.27325,-0.27324 0.27324,-0.88603 0,-1.15928 -0.27325,-0.27325 -0.8005,0.14352 -1.15928,0 -1.60456,-0.64182 -3.86428,-3.86428 -4.63713,-2.31857 -0.86408,1.72816 2.27085,3.12839 3.47784,4.63713 0.34139,0.42674 0.67049,0.91489 1.15929,1.15929 0.34563,0.17281 0.77285,0 1.15928,0 0.38643,0 0.77285,0 1.15928,0 0.38643,0 0.88604,0.27324 1.15928,0 0.27325,-0.27325 0,-0.77286 0,-1.15929 0,-0.38642 0.27325,-0.88603 0,-1.15928 -0.27324,-0.27324 -0.88603,0.27325 -1.15928,0 -0.27325,-0.27324 0.17282,-0.81365 0,-1.15928 -0.90472,-1.80943 -0.98601,-0.89277 -2.31856,-1.15928 -1.56235,-0.31247 -3.75334,-2.48498 -4.63713,-1.15929 -0.95861,1.43792 1.67674,3.03258 2.31856,4.63713 0.59965,1.49913 -1.12128,1.17829 1.15928,2.31857 0.34563,0.17282 0.81365,-0.17282 1.15929,0 0.30181,0.15091 1.41232,2.06552 2.31856,1.15928 0.27325,-0.27324 0,-0.77285 0,-1.15928 0,-0.38643 0,-0.77286 0,-1.15928 0,-0.38643 0,-0.77286 0,-1.15929 0,-0.38642 0.17282,-0.81365 0,-1.15928 -1.14028,-2.28056 -0.81944,-0.55963 -2.31856,-1.15928 -1.60456,-0.64182 -3.09142,-3.09142 -4.63713,-2.31857 -1.38253,0.69127 0,3.09142 0,4.63713 0,0.5221 -0.17641,3.12504 0,3.47785 1.28161,2.56324 0.7195,0.35975 2.31856,1.15928 0.30182,0.15091 1.41232,2.06553 2.31857,1.15929 0.27324,-0.27325 -0.27325,-0.88604 0,-1.15929 0.27324,-0.27324 0.88603,0.27325 1.15928,0 0.54649,-0.54649 -0.34563,-1.6273 0,-2.31856 0.2444,-0.4888 0.91488,-0.67049 1.15928,-1.15928 0.17641,-0.35281 0,-2.95576 0,-3.47785 0,-0.38643 0.27325,-0.88604 0,-1.15928 -0.11182,-0.11182 -1.8495,0.0938 -2.31856,0 -1.56235,-0.31247 -3.75334,-2.48498 -4.63713,-1.15929 -0.95861,1.43792 1.77207,2.99766 2.31856,4.63713 0.2444,0.7332 0,1.54571 0,2.31857 0,0.38643 -0.17282,0.81365 0,1.15928 0.2444,0.4888 0.77286,0.77286 1.15928,1.15928 0.22637,0.22637 1.46568,2.01217 2.31857,1.15929 0.27324,-0.27325 -0.27325,-0.88604 0,-1.15929 0.27324,-0.27324 0.88603,0.27325 1.15928,0 0.0466,-0.0466 0,-4.21139 0,-4.63713 0,-0.38642 0.27325,-0.88603 0,-1.15928 -0.27325,-0.27324 -0.88604,0.27325 -1.15928,0 -0.27325,-0.27324 0,-0.77285 0,-1.15928 -0.38643,0 -0.8005,0.14352 -1.15928,0 -1.60456,-0.64182 -3.41514,-3.54056 -4.63713,-2.31857 -1.222,1.222 1.77207,2.99766 2.31856,4.63713 0.22142,0.66426 0,4.70806 0,5.79642 0,0.38642 -0.27325,0.88603 0,1.15928 0.27325,0.27325 0.77286,0 1.15928,0 0.38643,0 0.88604,0.27325 1.15929,0 0.27324,-0.27325 -0.17282,-0.81365 0,-1.15928 0.24439,-0.4888 0.77285,-0.77286 1.15928,-1.15929 0,-0.77285 -0.2444,-1.58537 0,-2.31856 0.17281,-0.51845 0.98646,-0.64084 1.15928,-1.15928 0.3666,-1.09979 0,-2.31857 0,-3.47785 0,-0.38643 0.17282,-0.81365 0,-1.15928 -0.2444,-0.4888 -0.67049,-0.91489 -1.15928,-1.15929 -3.09142,-1.54571 0.38643,1.15929 -1.15928,1.15929 -1.59329,0 -4.13329,-2.67081 -4.63713,-1.15929 -0.611,1.83299 2.48377,2.98034 3.47784,4.63713 0.99249,1.65415 -2.02199,1.75242 -1.15928,3.47785 0.2444,0.4888 0.67049,0.91489 1.15928,1.15928 0.0607,0.0303 3.4172,0.0303 3.47785,0 0.4888,-0.24439 0.77286,-0.77285 1.15928,-1.15928 0.38643,-0.38643 0.98647,-0.64083 1.15929,-1.15928 0.24439,-0.73319 0,-1.54571 0,-2.31857 0,-0.38642 0,-0.77285 0,-1.15928 0,-0.38643 0.27324,-0.88603 0,-1.15928 -0.16349,-0.16349 -3.24005,-0.1189 -3.47785,0 -0.4888,0.2444 -0.91489,0.67049 -1.15928,1.15928 -0.17282,0.34563 0,0.77286 0,1.15928 0,0.38643 0,0.77286 0,1.15929 0,1.65889 -0.5465,2.62496 1.15928,3.47784 0.34563,0.17282 0.81365,-0.17281 1.15928,0 3.41155,1.70578 -1.79954,1.15929 3.47785,1.15929 3.09142,0 -0.38643,0.38642 1.15928,-1.15929 0.27325,-0.27324 0.88604,0.27325 1.15928,0 0.27325,-0.27324 0,-0.77285 0,-1.15928 0,-0.38643 0,-0.77285 0,-1.15928 0,-0.38643 0,-0.77286 0,-1.15928 0,-0.38643 0.17282,-0.81365 0,-1.15929 -0.50504,-1.01008 -2.67099,-2.11685 -3.47784,-2.31856 -0.723,-0.18075 -3.92055,0.28663 -4.63713,0 -1.60456,-0.64182 -3.86428,-3.86428 -4.63713,-2.31857 -1.09299,2.18597 1.78839,4.56992 2.31856,6.9557 0.25148,1.13168 -0.28117,2.35318 0,3.47785 0.13254,0.53017 0.77286,0.77285 1.15928,1.15928 0.38643,0.38643 0.70458,0.85614 1.15929,1.15928 0.71895,0.47931 1.54571,0.77286 2.31856,1.159282 0.77286,0.38643 1.45449,1.15929 2.31857,1.15929 0.54649,0 0.85614,-0.70458 1.15928,-1.15929 0.95944,-1.439152 1.94151,-4.288202 2.31856,-5.796412 0.18745,-0.74978 0,-1.54571 0,-2.31856 0,-0.38643 0.17282,-0.81365 0,-1.15929 -0.24439,-0.48879 -0.67048,-0.91488 -1.15928,-1.15928 -0.0607,-0.0303 -3.4172,-0.0303 -3.47785,0 -0.48879,0.2444 -0.77285,0.77286 -1.15928,1.15928 -0.38643,0.38643 -1.02674,0.62911 -1.15928,1.15929 -0.28117,1.12467 0,2.31856 0,3.47784 0,0.38643 0,0.77286 0,1.15929 0,0.38642 -0.27325,0.88603 0,1.15928 0.27324,0.27325 0.77285,0 1.15928,0 0.38643,0 0.77286,0 1.15928,0 0.38643,0 0.77286,0 1.15929,0 0.38642,0 0.81365,0.17282 1.15928,0 2.17498,-1.08749 0.49572,-1.48718 1.15928,-3.47785 0.17282,-0.51844 0.98647,-0.64083 1.15928,-1.15928 0.2444,-0.73319 0,-1.54571 0,-2.31857 0,-2.10127 0.56944,-3.47784 -2.31856,-3.47784 -0.38643,0 -0.77286,0 -1.15928,0 -0.38643,0 -0.88604,-0.27325 -1.15929,0 -0.27324,0.27324 0.17282,0.81365 0,1.15928 -0.2444,0.4888 -0.91488,0.67049 -1.15928,1.15928 -0.17282,0.34563 0,0.77286 0,1.15928 0,0.77286 0,1.54571 0,2.31857 0,0.38643 -0.27325,0.88604 0,1.15928 0.27325,0.27325 0.77286,0 1.15928,0 0.38643,0 0.77286,0 1.15929,0 0.38642,0 0.88603,0.27325 1.15928,0 0.27324,-0.27324 -0.17282,-0.81365 0,-1.15928 0.2444,-0.4888 0.91488,-0.67049 1.15928,-1.15928 0.17641,-0.35281 0,-2.95576 0,-3.47785 0,-0.38643 0.27325,-0.88604 0,-1.15928 -0.27324,-0.27325 -0.77285,0 -1.15928,0 -0.38643,0 -0.81365,-0.17282 -1.15928,0 -0.4888,0.2444 -0.91489,0.67048 -1.15929,1.15928 -0.0494,0.0988 -0.0494,4.53831 0,4.63713 0.71627,1.43253 1.11927,1.15928 2.31857,1.15928 0.38643,0 0.88604,0.27325 1.15928,0 0.27325,-0.27324 0,-0.77285 0,-1.15928 0,-0.60621 0.15241,-4.33231 0,-4.63713 -0.2444,-0.4888 -0.67049,-0.91488 -1.15928,-1.15928 -0.34563,-0.17282 -0.81365,-0.17282 -1.15928,0 -2.56324,1.28162 -0.35975,0.7195 -1.15929,2.31856 -1.70577,3.41155 -1.15928,-1.79953 -1.15928,3.47785 0,0.77285 0,1.54571 0,2.31856 0,0.38643 -0.27325,0.88604 0,1.15929 0.27325,0.27324 0.77286,0 1.15928,0 0.38643,0 0.77286,0 1.15929,0 0.38642,0 0.88603,0.27324 1.15928,0 0.27324,-0.27325 -0.17282,-0.81365 0,-1.15929 0.2444,-0.48879 0.91488,-0.67048 1.15928,-1.15928 0.1189,-0.2378 0.16349,-3.31436 0,-3.47785 -0.27324,-0.27324 -0.77285,0 -1.15928,0 -0.38643,0 -0.77286,0 -1.15928,0 -0.38643,0 -0.88604,-0.27324 -1.15929,0 -0.27324,0.27325 0.27325,0.88604 0,1.15929 -0.27324,0.27324 -0.88603,-0.27325 -1.15928,0 -0.11593,0.11593 -0.11593,3.36192 0,3.47784 0.27325,0.27325 0.77286,0 1.15928,0 0.38643,0 0.81365,0.17282 1.15929,0 0.48879,-0.24439 0.91488,-0.67048 1.15928,-1.15928 0.1189,-0.2378 0.16349,-3.31436 0,-3.47785 -0.27325,-0.27324 -0.88604,0.27325 -1.15928,0 -0.27325,-0.27324 0.27324,-0.88603 0,-1.15928 -0.16349,-0.16349 -3.24005,-0.1189 -3.47785,0 -0.30182,0.15091 -1.95882,1.51903 -1.15928,2.31857 0.27324,0.27324 0.81365,-0.17282 1.15928,0 0.48879,0.2444 0.70457,0.85614 1.15928,1.15928 2.25737,1.50491 2.12751,1.15928 4.63713,1.15928 0.38643,0 0.88604,0.27325 1.15928,0 0.16349,-0.16349 0.1189,-3.24004 0,-3.47785 -0.24439,-0.48879 -0.91488,-0.67048 -1.15928,-1.15928 -0.17281,-0.34563 0.27325,-0.88603 0,-1.15928 -0.27324,-0.27325 -0.81365,0.17282 -1.15928,0 -0.30182,-0.15091 -1.41233,-2.06552 -2.31857,-1.15928 -0.11593,0.11593 -0.11593,3.36192 0,3.47784 0.27325,0.27325 0.88604,-0.27324 1.15929,0 0.27324,0.27325 -0.27325,0.88604 0,1.15929 0.27324,0.27324 0.88603,0.27324 1.15928,0 0.27324,-0.27325 0,-0.77286 0,-1.15929 0,-0.38642 0.27324,-0.88603 0,-1.15928 -0.27325,-0.27324 -0.88604,0.27325 -1.15928,0 -0.27325,-0.27324 0.27324,-0.88603 0,-1.15928 -0.27325,-0.27325 -0.77286,0 -1.15929,0 -0.38642,0 -0.81365,-0.17282 -1.15928,0 -0.4888,0.2444 -0.91488,0.67049 -1.15928,1.15928 -0.17282,0.34563 0,0.77286 0,1.15928 0,0.38643 -0.17282,0.81366 0,1.15929 0.2444,0.48879 0.77285,0.77285 1.15928,1.15928 0.38643,0.38643 0.67049,0.91488 1.15928,1.15928 0.34563,0.17282 0.77286,0 1.15929,0 0.38642,0 0.88603,0.27325 1.15928,0 0.85288,-0.85288 -0.93292,-2.0922 -1.15928,-2.31856 -0.22637,-0.22637 -1.46568,-2.01217 -2.31857,-1.15929 -0.27325,0.27325 0,0.77286 0,1.15929 0,0.38642 -0.27325,0.88603 0,1.15928 0.27325,0.27325 0.88604,-0.27325 1.15928,0 0.27325,0.27325 -0.27324,0.88604 0,1.15928 0.27325,0.27325 0.88604,0.27325 1.15929,0 0.27324,-0.27324 0,-0.77285 0,-1.15928 0,-0.38643 0.27324,-0.88604 0,-1.15928 -0.11593,-0.11593 -3.36192,-0.11593 -3.47785,0 -0.79953,0.79953 0.85746,2.16765 1.15928,2.31856 0.2378,0.1189 3.31436,0.16349 3.47785,0 0.27324,-0.27324 0.27324,-0.88603 0,-1.15928 -0.27325,-0.27325 -0.88604,0.27325 -1.15928,0 -0.27325,-0.27325 0.27324,-0.88604 0,-1.15928 -0.27325,-0.27325 -0.88604,-0.27325 -1.15929,0 -0.27324,0.27324 0,0.77285 0,1.15928 0,0.38643 -0.17281,0.81365 0,1.15928 0.2444,0.4888 0.67049,0.91489 1.15929,1.15928 0.34563,0.17282 0.77285,0 1.15928,0 0.38643,0 0.88604,0.27325 1.15928,0 0.27325,-0.27324 0,-0.77285 0,-1.15928 0,-0.52209 0.17641,-3.12504 0,-3.47785 -0.15091,-0.30181 -1.51903,-1.95881 -2.31856,-1.15928 -0.27325,0.27325 0,0.77286 0,1.15928 0,3.51466 -0.0368,3.47785 3.47784,3.47785 0.38643,0 0.88604,0.27325 1.15929,0 0.0373,-0.0373 0,-3.19669 0,-3.47785 0,-0.38642 0.27324,-0.88603 0,-1.15928 -0.27325,-0.27324 -0.77286,0 -1.15929,0 -0.38642,0 -0.88603,-0.27324 -1.15928,0 -0.0373,0.0373 0,3.19669 0,3.47785 0,0.38643 -0.27324,0.88604 0,1.15928 0.11593,0.11593 3.36192,0.11593 3.47785,0 0.27324,-0.27324 -0.27325,-0.88603 0,-1.15928 0.27324,-0.27325 0.88604,0.27325 1.15928,0 0.27325,-0.27325 0,-0.77286 0,-1.15928 0,-0.28116 0.0373,-3.44057 0,-3.47785 -0.27324,-0.27325 -0.77285,0 -1.15928,0 -0.38643,0 -0.77286,0 -1.15928,0 -2.71873,0 0.54649,-0.27325 -2.31857,1.15928 -0.34563,0.17282 -0.88604,-0.27324 -1.15928,0 -0.27325,0.27325 0.17281,0.81365 0,1.15928 -0.77286,1.54571 -2.47863,0.83916 -1.15928,3.47785 0.17281,0.34563 0.88603,-0.27324 1.15928,0 0.27324,0.27325 -0.27325,0.88604 0,1.15928 0.79953,0.79954 2.16765,-0.85746 2.31856,-1.15928 0.15241,-0.30482 0,-4.03092 0,-4.63713 0,-0.38643 0.27325,-0.88603 0,-1.15928 -0.27324,-0.27325 -0.88603,0.27325 -1.15928,0 -0.27324,-0.27325 0.27325,-0.88604 0,-1.15928 -0.0373,-0.0373 -3.19669,0 -3.47785,0 -0.38642,0 -0.88603,-0.27325 -1.15928,0 -0.27325,0.27324 0,0.77285 0,1.15928 0,0.38643 0,0.77285 0,1.15928 0,0.38643 -0.27325,0.88604 0,1.15928 0.27325,0.27325 0.88604,0.27325 1.15928,0 0.0525,-0.0525 0,-5.24981 0,-5.79641 0,-0.38643 0.27325,-0.88604 0,-1.15928 -0.27324,-0.27325 -0.88603,0.27324 -1.15928,0 -2.3986,-2.3986 3.66537,0.0938 -1.15928,-2.31857 -0.34563,-0.17281 -0.77286,0 -1.15928,0 -2.23251,0 -6.14447,-0.63854 -4.63713,4.63713 0.53079,1.8578 2.90897,2.61377 4.63713,3.47785 0.34563,0.17282 0,-0.77285 0,-1.15928 0,-0.38643 0,-0.77286 0,-1.15928 0,-0.77286 0,-1.54571 0,-2.31857 0,-0.38643 0.37489,-1.253 0,-1.15928 -1.67656,0.41914 -3.86428,0.77285 -4.63713,2.31856 -2.50601,5.01202 0.47769,4.63713 2.31856,4.63713 0.52209,0 3.12504,0.17641 3.47785,0 0.48879,-0.24439 0.67048,-0.91488 1.15928,-1.15928 0.34563,-0.17281 0.88604,0.27325 1.15928,0 0.27325,-0.27324 0,-0.77285 0,-1.15928 0,-1.54571 0,-3.09142 0,-4.63713 0,-0.38643 0.27325,-0.88604 0,-1.15928 -0.27324,-0.27325 -0.88603,0.27324 -1.15928,0 -0.27325,-0.27325 0.27325,-0.88604 0,-1.15929 -0.27325,-0.27324 -0.77285,0 -1.15928,0 -0.38643,0 -0.77286,0 -1.15928,0 -5.51835,0 -4.63713,6.00529 -4.63713,9.27426 0,0.38643 0,0.77286 0,1.15929 0,0.38642 -0.27325,0.88603 0,1.15928 0.27324,0.27325 0.88603,-0.27325 1.15928,0 0.27324,0.27325 -0.27325,0.88604 0,1.15928 0.27324,0.27325 0.77285,0 1.15928,0 0.38643,0 0.81365,0.17282 1.15928,0 0.4888,-0.2444 0.77286,-0.77285 1.15929,-1.15928 0.38642,-0.38643 0.98646,-0.64084 1.15928,-1.15928 0.2444,-0.7332 -0.2444,-1.58537 0,-2.31857 0.17281,-0.51844 0.98646,-0.64083 1.15928,-1.15928 0.2444,-0.7332 0,-1.54571 0,-2.31857 0,-0.38642 0,-0.77285 0,-1.15928 0,-0.38643 0.27325,-0.88604 0,-1.15928 -0.27325,-0.27325 -0.77285,0 -1.15928,0 -0.38643,0 -0.8005,-0.14352 -1.15928,0 -1.60456,0.64182 -3.86428,0.77285 -4.63713,2.31856 -0.71254,1.42508 0.84681,3.07479 1.15928,4.63713 0.29982,1.4991 -0.71513,2.54065 1.15928,3.47785 0.34563,0.17282 0.81365,0.17282 1.15928,0 0.4888,-0.2444 0.77286,-0.77285 1.15929,-1.15928 0.38642,-0.38643 0.91488,-0.67049 1.15928,-1.15928 0.17281,-0.34563 -0.1222,-0.79269 0,-1.15929 0.27324,-0.81973 0.88603,-1.49882 1.15928,-2.31856 0.1222,-0.3666 0,-0.77286 0,-1.15928 0,-1.1993 0.27325,-1.6023 -1.15928,-2.31857 -0.34563,-0.17281 -0.78036,-0.0758 -1.15928,0 -1.56235,0.31247 -3.8174,-0.20694 -4.63713,1.15928 -0.81974,1.36623 0.84681,3.07479 1.15928,4.63713 0.26651,1.33256 -0.65015,1.41385 1.15928,2.31857 0.34563,0.17282 0.77286,0 1.15928,0 0.38643,0 0.88604,0.27325 1.15929,0 0.27324,-0.27325 -0.27325,-0.88604 0,-1.15928 0.27324,-0.27325 0.88603,0.27324 1.15928,0 0.54649,-0.54649 -0.2444,-1.58537 0,-2.31857 0.1608,-0.48241 1.6831,-2.43021 1.15928,-3.47785 -0.2444,-0.48879 -0.67049,-0.91488 -1.15928,-1.15928 -0.34563,-0.17281 -0.78036,-0.0758 -1.15928,0 -1.56235,0.31247 -3.8174,-0.20694 -4.63713,1.15928 -0.81974,1.36623 0.44674,3.21206 1.15928,4.63713 0.17281,0.34564 0.77285,0 1.15928,0 0.38643,0 0.81365,0.17282 1.15928,0 4.82466,-2.41232 -1.23931,0.08 1.15929,-2.31856 0.27324,-0.27325 0.88603,0.27325 1.15928,0 0.11593,-0.11593 0.11593,-3.36192 0,-3.47785 -0.27325,-0.27324 -0.88604,0.27325 -1.15928,0 -0.27325,-0.27324 0.37489,-1.253 0,-1.15928 -4.13596,1.03399 -6.83218,2.48325 -3.47785,6.95569 0.46371,0.61829 1.54571,0 2.31856,0 0.38643,0 0.77286,0 1.15929,0 0.38642,0 0.88603,0.27325 1.15928,0 0.27324,-0.27324 0,-0.77285 0,-1.15928 0,-0.38643 0,-0.77285 0,-1.15928 0,-0.38643 0,-0.77286 0,-1.15928 0,-0.38643 0.17281,-0.81365 0,-1.15929 -1.08084,-2.16168 -4.14243,-1.65398 -5.79641,0 -1.12662,1.12662 -0.84682,3.07479 -1.15929,4.63713 -0.0758,0.37893 -0.27324,0.88604 0,1.15929 0.27325,0.27324 0.81365,-0.17282 1.15929,0 0.94262,0.47131 0.9592,1.83896 2.31856,1.15928 2.86749,-1.43374 0.0275,-6.9557 -2.31856,-6.9557 -1.93214,0 -2.61377,2.90898 -3.47785,4.63713 -0.17282,0.34564 0.88603,-0.27324 1.15928,0 0.27325,0.27325 -0.27325,0.88604 0,1.15929 0.27325,0.27324 0.77286,0 1.15928,0 0.38643,0 0.77286,0 1.15929,0 0.38642,0 0.88603,0.27324 1.15928,0 0.27324,-0.27325 0.0758,-0.78036 0,-1.15929 -0.31247,-1.56234 0.434,-4.63713 -1.15928,-4.63713 -1.59329,0 -1.15929,3.04385 -1.15929,4.63713 0,0.38643 0.77286,0 1.15929,0 0.38642,0 0.77285,0 1.15928,0 0.38643,0 1.253,0.37489 1.15928,0 -0.41914,-1.67655 -3.27717,-3.19921 -2.31856,-4.63713 0.88379,-1.32569 3.04384,1.15929 4.63713,1.15929 0.38642,0 0,-0.77286 0,-1.15929 0,-0.38642 0.38642,-1.15928 0,-1.15928 -5.40999,0 -5.79642,1.15928 -3.47785,5.79641 0.17281,0.34564 0.81365,-0.17281 1.15928,0 0.94263,0.47132 0.9592,1.83897 2.31857,1.15929 0.48879,-0.2444 0.91488,-0.67049 1.15928,-1.15929 0.0494,-0.0988 0.0494,-4.5383 0,-4.63713 -0.2444,-0.48879 -0.61279,-1.15928 -1.15928,-1.15928 -1.59329,0 -3.51051,2.2859 -4.63713,1.15928 -1.12662,-1.12662 1.15928,-3.04384 1.15928,-4.63713 0,-0.38642 -0.77286,0 -1.15928,0 -0.38643,0 -1.15929,-0.38642 -1.15929,0 0,7.31636 4.2964,4.26213 -3.47784,2.31857 -0.37489,-0.0937 0,0.77285 0,1.15928 0,0.38643 0,0.77286 0,1.15928 0,0.38643 -0.38643,1.15929 0,1.15929 1.59328,0 4.63713,0.434 4.63713,-1.15929 0,-1.72815 -2.96058,-1.89942 -4.63713,-2.31856 -0.37489,-0.0937 -0.34564,0.98647 0,1.15928 1.42507,0.71254 3.3625,2.11525 4.63713,1.15928 1.23656,-0.92742 0.37488,-3.13757 0,-4.63713 -0.0937,-0.37489 -1.15929,-0.38642 -1.15929,0 0,1.59329 0.77286,3.09142 1.15929,4.63713 z"
     style="fill:none;fill-rule:evenodd;stroke:#000000;stroke-width:1px;stroke-linecap:butt;stroke-linejoin:miter;stroke-opacity:1" />
</svg>
