<?xml version="1.0" encoding="UTF-8" standalone="no"?>
<!-- Created with Inkscape (http://www.inkscape.org/) -->

<svg
   xmlns:dc="http://purl.org/dc/elements/1.1/"
   xmlns:cc="http://creativecommons.org/ns#"
   xmlns:rdf="http://www.w3.org/1999/02/22-rdf-syntax-ns#"
   xmlns:svg="http://www.w3.org/2000/svg"
   xmlns="http://www.w3.org/2000/svg"
   version="1.1"
   width="1920"
   height="1080"
   id="svg2">
  <defs
     id="defs4" />
  <metadata
     id="metadata7">
    <rdf:RDF>
      <cc:Work
         rdf:about="">
        <dc:format>image/svg+xml</dc:format>
        <dc:type
           rdf:resource="http://purl.org/dc/dcmitype/StillImage" />
        <dc:title></dc:title>
      </cc:Work>
    </rdf:RDF>
  </metadata>
  <g
     transform="translate(0.0,0.0)"
     id="layer1">
    <path
       initial_time="16.602000"
       final_time="23.515000"
       d="M 1829,577 C 1829,578 1828.77,579.027 1829,580 C 1829.17,580.725 1829.47,581.473 1830,582 C 1830.53,582.527 1831.27,582.829 1832,583 C 1832.97,583.23 1834.03,583.23 1835,583 C 1836.45,582.658 1837.79,581.872 1839,581 C 1839.76,580.449 1840.4,579.729 1841,579 C 1841.76,578.071 1842.65,577.15 1843,576 C 1841.76,578.071 1842.65,577.15 1843,576 C 1843.29,575.043 1843.16,573.987 1843,573 C 1843.29,575.043 1843.16,573.987 1843,573 C 1842.83,571.96 1842.64,570.838 1842,570 C 1841.27,569.045 1840.15,568.348 1839,568 C 1841.27,569.045 1840.15,568.348 1839,568 C 1838.36,567.807 1837.63,567.789 1837,568 C 1835.42,568.527 1834.15,569.789 1833,571 C 1832.17,571.873 1831.49,572.901 1831,574 C 1830.44,575.257 1830.17,576.636 1830,578 C 1830.44,575.257 1830.17,576.636 1830,578 C 1829.88,578.992 1829.53,580.118 1830,581 C 1830.57,582.06 1831.85,582.652 1833,583 C 1833.96,583.29 1835.03,583.23 1836,583 C 1836.36,582.914 1837.68,582.187 1838,582 C 1839.04,581.397 1840.2,580.901 1841,580 C 1841.49,579.441 1841.83,578.725 1842,578 C 1842.15,577.351 1842,576.667 1842,576 C 1842,575.333 1842,574.667 1842,574 C 1842,573.333 1842.15,572.649 1842,572 C 1842,573.333 1842.15,572.649 1842,572 C 1841.83,571.275 1841.44,570.605 1841,570 C 1841.83,571.275 1841.44,570.605 1841,570 C 1840.45,569.235 1839.92,568.217 1839,568 C 1837.97,567.758 1836.84,568.36 1836,569 C 1835.76,569.182 1834.15,571.74 1834,572 C 1833.63,572.645 1833.29,573.311 1833,574 C 1832.6,574.974 1832.17,575.96 1832,577 C 1832.6,574.974 1832.17,575.96 1832,577 C 1831.89,577.658 1831.74,578.384 1832,579 C 1832.36,579.871 1833.13,580.639 1834,581 C 1834.62,581.255 1835.38,581.255 1836,581 C 1836.87,580.639 1837.33,579.667 1838,579 C 1838.67,578.333 1839.33,577.667 1840,577 C 1840.67,576.333 1841.5,575.802 1842,575 C 1842.55,574.103 1842.83,573.04 1843,572 C 1843.16,571.013 1843,570 1843,569 C 1843,568.333 1843,567.667 1843,567 C 1843,568.333 1843,567.667 1843,567 C 1843,566 1843.53,564.851 1843,564 C 1843,566 1843.53,564.851 1843,564 C 1842.61,563.366 1841.74,562.881 1841,563 C 1840.53,563.076 1839.29,564.628 1839,565 C 1837.8,566.532 1836.74,568.204 1836,570 C 1835.47,571.27 1835.38,572.68 1835,574 C 1834.71,575.012 1834,575.946 1834,577 C 1834.71,575.012 1834,575.946 1834,577 C 1834,578.054 1834.25,579.255 1835,580 C 1834,578.054 1834.25,579.255 1835,580 C 1835.75,580.745 1836.95,581 1838,581 C 1839.05,581 1840.16,580.64 1841,580 C 1841.96,579.271 1842.65,578.15 1843,577 C 1843.19,576.362 1842.89,575.658 1843,575 C 1843.17,573.96 1843.83,573.04 1844,572 C 1844.11,571.342 1844.11,570.658 1844,570 C 1844.11,571.342 1844.11,570.658 1844,570 C 1843.83,568.96 1843.69,567.796 1843,567 C 1843.83,568.96 1843.69,567.796 1843,567 C 1842.51,566.437 1841.74,565.954 1841,566 C 1840.4,566.037 1838.46,567.619 1838,568 C 1837.27,568.598 1836.55,569.235 1836,570 C 1835.13,571.209 1834.34,572.549 1834,574 C 1835.13,571.209 1834.34,572.549 1834,574 C 1833.85,574.649 1833.89,575.342 1834,576 C 1833.85,574.649 1833.89,575.342 1834,576 C 1834.17,577.04 1834.25,578.255 1835,579 C 1835.75,579.745 1836.95,580.075 1838,580 C 1835.75,579.745 1836.95,580.075 1838,580 C 1838.74,579.947 1839.43,579.478 1840,579 C 1841.28,577.932 1842.47,576.581 1843,575 C 1843.21,574.368 1842.89,573.658 1843,573 C 1843.21,574.368 1842.89,573.658 1843,573 C 1843.17,571.96 1844.07,571.051 1844,570 C 1843.17,571.96 1844.07,571.051 1844,570 C 1843.89,568.513 1843.13,566.977 1842,566 C 1841.6,565.655 1839.52,565.084 1839,565 C 1838.34,564.893 1837.62,564.745 1837,565 C 1836.56,565.18 1835.28,566.618 1835,567 C 1834.56,567.605 1833.29,570.311 1833,571 C 1832.6,571.974 1832.17,572.96 1832,574 C 1831.89,574.658 1832,575.333 1832,576 C 1832,577.333 1831.3,578.866 1832,580 C 1832,577.333 1831.3,578.866 1832,580 C 1832.2,580.317 1833.64,580.914 1834,581 C 1832.2,580.317 1833.64,580.914 1834,581 C 1835.3,581.306 1836.81,581.596 1838,581 C 1838.75,580.627 1840.56,577.709 1841,577 C 1841.39,576.366 1841.83,575.725 1842,575 C 1842.23,574.027 1842,573 1842,572 C 1842,571 1842,570 1842,569 C 1842,568.333 1842.19,567.638 1842,567 C 1842,568.333 1842.19,567.638 1842,567 C 1841.65,565.85 1841.06,564.567 1840,564 C 1839.41,563.685 1838.62,563.745 1838,564 C 1837.56,564.18 1836.28,565.618 1836,566 C 1835.13,567.209 1834.67,568.667 1834,570 C 1833.33,571.333 1832.34,572.549 1832,574 C 1831.69,575.298 1832,576.667 1832,578 C 1831.69,575.298 1832,576.667 1832,578 C 1832,578.667 1831.69,579.412 1832,580 C 1832.57,581.06 1833.85,581.652 1835,582 C 1835.64,582.193 1836.35,582.153 1837,582 C 1837.73,581.829 1838.47,581.527 1839,581 C 1839.53,580.473 1839.63,579.645 1840,579 C 1840.6,577.961 1841.65,577.15 1842,576 C 1842.29,575.043 1842,574 1842,573 C 1842,572.333 1842,571.667 1842,571 C 1842,570.333 1842.35,569.567 1842,569 C 1842,570.333 1842.35,569.567 1842,569 C 1841.61,568.366 1840.67,568.333 1840,568 C 1839.33,567.667 1838.71,566.764 1838,567 C 1837.29,567.236 1837.39,568.366 1837,569 C 1836.12,570.418 1834.77,571.524 1834,573 C 1833.51,573.934 1833.33,575 1833,576 C 1832.67,577 1832.17,577.96 1832,579 C 1831.84,579.987 1831.77,581.027 1832,582 C 1832.17,582.725 1832.37,583.608 1833,584 C 1833.57,584.35 1834.33,584 1835,584 C 1835.67,584 1836.43,584.35 1837,584 C 1837.63,583.608 1837.56,582.605 1838,582 C 1838.55,581.235 1839.64,580.871 1840,580 C 1840.26,579.384 1840,578.667 1840,578 C 1840,577 1840,576 1840,575 C 1840,574.333 1840.15,573.649 1840,573 C 1840,574.333 1840.15,573.649 1840,573 C 1839.83,572.275 1839.44,571.605 1839,571 C 1839.83,572.275 1839.44,571.605 1839,571 C 1838.45,570.235 1837.94,569.093 1837,569 C 1836.4,568.941 1834.4,570.549 1834,571 C 1833.51,571.559 1833.17,572.275 1833,573 C 1832.85,573.649 1833,574.333 1833,575 C 1833,576 1832.77,577.027 1833,578 C 1833,576 1832.77,577.027 1833,578 C 1833.17,578.725 1833.47,579.473 1834,580 C 1834.53,580.527 1835.27,580.829 1836,581 C 1834.53,580.527 1835.27,580.829 1836,581 C 1836.65,581.153 1837.38,581.255 1838,581 C 1839.31,580.459 1840.46,579.307 1841,578 C 1841.26,577.384 1841,576.667 1841,576 C 1841,575.333 1841,574.667 1841,574 C 1841,573 1841,572 1841,571 C 1841,570.333 1841.15,569.649 1841,569 C 1841,570.333 1841.15,569.649 1841,569 C 1840.83,568.275 1840.53,567.527 1840,567 C 1840.83,568.275 1840.53,567.527 1840,567 C 1839.47,566.473 1838.74,565.881 1838,566 C 1837.3,566.113 1835.41,568.426 1835,569 C 1834.56,569.605 1834.26,570.301 1834,571 C 1833.52,572.289 1833.17,573.636 1833,575 C 1832.92,575.662 1832.89,576.342 1833,577 C 1832.92,575.662 1832.89,576.342 1833,577 C 1833.17,578.04 1833.31,579.204 1834,580 C 1834.49,580.563 1835.27,580.829 1836,581 C 1834.49,580.563 1835.27,580.829 1836,581 C 1836.65,581.153 1837.43,581.35 1838,581 C 1838.63,580.608 1839.83,577.725 1840,577 C 1838.63,580.608 1839.83,577.725 1840,577 C 1840.23,576.027 1840,575 1840,574 C 1840,572.667 1840.31,571.298 1840,570 C 1840,572.667 1840.31,571.298 1840,570 C 1839.83,569.275 1839.53,568.527 1839,568 C 1839.83,569.275 1839.53,568.527 1839,568 C 1838.47,567.473 1837.74,566.954 1837,567 C 1836.4,567.037 1834.46,568.619 1834,569 C 1833.27,569.598 1832.55,570.235 1832,571 C 1831.56,571.605 1831.17,572.275 1831,573 C 1830.69,574.298 1831,575.667 1831,577 C 1831,577.667 1830.74,578.384 1831,579 C 1831,577.667 1830.74,578.384 1831,579 C 1831.36,579.871 1832.13,580.639 1833,581 C 1833.62,581.255 1834.35,581.153 1835,581 C 1835.73,580.829 1836.47,580.527 1837,580 C 1837.53,579.473 1837.83,578.725 1838,578 C 1838.15,577.351 1838,576.667 1838,576 C 1838,575.333 1838,574.667 1838,574 C 1838,573 1838.23,571.973 1838,571 C 1838,573 1838.23,571.973 1838,571 C 1837.83,570.275 1837.44,569.605 1837,569 C 1837.83,570.275 1837.44,569.605 1837,569 C 1836.45,568.235 1835.93,567.151 1835,567 C 1834.63,566.94 1833.28,567.753 1833,568 C 1832.1,568.795 1831.35,569.85 1831,571 C 1830.81,571.638 1831,572.333 1831,573 C 1831,573.667 1831,574.333 1831,575 C 1831,573.667 1831,574.333 1831,575 C 1831,576 1830.42,577.189 1831,578 C 1831.31,578.428 1833.48,578.916 1834,579 C 1831.31,578.428 1833.48,578.916 1834,579 C 1834.66,579.107 1835.46,579.39 1836,579 C 1836.86,578.384 1836.6,576.974 1837,576 C 1837.29,575.311 1837.83,574.725 1838,574 C 1838.15,573.351 1838.15,572.649 1838,572 C 1837.83,571.275 1837.17,570.725 1837,570 C 1836.85,569.351 1837.15,568.649 1837,568 C 1836.85,569.351 1837.15,568.649 1837,568 C 1836.83,567.275 1836.63,566.392 1836,566 C 1836.83,567.275 1836.63,566.392 1836,566 C 1835.43,565.65 1834.62,565.745 1834,566 C 1833.13,566.361 1832.46,567.18 1832,568 C 1831.32,569.196 1831.38,570.68 1831,572 C 1830.71,573.012 1830.17,573.96 1830,575 C 1829.89,575.658 1829.85,576.351 1830,577 C 1829.89,575.658 1829.85,576.351 1830,577 C 1830.17,577.725 1830.44,578.512 1831,579 C 1830.17,577.725 1830.44,578.512 1831,579 C 1831.8,579.691 1832.96,580.14 1834,580 C 1835.19,579.84 1836.27,578.955 1837,578 C 1837.64,577.162 1837.6,575.974 1838,575 C 1838.29,574.311 1838.83,573.725 1839,573 C 1839.15,572.351 1839,571.667 1839,571 C 1839.15,572.351 1839,571.667 1839,571 C 1839,570 1839.38,568.924 1839,568 C 1839,570 1839.38,568.924 1839,568 C 1838.46,566.693 1837.31,565.541 1836,565 C 1835.38,564.745 1834.62,564.745 1834,565 C 1833.13,565.361 1832.5,566.198 1832,567 C 1831.86,567.224 1831.07,569.747 1831,570 C 1830.62,571.32 1829.85,572.634 1830,574 C 1830.08,574.741 1830.67,575.333 1831,576 C 1830.08,574.741 1830.67,575.333 1831,576 C 1831.33,576.667 1831.44,577.512 1832,578 C 1832.8,578.691 1833.95,579.075 1835,579 C 1832.8,578.691 1833.95,579.075 1835,579 C 1835.74,578.947 1836.51,578.563 1837,578 C 1837.69,577.204 1837.6,575.974 1838,575 C 1838.29,574.311 1838.83,573.725 1839,573 C 1838.29,574.311 1838.83,573.725 1839,573 C 1839.23,572.027 1839.16,570.987 1839,570 C 1839.23,572.027 1839.16,570.987 1839,570 C 1838.83,568.96 1838.69,567.796 1838,567 C 1838.83,568.96 1838.69,567.796 1838,567 C 1837.51,566.437 1836.74,565.933 1836,566 C 1835.17,566.075 1832.57,568.395 1832,569 C 1831.17,569.873 1830.53,570.92 1830,572 C 1829.54,572.947 1829.33,574 1829,575 C 1829.54,572.947 1829.33,574 1829,575 C 1828.67,576 1827.76,576.974 1828,578 C 1828.22,578.918 1829.13,579.639 1830,580 C 1828.22,578.918 1829.13,579.639 1830,580 C 1830.62,580.255 1831.36,580.193 1832,580 C 1833.15,579.652 1834.2,578.901 1835,578 C 1835.49,577.441 1835.83,576.725 1836,576 C 1836.15,575.351 1836,574.667 1836,574 C 1836,573.333 1836,572.667 1836,572 C 1836,571.333 1836.15,570.649 1836,570 C 1836,571.333 1836.15,570.649 1836,570 C 1835.83,569.275 1835.53,568.527 1835,568 C 1835.83,569.275 1835.53,568.527 1835,568 C 1834.47,567.473 1833.71,566.764 1833,567 C 1832.82,567.059 1832.07,568.828 1832,569 C 1831.6,569.974 1831.4,571.026 1831,572 C 1830.71,572.689 1830.17,573.275 1830,574 C 1829.85,574.649 1829.85,575.351 1830,576 C 1829.85,574.649 1829.85,575.351 1830,576 C 1830.17,576.725 1830.44,577.512 1831,578 C 1830.17,576.725 1830.44,577.512 1831,578 C 1831.8,578.691 1832.95,579.075 1834,579 C 1834.74,578.947 1835.51,578.563 1836,578 C 1836.69,577.204 1836.6,575.974 1837,575 C 1837.29,574.311 1837.83,573.725 1838,573 C 1838.15,572.351 1838,571.667 1838,571 C 1838,570.333 1838,569.667 1838,569 C 1838,570.333 1838,569.667 1838,569 C 1838,568.333 1838.35,567.567 1838,567 C 1838,568.333 1838.35,567.567 1838,567 C 1837.61,566.366 1836.74,565.954 1836,566 C 1834.8,566.075 1833.8,567.099 1833,568 C 1832.75,568.279 1832.13,569.65 1832,570 C 1832.75,568.279 1832.13,569.65 1832,570 C 1831.52,571.289 1831.17,572.636 1831,574 C 1831.52,571.289 1831.17,572.636 1831,574 C 1830.88,574.992 1830.08,576.617 1831,577 C 1834.05,578.263 1836.74,573.049 1838,570 C 1834.05,578.263 1836.74,573.049 1838,570 C 1838.26,569.384 1838.15,568.649 1838,568 C 1838.26,569.384 1838.15,568.649 1838,568 C 1838.26,569.384 1838.15,568.649 1838,568 C 1837.83,567.275 1837.53,566.527 1837,566 C 1836.47,565.473 1835.71,564.764 1835,565 C 1836.47,565.473 1835.71,564.764 1835,565 C 1834.29,565.236 1834.37,566.355 1834,567 C 1833.4,568.039 1832.53,568.92 1832,570 C 1833.4,568.039 1832.53,568.92 1832,570 C 1831.54,570.947 1831.4,572.026 1831,573 C 1830.71,573.689 1829.88,574.264 1830,575 C 1830.71,573.689 1829.88,574.264 1830,575 C 1830.08,575.465 1831.62,576.724 1832,577 C 1830.08,575.465 1831.62,576.724 1832,577 C 1832.6,577.436 1833.26,578.119 1834,578 C 1832.6,577.436 1833.26,578.119 1834,578 C 1834.23,577.962 1835.85,576.182 1836,576 C 1836.76,575.071 1837.65,574.15 1838,573 C 1838.19,572.362 1838,571.667 1838,571 C 1838,570.333 1838,569.667 1838,569 C 1838,570.333 1838,569.667 1838,569 C 1838,568.333 1838.15,567.649 1838,567 C 1837.83,566.275 1837.63,565.392 1837,565 C 1837.83,566.275 1837.63,565.392 1837,565 C 1836.43,564.65 1835.62,564.745 1835,565 C 1834.13,565.361 1833.67,566.333 1833,567 C 1832.33,567.667 1831.36,568.129 1831,569 C 1830.62,569.924 1831.16,571.013 1831,572 C 1830.83,573.04 1830.17,573.96 1830,575 C 1829.89,575.658 1829.85,576.351 1830,577 C 1830.17,577.725 1830.37,578.608 1831,579 C 1831.57,579.35 1832.33,579 1833,579 C 1831.57,579.35 1832.33,579 1833,579 C 1833.67,579 1834.41,579.315 1835,579 C 1836.06,578.433 1836.33,577 1837,576 C 1837.67,575 1838.65,574.15 1839,573 C 1839.29,572.043 1839,571 1839,570 C 1839,569.333 1839,568.667 1839,568 C 1839,569.333 1839,568.667 1839,568 C 1839,567.333 1839.26,566.616 1839,566 C 1839,567.333 1839.26,566.616 1839,566 C 1839,567.333 1839.26,566.616 1839,566 C 1838.64,565.129 1837.94,564 1837,564 C 1836.29,564 1834.41,566.426 1834,567 C 1833.78,567.302 1833.14,568.656 1833,569 C 1833.78,567.302 1833.14,568.656 1833,569 C 1832.6,569.974 1831.93,570.949 1832,572 C 1832.6,569.974 1831.93,570.949 1832,572 C 1832.03,572.372 1832.78,573.698 1833,574 C 1832.03,572.372 1832.78,573.698 1833,574 C 1833.55,574.765 1834.06,576 1835,576 C 1833.55,574.765 1834.06,576 1835,576 C 1835.47,576 1836.75,574.401 1837,574 C 1837.55,573.103 1837.83,572.04 1838,571 C 1838.11,570.342 1838,569.667 1838,569 C 1838.11,570.342 1838,569.667 1838,569 C 1838,568.333 1838.26,567.616 1838,567 C 1838,568.333 1838.26,567.616 1838,567 C 1837.64,566.129 1836.87,565.361 1836,565 C 1837.64,566.129 1836.87,565.361 1836,565 C 1835.38,564.745 1834.59,564.685 1834,565 C 1833.47,565.284 1832.24,567.45 1832,568 C 1831.44,569.257 1831.17,570.636 1831,572 C 1831.44,569.257 1831.17,570.636 1831,572 C 1830.92,572.662 1830.81,573.362 1831,574 C 1830.92,572.662 1830.81,573.362 1831,574 C 1831.35,575.15 1831.94,576.433 1833,577 C 1831.35,575.15 1831.94,576.433 1833,577 C 1833.59,577.315 1834.4,577.298 1835,577 C 1833.59,577.315 1834.4,577.298 1835,577 C 1836.49,576.255 1837.47,574.581 1838,573 C 1838.42,571.735 1838,570.333 1838,569 C 1838.42,571.735 1838,570.333 1838,569 C 1838,568.333 1838.15,567.649 1838,567 C 1838,568.333 1838.15,567.649 1838,567 C 1838,568.333 1838.15,567.649 1838,567 C 1837.83,566.275 1837.74,565.119 1837,565 C 1836.77,564.962 1835.15,566.818 1835,567 C 1834.24,567.929 1833.6,568.961 1833,570 C 1832.63,570.645 1832.17,571.275 1832,572 C 1831.77,572.973 1832,574 1832,575 C 1831.77,572.973 1832,574 1832,575 C 1832,575.667 1831.65,576.433 1832,577 C 1832.2,577.317 1833.64,577.914 1834,578 C 1834.65,578.153 1835.38,578.255 1836,578 C 1836.44,577.82 1837.72,576.382 1838,576 C 1838.44,575.395 1838.67,574.667 1839,574 C 1839.33,573.333 1839.83,572.725 1840,572 C 1840.15,571.351 1840,570.667 1840,570 C 1840.15,571.351 1840,570.667 1840,570 C 1840,569 1840.16,567.987 1840,567 C 1840,569 1840.16,567.987 1840,567 C 1839.83,565.96 1839.86,564.616 1839,564 C 1839.83,565.96 1839.86,564.616 1839,564 C 1838.46,563.61 1837.59,563.685 1837,564 C 1835.94,564.567 1835.67,566 1835,567 C 1834.33,568 1833.35,568.85 1833,570 C 1832.81,570.638 1832.89,571.342 1833,572 C 1832.81,570.638 1832.89,571.342 1833,572 C 1833.17,573.04 1833.31,574.204 1834,575 C 1834.49,575.563 1835.27,575.829 1836,576 C 1834.49,575.563 1835.27,575.829 1836,576 C 1836.65,576.153 1837.36,576.193 1838,576 C 1839.15,575.652 1840.2,574.901 1841,574 C 1841.49,573.441 1841.83,572.725 1842,572 C 1842.15,571.351 1842,570.667 1842,570 C 1842,569.333 1842,568.667 1842,568 C 1842,567.333 1842,566.667 1842,566 C 1842,567.333 1842,566.667 1842,566 C 1842,565.333 1842.35,564.567 1842,564 C 1841.8,563.683 1840.36,563.086 1840,563 C 1841.8,563.683 1840.36,563.086 1840,563 C 1839.35,562.847 1838.59,562.685 1838,563 C 1837.74,563.142 1836.15,565.74 1836,566 C 1835.25,567.289 1834.34,568.549 1834,570 C 1833.85,570.649 1834,571.333 1834,572 C 1833.85,570.649 1834,571.333 1834,572 C 1834,573 1833.47,574.149 1834,575 C 1834,573 1833.47,574.149 1834,575 C 1834.39,575.634 1837.27,576.829 1838,577 C 1838.97,577.23 1840.08,577.383 1841,577 C 1841.87,576.639 1842.33,575.667 1843,575 C 1843.67,574.333 1844.64,573.871 1845,573 C 1845.26,572.384 1844.85,571.649 1845,571 C 1845.17,570.275 1845.83,569.725 1846,569 C 1846.15,568.351 1846,567.667 1846,567 C 1846,566 1846.38,564.924 1846,564 C 1846,566 1846.38,564.924 1846,564 C 1845.64,563.129 1844.87,562.361 1844,562 C 1845.64,563.129 1844.87,562.361 1844,562 C 1843.38,561.745 1842.62,561.745 1842,562 C 1840.69,562.541 1839.7,563.769 1839,565 C 1838.66,565.598 1838.08,568.318 1838,569 C 1837.88,569.992 1838,571 1838,572 C 1837.88,569.992 1838,571 1838,572 C 1838,573 1837.53,574.118 1838,575 C 1838,573 1837.53,574.118 1838,575 C 1838.57,576.06 1839.8,576.925 1841,577 C 1841.37,577.023 1842.7,576.218 1843,576 C 1843.76,575.449 1844.45,574.765 1845,574 C 1845.44,573.395 1845.83,572.725 1846,572 C 1846.15,571.351 1846,570.667 1846,570 C 1846,569.333 1846,568.667 1846,568 C 1846,569.333 1846,568.667 1846,568 C 1846,567 1846.38,565.924 1846,565 C 1846,567 1846.38,565.924 1846,565 C 1845.64,564.129 1844.93,563.151 1844,563 C 1843.26,562.881 1842.53,563.473 1842,564 C 1841.47,564.527 1841.33,565.333 1841,566 C 1840.33,567.333 1839.34,568.549 1839,570 C 1838.85,570.649 1839,571.333 1839,572 C 1839,572.667 1838.85,573.351 1839,574 C 1839,572.667 1838.85,573.351 1839,574 C 1839.17,574.725 1839.37,575.608 1840,576 C 1840.85,576.526 1842.08,576.383 1843,576 C 1840.85,576.526 1842.08,576.383 1843,576 C 1843.44,575.82 1844.7,574.365 1845,574 C 1845.76,573.071 1846.65,572.15 1847,571 C 1847.19,570.362 1847,569.667 1847,569 C 1847,568 1847,567 1847,566 C 1847,568 1847,567 1847,566 C 1847,565.333 1847.35,564.567 1847,564 C 1847,565.333 1847.35,564.567 1847,564 C 1846.61,563.366 1845.74,563.053 1845,563 C 1843.95,562.925 1842.84,563.36 1842,564 C 1841.76,564.182 1840.15,566.74 1840,567 C 1839.63,567.645 1839.17,568.275 1839,569 C 1839.63,567.645 1839.17,568.275 1839,569 C 1838.77,569.973 1838.77,571.027 1839,572 C 1838.77,569.973 1838.77,571.027 1839,572 C 1839.17,572.725 1839.31,573.715 1840,574 C 1840.24,574.101 1842.76,573.101 1843,573 C 1843.69,572.715 1844.47,572.527 1845,572 C 1843.69,572.715 1844.47,572.527 1845,572 C 1845.53,571.473 1845.67,570.667 1846,570 C 1846.33,569.333 1846.83,568.725 1847,568 C 1846.33,569.333 1846.83,568.725 1847,568 C 1847.15,567.351 1847.15,566.649 1847,566 C 1847.15,567.351 1847.15,566.649 1847,566 C 1846.83,565.275 1846.63,564.392 1846,564 C 1846.83,565.275 1846.63,564.392 1846,564 C 1845.15,563.474 1843.88,563.528 1843,564 C 1842.74,564.142 1841.15,566.74 1841,567 C 1842.74,564.142 1841.15,566.74 1841,567 C 1840.63,567.645 1840.17,568.275 1840,569 C 1840.63,567.645 1840.17,568.275 1840,569 C 1840.63,567.645 1840.17,568.275 1840,569 C 1839.85,569.649 1839.53,570.529 1840,571 C 1839.85,569.649 1839.53,570.529 1840,571 C 1840.35,571.354 1842.52,571.145 1843,571 C 1840.35,571.354 1842.52,571.145 1843,571 C 1844.15,570.652 1845.27,569.955 1846,569 C 1844.15,570.652 1845.27,569.955 1846,569 C 1846.64,568.162 1846.83,567.04 1847,566 C 1847.11,565.342 1847,564.667 1847,564 C 1847.11,565.342 1847,564.667 1847,564 C 1847.11,565.342 1847,564.667 1847,564 C 1847,563.333 1847.57,562.35 1847,562 C 1846.37,561.608 1845.67,562.667 1845,563 C 1844.33,563.333 1843.56,563.507 1843,564 C 1842.55,564.398 1841.3,566.48 1841,567 C 1842.55,564.398 1841.3,566.48 1841,567 C 1840.63,567.645 1840.17,568.275 1840,569 C 1840.63,567.645 1840.17,568.275 1840,569 C 1840.63,567.645 1840.17,568.275 1840,569 C 1839.85,569.649 1839.65,570.433 1840,571 C 1840.39,571.634 1841.26,572.119 1842,572 C 1840.39,571.634 1841.26,572.119 1842,572 C 1842.23,571.962 1843.85,570.182 1844,570 C 1844.76,569.071 1845.4,568.039 1846,567 C 1844.76,569.071 1845.4,568.039 1846,567 C 1846.37,566.355 1846.83,565.725 1847,565 C 1846.37,566.355 1846.83,565.725 1847,565 C 1846.37,566.355 1846.83,565.725 1847,565 C 1847.23,564.027 1847.53,562.851 1847,562 C 1846.61,561.366 1845.75,561 1845,561 C 1844.91,561 1843.08,561.955 1843,562 C 1841.3,562.935 1839.53,563.804 1838,565 C 1836.89,565.87 1836,567 1835,568 C 1836.89,565.87 1836,567 1835,568 C 1834,569 1832.54,569.693 1832,571 C 1834,569 1832.54,569.693 1832,571 C 1831.62,571.924 1831.42,573.189 1832,574 C 1832.62,574.855 1833.95,575.075 1835,575 C 1835.74,574.947 1836.33,574.333 1837,574 C 1838.33,573.333 1839.79,572.872 1841,572 C 1841.76,571.449 1842.4,570.729 1843,570 C 1843.76,569.071 1844.4,568.039 1845,567 C 1845.37,566.355 1845.83,565.725 1846,565 C 1846.15,564.351 1846,563.667 1846,563 C 1846.15,564.351 1846,563.667 1846,563 C 1846.15,564.351 1846,563.667 1846,563 C 1846,562 1846.58,560.811 1846,560 C 1845.38,559.145 1844.05,558.925 1843,559 C 1842.63,559.026 1841.3,559.782 1841,560 C 1839.09,561.378 1837.38,563.088 1836,565 C 1835.56,565.605 1835.39,566.366 1835,567 C 1834.12,568.418 1832.53,569.419 1832,571 C 1831.68,571.949 1832,573 1832,574 C 1831.68,571.949 1832,573 1832,574 C 1832,574.667 1831.65,575.433 1832,576 C 1832.2,576.317 1833.64,576.914 1834,577 C 1834.65,577.153 1835.35,577.153 1836,577 C 1837.45,576.658 1838.95,576.054 1840,575 C 1840.53,574.473 1840.56,573.605 1841,573 C 1841.55,572.235 1842.5,571.802 1843,571 C 1843.55,570.103 1843.83,569.04 1844,568 C 1843.55,570.103 1843.83,569.04 1844,568 C 1844.11,567.342 1844,566.667 1844,566 C 1844.11,567.342 1844,566.667 1844,566 C 1844,565 1844.53,563.851 1844,563 C 1843.8,562.683 1842.36,562.086 1842,562 C 1841.35,561.847 1840.64,561.807 1840,562 C 1839.42,562.174 1837.46,563.619 1837,564 C 1835.91,564.897 1834.9,565.906 1834,567 C 1833.24,567.929 1832.53,568.92 1832,570 C 1831.54,570.947 1831.17,571.96 1831,573 C 1831.54,570.947 1831.17,571.96 1831,573 C 1830.84,573.987 1830.53,575.118 1831,576 C 1831.57,577.06 1832.85,577.652 1834,578 C 1834.64,578.193 1835.34,578.107 1836,578 C 1837.04,577.831 1838.1,577.554 1839,577 C 1840.2,576.257 1840.85,574.827 1842,574 C 1842.6,573.564 1843.44,573.493 1844,573 C 1844.45,572.602 1845.7,570.52 1846,570 C 1846.37,569.355 1846.83,568.725 1847,568 C 1847.31,566.702 1847,565.333 1847,564 C 1847,563.333 1847.15,562.649 1847,562 C 1847,563.333 1847.15,562.649 1847,562 C 1846.83,561.275 1846.63,560.392 1846,560 C 1845.43,559.65 1844.62,559.745 1844,560 C 1843.56,560.18 1842.28,561.618 1842,562 C 1841.13,563.209 1840.75,564.711 1840,566 C 1839.4,567.039 1838.6,567.961 1838,569 C 1837.63,569.645 1837.17,570.275 1837,571 C 1837.63,569.645 1837.17,570.275 1837,571 C 1837.63,569.645 1837.17,570.275 1837,571 C 1836.85,571.649 1836.65,572.433 1837,573 C 1836.85,571.649 1836.65,572.433 1837,573 C 1836.85,571.649 1836.65,572.433 1837,573 C 1837.39,573.634 1838.26,574.119 1839,574 C 1839.93,573.849 1840.64,572.871 1841,572 C 1839.93,573.849 1840.64,572.871 1841,572 Z"
       colors="0.692157,0.135294,0.447059,1 0.790196,0.164706,0.430719,1 0.692157,0.135294,0.447059,1 0.790196,0.164706,0.430719,1 0.790196,0.164706,0.430719,1 0.790196,0.164706,0.430719,1 0.790196,0.164706,0.430719,1 0.692157,0.135294,0.447059,1 0.692157,0.135294,0.447059,1 0.692157,0.135294,0.447059,1 0.790196,0.164706,0.430719,1 0.790196,0.164706,0.430719,1 0.750771,0.173795,0.481538,1 0.750771,0.173795,0.481538,1 0.766246,0.183961,0.490641,1 0.692157,0.135294,0.447059,1 0.692157,0.135294,0.447059,1 0.692157,0.135294,0.447059,1 0.692157,0.135294,0.447059,1 0.790196,0.164706,0.430719,1 0.790196,0.164706,0.430719,1 0.790196,0.164706,0.430719,1 0.790196,0.164706,0.430719,1 0.790196,0.164706,0.430719,1 0.790196,0.164706,0.430719,1 0.790196,0.164706,0.430719,1 0.790196,0.164706,0.430719,1 0.790196,0.164706,0.430719,1 0.790196,0.164706,0.430719,1 0.790196,0.164706,0.430719,1 0.790196,0.164706,0.430719,1 0.790196,0.164706,0.430719,1 0.790196,0.164706,0.430719,1 0.790196,0.164706,0.430719,1 0.790196,0.164706,0.430719,1 0.790196,0.164706,0.430719,1 0.790196,0.164706,0.430719,1 0.790196,0.164706,0.430719,1 0.790196,0.164706,0.430719,1 0.790196,0.164706,0.430719,1 0.790196,0.164706,0.430719,1 0.790196,0.164706,0.430719,1 0.790196,0.164706,0.430719,1 0.790196,0.164706,0.430719,1 0.790196,0.164706,0.430719,1 0.790196,0.164706,0.430719,1 0.790196,0.164706,0.430719,1 0.790196,0.164706,0.430719,1 0.790196,0.164706,0.430719,1 0.790196,0.164706,0.430719,1 0.790196,0.164706,0.430719,1 0.790196,0.164706,0.430719,1 0.790196,0.164706,0.430719,1 0.790196,0.164706,0.430719,1 0.790196,0.164706,0.430719,1 0.790196,0.164706,0.430719,1 0.790196,0.164706,0.430719,1 0.790196,0.164706,0.430719,1 0.790196,0.164706,0.430719,1 0.790196,0.164706,0.430719,1 0.790196,0.164706,0.430719,1 0.790196,0.164706,0.430719,1 0.790196,0.164706,0.430719,1 0.790196,0.164706,0.430719,1 0.790196,0.164706,0.430719,1 0.790196,0.164706,0.430719,1 0.692157,0.135294,0.447059,1 0.790196,0.164706,0.430719,1 0.790196,0.164706,0.430719,1 0.692157,0.135294,0.447059,1 0.692157,0.135294,0.447059,1 0.790196,0.164706,0.430719,1 0.692157,0.135294,0.447059,1 0.692157,0.135294,0.447059,1 0.790196,0.164706,0.430719,1 0.790196,0.164706,0.430719,1 0.790196,0.164706,0.430719,1 0.790196,0.164706,0.430719,1 0.790196,0.164706,0.430719,1 0.692157,0.135294,0.447059,1 0.692157,0.135294,0.447059,1 0.790196,0.164706,0.430719,1 0.692157,0.135294,0.447059,1 0.692157,0.135294,0.447059,1 0.790196,0.164706,0.430719,1 0.790196,0.164706,0.430719,1 0.790196,0.164706,0.430719,1 0.790196,0.164706,0.430719,1 0.790196,0.164706,0.430719,1 0.790196,0.164706,0.430719,1 0.790196,0.164706,0.430719,1 0.692157,0.135294,0.447059,1 0.790196,0.164706,0.430719,1 0.790196,0.164706,0.430719,1 0.790196,0.164706,0.430719,1 0.790196,0.164706,0.430719,1 0.790196,0.164706,0.430719,1 0.790196,0.164706,0.430719,1 0.790196,0.164706,0.430719,1 0.790196,0.164706,0.430719,1 0.790196,0.164706,0.430719,1 0.790196,0.164706,0.430719,1 0.790196,0.164706,0.430719,1 0.790196,0.164706,0.430719,1 0.692157,0.135294,0.447059,1 0.692157,0.135294,0.447059,1 0.790196,0.164706,0.430719,1 0.790196,0.164706,0.430719,1 0.790196,0.164706,0.430719,1 0.790196,0.164706,0.430719,1 0.790196,0.164706,0.430719,1 0.790196,0.164706,0.430719,1 0.790196,0.164706,0.430719,1 0.790196,0.164706,0.430719,1 0.692157,0.135294,0.447059,1 0.692157,0.135294,0.447059,1 0.692157,0.135294,0.447059,1 0.692157,0.135294,0.447059,1 0.692157,0.135294,0.447059,1 0.692157,0.135294,0.447059,1 0.790196,0.164706,0.430719,1 0.790196,0.164706,0.430719,1 0.790196,0.164706,0.430719,1 0.692157,0.135294,0.447059,1 0.692157,0.135294,0.447059,1 0.790196,0.164706,0.430719,1 0.790196,0.164706,0.430719,1 0.790196,0.164706,0.430719,1 0.692157,0.135294,0.447059,1 0.692157,0.135294,0.447059,1 0.790196,0.164706,0.430719,1 0.790196,0.164706,0.430719,1 0.790196,0.164706,0.430719,1 0.692157,0.135294,0.447059,1 0.692157,0.135294,0.447059,1 0.692157,0.135294,0.447059,1 0.790196,0.164706,0.430719,1 0.790196,0.164706,0.430719,1 0.692157,0.135294,0.447059,1 0.790196,0.164706,0.430719,1 0.790196,0.164706,0.430719,1 0.790196,0.164706,0.430719,1 0.790196,0.164706,0.430719,1 0.790196,0.164706,0.430719,1 0.790196,0.164706,0.430719,1 0.790196,0.164706,0.430719,1 0.790196,0.164706,0.430719,1 0.790196,0.164706,0.430719,1 0.790196,0.164706,0.430719,1 0.790196,0.164706,0.430719,1 0.790196,0.164706,0.430719,1 0.790196,0.164706,0.430719,1 0.790196,0.164706,0.430719,1 0.790196,0.164706,0.430719,1 0.692157,0.135294,0.447059,1 0.692157,0.135294,0.447059,1 0.790196,0.164706,0.430719,1 0.790196,0.164706,0.430719,1 0.790196,0.164706,0.430719,1 0.790196,0.164706,0.430719,1 0.790196,0.164706,0.430719,1 0.790196,0.164706,0.430719,1 0.692157,0.135294,0.447059,1 0.692157,0.135294,0.447059,1 0.790196,0.164706,0.430719,1 0.692157,0.135294,0.447059,1 0.692157,0.135294,0.447059,1 0.790196,0.164706,0.430719,1 0.790196,0.164706,0.430719,1 0.692157,0.135294,0.447059,1 0.790196,0.164706,0.430719,1 0.790196,0.164706,0.430719,1 0.692157,0.135294,0.447059,1 0.692157,0.135294,0.447059,1 0.692157,0.135294,0.447059,1 0.692157,0.135294,0.447059,1 0.692157,0.135294,0.447059,1 0.692157,0.135294,0.447059,1 0.692157,0.135294,0.447059,1 0.692157,0.135294,0.447059,1 0.692157,0.135294,0.447059,1 0.692157,0.135294,0.447059,1 0.692157,0.135294,0.447059,1 0.692157,0.135294,0.447059,1 0.790196,0.164706,0.430719,1 0.790196,0.164706,0.430719,1 0.790196,0.164706,0.430719,1 0.692157,0.135294,0.447059,1 0.692157,0.135294,0.447059,1 0.692157,0.135294,0.447059,1 0.692157,0.135294,0.447059,1 0.692157,0.135294,0.447059,1 0.790196,0.164706,0.430719,1 0.790196,0.164706,0.430719,1 0.692157,0.135294,0.447059,1 0.790196,0.164706,0.430719,1 0.790196,0.164706,0.430719,1 0.692157,0.135294,0.447059,1 0.790196,0.164706,0.430719,1 0.790196,0.164706,0.430719,1 0.790196,0.164706,0.430719,1 0.790196,0.164706,0.430719,1 0.692157,0.135294,0.447059,1 0.692157,0.135294,0.447059,1 0.692157,0.135294,0.447059,1 0.692157,0.135294,0.447059,1 0.692157,0.135294,0.447059,1 0.692157,0.135294,0.447059,1 0.790196,0.164706,0.430719,1 0.790196,0.164706,0.430719,1 0.790196,0.164706,0.430719,1 0.790196,0.164706,0.430719,1 0.790196,0.164706,0.430719,1 0.790196,0.164706,0.430719,1 0.790196,0.164706,0.430719,1 0.692157,0.135294,0.447059,1 0.692157,0.135294,0.447059,1 0.692157,0.135294,0.447059,1 0.692157,0.135294,0.447059,1 0.692157,0.135294,0.447059,1 0.692157,0.135294,0.447059,1 0.790196,0.164706,0.430719,1 0.790196,0.164706,0.430719,1 0.692157,0.135294,0.447059,1 0.692157,0.135294,0.447059,1 0.790196,0.164706,0.430719,1 0.790196,0.164706,0.430719,1 0.790196,0.164706,0.430719,1 0.692157,0.135294,0.447059,1 0.692157,0.135294,0.447059,1 0.790196,0.164706,0.430719,1 0.790196,0.164706,0.430719,1 0.790196,0.164706,0.430719,1 0.692157,0.135294,0.447059,1 0.692157,0.135294,0.447059,1 0.692157,0.135294,0.447059,1 0.790196,0.164706,0.430719,1 0.790196,0.164706,0.430719,1 0.692157,0.135294,0.447059,1 0.692157,0.135294,0.447059,1 0.692157,0.135294,0.447059,1 0.790196,0.164706,0.430719,1 0.790196,0.164706,0.430719,1 0.790196,0.164706,0.430719,1 0.790196,0.164706,0.430719,1 0.790196,0.164706,0.430719,1 0.790196,0.164706,0.430719,1 0.790196,0.164706,0.430719,1 0.790196,0.164706,0.430719,1 0.790196,0.164706,0.430719,1 0.790196,0.164706,0.430719,1 0.790196,0.164706,0.430719,1 0.790196,0.164706,0.430719,1 0.692157,0.135294,0.447059,1 0.790196,0.164706,0.430719,1 0.790196,0.164706,0.430719,1 0.692157,0.135294,0.447059,1 0.790196,0.164706,0.430719,1 0.790196,0.164706,0.430719,1 0.790196,0.164706,0.430719,1 0.790196,0.164706,0.430719,1 0.790196,0.164706,0.430719,1 0.790196,0.164706,0.430719,1 0.692157,0.135294,0.447059,1 0.692157,0.135294,0.447059,1 0.692157,0.135294,0.447059,1 0.692157,0.135294,0.447059,1 0.692157,0.135294,0.447059,1 0.790196,0.164706,0.430719,1 0.790196,0.164706,0.430719,1 0.790196,0.164706,0.430719,1 0.692157,0.135294,0.447059,1 0.692157,0.135294,0.447059,1 0.692157,0.135294,0.447059,1 0.692157,0.135294,0.447059,1 0.692157,0.135294,0.447059,1 0.692157,0.135294,0.447059,1 0.692157,0.135294,0.447059,1 0.692157,0.135294,0.447059,1 0.790196,0.164706,0.430719,1 0.790196,0.164706,0.430719,1 0.692157,0.135294,0.447059,1 0.692157,0.135294,0.447059,1 0.790196,0.164706,0.430719,1 0.790196,0.164706,0.430719,1 0.790196,0.164706,0.430719,1 0.790196,0.164706,0.430719,1 0.692157,0.135294,0.447059,1 0.692157,0.135294,0.447059,1 0.790196,0.164706,0.430719,1 0.790196,0.164706,0.430719,1 0.790196,0.164706,0.430719,1 0.790196,0.164706,0.430719,1 0.790196,0.164706,0.430719,1 0.790196,0.164706,0.430719,1 0.790196,0.164706,0.430719,1 0.790196,0.164706,0.430719,1 0.790196,0.164706,0.430719,1 0.790196,0.164706,0.430719,1 0.790196,0.164706,0.430719,1 0.790196,0.164706,0.430719,1 0.790196,0.164706,0.430719,1 0.790196,0.164706,0.430719,1 0.790196,0.164706,0.430719,1 0.790196,0.164706,0.430719,1 0.790196,0.164706,0.430719,1 0.790196,0.164706,0.430719,1 0.790196,0.164706,0.430719,1 0.790196,0.164706,0.430719,1 0.790196,0.164706,0.430719,1 0.790196,0.164706,0.430719,1 0.790196,0.164706,0.430719,1 0.790196,0.164706,0.430719,1 0.790196,0.164706,0.430719,1 0.790196,0.164706,0.430719,1 0.790196,0.164706,0.430719,1 0.790196,0.164706,0.430719,1 0.790196,0.164706,0.430719,1 0.790196,0.164706,0.430719,1 0.790196,0.164706,0.430719,1 0.790196,0.164706,0.430719,1 0.790196,0.164706,0.430719,1 0.790196,0.164706,0.430719,1 0.790196,0.164706,0.430719,1 0.790196,0.164706,0.430719,1 0.790196,0.164706,0.430719,1 0.790196,0.164706,0.430719,1 0.790196,0.164706,0.430719,1 0.790196,0.164706,0.430719,1 0.790196,0.164706,0.430719,1 0.790196,0.164706,0.430719,1 0.790196,0.164706,0.430719,1 0.790196,0.164706,0.430719,1 0.790196,0.164706,0.430719,1 0.790196,0.164706,0.430719,1 0.790196,0.164706,0.430719,1 0.790196,0.164706,0.430719,1 0.790196,0.164706,0.430719,1 0.790196,0.164706,0.430719,1 0.790196,0.164706,0.430719,1 0.790196,0.164706,0.430719,1 0.790196,0.164706,0.430719,1 0.790196,0.164706,0.430719,1 0.790196,0.164706,0.430719,1 0.790196,0.164706,0.430719,1 0.790196,0.164706,0.430719,1 0.790196,0.164706,0.430719,1 0.790196,0.164706,0.430719,1 0.790196,0.164706,0.430719,1 0.790196,0.164706,0.430719,1 0.790196,0.164706,0.430719,1 0.790196,0.164706,0.430719,1 0.790196,0.164706,0.430719,1 0.790196,0.164706,0.430719,1 0.790196,0.164706,0.430719,1 0.790196,0.164706,0.430719,1 0.790196,0.164706,0.430719,1 0.790196,0.164706,0.430719,1 0.790196,0.164706,0.430719,1 0.790196,0.164706,0.430719,1 0.790196,0.164706,0.430719,1 0.790196,0.164706,0.430719,1 0.790196,0.164706,0.430719,1 0.790196,0.164706,0.430719,1 0.790196,0.164706,0.430719,1 0.790196,0.164706,0.430719,1 0.790196,0.164706,0.430719,1 0.790196,0.164706,0.430719,1 0.790196,0.164706,0.430719,1 0.790196,0.164706,0.430719,1 0.790196,0.164706,0.430719,1 0.790196,0.164706,0.430719,1 0.790196,0.164706,0.430719,1 0.790196,0.164706,0.430719,1 0.790196,0.164706,0.430719,1 0.790196,0.164706,0.430719,1 0.790196,0.164706,0.430719,1 0.790196,0.164706,0.430719,1 0.790196,0.164706,0.430719,1 0.790196,0.164706,0.430719,1 0.790196,0.164706,0.430719,1 0.790196,0.164706,0.430719,1 0.790196,0.164706,0.430719,1 0.790196,0.164706,0.430719,1 0.790196,0.164706,0.430719,1 0.790196,0.164706,0.430719,1 0.790196,0.164706,0.430719,1 0.790196,0.164706,0.430719,1 0.790196,0.164706,0.430719,1 0.790196,0.164706,0.430719,1 0.790196,0.164706,0.430719,1 0.790196,0.164706,0.430719,1 0.790196,0.164706,0.430719,1 0.790196,0.164706,0.430719,1 0.790196,0.164706,0.430719,1 0.790196,0.164706,0.430719,1 0.790196,0.164706,0.430719,1 0.790196,0.164706,0.430719,1 0.790196,0.164706,0.430719,1 0.790196,0.164706,0.430719,1 0.790196,0.164706,0.430719,1 0.790196,0.164706,0.430719,1 0.790196,0.164706,0.430719,1 0.790196,0.164706,0.430719,1 0.790196,0.164706,0.430719,1 0.790196,0.164706,0.430719,1 0.790196,0.164706,0.430719,1 0.692157,0.135294,0.447059,1 0.790196,0.164706,0.430719,1 0.790196,0.164706,0.430719,1 0.692157,0.135294,0.447059,1 0.692157,0.135294,0.447059,1 0.790196,0.164706,0.430719,1 0.790196,0.164706,0.430719,1 0.790196,0.164706,0.430719,1 0.790196,0.164706,0.430719,1 0.790196,0.164706,0.430719,1 0.790196,0.164706,0.430719,1 0.790196,0.164706,0.430719,1 0.790196,0.164706,0.430719,1 0.790196,0.164706,0.430719,1 0.790196,0.164706,0.430719,1 0.790196,0.164706,0.430719,1 0.692157,0.135294,0.447059,1 0.692157,0.135294,0.447059,1 0.790196,0.164706,0.430719,1 0.790196,0.164706,0.430719,1 0.790196,0.164706,0.430719,1 0.790196,0.164706,0.430719,1 0.790196,0.164706,0.430719,1 0.790196,0.164706,0.430719,1 0.790196,0.164706,0.430719,1 0.790196,0.164706,0.430719,1 0.692157,0.135294,0.447059,1 0.692157,0.135294,0.447059,1 0.692157,0.135294,0.447059,1 0.790196,0.164706,0.430719,1 0.790196,0.164706,0.430719,1 0.790196,0.164706,0.430719,1 0.790196,0.164706,0.430719,1 0.790196,0.164706,0.430719,1 0.692157,0.135294,0.447059,1 0.692157,0.135294,0.447059,1 0.790196,0.164706,0.430719,1 0.790196,0.164706,0.430719,1 0.790196,0.164706,0.430719,1 0.692157,0.135294,0.447059,1 0.692157,0.135294,0.447059,1 0.761393,0.180773,0.487786,1 0.764493,0.182809,0.48961,1 0.764493,0.182809,0.48961,1 0.692157,0.135294,0.447059,1 0.692157,0.135294,0.447059,1 0.790196,0.164706,0.430719,1 0.790196,0.164706,0.430719,1 0.790196,0.164706,0.430719,1 0.790196,0.164706,0.430719,1 0.692157,0.135294,0.447059,1 0.692157,0.135294,0.447059,1 0.790196,0.164706,0.430719,1 0.790196,0.164706,0.430719,1 0.692157,0.135294,0.447059,1 0.692157,0.135294,0.447059,1 0.692157,0.135294,0.447059,1 0.692157,0.135294,0.447059,1 0.692157,0.135294,0.447059,1 0.692157,0.135294,0.447059,1 0.790196,0.164706,0.430719,1 0.790196,0.164706,0.430719,1 0.790196,0.164706,0.430719,1 0.790196,0.164706,0.430719,1 0.790196,0.164706,0.430719,1 0.692157,0.135294,0.447059,1 0.692157,0.135294,0.447059,1 0.790196,0.164706,0.430719,1 0.790196,0.164706,0.430719,1 0.790196,0.164706,0.430719,1 0.790196,0.164706,0.430719,1 0.790196,0.164706,0.430719,1 0.790196,0.164706,0.430719,1 0.790196,0.164706,0.430719,1 0.790196,0.164706,0.430719,1 0.790196,0.164706,0.430719,1 0.790196,0.164706,0.430719,1 0.790196,0.164706,0.430719,1 0.692157,0.135294,0.447059,1 0.692157,0.135294,0.447059,1 0.692157,0.135294,0.447059,1 0.692157,0.135294,0.447059,1 0.790196,0.164706,0.430719,1 0.692157,0.135294,0.447059,1 0.692157,0.135294,0.447059,1 0.790196,0.164706,0.430719,1 0.790196,0.164706,0.430719,1 0.790196,0.164706,0.430719,1 0.692157,0.135294,0.447059,1 0.692157,0.135294,0.447059,1 0.790196,0.164706,0.430719,1 0.790196,0.164706,0.430719,1 0.790196,0.164706,0.430719,1 0.692157,0.135294,0.447059,1 0.692157,0.135294,0.447059,1 0.692157,0.135294,0.447059,1 0.692157,0.135294,0.447059,1 0.790196,0.164706,0.430719,1 0.790196,0.164706,0.430719,1 0.790196,0.164706,0.430719,1 0.790196,0.164706,0.430719,1 0.790196,0.164706,0.430719,1 0.790196,0.164706,0.430719,1 0.790196,0.164706,0.430719,1 0.790196,0.164706,0.430719,1 0.790196,0.164706,0.430719,1 0.790196,0.164706,0.430719,1 0.790196,0.164706,0.430719,1 0.692157,0.135294,0.447059,1 0.692157,0.135294,0.447059,1 0.790196,0.164706,0.430719,1 0.790196,0.164706,0.430719,1 0.790196,0.164706,0.430719,1 0.790196,0.164706,0.430719,1 0.790196,0.164706,0.430719,1 0.790196,0.164706,0.430719,1 0.692157,0.135294,0.447059,1 0.692157,0.135294,0.447059,1 0.692157,0.135294,0.447059,1 0.790196,0.164706,0.430719,1 0.790196,0.164706,0.430719,1 0.692157,0.135294,0.447059,1 0.692157,0.135294,0.447059,1 0.692157,0.135294,0.447059,1 0.790196,0.164706,0.430719,1 0.790196,0.164706,0.430719,1 0.692157,0.135294,0.447059,1 0.692157,0.135294,0.447059,1 0.692157,0.135294,0.447059,1 0.692157,0.135294,0.447059,1 0.692157,0.135294,0.447059,1 0.692157,0.135294,0.447059,1 0.692157,0.135294,0.447059,1 0.790196,0.164706,0.430719,1 0.790196,0.164706,0.430719,1 0.790196,0.164706,0.430719,1 0.790196,0.164706,0.430719,1 0.790196,0.164706,0.430719,1 0.790196,0.164706,0.430719,1 0.790196,0.164706,0.430719,1 0.790196,0.164706,0.430719,1 0.790196,0.164706,0.430719,1 0.790196,0.164706,0.430719,1 0.790196,0.164706,0.430719,1 0.790196,0.164706,0.430719,1 0.790196,0.164706,0.430719,1 0.692157,0.135294,0.447059,1 0.790196,0.164706,0.430719,1 0.790196,0.164706,0.430719,1 0.692157,0.135294,0.447059,1 0.692157,0.135294,0.447059,1 0.790196,0.164706,0.430719,1 0.790196,0.164706,0.430719,1 0.790196,0.164706,0.430719,1 0.790196,0.164706,0.430719,1 0.790196,0.164706,0.430719,1 0.790196,0.164706,0.430719,1 0.692157,0.135294,0.447059,1 "
       brushes="0,6.62117,6.62117 0,6.54722,6.54722 0,6.44345,6.44345 0,6.23777,6.23777 0,6.06379,6.06379 0,6.06254,6.06254 0,6.17315,6.17315 0,6.32104,6.32104 0,6.41673,6.41673 0,6.48695,6.48695 0,6.51616,6.51616 0,6.51056,6.51056 0,6.49254,6.49254 0,6.49192,6.49192 0,6.53107,6.53107 0,6.54847,6.54847 0,6.5522,6.5522 0,6.46396,6.46396 0,6.40368,6.40368 0,6.19366,6.19366 0,5.94634,5.94634 0,5.82455,5.82455 0,5.86867,5.86867 0,6.00165,6.00165 0,6.29246,6.29246 0,6.47204,6.47204 0,6.60066,6.60066 0,6.71811,6.71811 0,6.73178,6.73178 0,6.7063,6.7063 0,6.69077,6.69077 0,6.69077,6.69077 0,6.68269,6.68269 0,6.69822,6.69822 0,6.70879,6.70879 0,6.69263,6.69263 0,6.59569,6.59569 0,6.46458,6.46458 0,6.43538,6.43538 0,6.40617,6.40617 0,6.42668,6.42668 0,6.48322,6.48322 0,6.57146,6.57146 0,6.63733,6.63733 0,6.68517,6.68517 0,6.74483,6.74483 0,6.77962,6.77962 0,6.77092,6.77092 0,6.71314,6.71314 0,6.68393,6.68393 0,6.69077,6.69077 0,6.68828,6.68828 0,6.69263,6.69263 0,6.68082,6.68082 0,6.62303,6.62303 0,6.49192,6.49192 0,6.49068,6.49068 0,6.52672,6.52672 0,6.60812,6.60812 0,6.68145,6.68145 0,6.76036,6.76036 0,6.80448,6.80448 0,6.81566,6.81566 0,6.81504,6.81504 0,6.74172,6.74172 0,6.66094,6.66094 0,6.57954,6.57954 0,6.58016,6.58016 0,6.57146,6.57146 0,6.56338,6.56338 0,6.57705,6.57705 0,6.52237,6.52237 0,6.45588,6.45588 0,6.35397,6.35397 0,6.33285,6.33285 0,6.32477,6.32477 0,6.3838,6.3838 0,6.4478,6.4478 0,6.59072,6.59072 0,6.65038,6.65038 0,6.72805,6.72805 0,6.74483,6.74483 0,6.7759,6.7759 0,6.68517,6.68517 0,6.66032,6.66032 0,6.6597,6.6597 0,6.63422,6.63422 0,6.65038,6.65038 0,6.62801,6.62801 0,6.4913,6.4913 0,6.40741,6.40741 0,6.29991,6.29991 0,6.29867,6.29867 0,6.36143,6.36143 0,6.44532,6.44532 0,6.51553,6.51553 0,6.63857,6.63857 0,6.68642,6.68642 0,6.72681,6.72681 0,6.78273,6.78273 0,6.71873,6.71873 0,6.69449,6.69449 0,6.73488,6.73488 0,6.70754,6.70754 0,6.73923,6.73923 0,6.72805,6.72805 0,6.65224,6.65224 0,6.50808,6.50808 0,6.43848,6.43848 0,6.42916,6.42916 0,6.4739,6.4739 0,6.57767,6.57767 0,6.68393,6.68393 0,6.74793,6.74793 0,6.79578,6.79578 0,6.83493,6.83493 0,6.86538,6.86538 0,6.83928,6.83928 0,6.77217,6.77217 0,6.7877,6.7877 0,6.75104,6.75104 0,6.73737,6.73737 0,6.6684,6.6684 0,6.5522,6.5522 0,6.46023,6.46023 0,6.40928,6.40928 0,6.44407,6.44407 0,6.55157,6.55157 0,6.63919,6.63919 0,6.74296,6.74296 0,6.78584,6.78584 0,6.83368,6.83368 0,6.8225,6.8225 0,6.76098,6.76098 0,6.7498,6.7498 0,6.68393,6.68393 0,6.66653,6.66653 0,6.64354,6.64354 0,6.6162,6.6162 0,6.55468,6.55468 0,6.4447,6.4447 0,6.33347,6.33347 0,6.19303,6.19303 0,6.20484,6.20484 0,6.28562,6.28562 0,6.38753,6.38753 0,6.49068,6.49068 0,6.60626,6.60626 0,6.67958,6.67958 0,6.73551,6.73551 0,6.75042,6.75042 0,6.7585,6.7585 0,6.7063,6.7063 0,6.68455,6.68455 0,6.67461,6.67461 0,6.63298,6.63298 0,6.63298,6.63298 0,6.55157,6.55157 0,6.48695,6.48695 0,6.40493,6.40493 0,6.32663,6.32663 0,6.37386,6.37386 0,6.43848,6.43848 0,6.55779,6.55779 0,6.58078,6.58078 0,6.66032,6.66032 0,6.71997,6.71997 0,6.73178,6.73178 0,6.77155,6.77155 0,6.71935,6.71935 0,6.68082,6.68082 0,6.70444,6.70444 0,6.68704,6.68704 0,6.67399,6.67399 0,6.63981,6.63981 0,6.52734,6.52734 0,6.4391,6.4391 0,6.37261,6.37261 0,6.35708,6.35708 0,6.4099,6.4099 0,6.564,6.564 0,6.64727,6.64727 0,6.72246,6.72246 0,6.77092,6.77092 0,6.78895,6.78895 0,6.81007,6.81007 0,6.74421,6.74421 0,6.69636,6.69636 0,6.67585,6.67585 0,6.64106,6.64106 0,6.63919,6.63919 0,6.59631,6.59631 0,6.53418,6.53418 0,6.39933,6.39933 0,6.34465,6.34465 0,6.36578,6.36578 0,6.47514,6.47514 0,6.56711,6.56711 0,6.63298,6.63298 0,6.72991,6.72991 0,6.78957,6.78957 0,6.81939,6.81939 0,6.81939,6.81939 0,6.79516,6.79516 0,6.74793,6.74793 0,6.71997,6.71997 0,6.67958,6.67958 0,6.66405,6.66405 0,6.66032,6.66032 0,6.58886,6.58886 0,6.50062,6.50062 0,6.36019,6.36019 0,6.30923,6.30923 0,6.28873,6.28873 0,6.35832,6.35832 0,6.43848,6.43848 0,6.50435,6.50435 0,6.62179,6.62179 0,6.66591,6.66591 0,6.77776,6.77776 0,6.81691,6.81691 0,6.75353,6.75353 0,6.77838,6.77838 0,6.7672,6.7672 0,6.76347,6.76347 0,6.76782,6.76782 0,6.68642,6.68642 0,6.58202,6.58202 0,6.48819,6.48819 0,6.42978,6.42978 0,6.44967,6.44967 0,6.52051,6.52051 0,6.57892,6.57892 0,6.67212,6.67212 0,6.73178,6.73178 0,6.76409,6.76409 0,6.7877,6.7877 0,6.80883,6.80883 0,6.73799,6.73799 0,6.73986,6.73986 0,6.74358,6.74358 0,6.72246,6.72246 0,6.71003,6.71003 0,6.64975,6.64975 0,6.50373,6.50373 0,6.39436,6.39436 0,6.37634,6.37634 0,6.43724,6.43724 0,6.53915,6.53915 0,6.69947,6.69947 0,6.76285,6.76285 0,6.82809,6.82809 0,6.89147,6.89147 0,6.8921,6.8921 0,6.89147,6.89147 0,6.83493,6.83493 0,6.79267,6.79267 0,6.75663,6.75663 0,6.7237,6.7237 0,6.7237,6.7237 0,6.67958,6.67958 0,6.62552,6.62552 0,6.53418,6.53418 0,6.51491,6.51491 0,6.52113,6.52113 0,6.57395,6.57395 0,6.64913,6.64913 0,6.72059,6.72059 0,6.78211,6.78211 0,6.81877,6.81877 0,6.85543,6.85543 0,6.90142,6.90142 0,6.83431,6.83431 0,6.79764,6.79764 0,6.79951,6.79951 0,6.75415,6.75415 0,6.75415,6.75415 0,6.74421,6.74421 0,6.64789,6.64789 0,6.76844,6.76844 0,6.82561,6.82561 0,6.85854,6.85854 0,6.89085,6.89085 0,6.88899,6.88899 0,6.8865,6.8865 0,6.86538,6.86538 0,6.79578,6.79578 0,6.79578,6.79578 0,6.78832,6.78832 0,6.73986,6.73986 0,6.73986,6.73986 0,6.73053,6.73053 0,6.62055,6.62055 0,6.57767,6.57767 0,6.44842,6.44842 0,6.42357,6.42357 0,6.44656,6.44656 0,6.49938,6.49938 0,6.57395,6.57395 0,6.651,6.651 0,6.7498,6.7498 0,6.78397,6.78397 0,6.83058,6.83058 0,6.8312,6.8312 0,6.83306,6.83306 0,6.779,6.779 0,6.75788,6.75788 0,6.75974,6.75974 0,6.75042,6.75042 0,6.75601,6.75601 0,6.74296,6.74296 0,6.63919,6.63919 0,6.54412,6.54412 0,6.48571,6.48571 0,6.48695,6.48695 0,6.52672,6.52672 0,6.61371,6.61371 0,6.72184,6.72184 0,6.78335,6.78335 0,6.84114,6.84114 0,6.88899,6.88899 0,6.9387,6.9387 0,6.96169,6.96169 0,6.91819,6.91819 0,6.87656,6.87656 0,6.86475,6.86475 0,6.83617,6.83617 0,6.83306,6.83306 0,6.78708,6.78708 0,6.6771,6.6771 0,6.59383,6.59383 0,6.55903,6.55903 0,6.59942,6.59942 0,6.67337,6.67337 0,6.80386,6.80386 0,6.87532,6.87532 0,6.93062,6.93062 0,6.96666,6.96666 0,6.97847,6.97847 0,7.00705,7.00705 0,6.97039,6.97039 0,6.92689,6.92689 0,6.89831,6.89831 0,6.84425,6.84425 0,6.84052,6.84052 0,6.79454,6.79454 0,6.68269,6.68269 0,6.53977,6.53977 0,6.50186,6.50186 0,6.51988,6.51988 0,6.62117,6.62117 0,6.69077,6.69077 0,6.77341,6.77341 0,6.81566,6.81566 0,6.86351,6.86351 0,6.87905,6.87905 0,6.88712,6.88712 0,6.88712,6.88712 0,6.84487,6.84487 0,6.8604,6.8604 0,6.83555,6.83555 0,6.83306,6.83306 0,6.8225,6.8225 0,6.75539,6.75539 0,6.62614,6.62614 0,6.60066,6.60066 0,6.65348,6.65348 0,6.715,6.715 0,6.81504,6.81504 0,6.88961,6.88961 0,6.94305,6.94305 0,6.95672,6.95672 0,6.97971,6.97971 0,6.97909,6.97909 0,6.95672,6.95672 0,6.89147,6.89147 0,6.86848,6.86848 0,6.83803,6.83803 0,6.83058,6.83058 0,6.77465,6.77465 0,6.70319,6.70319 0,6.60874,6.60874 0,6.56773,6.56773 0,6.57581,6.57581 0,6.67275,6.67275 0,6.73986,6.73986 0,6.83244,6.83244 0,6.89334,6.89334 0,6.92814,6.92814 0,6.96666,6.96666 0,6.94181,6.94181 0,6.94988,6.94988 0,6.87097,6.87097 0,6.84798,6.84798 0,6.84611,6.84611 0,6.85543,6.85543 0,6.86848,6.86848 0,6.85295,6.85295 0,6.80262,6.80262 0,6.73178,6.73178 0,6.70879,6.70879 0,6.70071,6.70071 0,6.7411,6.7411 0,6.79143,6.79143 0,6.89085,6.89085 0,6.91944,6.91944 0,6.94616,6.94616 0,6.96666,6.96666 0,6.96045,6.96045 0,6.95299,6.95299 0,6.86103,6.86103 0,6.81877,6.81877 0,6.81691,6.81691 0,6.78025,6.78025 0,6.78025,6.78025 0,6.74731,6.74731 0,6.69325,6.69325 0,6.61931,6.61931 0,6.61309,6.61309 0,6.65597,6.65597 0,6.74048,6.74048 0,6.81753,6.81753 0,6.89396,6.89396 0,6.9213,6.9213 0,6.94305,6.94305 0,6.94491,6.94491 0,6.93435,6.93435 0,6.93435,6.93435 0,6.86724,6.86724 0,6.866,6.866 0,6.85481,6.85481 0,6.8604,6.8604 0,6.86786,6.86786 0,6.75477,6.75477 0,6.66964,6.66964 0,6.61185,6.61185 0,6.63733,6.63733 0,6.66964,6.66964 0,6.80075,6.80075 0,6.85668,6.85668 0,6.92938,6.92938 0,6.93932,6.93932 0,6.92814,6.92814 0,6.91074,6.91074 0,6.86289,6.86289 0,6.80137,6.80137 0,6.80199,6.80199 0,6.77155,6.77155 0,6.76409,6.76409 0,6.72618,6.72618 0,6.64727,6.64727 0,6.58513,6.58513 0,6.60066,6.60066 0,6.651,6.651 0,6.79951,6.79951 0,6.84922,6.84922 0,6.98344,6.98344 0,7.09405,7.09405 0,7.10896,7.10896 0,7.11952,7.11952 0,7.12636,7.12636 0,7.0462,7.0462 0,7.01948,7.01948 0,7.0201,7.0201 0,7.00146,7.00146 0,6.99338,6.99338 0,6.96791,6.96791 0,6.91447,6.91447 0,6.86103,6.86103 0,6.84425,6.84425 0,6.84611,6.84611 0,6.89831,6.89831 0,6.94553,6.94553 0,7.02383,7.02383 0,7.05863,7.05863 0,7.06236,7.06236 0,7.06608,7.06608 0,7.06608,7.06608 0,7.04806,7.04806 0,7.03688,7.03688 0,7.03315,7.03315 0,7.03253,7.03253 0,7.03253,7.03253 0,7.02632,7.02632 0,6.99027,6.99027 0,6.93497,6.93497 0,6.81256,6.81256 0,6.76223,6.76223 0,6.75974,6.75974 0,6.76844,6.76844 0,6.84114,6.84114 0,6.87408,6.87408 0,6.89085,6.89085 0,6.87283,6.87283 0,6.84052,6.84052 0,6.80821,6.80821 0,6.79889,6.79889 0,6.79889,6.79889 0,6.8691,6.8691 0,6.94181,6.94181 0,6.99525,6.99525 0,6.99525,6.99525 0,6.91322,6.91322 0,6.77341,6.77341 0,6.66529,6.66529 0,6.59383,6.59383 0,6.53355,6.53355 0,6.5609,6.5609 0,6.69636,6.69636 0,6.78273,6.78273 0,6.82934,6.82934 0,6.88277,6.88277 0,6.90949,6.90949 0,6.92565,6.92565 0,6.88153,6.88153 0,6.86973,6.86973 0,6.93497,6.93497 0,6.9561,6.9561 0,6.97474,6.97474 0,6.9766,6.9766 0,6.96107,6.96107 0,6.85233,6.85233 0,6.77155,6.77155 0,6.72681,6.72681 0,6.71065,6.71065 0,6.74731,6.74731 0,6.84487,6.84487 0,6.95423,6.95423 0,6.99027,6.99027 0,7.01886,7.01886 0,7.04744,7.04744 0,7.03874,7.03874 0,7.05179,7.05179 0,7.0114,7.0114 0,6.98841,6.98841 0,6.98158,6.98158 0,6.98158,6.98158 0,6.95361,6.95361 0,6.92503,6.92503 0,6.86538,6.86538 0,6.71562,6.71562 0,6.63422,6.63422 0,6.59569,6.59569 0,6.59321,6.59321 0,6.63546,6.63546 0,6.77838,6.77838 0,6.82623,6.82623 0,6.86103,6.86103 0,6.87843,6.87843 0,6.89707,6.89707 0,6.92379,6.92379 0,6.89396,6.89396 0,6.90577,6.90577 0,6.93808,6.93808 0,6.97039,6.97039 0,6.96915,6.96915 0,6.95299,6.95299 0,6.91074,6.91074 0,6.79764,6.79764 0,6.72681,6.72681 0,6.72867,6.72867 0,6.76906,6.76906 0,6.81691,6.81691 0,6.84238,6.84238 0,6.82312,6.82312 "
       timeStamps="16.615 16.627 16.639 16.652 16.664 16.677 16.688 16.705 16.715 16.726 16.739 16.75 16.762 16.774 16.785 16.798 16.811 16.823 16.835 16.847 16.859 16.872 16.884 16.895 16.907 16.92 16.932 16.945 16.957 16.969 16.981 16.994 17.005 17.017 17.029 17.041 17.054 17.067 17.079 17.091 17.103 17.115 17.128 17.14 17.152 17.164 17.177 17.19 17.201 17.214 17.225 17.237 17.25 17.261 17.273 17.286 17.298 17.311 17.322 17.334 17.347 17.359 17.372 17.385 17.397 17.41 17.422 17.433 17.446 17.457 17.469 17.481 17.495 17.507 17.517 17.53 17.541 17.555 17.567 17.577 17.59 17.602 17.615 17.627 17.638 17.651 17.662 17.674 17.687 17.7 17.712 17.724 17.735 17.749 17.761 17.773 17.784 17.796 17.81 17.821 17.834 17.847 17.858 17.87 17.882 17.895 17.907 17.92 17.932 17.944 17.956 17.968 17.981 17.993 18.006 18.02 18.03 18.043 18.055 18.068 18.079 18.092 18.104 18.117 18.13 18.142 18.155 18.167 18.18 18.191 18.204 18.217 18.228 18.241 18.253 18.265 18.277 18.29 18.301 18.314 18.326 18.338 18.351 18.363 18.375 18.387 18.4 18.411 18.424 18.436 18.451 18.463 18.473 18.485 18.497 18.51 18.521 18.534 18.547 18.558 18.571 18.584 18.595 18.608 18.62 18.631 18.644 18.656 18.668 18.68 18.693 18.704 18.716 18.729 18.74 18.753 18.765 18.776 18.79 18.803 18.813 18.826 18.838 18.85 18.864 18.876 18.889 18.901 18.914 18.925 18.937 18.949 18.962 18.974 18.985 18.998 19.011 19.022 19.035 19.046 19.058 19.071 19.083 19.095 19.108 19.12 19.132 19.144 19.156 19.168 19.18 19.192 19.205 19.218 19.229 19.241 19.254 19.265 19.278 19.289 19.302 19.315 19.325 19.338 19.35 19.363 19.376 19.387 19.4 19.411 19.423 19.435 19.447 19.46 19.472 19.484 19.497 19.508 19.521 19.533 19.544 19.558 19.57 19.582 19.595 19.605 19.618 19.631 19.642 19.655 19.666 19.678 19.691 19.703 19.715 19.727 19.74 19.751 19.764 19.775 19.787 19.799 19.812 19.824 19.837 19.849 19.86 19.872 19.884 19.897 19.909 19.922 19.933 19.946 19.958 19.97 19.981 19.994 20.005 20.087 20.097 20.108 20.118 20.129 20.139 20.15 20.159 20.169 20.18 20.189 20.2 20.21 20.219 20.23 20.24 20.251 20.262 20.272 20.281 20.292 20.304 20.316 20.33 20.341 20.354 20.367 20.378 20.39 20.403 20.414 20.428 20.44 20.452 20.464 20.477 20.488 20.501 20.513 20.525 20.537 20.55 20.562 20.575 20.587 20.598 20.612 20.622 20.634 20.646 20.659 20.671 20.683 20.694 20.706 20.718 20.731 20.743 20.754 20.767 20.779 20.792 20.803 20.815 20.827 20.838 20.851 20.863 20.877 20.888 20.899 20.913 20.923 20.937 20.947 20.96 20.972 20.984 20.997 21.008 21.021 21.033 21.045 21.057 21.069 21.081 21.094 21.105 21.118 21.131 21.142 21.156 21.168 21.18 21.192 21.204 21.217 21.228 21.241 21.253 21.264 21.276 21.289 21.301 21.314 21.324 21.337 21.35 21.361 21.374 21.385 21.398 21.411 21.423 21.436 21.445 21.459 21.471 21.482 21.494 21.507 21.52 21.531 21.544 21.556 21.567 21.58 21.592 21.604 21.617 21.629 21.642 21.653 21.665 21.678 21.689 21.701 21.713 21.726 21.739 21.751 21.763 21.775 21.787 21.799 21.812 21.824 21.837 21.848 21.861 21.872 21.885 21.895 21.909 21.921 21.933 21.946 21.959 21.97 21.983 21.994 22.008 22.019 22.031 22.044 22.056 22.069 22.08 22.093 22.105 22.117 22.129 22.142 22.154 22.166 22.178 22.189 22.203 22.214 22.227 22.238 22.25 22.263 22.274 22.287 22.298 22.311 22.322 22.335 22.347 22.36 22.371 22.383 22.394 22.407 22.418 22.431 22.443 22.455 22.467 22.479 22.491 22.503 22.514 22.527 22.54 22.551 22.565 22.575 22.588 22.601 22.611 22.624 22.637 22.648 22.66 22.673 22.684 22.696 22.708 22.72 22.732 22.744 22.757 22.769 22.781 22.793 22.805 22.817 22.829 22.841 22.854 22.865 22.879 22.891 22.903 22.916 22.928 22.939 22.952 22.964 22.977 22.989 23.002 23.015 23.027 23.038 23.051 23.063 23.075 23.088 23.1 23.113 23.125 23.137 23.15 23.161 23.173 23.186 23.197 23.211 23.223 23.235 23.248 23.259 23.272 23.284 23.295 23.308 23.321 23.333 23.345 23.358 23.369 23.382 23.393 23.406 23.419 23.431 23.443 23.455 23.467 23.479 23.491 23.503 23.515 "
       id="path0001"
       style="fill:none;stroke:#000000;stroke-opacity:1;stroke-width:4px" />
  </g>
</svg>
