<?xml version="1.0" encoding="UTF-8" standalone="no"?>
<!-- Created with Inkscape (http://www.inkscape.org/) -->

<svg
   xmlns:dc="http://purl.org/dc/elements/1.1/"
   xmlns:cc="http://creativecommons.org/ns#"
   xmlns:rdf="http://www.w3.org/1999/02/22-rdf-syntax-ns#"
   xmlns:svg="http://www.w3.org/2000/svg"
   xmlns="http://www.w3.org/2000/svg"
   xmlns:xlink="http://www.w3.org/1999/xlink"
   xmlns:sodipodi="http://sodipodi.sourceforge.net/DTD/sodipodi-0.dtd"
   xmlns:inkscape="http://www.inkscape.org/namespaces/inkscape"
   width="297mm"
   height="210mm"
   viewBox="0 0 297 210"
   version="1.1"
   id="svg8"
   inkscape:version="0.92.3 (2405546, 2018-03-11)"
   sodipodi:docname="drawingMovie.svg"
   inkscape:export-filename="D:\sync.com\Sync\D-Desktop\YN_HandGestures_2018\movie_drawn_PNGs\HG_0020.png"
   inkscape:export-xdpi="96"
   inkscape:export-ydpi="96">
  <defs
     id="defs2" />
  <sodipodi:namedview
     id="base"
     pagecolor="#000000"
     bordercolor="#666666"
     borderopacity="1.0"
     inkscape:pageopacity="1"
     inkscape:pageshadow="2"
     inkscape:zoom="0.7328125"
     inkscape:cx="-1312.7505"
     inkscape:cy="1904.9894"
     inkscape:document-units="mm"
     inkscape:current-layer="layer2"
     showgrid="false"
     inkscape:window-width="1920"
     inkscape:window-height="1057"
     inkscape:window-x="-8"
     inkscape:window-y="-8"
     inkscape:window-maximized="1" />
  <metadata
     id="metadata5">
    <rdf:RDF>
      <cc:Work
         rdf:about="">
        <dc:format>image/svg+xml</dc:format>
        <dc:type
           rdf:resource="http://purl.org/dc/dcmitype/StillImage" />
        <dc:title></dc:title>
      </cc:Work>
    </rdf:RDF>
  </metadata>
  <g
     inkscape:label="Movie"
     inkscape:groupmode="layer"
     id="layer1"
     transform="translate(0,-87)">
    <image
       sodipodi:absref="D:\sync.com\Sync\D-Desktop\YN_HandGestures_2018\movie_JPGs/HG_0020.jpg"
       xlink:href="movie_JPGs/HG_0020.jpg"
       width="508"
       height="285.75"
       preserveAspectRatio="none"
       id="image4730"
       x="-601.33191"
       y="-349.90344" />
  </g>
  <g
     inkscape:groupmode="layer"
     id="layer2"
     inkscape:label="Drawing"
     style="display:inline">
    <path
       style="opacity:1;vector-effect:none;fill:none;fill-opacity:1;stroke:#ffffff;stroke-width:2.06500006;stroke-linecap:butt;stroke-linejoin:miter;stroke-miterlimit:4;stroke-dasharray:none;stroke-dashoffset:0;stroke-opacity:1"
       d="m -377.66027,-305.94313 c -1.23605,-0.55459 -1.17758,0.7693 -1.80525,1.08315 -0.21304,0.10652 -0.83481,-0.0828 -1.08315,0 -0.25532,0.0851 -0.4668,0.27596 -0.72213,0.36105 -0.3425,0.11417 -0.73287,-0.0876 -1.08315,0 -0.26106,0.0653 -0.4668,0.27596 -0.7221,0.36105 -0.22833,0.0761 -0.48141,0 -0.7221,0 -0.84246,0 -1.68492,0 -2.52735,0 -0.4013,0 -2.67719,0.0704 -2.88843,0 -0.2553,-0.0851 -0.46681,-0.27596 -0.7221,-0.36105 -0.11417,-0.038 -0.24689,0.038 -0.36105,0 -0.2553,-0.0851 -0.46681,-0.27596 -0.7221,-0.36105 -0.11417,-0.038 -0.24689,0.038 -0.36105,0 -0.2553,-0.0851 -0.46681,-0.27596 -0.72211,-0.36105 -0.11416,-0.038 -0.24688,0.038 -0.36105,0 -0.25529,-0.0851 -0.46103,-0.29578 -0.7221,-0.36105 -0.35028,-0.0876 -0.74064,0.11417 -1.08317,0 -0.2553,-0.0851 -0.46678,-0.27596 -0.7221,-0.36105 -0.11417,-0.0381 -0.2407,0 -0.36106,0 -0.35467,0 -1.92751,0.0796 -2.1663,0 -0.25529,-0.0851 -0.4668,-0.27596 -0.7221,-0.36105 -0.19539,-0.0651 -1.32122,0 -1.4442,0 -1.08318,0 -2.16633,0 -3.24948,0 -1.08315,0 -2.1663,0 -3.24945,0 -0.18881,0 -1.34927,-0.0475 -1.44423,0 -0.15222,0.0761 -0.20881,0.28493 -0.36105,0.36105 -0.10764,0.0538 -0.27594,-0.0851 -0.36105,0 -0.0851,0.0851 0.0851,0.27594 0,0.36105 -0.17021,0.17021 -0.5519,-0.1702 -0.7221,0 -0.0851,0.0851 0.0851,0.27596 0,0.36105 -0.0851,0.0851 -0.2534,-0.0538 -0.36105,0 -0.43326,0.21664 -0.6499,0.86651 -1.08316,1.08315 -0.10763,0.0538 -0.27596,-0.0851 -0.36105,0 -0.0851,0.0851 0.0851,0.27596 0,0.36105 -0.0851,0.0851 -0.25341,-0.0538 -0.36105,0 -0.30448,0.15225 -0.39917,0.61447 -0.7221,0.7221 -0.22836,0.0761 -0.49376,-0.0761 -0.7221,0 -0.32295,0.10766 -0.41764,0.56989 -0.7221,0.72211 -0.10766,0.0538 -0.24072,0 -0.36108,0 -0.24069,0.12035 -0.49818,0.21177 -0.7221,0.36105 -0.28321,0.18883 -0.43886,0.53329 -0.7221,0.72212 -2.61784,1.3089 0.57089,-0.3806 -1.08315,0.7221 -0.22392,0.14928 -0.49818,0.21178 -0.7221,0.36105 -0.1416,0.0944 -0.21944,0.26663 -0.36105,0.36106 -0.22392,0.14927 -0.49818,0.21177 -0.7221,0.36105 -0.14163,0.0944 -0.21945,0.26664 -0.36105,0.36105 -0.22392,0.14927 -0.53181,0.17076 -0.7221,0.36105 -0.19029,0.19028 -0.17076,0.53181 -0.36105,0.7221 -0.0851,0.0851 -0.24688,-0.038 -0.36105,0 -0.25533,0.0851 -0.49821,0.21177 -0.72213,0.36105 -0.32867,0.21913 -0.76314,0.92316 -1.08315,1.08315 -0.10763,0.0538 -0.24688,-0.038 -0.36105,0 -2.61525,0.87175 0.56925,-0.10409 -1.08315,0.7221 -0.10764,0.0538 -0.25342,-0.0538 -0.36105,0 -0.15224,0.0761 -0.21945,0.26665 -0.36105,0.36105 -0.22392,0.14928 -0.49819,0.2118 -0.7221,0.36108 -0.28324,0.1888 -0.43887,0.53326 -0.72211,0.7221 -0.18182,0.79544 -0.74276,0.19084 -1.08315,0.36105 -0.30448,0.15221 -0.43889,0.53327 -0.72212,0.7221 -0.22392,0.14928 -0.49819,0.21177 -0.7221,0.36105 -0.32867,0.2191 -0.76314,0.92313 -1.08316,1.08315 -0.10763,0.0538 -0.25339,-0.0538 -0.36105,0 -0.35528,0.17764 -1.08892,1.26656 -1.4442,1.4442 -0.10766,0.0538 -0.25342,-0.0538 -0.36105,0 -0.43325,0.21664 -0.64989,0.86654 -1.08315,1.08315 -0.10766,0.0539 -0.25342,-0.0538 -0.36105,0 -0.35531,0.17764 -1.08895,1.26659 -1.44423,1.44423 -0.10763,0.0538 -0.25339,-0.0538 -0.36105,0 -0.30445,0.15222 -0.41762,0.56986 -0.7221,0.7221 -0.21529,0.10763 -0.50681,-0.10766 -0.7221,0 -0.15224,0.0761 -0.20881,0.28493 -0.36105,0.36105 -0.21529,0.10764 -0.50681,-0.10766 -0.7221,0 -0.15224,0.0761 -0.20881,0.28493 -0.36105,0.36105 -0.21529,0.10764 -0.50681,-0.10766 -0.7221,0 -0.15224,0.0761 -0.24072,0.24069 -0.36105,0.36105 -0.24072,0 -0.49377,-0.0761 -0.7221,0 -0.16148,0.0538 -0.24072,0.2407 -0.36105,0.36105 -0.24072,0.12036 -0.46104,0.29578 -0.72213,0.36105 -0.2335,0.0584 -0.48858,-0.0584 -0.7221,0 -0.26107,0.0653 -0.48139,0.2407 -0.7221,0.36105 -0.24069,0.12036 -0.48141,0.2407 -0.7221,0.36106 -0.2407,0.12035 -0.48141,0.24069 -0.7221,0.36105 -0.2407,0.12035 -0.50681,0.1996 -0.72211,0.36105 -0.27233,0.20425 -0.44979,0.51787 -0.7221,0.7221 -0.21529,0.16147 -0.48141,0.24071 -0.7221,0.36105 -0.48141,0.24072 -0.96282,0.48141 -1.44423,0.7221 -0.24069,0.12036 -0.5068,0.1996 -0.7221,0.36108 -1.56165,1.56165 0.0957,0.0566 -1.4442,1.08315 -0.1416,0.0944 -0.24069,0.24069 -0.36105,0.36105 -0.36105,0.36105 -0.7221,0.7221 -1.08315,1.08315 -0.24072,0.24069 -0.44979,0.51787 -0.7221,0.7221 -0.21529,0.16147 -0.53181,0.17076 -0.7221,0.36105 -0.19029,0.19029 -0.1996,0.50681 -0.36105,0.7221 -0.20426,0.27234 -0.51787,0.44979 -0.72213,0.7221 -0.32292,0.43058 -0.39915,1.01365 -0.7221,1.44423 -0.20423,0.27231 -0.51784,0.44976 -0.7221,0.7221 -0.16145,0.21529 -0.24069,0.48138 -0.36105,0.7221 -0.12033,0.24069 -0.24069,0.48141 -0.36105,0.7221 -0.24069,0.48141 -0.52221,0.94448 -0.7221,1.4442 -0.14134,0.35338 -0.21971,0.7298 -0.36105,1.08315 -0.0999,0.24988 -0.29578,0.46104 -0.36105,0.72211 -0.0584,0.23352 0.0584,0.4886 0,0.7221 -0.0653,0.26109 -0.29578,0.46103 -0.36105,0.72212 -0.0584,0.2335 0.0584,0.48858 0,0.7221 -0.0653,0.26107 -0.29578,0.46101 -0.36105,0.7221 -0.15672,0.62688 0.15671,1.53943 0,2.16631 -0.0653,0.26108 -0.29578,0.46103 -0.36105,0.72211 -0.0584,0.23351 0,0.4814 0,0.7221 0,0.37546 0.071,1.8823 0,2.16631 -0.0653,0.26108 -0.29578,0.46103 -0.36105,0.7221 -0.0584,0.23352 0,0.48141 0,0.72211 0,0.2407 0,0.4814 0,0.7221 0,0.96281 0,1.92561 0,2.88842 0,0.2407 0,0.4814 0,0.7221 0,0.2407 0.0584,0.48859 0,0.7221 -0.0653,0.26108 -0.29578,0.46103 -0.36106,0.72211 -0.0584,0.23351 0,0.4814 0,0.7221 0,0.60176 0,1.20351 0,1.80526 0,1.92561 0,3.85122 0,5.77683 0,1.68491 0,3.36982 0,5.05473 0,0.19288 -0.0517,1.70192 0,1.80526 0.0761,0.15223 0.28493,0.20882 0.36106,0.36105 0.0538,0.10764 -0.0381,0.24688 0,0.36105 0.0851,0.2553 0.27593,0.4668 0.36105,0.72211 0.038,0.11417 -0.0538,0.2534 0,0.36105 0.0645,0.12913 1.29405,1.34411 1.4442,1.4442 0.22391,0.14928 0.53181,0.17076 0.7221,0.36106 0.87693,0.87692 -0.10737,0.53017 0.7221,1.08315 0.22392,0.14928 0.49818,0.21178 0.7221,0.36105 0.14163,0.0944 0.21945,0.26664 0.36105,0.36106 0.44783,0.29855 0.96282,0.4814 1.44423,0.7221 0.24069,0.12035 0.48138,0.2407 0.7221,0.36105 0.24069,0.12035 0.46101,0.29578 0.7221,0.36105 0.23352,0.0584 0.48858,-0.0584 0.7221,0 0.52216,0.13054 0.91644,0.61655 1.4442,0.72211 0.35404,0.0708 0.72911,-0.0708 1.08315,0 0.2639,0.0528 0.46104,0.29578 0.7221,0.36105 0.23353,0.0584 0.48141,0 0.72213,0 0.96279,0 1.92559,0 2.88841,0 2.76807,0 5.53611,0 8.30418,0 0.96282,0 1.92561,0 2.88843,0 0.36105,0 0.7221,0 1.08315,0 0.36105,0 0.72911,0.0708 1.08315,0 0.2639,-0.0528 0.45821,-0.30828 0.7221,-0.36105 0.35404,-0.0708 0.7221,0 1.08316,0 0.60176,0 1.20351,0 1.80527,0 0.42842,0 2.53799,0.0701 2.88841,0 0.26389,-0.0528 0.4582,-0.30828 0.7221,-0.36105 0.70808,-0.14162 1.45822,0.14161 2.1663,0 0.2639,-0.0528 0.45823,-0.30828 0.72213,-0.36106 0.35404,-0.0708 0.72911,0.0708 1.08315,0 0.26387,-0.0528 0.4582,-0.30827 0.7221,-0.36105 0.35404,-0.0708 0.72911,0.0708 1.08315,0 0.2639,-0.0528 0.48141,-0.2407 0.7221,-0.36105 0.36105,-0.12035 0.70776,-0.29849 1.08315,-0.36105 0.35616,-0.0594 0.72912,0.0708 1.08315,0 0.2639,-0.0528 0.46104,-0.29578 0.72213,-0.36105 0.2335,-0.0584 0.48607,0.0472 0.7221,0 0.72504,0.0829 1.1765,-0.56492 1.80525,-0.72211 0.23353,-0.0584 0.48607,0.0472 0.72211,0 0.72503,0.0829 1.17649,-0.56491 1.80525,-0.7221 2.57185,-0.64296 -1.82917,1.09273 1.80528,-0.36105 0.49971,-0.1999 0.96279,-0.48141 1.4442,-0.72211 0.24069,-0.12035 0.46101,-0.29578 0.7221,-0.36105 0.23352,-0.0584 0.48858,0.0584 0.7221,0 0.26109,-0.0653 0.48141,-0.2407 0.7221,-0.36105 0.48141,-0.2407 0.93361,-0.5519 1.4442,-0.7221 0.1142,-0.0381 0.24688,0.038 0.36105,0 0.51062,-0.17021 0.92208,-0.59157 1.44423,-0.72211 0.2335,-0.0584 0.48858,0.0584 0.7221,0 0.26107,-0.0653 0.48141,-0.2407 0.7221,-0.36105 0.24069,-0.12035 0.49819,-0.21178 0.7221,-0.36105 0.14161,-0.0944 0.21945,-0.26664 0.36105,-0.36105 0.22392,-0.14928 0.48141,-0.24071 0.7221,-0.36106 0.24072,-0.12035 0.46681,-0.27595 0.7221,-0.36105 1.0748,-0.35826 -0.7408,0.85493 1.08316,-0.36105 0.23722,-0.15814 0.88775,-1.01802 1.08317,-1.08316 0.22834,-0.0761 0.49374,0.0761 0.7221,0 0.32137,-0.10712 0.76179,-0.97603 1.08316,-1.08315 0.22833,-0.0761 0.49373,0.0761 0.7221,0 0.32292,-0.10765 0.39917,-0.61446 0.7221,-0.72211 0.22836,-0.0761 0.49376,0.0761 0.7221,0 0.32295,-0.10764 0.41764,-0.56987 0.7221,-0.7221 0.10766,-0.0538 0.25342,0.0538 0.36105,0 0.15224,-0.0761 0.1996,-0.30723 0.36105,-0.36105 0.22836,-0.0761 0.49377,0.0761 0.72213,0 0.32292,-0.10765 0.41762,-0.56987 0.7221,-0.72211 0.21529,-0.10764 0.50681,0.10765 0.7221,0 0.15221,-0.0761 0.20881,-0.28493 0.36105,-0.36105 0.10763,-0.0538 0.25339,0.0538 0.36105,0 0.15224,-0.0761 0.20881,-0.28493 0.36105,-0.36105 0.21529,-0.10764 0.50681,0.10765 0.7221,0 0.15224,-0.0761 0.20881,-0.28493 0.36105,-0.36105 0.22693,-0.11347 1.21727,0.11346 1.4442,0 0.15224,-0.0761 0.20884,-0.28494 0.36105,-0.36105 0.10766,-0.0538 0.24072,0 0.36105,0 0.48141,0 0.96282,0 1.44423,0 0.24069,0 0.49374,0.0761 0.7221,0 0.2553,-0.0851 0.46101,-0.29579 0.7221,-0.36106 0.35029,-0.0876 0.7221,0 1.08315,0 0.72211,0 1.44421,0 2.16631,0 0.24072,0 0.4886,0.0584 0.72212,0 0.26107,-0.0653 0.46678,-0.27595 0.72211,-0.36105 0.11416,-0.038 0.24069,0 0.36105,0 0.7221,0 1.4442,0 2.1663,0 0.24069,0 0.48141,0 0.7221,0 0.12036,0 0.24688,0.0381 0.36105,0 0.2553,-0.0851 0.4668,-0.27595 0.7221,-0.36105 0.22836,-0.0761 0.49377,0.0761 0.7221,0 0.25532,-0.0851 0.46681,-0.27595 0.72213,-0.36105 0.11417,-0.0381 0.24685,0.0381 0.36105,0 0.2553,-0.0851 0.49818,-0.21177 0.7221,-0.36105 0.1416,-0.0944 0.19957,-0.30723 0.36105,-0.36105 0.22834,-0.0761 0.49374,0.0761 0.7221,0 0.32136,-0.10712 0.76179,-0.97604 1.08315,-1.08316 0.22836,-0.0761 0.49377,0.0761 0.7221,0 0.19542,-0.0651 0.84596,-0.92502 1.08315,-1.08316 0.22392,-0.14927 0.49819,-0.21177 0.7221,-0.36105 0.28324,-0.18882 0.4389,-0.53328 0.72213,-0.7221 0.22389,-0.14928 0.49819,-0.21178 0.7221,-0.36105 0.41659,-0.27774 0.66654,-0.80543 1.08315,-1.08316 0.22392,-0.14927 0.49819,-0.21177 0.72211,-0.36105 0.1416,-0.0944 0.24069,-0.2407 0.36105,-0.36105 0.36105,-0.36105 0.7221,-0.72211 1.08315,-1.08316 0.12036,-0.12035 0.21944,-0.26664 0.36105,-0.36105 0.22391,-0.14928 0.49818,-0.21177 0.7221,-0.36105 0.14163,-0.0944 0.24072,-0.2407 0.36105,-0.36105 0.12036,-0.12035 0.26665,-0.21944 0.36105,-0.36106 0.12036,-0.2407 0.24072,-0.4814 0.36105,-0.7221 0.12036,0 0.27596,0.0851 0.36108,0 0.43973,-0.43975 0.16912,-0.80666 0.7221,-1.08315 0.10763,-0.0538 0.27593,0.0851 0.36105,0 0.0851,-0.0851 -0.0539,-0.25341 0,-0.36106 0.15221,-0.30446 0.56986,-0.41763 0.7221,-0.7221 0.0538,-0.10765 -0.0538,-0.25341 0,-0.36105 0.0761,-0.15223 0.24069,-0.2407 0.36105,-0.36105 0.12036,-0.12035 0.20881,-0.28494 0.36105,-0.36106 0.10763,-0.0538 0.27596,0.0851 0.36105,0 0.0851,-0.0851 -0.0538,-0.2534 0,-0.36105 0.21664,-0.43326 0.86651,-0.64989 1.08315,-1.08315 0.0538,-0.10765 -0.0851,-0.27595 0,-0.36106 0.0851,-0.0851 0.25342,0.0538 0.36105,0 0.43326,-0.21663 0.6499,-0.86652 1.08315,-1.08315 0.10766,-0.0538 0.27596,0.0851 0.36105,0 0.0851,-0.0851 -0.0538,-0.25341 0,-0.36105 0.0761,-0.15224 0.24072,-0.2407 0.36105,-0.36105 0.12036,-0.12035 0.20884,-0.28494 0.36108,-0.36106 0.10763,-0.0538 0.25339,0.0538 0.36105,0 0.15222,-0.0761 0.20881,-0.28493 0.36105,-0.36105 0.10763,-0.0538 0.25339,0.0538 0.36105,0 0.43326,-0.21662 0.6499,-0.86651 1.08315,-1.08315 0.10763,-0.0538 0.25339,0.0538 0.36105,0 0.30446,-0.15225 0.39918,-0.61447 0.7221,-0.7221 0.22837,-0.0761 0.49377,0.0761 0.7221,0 0.32295,-0.10766 0.41765,-0.56989 0.72211,-0.72211 0.10765,-0.0538 0.25341,0.0538 0.36105,0 0.30448,-0.15224 0.41764,-0.56988 0.7221,-0.7221 1.06251,-0.53125 -0.47535,0.8364 0.72212,-0.36105 0.12034,-0.12036 0.20881,-0.28495 0.36105,-0.36105 0.10764,-0.0538 0.27594,0.0851 0.36105,0 0.0851,-0.0851 -0.0538,-0.25342 0,-0.36107 0.39916,-0.7983 0.22408,-0.11203 0.72211,-0.36105 0.30445,-0.15222 0.41761,-0.56986 0.7221,-0.72211 0.10763,-0.0538 0.25339,0.0539 0.36105,0 0.30445,-0.15221 0.41764,-0.56985 0.7221,-0.7221 0.10763,-0.0538 0.27596,0.0851 0.36105,0 0.74702,-0.74702 -1.14157,0.0292 0.36105,-0.7221 0.10766,-0.0538 0.27596,0.0851 0.36105,0 0.74702,-0.74702 -1.14155,0.0292 0.36105,-0.7221 0.49802,-0.249 0.32295,0.43725 0.7221,-0.36105 0.24903,-0.49802 -0.43725,-0.32295 0.36105,-0.7221 0.10766,-0.0538 0.25342,0.0538 0.36105,0 1.50262,-0.75131 -0.38597,0.0249 0.36105,-0.7221 0.0851,-0.0851 0.24072,0 0.36108,0 0,-0.12036 -0.0538,-0.25342 0,-0.36105 0.75128,-1.50262 -0.0249,0.38597 0.7221,-0.36105 0.0851,-0.0851 -0.0538,-0.25342 0,-0.36105 0.15221,-0.30448 0.56986,-0.41765 0.7221,-0.72213 0.0538,-0.10763 -0.0538,-0.25339 0,-0.36105 0.17764,-0.35528 1.26656,-1.08892 1.4442,-1.4442 0.0538,-0.10763 -0.0851,-0.27593 0,-0.36105 0.0851,-0.0851 0.27596,0.0851 0.36105,0 0.0851,-0.0851 -0.0538,-0.25339 0,-0.36105 0.15224,-0.30446 0.56986,-0.41765 0.7221,-0.7221 0.0538,-0.10766 -0.0538,-0.25342 0,-0.36105 0.0761,-0.15224 0.28493,-0.20881 0.36105,-0.36105 0.0538,-0.10766 -0.0538,-0.25342 0,-0.36105 0.0761,-0.15224 0.28493,-0.20884 0.36105,-0.36105 0.0716,-0.14317 -0.0738,-1.00936 0,-1.08315 0.0851,-0.0851 0.27596,0.0851 0.36105,0 0.0851,-0.0851 0,-0.24072 0,-0.36108 0,-0.7221 0,-1.4442 0,-2.1663 0,-0.12036 0,-0.2407 0,-0.36105 0,-0.12036 0.0539,-0.2534 0,-0.36106 -0.0761,-0.15224 -0.28493,-0.2088 -0.36105,-0.36105 -0.10763,-0.21529 0.17021,-0.55189 0,-0.7221 -0.0851,-0.0851 -0.27593,0.0851 -0.36105,0 -0.0851,-0.0851 0.0538,-0.25341 0,-0.36105 -0.0761,-0.15224 -0.24069,-0.24071 -0.36105,-0.36105 -0.12036,-0.12036 -0.20881,-0.28493 -0.36105,-0.36105 -0.10763,-0.0538 -0.25339,0.0538 -0.36105,0 -0.15224,-0.0761 -0.20881,-0.28493 -0.36105,-0.36105 -0.13057,-0.0653 -1.55413,0 -1.80525,0 -0.12036,0 -0.24072,0 -0.36105,0 -0.12036,0 -0.25342,-0.0538 -0.36105,0 -1.19748,1.19745 0.34039,-0.1702 -0.72213,0.36105 -0.30445,0.15222 -0.41762,0.56986 -0.7221,0.7221 -0.10763,0.0538 -0.27593,-0.0851 -0.36105,0 -0.0851,0.0851 0.0538,0.25339 0,0.36105 -0.21661,0.43326 -0.86651,0.6499 -1.08315,1.08315 -0.0538,0.10766 0.0538,0.25342 0,0.36106 -0.0761,0.15224 -0.28493,0.2088 -0.36105,0.36105 -0.0538,0.10765 0,0.24071 0,0.36105 0,0.12036 0,0.24071 0,0.36105 0,0.12036 -0.0851,0.27596 0,0.36105 0.0851,0.0851 0.27596,-0.0851 0.36105,0 0.0851,0.0851 -0.0851,0.27596 0,0.36105 0.0851,0.0851 0.25342,-0.0538 0.36105,0 1.50262,0.75131 -0.38597,-0.0249 0.36105,0.7221 0.0851,0.0851 0.27596,-0.0851 0.36105,0 0.0851,0.0851 -0.0851,0.27596 0,0.36108 0.0851,0.0851 0.27596,-0.0851 0.36105,0 0.0361,0.0361 0.0361,1.04703 0,1.08315 -0.0851,0.0851 -0.36105,0.12033 -0.36105,0 0,-0.12036 0.36105,0.12033 0.36105,0 0,-0.17021 -0.28493,-0.20884 -0.36105,-0.36105 -0.0538,-0.10766 0.0851,-0.27596 0,-0.36105 -0.0851,-0.0851 -0.25339,0.0538 -0.36105,0 -0.30446,-0.15225 -0.41762,-0.56989 -0.7221,-0.72213 -0.10763,-0.0538 -0.27594,0.0851 -0.36105,0 -0.0851,-0.0851 0.0851,-0.27594 0,-0.36105 -0.0851,-0.0851 -0.27596,0.0851 -0.36105,0 -0.0851,-0.0851 0.0851,-0.27594 0,-0.36105 -0.0851,-0.0851 -0.27596,0.0851 -0.36105,0 -0.0851,-0.0851 0.0538,-0.25339 0,-0.36105 -0.15224,-0.30446 -0.56986,-0.41762 -0.7221,-0.7221 -0.0538,-0.10764 0.0851,-0.27594 0,-0.36105 -0.0851,-0.0851 -0.27596,0.0851 -0.36105,0 -0.11182,-0.11179 0.11178,-1.69347 0,-1.80526 -0.0851,-0.0851 -0.27596,0.0851 -0.36105,0 -0.0851,-0.0851 0,-0.24069 0,-0.36105 0,-0.25114 -0.0653,-1.6747 0,-1.80525 0.0761,-0.15224 0.28493,-0.20883 0.36105,-0.36108 0.10763,-0.21526 -0.10766,-0.50681 0,-0.7221 0.0761,-0.15221 0.28493,-0.20881 0.36105,-0.36105 0.0538,-0.10763 -0.0538,-0.25339 0,-0.36105 0.0761,-0.15221 0.28493,-0.20881 0.36105,-0.36105 0.0538,-0.10763 0,-0.24069 0,-0.36105 0.12036,-0.12036 0.28493,-0.20881 0.36105,-0.36105 0.0538,-0.10763 -0.0851,-0.27596 0,-0.36105 0.0851,-0.0851 0.27596,0.0851 0.36105,0 0.0851,-0.0851 -0.0851,-0.27596 0,-0.36105 0.0851,-0.0851 0.27596,0.0851 0.36105,0 0.0851,-0.0851 -0.0851,-0.27596 0,-0.36105 0.1702,-0.17021 0.55189,0.17021 0.7221,0 0.0851,-0.0851 -0.0851,-0.27596 0,-0.36105 0.0851,-0.0851 0.24072,0 0.36105,0 0.25114,0 1.67471,-0.0653 1.80528,0 0.15221,0.0761 0.20881,0.28493 0.36105,0.36105 0.10763,0.0538 0.27593,-0.0851 0.36105,0 0.0851,0.0851 -0.0851,0.27596 0,0.36105 0.0851,0.0851 0.25339,-0.0538 0.36105,0 0.15221,0.0761 0.20881,0.28493 0.36105,0.36105 0.10763,0.0538 0.27593,-0.0851 0.36105,0 0.0851,0.0851 -0.0851,0.27596 0,0.36105 0.0851,0.0851 0.25339,-0.0538 0.36105,0 1.50262,0.75131 -0.38597,-0.0249 0.36105,0.7221 0.0851,0.0851 0.27596,-0.0851 0.36105,0 0.0851,0.0851 -0.0851,0.27596 0,0.36105 0.0851,0.0851 0.27596,-0.0851 0.36105,0 0.0851,0.0851 -0.0538,0.25342 0,0.36105 0.0761,0.15224 0.28493,0.20884 0.36105,0.36105 0.0538,0.10766 -0.0851,0.27596 0,0.36105 0.0851,0.0851 0.27596,-0.0851 0.36105,0 0.17021,0.17021 -0.1702,0.55192 0,0.72213 0.0851,0.0851 0.27596,-0.0851 0.36105,0 0.0851,0.0851 -0.0538,0.25339 0,0.36105 0.0761,0.15222 0.28493,0.20881 0.36105,0.36105 0.0539,0.10763 -0.0538,0.25339 0,0.36105 0.0761,0.15222 0.28493,0.20881 0.36105,0.36105 0.0539,0.10764 -0.0538,0.25339 0,0.36105 0.0761,0.15224 0.28496,0.20881 0.36105,0.36105 0.0539,0.10764 -0.0538,0.2534 0,0.36105 0.0761,0.15225 0.28496,0.20881 0.36105,0.36105 0.0539,0.10764 -0.0538,0.25342 0,0.36105 0.0761,0.15225 0.28496,0.20881 0.36106,0.36106 0.0538,0.10765 -0.0538,0.25341 0,0.36105 0.0761,0.15224 0.28495,0.20883 0.36107,0.36105 0.0538,0.10766 -0.0851,0.27596 0,0.36105 0.0851,0.0851 0.27594,-0.0851 0.36105,0 0.0851,0.0851 -0.0538,0.25341 0,0.36105 0.0761,0.15224 0.28493,0.20883 0.36105,0.36105 0.0538,0.10766 -0.0851,0.27596 0,0.36105 0.0851,0.0851 0.27594,-0.0851 0.36105,0 0.0851,0.0851 -0.0851,0.27596 0,0.36105 0.17021,0.1702 0.50681,-0.10763 0.7221,0 0.15225,0.0761 0.20881,0.28495 0.36105,0.36108 0.10764,0.0538 0.2407,0 0.36105,0 0.12036,0 0.27597,0.0851 0.36106,0 0.0851,-0.0851 -0.0538,-0.25342 0,-0.36108 0.21664,-0.43326 0.86653,-0.64987 1.08315,-1.08315 0.0538,-0.10764 -0.0538,-0.25339 0,-0.36105 0.0761,-0.15222 0.28493,-0.20881 0.36105,-0.36105 0.10766,-0.2153 -0.17021,-0.5519 0,-0.7221 0.0851,-0.0851 0.27596,0.0851 0.36105,0 0.0869,-0.0869 -0.0869,-1.35732 0,-1.44421 0.0851,-0.0851 0.27596,0.0851 0.36105,0 0.0851,-0.0851 0,-0.24069 0,-0.36105 0,-0.7221 0,-1.4442 0,-2.16633 0,-0.12033 0,-0.24069 0,-0.36105 0,-0.12033 0.0538,-0.25339 0,-0.36105 -0.0761,-0.15221 -0.28493,-0.20881 -0.36105,-0.36105 -0.0979,-0.19584 0.0988,-1.3454 0,-1.4442 -0.0851,-0.0851 -0.27594,0.0851 -0.36105,0 -0.18053,-0.18052 0.18052,-0.90262 0,-1.08315 -0.0851,-0.0851 -0.27594,0.0851 -0.36105,0 -0.17021,-0.17021 0.10766,-0.50681 0,-0.7221 -0.0761,-0.15224 -0.28493,-0.20884 -0.36105,-0.36105 -0.0538,-0.10766 0.0538,-0.25342 0,-0.36105 -0.0761,-0.15224 -0.28493,-0.20884 -0.36105,-0.36105 -0.0538,-0.10766 0.0538,-0.25342 0,-0.36105 -0.15225,-0.30448 -0.56986,-0.41765 -0.72211,-0.7221 -0.0538,-0.10766 0.0851,-0.27596 0,-0.36108 -0.0851,-0.0851 -0.25341,0.0538 -0.36105,0 -0.15224,-0.0761 -0.2088,-0.28493 -0.36105,-0.36105 -0.10765,-0.0538 -0.27596,0.0851 -0.36105,0 -0.0851,-0.0851 0.0851,-0.27593 0,-0.36105 -0.1702,-0.17018 -0.55192,0.17021 -0.7221,0 -0.0851,-0.0851 0.0851,-0.27593 0,-0.36105 -0.1702,-0.17021 -0.50683,0.10766 -0.7221,0 -0.15224,-0.0761 -0.20883,-0.28493 -0.36107,-0.36105 -0.21527,-0.10763 -0.50681,0.10766 -0.72211,0 -0.15221,-0.0761 -0.2088,-0.28493 -0.36105,-0.36105 -0.21529,-0.10763 -0.50681,0.10766 -0.7221,0 -0.15221,-0.0761 -0.20881,-0.28493 -0.36105,-0.36105 -0.22693,-0.11346 -1.21727,0.11348 -1.4442,0 -0.15224,-0.0761 -0.20881,-0.28493 -0.36105,-0.36105 -0.0933,-0.0467 -1.9104,0 -2.1663,0 -0.96282,0 -1.92561,0 -2.88843,0 -0.12036,0 -0.24069,0 -0.36105,0 -0.12036,0 -0.27596,-0.0851 -0.36105,0 -0.0851,0.0851 0.0851,0.27596 0,0.36105 -0.17021,0.1702 -0.5519,-0.17021 -0.7221,0 -0.0851,0.0851 0.0538,0.25342 0,0.36105 -0.75131,1.50262 0.0249,-0.38598 -0.7221,0.36105 -0.0851,0.0851 0.0851,0.27596 0,0.36105 -0.0851,0.0851 -0.27596,-0.0851 -0.36105,0 -0.0851,0.0851 0.0851,0.27596 0,0.36105 -0.0851,0.0851 -0.27596,-0.0851 -0.36105,0 -0.0851,0.0851 0.0851,0.27596 0,0.36105 -0.0851,0.0851 -0.25342,-0.0538 -0.36106,0 -0.15224,0.0761 -0.20883,0.28496 -0.36105,0.36105 -0.10765,0.0538 -0.27596,-0.0851 -0.36105,0 -0.0851,0.0851 0.0851,0.27596 0,0.36108 -0.0851,0.0851 -0.36107,0.12033 -0.36107,0 0,-0.17021 0.28495,-0.20884 0.36107,-0.36108 0.0538,-0.10763 -0.0851,-0.27593 0,-0.36105 0.0851,-0.0851 0.27594,0.0851 0.36105,0 0.0738,-0.0738 -0.0716,-0.93999 0,-1.08315 0.0761,-0.15222 0.28493,-0.20881 0.36105,-0.36105 0.0979,-0.19587 -0.0988,-1.34541 0,-1.4442 0.48139,-0.48141 0.36106,0.60174 0.36106,-0.36105 0,-0.12036 0,-0.2407 0,-0.36105 0,-0.12036 -0.0851,-0.27596 0,-0.36105 0.0851,-0.0851 0.27593,0.0851 0.36105,0 0.1702,-0.17021 -0.10766,-0.50681 0,-0.72211 0.0761,-0.15224 0.28493,-0.20883 0.36105,-0.36105 0.0538,-0.10766 -0.0851,-0.27596 0,-0.36105 0.0851,-0.0851 0.27593,0.0851 0.36105,0 0.0851,-0.0851 -0.0538,-0.25341 0,-0.36105 0.0761,-0.15224 0.28493,-0.20883 0.36105,-0.36107 0.0538,-0.10764 -0.0851,-0.27594 0,-0.36105 0.0851,-0.0851 0.27596,0.0851 0.36105,0 0.0851,-0.0851 -0.0851,-0.27594 0,-0.36105 0.0851,-0.0851 0.27596,0.0851 0.36105,0 0.0851,-0.0851 -0.0851,-0.27594 0,-0.36106 0.0851,-0.0851 0.25342,0.0539 0.36105,0 0.15224,-0.0761 0.20881,-0.28492 0.36105,-0.36105 0.10766,-0.0538 0.27596,0.0851 0.36105,0 0.0851,-0.0851 -0.0851,-0.27593 0,-0.36105 0.17021,-0.1702 0.50681,0.10766 0.7221,0 0.15224,-0.0761 0.20884,-0.28493 0.36105,-0.36105 0.14317,-0.0716 1.00936,0.0738 1.08315,0 0.0851,-0.0851 -0.10763,-0.30723 0,-0.36105 0.21529,-0.10763 0.48141,0 0.72213,0 0.12033,0 0.27593,0.0851 0.36105,0 0.0851,-0.0851 -0.0851,-0.27596 0,-0.36105 0.0851,-0.0851 0.24069,0 0.36105,0 0.60174,0 1.20351,0 1.80525,0 0.12036,0 0.27596,0.0851 0.36105,0 0.0851,-0.0851 0,-0.24069 0,-0.36105 0,-0.12036 0.0538,-0.25342 0,-0.36105 -0.0761,-0.15224 -0.24069,-0.24069 -0.36105,-0.36105 -0.12036,-0.12036 -0.20881,-0.28493 -0.36105,-0.36105 -0.10766,-0.0538 -0.27596,0.0851 -0.36105,0 -0.0851,-0.0851 0.0851,-0.27596 0,-0.36105 -0.17021,-0.17021 -0.50681,0.10763 -0.7221,0 -0.30448,-0.15224 -0.41764,-0.56989 -0.7221,-0.7221 -0.28885,-0.14444 -0.79433,0.14441 -1.08318,0 -0.15221,-0.0761 -0.20881,-0.28496 -0.36105,-0.36105 -0.22775,-0.1139 -1.57747,0.11388 -1.80525,0 -0.15224,-0.0761 -0.20881,-0.28496 -0.36105,-0.36105 -0.13057,-0.0653 -1.55414,0 -1.80525,0 -0.12036,0 -0.27596,-0.0851 -0.36105,0 -0.0851,0.0851 0.0851,0.27593 0,0.36105 -0.0738,0.0738 -0.94002,-0.0716 -1.08316,0 -0.8923,0.44614 0.12462,0.36105 -0.7221,0.36105 -0.84674,0 0.17018,-0.0851 -0.72212,0.36105 -0.10764,0.0538 -0.25339,-0.0538 -0.36105,0 -0.15222,0.0761 -0.20881,0.28493 -0.36105,0.36105 -0.10764,0.0538 -0.2534,-0.0538 -0.36105,0 -0.15222,0.0761 -0.20881,0.28493 -0.36106,0.36105 -0.10763,0.0538 -0.25339,-0.0538 -0.36105,0 -0.15224,0.0761 -0.2088,0.28493 -0.36105,0.36105 -0.21529,0.10763 -0.55189,-0.1702 -0.7221,0 -0.0851,0.0851 0.0851,0.27594 0,0.36105 -0.0851,0.0851 -0.27596,-0.0851 -0.36105,0 -0.0851,0.0851 0.0851,0.27596 0,0.36105 -0.0851,0.0851 -0.36105,0.12036 -0.36105,0 0,-0.12036 0.27594,0.0851 0.36105,0 0.0851,-0.0851 -0.0851,-0.27596 0,-0.36105 0.0851,-0.0851 0.25339,0.0538 0.36105,0 0.43326,-0.21664 0.6499,-0.86653 1.08315,-1.08315 0.10766,-0.0538 0.25342,0.0538 0.36105,0 0.0691,-0.0345 1.40965,-1.37509 1.44421,-1.4442 0.53125,-1.06251 -0.8364,0.47535 0.36105,-0.72213 0.12036,-0.12033 0.20883,-0.28493 0.36107,-0.36105 0.10764,-0.0538 0.2534,0.0538 0.36105,0 0.15222,-0.0761 0.2407,-0.24069 0.36105,-0.36105 0.12034,-0.12033 0.28493,-0.20881 0.36106,-0.36105 0.0538,-0.10763 -0.0851,-0.27593 0,-0.36105 0.0851,-0.0851 0.25339,0.0538 0.36105,0 0.15221,-0.0761 0.24069,-0.24069 0.36105,-0.36105 0.12033,-0.12036 0.28493,-0.20881 0.36105,-0.36105 0.0538,-0.10763 -0.0851,-0.27596 0,-0.36105 0.0851,-0.0851 0.27593,0.0851 0.36105,0 0.0851,-0.0851 -0.0851,-0.27596 0,-0.36105 0.0851,-0.0851 0.27596,0.0851 0.36105,0 0.0851,-0.0851 0.0851,-0.27596 0,-0.36105 -0.0851,-0.0851 -0.24069,0 -0.36105,0 -0.7221,0 -1.4442,0 -2.16631,0 -0.36105,0 -0.74064,-0.11417 -1.08317,0 -0.16145,0.0538 -0.20881,0.28493 -0.36105,0.36105 -0.28885,0.14441 -0.79431,-0.14441 -1.08316,0 -0.15224,0.0761 -0.2088,0.28493 -0.36105,0.36105 -0.21529,0.10763 -0.5068,-0.10763 -0.7221,0 -0.15224,0.0761 -0.20881,0.28493 -0.36105,0.36105 -0.28884,0.14441 -0.7943,-0.14441 -1.08315,0 -0.15224,0.0761 -0.20883,0.28493 -0.36105,0.36105 -0.10766,0.0538 -0.25342,-0.0538 -0.36105,0 -0.15224,0.0761 -0.20883,0.28493 -0.36105,0.36105 -0.10766,0.0538 -0.25342,-0.0538 -0.36105,0 -0.15224,0.0761 -0.20884,0.28493 -0.36105,0.36105 -0.10766,0.0538 -0.25342,-0.0538 -0.36108,0 -0.15221,0.0761 -0.20881,0.28493 -0.36105,0.36105 -0.10763,0.0538 -0.25339,-0.0538 -0.36105,0 -0.15221,0.0761 -0.20881,0.28493 -0.36105,0.36105 -0.10763,0.0538 -0.27593,-0.0851 -0.36105,0 -0.0851,0.0851 0.0851,0.27596 0,0.36105 -0.0851,0.0851 -0.25339,-0.0538 -0.36105,0 -0.30445,0.15224 -0.41764,0.56989 -0.7221,0.72213 -0.10763,0.0538 -0.27596,-0.0851 -0.36105,0 -0.0851,0.0851 0.0851,0.27593 0,0.36105 -0.17021,0.17018 -0.55189,-0.17021 -0.7221,0 -0.0851,0.0851 0.0851,0.27593 0,0.36105 -0.0851,0.0851 -0.25342,-0.0538 -0.36105,0 -0.15224,0.0761 -0.20884,0.28493 -0.36105,0.36105 -0.21529,0.10763 -0.55192,-0.17021 -0.7221,0 -0.0851,0.0851 0.0851,0.27593 0,0.36105 -0.0851,0.0851 -0.27596,-0.0851 -0.36105,0 -0.0851,0.0851 0.0851,0.27593 0,0.36105 -0.74705,0.74703 0.0292,-1.14157 -0.7221,0.36105 -0.0539,0.10763 0.0851,0.27594 0,0.36105 -0.0851,0.0851 -0.27596,-0.0851 -0.36108,0 -0.17018,0.17021 0.17021,0.5519 0,0.7221 -0.0851,0.0851 -0.27593,-0.0851 -0.36105,0 -0.17018,0.17021 0.10766,0.50681 0,0.7221 -0.0761,0.15224 -0.28493,0.20881 -0.36105,0.36105 -0.0538,0.10766 0.0538,0.25342 0,0.36105 -0.0761,0.15225 -0.28493,0.20884 -0.36105,0.36105 -0.14441,0.28885 0.14443,0.79434 0,1.08316 -0.0761,0.15224 -0.28493,0.20883 -0.36105,0.36107 -0.0979,0.19585 0.0988,1.34541 0,1.4442 -0.0851,0.0851 -0.27594,-0.0851 -0.36105,0 -0.17021,0.17021 0.24072,0.72211 0,0.72211 -0.12036,0 0,-0.24072 0,-0.36105 0,-0.12036 0,-0.24072 0,-0.36106 0,-1.1622 -0.0851,0.61635 0.36105,-0.7221 0.0761,-0.22836 -0.0584,-0.4886 0,-0.7221 0.0653,-0.26109 0.29578,-0.46103 0.36105,-0.72212 0.0584,-0.2335 -0.0584,-0.48858 0,-0.72211 0.0653,-0.26106 0.26112,-0.47222 0.36105,-0.7221 0.29358,-0.73392 0.29874,-1.1702 0.7221,-1.80525 0.0944,-0.14163 0.26665,-0.21944 0.36108,-0.36105 0.44436,-0.66656 0.63878,-1.49976 1.08315,-2.1663 0.0944,-0.14163 0.26662,-0.21945 0.36105,-0.36108 0.14928,-0.22389 0.21177,-0.49818 0.36105,-0.7221 0.2077,-0.31155 0.80113,-0.80113 1.08315,-1.08315 0.12036,-0.12036 0.24069,-0.24069 0.36105,-0.36105 0.12036,-0.12036 0.19958,-0.30723 0.36105,-0.36105 0.22836,-0.0761 0.49377,0.0761 0.7221,0 0.16148,-0.0538 0.20884,-0.28493 0.36105,-0.36105 0.10766,-0.0538 0.25342,0.0538 0.36105,0 0.15224,-0.0761 0.20884,-0.28493 0.36105,-0.36105 0.22694,-0.11345 1.2173,0.11345 1.44423,0 0.15222,-0.0761 0.20881,-0.28493 0.36105,-0.36105 0.0933,-0.0467 1.9104,0 2.1663,0 0.12036,0 0.27596,0.0851 0.36105,0 0.0851,-0.0851 -0.0851,-0.27596 0,-0.36105 0.48141,-0.48141 0.48141,0.48141 0,0 -0.0851,-0.0851 0.0851,-0.27596 0,-0.36105 -0.1702,-0.17021 -0.50681,0.10763 -0.7221,0 -0.15224,-0.0761 -0.20881,-0.28493 -0.36105,-0.36105 -0.10766,-0.0539 -0.25342,0.0538 -0.36105,0 -0.15224,-0.0761 -0.1996,-0.30724 -0.36105,-0.36105 -1.64362,0 -0.0206,0.17018 -1.08315,-0.36105 -0.10766,-0.0539 -0.24072,0 -0.36105,0 -0.24072,0 -0.49377,0.0761 -0.72213,0 -0.16145,-0.0539 -0.20881,-0.28496 -0.36105,-0.36105 -0.10763,-0.0538 -0.24069,0 -0.36105,0 -0.7221,0 -1.4442,0 -2.1663,0 -0.12036,0 -0.24069,0 -0.36105,0 -0.12036,0 -0.25342,-0.0538 -0.36105,0 -0.15224,0.0761 -0.20884,0.28493 -0.36105,0.36105 -0.21529,0.10763 -0.50681,-0.10766 -0.7221,0 -0.15224,0.0761 -0.24072,0.24069 -0.36105,0.36105 -0.24072,0 -0.49377,-0.0761 -0.7221,0 -0.16148,0.0538 -0.20884,0.28493 -0.36108,0.36105 -0.10763,0.0538 -0.25339,-0.0539 -0.36105,0 -0.15222,0.0761 -0.20881,0.28493 -0.36105,0.36105 -0.10763,0.0538 -0.25339,-0.0538 -0.36105,0 -0.15222,0.0761 -0.20881,0.28493 -0.36105,0.36105 -0.10763,0.0538 -0.25339,-0.0538 -0.36105,0 -0.15224,0.0761 -0.20881,0.28493 -0.36105,0.36105 -0.10764,0.0538 -0.27596,-0.0851 -0.36105,0 -0.0851,0.0851 0.0851,0.27596 0,0.36105 -0.0851,0.0851 -0.25342,-0.0538 -0.36105,0 -0.15225,0.0761 -0.20881,0.28493 -0.36105,0.36105 -0.10766,0.0538 -0.27596,-0.0851 -0.36105,0 -0.0851,0.0851 0.0851,0.27596 0,0.36105 -0.74703,0.74702 0.0292,-1.14155 -0.72211,0.36105 -0.0538,0.10766 0.0851,0.27596 0,0.36105 -0.0851,0.0851 -0.25341,-0.0538 -0.36105,0 -0.0691,0.0345 -1.40964,1.37509 -1.4442,1.4442 -0.0538,0.10766 0.0851,0.27596 0,0.36105 -0.0851,0.0851 -0.27596,-0.0851 -0.36107,0 -0.0851,0.0851 0.0538,0.25342 0,0.36108 -0.0761,0.15221 -0.28493,0.20881 -0.36106,0.36105 -0.0538,0.10763 0.0851,0.27593 0,0.36105 -0.0851,0.0851 -0.27593,-0.0851 -0.36105,0 -0.0851,0.0851 0.0851,0.27593 0,0.36105 -0.0851,0.0851 -0.27593,-0.0851 -0.36105,0 -0.1702,0.17018 0.17021,0.55189 0,0.7221 -0.0851,0.0851 -0.27593,-0.0851 -0.36105,0 -0.1702,0.17021 0.17021,0.5519 0,0.7221 -0.0851,0.0851 -0.27593,-0.0851 -0.36105,0 -0.0738,0.0738 0.0716,0.94001 0,1.08315 -0.0761,0.15224 -0.28493,0.20881 -0.36105,0.36105 -0.14441,0.28885 0.14444,0.79431 0,1.08315 -0.0761,0.15225 -0.28493,0.20884 -0.36105,0.36106 -0.1247,0.24939 0.12674,1.67854 0,1.80527 -0.0851,0.0851 -0.27596,-0.0851 -0.36105,0 -0.0116,0.0116 0,0.99558 0,1.08316 0,0.12033 0,0.24069 0,0.36105 0,0.12035 0.0538,0.25339 0,0.36105 -0.0761,0.15224 -0.28493,0.20881 -0.36105,0.36105 -0.11345,0.22693 0.11346,1.21726 0,1.4442 -0.0761,0.15224 -0.28493,0.20883 -0.36105,0.36105 -0.11348,0.22693 0.11345,1.21729 0,1.4442 -0.0761,0.15224 -0.28493,0.20884 -0.36105,0.36108 -0.10766,0.21526 0.10763,0.50681 0,0.7221 -0.0761,0.15221 -0.28493,0.20881 -0.36105,0.36105 -0.0538,0.10763 0.0538,0.25339 0,0.36105 -0.0761,0.15221 -0.28493,0.20881 -0.36105,0.36105 -0.0538,0.10763 0.0538,0.25339 0,0.36105 -0.15224,0.30446 -0.56989,0.41764 -0.7221,0.7221 -0.0538,0.10763 0.0538,0.25342 0,0.36105 -0.0761,0.15224 -0.28496,0.20881 -0.36105,0.36105 -0.0538,0.10766 0.0538,0.25342 0,0.36105 -0.0761,0.15224 -0.24072,0.24069 -0.36105,0.36105 -0.21236,0.21236 -1.36062,1.27701 -1.44423,1.4442 -0.0538,0.10766 0.0851,0.27596 0,0.36105 -0.74702,0.74705 0.0292,-1.14154 -0.7221,0.36105 -0.0538,0.10766 0.0851,0.27596 0,0.36108 -0.0851,0.0851 -0.27593,-0.0851 -0.36105,0 -0.0851,0.0851 0.0538,0.25339 0,0.36105 -0.0761,0.15222 -0.24069,0.24069 -0.36105,0.36105 -0.12036,0.12033 -0.20881,0.28493 -0.36105,0.36105 -0.10763,0.0538 -0.27596,-0.0851 -0.36105,0 -0.0851,0.0851 0,0.24069 0,0.36105 -0.12036,0 -0.25342,-0.0538 -0.36105,0 -1.50262,0.75131 0.38597,-0.0249 -0.36105,0.7221 -0.0851,0.0851 -0.25342,-0.0538 -0.36105,0 -0.30449,0.15224 -0.41765,0.56986 -0.7221,0.7221 -0.10766,0.0538 -0.27596,-0.0851 -0.36105,0 -0.0851,0.0851 0.0851,0.27596 0,0.36105 -0.0851,0.0851 -0.25342,-0.0538 -0.36106,0 -1.50262,0.75132 0.38598,-0.0249 -0.36105,0.72211 -0.0851,0.0851 -0.25341,-0.0538 -0.36107,0 -1.5026,0.75131 0.386,-0.0249 -0.36105,0.7221 -0.0851,0.0851 -0.25339,-0.0538 -0.36105,0 -1.5026,0.75131 0.38597,-0.0249 -0.36105,0.7221 -0.0851,0.0851 -0.27594,-0.0851 -0.36105,0 -0.0851,0.0851 0.0538,0.25342 0,0.36105 -0.0761,0.15224 -0.28493,0.20883 -0.36105,0.36105 -0.10764,0.21529 0.10765,0.50683 0,0.72213 -0.0761,0.15221 -0.28493,0.2088 -0.36105,0.36105 -0.14441,0.28884 0.14443,0.7943 0,1.08315 -0.0761,0.15224 -0.28493,0.20881 -0.36106,0.36105 -0.0716,0.14314 0.0738,1.00933 0,1.08315 -0.0851,0.0851 -0.27596,-0.0851 -0.36105,0 -0.1702,0.17021 0.10764,0.50681 0,0.7221 -0.0761,0.15224 -0.28493,0.20884 -0.36105,0.36105 -0.0538,0.10766 0.0851,0.27596 0,0.36105 -0.0851,0.0851 -0.25341,-0.0538 -0.36105,0 -0.15224,0.0761 -0.20881,0.28493 -0.36105,0.36105 -0.0188,0.01 -1.06426,0.01 -1.08315,0 -0.15224,-0.0761 -0.20883,-0.28493 -0.36105,-0.36105 -0.10766,-0.0538 -0.25342,0.0538 -0.36105,0 -0.15224,-0.0761 -0.20883,-0.28493 -0.36105,-0.36105 -0.21529,-0.10763 -0.50684,0.10766 -0.72213,0 -0.15221,-0.0761 -0.20881,-0.28493 -0.36105,-0.36105 -0.10763,-0.0538 -0.25339,0.0538 -0.36105,0 -0.15221,-0.0761 -0.19957,-0.30723 -0.36105,-0.36105 -0.22833,-0.0761 -0.49374,0.0761 -0.7221,0 -0.16147,-0.0538 -0.20881,-0.28493 -0.36105,-0.36105 -0.10763,-0.0538 -0.24069,0 -0.36105,0 -0.24069,0 -0.49376,0.0761 -0.7221,0 -0.16148,-0.0538 -0.20881,-0.28493 -0.36105,-0.36105 -0.10766,-0.0538 -0.24688,0.038 -0.36105,0 -0.2553,-0.0851 -0.46104,-0.29578 -0.7221,-0.36105 -0.35028,-0.0876 -0.74065,0.11417 -1.08315,0 -0.25533,-0.0851 -0.46104,-0.29578 -0.72213,-0.36105 -0.35026,-0.0876 -0.7221,0 -1.08315,0 -0.7221,0 -1.4442,0 -2.1663,0 -0.2407,0 -0.48141,0 -0.72211,0 -0.12035,0 -0.24688,0.038 -0.36105,0 -0.25529,-0.0851 -0.4668,-0.27596 -0.7221,-0.36105 -0.22836,-0.0761 -0.48141,0 -0.7221,0 -0.60177,0 -1.20351,0 -1.80528,0 -0.20171,0 -1.59218,-0.071 -1.80525,0 -0.25529,0.0851 -0.4668,0.27593 -0.7221,0.36105 -0.21529,0.0718 -1.8165,0 -2.1663,0 -0.12036,0 -0.25342,-0.0538 -0.36108,0 -0.15221,0.0761 -0.20881,0.28493 -0.36105,0.36105 -0.0933,0.0467 -1.9104,0 -2.1663,0 -0.25591,0 -2.07296,0.0467 -2.1663,0 -0.15224,-0.0761 -0.20884,-0.28493 -0.36105,-0.36105 -0.10766,-0.0538 -0.25342,0.0538 -0.36105,0 -0.15225,-0.0761 -0.19961,-0.30724 -0.36105,-0.36105 -0.22837,-0.0761 -0.49377,0.0761 -0.72213,0 -0.16145,-0.0538 -0.20881,-0.28493 -0.36105,-0.36105 -0.21529,-0.10766 -0.5519,0.1702 -0.7221,0 -0.0851,-0.0851 0.0851,-0.27596 0,-0.36105 -0.17021,-0.17021 -0.50681,0.10763 -0.7221,0 -0.15222,-0.0761 -0.20881,-0.28493 -0.36105,-0.36105 -0.10764,-0.0539 -0.2407,0 -0.36105,0 -0.2407,0 -0.49377,0.0761 -0.72211,0 -0.16147,-0.0539 -0.21944,-0.26665 -0.36105,-0.36105 -0.22391,-0.14928 -0.4668,-0.27596 -0.7221,-0.36105 -0.11416,-0.0381 -0.24688,0.038 -0.36105,0 -0.25529,-0.0851 -0.46103,-0.29581 -0.7221,-0.36108 -0.23352,-0.0584 -0.49376,0.0761 -0.7221,0 -0.16147,-0.0538 -0.1996,-0.30721 -0.36108,-0.36105 -0.22833,-0.0761 -0.49373,0.0761 -0.7221,0 -0.16145,-0.0538 -0.20881,-0.28493 -0.36105,-0.36105 -0.10763,-0.0538 -0.25339,0.0538 -0.36105,0 -0.15221,-0.0761 -0.20881,-0.28493 -0.36105,-0.36105 -0.10763,-0.0538 -0.24069,0 -0.36105,0 -0.12036,0 -0.24069,0 -0.36105,0 -0.18881,0 -1.34927,0.0475 -1.4442,0 -0.15224,-0.0761 -0.20884,-0.28493 -0.36105,-0.36105 -0.0949,-0.0475 -1.25542,0 -1.4442,0 -0.84675,0 0.17018,-0.0851 -0.72213,0.36105 -0.10763,0.0538 -0.25339,-0.0538 -0.36105,0 -0.15221,0.0761 -0.20881,0.28495 -0.36105,0.36105 -0.10763,0.0538 -0.24069,0 -0.36105,0 -0.12033,0 -0.44614,0.0851 -0.36105,0 0.19029,-0.19029 0.53181,-0.17076 0.7221,-0.36105 2.22046,-2.22044 -2.54812,1.21737 1.44423,-1.4442"
       id="path4875"
       inkscape:connector-curvature="0" />
    <path
       style="opacity:1;vector-effect:none;fill:none;fill-opacity:1;stroke:#ffffff;stroke-width:2.06500006;stroke-linecap:butt;stroke-linejoin:miter;stroke-miterlimit:4;stroke-dasharray:none;stroke-dashoffset:0;stroke-opacity:1"
       d="m -293.17413,-241.6759 c 0.75338,0.10011 1.43566,1.67921 2.16631,2.16631 0.22391,0.14928 0.49821,0.21178 0.7221,0.36106 0.14163,0.0944 0.21944,0.26664 0.36105,0.36105 0.22392,0.14927 0.50683,0.19958 0.72213,0.36105 0.2723,0.20424 0.44976,0.51786 0.7221,0.7221 0.21529,0.16147 0.48138,0.2407 0.7221,0.36106 1.06251,0.53125 0.4668,0.27594 1.80525,0.7221 1.31313,0.4377 2.57955,0.92848 3.97158,1.08315 0.47845,0.0532 0.96279,0 1.4442,0 1.32384,0 2.64771,0 3.97158,0 0.60174,0 1.20349,0 1.80526,0 0.60174,0 1.2065,0.0599 1.80525,0 0.76396,-0.0764 2.44538,-0.52108 3.24948,-0.7221 0.96279,-0.2407 1.92561,-0.4814 2.8884,-0.7221 0.96282,-0.2407 1.92561,-0.48141 2.88842,-0.72211 0.4814,-0.12035 0.97958,-0.18682 1.4442,-0.36105 0.50396,-0.18898 0.96281,-0.4814 1.44421,-0.7221 0.48141,-0.2407 0.96281,-0.48141 1.44421,-0.72211 0.4814,-0.2407 0.9628,-0.4814 1.44421,-0.7221 0.4814,-0.2407 0.98779,-0.43685 1.4442,-0.7221 0.51029,-0.31893 0.96281,-0.72211 1.44421,-1.08316 0.96281,-0.7221 1.97465,-1.38308 2.88842,-2.16631 0.38768,-0.3323 0.69089,-0.75628 1.08315,-1.08316 0.33336,-0.27779 0.7498,-0.44431 1.08316,-0.7221 0.39226,-0.32688 0.7221,-0.72211 1.08315,-1.08316 0.2407,-0.2407 0.54697,-0.43021 0.72211,-0.7221 0.19581,-0.32635 0.16524,-0.75681 0.36105,-1.08316 0.17513,-0.29189 0.51786,-0.44978 0.7221,-0.7221 0.36289,-0.48385 0.51406,-1.28515 0.72211,-1.80526 0.0999,-0.24986 0.29578,-0.46103 0.36105,-0.7221 0.0584,-0.23352 -0.0472,-0.48608 0,-0.72211 0.0746,-0.37319 0.28641,-0.70996 0.36105,-1.08315 0.0472,-0.23603 -0.0472,-0.48608 0,-0.72211 0.0746,-0.37319 0.28641,-0.70996 0.36105,-1.08315 0.11802,-0.59007 -0.0989,-1.2117 0,-1.80526 0.0626,-0.3754 0.29849,-0.70775 0.36106,-1.08316 0.0989,-0.59356 -0.11802,-1.21519 0,-1.80526 0.0746,-0.37319 0.28641,-0.70996 0.36105,-1.08315 0.11572,-0.57861 -0.11573,-1.22665 0,-1.80526 0.0528,-0.26389 0.29578,-0.46103 0.36105,-0.7221 0.071,-0.28402 0,-1.79084 0,-2.16631 0,-1.32387 0,-2.64772 0,-3.97159 0,-0.84243 0,-1.68489 0,-2.52735 0,-0.24069 0.0584,-0.48858 0,-0.7221 -0.0653,-0.26109 -0.29578,-0.46104 -0.36105,-0.7221 -0.0584,-0.23352 0.0761,-0.49377 0,-0.7221 -0.53126,-1.59377 -0.36105,1.31175 -0.36105,-1.08318 0,-3.73086 0,-7.46172 0,-11.19259 0,-1.20351 0,-2.40702 0,-3.61053 0,-0.31287 0.0697,-1.23505 0,-1.4442 -0.12036,-0.24069 -0.24071,-0.48141 -0.36106,-0.7221 0,-0.24072 0.0761,-0.49377 0,-0.7221 -0.0538,-0.16148 -0.30723,-0.1996 -0.36105,-0.36105 -0.15223,-0.4567 0.11676,-0.97719 0,-1.44423 -0.0653,-0.26106 -0.29578,-0.46101 -0.36105,-0.7221 -0.0584,-0.2335 0.0584,-0.48858 0,-0.7221 -0.13054,-0.52216 -0.59157,-0.92205 -0.7221,-1.4442 -0.0584,-0.23352 0.0584,-0.48858 0,-0.7221 -0.13054,-0.52216 -0.55191,-0.93361 -0.72211,-1.44421 -0.0381,-0.11419 0.0381,-0.24688 0,-0.36105 -0.0851,-0.25532 -0.27595,-0.4668 -0.36105,-0.7221 -0.0697,-0.20915 0,-1.13133 0,-1.44423 0,-1.08315 0,-2.1663 0,-3.24945 0,-0.32798 -0.0781,-2.29298 0,-2.52738 0.0538,-0.16145 0.28493,-0.20881 0.36105,-0.36105 0.0538,-0.10763 -0.0538,-0.25339 0,-0.36105 0.15224,-0.30446 0.56987,-0.41762 0.72211,-0.7221 0.0538,-0.10763 -0.0538,-0.25339 0,-0.36105 0.0346,-0.0691 1.37509,-1.40965 1.4442,-1.4442 0.10765,-0.0538 0.25341,0.0538 0.36106,0 0.0691,-0.0346 1.40965,-1.37509 1.4442,-1.4442 0,-0.96282 -0.12035,0.12033 0.36105,-0.36105 0.0851,-0.0851 -0.0851,-0.27596 0,-0.36105 0.0851,-0.0851 0.27596,0.0851 0.36106,0 0.1702,-0.17021 -0.17021,-0.55193 0,-0.72213 0.0851,-0.0851 0.27595,0.0851 0.36105,0 0.1702,-0.17018 -0.10765,-0.50681 0,-0.7221 0.0761,-0.15222 0.28493,-0.20881 0.36105,-0.36105 0.0538,-0.10764 -0.0538,-0.25339 0,-0.36105 0.0761,-0.15222 0.28493,-0.20881 0.36105,-0.36105 0.0538,-0.10764 -0.0538,-0.2534 0,-0.36105 0.0761,-0.15225 0.28494,-0.20881 0.36105,-0.36105 0.0538,-0.10764 -0.0538,-0.25342 0,-0.36105 0.0761,-0.15225 0.28494,-0.20881 0.36106,-0.36106 0.10764,-0.21529 -0.10765,-0.5068 0,-0.7221 0.0761,-0.15224 0.28493,-0.20883 0.36105,-0.36105 0.10651,-0.21304 -0.0828,-0.83481 0,-1.08315 0.0851,-0.25532 0.27595,-0.4668 0.36105,-0.7221 0.0757,-0.22725 0,-1.47984 0,-1.80528 0,-0.0876 -0.0116,-1.07153 0,-1.08315 0.0851,-0.0851 0.27595,0.0851 0.36105,0 0.0851,-0.0851 0,-0.24069 0,-0.36105 0,-0.60174 0,-1.20351 0,-1.80525 0,-0.7221 0,-1.4442 0,-2.16633 0,-0.16259 0.0549,-0.97327 0,-1.08315 -0.0761,-0.15222 -0.28494,-0.20881 -0.36105,-0.36105 -0.0538,-0.10763 0,-0.24069 0,-0.36105 -0.12035,-0.12036 -0.28494,-0.20881 -0.36105,-0.36105 -0.0538,-0.10763 0.0538,-0.25342 0,-0.36105 -0.0761,-0.15224 -0.2407,-0.24069 -0.36105,-0.36105 -0.12036,-0.12036 -0.20882,-0.28493 -0.36106,-0.36105 -0.10764,-0.0538 -0.2534,0.0538 -0.36105,0 -0.2758,-0.1379 -0.83867,-1.00166 -1.08315,-1.08315 -0.22835,-0.0761 -0.49376,0.0761 -0.72211,0 -0.32293,-0.10766 -0.41764,-0.56989 -0.7221,-0.72211 -0.10765,-0.0538 -0.25341,0.0538 -0.36105,0 -0.15224,-0.0761 -0.20882,-0.28495 -0.36105,-0.36105 -0.10765,-0.0538 -0.24071,0 -0.36106,0 -0.12035,-0.12035 -0.20882,-0.28495 -0.36105,-0.36105 -0.10764,-0.0538 -0.25341,0.0538 -0.36105,0 -0.15223,-0.0761 -0.20882,-0.28495 -0.36105,-0.36107 -0.10765,-0.0538 -0.25341,0.0538 -0.36105,0 -0.15224,-0.0761 -0.20882,-0.28493 -0.36106,-0.36105 -0.21529,-0.10764 -0.50681,0.10766 -0.7221,0 -0.15223,-0.0761 -0.20882,-0.28493 -0.36105,-0.36105 -0.28884,-0.14441 -0.79432,0.14443 -1.08316,0 -0.15223,-0.0761 -0.20882,-0.28493 -0.36105,-0.36105 -0.22693,-0.11346 -1.21728,0.11348 -1.44421,0 -0.15223,-0.0761 -0.20882,-0.28493 -0.36105,-0.36105 -0.10977,-0.0549 -1.19489,0 -1.44421,0 -0.60175,0 -1.2035,0 -1.80526,0 -0.2407,0 -0.49375,-0.0761 -0.7221,0 -0.2553,0.0851 -0.49819,0.21177 -0.72211,0.36105 -0.15014,0.10011 -1.37964,1.31508 -1.4442,1.44422 -0.0538,0.10764 0.0851,0.27594 0,0.36105 -0.0851,0.0851 -0.27595,-0.0851 -0.36105,0 -0.18053,0.18053 0.18052,0.90263 0,1.08316 -0.0851,0.0851 -0.2407,0 -0.36106,0 -0.12035,0 -0.2407,0 -0.36105,0 -0.60175,0 -1.2035,0 -1.80526,0 -0.2407,0 -0.49375,0.0761 -0.7221,0 -1.33846,-0.44617 0.4401,-0.36106 -0.7221,-0.36106 -0.12035,0 -0.2407,0 -0.36106,0 -0.12035,0 -0.27595,0.0851 -0.36105,0 -0.0851,-0.0851 0.0851,-0.27596 0,-0.36105 -0.0851,-0.0851 -0.2407,0 -0.36105,0 -0.12035,0 -0.2407,0 -0.36105,0 -0.72211,0 -1.44422,0 -2.16632,0 -0.24069,0 -0.48858,-0.0584 -0.7221,0 -0.52215,0.13052 -0.92205,0.59156 -1.4442,0.72211 -0.23352,0.0584 -0.48858,-0.0584 -0.7221,0 -1.7435,0.43587 0.018,0.17158 -1.08315,0.7221 -0.10766,0.0538 -0.25342,-0.0538 -0.36105,0 -0.15224,0.0761 -0.20884,0.28493 -0.36108,0.36105 -0.21526,0.10763 -0.50681,-0.10766 -0.7221,0 -0.15222,0.0761 -0.21942,0.26664 -0.36105,0.36105 -0.44783,0.29855 -1.01362,0.39917 -1.4442,0.7221 -0.27231,0.20423 -0.48141,0.48141 -0.7221,0.7221 -0.48141,0.48141 -0.96282,0.96282 -1.44421,1.4442 -0.0108,0.0108 -1.3713,1.29839 -1.4442,1.44423 -0.0538,0.10763 0.0851,0.27593 0,0.36105 -0.0851,0.0851 -0.25341,-0.0538 -0.36107,0 -0.15222,0.0761 -0.21942,0.26662 -0.36105,0.36105 -0.22392,0.14928 -0.50681,0.19957 -0.72211,0.36105 -0.2723,0.20423 -0.45627,0.50945 -0.7221,0.7221 -0.33882,0.27107 -0.7221,0.48141 -1.08315,0.7221 -0.36105,0.36105 -0.6909,0.75629 -1.08315,1.08315 -0.33335,0.27781 -0.74432,0.45104 -1.08315,0.7221 -0.26583,0.21265 -0.48141,0.48141 -0.7221,0.7221 -0.24072,0.24072 -0.53329,0.43889 -0.72213,0.72213 -0.0667,0.10012 0.0539,0.25339 0,0.36105 -0.0761,0.15222 -0.28493,0.20881 -0.36105,0.36105 -0.037,0.0741 -0.0509,1.03222 0,1.08315 0.0851,0.0851 0.27596,-0.0851 0.36105,0 0.0116,0.0117 0,0.99558 0,1.08315 0,1.00124 -0.0538,-0.57634 0.36108,1.08316 0.0734,0.2936 0,1.78834 0,2.1663 0,0.12036 0,0.24072 0,0.36108 0,0.12033 -0.0538,0.25339 0,0.36105 0.0761,0.15221 0.28493,0.2088 0.36105,0.36105 0.249,0.49799 -0.43728,0.32295 0.36105,0.7221 0.10763,0.0538 0.27593,-0.0851 0.36105,0 0.74703,0.74702 -1.14157,-0.0292 0.36105,0.7221 0.10763,0.0538 0.25339,-0.0538 0.36105,0 0.15222,0.0761 0.20881,0.28493 0.36105,0.36105 0.10763,0.0538 0.27596,-0.0851 0.36105,0 0.0851,0.0851 -0.0851,0.27596 0,0.36105 0.17021,0.1702 0.5519,-0.17021 0.7221,0 0.0851,0.0851 -0.0851,0.27596 0,0.36105 0.17021,0.17021 0.5519,-0.17021 0.7221,0 0.0851,0.0851 -0.0851,0.27596 0,0.36105 0.17021,0.17021 0.50681,-0.10763 0.7221,0 0.15225,0.0761 0.20884,0.28493 0.36105,0.36105 0.0934,0.0467 1.9104,0 2.16633,0 0.25591,0 2.07296,0.0467 2.16631,0 0.15224,-0.0761 0.20881,-0.28493 0.36105,-0.36105 0.10988,-0.0549 0.92056,0 1.08315,0 0.7221,0 1.4442,0 2.16633,0 0.48138,0 0.96279,0 1.4442,0 0.12033,0 0.36105,-0.12036 0.36105,0 0,0.12036 -0.24072,0 -0.36105,0 -0.24072,0 -0.48141,0 -0.7221,0 -0.48141,0 -0.96282,0 -1.44423,0 -0.24069,0 -0.48607,0.0472 -0.7221,0 -0.3732,-0.0746 -0.70774,-0.29848 -1.08315,-0.36105 -0.35613,-0.0593 -0.7221,0 -1.08315,0 -0.36105,0 -0.7221,0 -1.08315,0 -0.72211,0 -1.44421,0 -2.16633,0 -0.36105,0 -0.727,-0.0593 -1.08316,0 -1.50259,0.25043 -0.62666,0.32925 -1.80525,0.7221 -1.07479,0.35827 0.74081,-0.85492 -1.08315,0.36105 -0.14163,0.0944 -0.20883,0.28493 -0.36105,0.36105 -0.10766,0.0538 -0.27596,-0.0851 -0.36105,0 -0.0851,0.0851 0.0538,0.25342 0,0.36105 -0.0761,0.15224 -0.24072,0.24072 -0.36105,0.36105 -1.19748,1.19748 0.17021,-0.34039 -0.36105,0.7221 -0.17764,0.35531 -1.26659,1.08895 -1.44423,1.44423 -0.0538,0.10763 0.0381,0.24686 0,0.36105 -0.0851,0.2553 -0.21177,0.49818 -0.36105,0.7221 -0.0944,0.14161 -0.30721,0.19958 -0.36105,0.36105 -0.0761,0.22834 0.0761,0.49374 0,0.7221 -0.0538,0.16148 -0.30723,0.19958 -0.36105,0.36105 -0.11417,0.34253 0,0.7221 0,1.08315 0,0.24072 0,0.48141 0,0.72211 0,0.24071 -0.0584,0.4886 0,0.7221 0.0653,0.26109 0.27596,0.4668 0.36105,0.72212 0.0381,0.11417 -0.038,0.24686 0,0.36105 0.0851,0.2553 0.24072,0.48139 0.36105,0.7221 0.12036,0.2407 0.21177,0.49819 0.36105,0.72211 0.0944,0.1416 0.26665,0.21941 0.36105,0.36105 0.14928,0.22391 0.2118,0.49818 0.36108,0.7221 0.0944,0.1416 0.26662,0.21944 0.36105,0.36105 0.14928,0.22391 0.21177,0.49818 0.36105,0.7221 0.18881,0.28323 0.56986,0.41764 0.7221,0.7221 0.0538,0.10766 -0.0538,0.25342 0,0.36105 0.15222,0.30448 0.56986,0.41764 0.7221,0.7221 0.0538,0.10766 -0.0538,0.25342 0,0.36108 0.0761,0.15221 0.28493,0.20881 0.36105,0.36105 0.14441,0.28882 -0.14441,0.7943 0,1.08315 0.0761,0.15221 0.30724,0.19957 0.36105,0.36105 0.12788,0.38364 -0.1279,1.06055 0,1.4442 0.0851,0.2553 0.27596,0.4668 0.36105,0.7221 0.0761,0.22836 -0.10763,0.50681 0,0.7221 0.0761,0.15224 0.28493,0.20884 0.36105,0.36105 0.0538,0.10766 0,0.24072 0,0.36105 0,0.12036 0,0.24072 0,0.36105 0,0.48141 0,0.96282 0,1.44423 0,0.60174 0,1.20349 0,1.80525 0,0.36105 0.11417,0.74063 0,1.08315 -0.0538,0.16148 -0.28493,0.20881 -0.36105,0.36106 -0.0538,0.10765 0,0.24069 0,0.36105 -0.12036,0.24071 -0.21177,0.49818 -0.36105,0.7221 -0.0944,0.14163 -0.30723,0.1996 -0.36105,0.36105 -0.0761,0.22836 0.0584,0.4886 0,0.7221 -0.0653,0.26109 -0.29578,0.46103 -0.36105,0.72213 -0.0584,0.23349 0.0761,0.49373 0,0.7221 -0.0538,0.16144 -0.26665,0.21941 -0.36105,0.36105 -0.14928,0.22391 -0.24072,0.48138 -0.36105,0.7221 -0.12036,0.24069 -0.29578,0.46101 -0.36105,0.7221 -0.0876,0.35028 0.11417,0.74062 0,1.08315 -0.46871,1.4061 -0.36105,0.0338 -0.36105,1.4442 0,0.33898 0.0689,1.5984 0,1.80528 -0.0538,0.16145 -0.30723,0.19957 -0.36105,0.36105 -0.0585,0.17539 0,2.15874 0,2.52735 0,1.16221 -0.0851,-0.61634 0.36105,0.7221 0.0761,0.22837 0,0.48141 0,0.7221 0,0.12036 -0.0538,0.25342 0,0.36105 0.0761,0.15225 0.28493,0.20884 0.36105,0.36106 0.14441,0.28884 -0.14444,0.79433 0,1.08317 0.0761,0.15222 0.28493,0.20881 0.36105,0.36105 0.0482,0.0965 -0.22892,1.6731 0.36105,1.08315 0.0623,-0.0623 -0.0503,-1.60424 0,-1.80527 0.0653,-0.26107 0.24069,-0.48139 0.36105,-0.7221"
       id="path4877"
       inkscape:connector-curvature="0" />
  </g>
</svg>
