<?xml version="1.0" encoding="UTF-8" standalone="no"?>
<!-- Created with Inkscape (http://www.inkscape.org/) -->

<svg
   xmlns:dc="http://purl.org/dc/elements/1.1/"
   xmlns:cc="http://creativecommons.org/ns#"
   xmlns:rdf="http://www.w3.org/1999/02/22-rdf-syntax-ns#"
   xmlns:svg="http://www.w3.org/2000/svg"
   xmlns="http://www.w3.org/2000/svg"
   xmlns:xlink="http://www.w3.org/1999/xlink"
   xmlns:sodipodi="http://sodipodi.sourceforge.net/DTD/sodipodi-0.dtd"
   xmlns:inkscape="http://www.inkscape.org/namespaces/inkscape"
   width="1052.3622"
   height="744.09448"
   id="svg2"
   version="1.1"
   inkscape:version="0.48.4 r9939"
   sodipodi:docname="Porphyrograph_core_layers.svg">
  <defs
     id="defs4">
    <pattern
       inkscape:collect="always"
       xlink:href="#Polkadots-med"
       id="pattern6232"
       patternTransform="matrix(9.4773004,0,0,9.4773004,265.88193,262.36726)" />
    <pattern
       inkscape:stockid="Polka dots, medium"
       id="Polkadots-med"
       patternTransform="translate(0,0) scale(10,10)"
       height="10"
       width="10"
       patternUnits="userSpaceOnUse"
       inkscape:collect="always">
      <circle
         id="circle5697"
         r="0.15"
         cy="0.810"
         cx="2.567"
         style="fill:black;stroke:none" />
      <circle
         id="circle5699"
         r="0.15"
         cy="2.33"
         cx="3.048"
         style="fill:black;stroke:none" />
      <circle
         id="circle5701"
         r="0.15"
         cy="2.415"
         cx="4.418"
         style="fill:black;stroke:none" />
      <circle
         id="circle5703"
         r="0.15"
         cy="3.029"
         cx="1.844"
         style="fill:black;stroke:none" />
      <circle
         id="circle5705"
         r="0.15"
         cy="1.363"
         cx="6.08"
         style="fill:black;stroke:none" />
      <circle
         id="circle5707"
         r="0.15"
         cy="4.413"
         cx="5.819"
         style="fill:black;stroke:none" />
      <circle
         id="circle5709"
         r="0.15"
         cy="4.048"
         cx="4.305"
         style="fill:black;stroke:none" />
      <circle
         id="circle5711"
         r="0.15"
         cy="3.045"
         cx="5.541"
         style="fill:black;stroke:none" />
      <circle
         id="circle5713"
         r="0.15"
         cy="5.527"
         cx="4.785"
         style="fill:black;stroke:none" />
      <circle
         id="circle5715"
         r="0.15"
         cy="5.184"
         cx="2.667"
         style="fill:black;stroke:none" />
      <circle
         id="circle5717"
         r="0.15"
         cy="1.448"
         cx="7.965"
         style="fill:black;stroke:none" />
      <circle
         id="circle5719"
         r="0.15"
         cy="5.049"
         cx="7.047"
         style="fill:black;stroke:none" />
      <circle
         id="circle5721"
         r="0.15"
         cy="0.895"
         cx="4.340"
         style="fill:black;stroke:none" />
      <circle
         id="circle5723"
         r="0.15"
         cy="0.340"
         cx="7.125"
         style="fill:black;stroke:none" />
      <circle
         id="circle5725"
         r="0.15"
         cy="1.049"
         cx="9.553"
         style="fill:black;stroke:none" />
      <circle
         id="circle5727"
         r="0.15"
         cy="2.689"
         cx="7.006"
         style="fill:black;stroke:none" />
      <circle
         id="circle5729"
         r="0.15"
         cy="2.689"
         cx="8.909"
         style="fill:black;stroke:none" />
      <circle
         id="circle5731"
         r="0.15"
         cy="4.407"
         cx="9.315"
         style="fill:black;stroke:none" />
      <circle
         id="circle5733"
         r="0.15"
         cy="3.870"
         cx="7.820"
         style="fill:black;stroke:none" />
      <circle
         id="circle5735"
         r="0.15"
         cy="5.948"
         cx="8.270"
         style="fill:black;stroke:none" />
      <circle
         id="circle5737"
         r="0.15"
         cy="7.428"
         cx="7.973"
         style="fill:black;stroke:none" />
      <circle
         id="circle5739"
         r="0.15"
         cy="8.072"
         cx="9.342"
         style="fill:black;stroke:none" />
      <circle
         id="circle5741"
         r="0.15"
         cy="9.315"
         cx="8.206"
         style="fill:black;stroke:none" />
      <circle
         id="circle5743"
         r="0.15"
         cy="9.475"
         cx="9.682"
         style="fill:black;stroke:none" />
      <circle
         id="circle5745"
         r="0.15"
         cy="6.186"
         cx="9.688"
         style="fill:black;stroke:none" />
      <circle
         id="circle5747"
         r="0.15"
         cy="6.296"
         cx="3.379"
         style="fill:black;stroke:none" />
      <circle
         id="circle5749"
         r="0.15"
         cy="8.204"
         cx="2.871"
         style="fill:black;stroke:none" />
      <circle
         id="circle5751"
         r="0.15"
         cy="8.719"
         cx="4.59"
         style="fill:black;stroke:none" />
      <circle
         id="circle5753"
         r="0.15"
         cy="9.671"
         cx="3.181"
         style="fill:black;stroke:none" />
      <circle
         id="circle5755"
         r="0.15"
         cy="7.315"
         cx="5.734"
         style="fill:black;stroke:none" />
      <circle
         id="circle5757"
         r="0.15"
         cy="6.513"
         cx="6.707"
         style="fill:black;stroke:none" />
      <circle
         id="circle5759"
         r="0.15"
         cy="9.670"
         cx="5.730"
         style="fill:black;stroke:none" />
      <circle
         id="circle5761"
         r="0.15"
         cy="8.373"
         cx="6.535"
         style="fill:black;stroke:none" />
      <circle
         id="circle5763"
         r="0.15"
         cy="7.154"
         cx="4.37"
         style="fill:black;stroke:none" />
      <circle
         id="circle5765"
         r="0.15"
         cy="7.25"
         cx="0.622"
         style="fill:black;stroke:none" />
      <circle
         id="circle5767"
         r="0.15"
         cy="5.679"
         cx="0.831"
         style="fill:black;stroke:none" />
      <circle
         id="circle5769"
         r="0.15"
         cy="8.519"
         cx="1.257"
         style="fill:black;stroke:none" />
      <circle
         id="circle5771"
         r="0.15"
         cy="6.877"
         cx="1.989"
         style="fill:black;stroke:none" />
      <circle
         id="circle5773"
         r="0.15"
         cy="3.181"
         cx="0.374"
         style="fill:black;stroke:none" />
      <circle
         id="circle5775"
         r="0.15"
         cy="1.664"
         cx="1.166"
         style="fill:black;stroke:none" />
      <circle
         id="circle5777"
         r="0.15"
         cy="0.093"
         cx="1.151"
         style="fill:black;stroke:none" />
      <circle
         id="circle5779"
         r="0.15"
         cy="10.093"
         cx="1.151"
         style="fill:black;stroke:none" />
      <circle
         id="circle5781"
         r="0.15"
         cy="4.451"
         cx="1.302"
         style="fill:black;stroke:none" />
      <circle
         id="circle5783"
         r="0.15"
         cy="3.763"
         cx="3.047"
         style="fill:black;stroke:none" />
    </pattern>
    <marker
       inkscape:stockid="Arrow1Mend"
       orient="auto"
       refY="0"
       refX="0"
       id="Arrow1Mend"
       style="overflow:visible">
      <path
         id="path3800"
         d="M 0,0 5,-5 -12.5,0 5,5 0,0 z"
         style="fill-rule:evenodd;stroke:#000000;stroke-width:1pt"
         transform="matrix(-0.4,0,0,-0.4,-4,0)"
         inkscape:connector-curvature="0" />
    </marker>
    <marker
       inkscape:stockid="Arrow1Lend"
       orient="auto"
       refY="0"
       refX="0"
       id="Arrow1Lend"
       style="overflow:visible">
      <path
         id="path3794"
         d="M 0,0 5,-5 -12.5,0 5,5 0,0 z"
         style="fill-rule:evenodd;stroke:#000000;stroke-width:1pt"
         transform="matrix(-0.8,0,0,-0.8,-10,0)"
         inkscape:connector-curvature="0" />
    </marker>
  </defs>
  <sodipodi:namedview
     id="base"
     pagecolor="#ffffff"
     bordercolor="#666666"
     borderopacity="1.0"
     inkscape:pageopacity="0.0"
     inkscape:pageshadow="2"
     inkscape:zoom="0.7"
     inkscape:cx="218.96792"
     inkscape:cy="448.18975"
     inkscape:document-units="px"
     inkscape:current-layer="layer1"
     showgrid="true"
     gridtolerance="10"
     inkscape:window-width="1920"
     inkscape:window-height="1050"
     inkscape:window-x="0"
     inkscape:window-y="1"
     inkscape:window-maximized="1">
    <inkscape:grid
       type="xygrid"
       id="grid2985"
       empspacing="5"
       visible="true"
       enabled="true"
       snapvisiblegridlinesonly="true"
       units="cm"
       spacingx="1cm"
       spacingy="1cm" />
  </sodipodi:namedview>
  <metadata
     id="metadata7">
    <rdf:RDF>
      <cc:Work
         rdf:about="">
        <dc:format>image/svg+xml</dc:format>
        <dc:type
           rdf:resource="http://purl.org/dc/dcmitype/StillImage" />
        <dc:title></dc:title>
      </cc:Work>
    </rdf:RDF>
  </metadata>
  <g
     inkscape:label="Layer 1"
     inkscape:groupmode="layer"
     id="layer1"
     transform="translate(0,-308.2677)">
    <rect
       style="fill:#ffffff;fill-opacity:1;stroke:#ffffff;stroke-width:2.70000005;stroke-linejoin:bevel;stroke-miterlimit:4;stroke-opacity:1;stroke-dasharray:none;stroke-dashoffset:0"
       id="rect6482"
       width="956.69293"
       height="688.85266"
       x="35.433071"
       y="19.808767"
       transform="translate(0,308.2677)" />
    <path
       style="fill:none;stroke:#000000;stroke-width:0.94773006px;stroke-linecap:butt;stroke-linejoin:miter;stroke-opacity:1"
       d="m 299.46291,487.35984 167.90493,-134.32393 436.55282,0 -167.90494,134.32393 z"
       id="path2987"
       inkscape:connector-curvature="0" />
    <path
       inkscape:connector-curvature="0"
       id="path2989"
       d="m 299.46291,655.9204 167.90493,-134.32394 436.55282,0 -167.90494,134.32394 z"
       style="fill:none;stroke:#000000;stroke-width:0.94773006px;stroke-linecap:butt;stroke-linejoin:miter;stroke-opacity:1" />
    <path
       style="fill:none;stroke:#000000;stroke-width:0.94773006px;stroke-linecap:butt;stroke-linejoin:miter;stroke-opacity:1"
       d="m 299.46291,827.18876 167.90493,-134.32394 436.55282,0 -167.90494,134.32394 z"
       id="path2991"
       inkscape:connector-curvature="0" />
    <path
       inkscape:connector-curvature="0"
       id="path2993"
       d="m 299.46291,997.10321 167.90493,-134.32394 436.55282,0 -167.90494,134.32394 z"
       style="fill:url(#pattern6232);fill-opacity:1;stroke:#000000;stroke-width:0.94773006px;stroke-linecap:butt;stroke-linejoin:miter;stroke-opacity:1" />
    <text
       xml:space="preserve"
       style="font-size:22.74552155px;font-style:normal;font-variant:normal;font-weight:normal;font-stretch:normal;text-align:start;line-height:125%;letter-spacing:0px;word-spacing:0px;writing-mode:lr-tb;text-anchor:start;fill:#000000;fill-opacity:1;stroke:none;font-family:Myriad Pro;-inkscape-font-specification:Sans"
       x="380.28647"
       y="471.07568"
       id="text2995"
       sodipodi:linespacing="125%"><tspan
         sodipodi:role="line"
         id="tspan2997"
         x="380.28647"
         y="471.07568">LAYER #2</tspan></text>
    <text
       sodipodi:linespacing="125%"
       id="text2999"
       y="646.40576"
       x="380.28647"
       style="font-size:22.74552155px;font-style:normal;font-variant:normal;font-weight:normal;font-stretch:normal;text-align:start;line-height:125%;letter-spacing:0px;word-spacing:0px;writing-mode:lr-tb;text-anchor:start;fill:#000000;fill-opacity:1;stroke:none;font-family:Myriad Pro;-inkscape-font-specification:Sans"
       xml:space="preserve"><tspan
         y="646.40576"
         x="380.28647"
         id="tspan3001"
         sodipodi:role="line">LAYER #1</tspan></text>
    <text
       xml:space="preserve"
       style="font-size:22.74552155px;font-style:normal;font-variant:normal;font-weight:normal;font-stretch:normal;text-align:start;line-height:125%;letter-spacing:0px;word-spacing:0px;writing-mode:lr-tb;text-anchor:start;fill:#000000;fill-opacity:1;stroke:none;font-family:Myriad Pro;-inkscape-font-specification:Sans"
       x="380.28647"
       y="815.64325"
       id="text3003"
       sodipodi:linespacing="125%"><tspan
         sodipodi:role="line"
         id="tspan3005"
         x="380.28647"
         y="815.64325">BG LAYER (PARTICLES)</tspan></text>
    <rect
       style="fill:#ffffff;fill-opacity:1;stroke:#ffffff;stroke-width:2.55887127;stroke-linejoin:bevel;stroke-miterlimit:4;stroke-opacity:1;stroke-dasharray:none;stroke-dashoffset:0"
       id="rect6230"
       width="302.22888"
       height="33.580986"
       x="366.62488"
       y="957.49359" />
    <text
       sodipodi:linespacing="125%"
       id="text3007"
       y="981.49603"
       x="389.76379"
       style="font-size:22.74552155px;font-style:normal;font-variant:normal;font-weight:normal;font-stretch:normal;text-align:start;line-height:125%;letter-spacing:0px;word-spacing:0px;writing-mode:lr-tb;text-anchor:start;fill:#000000;fill-opacity:1;stroke:none;font-family:Myriad Pro;-inkscape-font-specification:Sans"
       xml:space="preserve"><tspan
         y="981.49603"
         x="389.76379"
         id="tspan3009"
         sodipodi:role="line">CELLULAR AUTOMATA LAYER</tspan></text>
    <path
       style="fill:#8c8c8c;fill-opacity:1;stroke:#ffffff;stroke-width:0.94773006;stroke-linejoin:bevel;stroke-miterlimit:4;stroke-opacity:1;stroke-dasharray:0.94773004, 1.89546008;stroke-dashoffset:0"
       id="path3011"
       d="m 556.18877,396.29992 c -4.69145,0.2802 -9.35969,0.85872 -13.99992,1.59446 -9.95488,1.54082 -19.77488,3.8476 -29.56082,6.21193 -10.34338,2.37174 -20.5202,5.37236 -30.55771,8.80349 -2.54171,0.93461 -5.18236,1.67713 -7.59858,2.92797 -0.45696,0.23656 -1.77111,1.04801 -1.32093,0.79879 7.68519,-4.25451 9.74084,-6.31302 7.01885,-3.71247 -1.12517,1.36313 -0.24414,2.72114 0.62469,3.9488 3.28182,3.73613 7.89185,5.75106 12.30724,7.79609 13.83943,5.85401 28.44746,9.70543 43.13615,12.75158 3.50453,0.72677 7.0343,1.3261 10.55145,1.98915 13.70901,2.45125 27.52082,4.35489 41.40009,5.51355 3.29209,0.13083 6.64148,0.56405 9.92932,0.15443 0.31423,-0.0496 0.6325,-0.0782 0.9427,-0.14878 0.4921,-0.11193 1.22184,-0.38726 1.67382,-0.59932 0.28213,-0.13236 1.09606,-0.59349 0.82597,-0.43801 -8.78106,5.05484 -10.22414,5.97839 -6.96696,3.93008 1.58225,-1.10604 2.73893,-2.64043 3.77384,-4.24263 0.7375,-1.45636 1.7485,-2.70039 2.85399,-3.8875 2.25311,-2.46162 4.732,-4.64697 7.40924,-6.63148 8.58426,-5.51023 17.44137,-10.81542 26.90209,-14.70016 1.75978,-0.72259 3.56002,-1.34247 5.34002,-2.0137 11.59914,-3.87209 23.71819,-5.37055 35.84553,-6.35147 4.41392,-0.19276 8.85637,-0.25758 13.25259,0.26889 1.68967,0.20234 3.26863,0.46559 4.84248,1.1195 0.56066,0.23295 1.06704,0.57949 1.60055,0.86924 2.92751,2.23711 2.99463,5.82904 3.14531,9.2124 0.30936,5.16943 -0.70616,9.73679 -2.36519,14.59096 -2.34743,6.20017 -6.06722,11.74606 -9.48805,17.38767 -0.92494,1.58022 -2.04244,3.04771 -2.89662,4.67061 -0.1319,0.25059 -0.24646,0.51054 -0.34956,0.77427 -0.12745,0.32602 -0.0699,0.54846 -0.12367,0.14494 0.045,-0.16309 0.025,-0.36067 0.13493,-0.48928 0.29718,-0.34771 2.42414,-1.41317 2.76537,-1.60183 0.54113,-0.29919 2.16113,-1.20254 1.62723,-0.89061 -2.16004,1.26202 -4.33742,2.4941 -6.50614,3.74115 3.6106,-2.06449 7.22119,-4.12899 10.83179,-6.19349 0.97256,-0.53331 3.87568,-2.159 2.91769,-1.59995 -1.59938,0.93335 -3.03494,2.31948 -4.84222,2.72305 -1.49607,0.33407 2.57888,-1.6581 3.85779,-2.50322 4.77143,-3.15304 3.84941,-2.5643 8.55991,-5.98709 8.67295,-6.49036 16.3881,-14.11339 24.43447,-21.33475 5.42411,-5.01733 11.63502,-8.97349 17.90495,-12.81847 1.97136,-1.16042 3.85719,-2.45678 5.7345,-3.76135 0,0 9.29171,-3.66054 9.29171,-3.66054 l 0,0 c -1.92423,1.35959 -3.87109,2.69501 -5.89996,3.89457 -6.36266,3.84108 -12.71196,7.73277 -18.2346,12.76132 -8.12006,7.18293 -15.82007,14.8597 -24.4574,21.44125 -5.05769,3.73917 -3.35088,2.56526 -8.4464,5.99442 -1.25311,0.8433 -2.47893,1.73028 -3.77157,2.51165 -3.86047,2.33358 -7.77843,4.57083 -11.6828,6.83022 -0.98215,0.56835 -3.94442,2.24436 -2.97617,1.65265 1.96714,-1.20216 3.98274,-2.32316 5.97411,-3.48475 -3.46555,2.00325 -6.9266,4.01427 -10.39663,6.00973 -0.66711,0.38362 -3.93804,2.42622 -4.7429,2.35908 -0.26374,-0.022 -0.48138,-0.22009 -0.72208,-0.33014 -0.12345,-0.19289 -0.30809,-0.35828 -0.37036,-0.57866 -0.40429,-1.43061 2.86026,-5.1558 3.45277,-6.32725 3.46063,-5.5613 7.1748,-11.05799 9.56092,-17.18968 0.6863,-1.92766 1.17576,-3.12405 1.638,-5.11082 0.69264,-2.97706 0.92148,-6.04714 0.78909,-9.09519 -0.0994,-2.35918 0.0634,-5.52247 -1.62675,-7.43423 -0.297,-0.33592 -0.68171,-0.58264 -1.02255,-0.87396 -0.48556,-0.24925 -0.94924,-0.54675 -1.45667,-0.74774 -1.44757,-0.57337 -3.03329,-0.86078 -4.56522,-1.05655 -4.28262,-0.54729 -8.61526,-0.51599 -12.91908,-0.31196 -12.09179,0.97071 -24.16908,2.55849 -35.68537,6.5667 -5.12854,2.00058 -5.41042,1.99032 -10.29047,4.35749 -1.50204,0.7286 -4.40504,3.95695 -4.45497,2.28826 -0.0517,-1.72923 2.98681,-1.74846 4.44318,-2.6822 1.78063,-1.14164 -6.55303,3.85115 -5.39939,3.33344 -2.65265,1.89681 -5.12784,3.95908 -7.30868,6.39573 -1.09673,1.13114 -2.2531,2.25583 -2.92253,3.70685 -1.04809,1.66759 -2.12003,3.31961 -3.62852,4.62111 -4.11203,3.04179 -8.65963,6.31233 -13.85554,6.87209 -3.26504,0.15298 -6.53342,-0.15668 -9.77881,-0.48846 -13.61029,-1.60056 -27.15474,-3.73878 -40.64417,-6.14529 -18.45155,-3.53475 -36.94244,-7.50555 -54.45165,-14.47687 -4.67502,-2.02199 -9.60964,-4.0026 -13.02732,-7.9545 -1.08492,-1.50587 -2.12733,-3.27287 -1.23997,-5.12924 2.6729,-3.73605 0.41825,-0.8001 9.96477,-6.44994 2.70076,-1.59837 5.85768,-2.26126 8.7591,-3.36852 10.01334,-3.29088 20.13482,-6.23113 30.41236,-8.58811 9.90083,-2.39217 19.82914,-4.73989 29.88979,-6.3655 4.74689,-0.75231 9.51525,-1.31344 14.30179,-1.74884 0,0 -8.06724,5.98494 -8.06724,5.98494 z"
       inkscape:connector-curvature="0" />
    <path
       style="fill:none;stroke:#000000;stroke-width:2.55887127;stroke-linecap:butt;stroke-linejoin:miter;stroke-miterlimit:4;stroke-opacity:1;stroke-dasharray:2.55887115, 2.55887115;stroke-dashoffset:0;marker-end:url(#Arrow1Mend)"
       d="m 299.46291,487.35984 c -161.96333,101.63761 -118.97396,252.5163 0,335.80986"
       id="path3785"
       inkscape:connector-curvature="0"
       sodipodi:nodetypes="cc" />
    <path
       sodipodi:nodetypes="cc"
       inkscape:connector-curvature="0"
       id="path4417"
       d="m 299.46291,655.26478 c -49.58963,33.58099 -67.16198,105.98271 0,167.90492"
       style="fill:none;stroke:#000000;stroke-width:2.55887127;stroke-linecap:butt;stroke-linejoin:miter;stroke-miterlimit:4;stroke-opacity:1;stroke-dasharray:2.55887115, 2.55887115;stroke-dashoffset:0;marker-end:url(#Arrow1Mend)" />
    <path
       style="fill:none;stroke:#000000;stroke-width:2.55887127;stroke-linecap:butt;stroke-linejoin:miter;stroke-miterlimit:4;stroke-opacity:1;stroke-dasharray:10.23548461, 2.55887115;stroke-dashoffset:0;marker-end:url(#Arrow1Mend)"
       d="m 299.46291,996.6044 c -49.6998,-34.57252 -73.63723,-125.43929 0,-167.90492"
       id="path4419"
       inkscape:connector-curvature="0"
       sodipodi:nodetypes="cc" />
    <path
       sodipodi:nodetypes="cc"
       inkscape:connector-curvature="0"
       id="path4421"
       d="m 299.46291,487.35984 c -192.42608,77.59371 -324.089829,335.80986 0,509.10907"
       style="fill:none;stroke:#000000;stroke-width:2.55887127;stroke-linecap:butt;stroke-linejoin:miter;stroke-miterlimit:4;stroke-opacity:1;stroke-dasharray:none;marker-end:url(#Arrow1Mend)" />
    <path
       style="fill:none;stroke:#000000;stroke-width:2.55887127;stroke-linecap:butt;stroke-linejoin:miter;stroke-miterlimit:4;stroke-opacity:1;stroke-dasharray:none;marker-end:url(#Arrow1Mend)"
       d="m 299.46291,655.26478 c -49.58963,33.58098 -268.647895,148.39598 0,343.23498"
       id="path4423"
       inkscape:connector-curvature="0"
       sodipodi:nodetypes="cc" />
    <text
       xml:space="preserve"
       style="font-size:22.74552155px;font-style:normal;font-variant:normal;font-weight:normal;font-stretch:normal;text-align:start;line-height:125%;letter-spacing:0px;word-spacing:0px;writing-mode:lr-tb;text-anchor:start;fill:#000000;fill-opacity:1;stroke:none;font-family:Myriad Pro;-inkscape-font-specification:Sans"
       x="211.04897"
       y="613.23523"
       id="text4425"
       sodipodi:linespacing="125%"><tspan
         sodipodi:role="line"
         x="211.04897"
         y="613.23523"
         id="tspan4429">BG</tspan><tspan
         sodipodi:role="line"
         x="211.04897"
         y="641.66711"
         id="tspan4433">FLASH</tspan></text>
    <text
       xml:space="preserve"
       style="font-size:22.74552155px;font-style:normal;font-variant:normal;font-weight:normal;font-stretch:normal;text-align:start;line-height:125%;letter-spacing:0px;word-spacing:0px;writing-mode:lr-tb;text-anchor:start;fill:#000000;fill-opacity:1;stroke:none;font-family:Myriad Pro;-inkscape-font-specification:Sans"
       x="125.75325"
       y="707.3313"
       id="text4435"
       sodipodi:linespacing="125%"><tspan
         sodipodi:role="line"
         id="tspan4437"
         x="125.75325"
         y="707.3313">CA</tspan><tspan
         sodipodi:role="line"
         x="125.75325"
         y="735.76318"
         id="tspan4439">FLASH</tspan></text>
    <text
       xml:space="preserve"
       style="font-size:22.74552155px;font-style:normal;font-variant:normal;font-weight:normal;font-stretch:normal;text-align:start;line-height:125%;letter-spacing:0px;word-spacing:0px;writing-mode:lr-tb;text-anchor:start;fill:#000000;fill-opacity:1;stroke:none;font-family:Myriad Pro;-inkscape-font-specification:Sans"
       x="271.97449"
       y="901.61591"
       id="text4441"
       sodipodi:linespacing="125%"><tspan
         sodipodi:role="line"
         id="tspan4443"
         x="271.97449"
         y="901.61591">FLASHBACK</tspan></text>
    <path
       style="fill:#8c8c8c;fill-opacity:1;stroke:#ffffff;stroke-width:2.55887127;stroke-linejoin:bevel;stroke-miterlimit:4;stroke-opacity:1;stroke-dasharray:none;stroke-dashoffset:0"
       id="path4445"
       d="m 633.24054,593.02465 c -10.31969,14.5311 -28.29547,23.63584 -44.49403,29.46779 -8.96151,2.82056 -18.33072,3.76609 -27.66808,4.24146 -6.11787,0.10579 -9.54517,-3.89332 -12.93253,-8.43035 -4.45368,-6.3623 -8.78033,-12.78029 -12.72725,-19.47557 -8.50518,-16.38969 -3.5811,-9.8637 21.78467,-22.41548 1.11811,2.71034 2.41061,5.19252 4.3846,7.3658 3.23336,3.71945 8.03241,4.31634 12.65499,4.83514 8.74001,0.96911 17.28564,-1.38167 25.56681,-3.89686 9.86329,-3.17212 19.81931,-6.06056 29.81263,-8.79838 8.39309,-2.30745 17.03254,-3.34536 25.69454,-3.9064 5.27513,-0.61787 9.87464,0.51091 14.25315,3.38465 4.31839,3.32342 8.18344,7.17942 12.20687,10.84269 4.03491,3.14085 8.10919,6.85656 13.36078,7.52915 2.9253,0.0444 5.98607,-0.87521 8.38476,-2.56437 9.02026,-4.65472 5.10136,-2.65614 -21.97993,12.68112 -0.40315,0.22832 0.75069,-0.5433 1.13003,-0.80934 1.28793,-0.90324 2.3054,-1.87259 3.3984,-3.00966 2.6824,-2.49459 5.10899,-5.10172 7.01161,-8.2392 2.0139,-2.69442 2.79371,-5.78351 3.21023,-9.05554 0.61283,-3.63881 -0.13726,-7.03871 -1.1932,-10.49982 -1.2927,-3.26126 -2.45469,-6.84164 -5.18416,-9.19151 -1.93847,-2.50806 -4.91369,-2.53968 -7.60824,-3.60326 -4.23902,-1.30701 -8.71742,-1.39761 -13.1143,-1.57389 -6.98831,-1.0128 -14.03086,-1.49398 -21.08004,-1.80444 -6.94112,-0.24692 -13.88748,-0.26328 -20.83211,-0.28182 -7.4461,-0.005 -14.89225,-0.0157 -22.33832,0.0109 -6.1146,0.1291 -12.31888,0.70893 -18.3399,1.83764 -5.50112,0.64316 -10.70061,2.18384 -15.70438,4.53085 -4.32179,2.32857 -8.68057,3.88328 -13.54238,4.57777 -5.86086,0.65816 -11.77702,0.59611 -17.66695,0.61193 -5.18964,0.0136 -10.37929,0.0156 -15.56894,0.0171 -4.01135,-0.0694 -7.9393,-1.09769 -11.93492,-1.52807 -3.77488,-0.34532 -7.56847,-0.37102 -11.35598,-0.39567 -4.6265,-0.078 -9.04386,1.93727 -13.24434,3.69338 -9.02143,3.80314 -23.72057,12.36398 14.89139,-9.17185 1.04819,-0.58464 -2.02912,1.28276 -3.03057,1.94427 -2.78097,1.83698 -2.72792,1.85636 -5.37236,3.83225 -3.68422,3.12724 -7.35782,6.48784 -9.8522,10.67023 -1.69563,3.49388 -1.7081,7.41398 -1.79184,11.21389 -0.0338,4.1323 0.0242,8.26468 0.0535,12.39687 0.045,2.91465 1.04818,4.91476 3.29954,6.68379 1.83028,2.05866 4.4945,2.87198 6.95217,3.94935 0.44529,0.14024 0.89059,0.28049 1.3359,0.42074 0,0 -23.60459,15.91758 -23.60459,15.91758 l 0,0 c -0.48926,-0.20111 -0.97854,-0.40222 -1.4678,-0.60333 -2.66546,-1.26964 -5.42322,-2.34544 -7.41474,-4.64289 -2.58735,-2.47413 -4.18725,-5.15217 -4.38786,-8.82267 -0.0175,-4.15552 -0.0525,-8.31103 -0.0464,-12.46661 0.0346,-4.13306 -0.0758,-8.34777 1.20207,-12.33114 1.99425,-4.81947 5.81663,-8.39134 9.57827,-11.90056 12.34076,-10.45341 27.05771,-18.14383 41.85502,-24.53566 4.52724,-1.70106 9.12245,-3.28354 14.03999,-2.91431 3.85207,0.0632 7.71137,0.16013 11.53722,0.65299 3.88906,0.53588 7.75386,1.44005 11.70395,1.27622 5.13897,0.0297 10.27797,0.0804 15.41706,0.0605 5.8267,-0.0623 11.69849,-0.0445 17.45283,-1.08241 4.63846,-1.09028 8.84067,-3.10429 13.16914,-5.05751 5.20281,-1.97579 10.53935,-3.27087 16.0705,-3.95656 6.13153,-0.84122 12.31627,-1.5378 18.51471,-1.40684 7.44683,0.0175 14.89368,-0.0119 22.34053,-9.4e-4 6.9676,0.0176 13.93924,0.0283 20.89928,0.39458 7.08274,0.3841 14.13596,1.05053 21.19647,1.71294 4.64372,0.2487 9.34128,0.52456 13.75729,2.11821 3.15488,0.92765 6.07393,2.05902 8.26892,4.65139 2.80723,2.95893 4.38994,6.68166 5.83272,10.45733 1.19424,3.77002 2.32346,7.4808 1.75903,11.49159 -0.27128,3.57062 -0.67674,7.18317 -2.62838,10.28592 -2.12956,3.01893 -3.59758,6.53951 -6.82662,8.6681 -1.00093,1.13832 -1.96482,2.57225 -3.10277,3.57609 -8.01081,7.06668 -18.31948,11.48331 -27.91125,16.33477 -3.16043,1.03039 -6.16318,1.89923 -9.49992,0.92125 -5.30387,-1.82087 -9.72545,-5.19632 -13.94291,-8.82914 -3.93417,-3.52668 -7.75378,-7.23653 -12.07879,-10.28515 -4.08941,-2.23736 -8.46471,-2.56807 -13.08059,-2.09119 -8.49263,0.62531 -16.93457,1.8316 -25.13842,4.18794 -9.99069,2.76834 -19.92329,5.74301 -29.81489,8.84663 -8.63637,2.38497 -17.48117,4.41656 -26.49236,3.13226 -5.2768,-0.81689 -10.32562,-2.16003 -13.95612,-6.37451 -1.95802,-2.21346 -3.50014,-4.6606 -4.58664,-7.41748 8.21769,-4.71415 16.5264,-9.27307 24.65306,-14.14245 0.17823,-0.10678 -0.44581,-0.48564 -0.54469,-0.30293 -0.15472,0.28589 0.11766,0.63963 0.19112,0.95628 0.58558,2.52435 1.39147,4.95902 2.74626,7.19431 3.8002,6.64902 8.15999,12.89798 12.64804,19.09519 3.1432,3.93517 6.04362,6.63368 11.38243,6.19019 9.10181,-0.5072 18.22342,-1.56947 26.83514,-4.74169 10.78307,-4.64105 11.25352,-5.10242 -14.06473,9.17123 -1.36685,0.77059 2.60352,-1.75702 3.83793,-2.7257 2.65244,-2.08147 5.02159,-4.48061 6.81361,-7.3472 0,0 26.05828,-11.40137 26.05828,-11.40137 z"
       inkscape:connector-curvature="0" />
    <path
       sodipodi:type="arc"
       style="fill:#8c8c8c;fill-opacity:1;stroke:#ffffff;stroke-width:2.70000005;stroke-linejoin:bevel;stroke-miterlimit:4;stroke-opacity:1;stroke-dasharray:none;stroke-dashoffset:0"
       id="path4447"
       sodipodi:cx="225.94206"
       sodipodi:cy="507.71933"
       sodipodi:rx="13.343645"
       sodipodi:ry="4.6428571"
       d="m 239.28571,507.71933 a 13.343645,4.6428571 0 1 1 -26.68729,0 13.343645,4.6428571 0 1 1 26.68729,0 z"
       transform="matrix(0.94773004,0,0,0.94773004,334.25387,248.82827)" />
    <path
       d="m 239.28571,507.71933 a 13.343645,4.6428571 0 1 1 -26.68729,0 13.343645,4.6428571 0 1 1 26.68729,0 z"
       sodipodi:ry="4.6428571"
       sodipodi:rx="13.343645"
       sodipodi:cy="507.71933"
       sodipodi:cx="225.94206"
       id="path4449"
       style="fill:#8c8c8c;fill-opacity:1;stroke:#ffffff;stroke-width:2.70000005;stroke-linejoin:bevel;stroke-miterlimit:4;stroke-opacity:1;stroke-dasharray:none;stroke-dashoffset:0"
       sodipodi:type="arc"
       transform="matrix(0.94773004,0,0,0.94773004,287.54432,284.70662)" />
    <path
       sodipodi:type="arc"
       style="fill:#8c8c8c;fill-opacity:1;stroke:#ffffff;stroke-width:2.70000005;stroke-linejoin:bevel;stroke-miterlimit:4;stroke-opacity:1;stroke-dasharray:none;stroke-dashoffset:0"
       id="path4451"
       sodipodi:cx="225.94206"
       sodipodi:cy="507.71933"
       sodipodi:rx="13.343645"
       sodipodi:ry="4.6428571"
       d="m 239.28571,507.71933 a 13.343645,4.6428571 0 1 1 -26.68729,0 13.343645,4.6428571 0 1 1 26.68729,0 z"
       transform="matrix(0.94773004,0,0,0.94773004,287.54432,244.76656)" />
    <path
       d="m 239.28571,507.71933 a 13.343645,4.6428571 0 1 1 -26.68729,0 13.343645,4.6428571 0 1 1 26.68729,0 z"
       sodipodi:ry="4.6428571"
       sodipodi:rx="13.343645"
       sodipodi:cy="507.71933"
       sodipodi:cx="225.94206"
       id="path4453"
       style="fill:#8c8c8c;fill-opacity:1;stroke:#ffffff;stroke-width:2.70000005;stroke-linejoin:bevel;stroke-miterlimit:4;stroke-opacity:1;stroke-dasharray:none;stroke-dashoffset:0"
       sodipodi:type="arc"
       transform="matrix(0.94773004,0,0,0.94773004,332.89997,262.36726)" />
    <path
       transform="matrix(0.94773004,0,0,0.94773004,297.02162,258.30557)"
       d="m 239.28571,507.71933 a 13.343645,4.6428571 0 1 1 -26.68729,0 13.343645,4.6428571 0 1 1 26.68729,0 z"
       sodipodi:ry="4.6428571"
       sodipodi:rx="13.343645"
       sodipodi:cy="507.71933"
       sodipodi:cx="225.94206"
       id="path4455"
       style="fill:#8c8c8c;fill-opacity:1;stroke:#ffffff;stroke-width:2.70000005;stroke-linejoin:bevel;stroke-miterlimit:4;stroke-opacity:1;stroke-dasharray:none;stroke-dashoffset:0"
       sodipodi:type="arc" />
    <path
       transform="matrix(0.94773004,0,0,0.94773004,250.31207,294.18392)"
       sodipodi:type="arc"
       style="fill:#8c8c8c;fill-opacity:1;stroke:#ffffff;stroke-width:2.70000005;stroke-linejoin:bevel;stroke-miterlimit:4;stroke-opacity:1;stroke-dasharray:none;stroke-dashoffset:0"
       id="path4457"
       sodipodi:cx="225.94206"
       sodipodi:cy="507.71933"
       sodipodi:rx="13.343645"
       sodipodi:ry="4.6428571"
       d="m 239.28571,507.71933 a 13.343645,4.6428571 0 1 1 -26.68729,0 13.343645,4.6428571 0 1 1 26.68729,0 z" />
    <path
       transform="matrix(0.94773004,0,0,0.94773004,250.31207,254.24386)"
       d="m 239.28571,507.71933 a 13.343645,4.6428571 0 1 1 -26.68729,0 13.343645,4.6428571 0 1 1 26.68729,0 z"
       sodipodi:ry="4.6428571"
       sodipodi:rx="13.343645"
       sodipodi:cy="507.71933"
       sodipodi:cx="225.94206"
       id="path4459"
       style="fill:#8c8c8c;fill-opacity:1;stroke:#ffffff;stroke-width:2.70000005;stroke-linejoin:bevel;stroke-miterlimit:4;stroke-opacity:1;stroke-dasharray:none;stroke-dashoffset:0"
       sodipodi:type="arc" />
    <path
       transform="matrix(0.94773004,0,0,0.94773004,295.66773,271.84456)"
       sodipodi:type="arc"
       style="fill:#8c8c8c;fill-opacity:1;stroke:#ffffff;stroke-width:2.70000005;stroke-linejoin:bevel;stroke-miterlimit:4;stroke-opacity:1;stroke-dasharray:none;stroke-dashoffset:0"
       id="path4461"
       sodipodi:cx="225.94206"
       sodipodi:cy="507.71933"
       sodipodi:rx="13.343645"
       sodipodi:ry="4.6428571"
       d="m 239.28571,507.71933 a 13.343645,4.6428571 0 1 1 -26.68729,0 13.343645,4.6428571 0 1 1 26.68729,0 z" />
    <path
       transform="matrix(0.94773004,0,0,0.94773004,406.68753,229.19671)"
       d="m 239.28571,507.71933 a 13.343645,4.6428571 0 1 1 -26.68729,0 13.343645,4.6428571 0 1 1 26.68729,0 z"
       sodipodi:ry="4.6428571"
       sodipodi:rx="13.343645"
       sodipodi:cy="507.71933"
       sodipodi:cx="225.94206"
       id="path4463"
       style="fill:#8c8c8c;fill-opacity:1;stroke:#ffffff;stroke-width:2.70000005;stroke-linejoin:bevel;stroke-miterlimit:4;stroke-opacity:1;stroke-dasharray:none;stroke-dashoffset:0"
       sodipodi:type="arc" />
    <path
       transform="matrix(0.94773004,0,0,0.94773004,359.97798,265.07506)"
       sodipodi:type="arc"
       style="fill:#8c8c8c;fill-opacity:1;stroke:#ffffff;stroke-width:2.70000005;stroke-linejoin:bevel;stroke-miterlimit:4;stroke-opacity:1;stroke-dasharray:none;stroke-dashoffset:0"
       id="path4465"
       sodipodi:cx="225.94206"
       sodipodi:cy="507.71933"
       sodipodi:rx="13.343645"
       sodipodi:ry="4.6428571"
       d="m 239.28571,507.71933 a 13.343645,4.6428571 0 1 1 -26.68729,0 13.343645,4.6428571 0 1 1 26.68729,0 z" />
    <path
       transform="matrix(0.94773004,0,0,0.94773004,359.97798,225.13502)"
       d="m 239.28571,507.71933 a 13.343645,4.6428571 0 1 1 -26.68729,0 13.343645,4.6428571 0 1 1 26.68729,0 z"
       sodipodi:ry="4.6428571"
       sodipodi:rx="13.343645"
       sodipodi:cy="507.71933"
       sodipodi:cx="225.94206"
       id="path4467"
       style="fill:#8c8c8c;fill-opacity:1;stroke:#ffffff;stroke-width:2.70000005;stroke-linejoin:bevel;stroke-miterlimit:4;stroke-opacity:1;stroke-dasharray:none;stroke-dashoffset:0"
       sodipodi:type="arc" />
    <path
       transform="matrix(0.94773004,0,0,0.94773004,405.33363,242.73572)"
       sodipodi:type="arc"
       style="fill:#8c8c8c;fill-opacity:1;stroke:#ffffff;stroke-width:2.70000005;stroke-linejoin:bevel;stroke-miterlimit:4;stroke-opacity:1;stroke-dasharray:none;stroke-dashoffset:0"
       id="path4469"
       sodipodi:cx="225.94206"
       sodipodi:cy="507.71933"
       sodipodi:rx="13.343645"
       sodipodi:ry="4.6428571"
       d="m 239.28571,507.71933 a 13.343645,4.6428571 0 1 1 -26.68729,0 13.343645,4.6428571 0 1 1 26.68729,0 z" />
    <path
       sodipodi:type="arc"
       style="fill:#8c8c8c;fill-opacity:1;stroke:#ffffff;stroke-width:2.70000005;stroke-linejoin:bevel;stroke-miterlimit:4;stroke-opacity:1;stroke-dasharray:none;stroke-dashoffset:0"
       id="path4471"
       sodipodi:cx="225.94206"
       sodipodi:cy="507.71933"
       sodipodi:rx="13.343645"
       sodipodi:ry="4.6428571"
       d="m 239.28571,507.71933 a 13.343645,4.6428571 0 1 1 -26.68729,0 13.343645,4.6428571 0 1 1 26.68729,0 z"
       transform="matrix(0.94773004,0,0,0.94773004,369.45528,238.67401)" />
    <path
       d="m 239.28571,507.71933 a 13.343645,4.6428571 0 1 1 -26.68729,0 13.343645,4.6428571 0 1 1 26.68729,0 z"
       sodipodi:ry="4.6428571"
       sodipodi:rx="13.343645"
       sodipodi:cy="507.71933"
       sodipodi:cx="225.94206"
       id="path4473"
       style="fill:#8c8c8c;fill-opacity:1;stroke:#ffffff;stroke-width:2.70000005;stroke-linejoin:bevel;stroke-miterlimit:4;stroke-opacity:1;stroke-dasharray:none;stroke-dashoffset:0"
       sodipodi:type="arc"
       transform="matrix(0.94773004,0,0,0.94773004,322.74573,274.55236)" />
    <path
       sodipodi:type="arc"
       style="fill:#8c8c8c;fill-opacity:1;stroke:#ffffff;stroke-width:2.70000005;stroke-linejoin:bevel;stroke-miterlimit:4;stroke-opacity:1;stroke-dasharray:none;stroke-dashoffset:0"
       id="path4475"
       sodipodi:cx="225.94206"
       sodipodi:cy="507.71933"
       sodipodi:rx="13.343645"
       sodipodi:ry="4.6428571"
       d="m 239.28571,507.71933 a 13.343645,4.6428571 0 1 1 -26.68729,0 13.343645,4.6428571 0 1 1 26.68729,0 z"
       transform="matrix(0.94773004,0,0,0.94773004,322.74573,234.61232)" />
    <path
       d="m 239.28571,507.71933 a 13.343645,4.6428571 0 1 1 -26.68729,0 13.343645,4.6428571 0 1 1 26.68729,0 z"
       sodipodi:ry="4.6428571"
       sodipodi:rx="13.343645"
       sodipodi:cy="507.71933"
       sodipodi:cx="225.94206"
       id="path4477"
       style="fill:#8c8c8c;fill-opacity:1;stroke:#ffffff;stroke-width:2.70000005;stroke-linejoin:bevel;stroke-miterlimit:4;stroke-opacity:1;stroke-dasharray:none;stroke-dashoffset:0"
       sodipodi:type="arc"
       transform="matrix(0.94773004,0,0,0.94773004,368.10138,252.21302)" />
    <path
       transform="matrix(0.94773004,0,0,0.94773004,467.61303,256.95167)"
       d="m 239.28571,507.71933 a 13.343645,4.6428571 0 1 1 -26.68729,0 13.343645,4.6428571 0 1 1 26.68729,0 z"
       sodipodi:ry="4.6428571"
       sodipodi:rx="13.343645"
       sodipodi:cy="507.71933"
       sodipodi:cx="225.94206"
       id="path4479"
       style="fill:#8c8c8c;fill-opacity:1;stroke:#ffffff;stroke-width:2.70000005;stroke-linejoin:bevel;stroke-miterlimit:4;stroke-opacity:1;stroke-dasharray:none;stroke-dashoffset:0"
       sodipodi:type="arc" />
    <path
       transform="matrix(0.94773004,0,0,0.94773004,420.90348,292.83002)"
       sodipodi:type="arc"
       style="fill:#8c8c8c;fill-opacity:1;stroke:#ffffff;stroke-width:2.70000005;stroke-linejoin:bevel;stroke-miterlimit:4;stroke-opacity:1;stroke-dasharray:none;stroke-dashoffset:0"
       id="path4481"
       sodipodi:cx="225.94206"
       sodipodi:cy="507.71933"
       sodipodi:rx="13.343645"
       sodipodi:ry="4.6428571"
       d="m 239.28571,507.71933 a 13.343645,4.6428571 0 1 1 -26.68729,0 13.343645,4.6428571 0 1 1 26.68729,0 z" />
    <path
       transform="matrix(0.94773004,0,0,0.94773004,420.90348,252.88996)"
       d="m 239.28571,507.71933 a 13.343645,4.6428571 0 1 1 -26.68729,0 13.343645,4.6428571 0 1 1 26.68729,0 z"
       sodipodi:ry="4.6428571"
       sodipodi:rx="13.343645"
       sodipodi:cy="507.71933"
       sodipodi:cx="225.94206"
       id="path4483"
       style="fill:#8c8c8c;fill-opacity:1;stroke:#ffffff;stroke-width:2.70000005;stroke-linejoin:bevel;stroke-miterlimit:4;stroke-opacity:1;stroke-dasharray:none;stroke-dashoffset:0"
       sodipodi:type="arc" />
    <path
       transform="matrix(0.94773004,0,0,0.94773004,466.25913,270.49067)"
       sodipodi:type="arc"
       style="fill:#8c8c8c;fill-opacity:1;stroke:#ffffff;stroke-width:2.70000005;stroke-linejoin:bevel;stroke-miterlimit:4;stroke-opacity:1;stroke-dasharray:none;stroke-dashoffset:0"
       id="path4485"
       sodipodi:cx="225.94206"
       sodipodi:cy="507.71933"
       sodipodi:rx="13.343645"
       sodipodi:ry="4.6428571"
       d="m 239.28571,507.71933 a 13.343645,4.6428571 0 1 1 -26.68729,0 13.343645,4.6428571 0 1 1 26.68729,0 z" />
    <path
       sodipodi:type="arc"
       style="fill:#8c8c8c;fill-opacity:1;stroke:#ffffff;stroke-width:2.70000005;stroke-linejoin:bevel;stroke-miterlimit:4;stroke-opacity:1;stroke-dasharray:none;stroke-dashoffset:0"
       id="path4487"
       sodipodi:cx="225.94206"
       sodipodi:cy="507.71933"
       sodipodi:rx="13.343645"
       sodipodi:ry="4.6428571"
       d="m 239.28571,507.71933 a 13.343645,4.6428571 0 1 1 -26.68729,0 13.343645,4.6428571 0 1 1 26.68729,0 z"
       transform="matrix(0.94773004,0,0,0.94773004,430.38078,266.42897)" />
    <path
       d="m 239.28571,507.71933 a 13.343645,4.6428571 0 1 1 -26.68729,0 13.343645,4.6428571 0 1 1 26.68729,0 z"
       sodipodi:ry="4.6428571"
       sodipodi:rx="13.343645"
       sodipodi:cy="507.71933"
       sodipodi:cx="225.94206"
       id="path4489"
       style="fill:#8c8c8c;fill-opacity:1;stroke:#ffffff;stroke-width:2.70000005;stroke-linejoin:bevel;stroke-miterlimit:4;stroke-opacity:1;stroke-dasharray:none;stroke-dashoffset:0"
       sodipodi:type="arc"
       transform="matrix(0.94773004,0,0,0.94773004,383.67123,302.30732)" />
    <path
       sodipodi:type="arc"
       style="fill:#8c8c8c;fill-opacity:1;stroke:#ffffff;stroke-width:2.70000005;stroke-linejoin:bevel;stroke-miterlimit:4;stroke-opacity:1;stroke-dasharray:none;stroke-dashoffset:0"
       id="path4491"
       sodipodi:cx="225.94206"
       sodipodi:cy="507.71933"
       sodipodi:rx="13.343645"
       sodipodi:ry="4.6428571"
       d="m 239.28571,507.71933 a 13.343645,4.6428571 0 1 1 -26.68729,0 13.343645,4.6428571 0 1 1 26.68729,0 z"
       transform="matrix(0.94773004,0,0,0.94773004,383.67123,262.36726)" />
    <path
       d="m 239.28571,507.71933 a 13.343645,4.6428571 0 1 1 -26.68729,0 13.343645,4.6428571 0 1 1 26.68729,0 z"
       sodipodi:ry="4.6428571"
       sodipodi:rx="13.343645"
       sodipodi:cy="507.71933"
       sodipodi:cx="225.94206"
       id="path4493"
       style="fill:#8c8c8c;fill-opacity:1;stroke:#ffffff;stroke-width:2.70000005;stroke-linejoin:bevel;stroke-miterlimit:4;stroke-opacity:1;stroke-dasharray:none;stroke-dashoffset:0"
       sodipodi:type="arc"
       transform="matrix(0.94773004,0,0,0.94773004,429.02689,279.96797)" />
    <path
       sodipodi:type="arc"
       style="fill:#8c8c8c;fill-opacity:1;stroke:#ffffff;stroke-width:2.70000005;stroke-linejoin:bevel;stroke-miterlimit:4;stroke-opacity:1;stroke-dasharray:none;stroke-dashoffset:0"
       id="path4495"
       sodipodi:cx="225.94206"
       sodipodi:cy="507.71933"
       sodipodi:rx="13.343645"
       sodipodi:ry="4.6428571"
       d="m 239.28571,507.71933 a 13.343645,4.6428571 0 1 1 -26.68729,0 13.343645,4.6428571 0 1 1 26.68729,0 z"
       transform="matrix(0.94773004,0,0,0.94773004,540.04669,237.32011)" />
    <path
       d="m 239.28571,507.71933 a 13.343645,4.6428571 0 1 1 -26.68729,0 13.343645,4.6428571 0 1 1 26.68729,0 z"
       sodipodi:ry="4.6428571"
       sodipodi:rx="13.343645"
       sodipodi:cy="507.71933"
       sodipodi:cx="225.94206"
       id="path4497"
       style="fill:#8c8c8c;fill-opacity:1;stroke:#ffffff;stroke-width:2.70000005;stroke-linejoin:bevel;stroke-miterlimit:4;stroke-opacity:1;stroke-dasharray:none;stroke-dashoffset:0"
       sodipodi:type="arc"
       transform="matrix(0.94773004,0,0,0.94773004,493.33714,273.19846)" />
    <path
       sodipodi:type="arc"
       style="fill:#8c8c8c;fill-opacity:1;stroke:#ffffff;stroke-width:2.70000005;stroke-linejoin:bevel;stroke-miterlimit:4;stroke-opacity:1;stroke-dasharray:none;stroke-dashoffset:0"
       id="path4499"
       sodipodi:cx="225.94206"
       sodipodi:cy="507.71933"
       sodipodi:rx="13.343645"
       sodipodi:ry="4.6428571"
       d="m 239.28571,507.71933 a 13.343645,4.6428571 0 1 1 -26.68729,0 13.343645,4.6428571 0 1 1 26.68729,0 z"
       transform="matrix(0.94773004,0,0,0.94773004,493.33714,233.25842)" />
    <path
       d="m 239.28571,507.71933 a 13.343645,4.6428571 0 1 1 -26.68729,0 13.343645,4.6428571 0 1 1 26.68729,0 z"
       sodipodi:ry="4.6428571"
       sodipodi:rx="13.343645"
       sodipodi:cy="507.71933"
       sodipodi:cx="225.94206"
       id="path4501"
       style="fill:#8c8c8c;fill-opacity:1;stroke:#ffffff;stroke-width:2.70000005;stroke-linejoin:bevel;stroke-miterlimit:4;stroke-opacity:1;stroke-dasharray:none;stroke-dashoffset:0"
       sodipodi:type="arc"
       transform="matrix(0.94773004,0,0,0.94773004,538.69279,250.85911)" />
    <path
       transform="matrix(0.94773004,0,0,0.94773004,502.81444,246.79742)"
       d="m 239.28571,507.71933 a 13.343645,4.6428571 0 1 1 -26.68729,0 13.343645,4.6428571 0 1 1 26.68729,0 z"
       sodipodi:ry="4.6428571"
       sodipodi:rx="13.343645"
       sodipodi:cy="507.71933"
       sodipodi:cx="225.94206"
       id="path4503"
       style="fill:#8c8c8c;fill-opacity:1;stroke:#ffffff;stroke-width:2.70000005;stroke-linejoin:bevel;stroke-miterlimit:4;stroke-opacity:1;stroke-dasharray:none;stroke-dashoffset:0"
       sodipodi:type="arc" />
    <path
       transform="matrix(0.94773004,0,0,0.94773004,456.10489,282.67576)"
       sodipodi:type="arc"
       style="fill:#8c8c8c;fill-opacity:1;stroke:#ffffff;stroke-width:2.70000005;stroke-linejoin:bevel;stroke-miterlimit:4;stroke-opacity:1;stroke-dasharray:none;stroke-dashoffset:0"
       id="path4505"
       sodipodi:cx="225.94206"
       sodipodi:cy="507.71933"
       sodipodi:rx="13.343645"
       sodipodi:ry="4.6428571"
       d="m 239.28571,507.71933 a 13.343645,4.6428571 0 1 1 -26.68729,0 13.343645,4.6428571 0 1 1 26.68729,0 z" />
    <path
       transform="matrix(0.94773004,0,0,0.94773004,456.10489,242.73572)"
       d="m 239.28571,507.71933 a 13.343645,4.6428571 0 1 1 -26.68729,0 13.343645,4.6428571 0 1 1 26.68729,0 z"
       sodipodi:ry="4.6428571"
       sodipodi:rx="13.343645"
       sodipodi:cy="507.71933"
       sodipodi:cx="225.94206"
       id="path4507"
       style="fill:#8c8c8c;fill-opacity:1;stroke:#ffffff;stroke-width:2.70000005;stroke-linejoin:bevel;stroke-miterlimit:4;stroke-opacity:1;stroke-dasharray:none;stroke-dashoffset:0"
       sodipodi:type="arc" />
    <path
       transform="matrix(0.94773004,0,0,0.94773004,501.46054,260.33641)"
       sodipodi:type="arc"
       style="fill:#8c8c8c;fill-opacity:1;stroke:#ffffff;stroke-width:2.70000005;stroke-linejoin:bevel;stroke-miterlimit:4;stroke-opacity:1;stroke-dasharray:none;stroke-dashoffset:0"
       id="path4509"
       sodipodi:cx="225.94206"
       sodipodi:cy="507.71933"
       sodipodi:rx="13.343645"
       sodipodi:ry="4.6428571"
       d="m 239.28571,507.71933 a 13.343645,4.6428571 0 1 1 -26.68729,0 13.343645,4.6428571 0 1 1 26.68729,0 z" />
    <path
       d="m 239.28571,507.71933 a 13.343645,4.6428571 0 1 1 -26.68729,0 13.343645,4.6428571 0 1 1 26.68729,0 z"
       sodipodi:ry="4.6428571"
       sodipodi:rx="13.343645"
       sodipodi:cy="507.71933"
       sodipodi:cx="225.94206"
       id="path4511"
       style="fill:#8c8c8c;fill-opacity:1;stroke:#ffffff;stroke-width:2.70000005;stroke-linejoin:bevel;stroke-miterlimit:4;stroke-opacity:1;stroke-dasharray:none;stroke-dashoffset:0"
       sodipodi:type="arc"
       transform="matrix(0.94773004,0,0,0.94773004,441.21198,310.43072)" />
    <path
       d="m 239.28571,507.71933 a 13.343645,4.6428571 0 1 1 -26.68729,0 13.343645,4.6428571 0 1 1 26.68729,0 z"
       sodipodi:ry="4.6428571"
       sodipodi:rx="13.343645"
       sodipodi:cy="507.71933"
       sodipodi:cx="225.94206"
       id="path4513"
       style="fill:#8c8c8c;fill-opacity:1;stroke:#ffffff;stroke-width:2.70000005;stroke-linejoin:bevel;stroke-miterlimit:4;stroke-opacity:1;stroke-dasharray:none;stroke-dashoffset:0"
       sodipodi:type="arc"
       transform="matrix(0.94773004,0,0,0.94773004,486.56763,288.09137)" />
    <path
       transform="matrix(0.94773004,0,0,0.94773004,449.33538,297.56867)"
       sodipodi:type="arc"
       style="fill:#8c8c8c;fill-opacity:1;stroke:#ffffff;stroke-width:2.70000005;stroke-linejoin:bevel;stroke-miterlimit:4;stroke-opacity:1;stroke-dasharray:none;stroke-dashoffset:0"
       id="path4515"
       sodipodi:cx="225.94206"
       sodipodi:cy="507.71933"
       sodipodi:rx="13.343645"
       sodipodi:ry="4.6428571"
       d="m 239.28571,507.71933 a 13.343645,4.6428571 0 1 1 -26.68729,0 13.343645,4.6428571 0 1 1 26.68729,0 z" />
    <path
       d="m 239.28571,507.71933 a 13.343645,4.6428571 0 1 1 -26.68729,0 13.343645,4.6428571 0 1 1 26.68729,0 z"
       sodipodi:ry="4.6428571"
       sodipodi:rx="13.343645"
       sodipodi:cy="507.71933"
       sodipodi:cx="225.94206"
       id="path4517"
       style="fill:#8c8c8c;fill-opacity:1;stroke:#ffffff;stroke-width:2.70000005;stroke-linejoin:bevel;stroke-miterlimit:4;stroke-opacity:1;stroke-dasharray:none;stroke-dashoffset:0"
       sodipodi:type="arc"
       transform="matrix(0.94773004,0,0,0.94773004,476.41339,300.27647)" />
  </g>
</svg>
