<?xml version="1.0" encoding="UTF-8" standalone="no"?>
<!-- Created with Inkscape (http://www.inkscape.org/) -->

<svg
   xmlns:dc="http://purl.org/dc/elements/1.1/"
   xmlns:cc="http://creativecommons.org/ns#"
   xmlns:rdf="http://www.w3.org/1999/02/22-rdf-syntax-ns#"
   xmlns:svg="http://www.w3.org/2000/svg"
   xmlns="http://www.w3.org/2000/svg"
   version="1.1"
   width="1024"
   height="768"
   id="svg2">
  <defs
     id="defs4" />
  <metadata
     id="metadata7">
    <rdf:RDF>
      <cc:Work
         rdf:about="">
        <dc:format>image/svg+xml</dc:format>
        <dc:type
           rdf:resource="http://purl.org/dc/dcmitype/StillImage" />
        <dc:title></dc:title>
      </cc:Work>
    </rdf:RDF>
  </metadata>
  <path
     d="m 865.26441,541.21695 c -0.66669,0.66669 0.40228,2.11636 -0.26441,2.78305 -0.66669,0.66669 -1.66669,0.33331 -2,1 -0.33331,0.66669 0,2.33331 0,3 0,0.66669 0,0.66669 0,1 0,0.33331 0.16669,0.5 0,1 -0.16669,0.5 -0.83331,1.5 -1,2 -0.16669,0.5 0.16669,0.66669 0,1 -0.16669,0.33331 -0.66669,0.66669 -1,1 -0.33331,0.33331 -0.83331,0.5 -1,1 -0.16669,0.5 0.33331,0.66669 0,2 -0.33331,1.33331 -1.5,4.83331 -2,6 -0.5,1.16669 -0.83331,0.66669 -1,1 -0.16669,0.33331 0.16669,0.5 0,1 -0.16669,0.5 -0.66669,1.33331 -1,2 -0.33331,0.66669 -0.66669,1.5 -1,2 -0.33331,0.5 -0.66669,0.5 -1,1 -0.33331,0.5 -0.5,1.33331 -1,2 -0.5,0.66669 -1.66669,1.5 -2,2 -0.33331,0.5 0.33331,0.5 0,1 -0.33331,0.5 -1.66669,1.66669 -2,2 -0.33331,0.33331 0,-0.16669 0,0 0,0.16669 0.33331,0.66669 0,1 -0.33331,0.33331 -1.5,0.66669 -2,1 -0.5,0.33331 -0.5,0.5 -1,1 -0.5,0.5 -1.33331,1.5 -2,2 -0.66669,0.5 -0.83331,0.33331 -2,1 -1.16669,0.66669 -4,2.33331 -5,3 -1,0.66669 -0.66669,0.66669 -1,1 -0.33331,0.33331 -0.5,0.66669 -1,1 -0.5,0.33331 -1.33331,0.66669 -2,1 -0.66669,0.33331 -1.33331,0.66669 -2,1 -0.66669,0.33331 -1.33331,0.83331 -2,1 -0.66669,0.16669 -1.5,-0.16669 -2,0 -0.5,0.16669 -0.5,0.66669 -1,1 -0.5,0.33331 -1.16669,0.83331 -2,1 -0.83331,0.16669 -1.83331,-0.5 -3,0 -1.16669,0.5 -3.16669,2.5 -4,3 -0.83331,0.5 -0.5,0 -1,0 -0.5,0 -1.5,-0.16669 -2,0 -0.5,0.16669 -0.5,0.83331 -1,1 -0.5,0.16669 -1.33331,-0.16669 -2,0 -0.66669,0.16669 -1.33331,0.83331 -2,1 -0.66669,0.16669 -1.5,0 -2,0 -0.5,0 -0.66669,0 -1,0 -0.33331,0 -0.33331,0 -1,0 -0.66669,0 -2.16669,0 -3,0 -0.83331,0 -1.33331,0 -2,0 -0.66669,0 -1.33331,0 -2,0 -0.66669,0 -0.16669,0.16669 -2,0 -1.83331,-0.16669 -7.33331,-0.83331 -9,-1 -1.66669,-0.16669 -0.66669,0 -1,0 -0.33331,0 -0.66669,0.16669 -1,0 -0.33331,-0.16669 -0.66669,-0.83331 -1,-1 -0.33331,-0.16669 -0.5,0.16669 -1,0 -0.5,-0.16669 -1.33331,-0.66669 -2,-1 -0.66669,-0.33331 -1.5,-0.83331 -2,-1 -0.5,-0.16669 -0.5,0.16669 -1,0 -0.5,-0.16669 -1.5,-0.66669 -2,-1 -0.5,-0.33331 -0.66669,-0.66669 -1,-1 -0.33331,-0.33331 -0.66669,-0.66669 -1,-1 -0.33331,-0.33331 -0.66669,-0.66669 -1,-1 -0.33331,-0.33331 -0.66669,-0.66669 -1,-1 -0.33331,-0.33331 -0.5,-0.66669 -1,-1 -0.5,-0.33331 -1.66669,-0.5 -2,-1 -0.33331,-0.5 0.16669,-1.5 0,-2 -0.16669,-0.5 -0.83331,-0.66669 -1,-1 -0.16669,-0.33331 0.16669,-0.5 0,-1 -0.16669,-0.5 -0.83331,-1.33331 -1,-2 -0.16669,-0.66669 0,-1.5 0,-2 0,-0.5 0,-0.33331 0,-1 0,-0.66669 0,-2.16669 0,-3 0,-0.83331 -0.16669,-1.33331 0,-2 0.16669,-0.66669 0.83331,-1.33331 1,-2 0.16669,-0.66669 0,-1.5 0,-2 0,-0.5 -0.16669,-0.5 0,-1 0.16669,-0.5 0.66669,-1.33331 1,-2 0.33331,-0.66669 0.5,-1.33331 1,-2 0.5,-0.66669 1.66669,-1.5 2,-2 0.33331,-0.5 -0.33331,-0.5 0,-1 0.33331,-0.5 1.66669,-1.33331 2,-2 0.33331,-0.66669 -0.33331,-1.16669 0,-2 0.33331,-0.83331 1.5,-2.33331 2,-3 0.5,-0.66669 0.66669,-0.66669 1,-1 0.33331,-0.33331 0.66669,-0.66669 1,-1 0.33331,-0.33331 0.5,-0.5 1,-1 0.5,-0.5 1.33331,-1.33331 2,-2 0.66669,-0.66669 1.5,-1.5 2,-2 0.5,-0.5 0.16669,-0.33331 1,-1 0.83331,-0.66669 2.66669,-2 4,-3 1.33331,-1 3,-2.16669 4,-3 1,-0.83331 1.5,-1.5 2,-2 0.5,-0.5 0.33331,-0.33331 1,-1 0.66669,-0.66669 2.33331,-2.33331 3,-3 0.66669,-0.66669 0.66669,-0.66669 1,-1 0.33331,-0.33331 0.66669,-0.5 1,-1 0.33331,-0.5 0.66669,-1.33331 1,-2 0.33331,-0.66669 0.66669,-1.5 1,-2 0.33331,-0.5 0.83331,-0.66669 1,-1 0.16669,-0.33331 -0.16669,-0.16669 0,-1 0.16669,-0.83331 0.66669,-2.83331 1,-4 0.33331,-1.16669 0.83331,-2.16669 1,-3 0.16669,-0.83331 -0.16669,-1.33331 0,-2 0.16669,-0.66669 0.83331,-1.5 1,-2 0.16669,-0.5 0,-0.66669 0,-1 0,-0.33331 -0.16669,-0.5 0,-1 0.60748,-1.00588 1.07717,-2.14636 1,-3 0,-0.5 -0.16669,-1.33334 0,-2 0.16669,-0.66666 0.83331,-1.33334 1,-2 0.16669,-0.66666 0,-1.5 0,-2 0,-0.5 -0.16669,-0.5 0,-1 0.16669,-0.5 0.83331,-1.33334 1,-2 0.16669,-0.66666 0,-1.5 0,-2 0,-0.5 -0.16669,-0.66666 0,-1 0.16669,-0.33334 0.83331,-0.33334 1,-1 0.16669,-0.66666 -0.16669,-2.16666 0,-3 0.16669,-0.83334 0.66669,-1.33334 1,-2 0.33331,-0.66666 0.33331,-1 1,-2 0.66669,-1 2.16669,-3 3,-4 0.83331,-1 1.5,-1.66666 2,-2 0.5,-0.33334 0.66669,0.16666 1,0 0.33331,-0.16666 0.66669,-0.66666 1,-1 0.33331,-0.33334 0.5,-0.66666 1,-1 0.5,-0.33334 1.33331,-0.66666 2,-1 0.66669,-0.33334 1.33331,-0.66666 2,-1 0.66669,-0.33334 1.33331,-0.66666 2,-1 0.66669,-0.33334 1.5,-0.66666 2,-1 0.5,-0.33334 0.33331,-0.83334 1,-1 0.66669,-0.16666 2,0.33334 3,0 1,-0.33334 1.66669,-1.66666 3,-2 1.33331,-0.33334 3.83331,0 5,0 1.16669,0 1.33331,0 2,0 0.66669,0 1.33331,0 2,0 0.66669,0 1.33331,0 2,0 0.66669,0 1.33331,-0.16666 2,0 0.66669,0.16666 1.16669,0.83334 2,1 0.83331,0.16666 2,0 3,0 1,0 2.33331,0 3,0 0.66669,0 0.5,-0.16666 1,0 0.5,0.16666 1.16669,0.83334 2,1 0.83331,0.16666 2.16669,-0.16666 3,0 0.83331,0.16666 1.33331,0.83334 2,1 0.66669,0.16666 1.16669,0 2,0 0.83331,0 2.16669,0 3,0 0.83331,0 0.66669,0 2,0 1.33331,0 4.66669,0 6,0 1.33331,0 1.5,0 2,0 0.5,0 0.5,0.16666 1,0 0.5,-0.16666 1.33331,-0.83334 2,-1 0.66669,-0.16666 1.33331,0.16666 2,0 0.66669,-0.16666 1.33331,-0.83334 2,-1 0.66669,-0.16666 1.66669,0 2,0 0.33331,0 0,0 0,0 0,0 0,0.16666 0,0 0,-0.16666 0,-0.83334 0,-1 0,-0.16666 0,0 0,0 l 0,0 0,0 0,0 0,0 0,0 c 0,0 0,-0.16666 0,0 0,0.16666 0,0.83334 0,1 0,0.16666 0,0 0,0 l 0,0 0,0 0,0 c 0,0 -0.16669,0.16666 0,0 0.16669,-0.16666 0.83331,-0.83334 1,-1 0.16669,-0.16666 0,0 0,0 l 0,0 0,0 0,0 0,0 c 0,0 0.16669,0 0,0 -0.16669,0 -0.83331,0 -1,0 -0.16669,0 0,0 0,0 l 0,0 0,0 0,0 c 0,0 0.16669,0 0,0 -0.16669,0 -0.66669,0 -1,0 -0.33331,0 -0.66669,0 -1,0 -0.33331,0 -0.5,0.16666 -1,0 -0.5,-0.16666 -1.5,-0.83334 -2,-1 -0.5,-0.16666 -0.5,0.16666 -1,0 -0.5,-0.16666 -1.66669,-0.83334 -2,-1 -0.33331,-0.16666 0,0 0,0 0,0 -0.16669,0 0,0 0.16669,0 0.83331,0 1,0 0.16669,0 -0.33331,0.16666 0,0 0.33331,-0.16666 1.16669,-0.66666 2,-1 0.83331,-0.33334 2.5,-0.66666 3,-1 0.5,-0.33334 0,-0.83334 0,-1 0,-0.16666 0.16669,-0.16666 0,0 -0.16669,0.16666 -0.5,0.66666 -1,1 -0.5,0.33334 -1.16669,0.83334 -2,1 -0.83331,0.16666 -2.33331,0 -3,0 -0.66669,0 -0.83331,0.16666 -1,0 -0.16669,-0.16666 0,-0.66666 0,-1 0,-0.33334 0.16669,-0.83334 0,-1 -0.16669,-0.16666 -0.83331,0 -1,0 -0.16669,0 0.16669,0 0,0 -0.16669,0 -0.5,0 -1,0 -0.5,0 -1.16669,0 -2,0 -0.83331,0 -1.83331,0.16666 -3,0 -1.16669,-0.16666 -3.16669,-0.83334 -4,-1 -0.83331,-0.16666 -1,0 -1,0 0,0 0.5,0.16666 1,0 0.5,-0.16666 1.33331,-0.66666 2,-1 0.66669,-0.33334 1,-0.66666 2,-1 1,-0.33334 3.16669,-0.83334 4,-1 0.83331,-0.16666 0.66669,0 1,0 0.33331,0 0.83331,0 1,0 0.16669,0 0,0 0,0 0,0 0.16669,0 0,0 -0.16669,0 -0.83331,0 -1,0 -0.16669,0 0,0 0,0 l 0,0 c 0,0 0.16669,0 0,0 -0.16669,0 -0.83331,0 -1,0 -0.16669,0 0.33331,-0.16666 0,0 -0.33331,0.16666 -1.5,0.83334 -2,1 -0.5,0.16666 -0.5,0 -1,0 -0.5,0 -1.5,0 -2,0 -0.5,0 -0.66669,0.16666 -1,0 -0.33331,-0.16666 -0.83331,-0.83334 -1,-1 -0.16669,-0.16666 0.16669,0.16666 0,0 -0.16669,-0.16666 -0.5,-0.83334 -1,-1 -0.5,-0.16666 -1.33331,0.16666 -2,0 -0.66669,-0.16666 -1.5,-0.66666 -2,-1 -0.5,-0.33334 -0.66669,-0.66666 -1,-1 -0.33331,-0.33334 -0.83331,-0.66666 -1,-1 -0.16669,-0.33334 0,-0.83334 0,-1 0,-0.16666 0,0 0,0 l 0,0 0,0 0,0 0,0 0,0 c 0,0 -0.16669,0 0,0 0.16669,0 0.83331,0 1,0 0.16669,0 0,0 0,0 l 0,0 0,0 0,0 0,0 0,0 c 0,0 -0.16669,0 0,0 0.16669,0 0.83331,0 1,0 0.16669,0 0,0 0,0 l 0,0 0,0 c 0,0 -0.33331,0 0,0 0.33331,0 0.66669,0.16666 2,0 1.33331,-0.16666 4.66669,-0.66666 6,-1 1.33331,-0.33334 1.33331,-0.66666 2,-1 0.66669,-0.33334 1.5,-0.83334 2,-1 0.5,-0.16666 0.5,0 1,0 0.5,0 1.16669,0.16666 2,0 0.83331,-0.16666 2.16669,-0.66666 3,-1 0.83331,-0.33334 1.33331,-0.66666 2,-1 0.66669,-0.33334 1.5,-0.83334 2,-1 0.5,-0.16666 0.66669,0.16666 1,0 0.33331,-0.16666 0.66669,-0.83334 1,-1 0.33331,-0.16666 0.66669,0 1,0 0.33331,0 0.66669,0.16666 1,0 0.33331,-0.16666 0.5,-0.5 1,-1 0.5,-0.5 1.16669,-1.33334 2,-2 0.83331,-0.66666 2.33331,-1.5 3,-2 0.66669,-0.5 0.66669,-0.83334 1,-1 0.33331,-0.16666 0.83331,0.16666 1,0 0.16669,-0.16666 -0.16669,-0.66666 0,-1 0.16669,-0.33334 0.66669,-0.5 1,-1 0.33331,-0.5 0.66669,-1.5 1,-2 0.33331,-0.5 0.83331,-0.66666 1,-1 0.16669,-0.33334 -0.16669,-0.83334 0,-1 0.16669,-0.16666 0.83331,0.16666 1,0 0.16669,-0.16666 0,-0.66666 0,-1 0,-0.33334 -0.16669,-0.5 0,-1 0.16669,-0.5 0.83331,-1.5 1,-2 0.16669,-0.5 -0.16669,-0.66666 0,-1 0.16669,-0.33334 0.83331,-0.66666 1,-1 0.16669,-0.33334 0,-0.66666 0,-1 0,-0.33334 0,-0.66666 0,-1 0,-0.33334 -0.16669,-0.66666 0,-1 0.16669,-0.33334 0.83331,-0.66666 1,-1 0.16669,-0.33334 0,-0.83334 0,-1 0,-0.16666 0,0 0,0 0,0 0,-0.16666 0,0 0,0.16666 0,0.83334 0,1 0,0.16666 0.16669,0 0,0 -0.16669,0 -0.83331,-0.16666 -1,0 -0.16669,0.16666 0,0.83334 0,1 0,0.16666 0,0 0,0 0,0 0.16669,-0.16666 0,0 -0.16669,0.16666 -0.66669,0.5 -1,1 -0.33331,0.5 -0.5,1.33334 -1,2 -0.5,0.66666 -1.66669,1.66666 -2,2 -0.33331,0.33334 0.16669,-0.16666 0,0 -0.16669,0.16666 -0.66669,0.66666 -1,1 -0.33331,0.33334 -0.83331,0.83334 -1,1 -0.16669,0.16666 0,0 0,0 0,0 0.16669,0 0,0 -0.16669,0 -0.83331,0 -1,0 -0.16669,0 1,-0.16666 0,0 -1,0.16666 -4.83331,0.83334 -6,1 -1.16669,0.16666 -0.83331,0 -1,0 -0.16669,0 0.16669,0 0,0 -0.16669,0 -0.66669,0.16666 -1,0 -0.33331,-0.16666 -0.66669,-0.83334 -1,-1 -0.33331,-0.16666 -0.83331,0.16666 -1,0 -0.16669,-0.16666 0.33331,-0.5 0,-1 -0.33331,-0.5 -1.66669,-1.5 -2,-2 -0.33331,-0.5 0.16669,-0.66666 0,-1 -0.16669,-0.33334 -0.66669,-0.66666 -1,-1 -0.33331,-0.33334 -0.83331,-0.66666 -1,-1 -0.16669,-0.33334 0.66669,-0.66666 0,-1 -0.66669,-0.33334 -2.83331,-0.66666 -4,-1 -1.16669,-0.33334 -2.33331,-0.83334 -3,-1 -0.66669,-0.16666 -0.66669,0 -1,0 -0.33331,0 -0.5,0.16666 -1,0 -0.5,-0.16666 -1.33331,-0.83334 -2,-1 -0.66669,-0.16666 -1.33331,0 -2,0 -0.66669,0 -1.33331,-0.16666 -2,0 -0.66669,0.16666 -1.66669,0.66666 -2,1 -0.33331,0.33334 0,0.66666 0,1 0,0.33334 -0.16669,0.66666 0,1 0.16669,0.33334 0.33331,0.66666 1,1 0.66669,0.33334 2.33331,0.66666 3,1 0.66669,0.33334 0.83331,0.83334 1,1 0.16669,0.16666 0.16669,0 0,0 -0.16669,0 -0.83331,-0.16666 -1,0 -0.16669,0.16666 0.16669,0.83334 0,1 -0.16669,0.16666 -0.5,-0.33334 -1,0 -0.5,0.33334 -1.66669,1.66666 -2,2 -0.33331,0.33334 -0.16669,0 0,0 0.16669,0 0.83331,0 1,0 0.16669,0 -0.16669,0 0,0 0.16669,0 0.66669,0.16666 1,0 0.33331,-0.16666 0.66669,-0.83334 1,-1 0.33331,-0.16666 0.66669,0 1,0 0.33331,0 0.83331,0.16666 1,0 0.16669,-0.16666 0,-0.66666 0,-1 0,-0.33334 0.16669,-0.33334 0,-1 -0.16669,-0.66666 -1,-2.5 -1,-3 0,-0.5 0.83331,0.16666 1,0 0.16669,-0.16666 -0.16669,-1.16666 0,-1 0.16669,0.16666 0.66669,1 1,2 0.33331,1 0.83331,3 1,4 0.16669,1 0,1.66666 0,2 0,0.33334 0.83331,1 0,0 -0.83331,-1 -3.66669,-5 -5,-6 -1.33331,-1 -2.33331,0.16666 -3,0 -0.66669,-0.16666 -0.83331,-0.66666 -1,-1 -0.16669,-0.33334 0.16669,-0.66666 0,-1 -0.16669,-0.33334 -0.83331,-0.83334 -1,-1 -0.16669,-0.16666 0.16669,0 0,0 -0.16669,0 -0.5,-0.33334 -1,0 -0.5,0.33334 -1.33331,1.33334 -2,2 -0.66669,0.66666 -1.5,1.16666 -2,2 -0.5,0.83334 -0.66669,2.33334 -1,3 -0.33331,0.66666 -0.5,0.5 -1,1 -0.5,0.5 -1.5,1.66666 -2,2 -0.5,0.33334 -0.66669,-0.16666 -1,0 -0.33331,0.16666 -0.33331,0.66666 -1,1 -0.66669,0.33334 -2.33331,0.83334 -3,1 -0.66669,0.16666 -0.66669,0 -1,0 -0.33331,0 -0.66669,0 -1,0 -0.33331,0 -0.83331,0 -1,0 -0.16669,0 0.66669,-0.16666 0,0 -0.66669,0.16666 -3.33331,0.83334 -4,1 -0.66669,0.16666 0.16669,0.16666 0,0 -0.16669,-0.16666 -0.66669,-0.83334 -1,-1 -0.33331,-0.16666 -0.66669,0 -1,0 -0.33331,0 -0.66669,-0.16666 -1,0 -0.33331,0.16666 -0.5,0.83334 -1,1 -0.5,0.16666 -1,0 -2,0 -1,0 -3.16669,0 -4,0 -0.83331,0 -0.66669,0 -1,0 -0.33331,0 -0.66669,0 -1,0 -0.33331,0 -0.33331,-0.16666 -1,0 -0.66669,0.16666 -2.16669,0.66666 -3,1 -0.83331,0.33334 -1.66669,0.66666 -2,1 -0.33331,0.33334 0.16669,0.83334 0,1 -0.16669,0.16666 -0.83331,-0.16666 -1,0 -0.16669,0.16666 0.16669,0.66666 0,1 -0.16669,0.33334 0.5,-0.66666 -1,1 -1.5,1.66666 -6.33331,7 -8,9 -1.66669,2 -1.33331,1.83334 -2,3 -0.66669,1.16666 -1.16669,2.83334 -2,4 -0.83331,1.16666 -2.33331,2.33334 -3,3 -0.66669,0.66666 -0.5,0.66666 -1,1 -0.5,0.33334 -1.33331,0.5 -2,1 -0.66669,0.5 -1.33331,1.5 -2,2 -0.66669,0.5 -1,0.66666 -2,1 -1,0.33334 -2.83331,0.66666 -4,1 -1.16669,0.33334 -2.16669,0.66666 -3,1 -0.83331,0.33334 -1.16669,0.66666 -2,1 -0.83331,0.33334 -2.33331,0.66666 -3,1 -0.66669,0.33334 -0.5,0.83334 -1,1 -0.5,0.16666 -0.83331,-0.16666 -2,0 -1.16669,0.16666 -3.83331,0.66666 -5,1 -1.16669,0.33334 -0.83331,0.66666 -2,1 -1.16669,0.33334 -3.5,0.66666 -5,1 -1.5,0.33334 -2.5,0.33334 -4,1 -1.5,0.66666 -2.5,1.5 -5,3 -2.5,1.5 -7.83331,4.66666 -10,6 -2.16669,1.33334 -2.5,1.5 -3,2 -0.5,0.5 -0.33331,0.83334 0,1 0.33331,0.16666 1.33331,0.16666 2,0 0.66669,-0.16666 1.16669,-0.5 2,-1 0.83331,-0.5 2.16669,-1.33334 3,-2 0.83331,-0.66666 1,-1.33334 2,-2 1,-0.66666 3,-1.5 4,-2 1,-0.5 1.33331,-0.83334 2,-1 0.66669,-0.16666 1.5,0 2,0 0.5,0 1.16669,-0.33334 1,0 -0.16669,0.33334 -1.16669,0.83334 -2,2 -0.83331,1.16666 -2.5,4.33334 -3,5 -0.5,0.66666 -0.16669,-0.83334 0,-1 0.16669,-0.16666 0.16669,0.5 1,0 0.83331,-0.5 2.66669,-2.16666 4,-3 1.33331,-0.83334 3,-1.5 4,-2 1,-0.5 1.66669,-1 2,-1 0.33331,0 0.16669,0.66666 0,1 -0.16669,0.33334 -0.66669,0.16666 -1,1 -0.33331,0.83334 -1.33331,3.33334 -1,4 0.33331,0.66666 2,0 3,0 1,0 2.5,0 3,0 0.5,0 0,-0.16666 0,0 0,0.16666 0.16669,0.66666 0,1 -0.16669,0.33334 -0.66669,0.66666 -1,1 -0.33331,0.33334 -0.33331,0.5 -1,1 -0.66669,0.5 -2,1.5 -3,2 -1,0.5 -2.5,0.66666 -3,1 -0.5,0.33334 0,0.83334 0,1 0,0.16666 -0.16669,0 0,0 0.16669,0 0.5,0 1,0 0.5,0 1.5,0 2,0 0.5,0 0.66669,0 1,0 0.33331,0 1,0 1,0 0,0 -0.66669,0 -1,0 -0.33331,0 0,-0.33334 -1,0 -1,0.33334 -3.5,1.33334 -5,2 -1.5,0.66666 -2.16669,0.83334 -4,2 -1.83331,1.16666 -5.83331,3.83334 -7,5 -1.16669,1.16666 0.33331,1.33334 0,2 -0.33331,0.66666 -1.66669,1.66666 -2,2 -0.33331,0.33331 0.16669,-0.16666 0,0 -0.16669,0.16669 -0.5,0.33331 -1,1 -0.5,0.66669 -1.5,2.16669 -2,3 -0.5,0.83331 -0.33331,1 -1,2 -0.66669,1 -2.16669,3 -3,4 -0.83331,1 -1.33331,1.16669 -2,2 -0.66669,0.83331 -1.33331,1.66669 -2,3 -0.66669,1.33331 -1.33331,3.33331 -2,5 -0.66669,1.66669 -1.33331,3.83331 -2,5 -0.66669,1.16669 -1.33331,1 -2,2 -0.66669,1 -1,2.16669 -2,4 -1,1.83331 -2.83331,4.5 -4,7 -1.16669,2.5 -2.16669,5.83331 -3,8 -0.83331,2.16669 -1.66669,3.5 -2,5 -0.33331,1.5 0.16669,3 0,4 -0.16669,1 -0.66669,1.16669 -1,2 -0.33331,0.83331 -0.66669,2 -1,3 -0.33331,1 -0.83331,2.5 -1,3 -0.16669,0.5 0,0.16669 0,0 0,-0.16669 -0.16669,-0.66669 0,-1 0.16669,-0.33331 0.66669,-0.5 1,-1 0.33331,-0.5 0.83331,-1.33331 1,-2 0.16669,-0.66669 -0.33331,-1.16669 0,-2 0.33331,-0.83331 1.66669,-2.33331 2,-3 0.33331,-0.66669 -0.16669,-0.66669 0,-1 0.16669,-0.33331 0.5,-0.5 1,-1 0.5,-0.5 1.33331,-1.33331 2,-2 0.66669,-0.66669 2,-1.83331 2,-2 0,-0.16669 -1.66669,0.66669 -2,1 -0.33331,0.33331 0.33331,0.33331 0,1 -0.33331,0.66669 -1.5,1.83331 -2,3 -0.5,1.16669 -1.33331,2.83331 -1,4 0.33331,1.16669 2.33331,2.5 3,3 0.66669,0.5 0.33331,0.33331 1,0 0.66669,-0.33331 2,-0.83331 3,-2 1,-1.16669 2.5,-3.83331 3,-5 0.5,-1.16669 0,-1.5 0,-2 0,-0.5 0,-1 0,-1 0,0 0,0.33331 0,1 0,0.66669 0.33331,1.16669 0,3 -0.33331,1.83331 -1.5,5.83331 -2,8 -0.5,2.16669 -1.16669,2.66669 -1,5 0.16669,2.33331 1.66669,7.33331 2,9 0.33331,1.66669 -0.16669,1 0,1 0.16669,0 0.83331,0.16669 1,-1 0.16669,-1.16669 0,-4.83331 0,-6 0,-1.16669 0,-1.5 0,-1 0,0.5 -0.33331,2 0,4 0.33331,2 1.5,6.16669 2,8 0.5,1.83331 0.5,1.33331 1,3 0.5,1.66669 1.5,5.83331 2,7 0.5,1.16669 1,0.16669 1,0 0,-0.16669 -0.83331,-0.16669 -1,-1 -0.16669,-0.83331 0.33331,-2.66669 0,-4 -0.33331,-1.33331 -1.83331,-3.66669 -2,-4 -0.16669,-0.33331 0.66669,1 1,2 0.33331,1 0.5,2.83331 1,4 0.5,1.16669 1.16669,1.66669 2,3 0.83331,1.33331 1.83331,3.33331 3,5 1.16669,1.66669 3,3.5 4,5 1,1.5 1.5,3 2,4 0.5,1 0.5,1.16669 1,2 0.5,0.83331 1.5,2.5 2,3 0.5,0.5 0.83331,0.5 1,0 0.16669,-0.5 0,-2 0,-3 0,-1 0.66669,-1.83331 0,-3 -0.66669,-1.16669 -3,-3.16669 -4,-4 -1,-0.83331 -1.33331,-0.66669 -2,-1 -0.66669,-0.33331 -1.66669,-1 -2,-1 -0.33331,0 -0.33331,0.5 0,1 0.33331,0.5 0.83331,1.5 2,2 1.16669,0.5 3.33331,0.66669 5,1 1.66669,0.33331 3.5,0.83331 5,1 1.5,0.16669 2.83331,-0.33331 4,0 1.16669,0.33331 2.5,1.66669 3,2 0.5,0.33331 0,0.16669 0,0 0,-0.16669 0,-0.83331 0,-1 0,-0.16669 0.5,0.33331 0,0 -0.5,-0.33331 -2.16669,-1.33331 -3,-2 -0.83331,-0.66669 -1.5,-1.5 -2,-2 -0.5,-0.5 -0.83331,-0.83331 -1,-1 -0.16669,-0.16669 -0.33331,0 0,0 0.33331,0 0.83331,0 2,0 1.16669,0 3.33331,-0.16669 5,0 1.66669,0.16669 3.83331,0.83331 5,1 1.16669,0.16669 1.5,0 2,0 0.5,0 0.5,-0.16669 1,0 0.5,0.16669 1.66669,0.83331 2,1 0.33331,0.16669 0.16669,0.16669 0,0 -0.16669,-0.16669 -0.33331,-0.66669 -1,-1 -0.66669,-0.33331 -1.83331,-0.83331 -3,-1 -1.16669,-0.16669 -2.5,-0.5 -4,0 -1.5,0.5 -4,2.5 -5,3 -1,0.5 -1.83331,0.16669 -1,0 0.83331,-0.16669 3.33331,0 6,-1 2.66669,-1 5.66669,-3.16669 10,-5 4.33331,-1.83331 14,-5.83331 16,-6 2,-0.16669 -2.83331,3.83331 -4,5 -1.16669,1.16669 -2.5,1.5 -3,2 -0.5,0.5 -0.33331,1 0,1 0.33331,0 1,-0.66669 2,-1 1,-0.33331 2,-0.16669 4,-1 2,-0.83331 6.16669,-3 8,-4 1.83331,-1 1.83331,-1 3,-2 1.16669,-1 3.16669,-3.33331 4,-4 0.83331,-0.66669 1,-0.16669 1,0 0,0.16669 -0.5,0.5 -1,1 -0.5,0.5 -1.16669,0.5 -2,2 -0.83331,1.5 -3.16669,6 -3,7 0.16669,1 2.66669,-0.5 4,-1 1.33331,-0.5 2.5,-0.83331 4,-2 1.5,-1.16669 3.33331,-3.66669 5,-5 1.66669,-1.33331 4,-2.33331 5,-3 1,-0.66669 1,-1 1,-1 0,0 -0.33331,0 -1,1 -0.66669,1 -1.83331,3.33331 -3,5 -1.16669,1.66669 -3.66669,4.16669 -4,5 -0.33331,0.83331 0.5,1 2,0 1.5,-1 5.16669,-4.5 7,-6 1.83331,-1.5 2.33331,-1.83331 4,-3 1.66669,-1.16669 4.33331,-2.83331 6,-4 1.66669,-1.16669 2.83331,-2.5 4,-3 1.16669,-0.5 2.5,0 3,0 0.5,0 0.16669,-0.16669 0,0 -0.16669,0.16669 -1.16669,1.16669 -1,1 0.16669,-0.16669 0.83331,-0.83331 2,-2 1.16669,-1.16669 3.5,-3.33331 5,-5 1.5,-1.66669 3,-4 4,-5 1,-1 1.66669,-0.83331 2,-1 0.33331,-0.16669 0.16669,-0.66669 0,0 -0.16669,0.66669 -0.66669,3.16669 -1,4 -0.33331,0.83331 -0.83331,0.83331 -1,1 -0.16669,0.16669 -0.5,0.5 0,0 0.5,-0.5 0.16669,-0.66669 3,-3 2.83331,-2.33331 11.16669,-9 14,-11 2.83331,-2 2.5,-1 3,-1 0.5,0 0.16669,0.66669 0,1 -0.16669,0.33331 -0.5,0.66669 -1,1 -0.5,0.33331 -1.5,0.66669 -2,1 -0.5,0.33331 -1,1 -1,1 0,0 0.5,0.33331 1,-1 0.5,-1.33331 1.66669,-5.5 2,-7 0.33331,-1.5 -0.16669,-1.5 0,-2 0.16669,-0.5 1,-0.66669 1,-1 0,-0.33331 -0.83331,-0.83331 -1,-1 -0.16669,-0.16669 0.16669,0 0,0 -0.16669,0 -0.66669,0.16669 -1,0 -0.33331,-0.16669 -1,-0.5 -1,-1 0,-0.5 0.66669,-1.16669 1,-2 0.33331,-0.83331 0.83331,-2.33331 1,-3 0.16669,-0.66669 0.16669,-0.83331 0,-1 -0.16669,-0.16669 -0.66669,0 -1,0 -0.33331,0 -0.83331,0.16669 -1,0 -0.16669,-0.16669 0.16669,-0.83331 0,-1 -0.16669,-0.16669 -0.66669,0 -1,0 -0.33331,0 -0.5,-0.16669 -1,0 -0.5,0.16669 -1.33331,0.66669 -2,1 -0.66669,0.33331 -1.83331,1 -2,1 -0.16669,0 0.5,-0.5 1,-1 0.5,-0.5 1.16669,-0.5 2,-2 0.83331,-1.5 2.16669,-5.16669 3,-7 0.83331,-1.83331 1.16669,-2.33331 2,-4 0.83331,-1.66669 2.5,-4.66669 3,-6 0.5,-1.33331 0.16669,-1.66669 0,-2 -0.16669,-0.33331 -0.83331,0 -1,0 -0.16669,0 0,0.16669 0,0 0,-0.16669 -0.16669,-0.83331 0,-1 0.16669,-0.16669 0.66669,0.16669 1,0 0.33331,-0.16669 0.66669,-0.5 1,-1 0.33331,-0.5 1,-1.83331 1,-2 0,-0.16669 -0.16669,-0.66669 -1,1 -0.83331,1.66669 -3.33331,7.5 -4,9 -0.66669,1.5 -0.16669,0.33331 0,0 0.16669,-0.33331 0,-1 1,-2 1,-1 3.66669,-2.83331 5,-4 1.33331,-1.16669 1.33331,-2.16669 3,-3 1.66669,-0.83331 4.83331,-1.33331 7,-2 2.16669,-0.66669 4.33331,-1.33331 6,-2 1.66669,-0.66669 2.66669,-1.5 4,-2 1.33331,-0.5 2.5,-0.33331 4,-1 1.5,-0.66669 3.66669,-2 5,-3 1.33331,-1 1.33331,-1.66669 3,-3 1.66669,-1.33331 3.16669,-2.5 7,-5 3.83331,-2.5 13.5,-8.33334 16,-10 2.5,-1.66666 -0.66669,-0.16666 -1,0 -0.33331,0.16666 0,0.66666 -1,1 -1,0.33334 -3.5,0.33334 -5,1 -1.5,0.66666 -2.83331,2.16666 -4,3 -1.16669,0.83334 -1.33331,1 -3,2 -1.66669,1 -3.33331,2 -7,4 -3.66669,2 -11.5,6.16669 -15,8 -3.5,1.83331 -3.33331,1.33331 -6,3 -2.66669,1.66669 -7.83331,5.66669 -10,7 -2.16669,1.33331 -1.83331,0.5 -3,1 -1.16669,0.5 -3,1.66669 -4,2 -1,0.33331 -1.5,-0.16669 -2,0 -0.5,0.16669 -0.66669,0.66669 -1,1 -0.33331,0.33331 -0.83331,0.83331 -1,1 -0.16669,0.16669 -0.16669,0.16669 0,0 0.16669,-0.16669 0.83331,-0.5 1,-1 0.16669,-0.5 -0.83331,-0.33331 0,-2 0.83331,-1.66669 4,-6 5,-8 1,-2 0.66669,-2.5 1,-4 0.33331,-1.5 0.5,-3.33331 1,-5 0.5,-1.66669 1.33331,-3.5 2,-5 0.66669,-1.5 1.66669,-2.83334 2,-4 0.33331,-1.16666 -0.16669,-2.33334 0,-3 0.16669,-0.66666 0.83331,-0.83334 1,-1 0.16669,-0.16666 0.16669,0 0,0 -0.16669,0 -0.83331,-0.16666 -1,0 -0.16669,0.16666 0.33331,0.16666 0,1 -0.33331,0.83334 -1.16669,2.33334 -2,4 -0.83331,1.66666 -1.83331,3.83334 -3,6 -1.16669,2.16669 -3,4.66669 -4,7 -1,2.33331 -1.16669,5 -2,7 -0.83331,2 -2.33331,3.5 -3,5 -0.66669,1.5 -1.10059,3.70906 -1.4339,4.54237 -0.33331,0.83332 -0.39941,0.29094 -0.5661,0.45763 -0.16669,0.16669 0,0.16669 0,0 0,-0.16669 0,-0.66669 0,-1 0,-0.33331 0,-0.5 0,-1 0,-0.5 0,-1.16669 0,-2 0,-0.83331 0,-2.33331 0,-3 0,-0.66669 0,-0.83331 0,-1 0,-0.16669 0.33331,-0.5 0,0 -0.33331,0.5 -1,1.16669 -2,3 -1,1.83331 -2.83331,5.83331 -4,8 -1.16669,2.16669 -1.83331,3.33331 -3,5 -1.16669,1.66669 -3.16669,3.66669 -4,5 -0.83331,1.33331 -0.83331,2.33331 -1,3 -0.16669,0.66669 0,0.83331 0,1 0,0.16669 -0.33331,0.16669 0,0 0.33331,-0.16669 1.33331,-0.5 2,-1 0.66669,-0.5 1.5,-1.33331 2,-2 0.5,-0.66669 0.83331,-1.5 1,-2 0.16669,-0.5 0,-1 0,-1 0,0 0,0.66669 0,1 0,0.33331 0,0.66669 0,1 0,0.33331 0,0.83331 0,1 0,0.16669 0,0 0,0 0,0 0.16669,0.16669 0,0 -0.16669,-0.16669 -0.83331,-0.83331 -1,-1 -0.16669,-0.16669 0.16669,0 0,0 -0.16669,0 -0.5,0 -1,0 -0.5,0 -1.16669,-0.16669 -2,0 -0.83331,0.16669 -2,0.5 -3,1 -1,0.5 -2.16669,1.66669 -3,2 -0.83331,0.33331 -1.33331,-0.16669 -2,0 -0.66669,0.16669 -1.5,0.66669 -2,1 -0.5,0.33331 -0.83331,0.83331 -1,1 -0.16669,0.16669 0,0.16669 0,0 0,-0.16669 0,-0.83331 0,-1 0,-0.16669 -0.16669,0 0,0 0.16669,0 0.66669,0.16669 1,0 0.33331,-0.16669 0.66669,-0.83331 1,-1 0.33331,-0.16669 0.83331,0 1,0 0.16669,0 0.16669,0 0,0 -0.16669,0 -0.83331,-0.16669 -1,0 -0.16669,0.16669 0.33331,0.5 0,1 -0.33331,0.5 -1.66669,1.5 -2,2 -0.33331,0.5 0.5,0.83331 0,1 -0.5,0.16669 -2.5,-0.16669 -3,0 -0.5,0.16669 0.16669,0.83331 0,1 -0.16669,0.16669 -0.83331,-0.16669 -1,0 -0.16669,0.16669 0,0.83331 0,1 0,0.16669 0.16669,-0.33331 0,0 -0.16669,0.33331 -0.66669,1.5 -1,2 -0.33331,0.5 -0.83331,0.66669 -1,1 -0.16669,0.33331 0,0.66669 0,1 0,0.33331 0,0.66669 0,1 0,0.33331 -0.16669,0.66669 0,1 0.16669,0.33331 0.83331,0.66669 1,1 0.16669,0.33331 0,0.66669 0,1 0,0.33331 0.16669,0.83331 0,1 -0.16669,0.16669 -0.33331,-0.33331 -1,0 -0.66669,0.33331 -2.16669,1.66669 -3,2 -0.83331,0.33331 -1.66669,0 -2,0 -0.33331,0 0,0.16669 0,0 0,-0.16669 0,-0.66669 0,-1 0,-0.33331 0.33331,-0.33331 0,-1 -0.33331,-0.66669 -1.83331,-2 -2,-3 -0.16669,-1 0.5,-2 1,-3 0.5,-1 1.66669,-2.16669 2,-3 0.33331,-0.83331 0,-1.5 0,-2 0,-0.5 0.16669,-0.66669 0,-1 -0.16669,-0.33331 -0.5,-0.5 -1,-1 -0.5,-0.5 -1.5,-1.5 -2,-2 -0.5,-0.5 -0.66669,-0.66669 -1,-1 -0.33331,-0.33331 -0.83331,-0.83331 -1,-1 -0.16669,-0.16669 0,0.16669 0,0 0,-0.16669 0,-0.83331 0,-1 0,-0.16669 0.16669,0.16669 0,0 -0.16669,-0.16669 -0.83331,-0.66669 -1,-1 -0.16669,-0.33331 0,-1 0,-1 0,0 0,0.83331 0,1 0,0.16669 0,-0.16669 0,0 0,0.16669 0.16669,0.66669 0,1 -0.16669,0.33331 -0.83331,0.66669 -1,1 -0.16669,0.33331 0.33331,0.33331 0,1 -0.33331,0.66669 -1.5,2 -2,3 -0.5,1 -0.66669,2 -1,3 -0.33331,1 -0.66669,1.83331 -1,3 -0.33331,1.16669 -0.66669,2.83331 -1,4 -0.33331,1.16669 -0.66669,2.16669 -1,3 -0.33331,0.83331 -0.83331,1.5 -1,2 -0.16669,0.5 -0.16669,1 0,1 0.16669,0 0.66669,-0.5 1,-1 0.33331,-0.5 0.33331,-1 1,-2 0.66669,-1 2.5,-3 3,-4 0.5,-1 -0.16669,-1.33331 0,-2 0.16669,-0.66669 0.83331,-1.5 1,-2 0.16669,-0.5 0.16669,-0.83331 0,-1 -0.16669,-0.16669 -0.66669,-0.83331 -1,0 -0.33331,0.83331 -0.5,3.5 -1,5 -0.5,1.5 -1.5,2.83331 -2,4 -0.5,1.16669 -0.5,1.83331 -1,3 -0.5,1.16669 -0.5,2.83331 -2,4 -1.5,1.16669 -5.5,2.16669 -7,3 -1.5,0.83331 -1.66669,1.5 -2,2 -0.33331,0.5 0,0.83331 0,1 0,0.16669 0.16669,0 0,0 -0.16669,0 -0.33331,0 -1,0 -0.66669,0 -2.16669,0 -3,0 -0.83331,0 -1.16669,0 -2,0 -0.83331,0 -2.16669,-0.16669 -3,0 -0.83331,0.16669 -1.5,0.66669 -2,1 -0.5,0.33331 -0.66669,0.83331 -1,1 -0.33331,0.16669 -0.66669,0 -1,0 -0.33331,0 -0.33331,-0.16669 -1,0 -0.66669,0.16669 -2,0.5 -3,1 -1,0.5 -2.16669,1.66669 -3,2 -0.83331,0.33331 -0.83331,0 -2,0 -1.16669,0 -3.5,0.33331 -5,0 -1.5,-0.33331 -3,-1.5 -4,-2 -1,-0.5 -1.5,-0.83331 -2,-1 -0.5,-0.16669 -0.66669,0.16669 -1,0 -0.33331,-0.16669 -0.83331,-0.5 -1,-1 -0.16669,-0.5 0.16669,-1.5 0,-2 -0.16669,-0.5 -0.83331,-0.33331 -1,-1 -0.16669,-0.66669 0,-2.33331 0,-3 0,-0.66669 0,-0.33331 0,-1 0,-0.66669 -0.16669,-2 0,-3 0.16669,-1 0.66669,-2.16669 1,-3 0.33331,-0.83331 0.33331,-0.66669 1,-2 0.66669,-1.33331 2.16669,-4.66669 3,-6 0.83331,-1.33331 1.66669,-1.33331 2,-2 0.33331,-0.66669 0,-1.33331 0,-2 0,-0.66669 0,-1.5 0,-2 0,-0.5 -0.16669,-0.5 0,-1 0.16669,-0.5 0.66669,-1.33331 1,-2 0.33331,-0.66669 0.66669,-1 1,-2 0.33331,-1 0.5,-3 1,-4 0.5,-1 1.33331,-1.33331 2,-2 0.66669,-0.66669 1.33331,-1.33331 2,-2 0.66669,-0.66669 1.5,-1.5 2,-2 0.5,-0.5 0.83331,-0.5 1,-1 0.16669,-0.5 -0.16669,-1.33331 0,-2 0.16669,-0.66669 0.66669,-1.5 1,-2 0.33331,-0.5 0.66669,-0.66669 1,-1 0.33331,-0.33331 0.5,-0.5 1,-1 0.5,-0.5 1.66669,-1.5 2,-2 0.33331,-0.5 0,-1 0,-1 0,0 0,0.66669 0,1 0,0.33331 0,0.66669 0,1 0,0.33331 -0.16669,0 0,1 0.16669,1 0.66669,3.5 1,5 0.33331,1.5 0.83331,2.83331 1,4 0.16669,1.16669 0,1.66669 0,3 0,1.33331 0.33331,3.66669 0,5 -0.33331,1.33331 -1.5,1.83331 -2,3 -0.5,1.16669 -0.5,2.83331 -1,4 -0.5,1.16669 -1.66669,2 -2,3 -0.33331,1 0,2.5 0,3 0,0.5 -0.16669,0.16669 0,0 0.16669,-0.16669 0.83331,-0.83331 1,-1 0.16669,-0.16669 -0.33331,0.33331 0,0 0.33331,-0.33331 1.33331,-1.33331 2,-2 0.66669,-0.66669 1.16669,-1 2,-2 0.83331,-1 2.33331,-3.16669 3,-4 0.66669,-0.83331 0.83331,-0.66669 1,-1 0.16669,-0.33331 0,-0.83331 0,-1 0,-0.16669 0,-0.16669 0,0 0,0.16669 0,0.83331 0,1 0,0.16669 0,-0.16669 0,0 0,0.16669 0,0 0,1 0,1 -0.33331,4.16669 0,5 0.33331,0.83331 1.33331,0 2,0 0.66669,0 1.16669,0.5 2,0 0.83331,-0.5 2.5,-2 3,-3 0.5,-1 0,-1.66669 0,-3 0,-1.33331 0.16669,-3.83331 0,-5 -0.16669,-1.16669 -0.83331,-1.66669 -1,-2 -0.16669,-0.33331 -0.5,0 0,0 0.5,0 2.5,0.5 3,0 0.5,-0.5 -0.16669,-2.33331 0,-3 0.16669,-0.66669 0.83331,-0.66669 1,-1 0.16669,-0.33331 0,-0.66669 0,-1 0,-0.33331 0.16669,-0.83331 0,-1 -0.16669,-0.16669 -1,-0.16669 -1,0 0,0.16669 0.83331,0.66669 1,1 0.16669,0.33331 -0.16669,0.5 0,1 0.16669,0.5 0.5,1.33331 1,2 0.5,0.66669 1.5,1.66669 2,2 0.5,0.33331 0.83331,0.16669 1,0 0.16669,-0.16669 0,-0.66669 0,-1 0,-0.33331 0.16669,-0.33331 0,-1 -0.16669,-0.66669 -0.66669,-2 -1,-3 -0.33331,-1 -0.66669,-2.16669 -1,-3 -0.33331,-0.83331 -0.83331,-1.5 -1,-2 -0.16669,-0.5 0,-0.16669 0,-1 0,-0.83331 0.16669,-3.16669 0,-4 -0.16669,-0.83331 -0.66669,-0.16669 -1,-1 -0.33331,-0.83331 -0.66669,-3 -1,-4 -0.33331,-1 -0.5,-1.33331 -1,-2 -0.5,-0.66669 -1.66669,-1.5 -2,-2 -0.33331,-0.5 0,-0.66669 0,-1 0,-0.33331 0,-0.5 0,-1 0,-0.5 0,-1.16669 0,-2 0,-0.83331 0,-2.33331 0,-3 0,-0.66669 0,-0.83331 0,-1 0,-0.16669 0.16669,0.16669 0,0 -0.16669,-0.16669 -0.5,-0.33331 -1,-1 -0.5,-0.66669 -1.66669,-2.16666 -2,-3"
     id="path0007"
     style="fill:none;stroke:#000000;stroke-opacity:1" />
</svg>
