<?xml version="1.0" encoding="UTF-8" standalone="no"?>
<!DOCTYPE svg PUBLIC "-//W3C//DTD SVG 20010904//EN" "http://www.w3.org/TR/2001/REC-SVG-20010904/DTD/svg10.dtd">
<svg version="1.0" xmlns="http://www.w3.org/2000/svg" width="361.000000pt" height="713.000000pt" viewBox="0 0 361.000000 713.000000" preserveAspectRatio="xMidYMid meet">
<metadata>
Created by potrace 1.11, written by Peter Selinger 2001-2013
</metadata>
<g transform="translate(0.000000,713.000000) scale(0.100000,-0.100000)" fill="#000000" stroke="none">
<path d="M2206 7028 c-3 -13 -14 -94 -26 -180 -24 -185 -53 -290 -120 -441 -94 -211 -203 -360 -282 -386 -30 -10 -43 -9 -73 3 -49 21 -64 61 -81 219 -21 192 -64 301 -146 372 -100 85 -280 88 -322 6 -35 -66 -19 -78 74 -55 97 23 133 14 192 -46 36 -37 52 -65 68 -117 23 -74 39 -180 40 -258 0 -50 0 -50 -47 -75 -26 -14 -83 -51 -125 -82 -79 -59 -102 -94 -81 -127 18 -29 42 -23 105 28 35 28 94 67 131 87 l69 36 39 -41 c89 -92 212 -73 323 50 181 201 307 526 309 799 2 132 -32 280 -47 208z"/>
<path d="M1954 5715 c-153 -35 -292 -94 -427 -181 -167 -108 -249 -251 -272 -475 l-6 -65 -112 -22 c-62 -12 -122 -25 -133 -28 -20 -5 -23 0 -33 60 -25 146 -70 257 -121 300 -37 31 -61 33 -83 8 -25 -27 -21 -55 14 -98 46 -57 74 -120 93 -201 23 -105 26 -100 -54 -105 -78 -6 -110 -25 -110 -64 0 -34 33 -48 99 -41 31 3 65 9 76 12 17 5 23 -2 37 -42 66 -185 255 -206 345 -37 17 32 37 87 44 120 12 60 14 62 48 68 20 3 80 6 133 6 53 0 103 3 112 6 19 7 21 37 4 67 -6 12 -15 36 -19 52 l-7 30 -13 -32 c-12 -30 -16 -32 -83 -38 -39 -3 -89 -8 -110 -12 l-39 -5 7 72 c15 146 71 258 176 353 57 51 228 142 401 213 250 102 263 132 33 79z m-730 -837 c-29 -95 -89 -164 -134 -153 -35 9 -48 22 -75 75 l-24 47 102 26 c131 33 140 33 131 5z"/>
<path d="M2507 5530 c-3 -8 -15 -84 -27 -168 -26 -189 -53 -280 -135 -447 -97 -196 -176 -285 -253 -285 -68 0 -89 46 -111 248 -19 174 -97 293 -216 328 -95 27 -169 6 -195 -56 -18 -44 -3 -57 48 -42 22 7 62 12 90 12 43 0 57 -5 87 -32 63 -55 96 -147 110 -309 l6 -76 -53 -30 c-78 -45 -161 -109 -176 -138 -14 -28 -2 -65 22 -65 7 0 39 21 72 48 32 26 85 60 116 77 l56 29 47 -43 c47 -43 47 -43 110 -39 80 5 117 29 198 130 187 231 289 613 223 830 -9 28 -15 38 -19 28z"/>
<path d="M2285 4504 c-123 -30 -138 -44 -47 -44 147 -1 318 -40 406 -93 107 -66 209 -214 236 -344 26 -124 -3 -287 -64 -368 -31 -40 -136 -95 -182 -95 -74 0 -124 86 -144 247 -14 113 -25 154 -51 187 -42 53 -89 22 -145 -93 l-38 -80 -21 75 c-24 80 -47 114 -78 114 -28 0 -80 -27 -125 -66 l-41 -35 -6 38 c-20 120 -70 204 -153 259 -146 97 -349 124 -368 48 -9 -35 0 -41 73 -48 172 -18 287 -78 338 -176 45 -87 39 -264 -13 -374 -78 -165 -216 -268 -492 -367 -63 -22 -119 -45 -124 -50 -27 -26 186 6 302 45 208 71 368 231 432 431 7 22 35 68 61 101 86 109 99 100 138 -86 12 -58 43 -120 61 -120 11 0 49 72 81 151 11 29 30 66 41 82 20 28 22 29 35 11 7 -10 13 -38 13 -63 0 -70 26 -176 56 -231 35 -65 86 -90 182 -90 156 0 267 111 323 325 15 60 19 97 15 150 -20 262 -188 476 -426 541 -56 15 -238 27 -275 18z"/>
<path d="M1060 4291 c-8 -5 -41 -11 -73 -15 -88 -10 -141 -43 -248 -154 -53 -55 -111 -108 -130 -117 -19 -10 -36 -19 -38 -21 -2 -2 8 -19 23 -39 20 -26 35 -35 56 -35 46 0 57 9 86 68 40 82 135 173 203 195 29 9 66 17 82 17 l29 0 0 -472 c0 -432 9 -668 27 -714 5 -15 8 -14 15 7 18 49 27 287 28 728 l0 454 58 -5 c122 -12 218 -85 291 -226 46 -90 63 -99 91 -49 14 25 13 30 -14 79 -94 172 -234 278 -366 278 -20 0 -45 7 -56 15 -22 16 -42 18 -64 6z"/>
<path d="M700 3243 c-8 -3 -44 -36 -80 -74 -36 -39 -91 -83 -124 -101 -32 -18 -57 -37 -55 -43 2 -5 36 -10 74 -10 58 1 79 6 124 30 61 34 161 120 161 140 0 36 -63 72 -100 58z"/>
<path d="M1415 2871 c-80 -21 -217 -111 -237 -157 -18 -39 13 -74 63 -74 34 0 45 6 67 32 58 70 115 119 173 149 41 20 58 34 51 41 -13 13 -80 19 -117 9z"/>
<path d="M2342 2735 c-19 -71 -31 -155 -57 -390 -46 -419 -73 -502 -151 -466 -35 16 -51 58 -83 225 -34 171 -59 222 -134 273 -85 57 -181 56 -246 -3 -49 -43 -68 -103 -52 -162 12 -42 34 -74 105 -151 l41 -43 -30 6 c-16 3 -72 9 -122 13 l-93 6 0 -43 0 -43 -31 61 c-37 74 -94 126 -163 147 -28 9 -57 19 -65 21 -11 4 -9 8 7 20 30 20 61 84 68 137 12 86 -50 171 -141 196 -133 36 -285 -29 -285 -122 0 -68 46 -75 102 -16 44 46 86 62 138 53 89 -16 123 -63 95 -130 -20 -48 -56 -87 -111 -119 -78 -46 -66 -78 34 -90 121 -14 183 -50 224 -128 30 -58 30 -173 -1 -242 -27 -61 -45 -81 -96 -108 -34 -19 -57 -22 -160 -22 -100 0 -132 4 -190 24 -159 53 -342 169 -482 304 -44 42 -73 64 -73 55 0 -64 108 -199 235 -295 58 -44 266 -153 293 -153 9 0 7 -8 -7 -26 -23 -29 -28 -83 -9 -102 22 -22 51 -13 90 29 44 46 86 62 138 53 89 -16 123 -63 95 -130 -20 -48 -56 -87 -111 -119 -78 -46 -66 -78 34 -90 121 -14 183 -50 224 -128 30 -58 30 -173 -1 -242 -27 -61 -45 -81 -96 -108 -34 -19 -57 -22 -160 -22 -100 0 -132 4 -190 24 -159 53 -342 169 -482 304 -80 77 -91 73 -48 -17 17 -36 53 -80 108 -133 102 -98 152 -132 280 -193 163 -78 282 -100 421 -81 95 13 162 48 217 110 48 54 69 118 76 232 5 79 3 92 -21 144 -14 32 -26 59 -26 61 0 2 25 4 55 4 47 0 59 -4 90 -32 63 -55 96 -147 110 -309 l6 -76 -53 -30 c-78 -45 -161 -109 -176 -138 -14 -28 -2 -65 22 -65 7 0 39 21 72 47 32 27 85 61 116 78 l56 29 47 -43 c47 -43 47 -43 110 -39 45 3 73 11 100 28 51 34 152 163 202 257 50 94 108 261 124 361 11 65 14 72 35 72 40 0 52 10 80 68 40 82 135 173 203 195 29 9 66 17 82 17 l29 0 0 -472 c0 -432 9 -668 27 -714 5 -15 8 -14 15 7 18 49 27 287 28 728 l0 454 58 -5 c122 -12 218 -85 290 -225 24 -46 49 -83 57 -83 16 0 45 38 45 58 0 28 -85 157 -140 212 -69 69 -147 109 -226 117 -33 3 -70 12 -83 20 -19 12 -31 13 -60 5 -20 -6 -58 -14 -86 -18 -79 -10 -133 -44 -233 -150 -98 -103 -111 -107 -113 -39 -1 44 -25 113 -32 95 -3 -8 -15 -84 -27 -168 -26 -189 -53 -280 -135 -447 -97 -196 -176 -285 -253 -285 -68 0 -89 46 -111 248 -18 171 -97 292 -212 326 -98 29 -129 21 -129 -36 l0 -40 -41 36 c-23 19 -65 43 -93 51 -28 9 -57 19 -65 21 -11 4 -9 8 7 20 57 40 86 161 54 228 l-18 40 58 28 c72 36 133 105 154 172 8 28 18 88 21 133 7 99 2 97 160 95 104 -2 113 0 124 19 14 27 6 58 -42 151 -41 80 -46 108 -28 155 13 36 25 43 76 43 36 0 46 -5 80 -44 45 -51 58 -87 73 -206 21 -175 67 -255 161 -280 74 -20 126 5 162 78 57 114 74 237 84 618 4 169 3 256 -5 269 -9 17 -11 15 -20 -20z"/>
<path d="M680 583 c-8 -3 -44 -36 -80 -74 -36 -39 -91 -83 -124 -101 -32 -18 -57 -37 -55 -43 2 -5 36 -10 74 -10 58 1 79 6 124 30 61 34 161 120 161 140 0 36 -63 72 -100 58z"/>
</g>
</svg>