<?xml version="1.0" encoding="UTF-8" standalone="no"?>
<!-- Created with Inkscape (http://www.inkscape.org/) -->

<svg
   xmlns:dc="http://purl.org/dc/elements/1.1/"
   xmlns:cc="http://creativecommons.org/ns#"
   xmlns:rdf="http://www.w3.org/1999/02/22-rdf-syntax-ns#"
   xmlns:svg="http://www.w3.org/2000/svg"
   xmlns="http://www.w3.org/2000/svg"
   version="1.1"
   width="1029.5891"
   height="733.04431"
   id="svg2">
  <defs
     id="defs4" />
  <metadata
     id="metadata7">
    <rdf:RDF>
      <cc:Work
         rdf:about="">
        <dc:format>image/svg+xml</dc:format>
        <dc:type
           rdf:resource="http://purl.org/dc/dcmitype/StillImage" />
        <dc:title></dc:title>
      </cc:Work>
    </rdf:RDF>
  </metadata>
  <path
     d="m 698.12837,585.2598 c -0.60565,0.72761 -1.99184,0.91416 -2.78154,1.55382 -0.17496,0.14172 -0.0111,0.1129 -0.19183,0.19422 -1.17017,0.52658 -2.01824,1.13982 -3.02132,1.94228 -0.1497,0.11977 -0.35449,0.18289 -0.50355,0.30213 -0.11943,0.0955 -0.22703,0.27068 -0.35968,0.3453 -0.1302,0.0732 -0.31463,0.13864 -0.43162,0.25897 -0.25386,0.26111 -0.55426,0.53512 -0.86323,0.73375 -1.18097,0.75919 -2.43243,1.49859 -3.47692,2.43863 -0.16293,0.14665 -0.40043,0.22983 -0.55151,0.38846 -0.75784,0.79573 -1.59991,1.5255 -2.37389,2.30915 -0.18034,0.18259 -0.26066,0.49356 -0.4556,0.66901 -0.4879,0.43911 -1.18279,1.3737 -1.51066,1.96386 -0.21162,0.3809 -0.53469,0.70683 -0.76732,1.07904 -0.27717,0.44348 -0.52533,0.87758 -0.7913,1.31643 -0.16715,0.27581 -0.26189,0.6847 -0.35968,0.99272 -0.0836,0.26332 -0.25726,0.469 -0.3357,0.73375 -0.37233,1.2566 -0.57549,2.22451 -0.57549,3.53926 0,0.20626 -0.0528,0.41816 -0.024,0.62585 0.0488,0.35157 0.30531,0.66894 0.40764,1.0143 0.13455,0.45412 0.13501,1.02445 0.3357,1.44591 0.15634,0.32832 0.32385,0.72342 0.43162,1.07905 0.0446,0.14729 0.0419,0.36277 0.0959,0.49636 0.0844,0.20893 0.38342,0.49614 0.55151,0.64742 1.0322,0.92897 2.19279,1.5099 3.38101,2.22283 0.1539,0.0923 0.29348,0.19853 0.43161,0.30213 0.12588,0.0944 0.30395,0.096 0.43162,0.17265 0.0379,0.0228 0.0712,0.12515 0.0959,0.15106 0.18646,0.19578 0.58863,0.38803 0.83926,0.47478 0.29386,0.10172 0.62771,0.10647 0.91119,0.21581 0.13327,0.0514 0.21576,0.19421 0.35968,0.25897 0.40798,0.18359 0.86248,0.24801 1.29485,0.3453 0.20685,0.0465 0.39287,0.17928 0.59947,0.23739 0.64539,0.18151 1.41681,0.30464 2.08615,0.28055 0.49065,-0.0177 1.04134,-0.18292 1.51066,-0.32372 0.12651,-0.038 0.20419,-0.16657 0.31173,-0.19422 0.6993,-0.17983 1.41596,-0.28811 2.11012,-0.49636 0.45693,-0.13708 0.85784,-0.3471 1.31883,-0.51794 0.56468,-0.20927 1.16239,-0.33912 1.70249,-0.60427 0.43587,-0.21397 0.81453,-0.59592 1.22292,-0.86323 0.68153,-0.44609 1.4015,-0.82974 2.01421,-1.38118 0.66625,-0.59962 1.34979,-1.13029 2.13411,-1.55382 0.18034,-0.0974 0.55683,-0.32768 0.64743,-0.51794 0.018,-0.0378 0.23978,-0.2307 0.23978,-0.21581 0,0.0787 -0.83718,0.48081 -0.93517,0.51794 -1.27277,0.48231 -3.36147,1.14295 -4.72381,0.88482 -0.19326,-0.0366 -0.65383,-0.006 -0.81527,-0.15107 -0.0606,-0.0545 0.26719,-0.13565 0.40763,-0.38845 0.23422,-0.42159 0.43987,-0.85651 0.67141,-1.27327 0.18403,-0.33126 0.43946,-0.6184 0.62345,-0.94956 0.88039,-1.58471 1.7904,-3.31867 0.76732,-5.00676 -0.24867,-0.4103 -0.56647,-0.77814 -1.03109,-0.97114 -1.20145,-0.49907 -1.79168,-0.39573 -3.02132,-0.47478 -0.42394,-0.0272 -0.85489,-0.0454 -1.27087,0.0647 -0.80172,0.21222 -1.62683,0.49678 -2.39788,0.7985 -0.47189,0.18465 -1.42784,0.46152 -1.82238,0.71216 -0.21021,0.13355 -0.38763,0.26076 -0.62345,0.36688 -1.31031,0.58964 -3.01223,0.88114 -4.41208,1.25169 -0.20599,0.0545 -0.43716,0.0313 -0.64743,0.0647 -0.51418,0.0817 -1.05461,0.19411 -1.55862,0.32371 -0.0602,0.0155 -0.54338,0.0571 -0.55151,0.0863 -0.0329,0.11856 0.45922,-0.0419 0.47958,-0.0432 0.57743,-0.0371 1.16328,-0.20445 1.72647,-0.32372 1.39932,-0.29632 2.79903,-0.61576 4.22025,-0.79849 0.47236,-0.0607 1.47791,-0.27816 1.9183,-0.0647 1.10306,0.53456 -0.12984,3.63616 -0.28774,4.48882 -0.16655,0.89936 -0.0235,1.69942 0.45559,2.43863 0.51204,0.79001 1.9202,1.11005 2.78153,1.07905 0.73189,-0.0263 1.49481,-0.33633 2.20605,-0.49636 1.22071,-0.27466 2.48506,-0.0496 3.7167,-0.28055 0.98323,-0.18436 1.95377,-0.62903 2.87745,-0.99272 0.39602,-0.15594 0.8542,-0.19671 1.22291,-0.41004 0.37658,-0.21787 0.76702,-0.48453 1.127,-0.73375 0.51122,-0.35392 0.91899,-0.83099 1.41475,-1.20853 0.77017,-0.58652 1.68167,-1.09002 2.30196,-1.83437 0.27384,-0.32861 0.59419,-0.80584 0.74334,-1.20853 0.0952,-0.25696 0.0885,-0.55017 0.21581,-0.79849 0.30375,-0.59233 0.68185,-1.1508 0.93517,-1.76963 0.12412,-0.30321 0.29072,-0.61432 0.38366,-0.92798 0.042,-0.14181 0.0266,-0.29638 0.0959,-0.43161 0.15428,-0.30085 0.38056,-0.59033 0.4556,-0.92798 0.0414,-0.1863 -3.7e-4,-0.37624 0.048,-0.5611 0.1116,-0.4269 0.38439,-0.77955 0.50355,-1.20853 0.0695,-0.2502 0.0678,-0.48104 0.0959,-0.73375 0.0303,-0.27269 0.16662,-0.52619 0.19183,-0.79849 0.0711,-0.76828 0.18558,-1.53504 0.26377,-2.30915 0.0465,-0.46063 0.32643,-1.63385 0.26377,-2.02861 -0.0253,-0.15904 -0.18237,-0.27222 -0.23979,-0.41003 -0.0923,-0.22151 -0.0967,-0.49891 -0.16785,-0.73375 -0.10773,-0.35551 -0.58205,-1.01565 -0.74334,-1.40276 -0.1297,-0.31126 0.006,-0.67209 -0.21581,-0.97113 -0.0633,-0.0854 -0.14621,-0.14065 -0.21581,-0.21581 -0.11513,-0.12435 -0.37227,-0.78005 -0.50355,-0.99272 -0.23271,-0.37699 -0.81043,-0.59235 -1.127,-0.84166 -0.19401,-0.15277 -0.21833,-0.35031 -0.40764,-0.49636 -0.15853,-0.12229 -0.25337,-0.0685 -0.43162,-0.0863 -0.96367,-0.0964 -1.88188,-0.30911 -2.87745,-0.0647 -0.27669,0.0679 -1.50084,0.48803 -1.75044,0.15106 -0.3031,-0.40918 0.4621,0.0648 0.0719,0.0648 -0.0791,0 0.0275,-0.16319 0,-0.23739 -0.0114,-0.0307 -0.0639,-0.0144 -0.0959,-0.0216 -0.016,-0.0432 -0.0389,-0.0844 -0.048,-0.12949 -0.0455,-0.2251 0.0145,-0.46548 -0.024,-0.69059 -0.0536,-0.31381 -0.22797,-0.55076 -0.3357,-0.84165 -0.10631,-0.28702 -0.0879,-0.57544 -0.21581,-0.86323 -0.0418,-0.094 -0.16301,-0.17345 -0.21581,-0.25897 -0.15364,-0.2489 -0.1832,-0.58811 -0.38366,-0.82008 -0.29664,-0.34325 -0.65052,-0.69477 -0.93517,-1.07904 -0.18968,-0.25607 -0.3071,-0.55398 -0.47957,-0.82007 -0.19028,-0.29357 -0.41447,-0.57186 -0.59947,-0.86324 -0.25234,-0.39743 -0.55776,-0.82059 -0.76732,-1.25169 -0.0756,-0.15555 -0.12329,-0.35063 -0.21581,-0.49636 -0.49076,-0.77294 -0.86575,-1.40863 -1.22292,-2.24441 -0.14514,-0.33963 -0.57326,-0.59802 -0.79129,-0.90639 -0.33301,-0.47096 -0.61503,-1.00828 -1.03109,-1.42434 -0.18677,-0.18677 -0.41585,-0.32907 -0.59947,-0.51794 -0.21728,-0.22349 -0.4136,-0.49632 -0.62344,-0.71217 -1.93903,-1.99443 -5.70088,-3.33339 -8.39256,-4.07878 -0.70421,-0.19501 -1.44006,-0.23139 -2.15809,-0.32371 -0.27261,-0.035 -0.74703,-0.0669 -1.0071,0 -0.13289,0.0342 -0.23074,0.13396 -0.35968,0.17264 -0.27567,0.0827 -0.66974,0.0819 -0.95915,0.10791 -0.98779,0.0889 -1.9059,-0.18274 -2.87745,-0.23739 -0.41428,-0.0233 -0.83272,0.0249 -1.24689,0 -0.54406,-0.0326 -1.09403,-0.1306 -1.63056,-0.21581 -0.99326,-0.15775 -2.02283,-0.18492 -3.02132,-0.30213 -0.3982,-0.0467 -0.78094,-0.15414 -1.17496,-0.21581 -0.79302,-0.12413 -1.62243,-0.10181 -2.42185,-0.12948 -1.13151,-0.0392 -2.29829,-0.12335 -3.42896,-0.0216 -1.80236,0.16222 -3.63907,0.40391 -5.41919,0.73375 -0.7696,0.14261 -1.60403,0.19469 -2.34992,0.43162 -1.08167,0.34359 -2.18531,0.72884 -3.2611,1.14379 -1.11893,0.43158 -2.39801,0.60434 -3.45294,1.20852 -1.41249,0.80898 -2.86229,1.67535 -4.12434,2.69761 -0.15109,0.12238 -0.35973,0.17269 -0.50356,0.30213 -0.46416,0.41776 -1.07433,0.82628 -1.51066,1.25169 -0.13191,0.12862 -0.21155,0.31164 -0.35968,0.43162 -1.31003,1.06113 -2.58334,2.3231 -3.66874,3.62558 -0.27829,0.33395 -0.44574,0.72954 -0.69539,1.07905 -0.30926,0.43297 -0.65755,0.85003 -0.98312,1.27327 -0.14901,0.19371 -0.34174,0.34318 -0.50356,0.51794 -0.59747,0.64527 -1.1596,1.32313 -1.7984,1.94228 -0.34061,0.33012 -0.54808,0.75395 -0.86324,1.10062 -0.13998,0.15398 -0.31759,0.27361 -0.43161,0.4532 -0.55943,0.8811 -1.1673,1.77185 -1.65454,2.6976 -0.17877,0.33968 -0.32767,0.70885 -0.52753,1.03589 -0.36305,0.59408 -0.87102,1.099 -1.24689,1.6833 -0.18855,0.2931 -0.40129,0.55181 -0.59947,0.84166 -0.12965,0.18961 -0.20619,0.43158 -0.35968,0.60426 -0.12707,0.14296 -0.25819,0.26415 -0.35968,0.43162 -0.25221,0.41614 -0.41589,0.87808 -0.64743,1.29485 -0.37199,0.66959 -0.88486,1.33166 -1.15098,2.05018 -0.28588,0.7719 -0.53245,1.57578 -0.79129,2.35231 -0.14082,0.42244 -0.17925,0.9453 -0.23979,1.38118 -0.11004,0.79225 0.11582,1.58456 -0.21581,2.33073 -0.0605,0.13605 -0.0592,0.35747 -0.16785,0.47478 -0.72773,0.78594 -1.5687,1.49565 -2.30196,2.28757 -0.3901,0.42131 -0.74214,0.88817 -1.15098,1.29485 -0.31554,0.31388 -0.6904,0.54133 -1.03108,0.82008 -0.40387,0.33043 -0.78301,0.77429 -1.127,1.16536 -1.01765,1.15691 -1.82231,2.46732 -2.80552,3.64717 -0.52404,0.62886 -1.11143,1.25234 -1.55861,1.94227 -0.43022,0.66377 -0.80857,1.39263 -1.17496,2.09335 -0.75305,1.4402 -1.17287,3.04983 -1.70249,4.57514 -0.66527,1.91598 -1.49001,3.76544 -1.70249,5.80525 -0.16256,1.56055 0.35461,3.00307 0.76732,4.48882 0.2684,0.96626 0.41133,1.96923 0.69538,2.935 0.34213,1.16323 0.89552,2.26622 1.29485,3.40977 0.22849,0.6543 0.37775,1.33907 0.62345,1.98544 0.60693,1.5967 1.39913,3.14064 2.08615,4.70463 0.52229,1.18897 0.95847,2.4523 1.60657,3.58242 0.53005,0.92427 1.25755,1.74514 1.89432,2.5897 0.91184,1.20938 2.20901,2.12689 3.38101,3.06448 0.68612,0.54891 1.26287,1.19905 1.99023,1.70489 1.86463,1.29677 3.939,2.2594 5.94673,3.30187 0.56059,0.29108 1.05974,0.69093 1.63055,0.97114 1.51927,0.74583 3.12194,1.26257 4.67585,1.9207 0.96496,0.40869 1.86865,0.96048 2.82949,1.38117 2.07454,0.90832 5.01073,1.93868 7.26556,2.26599 0.89891,0.13049 1.89968,0.24253 2.80551,0.17265 0.82853,-0.0639 1.64092,-0.23726 2.46981,-0.30213 0.83423,-0.0653 1.69187,0.0394 2.51776,-0.12949 0.60547,-0.12384 1.25934,-0.39405 1.82239,-0.64742 0.19256,-0.0867 -0.11523,-0.15247 0.024,-0.19423 0.39553,-0.11866 0.81374,-0.2367 1.19893,-0.41004 0.22986,-0.10343 0.3904,-0.33909 0.64743,-0.43161 0.12169,-0.0438 7.5e-4,0.11886 0.048,0.12948 0.0601,0.0135 0.97726,-0.21076 1.10302,-0.23739 0.18369,-0.0389 0.37479,-0.1893 0.55151,-0.21581 0.13158,-0.0197 0.14398,0.0785 0.26377,0.10791 0.23531,0.0578 0.52588,0.0304 0.76731,0.0432 0.71701,0.038 1.48665,-0.0154 2.18207,-0.19423 0.68576,-0.17634 0.93966,-0.75937 1.41474,-1.18695 0.9806,-0.88253 1.49455,-1.81067 1.96626,-2.97815 0.10128,-0.25067 0.18608,-0.61728 0.21581,-0.88482 0.009,-0.0818 -0.025,-0.2017 0,-0.28055 0.0986,-0.31044 0.25227,-0.61382 0.35968,-0.92798 0.24418,-0.71421 0.46249,-1.42136 0.71936,-2.11492 0.0512,-0.13818 0.74638,-1.34855 0.81528,-1.42434 0.20517,-0.22568 0.0914,0.008 0.21581,-0.21581 0.0418,-0.0752 0.0102,-0.25678 0.048,-0.30213 0.0562,-0.0675 0.15526,-0.0875 0.21581,-0.15107 0.22122,-0.23227 0.36887,-0.53049 0.59947,-0.75533 0.36871,-0.35948 0.72759,-0.74021 1.10302,-1.10062 0.48476,-0.46537 1.09874,-0.79335 1.53464,-1.31643 0.24406,-0.29287 0.42579,-0.65034 0.64743,-0.94956 0.88754,-1.19818 2.00539,-2.26134 3.0453,-3.34503 0.24716,-0.25758 0.46795,-0.54559 0.74334,-0.77691 0.54723,-0.45968 1.18689,-0.68769 1.82238,-0.99272 0.62093,-0.29805 1.23501,-0.61357 1.84636,-0.92798 0.0434,-0.0223 0.98427,-0.53798 0.93517,-0.60426 -0.10323,-0.13937 -0.26121,0.11158 -0.28774,0.12948 -0.0704,0.0475 -0.2468,0.0406 -0.3357,0.0863 -0.18571,0.0955 -0.29706,0.23845 -0.4556,0.36687 -0.44338,0.35913 -1.81135,0.94297 -2.06217,1.33801 -0.28708,0.45216 -0.83457,1.38231 -1.03109,1.87754 -0.10553,0.26593 -0.27178,0.44605 -0.40763,0.69059 -0.14174,0.25511 -0.0566,0.63131 -0.14388,0.90639 -0.10999,0.34649 -0.35222,0.65158 -0.45559,0.99272 -0.11682,0.3855 -0.18473,0.81109 -0.35968,1.16537 -0.15687,0.31765 -0.43619,0.56361 -0.62345,0.86323 -0.28668,0.45868 -0.40199,1.02741 -0.69538,1.4675 -0.60222,0.90332 -1.49656,1.55186 -2.13411,2.43864 -0.28974,0.40299 -0.52455,0.87472 -0.7913,1.29485 -0.16133,0.25409 -0.22513,0.54695 -0.40764,0.77691 -0.46803,0.58972 -0.76218,1.29701 -1.22291,1.87753 -0.0804,0.10128 -0.0666,0.24115 -0.16785,0.3453 -0.0352,0.0362 -0.38444,0.4228 -0.35968,0.47478 0.0212,0.0445 0.0893,0.0477 0.11989,0.0863 0.14083,0.17745 -0.36285,1.43126 -0.43162,1.64014 -0.3005,0.91277 -0.5822,1.85853 -0.83925,2.78394 -0.11223,0.40399 -0.17314,0.86596 -0.33571,1.25169 -0.90468,2.14655 -2.57347,3.0912 -4.34015,4.44565 -0.64926,0.49777 -2.46012,1.6272 -3.381,1.5754 -1.06986,-0.0602 -2.14746,-0.32316 -3.18917,-0.53952 -1.01841,-0.21151 -2.10866,-0.15994 -3.14121,-0.23739 -0.40446,-0.0303 -0.82121,-0.0753 -1.22292,0 -2.16219,0.40542 -2.9656,1.5265 -4.60391,2.74077 -0.89412,0.6627 -1.84803,1.24687 -2.63766,2.0286 -0.16482,0.16318 -0.43437,0.28385 -0.57549,0.4532 -0.12624,0.15149 0.43845,-0.0185 0.47957,0 0.31156,0.1402 0.60017,0.34817 0.91119,0.49636 1.17968,0.56209 2.28921,0.99372 3.21315,1.96386 0.33226,0.34887 0.43162,0.98332 0.43162,1.44592 0,0.33314 -0.23635,0.66455 -0.3357,0.97114 -0.29174,0.90022 -0.6793,1.76565 -1.15098,2.5897 -0.78681,1.3746 -1.47377,2.96787 -1.84636,4.5104 -0.17263,0.71466 -0.16652,1.45059 -0.19183,2.17966 -0.0277,0.79824 -0.0943,1.51662 0,2.30916 0.052,0.43641 -8.6e-4,0.88094 0.0959,1.31643 0.11251,0.5063 0.0539,0.1564 0.28775,0.62584 0.19109,0.38366 0.27239,0.83205 0.43161,1.23011 0.30912,0.77281 0.84062,1.42141 1.41475,2.00702 0.67868,0.69226 1.33776,1.41639 2.254,1.79121 0.35943,0.14704 0.74733,0.0692 1.127,0.0863 0.8953,0.0403 1.77543,0.10874 2.66164,0.23739 0.15858,0.023 2.30969,0.38323 2.39787,0.32371 0.0445,-0.0301 0.0523,-0.0981 0.0959,-0.12949 0.11808,-0.085 0.36635,-0.10679 0.50355,-0.17264 0.5108,-0.24519 1.12221,-0.62272 1.51066,-1.03588 0.52604,-0.55952 0.6957,-1.36508 1.00711,-2.05019 0.38129,-0.83883 0.96681,-1.75204 0.88721,-2.71918 -0.073,-0.88693 -0.40194,-1.69955 -0.76732,-2.50338 -0.14592,-0.32103 -0.38145,-0.55048 -0.4556,-0.9064 -0.21461,-1.03013 0.66478,-2.79517 1.03109,-3.73349 0.053,-0.13583 0.63939,-1.79358 0.74334,-1.85595 0.12522,-0.0751 0.30504,0.0152 0.43162,0 0.40727,-0.0489 0.8571,-0.16907 1.24689,-0.30213 0.62982,-0.21501 1.18667,-0.60913 1.79841,-0.86324 0.52027,-0.21611 1.11428,-0.32123 1.65453,-0.47478 0.72903,-0.20719 1.69646,-0.0563 2.49379,-0.21581 0.95579,-0.19115 1.861,-0.52864 2.80551,-0.75533 1.42386,-0.34172 2.93972,-0.32297 4.34015,-0.69058 1.05308,-0.27644 1.97805,-0.8796 3.02132,-1.16537 1.51345,-0.41455 3.21058,-0.59584 4.53198,-1.51066 0.15405,-0.10665 0.21201,-0.26123 0.3357,-0.38845 0.32203,-0.33123 0.8081,-0.53943 1.17496,-0.82008 0.59172,-0.45266 1.13875,-0.98043 1.70249,-1.4675 0.50683,-0.4379 1.10454,-0.78287 1.55862,-1.27327 0.37672,-0.40686 0.57352,-0.92701 0.81527,-1.42433 0.17814,-0.36645 0.82043,-1.31436 1.07905,-1.59699 0.0273,-0.0298 0.56462,-0.82395 0.55151,-0.84165 -0.019,-0.0257 -0.0678,0.0152 -0.0959,0 -0.1336,-0.0721 0.20256,-1.10158 0.26377,-1.23011 0.41541,-0.87236 0.90237,-1.70927 1.34281,-2.56812 0.15492,-0.3021 0.22154,-0.64649 0.31172,-0.97114 0.11625,-0.41851 0.32096,-0.81183 0.43162,-1.23011 0.0668,-0.25266 0.10793,-0.52521 0.19183,-0.77691 0.15908,-0.47725 0.30856,-0.98873 0.55151,-1.44592 0.12692,-0.23884 0.29083,-0.4453 0.40764,-0.69058 0.10703,-0.22476 0.14387,-0.464 0.23978,-0.69059 0.23975,-0.5664 0.54872,-1.10994 0.81528,-1.66173 0.17701,-0.36641 0.39812,-0.76214 0.47958,-1.16536 0.0351,-0.17369 -0.13385,-0.42454 -0.0959,-0.56111 0.0432,-0.15545 0.13127,-0.2285 0.14387,-0.41003 0.005,-0.0688 0.28579,-0.94736 0,-0.62585 -0.19731,0.22198 0.32025,0.85451 0.38366,1.0143 0.56233,1.41706 0.95121,2.91062 1.82239,4.16511 0.10736,0.1546 0.27067,0.26519 0.40763,0.38845 0.42855,0.38569 0.73013,0.92914 1.22292,1.25169 0.28619,0.18733 0.62889,0.30284 0.93517,0.4532 1.05997,0.52035 2.04945,1.1167 3.23713,1.29485 0.9431,0.14147 3.08881,-0.44818 3.90853,-0.84165 0.25194,-0.12093 0.47878,-0.29088 0.71936,-0.43162 0.81467,-0.47658 1.40156,-0.72501 2.08615,-1.40275 0.0917,-0.0908 0.23529,-0.15579 0.31173,-0.25897 0.34646,-0.46773 0.45163,-1.05186 0.7913,-1.53224 0.40636,-0.57473 1.0334,-1.01031 1.27087,-1.70489 0.15656,-0.45796 0.15087,-0.95125 0.3357,-1.40276 0.1902,-0.46462 0.68013,-0.91228 0.74334,-1.42433 0.0386,-0.31259 -0.0147,-0.6359 0.024,-0.94956 0.0121,-0.0983 0.12515,-0.61433 0.11989,-0.64743 -0.0432,-0.2721 -0.2641,-0.60556 -0.3357,-0.88481 -0.14098,-0.54981 0.0747,-1.28191 -0.16785,-1.79121 -0.14995,-0.3149 -0.42758,-0.52863 -0.55151,-0.86324 -0.16558,-0.44705 -0.23937,-0.94844 -0.40764,-1.40275 -0.14425,-0.38947 -0.50665,-0.77741 -0.76732,-1.07905 -0.35073,-0.40584 -0.60333,-0.93044 -0.95915,-1.33801 -0.33842,-0.38764 -0.71993,-0.77743 -1.10302,-1.12221 -0.50865,-0.45778 -1.20999,-0.68107 -1.75045,-1.07904 -0.22837,-0.16816 -0.38523,-0.44194 -0.57549,-0.64742 -0.28554,-0.30839 -0.63875,-0.60465 -0.98312,-0.84166 -0.55271,-0.38039 -1.15549,-0.67171 -1.72647,-1.0143 -0.74409,-0.44645 -1.46669,-0.93976 -2.23002,-1.35959 -0.34102,-0.18756 -0.726,-0.31063 -1.05507,-0.51794 -0.19112,-0.12041 -0.29245,-0.30637 -0.45559,-0.4532 -0.21336,-0.19202 -0.50299,-0.34185 -0.74335,-0.49636 -0.55453,-0.35649 -1.25335,-0.5608 -1.77442,-0.97114 -0.46885,-0.36922 -0.94954,-0.78189 -1.4627,-1.1222 -0.32268,-0.21399 -0.68421,-0.39909 -0.98313,-0.64743 -0.66991,-0.55654 -1.18645,-1.31286 -1.87034,-1.85595 -0.46404,-0.3685 -0.98928,-0.6881 -1.34281,-1.16537 -0.36167,-0.48825 -0.44295,-1.1375 -0.81528,-1.64014 -0.27403,-0.36995 -0.9767,-1.03678 -1.15098,-1.40276 -0.28671,-0.60209 -0.235,-1.26122 -0.47957,-1.87753 -0.42026,-1.05905 -1.07871,-1.5751 -1.89432,-2.30916 -0.49646,-0.44681 -1.97649,-1.07395 -2.61368,-1.38117 -1.56914,-0.75655 -3.2526,-1.24786 -4.84371,-1.96386 -0.62307,-0.28038 -1.19627,-0.71073 -1.7984,-1.03588 -0.74181,-0.40058 -1.62054,-0.66235 -2.27798,-1.20853 -0.58398,-0.48515 -1.07669,-1.07795 -1.65453,-1.5754 -0.54584,-0.4699 -1.5827,-1.09655 -1.87035,-1.76963 -0.49763,-1.16447 -0.29285,-2.45474 -0.6714,-3.64717 -0.20901,-0.65839 -0.55341,-1.20273 -0.50355,-1.92069 0.0232,-0.33456 0.19093,-0.63589 0.28774,-0.94956 0.15088,-0.48885 0.19107,-1.016 0.3357,-1.51066 0.0974,-0.33324 0.28139,-0.64898 0.38366,-0.97114 0.053,-0.16693 0.0589,-0.39546 0.14388,-0.5611 0.21236,-0.41411 0.45653,-0.80102 0.62344,-1.25169 0.38224,-1.03204 0.48777,-2.09275 0.74334,-3.15081 0.19042,-0.78833 0.5566,-1.53463 0.7913,-2.30915 0.17412,-0.5746 0.29817,-1.2013 0.38366,-1.79121 0.0664,-0.45793 0.018,-0.94159 0.0719,-1.40276 0.0766,-0.65514 0.24866,-1.28947 0.3357,-1.94227 0.0468,-0.35082 0.0167,-0.70934 0.0719,-1.05746 0.11159,-0.70305 0.29163,-1.3736 0.47957,-2.05019 0.0572,-0.20603 0.008,-0.42571 0.0719,-0.62584 0.0457,-0.1441 0.13859,-0.28788 0.19183,-0.43162 0.0998,-0.26933 0.10178,-1.16024 -0.024,-1.42434 -0.0396,-0.0832 -0.24252,-0.5204 -0.28775,-0.5611 -0.12813,-0.11531 -0.32221,-0.24076 -0.43161,-0.38845 -0.18314,-0.24724 -0.35028,-0.54494 -0.55151,-0.79849 -0.78102,-0.98409 -2.03946,-1.33865 -3.11724,-1.87754 -0.6745,-0.33725 -1.19673,-0.70027 -1.96626,-0.86323 -1.23369,-0.26126 -2.49671,-0.30789 -3.74068,-0.53953 -1.56105,-0.29067 -3.09718,-0.82007 -4.69983,-0.82007 -0.0977,0 -0.62745,-0.11958 -0.69538,-0.0432 -0.64564,0.72634 -1.71773,0.63206 -2.42185,1.55382 -0.48014,0.62854 -0.3559,1.54251 -0.40764,2.28757 -0.0335,0.4816 -0.21392,1.05804 -0.43162,1.48908 -0.29791,0.58986 -0.79208,1.12751 -1.19894,1.64015 -0.48969,0.61701 -0.88141,1.30847 -1.34281,1.94227 -0.3729,0.51226 -0.87873,0.90812 -1.29485,1.38118 -0.55384,0.62963 -1.10139,1.26853 -1.65453,1.89912 -1.19538,1.36273 -2.83908,1.48735 -4.22026,2.48179 -0.59144,0.42584 -0.59644,1.41557 -0.81527,2.05019 -0.33977,0.98533 -0.88766,1.89774 -1.15098,2.91341 -0.28171,1.08659 0.14428,2.138 0.43162,3.17239 0.0869,0.31281 0.1115,0.62778 0.23978,0.92797 0.1524,0.35661 0.41564,0.61866 0.59947,0.94956 0.28462,0.51232 0.3629,1.08484 0.64743,1.59699 0.19774,0.35593 0.49699,0.65719 0.69538,1.0143 0.10398,0.18716 0.0181,0.44593 0.11989,0.64742 0.10762,0.21308 0.25178,0.39617 0.38366,0.58268 0.0718,0.10151 0.0793,0.26035 0.14388,0.36688 0.3477,0.57372 0.68403,1.1932 1.07904,1.72647 0.11906,0.16073 0.29454,0.29324 0.40764,0.4532 0.13553,0.19167 0.18206,0.43571 0.3357,0.62584 0.44626,0.55224 1.11436,0.9706 1.65453,1.42434 0.45591,0.38296 0.7547,0.85187 1.15098,1.20853 0.71155,0.64039 2.52537,0.75585 3.45294,0.82007 0.36761,0.0255 0.7345,0.0647 1.10302,0.0647 2e-4,0 0.54594,0.0697 0.50355,0.10791 -0.0297,0.0267 -0.0826,-0.0144 -0.11989,0 -0.24878,0.0959 -0.2619,1.24551 -0.3357,1.48907 -0.24063,0.79408 0.0702,-0.3754 -0.23979,0.49636 -0.0318,0.0894 -0.032,0.18704 -0.048,0.28056 -0.04,0.1079 -0.0811,0.21539 -0.11989,0.32371 -0.40925,1.14181 -1.08487,2.37512 -0.91119,3.62558 0.26556,1.91205 1.36548,2.25752 2.61368,3.47452 0.15438,0.15053 0.24207,0.36321 0.38366,0.51794 0.32327,0.35329 0.79059,0.6881 1.17496,0.97114 0.72287,0.5323 1.60477,0.85496 2.37389,1.31643 1.09589,0.65754 2.10511,1.44347 3.26111,2.00702 0.83834,0.40869 1.73641,0.71176 2.5897,1.07904 0.62343,0.26835 1.22909,0.60705 1.84636,0.88482 0.44868,0.2019 0.7866,0.59136 1.2469,0.79849 0.8485,0.38183 1.74383,0.70867 2.56572,1.14379 0.32788,0.17358 0.6342,0.38562 0.95915,0.5611 0.64454,0.34805 1.27351,0.60664 1.82238,1.10062 0.31773,0.28596 0.55595,0.65092 0.93517,0.94956 0.0906,0.0713 0.21306,0.15336 0.28775,0.23739 0.0757,0.0851 -0.0875,0.0954 0.024,0.1079 1.04092,0.11711 2.08343,-0.14763 3.11723,-0.28055 0.29863,-0.0384 1.38272,-0.24564 1.63056,-0.0863 0.18986,0.12206 0.49273,0.70916 0.64742,0.9064 0.215,0.27412 0.98966,0.91611 1.03109,1.25169 0.0519,0.42012 -0.30913,0.97988 -0.43162,1.35959 -0.33675,1.04392 -0.50851,2.13047 -0.57549,3.21555 -0.015,0.24237 -0.18842,0.99579 0.024,1.18694 0.39794,0.35815 0.53652,0.89291 0.88721,1.20853 0.60495,0.54445 1.39016,0.63345 2.11013,0.92798 0.0864,0.0353 0.7913,0.54876 0.7913,0.5611 0,0.007 -0.13154,-0.0862 -0.31172,-0.15106 -0.30337,-0.10922 -0.58754,-0.26809 -0.88722,-0.41004 -0.37592,-0.17807 -0.78235,-0.29047 -1.15098,-0.47478 -0.3199,-0.15995 -0.48683,-0.52448 -0.74334,-0.75533 -0.36671,-0.33004 -0.65743,-0.71128 -1.0071,-1.05746 -0.20398,-0.20194 -0.44795,-0.38038 -0.59947,-0.62585 -0.18538,-0.30031 -0.31562,-0.66121 -0.52753,-0.97113 -0.41345,-0.60466 -0.9651,-1.11672 -1.29486,-1.76964 -0.31201,-0.61778 -0.41143,-1.35278 -0.91119,-1.87753 -0.56457,-0.5928 -2.38655,-1.44858 -3.18917,-1.76963 -0.33889,-0.13556 -0.63807,-0.35834 -0.98313,-0.49636 -0.81731,-0.32692 -1.66349,-0.065 -2.46981,0.23739 -0.23863,0.0895 -0.49518,0.2463 -0.74334,0.30213 -0.24403,0.0549 -0.25026,-0.0432 -0.35968,-0.0432 -0.095,0 -0.0546,0.0418 -0.14387,0.0647 -0.23113,0.0594 -0.50072,-0.0437 -0.74334,0 -0.28106,0.0506 -0.81095,0.26092 -1.10302,0.12949 -0.0573,-0.0258 -0.005,-0.15518 -0.024,-0.19423 -0.0762,-0.15994 -0.50987,-0.62827 -0.64743,-0.79849 -0.49935,-0.61795 -1.1422,-1.09005 -1.70249,-1.64015 -0.28259,-0.27745 -0.49509,-0.60172 -0.74334,-0.90639 -0.58908,-0.72296 -1.49724,-1.15329 -2.18206,-1.76963 -0.61641,-0.55478 -0.92489,-1.37193 -1.53464,-1.9207 -0.83733,-0.7536 -1.87841,-1.00356 -2.82949,-1.55382 -0.53452,-0.30926 -1.03144,-0.68279 -1.60658,-0.92798 -0.36295,-0.15473 -0.75382,-0.22316 -1.127,-0.34529 -0.21362,-0.0699 -0.44791,-0.19346 -0.6714,-0.21581 -0.91481,-0.0915 -1.32115,0.12901 -2.15809,0.36687 -1.50251,0.42703 -2.94478,1.12983 -4.29219,1.9207 -0.68163,0.40009 -1.30468,0.90517 -1.99023,1.29485 -0.88819,0.50486 -1.84881,0.77402 -2.80552,1.10063 -0.56579,0.19315 -1.11376,0.43035 -1.67851,0.62584 -2.3002,0.79622 -4.57959,1.44088 -6.97781,1.85595 -0.80647,0.13959 -1.6305,0.26727 -2.44583,0.32372 -9e-4,6e-5 -0.28774,0.0101 -0.28774,-0.0432 0,-0.0504 0.0459,-0.17173 0,-0.15107 -0.13285,0.0598 0.45125,-0.10456 0.50355,-0.12949 0.42287,-0.20148 0.83358,-0.44885 1.2469,-0.669 1.17318,-0.6249 2.37434,-1.16633 3.52487,-1.83438 1.01342,-0.58843 2.5261,-1.78912 2.99734,-2.89183 0.36581,-0.856 0.3923,-1.79584 0.64743,-2.67603 0.19088,-0.65854 0.38366,-1.39517 0.38366,-2.09334 0,-0.5612 -0.38209,-0.937 -0.71937,-1.31643 -0.0857,-0.0965 -0.23978,-1.29155 -0.23978,-1.48908 0,-0.0667 -0.0278,0.13067 -0.048,0.19423 -0.0447,0.14067 -0.13781,0.2507 -0.19183,0.38845 -0.0371,0.0947 -0.28121,1.07904 -0.3357,1.07904 -0.0342,0 -0.0208,-0.13386 -0.024,-0.15106 -0.023,-0.12431 -0.18887,-0.31312 -0.26377,-0.38846 -0.45191,-0.45456 -0.96966,-0.85242 -1.39076,-1.33801 -0.3963,-0.45697 -0.73071,-0.97484 -1.07905,-1.4675 -0.12745,-0.18025 -1.44656,-2.10082 -1.36679,-2.24441 0.11664,-0.20995 0.26917,0.0744 0.35969,0.15107 0.63147,0.53489 1.34611,0.98074 2.01421,1.4675 1.67631,1.22131 3.35462,2.47113 5.37123,3.06448 0.22922,0.0674 1.67011,0.46076 1.89432,0.25897 0.10431,-0.0939 -0.36389,-0.59906 -0.38366,-0.77691 -0.13903,-1.25136 -0.56086,-2.56156 -1.03108,-3.73349 -0.0723,-0.18011 -0.84656,-1.96495 -0.26377,-1.87754 0.41626,0.0624 0.8635,0.41018 1.22292,0.60427 0.8449,0.45625 1.7011,1.06093 2.61368,1.35959 0.0798,0.0261 1.19691,0.38299 1.19894,0.38846 0.0419,0.1132 -0.27491,0.0867 0.0719,0.62584 0.19763,0.30723 0.97277,1.05874 1.41475,0.82008 0.0315,-0.017 0.024,-0.10549 0.024,-0.12949 0,-0.36642 0.0659,-0.69326 0.11989,-1.05746 0.0669,-0.45174 0.16799,-0.95006 0.28775,-1.38118 0.0554,-0.19941 -0.0222,-0.43963 0.024,-0.64742 0.0173,-0.0778 0.22256,-1.06082 0.21581,-1.07904 -0.0328,-0.0884 -0.39177,0.0179 -0.28774,0.0647 0.033,0.0149 0.20583,-0.20053 0.048,-0.12949 -0.13964,0.0628 0.29469,0.21299 0.2158,0 -0.0677,-0.18284 -0.13229,0.0432 -0.19183,0.0432 -0.0288,0 0.0214,-0.0671 0,-0.0863 -0.0326,-0.0294 0.0199,0.12949 -0.024,0.12949 -0.0432,0 -0.0358,-0.10534 0,-0.12949 0.0622,-0.042 0.27163,-0.0145 0.2158,-0.0647 -0.0238,-0.0214 -0.0804,-0.0279 -0.0959,0 -0.0272,0.0489 0.0929,0.10927 0.14387,0.0863 0.0352,-0.0158 -0.0959,-0.0262 -0.0959,-0.0647 0,-0.04 0.0961,-0.0321 0.11989,0 0.0559,0.0755 -0.0746,0.0671 0,0.15107 0.0218,0.0245 0.0959,-0.0112 0.0959,0.0216 0,0.0501 -0.11182,0.005 -0.14388,0.0432 -0.0221,0.0265 -0.0183,0.13118 -0.0959,0.1079 -0.0413,-0.0124 -0.0432,-0.12948 0,-0.12948 0.21337,0 -0.23844,0.20852 -0.23979,0.21581 -0.017,0.0917 0.0652,0.3339 0.048,0.45319 -0.0395,0.27263 -0.18571,0.50922 -0.23979,0.77691 -0.0965,0.47742 -0.24703,0.89705 -0.40764,1.3596 -0.054,0.15555 -0.11989,0.24734 -0.11989,0.41003 0,0.0216 0,0.0863 0,0.0648 0,-0.12055 -0.0416,-0.17601 -0.14387,-0.23739"
     id="path3314"
     style="fill:none;stroke:#000000;stroke-width:1px;stroke-linecap:butt;stroke-linejoin:miter;stroke-opacity:1" />
</svg>
