<?xml version="1.0" encoding="UTF-8" standalone="no"?>
<!-- Created with Inkscape (http://www.inkscape.org/) -->

<svg
   xmlns:dc="http://purl.org/dc/elements/1.1/"
   xmlns:cc="http://creativecommons.org/ns#"
   xmlns:rdf="http://www.w3.org/1999/02/22-rdf-syntax-ns#"
   xmlns:svg="http://www.w3.org/2000/svg"
   xmlns="http://www.w3.org/2000/svg"
   version="1.1"
   width="1029.5891"
   height="733.04431"
   id="svg2">
  <defs
     id="defs4" />
  <metadata
     id="metadata7">
    <rdf:RDF>
      <cc:Work
         rdf:about="">
        <dc:format>image/svg+xml</dc:format>
        <dc:type
           rdf:resource="http://purl.org/dc/dcmitype/StillImage" />
        <dc:title></dc:title>
      </cc:Work>
    </rdf:RDF>
  </metadata>
  <path
     d="m 85.272718,36.650449 c -0.263188,1.052749 0.263187,3.421436 -0.789562,3.158248 -1.05275,-0.263187 0.02225,-3.925565 0.789562,-3.158248 7.369247,7.369247 -0.157913,3.316161 -0.789562,3.947811 -0.186102,0.186101 0.263187,0.789562 0,0.789562 -2.1055,0 2.105499,-2.105499 0,0 -0.186102,0.186101 -0.526375,0 -0.789563,0 -1.579124,0 -3.158248,0 -4.737373,0 -0.263187,0 -0.60346,-0.186102 -0.789562,0 -0.186102,0.186101 0.186102,0.603461 0,0.789562 -1.05275,1.05275 -0.789562,-1.315937 -0.789562,0.789562 0,0.263188 0.263187,0.789563 0,0.789563 -0.263188,0 -0.263188,-0.789563 0,-0.789563 0.263187,0 0.186101,0.603461 0,0.789563 -0.186102,0.186101 -0.55416,-0.117701 -0.789562,0 -3.285969,1.642984 0.84407,-0.05451 -0.789563,1.579124 -0.186101,0.186102 -0.60346,-0.186102 -0.789562,0 -0.186101,0.186102 0.186102,0.603461 0,0.789562 -0.186101,0.186102 -0.60346,-0.186101 -0.789562,0 -0.372203,0.372203 0.235402,1.108321 0,1.579125 -0.166454,0.332908 -0.623108,0.456653 -0.789562,0.789562 -0.142766,0.285532 0,3.398639 0,3.947811 0,0.289956 -0.03177,3.126476 0,3.158249 0.186101,0.186101 0.60346,-0.186102 0.789562,0 0.186102,0.186101 -0.186102,0.60346 0,0.789562 0.372203,0.372203 1.206921,-0.372203 1.579124,0 0.186102,0.186101 -0.186101,0.60346 0,0.789562 0.186102,0.186102 0.603461,-0.186102 0.789563,0 0.186101,0.186102 -0.117701,0.55416 0,0.789562 0.166454,0.332909 0.623108,0.456654 0.789562,0.789562 0.117701,0.235402 -0.186102,0.603461 0,0.789563 0.186101,0.186101 0.60346,-0.186102 0.789562,0 0.186102,0.186101 0,0.526374 0,0.789562 0.263187,0 0.603461,-0.186102 0.789562,0 0.186102,0.186101 -0.186101,0.60346 0,0.789562 0.186102,0.186102 0.603461,-0.186102 0.789562,0 0.262244,0.262243 -0.262243,1.316881 0,1.579124 0.186102,0.186102 0.603461,-0.186101 0.789563,0 0.189993,0.189994 -0.189993,2.968256 0,3.158249 0.186101,0.186102 0.789562,-0.263187 0.789562,0 0,0.308343 -1.479461,0.889226 -0.789562,1.579125 0.186101,0.186101 0.60346,-0.186102 0.789562,0 0.2625,0.2625 -0.2625,1.316624 0,1.579124 0.186101,0.186102 0.60346,-0.186102 0.789562,0 0.372203,0.372203 -0.235402,1.10832 0,1.579124 0.166454,0.332909 0.623108,0.456654 0.789562,0.789563 0.235402,0.470804 -0.372203,1.206921 0,1.579124 0.186102,0.186102 0.603461,-0.186102 0.789562,0 0.161416,0.161415 -0.156527,2.055632 0,2.368687 0.166455,0.332908 0.623108,0.456653 0.789563,0.789562 0.210288,0.420576 -0.210288,1.158548 0,1.579124 0.166454,0.332909 0.623108,0.456654 0.789562,0.789562 0.103804,0.207609 0,2.745371 0,3.158249 0,0.355586 0.120145,2.128396 0,2.368687 -0.166454,0.332909 -0.623108,0.456653 -0.789562,0.789562 -0.142766,0.285532 0,3.398639 0,3.947811 0,0.549172 -0.142766,3.662279 0,3.947811 0.166454,0.332909 0.623108,0.456654 0.789562,0.789562 0.103804,0.207609 0,2.745371 0,3.158249 0,0.355585 0.120145,2.128396 0,2.368687 -0.166454,0.332908 -0.623108,0.456653 -0.789562,0.789562 -0.103805,0.207605 0,2.745375 0,3.158245 0,1.57913 0,3.15825 0,4.73738 0,0.26318 -0.186102,0.60346 0,0.78956 0.186101,0.1861 0.60346,-0.1861 0.789562,0 0.186101,0.1861 0,0.52637 0,0.78956 0,0.54917 0.142766,3.66228 0,3.94781 -0.166454,0.33291 -0.456654,0.62311 -0.789562,0.78956 -0.285532,0.14277 -3.398639,0 -3.947811,0 -0.263188,0 -0.603461,-0.1861 -0.789563,0 -0.186101,0.18611 0.186102,0.60347 0,0.78957 -1.052749,1.05275 -0.789562,-1.31594 -0.789562,0.78956 0,0.26319 0.263188,0.78956 0,0.78956 -0.372203,0 -0.456653,-0.62311 -0.789562,-0.78956 -0.470804,-0.2354 -1.579124,0.52637 -1.579124,0 0,-0.26319 0.60346,-0.1861 0.789562,0 0.186101,0.1861 -0.186102,0.60346 0,0.78956 0.186101,0.1861 0.60346,-0.1861 0.789562,0 0.186102,0.1861 -0.117701,0.55416 0,0.78956 0.04307,0.0862 1.536053,1.49298 1.579124,1.57913 0.156528,0.31305 -0.161415,2.20727 0,2.36868 0.186102,0.18611 0.603461,-0.1861 0.789563,0 0.186101,0.18611 0.186101,0.60346 0,0.78957 -0.186102,0.1861 -0.526375,0 -0.789563,0 -0.549172,0 -3.662278,0.14276 -3.947811,0 -0.332908,-0.16646 -0.456653,-0.62311 -0.789562,-0.78957 -0.470804,-0.2354 -1.206921,0.37221 -1.579124,0 -0.186102,-0.1861 0.235402,-0.67186 0,-0.78956 -0.62285,-0.7062 -1.662481,0.35311 -2.368687,0 -0.332908,-0.16645 -0.456653,-0.62311 -0.789562,-0.78956 -0.235402,-0.1177 -0.55416,0.1177 -0.789562,0 -0.332909,-0.16645 -0.456654,-0.62311 -0.789562,-0.78956 -0.235402,-0.1177 -0.526375,0 -0.789563,0 -0.263187,-0.26319 -0.456653,-0.62311 -0.789562,-0.78956 -0.235402,-0.11771 -0.60346,0.1861 -0.789562,0 -0.186102,-0.18611 0.186102,-0.60347 0,-0.78957 -0.186102,-0.1861 -0.603461,0.1861 -0.789562,0 -0.186102,-0.1861 0.117701,-0.55416 0,-0.78956 -0.166454,-0.33291 -0.623108,-0.45665 -0.789562,-0.78956 -0.117701,-0.2354 0.186101,-0.60346 0,-0.78956 -0.186102,-0.1861 -0.526375,0 -0.789563,0 0,-0.26319 0.186102,-0.60346 0,-0.78957 -0.186101,-0.1861 -0.60346,0.18611 -0.789562,0 -0.186101,-0.1861 0.117701,-0.55416 0,-0.78956 -0.166454,-0.33291 -0.526375,-0.52637 -0.789562,-0.78956 -0.263187,-0.26319 -0.456654,-0.62311 -0.789562,-0.78956 -0.235402,-0.1177 -0.603461,0.1861 -0.789562,0 -0.372204,-0.37221 0.235402,-1.10832 0,-1.57913 -0.166455,-0.33291 -0.623108,-0.45665 -0.789563,-0.78956 -0.117701,-0.2354 0,-0.52637 0,-0.78956 -0.263187,-0.26319 -0.623107,-0.45665 -0.789562,-0.78956 -0.235402,-0.47081 0.372203,-1.20692 0,-1.57913 -0.186101,-0.1861 -0.60346,0.1861 -0.789562,0 -0.2625,-0.2625 0.2625,-1.31662 0,-1.57912 -0.186102,-0.1861 -0.603461,0.1861 -0.789562,0 -0.262243,-0.26225 0.262243,-1.31688 0,-1.57913 -0.186102,-0.1861 -0.603461,0.18611 -0.789562,0 -0.372204,-0.3722 0.235402,-1.10832 0,-1.57912 -0.166455,-0.33291 -0.623108,-0.45665 -0.789563,-0.78956 -0.235402,-0.47081 0.235402,-1.108323 0,-1.579127 -0.166454,-0.332909 -0.623107,-0.456654 -0.789562,-0.789563 -0.117701,-0.235401 0.117701,-0.55416 0,-0.789562 -0.975664,-1.951327 -0.789562,0.27254 -0.789562,-1.579124 0,-1.851664 0.186102,0.372203 -0.789562,-1.579125 -0.117701,-0.235401 0.186101,-0.60346 0,-0.789562 -0.186102,-0.186101 -0.603461,0.186102 -0.789562,0 -0.372204,-0.372203 0.235402,-1.10832 0,-1.579124 -0.166455,-0.332909 -0.623108,-0.456654 -0.789563,-0.789562 -0.235402,-0.470804 0.372204,-1.206922 0,-1.579125 -0.186101,-0.186101 -0.60346,0.186102 -0.789562,0 -0.394781,-0.394781 0.394781,-1.973905 0,-2.368686 -0.186101,-0.186102 -0.60346,0.186101 -0.789562,0 -0.2625,-0.2625 0.2625,-1.316625 0,-1.579125 -0.186102,-0.186101 -0.603461,0.186102 -0.789562,0 -0.372203,-0.372203 0.235402,-1.10832 0,-1.579124 -0.166455,-0.332909 -0.623108,-0.456654 -0.789562,-0.789562 -0.117701,-0.235402 0.186101,-0.603461 0,-0.789563 -0.186102,-0.186101 -0.603461,0.186102 -0.789563,0 -0.186101,-0.186101 0.186102,-0.60346 0,-0.789562 -0.186101,-0.186101 -0.60346,0.186102 -0.789562,0 -0.186101,-0.186101 0.186102,-0.60346 0,-0.789562 -0.186101,-0.186102 -0.60346,0.186102 -0.789562,0 -0.186102,-0.186102 -0.263187,-0.789562 0,-0.789562 0.263187,0 0,0.526375 0,0.789562 0,0.263187 0.263187,0.789562 0,0.789562 -0.263187,0 0.186102,-0.60346 0,-0.789562 -0.186102,-0.186102 -0.603461,0.186102 -0.789562,0 -0.186102,-0.186102 0.186101,-0.603461 0,-0.789562 -0.186102,-0.186102 -0.603461,0.186101 -0.789562,0 -0.189994,-0.189993 0.189993,-2.968256 0,-3.158249 -0.186102,-0.186102 -0.603461,0.186102 -0.789563,0 -0.372203,-0.372203 0.235402,-1.10832 0,-1.579124 -0.166454,-0.332909 -0.623108,-0.456654 -0.789562,-0.789563 -0.235402,-0.470804 0.235402,-1.10832 0,-1.579124 -0.166454,-0.332909 -0.623108,-0.456654 -0.789562,-0.789562 -0.315825,-0.63165 0.315825,-1.737037 0,-2.368687 -0.166454,-0.332908 -0.623108,-0.456653 -0.789562,-0.789562 -0.235402,-0.470804 0.235402,-1.10832 0,-1.579124 -0.166455,-0.332909 -0.623108,-0.456654 -0.789562,-0.789563 -0.156528,-0.313055 0.161415,-2.207271 0,-2.368686 -0.186102,-0.186102 -0.603461,0.186101 -0.789563,0 -0.161415,-0.161416 0.156528,-2.055632 0,-2.368687 -0.166454,-0.332908 -0.623108,-0.456653 -0.789562,-0.789562 -0.156527,-0.313055 0.161415,-2.207271 0,-2.368687 -0.186101,-0.186101 -0.60346,0.186102 -0.789562,0 -0.394781,-0.394781 0.394781,-1.973905 0,-2.368686 -0.186102,-0.186102 -0.603461,0.186101 -0.789562,0 -0.372203,-0.372203 0.235402,-1.108321 0,-1.579125 -0.166455,-0.332908 -0.623108,-0.456653 -0.789562,-0.789562 -0.117701,-0.235402 0.186101,-0.60346 0,-0.789562 -0.186102,-0.186102 -0.603461,0.186102 -0.789563,0 -0.186101,-0.186102 -0.263187,-0.789562 0,-0.789562 0.263188,0 0,0.526375 0,0.789562 0,0.263187 0,0.526375 0,0.789562 0,0.668483 0.141491,2.733776 0,3.158249 -0.117701,0.353103 -0.671861,0.436459 -0.789562,0.789562 -0.332909,0.998726 0.255329,2.136932 0,3.158249 -0.142733,0.570934 -0.60346,1.02082 -0.789562,1.579124 -0.103746,0.311238 -0.103746,2.847011 0,3.158249 0.186102,0.558305 0.603461,1.02082 0.789562,1.579125 0.166454,0.499363 -0.235402,1.10832 0,1.579124 0.166454,0.332909 0.623108,0.456654 0.789562,0.789562 0.235402,0.470804 -0.372203,1.206921 0,1.579125 0.186102,0.186101 0.603461,-0.186102 0.789563,0 0.186101,0.186101 -0.186102,0.60346 0,0.789562 0.186101,0.186101 0.789562,-0.263188 0.789562,0 0,0.263187 -0.603461,0.186101 -0.789562,0 -0.186102,-0.186102 0.186101,-0.603461 0,-0.789562 -0.186102,-0.186102 -0.603461,0.186101 -0.789563,0 -0.372203,-0.372204 0.235402,-1.108321 0,-1.579125 -0.332908,-0.665817 -1.246215,-0.913307 -1.579124,-1.579124 -0.117701,-0.235402 0.186102,-0.603461 0,-0.789562 -1.05275,-1.05275 -0.789562,1.315937 -0.789562,-0.789563 0,-0.263187 -0.263188,-0.789562 0,-0.789562 0.263187,0 0,0.526375 0,0.789562 0,0.263188 0,0.526375 0,0.789563 0,0.19149 0.02539,2.343294 0,2.368686 -0.186102,0.186102 -0.603461,-0.186101 -0.789562,0 -0.186102,0.186102 0.263187,0.789562 0,0.789562 -0.263188,0 0.186101,-0.60346 0,-0.789562 -1.633633,-1.633632 0.06386,2.496407 -1.579125,-0.789562 -0.117701,-0.235402 0.186102,-0.603461 0,-0.789562 -0.186101,-0.186102 -0.60346,0.186101 -0.789562,0 -0.186102,-0.186102 -0.263187,-0.789562 0,-0.789562 0.263187,0 -0.186102,0.60346 0,0.789562 0.186102,0.186101 0.603461,-0.186102 0.789562,0 0.186102,0.186101 0,0.526375 0,0.789562 0,0.263187 0.263188,0.789562 0,0.789562 -0.372203,0 -0.456653,-0.623108 -0.789562,-0.789562 -0.235402,-0.117701 -0.526375,0 -0.789562,0 -0.263188,-0.263187 -0.456654,-0.623108 -0.789562,-0.789562 -0.470804,-0.235402 -1.206922,0.372203 -1.579125,0 -0.186101,-0.186102 0.186102,-0.603461 0,-0.789562 -0.394781,-0.394782 -1.973905,0.394781 -2.368687,0 -0.186101,-0.186102 0.186102,-0.603461 0,-0.789563 -0.186101,-0.186101 -0.60346,-0.186101 -0.789562,0 -0.186101,0.186102 -0.186101,0.603461 0,0.789563 0.186102,0.186101 0.603461,-0.186102 0.789562,0 0.372204,0.372203 -0.372203,1.206921 0,1.579124 0.262074,0.262074 1.317051,-0.262074 1.579125,0 0.186101,0.186102 0.263187,0.789562 0,0.789562 -0.263188,0 -0.186102,-0.60346 0,-0.789562 0.186101,-0.186102 0.603461,-0.186102 0.789562,0 0.186102,0.186102 -0.186101,0.603461 0,0.789562 0.186102,0.186102 0.789562,-0.263187 0.789562,0 0,0.308343 -1.47946,0.889226 -0.789562,1.579125 0.186102,0.186101 0.603461,-0.186102 0.789562,0 0.186102,0.186101 -0.186101,0.60346 0,0.789562 0.372203,0.372203 1.108321,-0.235402 1.579125,0 0.332908,0.166454 0.456653,0.623108 0.789562,0.789562 0.470804,0.235402 1.10832,-0.235402 1.579124,0 1.095945,0.547972 0.789563,1.404883 0.789563,2.368687 0,0.263187 -0.117701,0.55416 0,0.789562 0.166454,0.332908 0.623107,0.456653 0.789562,0.789562 0,2.105499 -0.263188,-0.263187 0.789562,0.789562 0.189993,0.189993 -0.189993,2.968256 0,3.158249 0.186102,0.186102 0.603461,-0.186102 0.789562,0 0.394781,0.394781 -0.394781,1.973906 0,2.368687 0.186102,0.186101 0.603461,-0.186102 0.789562,0 0.186102,0.186101 -0.186101,0.60346 0,0.789562 0.186102,0.186101 0.603461,-0.186102 0.789563,0 0.2625,0.2625 -0.2625,1.316624 0,1.579124 0.186101,0.186102 0.60346,-0.186101 0.789562,0 0.372203,0.372203 -0.235402,1.108321 0,1.579125 0.166454,0.332908 0.623108,0.456653 0.789562,0.789562 0.117701,0.235402 -0.186102,0.60346 0,0.789562 0.186102,0.186102 0.603461,-0.186102 0.789562,0 0.372203,0.372203 -0.372203,1.206921 0,1.579124 1.05275,1.05275 0.789562,-1.315937 0.789562,0.789563 0,1.851664 -0.186101,-0.372204 0.789563,1.579124 0.117701,0.235402 -0.186102,0.603461 0,0.789562 0.186101,0.186102 0.60346,-0.186101 0.789562,0 0.186101,0.186102 -0.186102,0.603461 0,0.789562 0.186101,0.186102 0.60346,-0.186101 0.789562,0 0.262243,0.262244 -0.262243,1.316882 0,1.579125 0.186102,0.186101 0.603461,-0.186102 0.789562,0 0.2625,0.2625 -0.2625,1.316624 0,1.579124 0.186102,0.186102 0.526375,0 0.789562,0 0,0.263188 -0.186101,0.603461 0,0.789562 0.186102,0.186102 0.603461,-0.186101 0.789563,0 0.2625,0.2625 -0.2625,1.316625 0,1.579125 0.186101,0.186105 0.60346,-0.186102 0.789562,0 0.2625,0.262495 -0.2625,1.316625 0,1.579125 0.186101,0.1861 0.60346,-0.1861 0.789562,0 0.394781,0.39478 -0.394781,1.9739 0,2.36869 0.186102,0.1861 0.603461,-0.18611 0.789562,0 0.262243,0.26224 -0.262243,1.31688 0,1.57912 0.186102,0.1861 0.603461,-0.1861 0.789562,0 0.186102,0.1861 -0.117701,0.55416 0,0.78956 0.166455,0.33291 0.623108,0.45666 0.789563,0.78956 0.117701,0.23541 -0.186102,0.60347 0,0.78957 0.186101,0.1861 0.60346,-0.1861 0.789562,0 0.186101,0.1861 0,0.52637 0,0.78956 0.263187,0 0.60346,-0.1861 0.789562,0 0.186102,0.1861 -0.186102,0.60346 0,0.78956 0.186102,0.1861 0.603461,-0.1861 0.789562,0 0.186102,0.1861 -0.186101,0.60346 0,0.78956 0.186102,0.18611 0.603461,-0.1861 0.789562,0 0.186102,0.18611 -0.186101,0.60346 0,0.78957 0.186102,0.1861 0.603461,-0.18611 0.789563,0 0.186101,0.1861 -0.186102,0.60346 0,0.78956 0.186101,0.1861 0.60346,-0.1861 0.789562,0 0.186101,0.1861 -0.186102,0.60346 0,0.78956 0.186101,0.1861 0.60346,-0.1861 0.789562,0 0.186102,0.1861 -0.117701,0.55416 0,0.78956 0.166454,0.33291 0.623108,0.45666 0.789562,0.78956 0.117701,0.23541 -0.117701,0.55416 0,0.78957 0.166455,0.33291 0.623108,0.45665 0.789562,0.78956 0.117701,0.2354 -0.186101,0.60346 0,0.78956 0.186102,0.1861 0.603461,-0.1861 0.789563,0 0.2625,0.2625 -0.2625,1.31663 0,1.57913 0.186101,0.1861 0.60346,-0.18611 0.789562,0 0.372203,0.3722 -0.372203,1.20692 0,1.57912 0.186101,0.1861 0.60346,-0.1861 0.789562,0 0.372203,0.3722 -0.235402,1.10832 0,1.57912 0.166454,0.33291 0.623108,0.45666 0.789562,0.78957 0.235402,0.4708 -0.372203,1.20692 0,1.57912 0.186102,0.1861 0.603461,-0.1861 0.789562,0 0.2625,0.2625 -0.2625,1.31663 0,1.57913 0.186102,0.1861 0.603461,-0.18611 0.789563,0 0.2625,0.2625 -0.2625,1.31662 0,1.57912 0.186101,0.1861 0.60346,-0.1861 0.789562,0 1.633632,1.63363 -2.496407,-0.0639 0.789562,1.57912 0.235402,0.11771 0.603461,-0.1861 0.789562,0 0.186102,0.18611 -0.186101,0.60346 0,0.78957 0.372203,0.3722 1.206921,-0.37221 1.579125,0 0.186101,0.1861 -0.186102,0.60346 0,0.78956 0.372203,0.3722 1.206921,-0.3722 1.579124,0 0.186102,0.1861 -0.186102,0.60346 0,0.78956 0.186102,0.1861 0.603461,-0.1861 0.789562,0 0.186102,0.1861 -0.186101,0.60346 0,0.78956 0.186102,0.1861 0.55416,-0.1177 0.789562,0 0.332909,0.16646 0.456654,0.62311 0.789563,0.78957 0.235402,0.1177 0.60346,-0.18611 0.789562,0 0.186101,0.1861 -0.186102,0.60346 0,0.78956 0.372203,0.3722 1.206921,-0.37221 1.579124,0 0.186102,0.1861 0,0.52637 0,0.78956 0,0.28996 0.03177,3.12648 0,3.15825 -0.186101,0.1861 -0.60346,-0.1861 -0.789562,0 -0.186102,0.1861 0,0.52637 0,0.78956 0,0.26319 -0.117701,0.55416 0,0.78956 0.166454,0.33291 0.623108,0.45666 0.789562,0.78957 0.117701,0.2354 -0.186101,0.60346 0,0.78956 0.186102,0.1861 0.603461,-0.1861 0.789562,0 0.186102,0.1861 -0.186101,0.60346 0,0.78956 0.260361,0.26036 1.318765,-0.26036 1.579125,0 0.186101,0.1861 -0.186102,0.60346 0,0.78956 0.186101,0.1861 0.60346,-0.1861 0.789562,0 0.186102,0.1861 -0.186102,0.60346 0,0.78956 0.372203,0.37221 1.206921,-0.3722 1.579124,0 0.186102,0.18611 -0.186101,0.60346 0,0.78957 0.372204,0.3722 1.206922,-0.37221 1.579125,0 0.186101,0.1861 -0.186102,0.60346 0,0.78956 0.26036,0.26036 1.318764,-0.26036 1.579124,0 0.186102,0.1861 -0.186101,0.60346 0,0.78956 0.394781,0.39478 1.973906,-0.39478 2.368687,0 0.186101,0.1861 -0.186102,0.60346 0,0.78956 0.02539,0.0254 2.177197,0 2.368686,0 0.263188,0 0.603461,0.1861 0.789563,0 0.186101,-0.1861 -0.186102,-0.60346 0,-0.78956 0.394781,-0.39478 1.973905,0.39478 2.368686,0 0.186102,-0.1861 -0.186101,-0.60346 0,-0.78956 0.186102,-0.1861 0.603461,-0.1861 0.789563,0 1.158024,1.15802 -1.500169,0.7106 -1.579125,0.78956 -0.186101,0.1861 0,0.52638 0,0.78956 0,0.35559 -0.120145,2.1284 0,2.36869 0.166454,0.33291 0.623108,0.45665 0.789562,0.78956 0.117701,0.2354 -0.186101,0.60346 0,0.78956 0.186102,0.18611 0.603461,-0.1861 0.789563,0 0.186101,0.18611 -0.186102,0.60346 0,0.78957 0.186101,0.1861 0.60346,-0.18611 0.789562,0 0.186101,0.1861 -0.186102,0.60346 0,0.78956 0.186101,0.1861 0.60346,-0.1861 0.789562,0 0.186102,0.1861 -0.186102,0.60346 0,0.78956 0.186102,0.1861 0.603461,-0.1861 0.789562,0 0.186102,0.1861 0,0.52638 0,0.78956 0.263188,0 0.603461,-0.1861 0.789562,0 0.186102,0.1861 -0.186101,0.60346 0,0.78956 0.186102,0.18611 0.603461,-0.1861 0.789563,0 0.186101,0.18611 -0.186102,0.60347 0,0.78957 0.372203,0.3722 1.206921,-0.37221 1.579124,0 0.186102,0.1861 -0.186102,0.60346 0,0.78956 0.372203,0.3722 1.206921,-0.3722 1.579124,0 0.186102,0.1861 -0.186101,0.60346 0,0.78956 0.394781,0.39478 1.973906,-0.39478 2.368687,0 0.186102,0.1861 -0.186102,0.60346 0,0.78956 0.186102,0.18611 0.526375,0 0.789562,0 1.579125,0 3.158247,0 4.737377,0 2.1055,0 4.21099,0 6.31649,0 0.26319,0 0.60346,0.18611 0.78957,0 0.1861,-0.1861 -0.18611,-0.60346 0,-0.78956 0.16141,-0.16141 2.05563,0.15653 2.36868,0 0.33291,-0.16645 0.45666,-0.62311 0.78956,-0.78956 0.23541,-0.1177 0.60347,0.1861 0.78957,0 0.1861,-0.1861 -0.1861,-0.60346 0,-0.78956 0.3722,-0.37221 1.20692,0.3722 1.57912,0 0.1861,-0.1861 -0.1861,-0.60346 0,-0.78957 0.1861,-0.1861 0.55416,0.11771 0.78956,0 0.66582,-0.3329 0.91331,-1.24621 1.57913,-1.57912 0.2354,-0.1177 0.60346,0.1861 0.78956,0 0.1861,-0.1861 -0.1861,-0.60346 0,-0.78956 2.1055,0 -0.26319,0.26319 0.78956,-0.78956 0.1861,-0.18611 0.60346,0.1861 0.78956,0 0.18611,-0.18611 -0.1861,-0.60346 0,-0.78957 0.18611,-0.1861 0.60347,0.18611 0.78957,0 0.1861,-0.1861 -0.1861,-0.60346 0,-0.78956 0.1861,-0.1861 0.60346,0.1861 0.78956,0 0.26224,-0.26224 -0.26224,-1.31688 0,-1.57912 0.1861,-0.1861 0.60346,0.1861 0.78956,0 0.1861,-0.1861 -0.1177,-0.55416 0,-0.78957 0.16646,-0.3329 0.62311,-0.45665 0.78956,-0.78956 0.1177,-0.2354 -0.1861,-0.60346 0,-0.78956 0.18611,-0.1861 0.60346,0.1861 0.78957,0 0.2625,-0.2625 -0.2625,-1.31662 0,-1.57912 0.1861,-0.18611 0.60346,0.1861 0.78956,0 0.2625,-0.2625 -0.2625,-1.31663 0,-1.57913 0.1861,-0.1861 0.60346,0.1861 0.78956,0 0.2625,-0.2625 -0.2625,-1.31662 0,-1.57912 0.1861,-0.1861 0.60346,0.1861 0.78956,0 0.1861,-0.1861 0,-0.52638 0,-0.78956 0,-0.26319 0.1177,-0.55417 0,-0.78957 -0.16645,-0.33291 -0.62311,-0.45665 -0.78956,-0.78956 -0.4341,-0.86821 0.76038,-1.59371 -0.78956,-2.36869 -0.47081,-0.2354 -1.20692,0.37221 -1.57913,0 -0.1861,-0.1861 0.18611,-0.60346 0,-0.78956 -0.3722,-0.3722 -1.10832,0.2354 -1.57912,0 -0.33291,-0.16645 -0.45665,-0.62311 -0.78956,-0.78956 -0.47081,-0.2354 -1.10832,0.2354 -1.57913,0 -0.33291,-0.16645 -0.45665,-0.62311 -0.78956,-0.78956 -0.4708,-0.2354 -1.20692,0.3722 -1.57912,0 -0.2625,-0.2625 0.2625,-1.31663 0,-1.57913 -0.18611,-0.1861 -0.55416,0.1177 -0.78957,0 -0.3329,-0.16645 -0.45665,-0.6231 -0.78956,-0.78956 -0.2354,-0.1177 -0.78956,0.26319 -0.78956,0 0,-1.38528 1.82428,-0.51736 2.36869,-0.78956 0.66581,-0.33291 0.9133,-1.24622 1.57912,-1.57913 0.2354,-0.1177 0.60346,0.18611 0.78956,0 0.1861,-0.1861 -0.1861,-0.60346 0,-0.78956 0.1861,-0.1861 0.60346,0.1861 0.78956,0 0.0254,-0.0254 0,-2.17719 0,-2.36868 0,-2.40744 -0.80023,-0.0107 -1.57912,-0.78957 -0.1861,-0.1861 0.1861,-0.60346 0,-0.78956 -0.3722,-0.3722 -1.20692,0.3722 -1.57912,0 -0.19,-0.18999 0.18999,-2.96825 0,-3.15825 -0.18611,-0.1861 -0.60346,0.1861 -0.78957,0 -0.1861,-0.1861 0,-0.52637 0,-0.78956 0,-0.26319 -0.1177,-0.55416 0,-0.78956 0.16646,-0.33291 0.62311,-0.45666 0.78957,-0.78956 0.15652,-0.31306 -0.16142,-2.20728 0,-2.36869 0.1861,-0.1861 0.60346,0.1861 0.78956,0 0.2625,-0.2625 -0.2625,-1.31663 0,-1.57913 0.1861,-0.1861 0.55416,0.11771 0.78956,0 3.28597,-1.64298 -0.84407,0.0545 0.78956,-1.57912 0.1861,-0.1861 0.60346,0.1861 0.78956,0 0.18611,-0.1861 -0.1861,-0.60346 0,-0.78956 0.18611,-0.1861 0.60347,0.1861 0.78957,0 0.1861,-0.1861 -0.1861,-0.60346 0,-0.78956 0.1861,-0.18611 0.60346,0.1861 0.78956,0 0.1861,-0.18611 -0.1861,-0.60346 0,-0.78957 0.1861,-0.1861 0.60346,0.18611 0.78956,0 0.1861,-0.1861 -0.1861,-0.60346 0,-0.78956 0.1861,-0.1861 0.55416,0.1177 0.78956,0 0.66582,-0.33291 0.91331,-1.24621 1.57913,-1.57912 0.2354,-0.1177 0.60346,0.1861 0.78956,0 0.1861,-0.1861 -0.1861,-0.60346 0,-0.78957 0.1861,-0.1861 0.60346,0.18611 0.78956,0 0.1861,-0.1861 -0.1861,-0.60346 0,-0.78956 0.1861,-0.1861 0.60346,0.1861 0.78956,0 0.18611,-0.1861 -0.1861,-0.60346 0,-0.78956 0.18611,-0.1861 0.60347,0.1861 0.78957,0 0.1861,-0.1861 -0.1861,-0.60346 0,-0.78956 2.1055,0 -0.26319,0.26319 0.78956,-0.78956 0.1861,-0.18611 0.60346,0.1861 0.78956,0 0.1861,-0.18611 -0.1177,-0.55416 0,-0.78957 0.16646,-0.3329 0.62311,-0.45665 0.78956,-0.78956 0.1177,-0.2354 -0.1861,-0.60346 0,-0.78956 0.18611,-0.1861 0.60346,0.1861 0.78957,0 0.2625,-0.2625 -0.2625,-1.31663 0,-1.579125 0.1861,-0.186102 0.60346,0.186105 0.78956,0 0.2625,-0.2625 -0.2625,-1.316625 0,-1.579125 0.1861,-0.186101 0.60346,0.186102 0.78956,0 0.3722,-0.372203 -0.2354,-1.10832 0,-1.579124 0.16645,-0.332909 0.62311,-0.456653 0.78956,-0.789562 0.15653,-0.313055 -0.16141,-2.207271 0,-2.368687 0.1861,-0.186101 0.60346,0.186102 0.78956,0 0.37221,-0.372203 -0.2354,-1.10832 0,-1.579124 0.16646,-0.332909 0.62311,-0.456654 0.78957,-0.789562 0.15652,-0.313055 -0.16142,-2.207272 0,-2.368687 0.1861,-0.186102 0.60346,0.186102 0.78956,0 0.18999,-0.189993 -0.18999,-2.968256 0,-3.158249 0.1861,-0.186101 0.60346,0.186102 0.78956,0 0.39478,-0.394781 -0.39478,-1.973905 0,-2.368686 0.1861,-0.186102 0.60346,0.186101 0.78956,0 0.19,-0.189994 -0.18999,-2.968256 0,-3.158249 0.1861,-0.186102 0.60346,0.186101 0.78957,0 0.16141,-0.161415 -0.15653,-2.055632 0,-2.368687 0.16645,-0.332908 0.6231,-0.456653 0.78956,-0.789562 0.24813,-0.496257 -0.24813,-2.661991 0,-3.158249 0.16645,-0.332908 0.62311,-0.456653 0.78956,-0.789562 0.14277,-0.285532 0,-3.398639 0,-3.947811 0,-0.263187 -0.1861,-0.603461 0,-0.789562 0.1861,-0.186102 0.60346,0.186101 0.78956,0 0.1861,-0.186102 0,-0.526375 0,-0.789562 0,-1.579125 0,-3.158249 0,-4.737374 0,-0.263187 0.1177,-0.55416 0,-0.789562 -0.16645,-0.332908 -0.41736,-0.789562 -0.78956,-0.789562 -0.52637,0 0.3722,1.206921 0,1.579124 -0.1861,0.186102 -0.60346,-0.186101 -0.78956,0 -0.1861,0.186102 0.1861,0.603461 0,0.789563 -0.37221,0.372203 -1.20692,-0.372204 -1.57913,0 -0.1861,0.186101 0.1861,0.60346 0,0.789562 -0.1861,0.186101 -0.60346,0.186101 -0.78956,0 -0.16141,-0.161416 0.15653,-2.055632 0,-2.368687 -0.16645,-0.332908 -0.62311,-0.456653 -0.78956,-0.789562 -0.10381,-0.207609 0,-2.745371 0,-3.158249 0,-2.105499 0,-4.210998 0,-6.316497 0,-0.19149 0.0254,-2.343295 0,-2.368687 -0.1861,-0.186102 -0.60346,-0.186102 -0.78956,0 -0.24449,0.244486 0.24448,3.703325 0,3.947811 -0.1861,0.186102 -0.60346,-0.186102 -0.78957,0 -0.0318,0.03177 0,2.868293 0,3.158249 0,1.851664 0.18611,-0.372203 -0.78956,1.579124 -0.1177,0.235402 0,0.526375 0,0.789562 0,0.263188 0,0.526375 0,0.789563 0,1.851663 -0.1861,-0.372204 0.78956,1.579124 0.11771,0.235402 0,0.526375 0,0.789562 0,1.579125 0,3.158249 0,4.737373 0,0.263188 0.18611,0.603461 0,0.789563 -0.1861,0.186101 -0.60346,-0.186102 -0.78956,0 -0.39478,0.394781 0.39478,1.973905 0,2.368686 -0.1861,0.186102 -0.60346,-0.186101 -0.78956,0 -0.39478,0.394781 0.39478,1.973906 0,2.368687 -0.1861,0.186101 -0.60346,-0.186102 -0.78956,0 -0.2625,0.2625 0.2625,1.316624 0,1.579124 -0.1861,0.186102 -0.60346,-0.186101 -0.78956,0 -0.18611,0.186102 0.1861,0.603461 0,0.789562 -0.18611,0.186102 -0.60346,-0.186101 -0.78957,0 -0.1861,0.186102 0.18611,0.603461 0,0.789563 -0.1861,0.186101 -0.78956,0.263187 -0.78956,0 0,-0.263188 0.78956,-0.263188 0.78956,0 0,0.263187 -0.60346,-0.186102 -0.78956,0 -0.1861,0.186101 0,0.526374 0,0.789562 0,0.549172 0.14277,3.662279 0,3.947811 -0.16645,0.332908 -0.62311,0.456653 -0.78956,0.789562 -0.2354,0.470804 0.2354,1.108321 0,1.579124 -0.16646,0.332909 -0.62311,0.456654 -0.78956,0.789563 -0.1177,0.235402 0.1861,0.60346 0,0.789562 -0.1861,0.186101 -0.60346,-0.186102 -0.78957,0 -0.1861,0.186101 0.18611,0.60346 0,0.789562 -0.3722,0.372203 -1.20692,-0.372203 -1.57912,0 -0.1861,0.186102 0.1177,0.55416 0,0.789562 -0.33291,0.665818 -1.24622,0.913307 -1.57912,1.579125 -0.11771,0.235402 0.1177,0.55416 0,0.789562 -2.61865,2.618648 0.3722,-0.744407 -0.78957,1.579124 -0.16645,0.332909 -0.6231,0.456654 -0.78956,0.789562 -0.24813,0.496258 0.24813,2.661992 0,3.158249 -0.16645,0.332909 -0.62311,0.456654 -0.78956,0.789562 -0.15653,0.313055 0.16141,2.207272 0,2.368687 -0.1861,0.186102 -0.55416,-0.117701 -0.78956,0 -3.28597,1.642984 0.84407,-0.05451 -0.78957,1.579124 -0.1861,0.186102 -0.60346,-0.186101 -0.78956,0 -0.1861,0.186102 0.1861,0.603461 0,0.789563 -2.1055,0 0.26319,-0.263188 -0.78956,0.789562 -0.1861,0.186105 -0.60346,-0.186102 -0.78956,0 -0.1861,0.186105 0.1861,0.603465 0,0.789565 -0.1861,0.1861 -0.60346,-0.1861 -0.78956,0 -0.18611,0.1861 0.1861,0.60346 0,0.78956 -0.37221,0.3722 -1.20693,-0.3722 -1.57913,0 -0.1861,0.1861 0.1861,0.60346 0,0.78956 -0.3722,0.3722 -1.10832,-0.2354 -1.57912,0 -0.33291,0.16646 -0.45666,0.62311 -0.78957,0.78956 -0.4708,0.23541 -1.20692,-0.3722 -1.57912,0 -0.1861,0.18611 0.1861,0.60346 0,0.78957 -0.39478,0.39478 -1.9739,-0.39479 -2.36869,0 -0.1861,0.1861 0.18611,0.60346 0,0.78956 -0.1861,0.1861 -0.52637,0 -0.78956,0 -0.28995,0 -3.12647,0.0318 -3.15825,0 0,-2.1055 0.26319,0.26319 -0.78956,-0.78956 -0.3722,-0.37221 0.3722,-1.20693 0,-1.57913 -0.1861,-0.1861 -0.60346,0.1861 -0.78956,0 -0.39478,-0.39478 0.39478,-1.9739 0,-2.368685 -0.1861,-0.186102 -0.60346,0.186105 -0.78956,0 -0.39478,-0.394781 0.39478,-1.973906 0,-2.368687 -0.18611,-0.186101 -0.60346,0.186102 -0.78957,0 -0.3722,-0.372203 0.23541,-1.10832 0,-1.579124 -0.16645,-0.332909 -0.6231,-0.456654 -0.78956,-0.789562 -0.1177,-0.235402 0,-0.526375 0,-0.789563 0,-0.263187 -0.1861,-0.60346 0,-0.789562 0.1861,-0.186101 0.60346,0.186102 0.78956,0 0.0318,-0.03177 0,-2.868292 0,-3.158249 0,-0.263187 0.18611,-0.60346 0,-0.789562 -0.3722,-0.372203 -1.20692,0.372203 -1.57912,0 -0.1861,-0.186101 0.1861,-0.60346 0,-0.789562 -0.372203,-0.372203 -1.579125,0.526375 -1.579125,0 0,-0.372203 0.623108,-0.456653 0.789563,-0.789562 0.120145,-0.240291 0,-2.013101 0,-2.368687 0,-0.263187 0.186101,-0.60346 0,-0.789562 -0.186102,-0.186102 -0.603461,0.186102 -0.789563,0 -0.186101,-0.186102 0,-0.526375 0,-0.789562 0,-0.263188 0,-0.526375 0,-0.789562 0,-1.315937 0,-2.631874 0,-3.947811 0,-0.263188 -0.186101,-0.603461 0,-0.789563 0.186102,-0.186101 0.603461,0.186102 0.789563,0 0.189993,-0.189993 -0.189994,-2.968255 0,-3.158248 0.186101,-0.186102 0.603462,0.186101 0.789562,0 0.2625,-0.2625 -0.2625,-1.316625 0,-1.579125 0.1861,-0.186101 0.60346,0.186102 0.78956,0 0.2625,-0.2625 -0.2625,-1.316624 0,-1.579124 0.1861,-0.186102 0.60346,0.186101 0.78956,0 0.2625,-0.2625 -0.2625,-1.316625 0,-1.579125 0.18611,-0.186101 0.60346,0.186102 0.78957,0 0.26224,-0.262243 -0.26225,-1.316881 0,-1.579124 0.1861,-0.186102 0.60346,0.186102 0.78956,0 0.3722,-0.372203 -0.3722,-1.206921 0,-1.579124 0.1861,-0.186102 0.60346,0.186101 0.78956,0 0.1861,-0.186102 -0.1861,-0.603461 0,-0.789563 0.1861,-0.186101 0.60346,0.186102 0.78956,0 0.1861,-0.186101 -0.1177,-0.55416 0,-0.789562 0.33291,-0.665817 1.24622,-0.913307 1.57913,-1.579124 0.1177,-0.235402 -0.1861,-0.603461 0,-0.789562 0.1861,-0.186102 0.55416,0.117701 0.78956,0 0.33291,-0.166455 0.52637,-0.526375 0.78956,-0.789563 0.26319,-0.263187 0.62311,-0.456653 0.78956,-0.789562 0.1177,-0.235402 -0.1861,-0.60346 0,-0.789562 0.18611,-0.186102 0.60346,0.186102 0.78957,0 0.1861,-0.186102 -0.1177,-0.55416 0,-0.789562 0.3329,-0.665818 1.24621,-0.913307 1.57912,-1.579125 0.1177,-0.235402 -0.1177,-0.55416 0,-0.789562 0.16645,-0.332909 0.62311,-0.456653 0.78956,-0.789562 0.1177,-0.235402 -0.1861,-0.603461 0,-0.789562 0.1861,-0.186102 0.60346,0.186101 0.78956,0 0.18611,-0.186102 -0.1177,-0.55416 0,-0.789562 0.16646,-0.332909 0.62311,-0.456654 0.78957,-0.789563 0.1177,-0.235402 -0.1861,-0.60346 0,-0.789562 0.1861,-0.186101 0.60346,0.186102 0.78956,0 0.3722,-0.372203 -0.3722,-1.206921 0,-1.579124 0.1861,-0.186102 0.60346,0.186101 0.78956,0 0.1861,-0.186102 -0.1861,-0.603461 0,-0.789562 0.1861,-0.186102 0.60346,0.186101 0.78956,0 0.37221,-0.372204 -0.2354,-1.108321 0,-1.579125 0.16646,-0.332909 0.62311,-0.456653 0.78957,-0.789562 0.1177,-0.235402 -0.18611,-0.603461 0,-0.789562 0.1861,-0.186102 0.60346,0.186101 0.78956,0 0.2625,-0.2625 -0.2625,-1.316625 0,-1.579125 0.1861,-0.186101 0.60346,0.186102 0.78956,0 0.3722,-0.372203 -0.3722,-1.206921 0,-1.579124 0.1861,-0.186102 0.60346,0.186102 0.78956,0 0.1861,-0.186102 -0.1177,-0.55416 0,-0.789562 0.16646,-0.332909 0.62311,-0.456654 0.78956,-0.789562 0.11771,-0.235402 -0.1177,-0.554161 0,-0.789563 0.16646,-0.332908 0.62311,-0.456653 0.78957,-0.789562 0.1177,-0.235402 -0.1861,-0.603461 0,-0.789562 0.1861,-0.186102 0.60346,0.186101 0.78956,0 0.2625,-0.2625 -0.2625,-1.316625 0,-1.579125 1.05275,-1.052749 0.78956,1.315937 0.78956,-0.789562 0,-1.851664 -0.1861,0.372203 0.78956,-1.579124 0.23541,-0.470804 -0.3722,-1.206921 0,-1.579125 0.18611,-0.186101 0.60346,0.186102 0.78957,0 0.3722,-0.372203 -0.37221,-1.206921 0,-1.579124 0.1861,-0.186102 0.60346,0.186102 0.78956,0 0.16141,-0.161415 -0.15653,-2.055632 0,-2.368687 0.16645,-0.332908 0.62311,-0.456653 0.78956,-0.789562 0.1177,-0.235402 -0.1177,-0.55416 0,-0.789562 0.16645,-0.332909 0.62311,-0.456653 0.78956,-0.789562 0.15653,-0.313055 -0.16141,-2.207271 0,-2.368687 0.1861,-0.186101 0.60346,0.186102 0.78956,0 0.18611,-0.186101 0,-0.526375 0,-0.789562 0,-1.315937 0,-2.631874 0,-3.947811 0,-0.263187 0.18611,-0.603461 0,-0.789562 -1.15802,-1.158025 -0.7106,1.500168 -0.78956,1.579124 -0.1861,0.186102 -0.60346,-0.186101 -0.78956,0 -0.1861,0.186102 0,0.526375 0,0.789562 -0.26319,0 -0.60346,-0.186101 -0.78956,0 -0.1861,0.186102 0.1861,0.603461 0,0.789563 -0.37221,0.372203 -1.20692,-0.372204 -1.57913,0 -0.1861,0.186101 0.18611,0.60346 0,0.789562 -0.3722,0.372203 -1.10832,-0.235402 -1.57912,0 -0.33291,0.166454 -0.41736,0.789562 -0.78956,0.789562 -0.0929,0 0.11611,-2.252574 0,-2.368687 -0.1861,-0.186101 -0.60346,0.186102 -0.78957,0 -0.18999,-0.189993 0.19,-2.968255 0,-3.158248 -0.1861,-0.186102 -0.60346,0.186101 -0.78956,0 -0.0254,-0.02539 0,-2.177197 0,-2.368687 0,-0.289956 0.0318,-3.126476 0,-3.158249 -0.1861,-0.186101 -0.60346,0.186102 -0.78956,0 -0.1552,-0.155201 0.53442,-3.692669 -0.78956,-2.368686 -0.0358,0.03578 0,3.575534 0,3.947811 0,2.368686 0,4.737373 0,7.106059 0,0.412879 0.1038,2.950641 0,3.158249 -0.16646,0.332909 -0.62311,0.456654 -0.78956,0.789562 -0.1177,0.235402 0,0.526375 0,0.789563 0,0.559643 0.10207,4.533231 0,4.737373 -0.16646,0.332909 -0.62311,0.456653 -0.78957,0.789562 -0.2354,0.470804 0.37221,1.206921 0,1.579124 -0.1861,0.186102 -0.60346,-0.186101 -0.78956,0 -0.2625,0.2625 0.2625,1.316625 0,1.579125 -0.1861,0.186101 -0.60346,-0.186102 -0.78956,0 -0.1861,0.186101 0.1177,0.55416 0,0.789562 -0.0431,0.08614 -1.53605,1.492981 -1.57913,1.579124 -0.1177,0.235402 0.18611,0.603461 0,0.789563 -0.1861,0.186101 -0.55416,-0.117701 -0.78956,0 -0.20963,0.104818 -2.26387,2.159049 -2.36868,2.368686 -0.1177,0.235402 0.1861,0.603461 0,0.789563 -0.18611,0.186101 -0.60346,-0.186102 -0.78957,0 -0.1861,0.186101 0.1177,0.55416 0,0.789562 -0.16645,0.332908 -0.6231,0.456653 -0.78956,0.789562 -0.1177,0.235402 0.1861,0.603461 0,0.789562 -0.1861,0.186102 -0.55416,-0.117701 -0.78956,0 -3.28597,1.642984 0.84407,-0.05451 -0.78956,1.579125 -0.1861,0.186101 -0.55416,-0.117701 -0.78956,0 -0.33291,0.166454 -0.52638,0.526374 -0.78957,0.789562 -0.26318,0.263187 -0.6231,0.456653 -0.78956,0.789562 -0.1177,0.235402 0.1861,0.603461 0,0.789562 -0.1861,0.186102 -0.60346,-0.186101 -0.78956,0 -0.1861,0.186102 0.1861,0.603461 0,0.789562 -0.1861,0.186102 -0.60346,-0.186101 -0.78956,0 -0.18611,0.186102 0.1861,0.603461 0,0.789563 -0.18611,0.186101 -0.60346,-0.186102 -0.78957,0 -0.1861,0.186101 0,0.526374 0,0.789562 -0.26318,0 -0.60346,-0.186102 -0.78956,0 -0.1861,0.186101 0.1861,0.60346 0,0.789562 -0.1861,0.186102 -0.60346,-0.186102 -0.78956,0 -0.1861,0.186102 0.1177,0.55416 0,0.789562 -0.16645,0.332909 -0.623108,0.456654 -0.789562,0.789562 -0.117701,0.235402 0.117701,0.554161 0,0.789563 -0.166455,0.332908 -0.526375,0.526374 -0.789563,0.789562 -0.464376,0.464376 -2.975434,2.792619 -3.158248,3.158249 -0.117701,0.235402 0.186101,0.60346 0,0.789562 -0.186102,0.186101 -0.603461,-0.186102 -0.789563,0 -0.262243,0.262243 0.262243,1.316881 0,1.579124 -0.186101,0.186102 -0.60346,-0.186101 -0.789562,0 -0.186101,0.186102 0.186102,0.603461 0,0.789562 -0.186101,0.186102 -0.60346,-0.186101 -0.789562,0 -0.186102,0.186102 0.117701,0.554161 0,0.789563 -0.166454,0.332908 -0.623108,0.456653 -0.789562,0.789562 -0.117701,0.235402 0.186101,0.60346 0,0.789562 -0.186102,0.186102 -0.603461,0.186102 -0.789562,0 -0.186102,-0.186102 0,-0.526375 0,-0.789562 0,-0.263188 -0.117701,-0.55416 0,-0.789562 0.166454,-0.332909 0.623107,-0.456654 0.789562,-0.789563 0.701833,-1.403666 -0.438646,-0.438645 -0.789562,-0.789562 -0.372204,-0.372203 0.235401,-1.10832 0,-1.579124 -0.166455,-0.332909 -0.623108,-0.456654 -0.789563,-0.789562 -0.117701,-0.235402 0.186102,-0.603461 0,-0.789563 -0.186101,-0.186101 -0.60346,0.186102 -0.789562,0 -0.186101,-0.186101 0.186102,-0.60346 0,-0.789562 -0.372203,-0.372203 -1.579124,0.526375 -1.579124,0 0,-0.263187 0.60346,-0.186101 0.789562,0 0.294628,0.294628 -0.03151,1.547615 -0.789562,0.789562 -0.186102,-0.186101 -0.186102,-0.60346 0,-0.789562 0.186101,-0.186101 0.60346,0.186102 0.789562,0 0.186102,-0.186101 0,-0.526375 0,-0.789562 0,-0.263187 0.186102,-0.603461 0,-0.789562 -0.186102,-0.186102 -0.603461,0.186101 -0.789562,0 -0.186102,-0.186102 -0.186102,-0.603461 0,-0.789562 0.186101,-0.186102 0.60346,0.186101 0.789562,0 0.161415,-0.161416 -0.156528,-2.055632 0,-2.368687 0.166454,-0.332909 0.623108,-0.456654 0.789562,-0.789562 0.272689,-0.545377 -0.277152,-3.67066 0,-3.947811 0.186102,-0.186102 0.603461,0.186101 0.789562,0 0.186102,-0.186102 -0.186101,-0.603461 0,-0.789562 0.186102,-0.186102 0.603461,0.186101 0.789563,0 0.186101,-0.186102 -0.186102,-0.603461 0,-0.789563 0.186101,-0.186101 0.60346,0.186102 0.789562,0 0.372203,-0.372203 -0.372203,-1.206921 0,-1.579124 0.186101,-0.186102 0.60346,0.186102 0.789562,0 0.372203,-0.372203 -0.372203,-1.206921 0,-1.579124 0.186102,-0.186102 0.603461,0.186101 0.789562,0 0.186102,-0.186102 -0.117701,-0.554161 0,-0.789563 0.166454,-0.332908 0.623108,-0.456653 0.789562,-0.789562 0.235402,-0.470804 -0.372203,-1.206921 0,-1.579124 0.186102,-0.186102 0.603461,0.186101 0.789563,0 0.2625,-0.2625 -0.2625,-1.316625 0,-1.579125 1.052749,-1.052749 0.789562,1.315937 0.789562,-0.789562 0,-2.105499 -0.263188,0.263187 0.789562,-0.789562 0.372203,-0.372203 -0.235402,-1.108321 0,-1.579125 0.166454,-0.332908 0.623108,-0.456653 0.789562,-0.789562 0.315825,-0.631649 -0.315825,-1.737037 0,-2.368686 0.166454,-0.332909 0.623108,-0.456654 0.789562,-0.789563 0.156528,-0.313055 -0.161415,-2.207271 0,-2.368686 0.186102,-0.186102 0.603461,0.186101 0.789563,0 0.372203,-0.372203 -0.235402,-1.108321 0,-1.579125 0.166454,-0.332908 0.623112,-0.456653 0.789562,-0.789562 0.31582,-0.63165 -0.315825,-1.737037 0,-2.368686 0.16645,-0.332909 0.62311,-0.456654 0.78956,-0.789563 0.12015,-0.24029 0,-2.013101 0,-2.368686 0,-0.263188 0.26319,-0.789562 0,-0.789562 -1.642982,0 -0.31769,1.107257 -0.78956,1.579124 -0.1861,0.186102 -0.603461,-0.186102 -0.789562,0 -0.186102,0.186102 0.117701,0.55416 0,0.789562 -0.332909,0.665818 -1.246216,0.913307 -1.579125,1.579125 -0.117701,0.235402 0.186102,0.60346 0,0.789562 -1.633632,1.633632 0.06386,-2.496407 -1.579124,0.789562 -0.117701,0.235402 0.117701,0.55416 0,0.789562 -0.182815,0.36563 -2.693873,2.693873 -3.158249,3.158249 -0.263187,0.263187 -0.417359,0.789562 -0.789562,0.789562 -0.263188,0 -0.186102,-0.60346 0,-0.789562 0.186101,-0.186102 0.60346,0.186102 0.789562,0 0.186102,-0.186102 0,-0.526375 0,-0.789562 0,-0.355586 0.120145,-2.128396 0,-2.368687 -0.166454,-0.332908 -0.623108,-0.456653 -0.789562,-0.789562 -0.23972,-0.47944 0.23972,-4.257933 0,-4.737373 -0.166455,-0.332909 -0.623108,-0.456654 -0.789562,-0.789562 -0.214164,-0.428328 0.216041,-2.942208 0,-3.158249 -0.186102,-0.186102 -0.603461,0.186101 -0.789563,0 -0.02539,-0.02539 0,-2.177197 0,-2.368687 0,-0.263187 0,-0.526375 0,-0.789562 0,-0.263187 0.186102,-0.603461 0,-0.789562 -0.186101,-0.186102 -0.60346,0.186101 -0.789562,0 -0.186101,-0.186102 0.186102,-0.603461 0,-0.789562 -0.186101,-0.186102 -0.60346,-0.186102 -0.789562,0 -0.02539,0.02539 0,2.177196 0,2.368686 0,3.947811 0,7.895622 0,11.843433 0,0.289956 0.03177,3.126476 0,3.158249 -0.186102,0.186102 -0.603461,-0.186102 -0.789562,0 -0.372203,0.372203 0.372203,1.206921 0,1.579124 -0.186102,0.186102 -0.603461,-0.186101 -0.789562,0 -0.186102,0.186102 0.1177,0.554161 0,0.789563 -0.686309,1.372617 -1.283538,2.862661 -2.368687,3.947811 -0.832272,0.832271 -2.065423,1.141994 -3.158249,1.579124 -0.315756,0.126302 -2.227837,-0.140849 -2.368687,0 -0.186101,0.186102 -0.186101,0.603461 0,0.789562 0.186102,0.186102 0.603461,0.186102 0.789563,0 0.186101,-0.186101 -0.186102,-0.60346 0,-0.789562 0.186101,-0.186102 0.789562,-0.263187 0.789562,0 -1.05275,0 -0.789562,-0.263187 -0.789562,0.789562"
     id="path2988"
     style="fill:none;stroke:#000000;stroke-width:1px;stroke-linecap:butt;stroke-linejoin:miter;stroke-opacity:1" />
</svg>
