<?xml version="1.0" encoding="UTF-8" standalone="no"?>
<!-- Created with Inkscape (http://www.inkscape.org/) -->

<svg
   xmlns:dc="http://purl.org/dc/elements/1.1/"
   xmlns:cc="http://creativecommons.org/ns#"
   xmlns:rdf="http://www.w3.org/1999/02/22-rdf-syntax-ns#"
   xmlns:svg="http://www.w3.org/2000/svg"
   xmlns="http://www.w3.org/2000/svg"
   version="1.1"
   width="1029.5891"
   height="733.04431"
   id="svg2">
  <defs
     id="defs4" />
  <metadata
     id="metadata7">
    <rdf:RDF>
      <cc:Work
         rdf:about="">
        <dc:format>image/svg+xml</dc:format>
        <dc:type
           rdf:resource="http://purl.org/dc/dcmitype/StillImage" />
        <dc:title></dc:title>
      </cc:Work>
    </rdf:RDF>
  </metadata>
  <path
     d="m 639.75733,29.110892 c -0.49514,-0.628591 -1.22302,-1.273316 -1.49209,-2.090616 -0.0392,-0.119023 -0.0451,-0.247362 -0.0848,-0.366239 -0.0143,-0.04303 -0.17218,-0.470689 -0.13564,-0.503579 0.003,-0.0027 0.0814,0.158743 0.0848,0.16786 0.0849,0.229174 -0.11126,0.32131 -0.13565,0.518839 -0.009,0.0767 -0.0459,0.201961 0.0339,0.259419 0.01,0.0072 0.13795,0.04266 0.10173,0.09156 -0.0101,0.01363 -0.0368,-0.0095 -0.0509,0 -0.20267,0.1368 0.21431,-0.05066 -0.0678,0.0763 -0.0832,0.03745 -0.15337,0.02898 -0.23738,0.04578 -0.25971,0.05194 -0.49894,0.164429 -0.763,0.198379 -0.13613,0.0175 -0.68823,0.313657 -0.81386,0.3815 -0.16031,0.08657 -0.32243,0.190861 -0.49171,0.259419 -0.28705,0.116255 -0.61418,0.141864 -0.9156,0.19838 -0.43089,0.08079 -0.86035,0.180923 -1.28862,0.274679 -0.84055,0.184012 -1.65253,0.491453 -2.49246,0.671439 -0.48693,0.104342 -0.98868,-0.0267 -1.47513,-0.09156 -0.62001,-0.08267 -1.23618,-0.182765 -1.84815,-0.320459 -0.32305,-0.07269 -0.63343,-0.195114 -0.94951,-0.28994 -0.261,-0.0783 -0.53268,-0.105277 -0.79691,-0.167859 -0.31271,-0.07406 -0.98201,-0.265301 -1.30558,-0.2289 -0.10115,0.01138 -0.15805,0.07449 -0.23738,0.12208 -0.12727,0.07636 -0.34795,0.05266 -0.52562,0.152599 -0.25148,0.141462 -0.46501,0.313044 -0.69517,0.48832 -0.19169,0.145978 -0.54197,0.303827 -0.64431,0.534099 -0.081,0.182135 0.0256,0.518513 -0.0509,0.701958 -0.0405,0.09717 -0.13919,0.158987 -0.18651,0.24416 -0.0189,0.03393 0.0221,0.07666 -0.017,0.10682 -0.10332,0.07971 -0.29364,0.142764 -0.40693,0.198379 -0.24246,0.119025 -0.48775,0.26056 -0.71213,0.412019 -0.11365,0.07671 -0.35421,0.22367 -0.32216,0.39676 0.003,0.01867 0.0431,0.02918 0.0339,0.04578 -0.0113,0.02026 -0.0506,-2.42e-4 -0.0678,0.01526 -0.0341,0.03073 0.1202,0.154131 0.10174,0.228899 -0.10715,0.433936 -0.21193,0.839603 -0.18651,1.297098 0.008,0.1409 0.0436,0.324293 0.0848,0.457799 0.0137,0.04448 0.0554,0.07723 0.0678,0.12208 0.0232,0.0835 -0.002,0.174825 0.017,0.259419 0.0217,0.09766 0.075,0.208435 0.0848,0.305199 0.0256,0.253287 -0.30328,0.666532 -0.27129,0.839299 0.0345,0.18629 0.43902,0.380589 0.59344,0.457799 0.12732,0.06366 0.18592,0.214793 0.3052,0.289939 0.13702,0.08632 0.25258,0.140147 0.35607,0.27468 0.11222,0.145888 0.2303,0.374144 0.37302,0.488319 0.26401,0.211207 0.56887,0.251257 0.88169,0.335719 0.0871,0.02352 0.15062,0.0802 0.22042,0.12208 0.0136,0.0082 0.5859,0.119593 0.62735,0.12208 0.30022,0.01801 0.63161,0.04536 0.93256,0.01526 0.058,-0.0058 0.13161,-0.06927 0.18651,-0.06104 0.0539,0.0081 0.0859,0.06917 0.13564,0.09156 0.0748,0.03366 0.20704,0.04734 0.28825,0.06104 0.30277,0.05109 0.61096,0.01806 0.91559,0.03052 0.54739,0.02239 1.12936,0.05328 1.6786,0.01526 0.33574,-0.02324 1.73323,-0.22551 2.00075,0.01526 0.0342,0.03076 0.0476,0.12134 0.0678,0.152599 0.0694,0.107024 0.28169,0.436644 0.35606,0.503579 0.0869,0.07821 0.72598,0.400839 0.74604,0.473059 0.003,0.0093 -0.13182,-0.0024 -0.18651,0.0763 -0.0915,0.131836 -0.14484,0.323051 -0.18651,0.473059 -0.0163,0.05881 0.006,0.12234 0,0.18312 -0.0176,0.190404 -0.0631,0.34617 -0.1526,0.518839 -0.10684,0.206055 -0.40328,0.540442 -0.42388,0.762999 -0.0414,0.446843 0.13185,0.241292 0.27128,0.534099 0.0364,0.07648 0.0313,0.165234 0.0678,0.244159 0.0855,0.184675 0.2194,0.289916 0.33911,0.442539 0.0359,0.04579 0.0455,0.109671 0.0848,0.1526 0.13824,0.151075 0.67035,0.563912 0.86474,0.625659 0.18866,0.05993 0.41296,0.0959 0.57648,0.213639 0.52086,0.37502 0.4141,0.93669 0.49171,1.495478 0.0583,0.419626 0.23102,1.0663 0.0678,1.464957 -0.1109,0.270905 -0.14844,0.565278 -0.25434,0.839298 -0.051,0.132033 -0.13735,0.248761 -0.18651,0.381499 -0.0254,0.06865 -0.0224,0.146182 -0.0509,0.21364 -0.0344,0.08173 -0.0972,0.148989 -0.13565,0.2289 -0.15721,0.326516 -0.29505,0.674069 -0.44084,1.007158 -0.16254,0.371344 -0.27824,0.756611 -0.38998,1.144497 -0.0657,0.228005 -0.17385,0.442743 -0.23738,0.671439 -0.039,0.140459 -0.0838,0.312815 -0.10173,0.457799 -0.0164,0.133118 0.0222,0.142637 -0.017,0.27468 -0.12941,0.436781 -0.40784,0.822255 -0.55953,1.251317 -0.1211,0.34256 -0.15454,0.727722 -0.22042,1.083458 -0.0383,0.206933 -0.10928,0.405716 -0.1526,0.610399 -0.0411,0.194081 -0.0387,0.398774 -0.0509,0.595139 -0.013,0.21078 -0.0637,0.41661 -0.0848,0.625659 -0.0211,0.208316 0.0121,0.41859 -0.0339,0.625659 -0.0506,0.227527 -0.0736,0.456504 -0.11869,0.686698 -0.0316,0.161004 -0.10565,0.308743 -0.11869,0.47306 -0.0322,0.405891 -0.0303,0.815865 -0.0678,1.220797 -0.0328,0.354088 -0.21379,0.725164 -0.16956,1.083458 0.0105,0.085 0.091,0.169421 0.11869,0.24416 0.0315,0.08513 0.089,0.400603 0.10173,0.503579 0.0475,0.384964 0.14989,0.753219 0.25434,1.129238 0.0483,0.17395 0.0493,0.361008 0.10173,0.534099 0.0951,0.313849 0.19142,0.63891 0.3052,0.946118 0.0984,0.265659 0.0954,0.552212 0.13564,0.824038 0.021,0.14179 0.0429,0.08119 0.10174,0.21364 0.0487,0.109548 0.0556,0.240275 0.10173,0.350979 0.0693,0.166432 0.17238,0.315007 0.25433,0.473059 0.0557,0.107509 0.0699,0.241227 0.11869,0.35098 0.0529,0.118991 0.13008,0.22309 0.16956,0.350979 0.0802,0.259733 0.18938,0.498612 0.28824,0.747738 0.0366,0.09229 0.0353,0.210051 0.0678,0.3052 0.0648,0.189536 0.13676,0.381753 0.22042,0.564619 0.17167,0.375217 0.4206,0.71741 0.6104,1.083458 0.0556,0.107219 0.13051,0.238511 0.16956,0.350979 0.0135,0.03881 10e-4,0.08416 0.017,0.12208 0.23876,0.57302 -0.0567,-0.329215 0.13565,0.259419 0.0701,0.21458 0.10314,0.417107 0.23737,0.610399 0.4445,0.640073 0.87182,1.306666 1.33949,1.938017 0.36005,0.486073 0.72225,0.973445 0.93255,1.541257 0.0432,0.116695 0.12981,0.243174 0.1526,0.366239 0.0476,0.257005 -0.12408,0.915804 -0.16955,1.175018 -0.0444,0.25304 -0.1167,0.522553 -0.13565,0.778258 -0.0142,0.191464 -0.006,0.373121 -0.0339,0.564619 -0.0353,0.238565 -0.12151,0.667212 -0.0509,0.900338 0.0659,0.217643 0.27578,0.412279 0.42389,0.564619 0.10471,0.10771 0.1804,0.255321 0.28824,0.36624 0.2422,0.249124 0.52524,0.472713 0.77995,0.701958 0.16263,0.146361 0.2254,0.385515 0.33911,0.564619 0.17271,0.272006 0.35725,0.53325 0.52562,0.808779 0.27507,0.450111 0.62398,0.829136 0.9156,1.266577 0.12116,0.181733 0.21695,0.3887 0.33911,0.564619 0.44444,0.639982 0.96616,1.201572 1.45818,1.800677 0.22711,0.276537 0.41892,0.601638 0.6104,0.900338 0.17821,0.278008 0.12951,0.109654 0.27129,0.396759 0.23774,0.481426 0.45456,0.994989 0.74604,1.449698 0.16987,0.264999 0.34408,0.526897 0.50866,0.793518 0.12995,0.210506 0.3106,0.386737 0.44085,0.595139 0.14663,0.234611 0.21601,0.516795 0.33911,0.762998 0.25346,0.506931 0.63524,0.98185 0.89864,1.495478 0.0372,0.07258 0.0306,0.141056 0.0678,0.213639 0.0532,0.103818 0.13046,0.190836 0.16956,0.3052 0.0233,0.06823 0.009,0.146023 0.0339,0.213639 0.064,0.172733 0.14673,0.386186 0.23738,0.549359 0.0177,0.03177 0.10436,0.156475 0.11869,0.19838 0.0117,0.03411 0.001,0.07427 0.017,0.10682 0.11576,0.243095 0.28896,0.467979 0.44084,0.686698 0.15638,0.225183 0.20936,0.514187 0.33912,0.747739 0.0479,0.0863 0.14404,0.154985 0.18651,0.244159 0.11567,0.242912 0,0.17207 0,0.2289 0,0.05297 0.0875,0.07104 0.10173,0.12208 0.0131,0.04722 -0.0131,0.105377 0,0.152599 0.0183,0.0659 0.0624,0.122651 0.0848,0.18312 0.0408,0.110253 -0.0443,0.126154 0.0509,0.2289 0.063,0.06808 0.068,0.260341 0.0848,0.350979 0.006,0.032 -0.0277,0.123515 -0.0339,0.09156 -0.0251,-0.12997 -0.0957,-0.503129 -0.017,-0.396759 0.0978,0.132053 -0.0543,0.378384 0.0678,0.488319 0.13761,0.123853 0.48524,0.320183 0.71213,0.396759 0.11593,0.03913 0.35321,0.257281 0.4578,0.335719 0.0793,0.05947 0.2001,0.06716 0.28824,0.10682 0.0659,0.02967 0.10384,0.09251 0.16956,0.12208 0.14805,0.06662 0.29247,0.152944 0.44084,0.213639 0.15402,0.06301 0.32687,0.07866 0.47475,0.1526 0.16865,0.08432 0.30779,0.221715 0.47476,0.3052 0.36181,0.180904 0.67356,0.376726 0.98342,0.640918 0.31956,0.272471 0.70737,0.513001 0.89864,0.900339 0.0136,0.02755 0.0485,0.08284 0.0339,0.122079 -0.0386,0.104318 -0.18935,0.0952 -0.27128,0.13734 -0.0549,0.02825 -0.0855,0.09974 -0.13565,0.13734 -0.094,0.07051 -0.20747,0.106157 -0.3052,0.18312 -0.14421,0.11357 -0.31369,0.191718 -0.4578,0.305199 -0.40527,0.319152 -0.79445,0.660822 -1.20384,0.976638 -0.18502,0.142734 -0.39161,0.25533 -0.57649,0.396759 -0.28205,0.215768 -0.53228,0.479852 -0.77995,0.732482 -0.60647,0.6186 -0.77223,1.50283 -1.03429,2.28899 -0.0908,0.27256 -0.24486,0.52371 -0.3052,0.80878 -0.0639,0.30172 -4e-4,0.62747 -0.0678,0.93086 -0.17674,0.79531 -0.23738,1.58972 -0.23738,2.41107 0,0.24542 -0.0235,0.50488 0.017,0.74774 0.0315,0.18891 0.0838,0.37627 0.11869,0.56462 0.037,0.20002 0.0218,0.39667 0.0848,0.59514 0.0847,0.26686 0.20295,0.54655 0.25434,0.82404 0.0309,0.16714 -0.0413,0.0147 0.017,0.19838 0.0407,0.12821 0.0889,0.24336 0.10174,0.3815 0.0289,0.31255 -0.0316,0.63385 0,0.94612 0.0333,0.3293 0.15362,0.60743 0.25433,0.91559 0.0128,0.0391 0.002,0.0839 0.017,0.12208 0.0365,0.0921 0.1024,0.17495 0.13565,0.27468 0.0409,0.12262 -0.005,0.23562 0.0678,0.35098 0.0528,0.0832 0.0143,0.0129 0.10173,0.0916 0.0611,0.055 0.0686,0.13802 0.13565,0.19838 0.13007,0.11706 0.28686,0.19013 0.44084,0.25942 0.14297,0.0643 0.28054,0.22827 0.38998,0.33572 0.27768,0.27264 0.57696,0.59592 0.77995,0.93086 0.0731,0.12055 -0.005,0.0593 0.0678,0.16786 0.17289,0.25933 0.48116,0.39763 0.67823,0.62566 0.11534,0.13346 0.14614,0.36115 0.28824,0.47306 0.16411,0.12923 0.35679,0.22942 0.52562,0.35098 0.18316,0.13187 0.33064,0.32428 0.50867,0.4578 0.0308,0.0231 0.16955,0.11216 0.16955,0.12208 0,0.0198 -0.0509,0.0107 -0.0509,0.0305 0,0.0519 0.1111,-0.0617 0.1526,-0.0305 0.12923,0.0969 0.21217,0.29324 0.32215,0.41202 0.0811,0.0876 0.20829,0.0208 0.3052,0.0458 0.18783,0.0483 0.34823,0.17866 0.54258,0.21364 0.31844,0.0573 0.67799,0.0499 1.00037,0.0305 0.11432,-0.007 0.24339,-0.0458 0.35607,-0.0458 3.8e-4,0 0.16395,0.18823 0.22042,0.21364 0.16403,0.0738 0.33166,0.15153 0.50867,0.19838 0.0816,0.0216 0.67396,0.0839 0.69517,0.12208 0.0199,0.0359 -0.0289,0.0828 -0.0169,0.12208 0.0491,0.16209 0.25523,0.48954 0.35606,0.62566 0.0355,0.0479 0.4322,0.40517 0.42389,0.44254 -0.009,0.039 -0.16925,0.0411 -0.10173,0.12208 0.01,0.0119 0.11869,-0.0158 0.11869,0 0,0.11241 -0.12229,-0.0697 -0.0678,0.061 0.0691,0.16589 0.16348,0.33228 0.18651,0.51884 0.0108,0.0872 -0.0149,0.17348 0.017,0.25942 0.0348,0.0938 0.13564,0.22795 0.13564,0.33572 0,0.10222 -0.2582,0.34374 -0.1526,0.4578 0.0708,0.0764 0.18427,0.006 0.25434,0.0458 0.0495,0.0278 0.0741,0.087 0.11869,0.12208 0.21139,0.16647 1.36527,1.11204 1.32253,1.34288 -0.0172,0.0927 -0.17567,0.16736 -0.23738,0.21363 -0.11666,0.0875 -0.18995,0.23462 -0.28824,0.33572 -0.0911,0.0937 -0.22901,0.15058 -0.33911,0.21364 -0.26211,0.15012 -0.45081,0.50709 -0.50867,0.79352 -0.0608,0.30101 0.095,0.62313 0.13564,0.9156 0.0575,0.41421 0.065,0.83785 0.13565,1.25132 0.098,0.57308 0.33666,1.1774 0.25433,1.77015 -0.0644,0.4637 -0.20119,0.92235 -0.25433,1.38866 -0.0405,0.3557 -0.0335,0.71214 -0.10174,1.0682 -0.0895,0.46699 -0.2623,0.91859 -0.33911,1.38866 -0.0706,0.43209 -0.11618,0.86478 -0.16955,1.29709 -0.0742,0.60119 -0.25897,1.18827 -0.35607,1.78542 -0.0172,0.10603 -0.0143,0.21484 -0.0339,0.32046 -0.0952,0.51412 -0.26414,1.04458 -0.42389,1.54126 -0.032,0.0994 -0.0894,0.1897 -0.11868,0.28994 -0.0275,0.0942 -0.0271,0.19474 -0.0509,0.28994 -0.16902,0.67607 -0.30709,1.33236 -0.37302,2.02957 -0.067,0.7086 -0.14209,1.38132 -0.0339,2.09062 0.10473,0.68672 0.0105,0.11126 0.20346,0.79352 0.18956,0.67023 0.32575,1.36512 0.37302,2.06009 0.0407,0.59866 -0.0339,1.23936 -0.20346,1.81594 -0.0249,0.0846 -0.0754,0.16 -0.10174,0.24416 -0.13151,0.42085 -0.23114,0.87553 -0.28824,1.31236 -0.0366,0.28008 -0.0658,0.57142 -0.0509,0.85456 0.0242,0.4575 0.21731,0.92279 0.1526,1.38865 -0.0213,0.15371 -0.84463,0.5892 -0.96646,0.67144 -0.41855,0.28252 -0.73969,0.6829 -0.89864,1.15976 -0.13356,0.40067 -0.32734,0.89394 -0.3052,1.31236 0.0153,0.28987 0.16025,0.52522 0.18651,0.80878 0.0141,0.15289 -0.0532,0.49854 -0.0218,0.61831 0.0145,0.0553 0.0907,0.0761 0.1136,0.12858 0.007,0.0162 -0.0377,0.003 -0.0509,0.0153 -0.0173,0.0156 -0.0166,0.0455 -0.0339,0.061 -0.0294,0.0265 -0.0893,-0.0265 -0.11869,0 -0.0189,0.017 0,0.0509 0,0.0763 0,0.18243 -0.0107,0.38553 -0.10173,0.54935 -0.0184,0.0332 -0.0538,0.0563 -0.0678,0.0916 -0.0463,0.11659 -0.0504,0.23567 -0.11869,0.35098 -0.6739,1.13721 -2.59277,1.50306 -2.84853,2.88414 -0.0421,0.2271 -0.0481,0.48677 -0.0339,0.71722 0.0106,0.171 0.11349,0.36613 0.0848,0.5341 -0.0403,0.23571 -0.13948,0.45634 -0.20347,0.68669 -0.19563,0.70429 -0.43235,1.66352 -0.35606,2.39582 0.0351,0.33749 0.14329,0.67318 0.20346,1.00716 0.0825,0.45793 0.1352,0.92484 0.16956,1.38866 0.01,0.13297 0.0573,0.26357 0.0509,0.39676 -0.0184,0.3813 -0.30362,0.80257 -0.42388,1.15975 -0.26368,0.78312 -0.32057,1.57755 -0.37303,2.39582 -0.0449,0.7002 0.0322,1.40802 -0.0509,2.10587 -0.0594,0.49929 -0.22759,0.96792 -0.35607,1.4497 -0.071,0.26623 -0.19188,1.1231 -0.42389,1.2971 -0.25971,0.19479 -0.63339,0.0976 -0.93255,0.12208 -0.31077,0.0254 -0.67235,0.16872 -0.98342,0.061 -0.30822,-0.10669 -0.89302,-0.36918 -1.08515,-0.64092 -0.063,-0.0891 -0.0491,-0.11108 -0.10174,-0.21364 -0.15998,-0.31197 -0.34865,-0.6525 -0.55953,-0.93086 -0.23702,-0.31287 -0.57546,-0.5212 -0.84778,-0.79352 -0.44498,-0.44498 -0.65554,-1.27156 -1.05124,-1.83119 -0.60015,-0.84879 -1.51465,-1.4003 -2.08553,-2.27374 -0.30551,-0.46743 -0.32215,-1.1712 -0.32215,-1.70912 0,-0.21136 0.0592,-0.41835 0.0848,-0.62565 0.0215,-0.17418 0.0177,-0.35913 0.0339,-0.5341 0.034,-0.36777 -0.0408,-0.74701 0,-1.11398 0.0593,-0.53354 0.54478,-1.3469 0.44084,-1.87698 -0.0491,-0.25034 -0.1956,-0.49255 -0.25433,-0.71722 -0.0116,-0.0443 0.006,-0.0919 0,-0.13734 -0.0345,-0.27956 -0.1383,-0.54921 -0.18651,-0.82403 -0.0432,-0.24649 -0.0521,-0.52227 -0.13565,-0.763 -0.25768,-0.74214 -0.62516,-1.46138 -0.84777,-2.2127 -0.0211,-0.0712 -0.0777,-0.12806 -0.10174,-0.19838 -0.0401,-0.11729 -0.0105,-0.23532 -0.0339,-0.35098 -0.0389,-0.19235 -0.0727,-0.46119 -0.1526,-0.64092 -0.0201,-0.0453 -0.0667,-0.076 -0.0848,-0.12208 -0.0168,-0.0429 -0.002,-0.0938 -0.0169,-0.13734 -0.0291,-0.0838 -0.10326,-0.14633 -0.13564,-0.2289 -0.0185,-0.0471 -0.0545,-0.24692 -0.0678,-0.28993 -0.0463,-0.14997 -0.13839,-0.27293 -0.20346,-0.41202 -0.14756,-0.31542 -0.23584,-0.66729 -0.35607,-0.9919 -0.0419,-0.11311 -0.13685,-0.20873 -0.18651,-0.32046 -0.0752,-0.16916 -0.13509,-0.37966 -0.18651,-0.54936 -0.0358,-0.11818 -0.003,-0.24885 -0.0678,-0.36624 -0.11126,-0.20026 -0.25962,-0.43362 -0.40694,-0.6104 -0.0398,-0.0478 -0.0719,-0.0465 -0.10173,-0.10682 -0.0693,-0.14038 -0.0614,-0.2954 -0.0848,-0.44254 -0.0166,-0.10458 -0.0564,-0.13201 -0.10173,-0.21364 -0.0691,-0.12443 -0.0671,-0.30885 -0.13564,-0.44254 -0.13011,-0.2537 -0.24069,-0.52303 -0.37302,-0.77825 -0.1537,-0.29642 -0.35803,-0.59233 -0.4578,-0.9156 -0.0683,-0.22124 -0.0712,-0.48226 -0.1526,-0.70196 -0.0519,-0.14003 -0.11942,-0.27796 -0.1526,-0.42728 -0.0453,-0.20373 -0.0417,-0.41913 -0.0848,-0.62566 -0.0626,-0.30056 -0.14882,-0.6103 -0.18651,-0.9156 -0.0286,-0.23143 -0.025,-0.47065 -0.0678,-0.70196 -0.0286,-0.15427 -0.0878,-0.30466 -0.11869,-0.4578 -0.0664,-0.32888 -0.0849,-0.67299 -0.10174,-1.00715 -0.0163,-0.32206 -0.034,-0.68628 0,-1.00716 0.0223,-0.21107 0.10285,-0.41906 0.13565,-0.62566 0.0175,-0.11052 -0.005,-0.22394 0,-0.33572 0.0184,-0.38143 0.0241,-0.76405 0.0678,-1.1445 0.0476,-0.41366 0.11909,-0.82646 0.18651,-1.23606 0.0684,-0.41539 0.206,-0.81552 0.25433,-1.23605 0.0736,-0.64056 0.0678,-1.29346 0.0678,-1.93802 0,-0.25431 0.0256,-0.52521 0,-0.77826 -0.0323,-0.32021 -0.11679,-0.62092 -0.10174,-0.94612 0.0142,-0.30643 0.13874,-0.58557 0.1526,-0.88507 0.0191,-0.41161 0.0505,-0.8879 0,-1.2971 -0.0412,-0.33366 -0.12172,-0.63473 -0.10173,-0.97664 0.01,-0.169 0.0711,-0.32263 0.10173,-0.48832 0.0479,-0.25861 0.0725,-0.56092 0.0509,-0.82404 -0.0186,-0.22579 -0.10788,-0.42624 -0.1526,-0.64092 -0.0205,-0.0986 0.0132,-0.19045 -0.017,-0.28994 -0.0262,-0.0864 -0.0703,-0.16842 -0.0848,-0.25942 -0.0198,-0.1249 0.0482,-0.25497 0.017,-0.38149 -0.0568,-0.23005 -0.11004,-0.45729 -0.18651,-0.6867 -0.0476,-0.14283 -0.14364,-0.26215 -0.20346,-0.39676 -0.0336,-0.0756 -0.22737,-0.5409 -0.27129,-0.56462 -0.0352,-0.019 -0.0714,0.0763 -0.13565,0.0763 -0.0201,0 -0.17197,-0.0705 -0.18651,-0.0763 -0.24577,-0.0983 -0.5313,-0.18974 -0.79691,-0.21364 -0.22525,-0.0203 -0.45457,0.003 -0.67822,-0.0305 -0.29471,-0.0442 -0.61542,-0.0971 -0.9156,-0.0763 -0.31693,0.0219 -0.60816,0.10771 -0.9156,0.16786 -0.35483,0.0694 -0.7924,0.0813 -1.15297,0.061 -0.20751,-0.0117 -0.57116,-0.10083 -0.71213,-0.25942 -0.0586,-0.0659 0.007,-0.18138 -0.0509,-0.25942 -0.0149,-0.0201 -0.19302,-0.20548 -0.18651,-0.2289 0.01,-0.0355 0.22452,-0.0153 0.25433,-0.0153 0.33037,0 0.71386,-0.0181 1.03429,-0.10682 0.60706,-0.16811 2.06127,-0.56094 2.45855,-1.03768 0.0496,-0.0596 0.0604,-0.14852 0.10173,-0.21364 0.0663,-0.10433 0.22695,-0.16826 0.27129,-0.27468 0.0653,-0.1568 0.1442,-0.43897 0.20347,-0.62566 0.0463,-0.14581 0.01,-0.32175 0.0339,-0.47305 0.0102,-0.0642 0.0817,-0.12983 0.0678,-0.19838 -0.0299,-0.14782 -0.11869,-0.29552 -0.11869,-0.4578 0,-0.14681 0.0459,-0.31004 0.017,-0.4578 -0.023,-0.11728 -0.0711,-0.26427 -0.10173,-0.3815 -0.15327,-0.58622 -0.4133,-1.20332 -0.72909,-1.72438 -0.10495,-0.17316 -0.271,-0.28946 -0.37302,-0.4578 -0.0685,-0.11309 -0.1101,-0.23487 -0.20347,-0.33572 -0.0779,-0.0841 -0.20077,-0.10037 -0.28824,-0.16786 -0.23551,-0.18168 -0.48407,-0.36411 -0.763,-0.50358 -0.1839,-0.0919 -0.41399,-0.0756 -0.59345,-0.16786 -0.19776,-0.1017 -0.38234,-0.21543 -0.61039,-0.25942 -0.181,-0.0349 -0.36368,-0.0334 -0.54258,-0.0763 -0.13767,-0.033 -0.2699,-0.10993 -0.40693,-0.13733 -0.0763,-0.0152 -0.14528,-0.012 -0.22043,-0.0458 -0.10895,-0.049 -0.17431,-0.13729 -0.27128,-0.19838 -0.24067,-0.15162 -0.50784,-0.26649 -0.74605,-0.42728 -0.14086,-0.0951 -0.29635,-0.17516 -0.42389,-0.28994 -0.26534,-0.23882 -0.47682,-0.56418 -0.69517,-0.8393 -0.2479,-0.31235 -0.59122,-0.58567 -0.89864,-0.8393 -0.23901,-0.19718 -0.52608,-0.33727 -0.763,-0.5341 -0.27378,-0.22744 -0.58442,-0.52241 -0.9156,-0.67144 -0.74546,-0.33545 -1.57441,-0.46264 -2.35682,-0.6867 -0.63929,-0.18306 -1.32187,-0.35704 -1.9838,-0.39676 -0.45624,-0.0274 -0.91778,-0.0142 -1.37339,-0.0458 -0.68118,-0.0471 -1.27715,-0.2317 -1.69556,0.42728 -0.0204,0.0321 -0.0733,0.11329 -0.0678,0.1526 0.0222,0.16007 0.42159,0.58893 0.49171,0.77826 0.21451,0.57917 0.50868,0.84949 0.93256,1.28184 0.34527,0.35217 0.60725,0.77818 0.9156,1.15976 0.13111,0.16226 0.32096,0.25808 0.45779,0.41202 0.12804,0.14404 0.24295,0.2962 0.37303,0.44254 0.20197,0.22722 0.75173,0.66151 0.79691,0.94611 0.0308,0.19437 -0.17924,0.27816 -0.27129,0.42728 -0.0559,0.0905 -0.12363,0.15927 -0.18651,0.24416 -0.0403,0.0545 -0.0209,0.12453 -0.0339,0.18312 -0.0305,0.13711 -0.27805,0.29908 -0.38998,0.36624 -0.11802,0.0708 -0.27906,0.0867 -0.40693,0.12208 -0.0132,0.004 -0.61032,0.38143 -0.64431,0.41202 -0.24416,0.21974 -0.46874,0.58628 -0.37303,0.93086 0.038,0.13674 0.14001,0.27017 0.16956,0.41202 0.031,0.14895 -0.013,0.32103 0,0.47306 0.0417,0.48806 0.15347,0.99972 0.37302,1.43443 0.061,0.12072 0.15287,0.29218 0.23738,0.39676 0.0848,0.10493 0.26354,0.14467 0.37302,0.21364 0.0849,0.0535 0.15768,0.1369 0.23738,0.19838 0.14303,0.11034 0.54627,0.2076 0.72908,0.24416 0.15222,0.0305 0.55314,0.003 0.66127,0.061 0.055,0.0297 0.0193,0.0642 0.0509,0.10682 0.0258,0.0349 0.15423,0.0734 0.18651,0.0916 0.0169,0.0102 0.0339,0.0203 0.0509,0.0305 0.006,0.0153 0.004,0.0358 0.017,0.0458 0.0726,0.056 0.23125,0.0655 0.28824,0.13734 0.0304,0.0384 0.14696,0.35097 0.13565,0.3815 -0.0352,0.095 -0.14853,0.1594 -0.20347,0.24416 -0.13496,0.20823 -0.82276,1.35332 -0.23738,1.41918 0.57432,0.0646 1.12401,-0.10305 1.69556,-0.13734 0.17529,-0.0105 0.35111,-0.0109 0.52562,-0.0305 0.0305,-0.003 0.3052,-0.0653 0.3052,-0.061 0,0.15707 -0.32014,0.16156 -0.40694,0.21364 -0.0425,0.0255 -0.0461,0.0911 -0.0848,0.12208 -0.4303,0.34423 -0.78826,0.96153 -1.05125,1.44969 -0.33264,0.61747 -0.74818,1.21869 -0.96646,1.89224 -0.0699,0.21563 -0.12163,0.475 -0.13564,0.70196 -0.0147,0.23855 0.0271,0.46397 -0.017,0.70196 -0.0347,0.18745 -0.0534,0.37611 -0.0848,0.56462 -0.0578,0.34659 -0.16942,0.66876 -0.18651,1.02242 -0.0144,0.29711 -0.0503,0.68873 0.0339,0.97663 0.0267,0.0913 0.0875,0.16959 0.11869,0.25942 0.0994,0.28614 0.15607,0.60763 0.23738,0.90034 0.0912,0.32834 0.14537,0.67252 0.27129,0.9919 0.12983,0.32929 0.30814,0.65076 0.47475,0.96138 0.16664,0.31066 0.27869,0.65005 0.44084,0.96138 0.12551,0.24096 0.23861,0.46229 0.33912,0.71721 0.21505,0.54545 0.45368,1.08673 0.66126,1.63282 0.24457,0.6434 0.38058,1.33063 0.64431,1.96854 0.3692,0.893 0.69022,1.8063 1.01733,2.71627 0.0918,0.25526 0.13425,0.52233 0.22042,0.77826 0.0281,0.0836 0.0769,0.15957 0.10174,0.24416 0.10635,0.36162 0.15551,0.74834 0.25433,1.11398 0.20144,0.74531 0.44043,1.49927 0.57649,2.25847 0.10888,0.60758 -0.0293,-0.11812 0.0339,0.48832 0.0463,0.44442 0.17319,0.88945 0.25433,1.32762 0.0879,0.47464 0.16286,0.97044 0.22042,1.4497 0.0892,0.74212 0.18206,1.49634 0.23738,2.24321 0.0239,0.32303 0.0201,0.65408 0.0509,0.97664 0.0436,0.45803 0.15723,0.91229 0.18651,1.3734 0.0193,0.30375 -0.01,0.61204 0.017,0.9156 0.0152,0.1708 0.0669,0.36082 0.0509,0.5341 -0.0299,0.32318 -0.15096,0.63501 -0.23738,0.94611 -0.0764,0.27513 -0.11098,0.5567 -0.22042,0.82404 -0.0605,0.14768 -0.13789,0.2894 -0.18651,0.44254 -0.10034,0.31608 -0.14027,0.6534 -0.25433,0.96138 -0.0849,0.22922 -0.21391,0.45233 -0.3052,0.67144 -0.0247,0.0593 -0.10423,0.62835 -0.0848,0.6867 0.038,0.11409 0.45506,0.51988 0.55953,0.62566 0.0436,0.0442 0.11285,0.0591 0.1526,0.10682 0.11779,0.14134 0.20569,0.3263 0.32216,0.47306 0.11728,0.14777 0.027,-0.0246 0.10173,0.0763 0.25648,0.34624 0.66002,0.58907 1.00038,0.85455 0.38639,0.30139 0.62059,0.75691 0.98342,1.08346 0.35723,0.32151 0.77472,0.6068 1.20384,0.82404 0.1804,0.0913 0.35991,0.15265 0.52562,0.27468 0.15696,0.11558 0.33688,0.25741 0.47475,0.3815 0.0714,0.0643 0.0791,0.20199 0.13565,0.27468 0.0948,0.12183 0.27116,0.25073 0.38998,0.35098 0.5563,0.46938 1.53568,0.91871 1.89901,1.52599 0.27128,0.45342 -0.26557,0.91746 -0.0509,1.46496 0.2076,0.52939 0.69112,1.49214 0.66126,2.02958 -0.0325,0.5853 -0.87974,1.16557 -1.35644,1.40392 -0.17854,0.0893 -0.39423,0.14784 -0.55953,0.25941 -0.0902,0.0609 -0.16775,0.13777 -0.25433,0.19838 -0.1854,0.12978 0.0105,-0.0797 -0.1526,0.0916 -0.0262,0.0275 -0.0626,0.0539 -0.0678,0.0916 -0.0142,0.10221 0.0378,0.0562 0.0678,0.13734 0.0453,0.12227 0.0302,0.52525 0.0169,0.65618 -0.017,0.16817 -0.086,0.31878 -0.10173,0.48832 -0.0249,0.26894 0,0.55417 0,0.82404 0,0.50464 -0.0448,1.32681 0.22042,1.77016 0.14413,0.24089 0.39808,0.38939 0.59344,0.57988 0.42293,0.41235 0.99123,0.72217 1.57687,0.83929 0.22254,0.0445 0.26856,0.0217 0.50866,0.061 0.35235,0.0577 0.69414,0.17793 1.05125,0.21364 0.3735,0.0374 0.76062,-0.0141 1.13602,0 0.28313,0.0106 0.55175,0.0709 0.83082,0.10682 0.29322,0.0377 0.58767,0.0195 0.88168,0.0305 0.23331,0.009 0.47865,0.04 0.71214,0.0153 0.4745,-0.0502 0.86078,-0.2619 1.30557,-0.41202 0.022,-0.007 0.0486,-0.0282 0.0678,-0.0153 0.0169,0.0114 -0.0135,0.0458 0,0.061 0.025,0.0282 0.4114,0.17268 0.4578,0.18312 0.32796,0.0738 0.78442,0.0728 1.01733,0.36624 0.10144,0.12781 -0.11223,0.10275 0,0.24416 0.043,0.0541 0.31659,0.18541 0.28825,0.27468 -0.0315,0.0991 -0.35626,0.20814 -0.44085,0.2289 -0.59428,0.14587 -1.60948,-0.39154 -2.27204,-0.4578 -0.28699,-0.0287 -0.54268,0.13416 -0.81386,0.19838 -0.26997,0.0639 -0.54978,0.1145 -0.81387,0.19838 -0.4817,0.15301 -0.9432,0.37452 -1.42426,0.51884 -0.19379,0.0581 -0.41066,0.0563 -0.6104,0.0763 -0.15509,0.0155 -0.30327,0.0617 -0.4578,0.0763 -0.30781,0.0292 -0.62307,0.0153 -0.93255,0.0153 -0.13859,0 -0.26266,0.0181 -0.38998,0.061 -0.0503,0.017 -0.10117,0.0326 -0.1526,0.0458 -0.0164,0.004 -0.0678,0 -0.0509,0 0.0168,0 0.16956,-0.0166 0.16956,0.0305 0,0.0495 -0.13105,0.0199 -0.1526,0.0458 -0.0195,0.0234 0.016,0.0656 0,0.0916 -0.0218,0.0354 -0.06,0.0581 -0.0848,0.0916 -0.0432,0.0583 -0.0323,0.16053 -0.0848,0.21364 -0.0505,0.0512 -0.14741,0.0869 -0.20347,0.13734 -0.1706,0.15353 -0.31102,0.32522 -0.49171,0.47306 -0.2922,0.23907 -0.62389,0.4089 -0.89864,0.65618 -0.17225,0.15502 -0.29524,0.32738 -0.4578,0.48832 -0.1136,0.11246 -0.2632,0.19537 -0.37302,0.3052 -0.0247,0.0247 -0.0274,0.0657 -0.0509,0.0916 -0.17571,0.19327 -0.38127,0.37248 -0.54258,0.57987 -0.0429,0.0551 -0.0602,0.12701 -0.10173,0.18312 -0.0736,0.0994 -0.17865,0.16861 -0.25433,0.25942 -0.26698,0.32037 -0.69624,1.30996 -0.77996,1.72438 -0.062,0.30697 -0.16511,0.63541 -0.20346,0.94612 -0.0236,0.19107 -0.0154,0.38818 -0.0509,0.57988 -0.0827,0.44632 -0.24367,0.88022 -0.32216,1.32761 -0.0575,0.32768 -0.0555,0.66269 -0.0848,0.9919 -0.0184,0.20705 -0.0874,0.40642 -0.11869,0.6104 -0.0116,0.0756 -0.0113,0.1526 -0.017,0.2289 -0.0113,0.0814 -0.0203,0.16313 -0.0339,0.24416 -0.13799,0.81964 -0.35822,1.68901 -0.38998,2.5179 -0.0256,0.66809 0.10381,1.35653 0.20347,2.01431 0.0336,0.2217 0.0191,0.4522 0.0509,0.67144 0.0363,0.25023 0.0861,0.51329 0.13564,0.763 0.0549,0.27658 0.19113,0.45874 0.32216,0.70196 0.17855,0.33144 0.36437,0.65968 0.54257,0.9919 0.17176,0.3202 0.35257,0.63356 0.50867,0.96137 0.2159,0.4534 0.36611,0.93442 0.64431,1.35814 0.4362,0.66437 1.09818,1.1383 1.57686,1.77016 0.33582,0.44328 0.5723,0.92577 0.84778,1.40392 0.14526,0.25214 0.33175,0.45924 0.50866,0.68669 0.16258,0.20903 0.29838,0.4425 0.47476,0.64092 0.31342,0.35261 0.64818,0.72071 1.00037,1.03768 0.65853,0.59268 1.86237,1.29875 2.67898,1.63282 0.20329,0.0832 0.43187,0.11323 0.64431,0.16786 0.23918,0.0615 0.47066,0.1806 0.71213,0.2289 0.16842,0.0337 0.33953,0.0535 0.50866,0.0916 0.0571,0.0128 0.11304,0.0305 0.16956,0.0458 0.0622,0.0203 0.12269,0.0467 0.18651,0.061 0.75689,0.1703 1.75871,0.19931 2.52637,0.0458 1.9605,-0.3921 3.84247,-1.14697 5.73097,-1.80068 0.19615,-0.0679 0.42411,-0.10257 0.6104,-0.19838 0.49117,-0.2526 0.93573,-0.5957 1.40731,-0.88508 0.21421,-0.13145 0.4776,-0.21851 0.67822,-0.36624 0.10987,-0.0809 0.1946,-0.17958 0.32215,-0.24416 0.16608,-0.0841 0.1525,-0.0385 0.32216,-0.13734 0.34709,-0.20213 0.66756,-0.47668 0.98342,-0.71721 0.15922,-0.12126 0.36123,-0.19013 0.52562,-0.3052 0.38535,-0.26975 0.72136,-0.60904 1.10211,-0.88508 0.66865,-0.48478 1.32358,-0.95743 1.94988,-1.49548 0.2315,-0.19887 0.47704,-0.41407 0.69518,-0.6104 0.0184,-0.0166 0.0678,-0.006 0.0678,-0.0305 0,-0.12574 -0.34907,0.25312 -0.35606,0.25942 -0.15939,0.14345 -0.8737,0.29586 -1.10211,0.3052 -0.32212,0.0132 -0.63324,-0.0771 -0.94951,-0.12208 -0.19265,-0.0274 -0.38775,-0.0406 -0.57649,-0.0916 -0.22922,-0.0619 -0.46012,-0.1529 -0.69518,-0.18312 -0.32878,-0.0423 -0.68555,-0.0153 -1.01733,-0.0153 -0.57863,0 -1.11457,-0.16984 -1.67859,-0.25942 -0.28413,-0.0451 -0.57834,-0.0629 -0.86474,-0.0916 -0.63619,-0.0636 -1.2785,-0.0838 -1.91597,-0.12208 -0.16305,-0.01 -0.32893,0.0133 -0.49171,0 -0.54713,-0.0448 -1.08511,-0.14387 -1.62773,-0.21364 -0.17161,-0.0221 -0.21958,-0.032 -0.28824,0.0916 -0.0111,0.0199 -0.062,0.0258 -0.0509,0.0458 0.0181,0.0325 0.0723,0.0231 0.10173,0.0458 0.0955,0.0736 -0.1268,0.4881 -0.20346,0.5341 -0.17833,0.10699 -0.9707,0.2542 -1.18689,0.27468 -0.38882,0.0368 -0.90116,0.0441 -1.23775,-0.18312 -0.18779,-0.12675 -0.31348,-0.59478 -0.42389,-0.79352 -0.21494,-0.38688 -0.56707,-0.79373 -0.9156,-1.0682 -0.32385,-0.25502 -0.70992,-0.47206 -1.08515,-0.64091 -0.23171,-0.10427 -0.57915,-0.20237 -0.72909,-0.42728 -0.11558,-0.17337 -0.25563,-0.33189 -0.37302,-0.50358 -0.12758,-0.18658 -0.2425,-0.39207 -0.38998,-0.56462 -0.2722,-0.31847 -0.55408,-0.65759 -0.74604,-1.03768 -0.0994,-0.1968 -0.13127,-0.43298 -0.20347,-0.64092 -0.17865,-0.51451 -0.34803,-1.03608 -0.50866,-1.55652 -0.0836,-0.27073 -0.12191,-0.57837 -0.18652,-0.85455 -0.10794,-0.46148 -0.0501,-0.95153 -0.0848,-1.41918 -0.0207,-0.27958 -0.0728,-0.56382 -0.11869,-0.8393 -0.0247,-0.14806 -0.009,-0.29447 -0.0339,-0.44254 -0.0275,-0.16489 -0.0759,-0.31986 -0.0848,-0.48832 -0.0334,-0.63168 -0.017,-1.27515 -0.017,-1.90749 0,-0.51104 0.0395,-1.04849 -0.0169,-1.55652 -0.0361,-0.32491 -0.13565,-0.66324 -0.13565,-0.9919 0,-0.27279 -0.006,-0.50178 -0.0848,-0.763 -0.009,-0.0306 -0.0515,-0.28994 -0.0339,-0.28994 0.0211,0 0.006,0.0432 0.0169,0.061 0.0267,0.042 0.29972,0.26468 0.35607,0.32046 0.24964,0.24715 0.57559,0.52448 0.6104,0.90034 0.0131,0.14182 -0.0105,0.28524 0,0.42728 0.0293,0.39628 0.0841,0.79361 0.11869,1.19028 0.0853,0.97852 0.17055,1.99647 0.81386,2.79257 0.72706,0.89973 2.31298,1.33109 3.3911,1.73964 0.0512,0.0194 0.10174,0.0407 0.1526,0.061 0.0509,0.0305 0.098,0.0683 0.1526,0.0916 0.21281,0.0907 0.42777,0.14637 0.62736,0.27468 0.17855,0.11478 0.53623,0.33763 0.72909,0.41202 0.42815,0.16514 1.28035,0.23609 1.72946,0.21364 0.41074,-0.0205 0.81231,-0.0853 1.2208,-0.12208 0.31618,-0.0285 0.63407,-0.0154 0.94951,-0.0458 0.66825,-0.0644 1.32075,-0.23206 1.98379,-0.32046 1.02405,-0.13654 2.06119,-0.4113 3.01809,-0.80878 0.12813,-0.0532 0.26376,-0.0958 0.38997,-0.1526 0.21705,-0.0977 0.6417,-0.51238 0.81387,-0.6867 0.0389,-0.0394 0.30976,-0.238 0.27129,-0.28994 -0.0435,-0.0587 -0.0335,0.10197 -0.0509,0.0916 -0.0239,-0.0143 -0.0132,-0.0577 -0.0339,-0.0763 -0.11402,-0.10261 -0.25487,0.10295 -0.35607,0.0916 -0.1525,-0.0172 -0.6448,-0.21672 -0.81386,-0.27468 -0.54942,-0.18837 -1.13704,-0.37062 -1.64469,-0.65618 -0.32463,-0.1826 -0.63723,-0.40742 -0.94951,-0.6104 -0.39737,-0.25829 -1.06545,-0.72803 -1.35644,-1.08345 -0.59105,-0.72193 -0.89629,-1.63764 -1.20384,-2.50264 -0.16792,-0.47227 -0.6296,-0.81686 -0.763,-1.2971 -0.0366,-0.13158 -0.11447,-0.27863 -0.13564,-0.41202 -0.0461,-0.29043 -0.0515,-0.59122 -0.10174,-0.88507 -0.0261,-0.15272 -0.16891,-0.45896 -0.0848,-0.6104 0.0462,-0.0831 0.13377,-0.14756 0.16955,-0.24416 0.0477,-0.12879 0.004,-0.28596 0.0509,-0.41202 0.0513,-0.13858 -0.0491,-0.30777 -0.0678,-0.44254 -0.0394,-0.28406 0.0325,-0.55388 0.10174,-0.82404 0.007,-0.0279 0.0915,-0.29918 0.0678,-0.32046 -0.0344,-0.031 -0.19756,0.0488 -0.23738,0.0458 -0.25251,-0.0189 -0.47081,-0.13155 -0.71213,-0.19838 -0.57169,-0.15831 -1.20107,-0.23678 -1.79728,-0.18312 -0.16253,0.0146 -0.31381,0.084 -0.47476,0.10682 -0.3527,0.0501 -0.71287,0.12479 -1.0682,0.1526 -0.68289,0.0534 -1.35981,-0.1247 -2.0177,-0.28994 -0.53067,-0.13328 -1.03926,-0.32533 -1.55991,-0.48832 -0.0978,-0.0306 -0.59762,-0.21256 -0.71213,-0.18312 -0.1216,0.0313 -0.37395,0.3586 -0.50867,0.4578 -0.10644,0.0784 -0.20437,0.1526 -0.16956,0.1526 0.0239,0 0.12883,-0.0549 0.16956,-0.061 0.24532,-0.0368 0.51245,0.0226 0.763,0 0.59604,-0.0536 1.18749,-0.18931 1.78033,-0.27468 0.85345,-0.12289 1.69943,-0.25201 2.54333,-0.42728 0.71594,-0.14869 1.46615,-0.15668 2.18726,-0.27468 0.18927,-0.031 0.3677,-0.0996 0.55953,-0.12208 0.30354,-0.0356 0.61406,-0.0525 0.9156,-0.10682 0.25269,-0.0455 0.55028,-0.14407 0.81386,-0.0763 0.11444,0.0294 0.19832,0.13503 0.3052,0.18312 0.14884,0.067 0.29529,0.0826 0.42389,0.19838 0.32067,0.28861 0.34278,0.69428 0.59345,1.02242 0.2407,0.31511 1.11171,1.19182 1.15297,1.526 0.0456,0.36948 -0.34544,0.7712 -0.18651,1.23606 0.1044,0.30536 0.33838,0.46603 0.52562,0.70196 0.45417,0.57225 0.94387,0.87352 1.57687,1.23605 0.16974,0.0972 0.39007,0.0967 0.57648,0.1526 0.49871,0.14962 1.03687,0.1914 1.55991,0.16786 0.26687,-0.012 0.56492,-0.0757 0.83082,-0.0458 0.29113,0.0327 0.65993,0.12156 0.93256,0.2289 0.18479,0.0728 0.3484,0.20133 0.52562,0.28994 0.38086,0.19043 0.76684,0.37003 1.13602,0.57988 0.25546,0.14521 0.49117,0.32464 0.74604,0.47306 0.1403,0.0817 0.28243,0.1511 0.42389,0.2289 0.17704,0.0974 0.32877,0.2432 0.50866,0.33572 0.1233,0.0634 0.26493,0.0926 0.38998,0.1526 0.2202,0.1057 0.42527,0.23715 0.64431,0.33572 0.12005,0.054 0.2779,0.13798 0.38998,0.21364 0.0553,0.0373 0.0898,0.0938 0.1526,0.12208 0.3515,0.15817 0.71811,0.26714 1.08515,0.36624 0.17952,0.0485 0.34488,0.12208 0.54258,0.12208 0.0158,0 0.18363,0.003 0.13564,0.061 -0.0202,0.0242 -0.15327,0.0255 -0.18651,0.0305 -0.54483,0.0817 -1.19671,1.31905 -1.55991,1.75489 -0.18813,0.22576 -0.38149,0.48322 -0.59344,0.6867 -0.20945,0.20107 -0.1003,0.0374 -0.28824,0.25942 -0.19749,0.23328 -0.37737,0.48531 -0.57649,0.71722 -0.31221,0.36363 -0.63052,0.70765 -0.86473,1.12924 -0.022,0.0396 -0.0158,0.10464 -0.0339,0.13734 -0.0756,0.13606 -0.11199,0.10719 -0.1526,0.28994 -0.0883,0.39715 -0.34402,0.73181 -0.49171,1.11397 -0.004,0.0104 -0.10765,0.42728 -0.11869,0.42728 -0.0676,0 0.0628,-0.20187 0.0678,-0.2289 0.0508,-0.27448 0.38246,-0.81602 0.54258,-1.06819 0.52089,-0.82041 1.32827,-1.31753 2.03466,-1.95328 0.64654,-0.58189 1.2457,-1.2346 1.86511,-1.84646 0.29162,-0.28807 0.58966,-0.566 0.86473,-0.86982 0.13218,-0.14599 0.24414,-0.3418 0.38997,-0.47305 0.14431,-0.12988 0.37046,-0.17187 0.54258,-0.24416 0.59485,-0.24984 1.15292,-0.60207 1.81424,-0.65618 0.2318,-0.019 0.3,0.12638 0.47476,0.1526 0.19806,0.0297 0.39353,0.0294 0.59344,0.0458 0.0985,0.008 0.20653,0.0521 0.3052,0.0458 0.19196,-0.0123 0.38735,-0.088 0.57649,-0.12208 0.34899,-0.0628 0.70709,-0.0907 1.05124,-0.1526 0.33647,-0.0606 0.67426,-0.18512 1.00038,-0.28994 0.34948,-0.11234 0.7985,-0.15432 1.05124,-0.42728 0.0453,-0.049 0.44041,-0.40874 0.47475,-0.42728 0.13369,-0.0722 0.30794,-0.13981 0.42389,-0.24416 0.27246,-0.24521 0.5418,-0.51653 0.83082,-0.74774 0.41419,-0.33135 0.89096,-0.62087 1.33949,-0.90034 0.21704,-0.13523 0.46187,-0.22831 0.67822,-0.36624 0.52552,-0.33502 0.93472,-0.82047 1.44122,-1.17501 0.37977,-0.26584 0.7694,-0.51306 1.13602,-0.79352 0.3869,-0.29598 0.75703,-0.63555 1.11906,-0.96138 0.13348,-0.12013 0.1966,-0.21144 0.33911,-0.32046 0.63582,-0.4864 1.38492,-0.79876 2.03467,-1.26658 0.55164,-0.39718 0.90012,-0.95941 1.06819,-1.60229 0.0627,-0.23967 -0.006,-0.53829 0.0848,-0.763 0.0285,-0.0704 0.0967,-0.11794 0.13565,-0.18312 0.14201,-0.23737 0.29467,-0.49211 0.4578,-0.71722 0.18411,-0.25407 0.10953,-0.0851 0.30519,-0.3052 0.21772,-0.24493 0.44886,-0.49187 0.64431,-0.74774 0.14057,-0.18401 0.34191,-0.31305 0.49171,-0.48832 0.097,-0.11348 0.17211,-0.25912 0.27129,-0.36624 0.15337,-0.16563 0.38101,-0.26286 0.55954,-0.39676 0.12931,-0.097 0.26838,-0.23977 0.40693,-0.32046 0.41621,-0.24238 -0.0503,0.0994 0.3052,-0.12208 0.21378,-0.1332 0.3624,-0.28135 0.62735,-0.3052 0.50538,-0.0455 0.83676,0.0312 1.3734,-0.10682 0.17242,-0.0443 0.19247,-0.01 0.35607,-0.0763 0.3089,-0.1251 0.56346,-0.28333 0.84777,-0.45779 0.20707,-0.12707 0.42011,-0.22581 0.6104,-0.3815 0.29356,-0.24019 0.5815,-0.491 0.89864,-0.70196 0.45105,-0.30004 0.94953,-0.52672 1.39036,-0.8393 0.97835,-0.69375 1.94065,-1.41087 2.83157,-2.2127 0.10248,-0.0922 0.22234,-0.1643 0.32215,-0.25942 0.88048,-0.83903 1.57626,-1.86386 2.42464,-2.73153 0.29879,-0.30558 0.64606,-0.54441 0.96647,-0.82404 0.18854,-0.16454 0.35411,-0.35421 0.54257,-0.51884 1.05405,-0.92074 2.18246,-1.80605 3.06895,-2.89939 0.28218,-0.34802 0.56925,-0.7033 0.83082,-1.0682 0.19998,-0.27897 0.10317,-0.21614 0.32216,-0.48832 0.17671,-0.21963 0.35841,-0.42686 0.52562,-0.65618 0.26954,-0.36965 0.51733,-0.74901 0.81387,-1.09872 0.42763,-0.5043 0.89507,-0.97862 1.37339,-1.43443 0.34241,-0.3263 0.72458,-0.61661 1.03429,-0.97664 0.34869,-0.40535 0.68977,-0.88037 0.98342,-1.32762 0.19703,-0.30008 0.37826,-0.62269 0.55953,-0.93086 0.0809,-0.13744 0.0887,-0.28354 0.1526,-0.42728 0.0753,-0.16934 0.18271,-0.29834 0.27129,-0.4578 0.1757,-0.31626 0.25023,-0.66247 0.4578,-0.96137 0.2681,-0.38606 0.61431,-0.7245 0.93255,-1.0682 0.17856,-0.19284 0.41092,-0.32916 0.52563,-0.57988 0.35584,-0.77778 0.22641,-1.6228 0.16955,-2.4416 -0.045,-0.64858 0.0848,-1.29111 0.0848,-1.93801 0,-0.10682 0.0124,-0.21437 0,-0.32046 -0.0331,-0.28286 -0.19717,-0.65866 0.017,-0.9156 0.51367,-0.6164 1.1778,-1.18065 1.89902,-1.54126 0.82458,-0.41229 2.19005,-0.96161 2.61115,-1.86171 0.12999,-0.27784 0.0905,-0.53196 0.11869,-0.82404 0.0222,-0.2299 0.0563,-0.13407 0.0339,-0.36624 -0.0218,-0.22622 -0.10182,-0.4438 -0.11869,-0.67144 -0.0219,-0.29554 -0.0546,-0.60286 -0.0339,-0.90034 0.0119,-0.17124 0.0752,-0.33638 0.10174,-0.50358 0.0173,-0.109 -0.0539,-0.34561 0,-0.44254 0.0491,-0.0884 0.23641,0.18649 0.28824,0.2289 0.21761,0.17804 0.5495,0.2756 0.81386,0.36624 0.71431,0.24491 1.7241,0.20189 2.49247,0.27468 0.60202,0.057 1.22413,0.14692 1.83119,0.12208 0.47437,-0.0194 0.96027,-0.14925 1.42427,-0.24416 0.28662,-0.0586 0.59033,-0.0605 0.88168,-0.10682 0.51317,-0.0815 1.03926,0.12129 1.526,-0.12208 0.40759,-0.20379 0.60941,-0.72755 0.89864,-1.05294 0.38163,-0.42932 0.82384,-0.80752 1.11907,-1.31235 0.14854,-0.25401 0.2239,-0.55445 0.33911,-0.82404 0.0504,-0.11792 0.15753,-0.22252 0.22042,-0.33572 0.0549,-0.0989 0.0777,-0.22354 0.13565,-0.32046 0.13211,-0.22082 0.25058,-0.45251 0.4124,-0.65259 0.0518,-0.064 0.14002,-0.0871 0.21381,-0.12369 0.0366,-0.0181 0.048,0.0324 0.0719,-0.0324 0.0397,-0.10729 -0.0182,-0.2637 0.012,-0.37766 0.0694,-0.26244 0.22416,-0.47363 0.27576,-0.74454 0.0567,-0.29796 0.0538,-0.59707 0.0839,-0.89561 0.008,-0.0838 0.032,-0.16545 0.048,-0.24818 0.008,-0.0899 0.016,-0.17984 0.32123,-0.5234 0.12537,-0.63849 -0.60999,-1.02106 -0.77663,-1.40821 -0.0526,-0.12231 -0.0187,-0.27202 -0.0839,-0.39924 -0.11681,-0.22777 -0.57486,-0.97716 -0.7913,-1.133 -0.6529,-0.47008 -1.68387,-0.70911 -2.46981,-0.7877 -0.35929,-0.0359 -1.26984,-0.0838 -1.55862,0.0647 -0.0974,0.0501 -0.13423,0.14078 -0.2158,0.20502 -0.27008,0.21269 -0.62751,0.27629 -0.89921,0.49636 -0.13627,0.11038 -0.27951,0.28474 -0.43161,0.36688 -0.37158,0.20064 -0.77251,0.26947 -1.16297,0.41003 -0.33084,0.1191 -0.55866,0.33815 -0.93517,0.44241 -0.17098,0.0474 -0.4313,0.35083 -0.46759,0.3345 -0.0218,-0.0393 -0.0174,-0.0483 -0.0599,-0.0647 -0.23189,-0.0894 -0.50094,-0.1765 -0.75533,-0.15106 -0.0854,0.009 -0.14955,0.0505 -0.23978,0.0432 -0.4653,-0.0381 -0.90213,0.049 -1.36679,0.11869 -0.20465,0.0307 -0.98405,0.0761 -1.127,0.16186 -0.0731,0.0438 -0.0676,0.13228 -0.11989,0.17264 -0.12474,0.0962 -0.30444,0.13565 -0.43162,0.23739 -0.13904,0.11123 -0.23144,0.26548 -0.37167,0.37767 -0.11648,0.0932 -0.25483,0.15617 -0.37167,0.24818 -0.26931,0.21208 -0.16481,0.44236 -0.31173,0.59347 -0.0756,0.0778 -0.19719,0.11086 -0.26376,0.20502 -0.09,0.12728 -0.21072,0.27139 -0.28775,0.41004 -0.0664,0.11954 -0.10129,0.26658 -0.17984,0.37766 -0.14637,0.20702 -0.40798,0.39217 -0.49156,0.63664 -0.10782,0.31536 0.0264,0.39482 0.0599,0.63663 0.0225,0.1621 -0.053,0.26763 -0.0719,0.42083 -0.004,0.0318 0.0207,0.16019 0,0.18344 -0.0364,0.041 -0.0892,-0.0124 -0.11989,-0.0216 -0.23412,-0.0702 -0.79882,-0.0108 -1.04308,-0.0108 -0.62773,0 -1.25478,-0.0108 -1.88233,-0.0108 -0.19651,0 -0.59707,-0.0547 -0.77931,0 -0.0546,0.0164 -0.4306,0.44786 -0.51554,0.51794 -0.22036,0.18179 -0.53672,0.2722 -0.71936,0.49636 -0.20745,0.25459 -0.36316,0.59442 -0.4556,0.90639 -0.0471,0.15896 -0.0533,0.27156 -0.15586,0.41004 -0.0805,0.10861 -0.0398,0.0292 -0.15586,0.11869 -0.27292,0.21054 -0.56803,0.42266 -0.7913,0.69059 -0.26842,0.3221 -0.43844,0.72887 -0.71936,1.03588 -0.19835,0.21676 -0.40445,0.43953 -0.62345,0.63664 -0.16863,0.15177 -0.38342,0.27633 -0.52753,0.45319 -0.33308,0.40879 -0.58596,0.91968 -0.82727,1.38118 -0.0617,0.11808 -0.17433,0.21529 -0.25177,0.32371 -0.24503,0.34304 -0.54367,0.65487 -0.76732,1.0143 -0.40403,0.64932 -0.53899,1.42159 -0.6834,2.15809 -0.0216,0.11014 -0.0103,0.22439 -0.048,0.3345 -0.0978,0.28616 -0.43057,0.76517 -0.65942,0.97114 -0.30039,0.27035 -1.07782,0.54065 -1.4627,0.72296 -0.32481,0.15386 -0.60816,0.39387 -0.91119,0.58268 -0.35516,0.22129 -0.74686,0.36338 -1.09104,0.61506 -0.53125,0.38847 -0.96786,0.89017 -1.48668,1.29485 -0.26295,0.2051 -0.60737,0.36856 -0.82726,0.62584 -0.21403,0.25041 -0.31513,0.58575 -0.5635,0.80929 -0.41038,0.36933 -0.85758,0.70643 -1.2469,1.10062 -0.33457,0.33876 -0.53795,0.79339 -0.82726,1.16537 -0.41907,0.5388 -0.85128,1.06983 -1.2469,1.62935 -0.40331,0.5704 -0.99448,1.0064 -1.4627,1.52145 -0.18443,0.20287 -0.38249,0.40063 -0.5635,0.60426 -0.18403,0.20704 -0.33104,0.42987 -0.55151,0.61506 -0.30753,0.25832 -0.65174,0.47914 -0.93517,0.76612 -0.12317,0.12471 -0.23461,0.26565 -0.35968,0.38845 -0.14442,0.1418 -0.33413,0.26764 -0.4556,0.43162 -0.17492,0.23615 -0.39899,0.50439 -0.63544,0.69059 -0.0591,0.0465 -0.13729,0.048 -0.19183,0.0971 -0.26567,0.23911 -0.57535,0.4315 -0.83925,0.66901 -0.0886,0.0797 -0.0353,0.21525 -0.13188,0.30213 -0.0411,0.037 -0.12061,0.0599 -0.16786,0.0971 -0.17309,0.13631 -0.3324,0.27229 -0.52753,0.37766 -0.41404,0.22358 -0.90934,0.13956 -1.33082,0.30213 -0.15631,0.0603 -0.28668,0.21018 -0.45559,0.24818 -0.0416,0.009 -0.0906,-0.0106 -0.13189,0 -0.1493,0.0384 -0.28808,0.0907 -0.4436,0.1187 -0.19282,0.0347 -0.39587,0.0324 -0.58748,0.0755 -0.12446,0.028 -0.20378,0.0755 -0.3357,0.0755 -0.10201,0 -0.13574,0.10444 -0.14388,0.0971 -0.0178,-0.0161 0.54754,-0.48835 0.57549,-0.51794 0.55869,-0.59155 0.96436,-1.27119 1.37878,-1.96386 0.56746,-0.94847 1.12126,-1.90356 1.71448,-2.83788 0.153,-0.24097 0.24974,-0.51848 0.40764,-0.75533 0.12227,-0.18341 0.26065,-0.35714 0.37167,-0.55032 0.18544,-0.32267 0.31932,-0.68407 0.52753,-0.99272 0.42546,-0.63068 0.90779,-1.21298 1.27087,-1.88832 0.17535,-0.32615 0.34842,-0.64873 0.52754,-0.97114 0.073,-0.13149 0.145,-0.3045 0.23978,-0.42083 0.23866,-0.2929 0.55833,-0.52612 0.80329,-0.82007 0.26377,-0.31652 0.4303,-0.6962 0.69538,-1.0143 0.15687,-0.18824 0.60032,-0.60656 0.67141,-0.79849 0.0356,-0.0962 0.0377,-0.19767 0.0839,-0.29134 0.13521,-0.27379 0.30138,-0.50031 0.33571,-0.80928 0.0115,-0.10372 -0.048,-0.20097 -0.048,-0.30214 0,-0.0624 0.0382,-0.13302 0.048,-0.19422 0.0331,-0.20846 -0.036,-0.42097 -0.036,-0.62585 0,-0.2618 0.29,-1.42199 0.4436,-1.62935 0.34062,-0.45983 0.50007,-1.01882 0.77931,-1.52145 0.17967,-0.3234 0.44895,-0.59188 0.62345,-0.91719 0.19885,-0.37071 0.38078,-0.75963 0.55151,-1.14379 0.0171,-0.0385 0.0499,-0.1654 0.0719,-0.20501 0.15884,-0.28592 0.32907,-0.48695 0.38366,-0.83087 0.0898,-0.56567 -0.0891,-1.10185 -0.10791,-1.66172 -0.0122,-0.36082 -0.0132,-0.71888 -0.048,-1.07905 -0.0466,-0.48208 -0.21051,-0.92436 -0.34769,-1.38117 -0.21768,-0.7249 0.13015,0.29241 -0.0719,-0.36688 -0.0578,-0.18865 -0.13348,-0.36829 -0.20382,-0.55031 -0.0506,-0.13087 -0.0448,-0.29529 -0.0599,-0.43161 -0.0308,-0.27754 -0.0689,-0.58269 -0.14387,-0.85245 -0.0999,-0.35957 -0.30652,-0.68571 -0.39565,-1.04667 -0.0776,-0.31423 -0.14091,-0.62392 -0.26377,-0.92798 -0.14807,-0.36648 -0.38762,-0.75882 -0.49156,-1.13299 -0.0908,-0.3268 -0.19061,-0.65059 -0.28775,-0.97114 -0.0713,-0.23517 -0.0841,-0.50405 -0.17984,-0.73375 -0.27365,-0.65676 -0.81333,-1.17023 -1.25888,-1.70489 -0.22511,-0.27013 -0.38021,-0.63199 -0.6714,-0.84165 -0.0962,-0.0693 -0.19609,-0.19488 -0.29974,-0.24818 -0.10509,-0.054 -0.3796,-0.022 -0.49156,-0.0108 -0.0392,0.004 -0.13094,0.0755 -0.14387,0.0755 -0.0192,0 -0.11065,-0.0782 -0.14388,-0.0863 -0.12024,-0.0295 -0.22828,-0.0778 -0.34769,-0.1187 -0.49575,-0.16997 -0.97562,-0.33994 -1.45071,-0.5611 -0.23775,-0.11067 -0.75876,-0.33298 -0.86324,-0.61505 -0.0889,-0.24001 0.10154,-0.37295 0.16786,-0.5719 0.032,-0.096 0.036,-0.27424 0.036,-0.37766 0,-0.29907 -0.0557,-0.59439 -0.036,-0.89561 0.0131,-0.20018 0.0954,-0.40755 0.13188,-0.60426 0.0847,-0.45745 0.0908,-0.94093 0.13188,-1.40276 0.0396,-0.44569 -0.0236,-0.9018 0,-1.3488 0.0125,-0.23584 0.0752,-0.4504 0.06,-0.69059 -0.0205,-0.32251 -0.0225,-0.0951 -0.0839,-0.44241 -0.093,-0.52598 -0.17992,-1.05799 -0.26376,-1.58619 -0.0437,-0.27546 0.0425,-0.49026 0.0719,-0.75533 0.0288,-0.25952 0.0236,-0.5593 0.012,-0.82007 -0.0264,-0.59465 -0.17133,-1.38248 -0.3357,-1.95307 -0.0525,-0.18237 -0.12509,-0.36558 -0.16785,-0.55031 -0.0664,-0.28688 -0.10689,-0.58294 -0.19183,-0.86323 -0.0866,-0.2858 -0.33151,-0.53047 -0.4556,-0.7985 -0.0489,-0.10564 -0.0438,-0.22735 -0.0959,-0.3345 -0.0551,-0.11325 -0.13932,-0.19893 -0.20382,-0.30213 -0.26071,-0.41714 -0.45054,-0.89154 -0.65942,-1.33802 -0.0832,-0.17792 -0.21403,-0.33361 -0.29973,-0.50715 -0.0315,-0.0638 -0.0352,-0.13824 -0.06,-0.20501 -0.12826,-0.3463 -0.27186,-0.67189 -0.34769,-1.03588 -0.13322,-0.63949 0.0151,-0.93913 0.17984,-1.53225 0.0369,-0.13271 0.0399,-0.30372 0.0599,-0.4424 0.15959,-1.10121 -0.15865,-2.24649 -0.7913,-3.15081 -0.24466,-0.34972 -0.47018,-0.71247 -0.70737,-1.06825 -0.24707,-0.3706 -0.53559,-0.71259 -0.80329,-1.06825 -0.19047,-0.25305 -0.36257,-0.51964 -0.58748,-0.74454 -0.34992,-0.34993 -0.76733,-0.66471 -1.16297,-0.94956 -0.28092,-0.20226 -0.90342,-0.3472 -1.2349,-0.49636 -0.48603,-0.218712 -0.98916,-0.473921 -1.49867,-0.636636 -0.57667,-0.184161 -1.16656,-0.309863 -1.76244,-0.399246 -0.68742,-0.103113 -1.41659,0.07083 -2.03819,-0.302132 -0.0296,-0.01774 -0.21495,-0.24143 -0.23979,-0.280551 -0.0545,-0.08578 -0.0335,-0.224339 -0.11989,-0.302132 -0.0246,-0.02213 -0.16875,-0.139464 -0.10791,-0.194227 0.0225,-0.02028 0.13341,0.0039 0.14388,-0.04316 0.002,-0.0083 -0.12181,-0.09664 -0.13189,-0.151066 -0.0115,-0.06231 0.0978,-0.110671 0.0719,-0.172647 -0.0919,-0.22051 -0.34887,-0.619786 -0.2278,-0.874025 0.0948,-0.199072 0.30028,-0.358034 0.35968,-0.571893 0.011,-0.0395 -0.006,-0.08888 0,-0.129485 0.0276,-0.173686 0.32953,-0.806395 0.4556,-0.938767 0.58716,-0.616523 1.10443,-1.310423 1.70249,-1.931487 0.28035,-0.291134 0.54385,-0.59704 0.81527,-0.895605 0.19767,-0.217437 0.41689,-0.417099 0.57549,-0.669007 0.19163,-0.30435 0.258,-0.627844 0.37167,-0.960348 0.13956,-0.40821 0.37753,-0.806278 0.55152,-1.197738 0.28062,-0.631416 0.6624,-1.279998 1.09103,-1.823582 0.21075,-0.267272 0.45053,-0.5077 0.6714,-0.766121 0.12574,-0.147107 0.21192,-0.310975 0.31173,-0.474779 0.16501,-0.270811 0.40461,-0.557632 0.63543,-0.776911 0.50182,-0.47673 1.25706,-0.596522 1.89432,-0.787701 0.60958,-0.182872 1.19372,-0.417018 1.76244,-0.701378 0.91837,-0.459188 1.30087,-1.003952 1.94228,-1.75884 0.53326,-0.627613 1.00307,-1.287585 1.40275,-2.007019 0.13135,-0.236434 0.32284,-0.435245 0.44361,-0.679797 0.20702,-0.419221 0.44888,-1.10276 0.55151,-1.564613 0.0207,-0.09298 0.021,-0.20234 0.048,-0.291341 0.0589,-0.19436 0.23825,-0.364119 0.3357,-0.539522 0.13122,-0.236205 0.16846,-0.528612 0.27575,-0.776911 0.1506,-0.348532 0.41835,-0.630179 0.64743,-0.927976 0.27263,-0.354424 0.4974,-0.818256 0.61146,-1.25169 0.0934,-0.354947 0.11496,-0.720384 0.17984,-1.079043 0.10828,-0.598669 0.31942,-1.19816 0.55151,-1.75884 0.32404,-0.782814 0.82318,-1.486886 1.19894,-2.244409 0.50748,-1.023089 0.8807,-2.120441 1.19893,-3.215548 0.12971,-0.446352 0.21696,-0.897991 0.32371,-1.348804 0.15019,-0.634264 0.3577,-1.257202 0.58748,-1.866744 0.36201,-0.960257 0.78081,-1.905994 1.18695,-2.848673 0.14903,-0.345911 0.32459,-0.682172 0.4556,-1.035881 0.18428,-0.497573 0.3735,-1.002379 0.52753,-1.51066 0.0564,-0.186255 0.12563,-0.381897 0.16785,-0.571893 0.004,-0.01593 -0.0134,-0.117443 0,-0.129485 0.0207,-0.01865 0.0575,0.0067 0.048,0.03237 -0.0188,0.05063 -0.18793,0.06738 -0.048,0.161856 0.12023,0.08116 0.30745,0.143791 0.43162,0.215809 0.62715,0.363751 1.22331,0.661787 1.94227,0.798492 0.60016,0.114114 1.25628,0.212055 1.87035,0.194227 0.40167,-0.01166 0.53293,-0.17599 0.97113,-0.09711 0.22684,0.04083 0.43763,0.123089 0.65942,0.183437 1.3773,0.374753 2.71172,0.888026 4.11235,1.176157 0.93476,0.192293 1.72481,-0.132703 2.66164,-0.107905 0.71167,0.01884 1.40303,0.280527 2.12212,0.215809 0.14574,-0.01312 0.43309,-0.370559 0.52753,-0.453198 0.39909,-0.349204 0.80297,-0.716384 1.2349,-1.025091 0.41948,-0.299798 0.88111,-0.537807 1.28287,-0.863234 0.27367,-0.221676 0.54608,-0.449841 0.80328,-0.690588 0.37218,-0.348354 0.69925,-0.738391 1.09104,-1.068252 0.36858,-0.310324 0.76997,-0.575604 1.13899,-0.884815 0.91034,-0.762807 1.65864,-1.726547 2.64965,-2.395476 0.74508,-0.502934 1.72042,-0.733975 2.57771,-0.949557 1.33489,-0.335686 2.63338,-0.58294 4.01644,-0.561103 1.38574,0.02188 2.76909,0.355286 4.16031,0.258971 0.36521,-0.02528 0.72134,-0.08869 1.07904,-0.161857 0.0966,-0.01976 0.23176,-0.04494 0.32371,-0.08632 0.0273,-0.01231 0.0839,-0.06236 0.0839,-0.03237 0,0.0028 -0.0984,0.0065 -0.012,-0.03237 0.0676,-0.03044 0.19438,-0.03768 0.26377,-0.06474 0.30983,-0.120835 0.64918,-0.28161 0.93517,-0.453198 0.0256,-0.01534 0.0217,-0.06136 0.048,-0.07553 0.0795,-0.04294 0.24928,-0.06901 0.33571,-0.107905 0.0592,-0.02666 0.77514,-0.402074 0.79129,-0.474778 0.0172,-0.07732 -0.13498,0.172273 -0.13188,0.183437 0.11101,0.399645 0.20643,0.572964 0.16785,1.035881 -0.0721,0.865513 -0.61308,1.8818 -0.95915,2.676026 -0.26251,0.602457 -0.55056,1.220633 -0.75533,1.845164 -0.13945,0.425317 -0.20613,0.881992 -0.31172,1.316432 -0.17927,0.737569 -0.40623,1.563937 -0.29974,2.330733 0.0177,0.127606 0.23376,1.159936 0.32372,1.240899 0.0258,0.02326 0.046,-0.05245 0.13188,0.01079 0.60821,0.447859 1.49452,0.526399 2.19405,0.226599 0.28663,-0.122838 0.56372,-0.345845 0.87523,-0.399246 0.31549,-0.05408 0.65254,-0.04576 0.97114,-0.05395 0.5963,-0.01533 1.21229,-0.03238 1.7984,-0.151067 0.68578,-0.138869 1.21043,-0.571653 1.82239,-0.863234 0.23858,-0.113677 0.50259,-0.161425 0.74334,-0.269761 0.12022,-0.0541 0.22079,-0.1381 0.3357,-0.205018 0.20858,-0.121466 0.435,-0.204781 0.65941,-0.291341 0.41113,-0.158578 0.8559,-0.237485 1.23491,-0.474779 0.4899,-0.306721 0.86673,-0.764294 1.24689,-1.186947 0.59938,-0.666371 1.06027,-1.101848 1.3548,-1.985439 0.0922,-0.276575 0.0838,-0.571221 0.14387,-0.852444 0.053,-0.247919 0.098,-0.505454 0.15586,-0.75533 0.21775,-0.940672 0.64743,-1.831235 0.64743,-2.816302 0,-0.212405 -0.0812,-0.423025 -0.13188,-0.625845 -0.11832,-0.473267 -0.26327,-0.937156 -0.40764,-1.402756 -0.10488,-0.338238 -0.24105,-0.673541 -0.3357,-1.0143 -0.10002,-0.360047 -0.17859,-0.742286 -0.35968,-1.068253 -0.0587,-0.105614 -0.64123,-0.239218 -0.80329,-0.345293 -0.70772,-0.463232 -1.4696,-0.853474 -2.13411,-1.381175 -0.18916,-0.150213 -0.40322,-0.271051 -0.57549,-0.442408 -0.59225,-0.58913 -1.19272,-1.183949 -1.6905,-1.855954 -0.49855,-0.673049 -0.78022,-1.474334 -1.31883,-2.125714 -0.54377,-0.657625 -1.28579,-0.975403 -1.95427,-1.456708 -0.21699,-0.156237 -0.66443,-0.684817 -0.87522,-0.76612 -0.13536,-0.05221 -0.19739,0.260804 -0.23979,0.345293 -0.10565,0.210553 -0.25606,0.433192 -0.29973,0.669007 -0.0198,0.107021 0.0236,0.228304 0,0.334503 -0.0431,0.194178 -0.12986,0.371432 -0.21581,0.550312 -0.32801,0.682681 -0.76089,1.308023 -1.10302,1.985439 -0.14362,0.284362 -0.26973,0.876019 -0.52753,1.079043 -0.39608,0.311906 -0.9999,0.329952 -1.4747,0.399246 -0.0862,0.01258 -0.9183,0.185611 -0.98312,0.172647 -0.0814,-0.01627 -0.16608,-0.06956 -0.25178,-0.08632 -0.22268,-0.04357 -0.77691,-0.07985 -0.95915,-0.161856 -0.35284,-0.158777 -0.70972,-0.323937 -1.10302,-0.410037 -0.46486,-0.101766 -0.93419,-0.134732 -1.40276,-0.205018 -0.29547,-0.04432 -0.59247,-0.128173 -0.88721,-0.183437 -0.57931,-0.108621 -1.17053,-0.10724 -1.75045,-0.194228 -0.69915,-0.104872 -1.39202,-0.208654 -2.09814,-0.26976 -0.66652,-0.05768 -1.36814,-0.07908 -2.03819,-0.05395 -0.39996,0.015 -0.78241,0.0976 -1.18695,0.07553 -0.65238,-0.03558 -1.29354,-0.161856 -1.95426,-0.161856 -0.26775,0 -0.52761,0.05468 -0.7913,0.08632 -0.53129,0.06376 -1.09707,0.09513 -1.63055,0.07553 -1.49636,-0.05497 -2.9761,-0.323246 -4.47204,-0.356084 -1.00079,-0.02197 -1.9879,0.03136 -2.98535,0.08632 -0.7949,0.0438 -1.59475,0.04138 -2.38588,0.140275 -0.54849,0.06856 -1.07056,0.283643 -1.61857,0.345294 -1.20736,0.135829 -2.42546,0.160181 -3.62079,0.399246 -0.28613,0.05723 -0.56897,0.163851 -0.85124,0.237389 -0.26283,0.06847 -0.53089,0.116104 -0.7913,0.194228 -0.51362,0.154086 -1.01894,0.346202 -1.53464,0.49636 -0.45461,0.132371 -0.90827,0.292133 -1.36679,0.410036 -0.21264,0.05468 -0.43173,0.09716 -0.63543,0.183437 -0.16712,0.07078 -0.28443,0.208922 -0.44361,0.280551 -0.54465,0.245095 -1.07233,0.53453 -1.60657,0.809283 -0.20321,0.104506 -0.42746,0.184535 -0.62345,0.302132 -0.45057,0.27034 -0.89451,0.547651 -1.39077,0.733749 -0.65684,0.246316 -1.42272,0.312226 -2.11012,0.431617 -0.44028,0.07647 -0.87455,0.171717 -1.31884,0.226599 -0.4517,0.0558 -0.92664,0.07992 -1.36678,0.205018 -0.1892,0.05377 -0.37056,0.145388 -0.5635,0.194228 -0.73306,0.185555 -1.45796,0.293417 -2.15809,0.593473 -0.22453,0.09623 -0.38909,0.276128 -0.58748,0.410037 -0.203,0.137028 -0.4388,0.250218 -0.63543,0.399246 -0.5237,0.396906 -1.07277,0.944521 -1.31883,1.564612 -0.15189,0.382753 -0.15185,0.791199 -0.23979,1.186947 -0.0575,0.258691 -0.13877,0.510551 -0.23979,0.75533 -0.41697,1.010343 -1.20322,2.014072 -1.90631,2.837883 -0.34512,0.404373 -0.71556,0.788612 -1.05506,1.197737 -0.48116,0.579838 -0.92268,1.186387 -1.42674,1.74805 -0.8634,0.962072 -1.82968,1.823337 -2.67363,2.805512 -0.8815,1.025893 -1.69319,2.109397 -2.54174,3.161595 -0.64469,0.799414 -1.32746,1.571296 -1.95427,2.384685 -0.38392,0.498211 -0.70974,1.040157 -1.05506,1.564612 -0.78435,1.191225 -1.61551,2.240382 -2.30196,3.50689 -0.10785,0.198988 -0.23384,0.396272 -0.32371,0.604264 -0.0494,0.114391 -0.0473,0.242376 -0.0959,0.356084 -0.0909,0.212807 -0.23695,0.404732 -0.31172,0.625845 -0.27782,0.821542 0.67191,1.073172 1.22291,1.391965 0.19616,0.11349 0.36741,0.264211 0.5635,0.377665 0.35616,0.206064 0.75334,0.411567 1.06706,0.679797 0.40143,0.343223 0.78041,0.997494 0.8992,1.51066 0.17882,0.772503 -0.45162,1.662009 -0.92318,2.222828 -0.16775,0.1995 -0.36013,0.372873 -0.51554,0.582684 -0.24371,0.329 -0.45435,0.684184 -0.69539,1.0143 -0.20289,0.277876 -0.4374,0.540634 -0.62344,0.830863 -0.19796,0.308806 -0.37382,0.620005 -0.58748,0.917186 -0.21588,0.30027 -0.50033,0.55798 -0.55151,0.949558 -0.0201,0.154062 0.0294,0.211744 0.048,0.345294 0.004,0.0266 -0.0398,0.03915 -0.048,0.06474 -0.007,0.02092 0.01,0.06474 -0.012,0.06474 -0.12785,0 0.0569,-0.326398 0.0599,-0.345294 0.0376,-0.236712 -0.0668,-0.56608 -0.0599,-0.820072 0.0132,-0.486731 0.1296,-0.953525 0.19183,-1.435127 0.0876,-0.678249 0.1331,-1.543841 0.0719,-2.222829 -0.0241,-0.267746 -0.0725,-0.531286 -0.0959,-0.798491 -0.0583,-0.664054 -0.0558,-1.37397 -0.23979,-2.017811 -0.16525,-0.578375 -0.52905,-1.073806 -0.82727,-1.586193 -0.6453,-1.10875 -1.14797,-2.026411 -2.40986,-2.578912 -0.33285,-0.145735 -0.69632,-0.248651 -1.01909,-0.410036 -0.16678,-0.08339 -0.33412,-0.17435 -0.51555,-0.2266 -0.25552,-0.07359 -0.50993,-0.172527 -0.76732,-0.237389 -0.48865,-0.123142 -0.81971,-0.149389 -1.13899,-0.593474 -0.3301,-0.459139 -0.036,-1.431635 -0.036,-1.963858 0,-0.390123 0.21568,-0.744189 0.34769,-1.100623 0.22685,-0.612514 0.27373,-1.368716 0.13188,-2.00702 -0.16687,-0.750926 -0.47494,-1.159935 -0.8992,-1.780421 -0.35054,-0.512669 -0.67372,-0.997784 -1.21093,-1.338013 -0.59379,-0.376067 -1.75731,-0.664491 -2.4818,-0.776911 -0.7239,-0.112331 -1.4647,-0.151243 -2.19405,-0.215809 -0.40885,-0.03619 -0.83753,-0.05885 -1.2349,-0.172646 -0.27563,-0.07893 -0.52735,-0.200101 -0.76732,-0.356085 -0.19704,-0.128073 -0.3568,-0.31793 -0.5635,-0.431617 -0.57545,-0.316497 -1.2113,-0.472219 -1.82239,-0.701378 -0.1514,-0.05678 -0.73399,-0.286886 -0.80329,-0.453198 -0.11889,-0.28534 0.45956,-0.965984 0.59947,-1.165366 0.27356,-0.389813 0.50443,-0.801132 0.73135,-1.219318 0.30617,-0.564223 0.43976,-1.205066 0.93518,-1.650936 0.36622,-0.3296 0.77522,-0.624926 1.16296,-0.927977 0.49533,-0.387134 0.97861,-0.789196 1.49867,-1.143785 0.41421,-0.282412 0.86141,-0.559455 1.23491,-0.895606 0.18642,-0.167775 0.27752,-0.420894 0.43162,-0.615055 0.17495,-0.220444 0.37214,-0.422617 0.51554,-0.669006 0.27079,-0.465263 0.42062,-1.021176 0.57549,-1.532241 0.0574,-0.18957 0.15352,-0.363458 0.21581,-0.550312 0.16858,-0.505745 0.32371,-1.114799 0.32371,-1.650936 0,-0.253922 -0.0929,-0.477097 -0.13188,-0.722958 -0.11013,-0.693825 -0.13963,-1.009989 -0.88722,-1.273271 -0.38272,-0.134786 -0.78594,-0.199371 -1.17495,-0.312922 -0.77786,-0.227051 -1.51335,-0.525395 -2.31395,-0.679797 -0.57126,-0.110171 -1.15239,-0.126728 -1.72647,-0.215809 -0.52906,-0.0821 -1.0474,-0.213505 -1.57061,-0.323713 -0.75269,-0.158545 -1.51197,-0.280813 -2.26599,-0.431617 -0.23292,-0.04659 -0.47732,-0.0961 -0.69538,-0.194228 -0.26438,-0.118972 -0.15618,-0.216384 -0.15586,-0.215808 0.008,0.01492 -0.079,0.0743 -0.0599,0.09711 0.0105,0.01259 0.048,0.02717 0.048,0.01079 0,-0.02727 -0.30664,-0.143718 -0.32371,-0.151066 -0.20974,-0.09028 -0.41946,-0.184208 -0.63544,-0.25897 -0.18803,-0.06509 -0.43667,-0.09371 -0.59947,-0.215809 -0.12809,-0.09607 -0.13391,-0.75214 -0.14387,-0.895605 -0.009,-0.127963 -0.0182,-0.266304 -0.0599,-0.388456 -0.0392,-0.114757 -0.14782,-0.24854 -0.13188,-0.377665 0.003,-0.02409 0.36721,-0.613818 0.41963,-0.75533 0.10767,-0.290706 0.20388,-0.901083 0.38366,-1.143785 0.0547,-0.07379 0.13895,-0.120891 0.20382,-0.183438 0.33469,-0.322737 0.75032,-0.615901 0.82726,-1.100623 0.006,-0.03737 -0.0477,-0.08641 -0.0839,-0.07553 -0.0399,0.01196 -0.0385,0.118694 -0.0719,0.118694 -0.0252,0 -0.014,-0.05458 0,-0.07553 0.006,-0.0085 0.0839,-0.01714 0.0839,-0.02158 0,-0.03326 -0.0592,-0.0317 -0.0839,-0.05395 -0.0505,-0.04548 -0.0918,-0.133031 -0.15586,-0.161856 -0.15695,-0.07063 -0.45965,0.118654 -0.58748,0.03237 -0.0383,-0.02585 -0.0842,-0.123358 -0.11989,-0.161856 -0.12333,-0.133192 -0.5928,-0.753328 -0.70738,-0.787702 -0.29112,-0.08734 -0.73171,0.133562 -0.99511,0.215809 -0.25287,0.07896 -0.51084,0.160645 -0.76732,0.226599 -0.0666,0.01713 -0.14109,0.0041 -0.20382,0.03237 -0.0484,0.02177 0.10409,-0.02072 0.15586,-0.03237 0.11201,-0.0252 0.2158,-0.106097 0.29973,-0.194228 0.28997,-0.30447 0.40688,-0.842603 0.27576,-1.240899 -0.13823,-0.419861 -0.48539,-0.780356 -0.81528,-1.057462 -0.13774,-0.115705 -0.70084,-0.432623 -0.75533,-0.604264 -0.0331,-0.104302 0.0864,-0.109029 0.15586,-0.140276 0.40853,-0.183839 0.70291,-0.475826 1.00711,-0.798492 0.0703,-0.07454 0.23194,-0.222678 0.21581,-0.25897 -0.0297,-0.06693 -0.22812,-2.93e-4 -0.17984,0.04316 0.0256,0.02305 0.12033,-0.01781 0.13188,-0.03237 0.0648,-0.08162 -0.10643,-0.07155 -0.1079,-0.07553 -0.0234,-0.06306 0.07,-0.117653 0.0839,-0.183438 0.0453,-0.214192 0.0359,-0.451192 0.048,-0.669006 0.006,-0.115632 -0.0286,-0.906396 0.036,-0.906396 0.0265,0 -0.0228,0.0686 -0.048,-0.01079 -0.008,-0.02487 -0.10466,-0.167699 -0.0959,-0.183437 0.0131,-0.02354 0.0586,-0.02312 0.012,-0.07553 -0.03,-0.0337 -0.0504,-0.03474 -0.0599,-0.08632 -0.0493,-0.2662 0.088,-0.529029 0.11989,-0.787702 0.005,-0.0417 -0.0928,-0.257124 0.012,-0.194228 0.0248,0.01487 -0.15586,0.08082 -0.15586,0.107905 0,0.04557 0.0586,0.06999 0.0839,0.107904 0.13796,0.206928 0.20188,0.406041 0.26377,0.647426"
     id="path3235"
     style="fill:none;stroke:#000000;stroke-width:1px;stroke-linecap:butt;stroke-linejoin:miter;stroke-opacity:1" />
</svg>
