<?xml version="1.0" encoding="UTF-8" standalone="no"?>
<!-- Created with Inkscape (http://www.inkscape.org/) -->

<svg
   xmlns:dc="http://purl.org/dc/elements/1.1/"
   xmlns:cc="http://creativecommons.org/ns#"
   xmlns:rdf="http://www.w3.org/1999/02/22-rdf-syntax-ns#"
   xmlns:svg="http://www.w3.org/2000/svg"
   xmlns="http://www.w3.org/2000/svg"
   version="1.1"
   width="1029.5891"
   height="733.04431"
   id="svg2">
  <defs
     id="defs4" />
  <metadata
     id="metadata7">
    <rdf:RDF>
      <cc:Work
         rdf:about="">
        <dc:format>image/svg+xml</dc:format>
        <dc:type
           rdf:resource="http://purl.org/dc/dcmitype/StillImage" />
        <dc:title></dc:title>
      </cc:Work>
    </rdf:RDF>
  </metadata>
  <path
     d="m 201.00942,643.77687 c -1.06254,-0.80369 -2.11787,-1.61702 -3.18763,-2.41107 -0.12157,-0.0902 -0.39294,-0.0338 -0.54258,-0.0916 -0.19502,-0.0752 -0.35436,-0.22991 -0.54258,-0.3052 -0.22063,-0.0882 -0.49881,-0.0984 -0.71213,-0.21364 -0.7272,-0.39269 -1.447,-0.84702 -2.1364,-1.31236 -0.2171,-0.14654 -0.6023,-0.23141 -0.74604,-0.4578 -0.2683,-0.42258 0.23738,-0.97591 0.23738,-1.46496 0,-0.17974 -0.0817,-0.36942 -0.10173,-0.54935 -0.0802,-0.72153 0.0646,-1.48251 -0.0678,-2.19744 -0.12083,-0.65252 -0.22059,-1.34946 -0.44084,-1.9838 -0.11476,-0.3305 -0.34731,-0.65834 -0.40693,-1.00715 -0.0877,-0.51298 -0.11622,-1.04613 -0.20347,-1.55652 -0.0626,-0.36628 -0.0678,2e-5 -0.16955,-0.36624 -0.14943,-0.53795 -0.2971,-1.13493 -0.40694,-1.6786 -0.10292,-0.50945 -0.88473,-1.59441 -1.32253,-1.92275 -0.28311,-0.21234 -0.73678,-0.34682 -1.05124,-0.48832 -0.24524,-0.11036 -0.58901,-0.12291 -0.81386,-0.27468 -0.42212,-0.28493 -1.55406,-1.36287 -1.79729,-1.80068 -0.23389,-0.421 0.0496,-0.99541 0.16955,-1.3734 0.0882,-0.2778 -0.0781,-0.63438 0,-0.9156 0.0578,-0.20802 0.10481,-0.41886 0.13565,-0.64091 0.0512,-0.36845 -0.0583,-0.76198 0,-1.12924 0.0315,-0.1985 0.13368,-0.35564 0.16955,-0.54936 0.0565,-0.30513 -0.0427,-0.6384 0,-0.94612 0.13662,-0.98362 0.0302,-1.85778 -0.10173,-2.80783 -0.0397,-0.28566 -0.29634,-0.48696 -0.37302,-0.763 -0.0983,-0.35404 -0.0447,-0.79129 -0.13564,-1.15976 -0.0858,-0.34769 -0.30919,-0.59963 -0.44085,-0.9156 -0.32019,-0.76845 -0.52015,-1.71195 -0.98342,-2.44159 -0.94693,-1.49142 -1.92573,-3.0049 -3.0859,-4.33384 -0.42661,-0.48865 -0.75426,-1.17165 -1.05125,-1.73963 -0.13144,-0.25139 -0.36079,-0.43854 -0.50866,-0.67144 -0.51363,-0.80897 -0.92348,-1.70059 -1.45818,-2.50264 -0.28968,-0.43452 -0.62826,-0.85083 -0.9156,-1.28183 -0.4693,-0.70396 -1.25097,-1.33317 -1.83119,-1.95328 -0.60469,-0.64626 0.13001,0.12355 -0.44085,-0.6104 -0.41314,-0.53118 -0.97432,-0.96472 -1.42426,-1.46496 -0.41825,-0.46499 -0.7863,-0.95182 -1.25471,-1.37339 -0.58315,-0.52484 -1.26899,-0.92477 -1.86511,-1.43444 -3.58924,-3.06881 -7.51127,-6.0146 -11.93668,-7.72155 -1.06017,-0.40892 -2.1885,-0.4286 -3.28938,-0.64091 -0.9745,-0.18794 -1.87611,-0.62208 -2.84852,-0.82404 -2.2005,-0.45703 -4.36072,-1.00181 -6.54484,-1.526 -0.52084,-0.125 -1.01684,-0.43583 -1.52599,-0.6104 -1.92881,-0.6613 -3.82007,-1.45427 -5.76488,-2.07536 -3.32509,-1.06188 -6.81122,-1.67479 -10.20723,-2.47211 -1.80415,-0.42358 -3.58019,-0.92016 -5.35794,-1.43444 -1.20979,-0.34997 -2.48062,-0.50492 -3.6963,-0.82404 -1.01388,-0.26614 -2.01522,-0.6014 -3.052,-0.79351 -1.8536,-0.34347 -3.75212,-0.47036 -5.59532,-0.88508 -2.15336,-0.48451 -4.22322,-1.22491 -6.37528,-1.70912 -0.53307,-0.11994 -1.10625,-0.39676 -1.66164,-0.39676 -0.10677,0 0.57608,0.26664 0.64431,0.33572 0.41902,0.42426 0.70086,1.10351 1.05124,1.58704 1.13073,1.5604 2.95693,2.29142 4.6119,3.17407 0.75044,0.40024 1.61118,0.73282 2.27205,1.28184 0.5147,0.4276 0.97038,1.00628 1.39035,1.526 0.19798,0.245 0.30635,0.55039 0.54257,0.76299 0.22212,0.19991 0.40967,0.46494 0.64431,0.64092 0.083,0.0623 0.27129,0.0488 0.27129,0.1526 0,0.0698 -0.55665,0.0288 -0.81386,0.18312 -0.26945,0.16167 -0.37333,0.0305 -0.37302,0.0305 0.0305,0 -0.0227,0.0711 0,0.0916 0.25951,0.23357 0.005,0.40158 -0.0678,0.763 -0.10646,0.527 0.16025,0.95053 0.50867,1.31236 0.70958,0.73687 1.63563,1.18964 2.54333,1.61756 0.90759,0.42786 1.80631,0.977 2.64506,1.52599 0.2684,0.17568 0.50861,0.41708 0.77995,0.57988 0.065,0.039 0.20953,0.0218 0.23738,0.12208 0.001,0.005 -0.30479,-0.0305 -0.71213,-0.0305 -0.0694,0 -2.53828,-0.0208 -2.17031,0.24416 0.0801,0.0576 0.34629,0.0596 0.44085,0.0916 0.22122,0.0747 1.82729,1.10372 2.13639,1.31236 0.5437,0.367 1.00373,0.84232 1.49209,1.28184 0.90633,0.81569 2.02847,1.50054 2.98417,2.28899 0.24238,0.19997 1.55886,1.15694 1.66164,1.43444 0.0815,0.22001 -0.2963,0.19813 -0.37302,0.24416 -0.27752,0.16651 -0.54406,0.98324 -0.40693,1.31236 0.46865,1.12477 1.40221,1.61667 2.20422,2.44159 0.3509,0.36093 0.65011,0.80718 1.08515,1.0682 0.57479,0.34487 1.34018,0.52191 1.86511,0.9156 0.13246,0.0993 0.15059,0.27456 0.27128,0.39676 0.42325,0.42853 1.00809,0.81729 1.32254,1.34287 0.27119,0.45329 0.69139,1.44333 1.08515,1.70912 0.79361,0.53569 1.82937,0.66861 2.67897,1.09872 0.897,0.4541 2.22098,1.36889 3.01809,1.98379 0.48013,0.3704 1.11929,0.52771 1.62773,0.85456 0.37386,0.24034 0.54494,0.67357 0.84777,0.94612 0.8436,0.75924 1.56923,1.77076 2.54333,2.47212 1.07181,0.7717 2.16575,1.49274 3.28937,2.16691 0.26419,0.15851 0.475,0.403 0.74604,0.54936 0.45787,0.24725 1.21151,0.66307 1.59382,1.00716 0.52111,0.469 1.03114,0.98906 1.55991,1.46496 0.47438,0.42694 1.15432,0.72722 1.69555,1.06819 0.40706,0.25645 0.73971,0.6066 1.15298,0.85456 1.49707,0.89824 3.10689,1.71347 4.51017,2.7468 1.075,0.79159 2.20819,1.54273 3.25546,2.38055 0.35421,0.28337 0.82062,0.67753 1.15297,0.97664 0.3837,0.34533 0.64512,0.8017 1.08516,1.09872 1.02396,0.69118 1.42596,1.78498 2.27204,2.65523 0.34133,0.35109 0.7378,0.64447 1.05124,1.00716 0.25631,0.29659 0.42198,0.7155 0.71213,0.97664 0.22802,0.20521 0.6327,0.34952 0.81387,0.6104 0.26741,0.38508 0.4483,0.89849 0.67822,1.31236 0.21856,0.39342 0.57769,0.63632 0.84778,0.97664 0.24193,0.30484 0.39646,0.66435 0.64431,0.97663 0.77486,0.97634 1.48448,2.00748 2.40768,2.83836 0.1621,0.14589 0.18317,0.37849 0.33911,0.51884 0.78283,0.70455 1.60237,1.45072 2.33986,2.19743 0.23781,0.24079 0.35058,0.59315 0.57649,0.85456 0.25548,0.29562 0.61871,0.54533 0.84778,0.85456 0.0868,0.11715 0.0282,0.28088 0.10173,0.39676 0.2933,0.46195 0.31071,1.01707 0.54258,1.43444 0.0669,0.12037 0.20069,0.26469 0.23737,0.39676 0.0633,0.22774 -0.10082,0.58178 0,0.79351 0.24269,0.50965 0.46638,1.0876 0.64431,1.64808 0.2848,0.8971 1.91405,1.9033 2.64506,2.4416 1.19723,0.88159 2.2669,2.03465 3.18764,3.17407 0.26074,0.32266 0.41892,0.71678 0.67822,1.03768 0.42545,0.52649 0.94981,0.93909 1.25471,1.55652 0.39904,0.80804 0.38666,1.84668 0.64431,2.71627 0.50131,1.69193 1.00932,3.40909 1.35644,5.12735 0.0828,0.40983 0.1842,0.83325 0.27129,1.25132 0.0811,0.38916 -0.0358,0.81892 0.10174,1.19028 0.1021,0.27567 0.26471,0.50337 0.33911,0.79351 0.14613,0.56993 0.2409,1.19981 0.44084,1.73964 0.12854,0.34706 0.48194,0.5641 0.54258,0.94612 0.0386,0.24341 -0.0731,0.48529 -0.0339,0.73248 0.0278,0.17525 0.16346,0.29578 0.20346,0.4578 0.0455,0.18437 0.009,0.43339 0.0678,0.6104 0.0944,0.28334 0.31965,0.54232 0.37303,0.85455 0.13217,0.77321 0.45395,1.67758 0.77995,2.41108 0.14134,0.31802 0.43528,0.71288 0.47475,1.0682 0.0427,0.38434 0.23583,1.99006 0.16956,2.25847 -0.11628,0.47095 -0.25865,0.93778 -0.20347,1.43444 0.12429,1.1186 0.52095,2.19431 0.67822,3.32667 0.0734,0.52833 0.036,1.02393 0.10174,1.55652 0.0489,0.39574 0.37265,1.12825 0.50866,1.49548 0.0962,0.25981 0.34777,0.48117 0.44085,0.73248 0.1255,0.33886 0.17467,0.7047 0.33911,1.03767 0.21728,0.44 0.59057,0.78518 0.84777,1.19028 0.17942,0.28258 0.15315,0.62909 0.20347,0.94612 0.0305,0.19227 0.13813,0.40346 0.20347,0.57988 0.23176,0.62576 0.40362,2.54955 0.27128,3.20459 -0.32266,1.5972 -0.80275,3.21565 -1.15297,4.79163 -0.0684,0.30787 -0.28717,0.59534 -0.37302,0.88508 -0.0877,0.2959 -0.12589,0.6451 -0.23738,0.94612 -0.0764,0.20622 -0.26591,0.4176 -0.37302,0.6104 -0.57445,1.03402 -1.17772,2.22877 -1.526,3.35719 -0.13196,0.42755 -0.15347,0.88821 -0.27129,1.31236 -0.0989,0.35598 -0.29072,0.71259 -0.40693,1.0682 -0.10074,0.30825 -0.0786,0.63924 -0.16955,0.94612 -0.20646,0.6968 -0.48186,1.40167 -0.74605,2.07535 -0.21471,0.54751 -0.61578,0.95642 -0.88169,1.46496 -0.18825,0.36004 -0.30981,0.78644 -0.54257,1.12924 -0.34514,0.5083 -0.7136,1.04032 -1.01733,1.58704 -0.1315,0.23669 -0.20904,0.5111 -0.37302,0.73247 -0.18407,0.2485 -0.41365,0.49083 -0.57649,0.763 -0.42105,0.70376 -0.6964,1.45227 -1.05124,2.19744 -0.53512,1.12373 -1.27943,2.27696 -2.03467,3.26563 -0.5863,0.76752 -0.99907,1.631 -1.55991,2.41108 -0.29836,0.41499 -0.67348,0.78454 -0.98342,1.19028 -0.36714,0.48062 -0.66868,1.00238 -1.01733,1.49547 -0.52725,0.74569 0.27298,-0.44082 -0.3052,0.27468 -0.2114,0.26162 -0.34815,0.59302 -0.57648,0.85456 -0.35179,0.40295 -0.73514,0.75474 -1.08516,1.15976 -0.61923,0.71653 -1.11078,1.53387 -1.66164,2.22795 -0.0649,0.0818 -0.88822,0.6057 -0.71213,0.73248 0.24712,0.17793 0.13268,-0.0634 0.20346,-0.1526 0.14904,-0.18778 0.31238,-0.0919 0.47476,-0.21364 0.12613,-0.0946 0.23761,-0.32561 0.37302,-0.36624 0.1727,-0.0518 0.29527,-0.002 0.47476,-0.0916 0.29489,-0.14744 0.49324,-0.37304 0.74604,-0.57988 1.05265,-0.86126 2.24191,-1.55949 3.32328,-2.41107 0.45564,-0.35881 0.79123,-0.84 1.28862,-1.15976 0.27109,-0.17427 0.65934,-0.25468 0.94951,-0.4578 0.57068,-0.39947 1.03252,-0.92956 1.59382,-1.34287 0.80399,-0.59203 1.59517,-1.13673 2.30595,-1.86172 0.54211,-0.55295 1.00691,-1.20639 1.55991,-1.73964 0.7118,-0.68638 1.37254,-1.40266 1.93293,-2.22795 0.56318,-0.82941 0.95506,-1.73387 1.45817,-2.5942 0.25047,-0.4283 0.62231,-0.76547 0.94951,-1.12924 0.89436,-0.99431 -0.31816,0.32388 0.47476,-0.70196 0.71647,-0.92693 1.8909,-2.0863 2.74679,-2.89939 0.52837,-0.50195 2.89693,-2.20765 3.6624,-1.40392 0.28979,0.30429 0.16589,1.07893 0.23737,1.46496 0.14972,0.80848 0.34355,1.63052 0.6104,2.41108 0.0473,0.13848 0.48095,1.02784 0.57649,0.64091 0.41776,-1.69193 0.95347,-3.37145 1.42426,-5.06631 0.0591,-0.21285 0.0846,-0.68663 0.33911,-0.76299 0.32457,-0.0974 0.85542,0 1.18689,0 0.92755,0 1.85375,-0.01 2.78071,-0.0305 1.79488,-0.0404 3.59135,-0.53054 5.39185,-0.27468 0.85995,0.1222 1.7203,0.55737 2.54333,0.82403 1.2324,0.3993 2.81776,0.73429 3.93368,1.3734 0.40743,0.23335 0.74631,0.61056 1.15298,0.85456 0.75536,0.45322 1.63648,0.81471 2.44159,1.15976 0.44149,0.18921 0.92989,0.28259 1.35645,0.51884 1.17946,0.65324 2.29683,1.41125 3.52674,1.98379 0.63838,0.29718 1.27643,0.59852 1.93293,0.85456 0.932,0.36348 1.92903,0.58998 2.81462,1.0682 0.52489,0.28344 1.06123,0.50155 1.59382,0.763 0.53,0.26018 1.02387,0.63337 1.55991,0.88508 0.45717,0.21467 0.97018,0.34502 1.42426,0.54936 0.13552,0.061 0.23485,0.18944 0.37302,0.24415 0.14985,0.0593 0.32246,0.0388 0.47476,0.0916 0.94027,0.32548 1.87539,0.75434 2.81461,1.09872 0.71601,0.26254 1.40982,0.61745 2.10249,0.9156 0.53025,0.22824 1.11964,0.34146 1.66164,0.51884 0.44882,0.14689 0.89124,0.41632 1.32253,0.6104 1.38938,0.62522 2.7542,1.30064 4.17106,1.86172 1.01824,0.40322 1.9642,0.9684 2.98417,1.37339 1.46753,0.5827 3.02231,0.96942 4.51017,1.49548 2.01624,0.71288 4.01712,1.52051 6.07008,2.1364 0.83262,0.24978 1.6744,0.36851 2.50942,0.57987 1.29743,0.32842 2.65331,0.52119 3.93368,0.88508 1.15078,0.32707 2.29562,0.74605 3.45892,1.0682 0.74404,0.20604 1.47192,0.47644 2.23813,0.57988 0.23277,0.0314 0.54324,0.1209 0.54258,0.12208 -0.0838,0.15089 -0.88265,-0.0307 -1.01733,-0.061 -1.4099,-0.31723 -2.78692,-0.51642 -4.17106,-1.00716 -4.62729,-1.64058 -9.39526,-2.99593 -13.83571,-5.12735 -0.65398,-0.31391 -1.18883,-0.76416 -1.79728,-1.12924 -0.60407,-0.36244 -1.27762,-0.63486 -1.89902,-0.97663 -1.0896,-0.59929 -1.9428,-1.35486 -2.91635,-2.10588 -0.65188,-0.50288 -1.43612,-0.9162 -2.00075,-1.526 -0.14523,-0.15684 -0.18477,-0.41782 -0.33911,-0.57988 -0.15897,-0.16691 -0.39427,-0.34823 -0.50867,-0.57988 -0.1676,-0.3394 -0.38515,-0.58099 -0.6104,-0.88507 -0.2301,-0.31065 -0.28028,-0.7426 -0.54257,-1.03768 -0.31075,-0.3496 -0.45497,-0.75084 -0.74605,-1.12924 -0.31458,-0.40896 -0.67485,-0.77372 -0.98342,-1.19028 -0.29698,-0.40092 -0.46932,-0.94123 -0.84777,-1.28184 -1.08248,-0.97422 -2.01258,-2.11084 -2.98418,-3.23511 -0.46437,-0.53735 -1.01611,-1.07598 -1.5599,-1.49548 -0.29635,-0.2286 -0.50044,-0.72137 -0.71214,-1.00715 -0.6076,-0.82027 -1.51481,-1.44137 -2.1703,-2.22796 -0.1616,-0.19392 -0.24439,-0.44587 -0.40694,-0.64092 -0.13356,-0.16028 -0.32341,-0.29107 -0.47475,-0.42728 -0.30729,-0.27656 -0.52052,-0.74131 -0.77995,-1.0682 -0.92346,-1.16355 -2.0152,-2.139 -2.95027,-3.29615 -0.52233,-0.64639 -0.81504,-1.34544 -1.15297,-2.07536 -0.19784,-0.42732 -0.57483,-0.79128 -0.84778,-1.15975 -0.1472,-0.19873 -0.16521,-0.40037 -0.27129,-0.6104 -0.15188,-0.30074 -0.4117,-0.55795 -0.57648,-0.85456 -0.58004,-1.04407 -0.78443,-2.22702 -1.2208,-3.32667 -0.15797,-0.39808 -0.41843,-0.73093 -0.57649,-1.12924 -0.32605,-0.82165 -0.57513,-1.7245 -0.94951,-2.53316 -0.20037,-0.43281 -0.47824,-0.83346 -0.64431,-1.28184 -0.15206,-0.41055 -0.17041,-0.87696 -0.33911,-1.28183 -0.12307,-0.29538 -0.2873,-0.60701 -0.37302,-0.9156 -0.14859,-0.53493 -0.15827,-1.14965 -0.3052,-1.6786 -0.0514,-0.18519 -0.21607,-0.32266 -0.27129,-0.48832 -0.10069,-0.30207 -0.29459,-0.65901 -0.37302,-0.97663 -0.0499,-0.20221 -0.0199,-0.4385 -0.10173,-0.64092 -0.13597,-0.33653 -0.35454,-0.65551 -0.47476,-1.00716 -0.21325,-0.62377 -0.2959,-1.26991 -0.50866,-1.89224 -0.21395,-0.62581 -0.48824,-1.22962 -0.64431,-1.86171 -0.12778,-0.51752 -0.10561,-1.12357 -0.3052,-1.61756 -0.19899,-0.4925 -0.33708,-0.84726 -0.47476,-1.34288 -0.10111,-0.364 -0.44894,-0.63226 -0.57648,-0.97664 -0.0696,-0.18803 0.0161,-0.46878 -0.0339,-0.67144 -0.0572,-0.23166 -0.22276,-0.44885 -0.30519,-0.67143 -0.17855,-0.48206 -0.26694,-1.02592 -0.44085,-1.49548 -0.0884,-0.23859 -0.0308,-0.56879 -0.10173,-0.82404 -0.0938,-0.33756 -0.28562,-0.60524 -0.37302,-0.94612 -0.14888,-0.58063 -0.009,-1.2313 -0.20347,-1.80067 -0.29469,-0.86198 -0.46307,-1.84316 -0.67822,-2.7468 -0.14615,-0.61382 -0.0624,-1.28118 -0.27129,-1.89224 -0.42879,-1.2542 -0.65965,-2.54662 -0.88169,-3.84551 -0.1073,-0.6277 0.0504,-1.31821 0,-1.95328 -0.0319,-0.40252 -0.27437,-0.79068 -0.23737,-1.19027 0.0279,-0.30098 0.16284,-0.56204 0.20346,-0.85456 0.0679,-0.48899 -0.0301,-1.0054 0.0339,-1.49548 0.057,-0.436 0.22671,-0.8885 0.3052,-1.31236 0.0973,-0.52517 0.004,-1.08827 0.10174,-1.61755 0.46183,-2.49391 1.15749,-4.97011 2.00075,-7.35531 0.58718,-1.66088 0.97421,-3.38122 1.66164,-5.00527 0.38343,-0.90585 0.80915,-1.79219 1.28862,-2.65523 0.17796,-0.32033 0.25919,-0.6938 0.44084,-1.00716 0.46447,-0.8012 1.05966,-1.51918 1.42427,-2.38056 0.20925,-0.49436 0.55494,-0.85115 0.84777,-1.31236 0.19824,-0.31222 0.32586,-0.66254 0.50867,-0.97663 0.64635,-1.11056 1.60364,-2.06393 2.33986,-3.11304 0.49382,-0.70369 0.92809,-1.44175 1.42427,-2.13639 0.59597,-0.83436 1.42651,-1.40635 2.10248,-2.1364 0.39491,-0.42651 0.66917,-0.90339 1.25471,-1.12924 0.59228,-0.22845 0.97923,-0.79029 1.45817,-1.15976 0.42195,-0.3255 0.90976,-0.56218 1.35645,-0.85455 1.08828,-0.71233 2.09641,-1.52236 3.22155,-2.19744 0.20331,-0.12199 0.40671,-0.24403 0.61039,-0.36624 0.0339,-0.0204 0.10174,-0.0215 0.10174,-0.061 0,-0.0354 -0.0845,-0.0615 -0.10174,-0.0305 -0.0369,0.0664 0.13565,0.25908 0.13565,0.18312 0,-0.0969 -0.14246,-0.11595 -0.0339,-0.21364 0.0263,-0.0237 0.10173,0.005 0.10173,-0.0305 0,-0.10375 -0.17667,0.11002 -0.27129,0.1526 -0.0423,0.019 -0.0972,-0.0565 -0.13564,-0.0305 -0.0337,0.0228 -0.0397,0.11315 0,0.12208 0.0532,0.012 0.092,-0.0588 0.13564,-0.0916 0.19379,-0.14534 0.0678,-0.11354 0.0678,-0.21364 0,-0.0259 0.60996,-0.45523 0.67822,-0.48832 0.95988,-0.46517 2.0406,-0.75429 3.052,-1.09872 2.09006,-0.71175 4.16232,-1.69829 6.10399,-2.74679 0.65059,-0.35132 1.22494,-0.82925 1.93293,-1.0682 0.44907,-0.15156 0.87984,-0.32895 1.32253,-0.48832 0.0441,-0.0159 0.67822,-0.10888 0.67822,-0.1526 0,-0.0339 -0.0678,0 -0.10173,0 -0.14288,0 -0.29843,-0.0142 -0.44085,0 -0.2012,0.0201 -1.84883,0.65008 -1.89902,0.763 -0.25496,0.57368 1.10049,-0.47824 1.72947,-1.12924 1.58718,-1.64273 3.0201,-3.46941 4.81537,-4.88319 0.0447,-0.0352 0.74917,-0.63527 0.71213,-0.70196 -0.10638,-0.19147 -0.41309,0.28023 -0.47476,0.33572 -0.0967,0.087 -0.83855,0.35233 -0.71213,0.57988 0.29487,0.53077 3.12819,-1.34826 3.35719,-1.49547 2.36101,-1.51779 4.63829,-3.1636 6.98568,-4.70008 0.12967,-0.0849 1.11906,-0.56481 1.11906,-0.79351 0,-0.0794 -0.49237,0.39715 -0.54257,0.42728 -0.10698,0.0642 -0.49778,0.0305 -0.37302,0.0305 0.70782,0 1.13146,-0.40358 1.72946,-0.73248 1.56824,-0.86254 3.18599,-1.55935 4.88319,-2.1364 1.76779,-0.60105 3.51583,-1.2776 5.25621,-1.95328 0.3526,-0.13689 3.6624,-1.68391 3.6624,-2.01431 0,-0.25103 -0.97765,0.10959 -1.08516,0.1526 -0.16682,0.0667 -0.8766,0.73133 -0.20346,0.57988 0.16377,-0.0368 0.24411,-0.29298 0.40693,-0.36624 0.69632,-0.31335 1.40656,-0.58822 2.10248,-0.94612 1.3977,-0.71882 2.78586,-1.48775 4.10324,-2.35004 0.74102,-0.48503 1.4342,-1.05964 2.17031,-1.55651 1.34428,-0.9074 2.59338,-1.75417 3.79803,-2.83836 0.18105,-0.16294 0.18404,-0.47343 0.33911,-0.64092 0.12869,-0.13898 0.50316,-0.29946 0.44085,-0.57988 -0.005,-0.0208 -0.40867,-0.0858 -0.44085,-0.0916 -0.43523,-0.0783 -0.7495,-0.15467 -1.15297,-0.39675 -0.77315,-0.46389 -1.68505,-0.75828 -2.50942,-1.12924 -0.55693,-0.25062 -1.02179,-0.76311 -1.59382,-1.03768 -0.57366,-0.27536 -1.2267,-0.35364 -1.79728,-0.6104 -0.93452,-0.42053 -1.9653,-0.80338 -2.98418,-1.00716 -0.24533,-0.0491 -0.50462,-0.0134 -0.74604,-0.12208 -1.63985,-0.73793 -3.50921,-0.79843 -5.2223,-1.31235 -1.64065,-0.4922 -2.969,-0.71407 -4.67972,-0.82404 -0.89767,-0.0577 -1.77901,-0.26999 -2.67898,-0.3052 -1.18544,-0.0464 -2.32298,-0.01 -3.49283,0.12208 -1.32325,0.14886 -2.70504,-0.009 -4.03542,0.061 -0.95814,0.0507 -1.98046,0.22909 -2.91635,0.42728 -0.8591,0.18192 -1.751,0.10754 -2.61115,0.24416 -1.61295,0.25617 -3.20944,0.68333 -4.81537,0.94611 -0.72928,0.11934 -1.47533,0.0601 -2.20422,0.18312 -1.75715,0.29652 -3.45214,0.85543 -5.18839,1.19028 -1.10902,0.21388 -2.27268,0.23855 -3.3911,0.42728 -1.59839,0.26973 -3.17931,0.7565 -4.74755,1.15976 -1.77411,0.4562 -3.56976,1.00081 -5.25621,1.70912 -0.4923,0.20676 -0.97431,0.48264 -1.42426,0.76299 -0.27824,0.17337 -0.59713,0.25707 -0.88169,0.39676 -0.43708,0.21457 -0.85994,0.5455 -1.28862,0.79352 -0.34967,0.20231 -0.68774,0.35526 -1.05124,0.51884 -0.66654,0.29994 -1.22794,0.82265 -1.8312,1.2208 -1.2718,0.83939 -2.68876,1.44807 -3.93368,2.31951 -2.09763,1.46835 -4.0332,3.13763 -6.00226,4.79163 -1.17819,0.98969 -2.53191,1.83024 -3.62848,2.8994 -0.64291,0.62684 -1.26507,1.29116 -1.93293,1.89224 -0.45015,0.40513 -1.0007,0.75321 -1.39035,1.22079 -0.83109,0.99732 -1.75509,1.97635 -2.71288,2.83836 -0.37564,0.33807 -0.87121,1.03335 -1.08516,1.49548 -0.13514,0.2919 -0.22642,0.64483 -0.40693,0.91559 -1.05309,1.57964 -2.16171,3.21577 -2.91635,4.91371 -0.13397,0.30145 -0.38997,0.55698 -0.54258,0.85456 -0.56448,1.10074 -0.94448,2.53564 -2.00075,3.29616 -0.28838,0.20763 -1.75642,0.97663 -2.10248,0.97663 -0.51536,0 -0.9597,-0.4312 -1.42427,-0.61039 -1.34679,-0.51948 -2.8086,-1.22003 -4.23888,-1.40392 -1.21207,-0.15584 -2.47126,-0.27577 -3.66239,0.0305 -0.50818,0.13067 -1.07676,0.089 -1.59382,0.24416 -0.4878,0.14634 -1.7264,0.76733 -2.10249,1.0682 -0.16556,0.13245 -0.26197,0.34281 -0.44084,0.45779 -1.18951,0.76469 -2.49171,1.89089 -3.22155,3.2046 -0.15662,0.28191 -0.45011,0.55125 -0.57649,0.85456 -0.006,0.0141 0.005,0.2451 0,0.27468 -0.0274,0.17269 -0.14984,0.32745 -0.20346,0.48832 -0.0836,0.25073 -0.0884,0.53861 -0.13565,0.79351 -0.0638,0.34461 0.0916,0.56593 0.23738,0.85456 0.0922,0.18253 0.0822,0.48882 0.27129,0.6104 0.62146,0.39951 1.45893,0.24786 2.13639,0.51884 0.46607,0.18642 0.8353,0.559 1.28862,0.763 0.37804,0.17011 1.32675,0.42791 1.72947,0.48832 0.17175,0.0258 0.33409,-0.048 0.50866,0.0305 1.71175,0.77028 3.58432,1.30313 5.01884,2.59419 0.25759,0.23183 0.47484,0.6919 0.71213,0.97664 0.16895,0.20274 0.42755,0.32596 0.57649,0.54936 0.11167,0.16751 0.71786,1.77573 0.74604,1.95328 0.0361,0.22742 -0.0693,0.51422 0,0.73247 0.0435,0.13687 0.16002,0.2599 0.20347,0.39676 0.0499,0.1573 -0.0723,0.4029 0,0.54936 0.0847,0.17157 0.24698,0.21391 0.16955,0.4578 -0.0275,0.0867 -0.13798,0.12839 -0.16955,0.21364 -0.15113,0.40804 -0.0179,1.65957 -0.13565,2.1364 -0.0722,0.29264 -0.22817,0.56856 -0.16955,0.88508 0.029,0.15639 1.00223,1.41261 1.15297,1.58703 0.0517,0.0598 0.1596,0.0563 0.20347,0.12208 0.0958,0.14375 -0.22363,0.20513 -0.27129,0.3052 -0.12099,0.25409 -0.1407,0.56302 -0.23738,0.82404 -0.0323,0.0873 -0.27128,0.14512 -0.27128,0.1526 0,0.1056 0.45504,-0.39676 0.3052,-0.39676 -0.59247,0 0.33015,0.24495 -0.3052,0.0305 -0.41561,-0.14027 -0.2639,0.27468 -0.47476,0.27468 -0.0698,0 0.0439,-0.22219 0.10173,-0.18312 0.12403,0.0837 -0.0679,0.90055 -0.10173,1.03768 -0.14348,0.58109 0.0798,1.20923 -0.16955,1.77016"
     id="path2989"
     style="fill:none;stroke:#000000;stroke-width:1px;stroke-linecap:butt;stroke-linejoin:miter;stroke-opacity:1" />
</svg>
