<?xml version="1.0" encoding="UTF-8" standalone="no"?>
<!-- Created with Inkscape (http://www.inkscape.org/) -->

<svg
   xmlns:dc="http://purl.org/dc/elements/1.1/"
   xmlns:cc="http://creativecommons.org/ns#"
   xmlns:rdf="http://www.w3.org/1999/02/22-rdf-syntax-ns#"
   xmlns:svg="http://www.w3.org/2000/svg"
   xmlns="http://www.w3.org/2000/svg"
   version="1.1"
   width="1920"
   height="1080"
   id="svg2">
  <defs
     id="defs4" />
  <metadata
     id="metadata7">
    <rdf:RDF>
      <cc:Work
         rdf:about="">
        <dc:format>image/svg+xml</dc:format>
        <dc:type
           rdf:resource="http://purl.org/dc/dcmitype/StillImage" />
        <dc:title></dc:title>
      </cc:Work>
    </rdf:RDF>
  </metadata>
    <image
			     xlink:href=".\DancerC.png"
			     width="1920"
			     height="1080"
			     preserveAspectRatio="none"
			     id="imageDancer"
			     x="0"
			     y="0" />
  <g
     transform="translate(0.0,0.0)"
     id="layer1">
    <path
       initial_time="20.394999"
       final_time="63.498001"
       d="M 1210.000000,227.000000 C 1210.222412,226.916565 1216.858032,218.190430 1217.000000,218.000000 C 1218.713867,215.701141 1220.520996,213.456558 1222.000000,211.000000 C 1222.768921,209.722900 1223.128418,208.209335 1224.000000,207.000000 C 1224.551270,206.235153 1225.235107,205.551270 1226.000000,205.000000 C 1226.604614,204.564178 1227.274536,203.828751 1228.000000,204.000000 C 1228.811035,204.191467 1230.613281,207.261856 1231.000000,208.000000 C 1232.467651,210.801086 1232.912354,214.030670 1234.000000,217.000000 C 1234.617432,218.685532 1235.212280,220.387009 1236.000000,222.000000 C 1238.032104,226.161118 1240.093750,230.394730 1243.000000,234.000000 C 1246.405518,238.224564 1250.556763,241.885162 1255.000000,245.000000 C 1262.080811,249.963867 1270.076050,253.537552 1278.000000,257.000000 C 1282.540771,258.984131 1287.387085,260.189789 1292.000000,262.000000 C 1299.089478,264.782074 1305.649292,269.008118 1313.000000,271.000000 C 1315.593872,271.702881 1318.481201,271.062897 1321.000000,272.000000 C 1322.126465,272.419067 1324.348267,272.849731 1324.000000,274.000000 C 1323.710205,274.957092 1321.996582,273.917511 1321.000000,274.000000 C 1319.484497,274.125427 1304.496460,276.729370 1303.000000,277.000000 C 1299.574463,277.619537 1265.415039,284.325317 1262.000000,285.000000 C 1250.327881,287.305939 1238.610596,289.401886 1227.000000,292.000000 C 1189.130737,300.474091 1151.781494,311.142853 1114.000000,320.000000 C 1079.432861,328.103607 1044.342285,333.991119 1010.000000,343.000000 C 994.496826,347.066895 979.464294,352.787506 964.000000,357.000000 C 936.541931,364.479614 908.943970,371.612793 881.000000,377.000000 C 862.808716,380.507019 844.430725,383.121002 826.000000,385.000000 C 820.352783,385.575745 814.676147,385.938324 809.000000,386.000000 C 799.994385,386.097870 790.725464,387.231079 782.000000,385.000000 C 776.945129,383.707489 772.394897,380.811981 768.000000,378.000000 C 766.202148,376.849670 764.236084,375.739990 763.000000,374.000000 C 762.782471,373.693817 757.121887,357.355255 757.000000,357.000000 C 756.657898,356.002960 756.512939,354.920868 756.000000,354.000000 C 754.733032,351.725647 752.333191,350.236145 751.000000,348.000000 C 749.161499,344.916351 748.496643,341.263275 747.000000,338.000000 C 743.084351,329.462433 739.001282,320.950439 734.000000,313.000000 C 732.225098,310.178497 730.184021,307.518188 728.000000,305.000000 C 724.911377,301.438751 721.512573,298.143890 718.000000,295.000000 C 716.409607,293.576538 714.896606,291.979004 713.000000,291.000000 C 708.687256,288.773804 703.806519,287.673187 699.000000,287.000000 C 694.048340,286.306488 688.982971,286.587585 684.000000,287.000000 C 681.979309,287.167236 679.802856,287.072205 678.000000,288.000000 C 674.646729,289.725647 672.114258,292.877167 670.000000,296.000000 C 667.153564,300.204254 665.020874,305.026520 664.000000,310.000000 C 663.765442,311.142853 663.922729,315.835907 664.000000,317.000000 C 664.334045,322.033173 664.018738,327.361145 666.000000,332.000000 C 668.514954,337.888550 673.280273,342.672852 678.000000,347.000000 C 678.442932,347.406097 683.492188,350.678650 684.000000,351.000000 C 687.284790,353.078735 690.517578,355.272614 694.000000,357.000000 C 695.608093,357.797668 697.237305,358.660553 699.000000,359.000000 C 699.654663,359.126068 700.459167,359.389801 701.000000,359.000000 C 701.855103,358.383667 701.445801,356.896667 702.000000,356.000000 C 702.495667,355.197998 703.489563,354.792694 704.000000,354.000000 C 705.541870,351.605469 706.000000,348.666656 707.000000,346.000000 C 708.000000,343.333344 708.458130,340.394531 710.000000,338.000000 C 710.510437,337.207306 711.555115,336.831238 712.000000,336.000000 C 712.401001,335.250732 712.916260,331.845703 713.000000,331.000000 C 713.098511,330.004852 713.000000,329.000000 713.000000,328.000000 C 713.000000,327.333344 713.471375,326.471405 713.000000,326.000000 C 712.528625,325.528595 711.666687,326.000000 711.000000,326.000000 C 709.333313,326.000000 707.658569,325.835785 706.000000,326.000000 C 704.308594,326.167480 702.498535,326.197998 701.000000,327.000000 C 700.168762,327.444885 699.666687,328.333344 699.000000,329.000000 C 698.000000,330.000000 696.696777,330.769348 696.000000,332.000000 C 695.322876,333.195984 695.476807,334.710999 695.000000,336.000000 C 694.741394,336.699066 694.171265,337.274597 694.000000,338.000000 C 693.770264,338.973236 693.770264,340.026764 694.000000,341.000000 C 694.171265,341.725403 694.506714,342.441223 695.000000,343.000000 C 695.795410,343.901001 696.879028,345.433380 698.000000,345.000000 C 699.281921,344.504395 699.366882,342.324493 699.000000,341.000000 C 698.811279,340.318542 696.546814,338.448303 696.000000,338.000000 C 695.070557,337.238037 694.079651,336.528046 693.000000,336.000000 C 691.106201,335.073761 689.000000,334.666656 687.000000,334.000000 C 685.000000,333.333344 683.080933,332.337708 681.000000,332.000000 C 680.341919,331.893219 679.666687,332.000000 679.000000,332.000000 C 677.000000,332.000000 674.963928,331.621796 673.000000,332.000000 C 671.237305,332.339447 669.180420,332.647675 668.000000,334.000000 C 667.096191,335.035400 667.333313,336.666656 667.000000,338.000000 C 666.333313,340.666656 665.335876,343.271851 665.000000,346.000000 C 664.837097,347.323334 664.489746,348.768158 665.000000,350.000000 C 665.360779,350.871033 666.197998,351.504333 667.000000,352.000000 C 668.793335,353.108337 670.919067,353.662292 673.000000,354.000000 C 674.645142,354.266968 676.333313,354.000000 678.000000,354.000000 C 678.666687,354.000000 679.384094,354.255127 680.000000,354.000000 C 681.306580,353.458801 682.221497,352.180634 683.000000,351.000000 C 683.988159,349.501404 684.660522,347.762665 685.000000,346.000000 C 685.126099,345.345367 685.000000,344.666656 685.000000,344.000000 C 685.000000,343.333344 685.471375,342.471405 685.000000,342.000000 C 684.292908,341.292908 682.707092,341.292908 682.000000,342.000000 C 681.528625,342.471405 682.000000,343.333344 682.000000,344.000000 C 682.000000,344.666656 682.000000,345.333344 682.000000,346.000000 C 682.000000,346.666656 681.459167,347.610199 682.000000,348.000000 C 682.427551,348.308167 684.541382,347.259674 685.000000,347.000000 C 687.674255,345.485840 689.602783,342.922974 692.000000,341.000000 C 693.300049,339.957123 694.832153,339.189087 696.000000,338.000000 C 698.593018,335.359802 706.995850,323.110901 709.000000,320.000000 C 711.910889,315.481659 722.386536,296.696655 725.000000,292.000000 C 729.423950,284.049744 734.553772,276.420288 738.000000,268.000000 C 745.752441,249.058289 751.391479,229.146149 755.000000,209.000000 C 755.795593,204.558365 756.833191,186.509247 757.000000,182.000000 C 757.098572,179.335159 757.387207,176.638397 757.000000,174.000000 C 756.494629,170.556793 755.947021,166.884460 754.000000,164.000000 C 752.805847,162.230927 750.862610,161.042236 749.000000,160.000000 C 741.270813,155.675125 732.735352,152.462051 724.000000,151.000000 C 700.326965,147.037827 675.844788,149.254807 652.000000,152.000000 C 630.305542,154.497635 608.894104,159.649796 588.000000,166.000000 C 562.296509,173.811874 462.639160,214.294540 438.000000,225.000000 C 393.967438,244.131699 351.559692,266.814758 308.000000,287.000000 C 288.100952,296.221069 267.765228,304.495514 248.000000,314.000000 C 220.995209,326.985748 194.348526,340.729614 168.000000,355.000000 C 146.732178,366.518677 126.820122,380.565338 105.000000,391.000000 C 97.572838,394.551758 89.606049,396.849487 82.000000,400.000000 C 76.621712,402.227753 71.028763,404.067352 66.000000,407.000000 C 64.560272,407.839600 63.581139,409.472961 62.000000,410.000000 C 61.367546,410.210815 60.648834,409.846832 60.000000,410.000000 C 59.274582,410.171234 57.828751,410.274597 58.000000,411.000000 C 58.095730,411.405518 62.585178,411.039154 63.000000,411.000000 C 70.094322,410.330383 76.905678,407.669617 84.000000,407.000000 C 86.654869,406.749420 97.334541,406.919800 100.000000,407.000000 C 127.704285,407.833710 155.456985,408.900848 183.000000,412.000000 C 227.653961,417.024475 272.169312,424.095795 316.000000,434.000000 C 335.963440,438.511047 355.561249,444.595001 375.000000,451.000000 C 385.217712,454.366699 485.937683,492.193970 496.000000,496.000000 C 526.397766,507.497803 556.599854,519.508545 587.000000,531.000000 C 598.641479,535.400574 610.568542,539.079590 622.000000,544.000000 C 643.497803,553.253235 664.292664,564.091980 685.000000,575.000000 C 701.241882,583.555725 717.250427,592.568665 733.000000,602.000000 C 740.457397,606.465698 747.620483,611.406677 755.000000,616.000000 C 762.619751,620.742859 770.269592,625.439758 778.000000,630.000000 C 782.629395,632.730896 787.361938,635.283875 792.000000,638.000000 C 793.677185,638.982239 795.387085,639.915466 797.000000,641.000000 C 798.383057,641.929993 799.582275,643.123779 801.000000,644.000000 C 801.634033,644.391846 802.402588,645.445679 803.000000,645.000000 C 803.288269,644.784973 800.074890,628.351746 800.000000,628.000000 C 798.854919,622.623108 797.427917,617.308777 796.000000,612.000000 C 790.683838,592.235718 784.055664,572.832520 779.000000,553.000000 C 776.722595,544.066162 774.635498,535.073303 773.000000,526.000000 C 771.925415,520.038452 768.718201,496.014862 768.000000,490.000000 C 767.205688,483.347351 766.333740,476.691589 766.000000,470.000000 C 765.950195,469.001251 766.000000,468.000000 766.000000,467.000000 C 766.000000,465.666656 766.000000,464.333344 766.000000,463.000000 C 766.000000,462.000000 766.000000,461.000000 766.000000,460.000000 C 766.000000,459.333344 766.471375,458.471405 766.000000,458.000000 C 765.528625,457.528595 758.664246,457.943146 758.000000,458.000000 C 748.226440,458.836365 738.428528,460.293610 729.000000,463.000000 C 728.048035,463.273254 685.915466,480.622040 685.000000,481.000000 C 680.994629,482.653717 676.728333,483.791565 673.000000,486.000000 C 667.490845,489.263275 661.877502,492.904419 658.000000,498.000000 C 654.925415,502.040405 653.020874,507.026520 652.000000,512.000000 C 651.463806,514.612183 650.918274,517.562561 652.000000,520.000000 C 655.829163,528.628357 664.627930,534.638855 673.000000,539.000000 C 685.585938,545.556213 741.898560,556.406616 756.000000,558.000000 C 768.586548,559.422241 781.545105,560.306702 794.000000,558.000000 C 819.626099,553.253967 844.171387,542.572876 867.000000,530.000000 C 887.029846,518.968506 905.268066,504.586212 922.000000,489.000000 C 931.338745,480.300751 939.633240,470.422089 947.000000,460.000000 C 956.307190,446.832733 964.418457,432.720154 971.000000,418.000000 C 972.721008,414.150848 974.324585,410.161926 975.000000,406.000000 C 975.106812,405.341949 975.373779,404.552032 975.000000,404.000000 C 972.987305,401.027161 968.569336,400.385834 965.000000,400.000000 C 956.936646,399.128387 924.880615,406.083221 917.000000,408.000000 C 906.449951,410.566071 895.876221,413.489014 886.000000,418.000000 C 874.300110,423.343903 862.982361,429.888489 853.000000,438.000000 C 847.692017,442.313141 842.603088,447.186615 839.000000,453.000000 C 837.499634,455.420746 836.508179,458.197693 836.000000,461.000000 C 835.524231,463.623871 834.707275,466.667633 836.000000,469.000000 C 837.524414,471.750458 841.026794,472.975830 844.000000,474.000000 C 853.031677,477.111115 891.449646,479.797211 901.000000,480.000000 C 922.370117,480.453735 944.084473,480.407837 965.000000,476.000000 C 968.302185,475.304077 980.888611,470.306976 984.000000,469.000000 C 990.461060,466.285950 997.057129,463.713959 1003.000000,460.000000 C 1004.809998,458.868866 1007.075439,457.923706 1008.000000,456.000000 C 1008.288818,455.399139 1008.460571,454.481995 1008.000000,454.000000 C 1006.732117,452.673157 987.832581,452.901642 986.000000,453.000000 C 981.622009,453.234955 977.238831,453.880035 973.000000,455.000000 C 971.189453,455.478394 953.736023,462.297668 952.000000,463.000000 C 949.646729,463.952057 946.846985,464.258453 945.000000,466.000000 C 944.728821,466.255676 944.142639,467.655701 944.000000,468.000000 C 943.596619,468.973846 942.757813,469.974091 943.000000,471.000000 C 943.108276,471.458801 944.617554,472.724365 945.000000,473.000000 C 946.813965,474.307465 948.920044,475.179230 951.000000,476.000000 C 955.365784,477.722778 973.472351,482.763885 978.000000,484.000000 C 987.280945,486.533813 996.763062,488.310211 1006.000000,491.000000 C 1009.036194,491.884125 1012.030640,492.912323 1015.000000,494.000000 C 1018.371033,495.234833 1021.724976,496.529297 1025.000000,498.000000 C 1026.359863,498.610687 1028.216309,498.731934 1029.000000,500.000000 C 1029.262817,500.425323 1029.049316,505.502441 1029.000000,506.000000 C 1028.832520,507.691406 1028.945801,509.587769 1028.000000,511.000000 C 1027.331299,511.998596 1023.074951,514.462524 1022.000000,515.000000 C 1016.625183,517.687439 1010.922974,519.985413 1005.000000,521.000000 C 997.443420,522.294373 989.620911,521.836548 982.000000,521.000000 C 978.945190,520.664673 975.711792,520.445862 973.000000,519.000000 C 968.735046,516.726013 955.097351,502.710449 952.000000,499.000000 C 943.053833,488.282959 935.766724,476.210663 929.000000,464.000000 C 922.421021,452.128204 900.308533,402.491669 895.000000,390.000000 C 885.340210,367.269196 876.149353,344.314972 868.000000,321.000000 C 866.043091,315.401428 848.717468,258.676605 847.000000,253.000000 C 844.281738,244.015457 841.622742,235.012909 839.000000,226.000000 C 834.253723,209.689621 829.393921,193.408813 825.000000,177.000000 C 821.089478,162.396454 818.057800,147.563309 814.000000,133.000000 C 812.783081,128.632538 811.289490,124.346581 810.000000,120.000000 C 807.929382,113.020554 805.763672,106.063240 804.000000,99.000000 C 802.843750,94.369568 802.856567,89.396706 801.000000,85.000000 C 800.532471,83.892815 799.348267,83.150284 799.000000,82.000000 C 798.806824,81.361938 798.528625,80.471405 799.000000,80.000000 C 799.471375,79.528595 800.384094,79.744881 801.000000,80.000000 C 801.871033,80.360794 802.297485,81.371223 803.000000,82.000000 C 804.590393,83.423462 806.580933,84.405724 808.000000,86.000000 C 810.090820,88.348915 811.221680,91.406464 813.000000,94.000000 C 813.942505,95.374573 815.070007,96.616920 816.000000,98.000000 C 817.084534,99.612938 818.064697,101.296181 819.000000,103.000000 C 819.358643,103.653381 819.666687,104.333336 820.000000,105.000000 C 820.333313,105.666664 820.666687,106.333336 821.000000,107.000000 C 821.333313,107.666664 821.694641,108.320053 822.000000,109.000000 C 823.470703,112.275040 824.765137,115.628937 826.000000,119.000000 C 826.725098,120.979553 827.223755,123.039925 828.000000,125.000000 C 829.757324,129.437302 831.802002,133.763641 834.000000,138.000000 C 837.370300,144.495895 840.541504,151.196777 845.000000,157.000000 C 846.148804,158.495270 847.804565,159.541779 849.000000,161.000000 C 850.523926,162.858887 851.793518,164.921021 853.000000,167.000000 C 853.374084,167.644669 853.472961,168.472946 854.000000,169.000000 C 854.527039,169.527054 855.274597,169.828751 856.000000,170.000000 C 856.648804,170.153168 857.333313,170.000000 858.000000,170.000000 C 858.666687,170.000000 859.832764,169.354645 860.000000,170.000000 C 860.860840,173.322159 853.930115,173.213379 851.000000,175.000000 C 844.843140,178.754089 839.071716,183.109695 833.000000,187.000000 C 828.715820,189.744980 824.131653,192.030411 820.000000,195.000000 C 815.771973,198.038879 811.681763,201.318207 808.000000,205.000000 C 806.159119,206.840897 804.755554,209.077576 803.000000,211.000000 C 802.364258,211.696198 800.504333,212.197998 801.000000,213.000000 C 801.277100,213.448334 812.508606,209.190582 813.000000,209.000000 C 816.060791,207.812866 818.939209,206.187134 822.000000,205.000000 C 822.982788,204.618835 824.445801,203.103333 825.000000,204.000000 C 825.743469,205.203003 823.000000,206.000000 822.000000,207.000000 C 820.333313,208.666672 818.378174,210.087891 817.000000,212.000000 C 816.564209,212.604660 815.497375,213.449615 816.000000,214.000000 C 817.387939,215.519806 837.155151,205.912476 839.000000,205.000000 C 848.787170,200.159225 885.788757,176.863007 895.000000,171.000000 C 897.027771,169.709305 898.921021,168.206482 901.000000,167.000000 C 901.644653,166.625885 903.230469,166.708817 903.000000,166.000000 C 902.843262,165.517944 891.491943,167.877808 891.000000,168.000000 C 884.861938,169.524551 860.926025,177.790359 855.000000,180.000000 C 819.851013,193.106079 784.652344,206.424637 751.000000,223.000000 C 742.024170,227.421021 732.938904,231.910278 725.000000,238.000000 C 724.251953,238.573822 722.548950,239.172073 723.000000,240.000000 C 726.690613,246.774719 896.534912,202.946838 904.000000,201.000000 C 951.238281,188.680573 997.164001,171.769852 1044.000000,158.000000 C 1113.757935,137.491089 1183.463135,116.644516 1254.000000,99.000000 C 1284.128906,91.463356 1314.124268,82.352928 1345.000000,79.000000 C 1349.307983,78.532173 1353.782593,78.004402 1358.000000,79.000000 C 1360.901611,79.684990 1365.107788,80.155197 1366.000000,83.000000 C 1367.874756,88.977898 1333.709229,143.951050 1330.000000,149.000000 C 1322.044556,159.828964 1283.831177,197.840103 1274.000000,207.000000 C 1261.275391,218.855713 1207.577637,263.131683 1194.000000,274.000000 C 1188.430786,278.457916 1181.545166,281.501831 1177.000000,287.000000 C 1176.525146,287.574463 1175.608154,288.365967 1176.000000,289.000000 C 1176.153320,289.248108 1182.708496,289.011200 1183.000000,289.000000 C 1187.342896,288.833221 1191.694580,288.593933 1196.000000,288.000000 C 1199.367432,287.535461 1202.617188,286.334961 1206.000000,286.000000 C 1206.663452,285.934296 1207.528564,286.471405 1208.000000,286.000000 C 1208.471436,285.528595 1208.255127,284.615906 1208.000000,284.000000 C 1207.819580,283.564484 1204.354248,280.311035 1204.000000,280.000000 C 1199.891846,276.392853 1195.470093,273.147644 1191.000000,270.000000 C 1186.463989,266.805878 1181.924438,263.554993 1177.000000,261.000000 C 1166.780396,255.697601 1156.087158,251.103088 1145.000000,248.000000 C 1134.920410,245.178940 1124.433472,243.835999 1114.000000,243.000000 C 1111.840210,242.826950 1103.165527,242.927902 1101.000000,243.000000 C 1095.991699,243.166763 1090.768311,242.459000 1086.000000,244.000000 C 1084.503906,244.483521 1079.230469,248.021149 1078.000000,249.000000 C 1076.524414,250.173889 1074.917603,251.352722 1074.000000,253.000000 C 1071.166992,258.085602 1070.419800,264.193726 1070.000000,270.000000 C 1069.445068,277.675568 1069.530029,285.711548 1072.000000,293.000000 C 1073.394897,297.116211 1076.046997,300.811157 1079.000000,304.000000 C 1089.191772,315.005829 1102.014160,323.492249 1115.000000,331.000000 C 1123.790894,336.082428 1133.127808,340.622864 1143.000000,343.000000 C 1162.164063,347.614532 1182.317993,348.082642 1202.000000,347.000000 C 1215.187744,346.274567 1228.829346,345.130219 1241.000000,340.000000 C 1246.284546,337.772430 1250.829224,333.936157 1255.000000,330.000000 C 1266.206665,319.423828 1276.791870,307.619354 1284.000000,294.000000 C 1291.497559,279.833984 1295.640991,263.853210 1298.000000,248.000000 C 1298.833984,242.395050 1299.674805,236.413528 1298.000000,231.000000 C 1295.732056,223.668884 1290.783447,217.043869 1285.000000,212.000000 C 1279.944336,207.590866 1255.283691,196.348480 1249.000000,194.000000 C 1237.716187,189.782730 1225.974976,186.308121 1214.000000,185.000000 C 1184.823242,181.812790 1154.896851,182.860580 1126.000000,188.000000 C 1098.705444,192.854416 1072.460938,203.032104 1047.000000,214.000000 C 1034.124023,219.546616 1021.640381,226.186127 1010.000000,234.000000 C 992.104492,246.012756 975.357849,259.877441 960.000000,275.000000 C 947.865784,286.948273 936.718201,300.015839 927.000000,314.000000 C 923.507935,319.024933 920.200989,324.290344 918.000000,330.000000 C 915.295044,337.017029 913.838562,344.526550 913.000000,352.000000 C 912.628296,355.312561 913.000000,358.666656 913.000000,362.000000 C 913.000000,362.666656 913.000000,363.333344 913.000000,364.000000 C 913.000000,364.666656 913.000000,365.333344 913.000000,366.000000 C 913.000000,366.666656 912.649536,367.432892 913.000000,368.000000 C 913.195923,368.317017 914.637268,368.914368 915.000000,369.000000 C 915.648804,369.153168 916.346924,368.865967 917.000000,369.000000 C 919.486755,369.510437 921.654663,371.028534 924.000000,372.000000 C 925.658386,372.686951 927.328918,373.344452 929.000000,374.000000 C 933.322144,375.695526 937.596924,377.527466 942.000000,379.000000 C 944.301392,379.769653 946.641602,380.428253 949.000000,381.000000 C 952.303650,381.800934 955.617188,382.665039 959.000000,383.000000 C 961.653687,383.262756 964.333313,383.000000 967.000000,383.000000 C 968.000000,383.000000 969.034668,383.260986 970.000000,383.000000 C 974.470337,381.791443 978.422485,378.940338 982.000000,376.000000 C 984.919189,373.600769 994.670593,361.975159 997.000000,359.000000 C 1000.249146,354.850189 1003.437012,350.605316 1006.000000,346.000000 C 1010.065369,338.695068 1013.792358,331.063202 1016.000000,323.000000 C 1016.709656,320.407990 1017.833008,309.682220 1018.000000,307.000000 C 1018.124268,305.003876 1018.124268,302.996124 1018.000000,301.000000 C 1017.833008,298.317780 1018.045410,295.475739 1017.000000,293.000000 C 1016.169739,291.033722 1014.573242,289.442383 1013.000000,288.000000 C 1012.114136,287.187805 1008.039490,284.603241 1007.000000,284.000000 C 1005.710693,283.251770 1004.398132,282.517212 1003.000000,282.000000 C 1001.710999,281.523163 1000.364075,281.167938 999.000000,281.000000 C 998.338318,280.918549 997.666687,281.000000 997.000000,281.000000 C 996.333313,281.000000 995.638062,280.806824 995.000000,281.000000 C 993.849731,281.348267 992.829407,282.130188 992.000000,283.000000 C 990.658691,284.406677 989.518799,286.126862 989.000000,288.000000 C 988.733093,288.963715 989.160156,290.012909 989.000000,291.000000 C 988.831177,292.040466 988.168823,292.959534 988.000000,294.000000 C 987.893188,294.658051 988.000000,295.333344 988.000000,296.000000 C 988.000000,296.666656 987.528625,297.528595 988.000000,298.000000 C 988.471375,298.471405 989.491333,297.569092 990.000000,298.000000 C 990.386780,298.327637 990.958191,303.494843 991.000000,304.000000 C 991.412415,308.982971 991.000000,314.000000 991.000000,319.000000 C 991.000000,321.666656 991.000000,324.333344 991.000000,327.000000 C 991.000000,332.666656 991.000000,338.333344 991.000000,344.000000 C 991.000000,348.333344 991.000000,352.666656 991.000000,357.000000 C 991.000000,363.333344 990.477600,369.688232 991.000000,376.000000 C 991.334473,380.041351 992.082214,384.050049 993.000000,388.000000 C 993.393799,389.694885 995.474792,396.341095 996.000000,398.000000 C 996.318176,399.004944 996.729431,399.981232 997.000000,401.000000 C 997.436279,402.642731 997.306274,404.448364 998.000000,406.000000 C 998.680298,407.521515 1000.123779,408.582245 1001.000000,410.000000 C 1001.783691,411.268066 1002.333313,412.666656 1003.000000,414.000000 C 1003.666687,415.333344 1003.945923,416.945892 1005.000000,418.000000 C 1005.527039,418.527039 1006.608154,418.365967 1007.000000,419.000000 C 1007.350464,419.567108 1006.744873,420.384094 1007.000000,421.000000 C 1007.270569,421.653290 1009.426392,423.586548 1010.000000,424.000000 C 1010.604675,424.435822 1011.274597,424.828766 1012.000000,425.000000 C 1012.973267,425.229767 1014.000000,425.000000 1015.000000,425.000000 C 1016.000000,425.000000 1017.036255,425.266937 1018.000000,425.000000 C 1019.873108,424.481171 1021.296204,422.935303 1023.000000,422.000000 C 1024.960205,420.923981 1027.000000,420.000000 1029.000000,419.000000 C 1029.666626,418.666656 1030.311401,418.285248 1031.000000,418.000000 C 1031.973877,417.596619 1032.959473,417.168854 1034.000000,417.000000 C 1034.658081,416.893219 1035.333374,417.000000 1036.000000,417.000000 C 1036.666626,417.000000 1038.000000,417.000000 1038.000000,417.000000 C 1038.000000,417.000000 1036.666626,417.000000 1036.000000,417.000000 C 1035.000000,417.000000 1033.957031,416.710205 1033.000000,417.000000 C 1031.849731,417.348267 1030.795410,418.098999 1030.000000,419.000000 C 1029.506714,419.558777 1028.297974,422.316772 1028.000000,423.000000 C 1025.723145,428.221161 1023.714050,433.568024 1022.000000,439.000000 C 1018.788574,449.177216 1016.147400,459.546417 1014.000000,470.000000 C 1013.117798,474.294647 1012.551636,478.650543 1012.000000,483.000000 C 1011.156982,489.646667 1010.333740,496.308411 1010.000000,503.000000 C 1009.883789,505.330444 1010.000000,507.666656 1010.000000,510.000000 C 1010.000000,514.000000 1010.000000,518.000000 1010.000000,522.000000 C 1010.000000,524.333313 1009.107056,526.844299 1010.000000,529.000000 C 1010.541199,530.306580 1012.000000,531.000000 1013.000000,532.000000 C 1013.666687,532.666687 1014.371216,533.297485 1015.000000,534.000000 C 1016.423462,535.590393 1017.576538,537.409607 1019.000000,539.000000 C 1019.628784,539.702515 1020.555115,540.168762 1021.000000,541.000000 C 1021.802002,542.498535 1021.627136,544.341736 1022.000000,546.000000 C 1022.301514,547.340881 1022.832092,548.635925 1023.000000,550.000000 C 1023.122192,550.992493 1023.000000,552.000000 1023.000000,553.000000 C 1023.000000,555.000000 1023.197083,557.009705 1023.000000,559.000000 C 1022.832520,560.691406 1022.436279,562.357239 1022.000000,564.000000 C 1021.729431,565.018799 1021.168823,565.959534 1021.000000,567.000000 C 1020.893188,567.658081 1021.255127,568.384094 1021.000000,569.000000 C 1020.639221,569.871033 1019.360779,570.128967 1019.000000,571.000000 C 1018.744873,571.615906 1019.000000,572.333313 1019.000000,573.000000 C 1019.000000,573.666687 1019.000000,574.333313 1019.000000,575.000000 C 1019.000000,576.333313 1019.000000,577.666687 1019.000000,579.000000 C 1019.000000,580.000000 1019.000000,581.000000 1019.000000,582.000000 C 1019.000000,582.666687 1019.000000,583.333313 1019.000000,584.000000 C 1019.000000,584.666687 1019.000000,585.333313 1019.000000,586.000000 C 1019.000000,587.333313 1019.000000,588.666687 1019.000000,590.000000 C 1019.000000,591.333313 1019.000000,592.666687 1019.000000,594.000000 C 1019.000000,594.666687 1019.000000,595.333313 1019.000000,596.000000 C 1019.000000,596.666687 1019.000000,597.333313 1019.000000,598.000000 C 1019.000000,600.000000 1019.244385,602.015015 1019.000000,604.000000 C 1018.832092,605.364075 1018.476807,606.710999 1018.000000,608.000000 C 1017.741394,608.699036 1017.171265,609.274597 1017.000000,610.000000 C 1016.846802,610.648804 1016.744873,611.384094 1017.000000,612.000000 C 1017.360779,612.871033 1018.179565,613.535461 1019.000000,614.000000 C 1020.195984,614.677124 1021.804016,614.322876 1023.000000,615.000000 C 1023.820435,615.464539 1024.897095,616.062805 1025.000000,617.000000 C 1025.474243,621.320190 1020.108093,624.199341 1018.000000,628.000000 C 1015.938965,631.715881 1008.779724,647.141479 1007.000000,651.000000 C 1004.249939,656.962219 1001.439209,662.903992 999.000000,669.000000 C 995.318176,678.201416 991.994873,687.552612 989.000000,697.000000 C 987.118225,702.936035 984.841064,708.829895 984.000000,715.000000 C 983.819946,716.321106 984.213562,717.683899 984.000000,719.000000 C 983.831177,720.040466 983.801392,721.315247 983.000000,722.000000 C 981.458496,723.317200 978.930847,723.618774 977.000000,723.000000 C 975.653259,722.568420 975.147278,720.826904 974.000000,720.000000 C 973.395325,719.564209 972.391846,719.634033 972.000000,719.000000 C 971.649536,718.432922 972.018494,717.666382 972.000000,717.000000 C 971.833252,710.993042 971.798645,704.955933 971.000000,699.000000 C 969.731445,689.539429 967.975159,680.069702 965.000000,671.000000 C 963.860657,667.526794 957.617493,654.277954 956.000000,651.000000 C 953.822144,646.586487 951.267456,642.368164 949.000000,638.000000 C 948.656616,637.338440 948.725403,635.828735 948.000000,636.000000 C 947.026733,636.229736 948.000000,638.000000 948.000000,639.000000 C 948.000000,639.666687 948.000000,640.333313 948.000000,641.000000 C 948.000000,642.000000 948.661804,643.250305 948.000000,644.000000 C 946.221436,646.014709 942.648865,645.453735 940.000000,645.000000 C 938.530701,644.748291 937.377258,643.570496 936.000000,643.000000 C 932.104553,641.386475 927.948669,640.478516 924.000000,639.000000 C 919.941833,637.480469 915.600525,636.411255 912.000000,634.000000 C 910.824951,633.213074 910.068359,631.926575 909.000000,631.000000 C 907.740906,629.908020 906.145386,629.210754 905.000000,628.000000 C 904.174072,627.126892 902.988098,626.201782 903.000000,625.000000 C 903.046204,620.330566 915.873962,605.468933 919.000000,602.000000 C 930.787109,588.919800 985.362061,544.137085 999.000000,533.000000 C 1013.356445,521.276123 1028.402954,510.422821 1043.000000,499.000000 C 1060.751953,485.108337 1078.872803,471.655060 1096.000000,457.000000 C 1100.480835,453.165955 1104.747437,449.085815 1109.000000,445.000000 C 1109.679810,444.346802 1110.333374,443.666656 1111.000000,443.000000 C 1111.666626,442.333344 1113.360840,441.871033 1113.000000,441.000000 C 1110.958984,436.072632 1102.333374,441.000000 1097.000000,441.000000 C 1088.666626,441.000000 1080.333374,441.000000 1072.000000,441.000000 C 1062.666626,441.000000 1053.333374,441.000000 1044.000000,441.000000 C 1022.000000,441.000000 999.971558,442.118103 978.000000,441.000000 C 961.603088,440.165588 945.241394,438.402649 929.000000,436.000000 C 904.813721,432.422028 880.800354,427.596527 857.000000,422.000000 C 841.176636,418.279236 825.719360,413.138184 810.000000,409.000000 C 802.025513,406.900665 794.000000,405.000000 786.000000,403.000000 C 783.333313,402.333344 780.728149,401.335846 778.000000,401.000000 C 774.691650,400.592712 771.333313,401.000000 768.000000,401.000000 C 767.333313,401.000000 766.661682,400.918549 766.000000,401.000000 C 764.635925,401.167938 763.084961,401.156342 762.000000,402.000000 C 760.057373,403.510529 755.858337,412.693756 755.000000,415.000000 C 753.928040,417.880157 753.250427,420.937042 753.000000,424.000000 C 752.510254,429.989258 751.233948,436.665192 754.000000,442.000000 C 756.348328,446.529144 773.596375,458.423981 778.000000,461.000000 C 796.967773,472.095642 817.645874,480.814423 839.000000,486.000000 C 894.602905,499.502472 952.787109,501.825623 1010.000000,501.000000 C 1061.677368,500.254242 1113.641968,494.626740 1164.000000,483.000000 C 1183.619507,478.470215 1202.458130,470.851410 1221.000000,463.000000 C 1251.886108,449.921478 1283.680420,437.458618 1311.000000,418.000000 C 1345.175049,393.658539 1374.324585,362.386169 1401.000000,330.000000 C 1418.751099,308.448761 1434.011475,284.715424 1447.000000,260.000000 C 1466.753784,222.411438 1484.782593,183.215485 1495.000000,142.000000 C 1501.448486,115.987717 1504.147705,88.775078 1503.000000,62.000000 C 1502.767578,56.578705 1502.394897,50.869186 1500.000000,46.000000 C 1494.477783,34.772343 1485.866943,24.201988 1475.000000,18.000000 C 1461.572388,10.336611 1399.386841,1.507179 1384.000000,0.000000 C 1374.379395,-0.942361 1335.662964,-0.266363 1326.000000,0.000000 C 1277.611572,1.333840 1228.876221,0.852431 1181.000000,8.000000 C 1148.576416,12.840605 1021.592957,46.247448 990.000000,55.000000 C 982.099915,57.188648 903.820618,81.542412 896.000000,84.000000 C 854.264160,97.115311 812.856689,111.275688 771.000000,124.000000 C 751.418030,129.952850 731.635437,135.226044 712.000000,141.000000 C 708.661255,141.981781 705.443237,143.494644 702.000000,144.000000 C 700.021179,144.290421 697.576416,142.769180 696.000000,144.000000 C 694.916687,144.845810 694.765442,146.645798 695.000000,148.000000 C 695.102539,148.592102 696.593933,150.557053 697.000000,151.000000 C 698.442383,152.573242 700.220703,153.821136 702.000000,155.000000 C 713.687378,162.743454 726.157227,169.376938 739.000000,175.000000 C 774.824707,190.685425 812.343933,202.442230 850.000000,213.000000 C 869.390686,218.436630 889.072449,223.093521 909.000000,226.000000 C 940.749023,230.630661 972.924194,232.233353 1005.000000,233.000000 C 1018.333679,233.318695 1032.191895,235.720581 1045.000000,232.000000 C 1045.933228,231.728897 1054.178833,226.519684 1055.000000,226.000000 C 1060.077881,222.786560 1065.914429,220.406754 1070.000000,216.000000 C 1074.160278,211.512634 1076.737793,205.685654 1079.000000,200.000000 C 1079.508057,198.723007 1079.832031,197.364075 1080.000000,196.000000 C 1080.162964,194.676651 1080.386353,193.276123 1080.000000,192.000000 C 1079.651733,190.849716 1079.038696,189.604507 1078.000000,189.000000 C 1076.989136,188.411682 1065.169556,187.984543 1064.000000,188.000000 C 1029.839966,188.451263 995.727661,192.563599 962.000000,198.000000 C 934.336731,202.458923 825.169800,228.148590 798.000000,235.000000 C 783.570679,238.638641 726.306519,254.905075 712.000000,259.000000 C 656.226318,274.963989 601.067688,293.101440 545.000000,308.000000 C 494.991394,321.288483 444.290558,331.821991 394.000000,344.000000 C 373.649109,348.928040 353.437775,354.445679 333.000000,359.000000 C 304.797302,365.284668 276.657776,372.309418 248.000000,376.000000 C 239.555054,377.087555 205.511017,378.749878 197.000000,379.000000 C 192.335342,379.137085 187.634827,379.544159 183.000000,379.000000 C 175.853409,378.160950 168.495758,377.095612 162.000000,374.000000 C 157.064697,371.648041 152.777908,367.951752 149.000000,364.000000 C 146.188293,361.058929 143.829071,357.634552 142.000000,354.000000 C 137.261551,344.584167 133.896103,334.368988 132.000000,324.000000 C 130.499802,315.796051 130.678452,307.333801 131.000000,299.000000 C 131.219986,293.298492 131.484222,287.500732 133.000000,282.000000 C 136.686386,268.622192 142.927261,255.938675 150.000000,244.000000 C 156.184387,233.560867 163.651810,223.805099 172.000000,215.000000 C 175.905563,210.880676 180.697205,207.702454 185.000000,204.000000 C 195.743637,194.755371 205.634659,184.468643 217.000000,176.000000 C 221.264099,172.822693 239.395752,161.660583 244.000000,159.000000 C 261.299896,149.003189 278.693726,139.006439 297.000000,131.000000 C 308.494202,125.972878 356.046509,109.808311 368.000000,106.000000 C 379.560974,102.316742 391.220459,98.909447 403.000000,96.000000 C 425.150055,90.529114 447.424622,85.302734 470.000000,82.000000 C 489.529266,79.142906 509.280457,77.834076 529.000000,77.000000 C 536.326782,76.690102 543.671814,76.725578 551.000000,77.000000 C 564.361389,77.500351 577.920044,77.226570 591.000000,80.000000 C 594.635681,80.770897 629.533508,93.659836 633.000000,95.000000 C 637.041809,96.562584 641.190125,97.935410 645.000000,100.000000 C 652.803528,104.228760 660.010986,109.529053 667.000000,115.000000 C 673.691895,120.238373 680.024109,125.957581 686.000000,132.000000 C 688.491638,134.519379 690.795654,137.225769 693.000000,140.000000 C 699.388123,148.039658 705.543518,156.301086 711.000000,165.000000 C 715.834595,172.707443 720.507813,180.598663 724.000000,189.000000 C 725.335754,192.213547 725.800354,195.733200 727.000000,199.000000 C 729.006714,204.464615 731.826111,209.599701 734.000000,215.000000 C 736.520447,221.261230 738.648376,227.673431 741.000000,234.000000 C 741.992310,236.669540 743.049500,239.315277 744.000000,242.000000 C 746.462524,248.955612 748.176331,256.183014 751.000000,263.000000 C 753.281860,268.508942 756.333313,273.666656 759.000000,279.000000 C 760.000000,281.000000 760.753662,283.143494 762.000000,285.000000 C 763.975037,287.941895 766.301941,290.703003 769.000000,293.000000 C 770.197205,294.019257 775.611511,297.262238 777.000000,298.000000 C 779.899109,299.540436 782.804871,301.245728 786.000000,302.000000 C 793.144531,303.686584 800.666931,303.339691 808.000000,303.000000 C 820.102234,302.439362 832.098083,300.263336 844.000000,298.000000 C 855.119324,295.885498 866.329712,293.775726 877.000000,290.000000 C 896.819519,282.986755 914.834656,271.642365 934.000000,263.000000 C 943.256714,258.825806 952.910278,255.526367 962.000000,251.000000 C 974.028259,245.010330 985.886719,238.553223 997.000000,231.000000 C 1004.060974,226.200928 1010.808472,220.878250 1017.000000,215.000000 C 1019.910950,212.236374 1022.718445,209.302383 1025.000000,206.000000 C 1029.491699,199.498550 1033.638794,192.541183 1036.000000,185.000000 C 1036.802979,182.435349 1037.833008,171.682220 1038.000000,169.000000 C 1038.165649,166.338486 1039.020508,163.463684 1038.000000,161.000000 C 1036.917603,158.386871 1028.205078,150.771347 1026.000000,149.000000 C 1018.755005,143.180084 987.029846,123.677910 979.000000,119.000000 C 967.919556,112.544907 956.543030,106.585938 945.000000,101.000000 C 920.414429,89.102501 895.296814,78.299118 870.000000,68.000000 C 848.897888,59.408665 827.514404,51.499424 806.000000,44.000000 C 795.747375,40.426167 785.415649,37.066490 775.000000,34.000000 C 760.107849,29.615566 745.257446,24.865229 730.000000,22.000000 C 718.133606,19.771584 706.055359,18.667688 694.000000,18.000000 C 689.340454,17.741932 684.666687,18.000000 680.000000,18.000000 C 670.000000,18.000000 659.862488,16.347321 650.000000,18.000000 C 639.915344,19.689905 630.204224,23.546055 621.000000,28.000000 C 616.546997,30.154806 600.020386,41.117496 596.000000,44.000000 C 580.388550,55.192989 564.349121,66.186951 551.000000,80.000000 C 535.109253,96.443008 521.760803,115.389496 510.000000,135.000000 C 503.557861,145.741882 497.966766,157.119186 494.000000,169.000000 C 488.285828,186.114441 484.119507,203.991608 483.000000,222.000000 C 481.713562,242.693817 482.240387,264.082275 488.000000,284.000000 C 490.195129,291.591156 494.612549,298.427734 499.000000,305.000000 C 507.672791,317.991638 517.153442,330.818665 529.000000,341.000000 C 541.703003,351.917389 556.627869,360.347656 572.000000,367.000000 C 579.942078,370.436951 588.476746,372.502380 597.000000,374.000000 C 610.169067,376.313934 623.636719,377.448090 637.000000,377.000000 C 638.766785,376.940765 656.253052,374.270325 658.000000,374.000000 C 660.003723,373.689941 662.032227,373.488739 664.000000,373.000000 C 665.023010,372.745911 665.959534,372.168854 667.000000,372.000000 C 667.658081,371.893219 668.333313,372.000000 669.000000,372.000000 C 669.666687,372.000000 670.333313,372.000000 671.000000,372.000000 C 671.666687,372.000000 672.333313,372.000000 673.000000,372.000000 C 674.000000,372.000000 675.000000,372.000000 676.000000,372.000000 C 677.666687,372.000000 679.333313,372.000000 681.000000,372.000000 C 682.333313,372.000000 683.666687,372.000000 685.000000,372.000000 C 685.666687,372.000000 686.333313,372.000000 687.000000,372.000000 C 688.000000,372.000000 689.000000,372.000000 690.000000,372.000000 C 690.666687,372.000000 691.412231,371.685425 692.000000,372.000000 C 693.059631,372.567108 693.734131,373.827911 694.000000,375.000000 C 694.521362,377.298645 693.935913,379.836761 693.000000,382.000000 C 692.152527,383.958893 690.307129,385.312714 689.000000,387.000000 C 687.979309,388.317566 687.192139,389.835266 686.000000,391.000000 C 683.948975,393.003876 681.603271,394.797852 679.000000,396.000000 C 676.504517,397.152405 673.728149,397.664154 671.000000,398.000000 C 670.007507,398.122192 669.000000,398.000000 668.000000,398.000000 C 665.666687,398.000000 663.248657,398.622833 661.000000,398.000000 C 659.126892,397.481171 657.406677,396.341278 656.000000,395.000000 C 655.891296,394.896332 654.081482,392.126221 654.000000,392.000000 C 650.588623,386.716248 646.951111,381.553955 644.000000,376.000000 C 642.459534,373.100891 640.975769,370.134583 640.000000,367.000000 C 638.387146,361.818970 637.502136,356.402985 637.000000,351.000000 C 636.753235,348.344788 637.000000,345.666656 637.000000,343.000000 C 637.000000,342.000000 636.749146,340.968018 637.000000,340.000000 C 637.860840,336.677856 639.521179,333.373413 642.000000,331.000000 C 645.499390,327.649414 663.510437,319.821075 668.000000,318.000000 C 681.285828,312.610931 694.906738,307.633514 709.000000,305.000000 C 735.264099,300.092224 762.283081,299.691589 789.000000,300.000000 C 812.417358,300.270325 835.866028,302.357941 859.000000,306.000000 C 859.549133,306.086456 884.458435,311.874542 885.000000,312.000000 C 899.336182,315.321167 913.578491,319.071472 928.000000,322.000000 C 935.626099,323.548615 943.314026,324.782928 951.000000,326.000000 C 953.328003,326.368622 955.648926,326.832916 958.000000,327.000000 C 960.327454,327.165405 962.798218,327.772339 965.000000,327.000000 C 966.007019,326.646759 969.278809,323.786621 970.000000,323.000000 C 971.624390,321.228241 973.169983,319.255859 974.000000,317.000000 C 975.970154,311.645203 976.229004,305.701141 976.000000,300.000000 C 975.727173,293.206787 974.672913,286.251221 972.000000,280.000000 C 970.400330,276.258820 967.921570,272.831940 965.000000,270.000000 C 949.266785,254.749557 929.618347,243.758636 910.000000,234.000000 C 875.449402,216.813721 838.287903,204.935959 801.000000,195.000000 C 779.076294,189.158066 756.535950,185.628418 734.000000,183.000000 C 697.856689,178.784515 661.384949,177.495224 625.000000,177.000000 C 600.992981,176.673248 576.932129,177.077454 553.000000,179.000000 C 547.971924,179.403915 542.934143,179.951920 538.000000,181.000000 C 532.222229,182.227264 525.993530,182.845093 521.000000,186.000000 C 517.407715,188.269608 506.387939,201.485275 504.000000,205.000000 C 498.554657,213.014801 494.646667,222.022766 491.000000,231.000000 C 482.311371,252.389420 475.201843,274.506866 470.000000,297.000000 C 468.842224,302.006226 461.681183,352.906982 461.000000,358.000000 C 459.887360,366.319031 459.695038,374.779816 458.000000,383.000000 C 454.911407,397.978302 451.914978,413.359192 445.000000,427.000000 C 441.020935,434.849304 435.148651,441.704102 429.000000,448.000000 C 426.017456,451.053955 422.679810,453.836365 419.000000,456.000000 C 412.169922,460.015930 404.704132,463.149506 397.000000,465.000000 C 393.097137,465.937439 389.012146,466.117889 385.000000,466.000000 C 377.931976,465.792297 369.946686,466.825836 364.000000,463.000000 C 359.839691,460.323425 349.958954,442.542542 348.000000,438.000000 C 346.367279,434.213928 342.707001,418.062042 342.000000,414.000000 C 340.276733,404.098969 339.291534,394.045654 339.000000,384.000000 C 338.767731,375.996429 337.702484,367.670227 340.000000,360.000000 C 340.557709,358.138092 344.833527,351.554718 346.000000,350.000000 C 353.361176,340.188904 361.397369,330.631104 371.000000,323.000000 C 400.455475,299.592102 434.484467,281.974426 469.000000,267.000000 C 512.526123,248.116394 558.828979,235.924683 605.000000,225.000000 C 626.704163,219.864502 648.750427,215.549591 671.000000,214.000000 C 709.253723,211.335785 747.946594,212.268723 786.000000,217.000000 C 799.562256,218.686234 813.066223,221.584717 826.000000,226.000000 C 846.887085,233.130325 866.887146,242.963211 886.000000,254.000000 C 896.570740,260.104095 906.898071,266.866455 916.000000,275.000000 C 921.635071,280.035553 926.489441,285.936493 931.000000,292.000000 C 939.667480,303.651764 947.444702,316.041718 954.000000,329.000000 C 958.861755,338.610596 962.577515,348.787933 966.000000,359.000000 C 967.207703,362.603577 967.792297,366.396423 969.000000,370.000000 C 970.711243,375.106049 973.147705,379.943420 975.000000,385.000000 C 975.725098,386.979553 974.891785,391.000000 977.000000,391.000000 C 977.263550,391.000000 977.948547,388.258453 978.000000,388.000000 C 978.913574,383.411499 979.012756,378.678528 979.000000,374.000000 C 978.988098,369.653870 979.501648,365.078461 978.000000,361.000000 C 977.216736,358.872711 971.541870,351.661774 970.000000,350.000000 C 960.187866,339.424866 949.215515,329.674164 937.000000,322.000000 C 911.980957,306.282257 884.117615,295.077393 856.000000,286.000000 C 849.032166,283.750519 820.226440,278.178925 813.000000,277.000000 C 796.106079,274.243927 779.087891,272.001709 762.000000,271.000000 C 756.675781,270.687897 751.333313,271.000000 746.000000,271.000000 C 745.000000,271.000000 744.000000,271.000000 743.000000,271.000000 C 741.666687,271.000000 740.134216,270.299011 739.000000,271.000000 C 738.365967,271.391846 738.333313,272.333344 738.000000,273.000000 C 737.666687,273.666656 737.171265,274.274597 737.000000,275.000000 C 736.846802,275.648834 736.846802,276.351166 737.000000,277.000000 C 737.171265,277.725403 737.506714,278.441223 738.000000,279.000000 C 739.590759,280.802002 742.091431,281.538788 744.000000,283.000000 C 746.813477,285.154022 749.282532,287.726013 752.000000,290.000000 C 753.636902,291.369751 755.470154,292.511688 757.000000,294.000000 C 761.068726,297.958252 764.617859,302.441101 768.000000,307.000000 C 772.021423,312.420654 776.076172,317.916656 779.000000,324.000000 C 780.369873,326.850159 781.215210,329.936646 782.000000,333.000000 C 783.849854,340.220367 785.330627,347.576569 786.000000,355.000000 C 786.299377,358.319855 786.000000,361.666656 786.000000,365.000000 C 786.000000,369.333344 786.000000,373.666656 786.000000,378.000000 C 786.000000,379.666656 786.000000,381.333344 786.000000,383.000000 C 786.000000,383.666656 785.610168,384.459167 786.000000,385.000000 C 786.308167,385.427551 788.479736,385.915588 789.000000,386.000000 C 789.987061,386.160187 791.000000,386.000000 792.000000,386.000000 C 794.000000,386.000000 796.000000,386.000000 798.000000,386.000000 C 798.666687,386.000000 799.528625,385.528595 800.000000,386.000000 C 800.471375,386.471405 800.255127,387.384094 800.000000,388.000000 C 799.458801,389.306549 797.908936,389.916595 797.000000,391.000000 C 794.384827,394.117096 792.387634,397.705353 790.000000,401.000000 C 789.021973,402.349548 787.527039,403.418854 787.000000,405.000000 C 786.683777,405.948669 787.000000,407.000000 787.000000,408.000000 C 787.000000,408.666656 786.846802,409.351166 787.000000,410.000000 C 787.342468,411.450836 788.333313,412.666656 789.000000,414.000000 C 789.333313,414.666656 789.564209,415.395325 790.000000,416.000000 C 791.102539,417.529694 793.070984,418.359131 794.000000,420.000000 C 794.338562,420.597992 794.916016,423.317963 795.000000,424.000000 C 795.081482,424.661682 794.918518,425.338318 795.000000,426.000000 C 795.167908,427.364075 795.698486,428.659119 796.000000,430.000000 C 796.372864,431.658264 796.349548,433.429718 797.000000,435.000000 C 797.459900,436.110352 798.196716,437.106049 799.000000,438.000000 C 799.870056,438.968231 803.969666,442.204468 805.000000,443.000000 C 809.539307,446.504791 813.968201,450.248657 819.000000,453.000000 C 820.575012,453.861176 822.458191,454.080750 824.000000,455.000000 C 826.236145,456.333191 828.469849,457.893738 830.000000,460.000000 C 830.527527,460.726135 831.723877,464.145996 832.000000,465.000000 C 832.422852,466.307709 832.770447,467.644928 833.000000,469.000000 C 833.614990,472.630066 833.650146,476.334869 834.000000,480.000000 C 834.318298,483.334808 834.833130,486.654205 835.000000,490.000000 C 835.066406,491.331665 834.693665,492.702332 835.000000,494.000000 C 835.513733,496.176239 836.418884,498.418854 838.000000,500.000000 C 838.527039,500.527039 839.355347,500.625885 840.000000,501.000000 C 843.118469,502.809723 845.970947,505.044312 849.000000,507.000000 C 851.641907,508.705688 854.155090,510.660065 857.000000,512.000000 C 858.907227,512.898315 861.509277,512.509277 863.000000,514.000000 C 863.745361,514.745361 863.309387,516.203674 864.000000,517.000000 C 864.488342,517.563110 865.511658,517.436890 866.000000,518.000000 C 866.690613,518.796326 866.536865,520.053101 867.000000,521.000000 C 867.528015,522.079651 868.333313,523.000000 869.000000,524.000000 C 869.666687,525.000000 870.098999,526.204590 871.000000,527.000000 C 871.558777,527.493286 872.472961,527.472961 873.000000,528.000000 C 873.527039,528.527039 873.451477,529.495300 874.000000,530.000000 C 875.320923,531.215454 877.237305,531.660522 879.000000,532.000000 C 879.981934,532.189087 881.000000,532.000000 882.000000,532.000000 C 883.000000,532.000000 884.135071,532.501953 885.000000,532.000000 C 886.162170,531.325562 888.478333,526.238281 889.000000,525.000000 C 889.942139,522.763672 890.505005,520.375671 891.000000,518.000000 C 895.115784,498.247253 897.663757,478.132690 899.000000,458.000000 C 901.207581,424.739838 902.284607,391.171112 899.000000,358.000000 C 897.492676,342.777374 895.036377,327.444214 890.000000,313.000000 C 880.134460,284.705841 867.449463,256.611542 849.000000,233.000000 C 839.327209,220.620850 790.496521,180.520660 778.000000,171.000000 C 758.291382,155.984695 737.603333,142.132034 716.000000,130.000000 C 673.614502,106.197052 630.265686,82.919624 584.000000,68.000000 C 549.466797,56.863842 513.129639,51.347610 477.000000,48.000000 C 463.723541,46.769859 450.025360,45.150856 437.000000,48.000000 C 410.481293,53.800648 384.484924,65.408241 363.000000,82.000000 C 330.942566,106.756363 307.018677,141.376724 286.000000,176.000000 C 275.461182,193.360229 267.157684,212.357117 262.000000,232.000000 C 252.632736,267.674896 247.860992,305.177856 250.000000,342.000000 C 250.694031,353.947418 253.609161,365.867035 258.000000,377.000000 C 264.083038,392.423523 269.981934,409.732635 283.000000,420.000000 C 302.127502,435.085876 328.757538,438.602631 353.000000,441.000000 C 377.656494,443.438324 402.950104,439.957520 427.000000,434.000000 C 499.103210,416.138977 563.796265,375.994934 633.000000,349.000000 C 696.861755,324.088867 759.792114,295.759491 826.000000,278.000000 C 850.506470,271.426422 875.668213,266.441956 901.000000,265.000000 C 924.001404,263.690704 948.808350,259.961700 970.000000,269.000000 C 975.857788,271.498352 981.627014,276.090302 984.000000,282.000000 C 986.115173,287.267670 985.365173,293.839752 983.000000,299.000000 C 973.423584,319.893616 902.350464,381.161255 884.000000,395.000000 C 831.183289,434.830994 772.040283,466.228119 712.000000,494.000000 C 694.966370,501.878967 676.548828,506.347198 659.000000,513.000000 C 657.321533,513.636292 653.466125,513.286194 654.000000,515.000000 C 654.139771,515.448730 675.545898,510.121277 676.000000,510.000000 C 684.760559,507.660217 693.265076,504.433807 702.000000,502.000000 C 704.647888,501.262207 707.318237,500.603027 710.000000,500.000000 C 711.658264,499.627106 713.308594,499.167480 715.000000,499.000000 C 715.663452,498.934296 716.357544,499.177948 717.000000,499.000000 C 722.619385,497.443512 727.000000,493.000000 732.000000,490.000000 C 742.000000,484.000000 751.830505,477.708008 762.000000,472.000000 C 803.345520,448.793365 845.303772,426.616272 888.000000,406.000000 C 916.893005,392.048737 945.956787,378.262756 976.000000,367.000000 C 989.722717,361.855560 1003.764771,357.483765 1018.000000,354.000000 C 1021.619934,353.114105 1025.288330,352.334686 1029.000000,352.000000 C 1033.647827,351.580902 1038.393555,351.252472 1043.000000,352.000000 C 1045.080933,352.337708 1047.298828,352.754791 1049.000000,354.000000 C 1052.658447,356.677948 1055.419922,360.750397 1057.000000,365.000000 C 1059.797607,372.524475 1059.458374,380.985352 1059.000000,389.000000 C 1058.611816,395.787598 1057.257446,402.587006 1055.000000,409.000000 C 1048.762695,426.719604 1038.836426,442.995789 1029.000000,459.000000 C 1020.620239,472.634186 1010.200378,484.905548 1001.000000,498.000000 C 997.279175,503.295685 993.928589,508.856537 990.000000,514.000000 C 983.108826,523.022217 975.153198,531.184082 968.000000,540.000000 C 965.605347,542.951294 963.515259,546.150757 961.000000,549.000000 C 956.632324,553.947632 952.399475,559.205078 947.000000,563.000000 C 944.438049,564.800598 932.891113,569.796997 930.000000,571.000000 C 926.397827,572.498840 922.864075,574.460449 919.000000,575.000000 C 909.732788,576.293945 900.061890,575.331848 891.000000,573.000000 C 877.133911,569.431946 864.380005,562.192749 852.000000,555.000000 C 849.520630,553.559509 840.282043,546.736206 838.000000,545.000000 C 830.832458,539.546814 823.834839,533.864868 817.000000,528.000000 C 809.478699,521.546143 802.370483,514.625610 795.000000,508.000000 C 789.029907,502.633240 782.944214,497.395447 777.000000,492.000000 C 763.202332,479.476135 749.733276,466.594391 736.000000,454.000000 C 718.086426,437.571960 699.598633,421.765045 682.000000,405.000000 C 670.395142,393.944824 658.738220,382.898743 648.000000,371.000000 C 631.014038,352.178314 613.664307,333.355682 600.000000,312.000000 C 595.098877,304.340149 579.733154,271.292053 576.000000,263.000000 C 573.484192,257.411957 570.502747,251.941162 569.000000,246.000000 C 568.219177,242.913055 567.166870,230.179779 567.000000,227.000000 C 566.895142,225.002747 567.000000,223.000000 567.000000,221.000000 C 567.000000,220.333328 566.351196,219.153168 567.000000,219.000000 C 569.176270,218.486252 568.877686,223.066010 570.000000,225.000000 C 571.206482,227.078979 572.566040,229.070892 574.000000,231.000000 C 579.932495,238.980881 586.184143,246.758926 593.000000,254.000000 C 611.751038,273.920898 631.802307,292.705444 653.000000,310.000000 C 665.039734,319.822876 677.806396,328.791870 691.000000,337.000000 C 718.987122,354.411652 748.148926,370.022888 778.000000,384.000000 C 800.759460,394.656616 823.884705,404.928345 848.000000,412.000000 C 856.468872,414.483429 865.254089,415.817535 874.000000,417.000000 C 886.591492,418.702393 899.342468,421.109680 912.000000,420.000000 C 921.262024,419.188019 930.446045,416.643433 939.000000,413.000000 C 943.681152,411.006104 948.083313,408.247864 952.000000,405.000000 C 967.257935,392.347534 980.621826,377.230408 992.000000,361.000000 C 1008.005615,338.168793 1020.824280,312.959564 1031.000000,287.000000 C 1033.582031,280.412994 1040.444946,252.901978 1042.000000,246.000000 C 1047.288330,222.528259 1052.824463,198.961548 1055.000000,175.000000 C 1055.482300,169.688507 1055.754272,164.279724 1055.000000,159.000000 C 1053.821533,150.750427 1051.518555,142.554092 1048.000000,135.000000 C 1045.970215,130.642136 1043.479248,126.317520 1040.000000,123.000000 C 1038.593384,121.658714 1036.642456,121.039368 1035.000000,120.000000 C 1031.953247,118.071930 1029.307373,115.435707 1026.000000,114.000000 C 1023.330017,112.840973 1011.876282,110.446281 1009.000000,110.000000 C 1004.705261,109.333633 1000.346130,109.017204 996.000000,109.000000 C 986.310425,108.961655 976.511963,109.152832 967.000000,111.000000 C 959.601257,112.436790 931.093994,122.454254 924.000000,125.000000 C 921.640381,125.846764 898.329102,135.072617 896.000000,136.000000 C 876.964966,143.579239 858.203552,151.858414 839.000000,159.000000 C 831.738159,161.700607 802.361206,171.583298 795.000000,174.000000 C 788.689758,176.071671 782.475830,178.525406 776.000000,180.000000 C 766.807190,182.093246 757.382202,183.070984 748.000000,184.000000 C 742.020020,184.592133 736.006958,184.833267 730.000000,185.000000 C 728.333984,185.046249 726.666687,185.000000 725.000000,185.000000 C 723.333313,185.000000 721.417725,185.876221 720.000000,185.000000 C 719.365967,184.608139 719.333313,183.666672 719.000000,183.000000 C 718.666687,182.333328 718.171265,181.725418 718.000000,181.000000 C 717.846802,180.351166 718.000000,179.666672 718.000000,179.000000 C 718.000000,178.333328 718.000000,177.666672 718.000000,177.000000 C 718.000000,176.333328 717.357544,175.177963 718.000000,175.000000 C 719.873108,174.481171 719.915466,178.387070 721.000000,180.000000 C 721.929993,181.383087 723.123779,182.582245 724.000000,184.000000 C 725.175598,185.902115 725.877686,188.066010 727.000000,190.000000 C 727.603271,191.039490 730.305847,195.018875 731.000000,196.000000 C 731.962646,197.360565 732.720398,198.932083 734.000000,200.000000 C 734.572266,200.477585 735.441223,200.506714 736.000000,201.000000 C 736.901001,201.795395 737.333313,203.000000 738.000000,204.000000 C 738.666687,205.000000 739.651733,205.849716 740.000000,207.000000 C 740.193176,207.638062 740.000000,208.333328 740.000000,209.000000 C 740.000000,209.666672 740.000000,210.333328 740.000000,211.000000 C 740.000000,211.666672 740.000000,212.333328 740.000000,213.000000 C 740.000000,213.666672 740.171082,214.355667 740.000000,215.000000 C 739.956909,215.162338 736.084900,221.855057 736.000000,222.000000 C 734.035583,225.354416 732.078735,228.715195 730.000000,232.000000 C 729.357300,233.015579 726.671875,237.003479 726.000000,238.000000 C 721.038269,245.359268 716.347229,252.915878 711.000000,260.000000 C 707.863098,264.155823 704.511169,268.155151 701.000000,272.000000 C 699.410583,273.740479 697.967712,275.702484 696.000000,277.000000 C 694.501404,277.988159 687.720642,280.488495 686.000000,281.000000 C 682.741577,281.968628 679.382813,282.665039 676.000000,283.000000 C 674.673157,283.131378 673.328796,283.109985 672.000000,283.000000 C 669.979309,282.832764 667.765930,282.996277 666.000000,282.000000 C 664.661682,281.244965 660.812012,276.304535 660.000000,275.000000 C 658.658508,272.844818 657.647156,270.454712 657.000000,268.000000 C 655.845764,263.621918 654.250366,245.520767 654.000000,241.000000 C 653.391724,230.016830 654.000000,219.000000 654.000000,208.000000 C 654.000000,204.666672 654.000000,201.333328 654.000000,198.000000 C 654.000000,191.666672 654.000000,185.333328 654.000000,179.000000 C 654.000000,175.666672 654.000000,172.333328 654.000000,169.000000 C 654.000000,168.000000 654.000000,167.000000 654.000000,166.000000 C 654.000000,165.000000 653.292908,163.707108 654.000000,163.000000 C 654.294617,162.705368 658.584778,162.965637 659.000000,163.000000 C 661.020691,163.167236 663.071777,163.372986 665.000000,164.000000 C 674.214661,166.996460 682.145874,173.063843 691.000000,177.000000 C 698.522827,180.344330 706.208008,183.342484 714.000000,186.000000 C 735.364929,193.286667 756.826843,200.768509 779.000000,205.000000 C 793.140015,207.698456 807.607300,208.731842 822.000000,209.000000 C 828.008179,209.111938 834.162415,209.425980 840.000000,208.000000 C 858.116150,203.574677 874.943604,194.485214 891.000000,185.000000 C 898.174927,180.761475 924.611389,160.350708 931.000000,155.000000 C 936.243347,150.608505 941.658691,146.284958 946.000000,141.000000 C 953.221741,132.208481 960.177917,122.716171 964.000000,112.000000 C 966.597351,104.717712 967.527466,96.713593 967.000000,89.000000 C 966.740723,85.208267 965.860474,81.314072 964.000000,78.000000 C 959.959961,70.803513 953.363220,65.255508 947.000000,60.000000 C 933.596069,48.929462 918.391907,40.081505 903.000000,32.000000 C 898.834106,29.812706 881.391724,22.688711 877.000000,21.000000 C 860.863464,14.795131 844.900269,7.642861 828.000000,4.000000 C 820.801758,2.448412 791.356018,0.333676 784.000000,0.000000 C 779.338135,-0.211467 774.664246,-0.150303 770.000000,0.000000 C 759.650574,0.333506 748.951599,-0.861505 739.000000,2.000000 C 725.526123,5.874313 713.420593,13.868263 702.000000,22.000000 C 699.789856,23.573666 691.891602,31.054989 690.000000,33.000000 C 680.774109,42.486530 670.949341,51.738655 664.000000,63.000000 C 655.287781,77.118065 649.342651,92.988647 645.000000,109.000000 C 643.414307,114.846375 640.531555,138.965775 640.000000,145.000000 C 638.448669,162.611053 635.543030,180.492325 638.000000,198.000000 C 640.827332,218.146835 648.661316,237.443192 657.000000,256.000000 C 660.796143,264.447906 665.551147,272.510834 671.000000,280.000000 C 680.999634,293.743958 692.301086,306.702789 705.000000,318.000000 C 721.444580,332.629456 739.852539,345.145538 759.000000,356.000000 C 759.356995,356.202362 776.624329,363.834839 777.000000,364.000000 C 784.653137,367.364349 792.425293,370.462738 800.000000,374.000000 C 804.727417,376.207642 809.767334,377.949280 814.000000,381.000000 C 815.147278,381.826904 816.085876,382.920929 817.000000,384.000000 C 818.853455,386.187927 820.624329,388.484100 822.000000,391.000000 C 822.861206,392.574982 823.792603,394.216980 824.000000,396.000000 C 824.778931,402.696106 823.789917,409.863159 821.000000,416.000000 C 820.094727,417.991272 805.482910,434.391998 804.000000,436.000000 C 800.804199,439.465424 797.703796,443.083832 794.000000,446.000000 C 782.950439,454.699738 770.573120,461.699615 758.000000,468.000000 C 751.580627,471.216736 744.794189,473.677368 738.000000,476.000000 C 735.703796,476.784973 733.367310,477.466339 731.000000,478.000000 C 729.022034,478.445892 727.020691,478.832764 725.000000,479.000000 C 724.335632,479.054993 723.471375,479.471405 723.000000,479.000000 C 722.911621,478.911621 722.992249,476.124756 723.000000,476.000000 C 723.166992,473.317780 723.256042,470.582397 724.000000,468.000000 C 724.381836,466.674500 737.408203,439.246002 738.000000,438.000000 C 747.530457,417.934723 756.264343,397.447083 767.000000,378.000000 C 773.079163,366.987915 780.610168,356.834778 787.000000,346.000000 C 795.716797,331.219543 803.357605,315.824066 812.000000,301.000000 C 815.541565,294.925293 819.591248,289.150208 823.000000,283.000000 C 823.722656,281.696167 824.333313,280.333344 825.000000,279.000000 C 825.333313,278.333344 825.666687,277.666656 826.000000,277.000000 C 826.333313,276.333344 827.000000,275.000000 827.000000,275.000000 C 827.000000,275.000000 826.171265,276.274597 826.000000,277.000000 C 825.846802,277.648834 826.000000,278.333344 826.000000,279.000000 C 826.000000,280.000000 825.415283,281.188751 826.000000,282.000000 C 826.308167,282.427551 831.485229,283.886932 832.000000,284.000000 C 834.948181,284.647522 837.986145,284.833069 841.000000,285.000000 C 848.322083,285.405548 855.711853,285.812622 863.000000,285.000000 C 873.528259,283.826111 884.023071,281.561401 894.000000,278.000000 C 897.509888,276.747101 900.790100,274.893555 904.000000,273.000000 C 909.574524,269.711548 915.552246,266.701721 920.000000,262.000000 C 926.167969,255.479874 930.318604,247.185516 934.000000,239.000000 C 935.859680,234.865112 937.325867,230.483414 938.000000,226.000000 C 939.140015,218.418564 940.143494,210.360916 938.000000,203.000000 C 936.784851,198.827194 933.970093,195.172928 931.000000,192.000000 C 922.525513,182.946747 912.152954,175.421204 901.000000,170.000000 C 874.232666,156.988998 844.371704,150.804382 815.000000,146.000000 C 796.058960,142.901779 719.186218,140.500168 700.000000,140.000000 C 678.340698,139.435364 656.621887,138.607834 635.000000,140.000000 C 596.091980,142.505173 557.138367,146.902130 519.000000,155.000000 C 499.605347,159.118042 480.419708,164.663422 462.000000,172.000000 C 431.808838,184.025162 403.035919,199.565338 375.000000,216.000000 C 355.937988,227.174149 337.257050,239.200867 320.000000,253.000000 C 313.554352,258.154083 307.292938,263.667877 302.000000,270.000000 C 289.488861,284.967529 277.807312,301.122620 270.000000,319.000000 C 264.499573,331.595001 261.679260,345.359283 260.000000,359.000000 C 259.022522,366.940063 258.788666,375.092224 260.000000,383.000000 C 262.697784,400.611542 267.840576,418.161163 276.000000,434.000000 C 279.923187,441.615601 301.479370,468.449310 307.000000,475.000000 C 311.711121,480.590149 316.280701,486.446533 322.000000,491.000000 C 342.216553,507.095612 365.398529,519.476318 389.000000,530.000000 C 417.786896,542.835815 448.332886,551.721802 479.000000,559.000000 C 493.770142,562.505371 508.906128,564.381409 524.000000,566.000000 C 557.533752,569.596008 591.290527,573.057068 625.000000,572.000000 C 660.580566,570.884277 695.971619,565.342957 731.000000,559.000000 C 749.218018,555.701111 767.243347,551.242065 785.000000,546.000000 C 803.806274,540.448120 877.623779,513.842163 896.000000,507.000000 C 927.556763,495.250214 958.875427,482.851074 990.000000,470.000000 C 1002.420044,464.871857 1014.772156,459.570923 1027.000000,454.000000 C 1043.145264,446.644287 1058.754517,438.131866 1075.000000,431.000000 C 1083.218262,427.392151 1091.572388,424.087128 1100.000000,421.000000 C 1101.979614,420.274872 1104.000000,419.666656 1106.000000,419.000000 C 1108.000000,418.333344 1110.106201,417.926239 1112.000000,417.000000 C 1113.079590,416.471954 1113.849731,415.348267 1115.000000,415.000000 C 1115.638062,414.806824 1116.333374,415.000000 1117.000000,415.000000 C 1117.666626,415.000000 1118.432861,414.649506 1119.000000,415.000000 C 1119.317017,415.195923 1122.840942,422.662964 1123.000000,423.000000 C 1124.401123,425.968933 1125.485962,429.087006 1127.000000,432.000000 C 1127.896362,433.724609 1128.927368,435.379120 1130.000000,437.000000 C 1132.502075,440.780884 1135.366577,444.309387 1138.000000,448.000000 C 1140.363403,451.312103 1142.785278,454.586731 1145.000000,458.000000 C 1148.173828,462.891479 1150.590576,468.269684 1154.000000,473.000000 C 1155.796875,475.493103 1158.300049,477.439789 1160.000000,480.000000 C 1160.412231,480.620941 1160.625854,481.355347 1161.000000,482.000000 C 1161.603271,483.039490 1163.970215,484.290619 1163.000000,485.000000 C 1162.892334,485.078735 1159.080933,480.106049 1159.000000,480.000000 C 1156.249756,476.395569 1153.355103,472.874115 1151.000000,469.000000 C 1148.289673,464.541687 1146.427368,459.618439 1144.000000,455.000000 C 1138.863525,445.227264 1133.612915,435.507019 1128.000000,426.000000 C 1118.784546,410.391296 1108.623779,395.360321 1099.000000,380.000000 C 1087.950562,362.364197 1077.044312,344.639008 1066.000000,327.000000 C 1060.355957,317.985809 1054.585083,309.050873 1049.000000,300.000000 C 1040.204102,285.745636 1031.401978,271.490082 1023.000000,257.000000 C 1017.835571,248.093353 1013.000000,239.000000 1008.000000,230.000000 C 1006.333313,227.000000 1004.666687,224.000000 1003.000000,221.000000 C 1001.333313,218.000000 999.601074,215.035492 998.000000,212.000000 C 997.652283,211.340729 997.725403,209.828751 997.000000,210.000000 C 996.716125,210.067017 996.982910,216.708832 997.000000,217.000000 C 997.333923,222.695969 998.508179,228.315491 999.000000,234.000000 C 999.518005,239.986893 999.972900,245.990814 1000.000000,252.000000 C 1000.064697,266.348694 1000.105896,280.806549 998.000000,295.000000 C 994.215027,320.510498 988.265991,345.932343 979.000000,370.000000 C 976.696289,375.983643 964.244690,398.469818 961.000000,404.000000 C 947.337646,427.285797 932.650818,450.001343 917.000000,472.000000 C 904.746704,489.223083 891.528320,505.759247 878.000000,522.000000 C 872.862061,528.168091 867.571838,534.220764 862.000000,540.000000 C 858.318237,543.818848 842.879517,558.382263 839.000000,562.000000 C 835.375916,565.379578 831.586304,568.580383 828.000000,572.000000 C 827.317688,572.650635 826.597717,573.270874 826.000000,574.000000 C 825.238037,574.929443 824.955139,576.270508 824.000000,577.000000 C 823.162292,577.639832 821.855103,578.616333 821.000000,578.000000 C 820.188782,577.415283 821.000000,576.000000 821.000000,575.000000 C 821.000000,574.000000 820.839844,572.987061 821.000000,572.000000 C 821.168823,570.959534 821.445801,569.896667 822.000000,569.000000 C 822.495667,568.197998 823.481018,567.787109 824.000000,567.000000 C 824.494080,566.250732 825.723877,562.854004 826.000000,562.000000 C 826.422852,560.692322 826.474060,559.269775 827.000000,558.000000 C 827.743774,556.204285 829.481201,554.873108 830.000000,553.000000 C 830.177979,552.357544 829.822021,551.642456 830.000000,551.000000 C 830.518799,549.126892 832.481201,547.873108 833.000000,546.000000 C 833.266907,545.036255 832.917542,543.996582 833.000000,543.000000 C 833.167236,540.979309 833.832764,539.020691 834.000000,537.000000 C 834.164978,535.006836 834.000000,533.000000 834.000000,531.000000 C 834.000000,530.000000 834.000000,529.000000 834.000000,528.000000 C 834.000000,526.333313 834.266968,524.645142 834.000000,523.000000 C 833.831177,521.959534 833.333313,521.000000 833.000000,520.000000 C 832.666687,519.000000 832.690613,517.796326 832.000000,517.000000 C 831.267456,516.155396 827.043457,514.401489 826.000000,514.000000 C 820.188171,511.763855 814.100891,510.247833 808.000000,509.000000 C 803.058044,507.989227 798.027710,507.408020 793.000000,507.000000 C 781.698914,506.082855 770.336670,505.812836 759.000000,506.000000 C 748.313965,506.176422 737.584595,506.520416 727.000000,508.000000 C 716.186279,509.511627 705.465271,511.885529 695.000000,515.000000 C 677.911255,520.085571 661.290771,526.754272 645.000000,534.000000 C 631.651062,539.937256 618.659729,546.707825 606.000000,554.000000 C 601.192688,556.769043 596.821350,560.255493 592.000000,563.000000 C 582.283569,568.530945 572.000000,573.000000 562.000000,578.000000 C 555.333313,581.333313 548.832214,585.020691 542.000000,588.000000 C 539.389404,589.138428 536.726807,590.178040 534.000000,591.000000 C 529.742065,592.283569 525.418640,593.496765 521.000000,594.000000 C 517.356873,594.414917 513.666687,594.000000 510.000000,594.000000 C 508.333344,594.000000 506.645142,594.266968 505.000000,594.000000 C 501.878571,593.493469 498.656219,592.715942 496.000000,591.000000 C 493.523224,589.399963 485.789185,580.343750 484.000000,578.000000 C 482.091858,575.500427 480.191589,572.910156 479.000000,570.000000 C 476.670990,564.312012 475.670685,558.109680 475.000000,552.000000 C 474.345306,546.035828 474.203613,539.946899 475.000000,534.000000 C 475.504456,530.233032 476.295227,526.396790 478.000000,523.000000 C 482.366882,514.298950 489.152954,506.920685 496.000000,500.000000 C 500.503418,495.448151 505.776276,491.703064 511.000000,488.000000 C 531.523560,473.450989 552.484924,459.223206 575.000000,448.000000 C 598.324646,436.373230 623.023376,427.442383 648.000000,420.000000 C 660.092896,416.396637 672.532776,413.947113 685.000000,412.000000 C 708.824341,408.279114 732.896057,405.666351 757.000000,405.000000 C 781.011658,404.336212 805.084839,405.749481 829.000000,408.000000 C 840.404846,409.073242 851.772766,410.725952 863.000000,413.000000 C 881.225037,416.691406 899.615967,420.399017 917.000000,427.000000 C 933.445374,433.244568 949.386536,441.207581 964.000000,451.000000 C 969.105957,454.421509 973.659119,458.648590 978.000000,463.000000 C 988.520203,473.545776 999.816895,483.950409 1007.000000,497.000000 C 1014.067078,509.838806 1017.808716,524.509460 1020.000000,539.000000 C 1020.946960,545.262146 1020.869446,551.726624 1020.000000,558.000000 C 1017.812622,573.783020 1014.039490,589.705444 1007.000000,604.000000 C 1003.053284,612.014282 980.840576,640.240295 975.000000,647.000000 C 969.760620,653.063904 964.099121,658.801697 958.000000,664.000000 C 943.283752,676.542725 927.729858,688.304626 911.000000,698.000000 C 891.380127,709.370239 870.570374,719.004211 849.000000,726.000000 C 837.993347,729.569702 826.479187,731.544861 815.000000,733.000000 C 794.803711,735.560181 774.306580,737.444641 754.000000,736.000000 C 733.002869,734.506226 712.196045,729.935486 692.000000,724.000000 C 681.666687,720.963135 671.590088,716.902100 662.000000,712.000000 C 640.920532,701.224976 619.927246,689.461487 602.000000,674.000000 C 577.659973,653.007751 558.073730,626.870911 539.000000,601.000000 C 529.669495,588.344421 520.961792,575.098083 514.000000,561.000000 C 501.389923,535.463806 489.953491,508.850800 484.000000,481.000000 C 482.324402,473.161469 481.250122,441.011719 481.000000,433.000000 C 480.833588,427.669250 479.774658,422.190674 481.000000,417.000000 C 483.739960,405.393341 489.341583,394.141693 497.000000,385.000000 C 502.736847,378.152069 532.467712,357.803131 540.000000,353.000000 C 551.820984,345.462097 563.936829,338.090118 577.000000,333.000000 C 606.152283,321.640656 637.039307,314.508453 668.000000,310.000000 C 699.693481,305.384827 731.984009,305.131897 764.000000,306.000000 C 781.406860,306.471985 798.908569,307.667511 816.000000,311.000000 C 844.673828,316.590851 872.698242,325.604828 900.000000,336.000000 C 911.009399,340.191833 921.932312,344.882904 932.000000,351.000000 C 948.865295,361.247284 964.934509,373.157806 979.000000,387.000000 C 993.544922,401.313995 1006.045471,417.782471 1017.000000,435.000000 C 1022.201416,443.175201 1027.110840,451.751129 1030.000000,461.000000 C 1034.919556,476.748657 1038.025269,493.532715 1037.000000,510.000000 C 1035.583008,532.759460 1028.167114,555.120300 1019.000000,576.000000 C 1016.230164,582.308716 1000.969238,605.368164 997.000000,611.000000 C 982.094666,632.148865 967.386597,653.796204 949.000000,672.000000 C 941.822021,679.106628 909.301697,703.245911 901.000000,709.000000 C 891.649231,715.481262 882.178528,721.916504 872.000000,727.000000 C 854.721802,735.629272 836.822510,743.674194 818.000000,748.000000 C 805.940552,750.771484 793.362854,751.521057 781.000000,751.000000 C 776.948425,750.829224 772.912354,750.066650 769.000000,749.000000 C 768.440063,748.847351 756.540283,744.211914 756.000000,744.000000 C 754.328918,743.344482 752.637512,742.735352 751.000000,742.000000 C 750.320068,741.694641 748.947144,741.743469 749.000000,741.000000 C 749.009338,740.868591 751.873047,740.035156 752.000000,740.000000 C 754.961670,739.179688 758.021179,738.755798 761.000000,738.000000 C 763.352173,737.403198 765.641602,736.571777 768.000000,736.000000 C 772.955444,734.798584 778.071777,734.308777 783.000000,733.000000 C 786.565735,732.053040 800.522217,727.231262 804.000000,726.000000 C 806.684692,725.049500 817.337585,721.011169 820.000000,720.000000 C 828.680603,716.703125 837.259888,713.135681 846.000000,710.000000 C 852.945190,707.508301 859.950989,705.180725 867.000000,703.000000 C 869.318298,702.282776 871.655884,701.627686 874.000000,701.000000 C 876.655212,700.289001 879.271851,699.335876 882.000000,699.000000 C 882.661682,698.918518 884.000000,699.000000 884.000000,699.000000 C 884.000000,699.000000 879.333313,699.000000 877.000000,699.000000 C 872.666687,699.000000 868.327515,698.775208 864.000000,699.000000 C 855.967529,699.417236 823.986328,703.044678 816.000000,704.000000 C 803.642639,705.478210 791.304688,707.133545 779.000000,709.000000 C 745.245850,714.119995 711.444031,719.140625 678.000000,726.000000 C 655.824402,730.548218 633.837280,736.035339 612.000000,742.000000 C 604.269287,744.111572 596.609009,746.484924 589.000000,749.000000 C 584.294983,750.555176 579.557739,752.055054 575.000000,754.000000 C 573.628906,754.585083 570.501221,754.595215 571.000000,756.000000 C 571.257080,756.723999 579.267273,754.231079 580.000000,754.000000 C 589.977173,750.853455 599.655701,746.704102 609.000000,742.000000 C 619.416443,736.756165 629.379822,730.591858 639.000000,724.000000 C 642.135193,721.851746 645.249390,719.622742 648.000000,717.000000 C 652.448303,712.758484 656.680542,708.172913 660.000000,703.000000 C 662.577515,698.983276 664.976135,694.661499 666.000000,690.000000 C 666.214539,689.023254 666.076233,684.997070 666.000000,684.000000 C 665.665710,679.628418 665.981750,674.910828 664.000000,671.000000 C 662.721497,668.476990 654.166809,660.817932 652.000000,659.000000 C 645.765808,653.769592 639.095886,648.983765 632.000000,645.000000 C 611.695435,633.600586 589.970459,624.715027 568.000000,617.000000 C 551.063354,611.052612 533.700378,605.986511 516.000000,603.000000 C 511.386658,602.221619 506.660400,602.411621 502.000000,602.000000 C 495.656372,601.439697 489.359558,600.333801 483.000000,600.000000 C 480.004120,599.842773 477.000000,600.000000 474.000000,600.000000 C 473.333344,600.000000 472.596283,599.701843 472.000000,600.000000 C 471.254639,600.372681 469.438110,603.291138 469.000000,604.000000 C 467.040710,607.170166 464.856232,610.372925 464.000000,614.000000 C 463.693665,615.297668 463.890015,620.671204 464.000000,622.000000 C 464.334473,626.041382 464.144440,630.394287 466.000000,634.000000 C 466.539276,635.047913 470.095184,638.244873 471.000000,639.000000 C 475.046417,642.377014 479.311279,645.592957 484.000000,648.000000 C 488.408386,650.263123 493.117340,652.154236 498.000000,653.000000 C 500.955994,653.512024 504.000000,653.000000 507.000000,653.000000 C 508.000000,653.000000 509.089355,653.413208 510.000000,653.000000 C 510.806671,652.633972 516.461487,645.703369 517.000000,645.000000 C 518.461243,643.091431 520.152588,641.249390 521.000000,639.000000 C 522.778259,634.279602 522.979309,629.044189 523.000000,624.000000 C 523.005493,622.656311 522.246704,617.320862 522.000000,616.000000 C 521.747620,614.648987 521.677124,613.195984 521.000000,612.000000 C 520.535461,611.179565 518.783386,610.917603 519.000000,610.000000 C 519.121094,609.487061 521.475891,609.055542 522.000000,609.000000 C 523.500854,608.841003 529.512756,609.743347 531.000000,610.000000 C 536.736633,610.989868 542.239624,613.159302 548.000000,614.000000 C 553.616943,614.819763 559.329773,615.266418 565.000000,615.000000 C 569.379456,614.794250 573.770569,614.154968 578.000000,613.000000 C 586.658264,610.635620 595.356567,607.704590 603.000000,603.000000 C 606.217896,601.019348 617.382996,590.725647 620.000000,588.000000 C 624.759338,583.043091 629.654175,578.002319 633.000000,572.000000 C 640.904358,557.819885 646.923889,542.101074 649.000000,526.000000 C 651.180664,509.087799 648.814941,491.619995 645.000000,475.000000 C 643.158203,466.975952 640.246521,459.053009 636.000000,452.000000 C 627.831726,438.433258 617.255493,426.028961 605.000000,416.000000 C 583.401428,398.325439 557.454590,386.443481 532.000000,375.000000 C 515.270447,367.478973 497.805115,361.407135 480.000000,357.000000 C 439.409210,346.952942 397.632874,341.906494 356.000000,338.000000 C 337.071442,336.223877 318.011505,336.085480 299.000000,336.000000 C 260.654022,335.827576 222.129578,334.928192 184.000000,339.000000 C 176.410522,339.810455 101.488167,354.522034 94.000000,356.000000 C 82.647964,358.240570 71.129173,359.832916 60.000000,363.000000 C 49.755699,365.915253 39.583496,369.352295 30.000000,374.000000 C 25.421860,376.220245 20.992825,378.846222 17.000000,382.000000 C 15.150360,383.460968 13.342548,385.062714 12.000000,387.000000 C 7.411706,393.620911 3.828077,401.154816 2.000000,409.000000 C 0.789067,414.196716 0.956397,435.664246 1.000000,441.000000 C 1.057266,448.007690 0.578836,455.137695 2.000000,462.000000 C 5.829286,480.490326 13.084118,498.354797 22.000000,515.000000 C 29.556400,529.107178 39.640984,541.801575 50.000000,554.000000 C 55.492508,560.467773 61.516113,566.526489 68.000000,572.000000 C 85.173653,586.497498 103.630745,599.600769 123.000000,611.000000 C 146.256882,624.687195 170.858307,636.196045 196.000000,646.000000 C 207.690323,650.558594 219.708145,654.479126 232.000000,657.000000 C 259.261444,662.590881 287.180176,665.291382 315.000000,666.000000 C 338.363831,666.595093 361.906586,665.593872 385.000000,662.000000 C 396.902924,660.147644 408.716125,657.217285 420.000000,653.000000 C 438.152863,646.215515 455.374603,636.957458 472.000000,627.000000 C 479.180542,622.699341 506.257813,602.959656 513.000000,598.000000 C 518.746338,593.772888 524.925781,590.014099 530.000000,585.000000 C 541.146423,573.985779 551.109436,561.538635 559.000000,548.000000 C 568.257446,532.116089 574.907410,514.665405 580.000000,497.000000 C 582.717163,487.574554 584.323914,477.785950 585.000000,468.000000 C 586.402222,447.704132 586.916870,426.963623 583.000000,407.000000 C 581.152222,397.582092 577.170166,388.644104 573.000000,380.000000 C 566.566589,366.664581 559.309875,353.513000 550.000000,342.000000 C 540.213928,329.898132 528.510071,319.258514 516.000000,310.000000 C 507.359314,303.605164 469.622620,282.791748 460.000000,278.000000 C 455.455139,275.736816 436.711548,267.891876 432.000000,266.000000 C 416.142609,259.632660 400.085724,253.766205 384.000000,248.000000 C 371.397827,243.482544 358.872620,238.676666 346.000000,235.000000 C 344.930939,234.694656 334.085693,232.239532 333.000000,232.000000 C 326.679840,230.605606 320.437347,228.670273 314.000000,228.000000 C 312.342285,227.827393 310.666656,228.000000 309.000000,228.000000 C 307.000000,228.000000 305.000000,228.000000 303.000000,228.000000 C 302.333344,228.000000 301.471405,228.471405 301.000000,228.000000 C 300.528595,227.528595 301.000000,226.000000 301.000000,226.000000 C 301.000000,226.000000 300.877808,228.007492 301.000000,229.000000 C 301.167938,230.364075 301.666656,231.666672 302.000000,233.000000 C 303.333344,238.333328 304.428741,243.731857 306.000000,249.000000 C 306.290009,249.972321 313.664490,271.042419 314.000000,272.000000 C 315.987091,277.671204 317.821503,283.399536 320.000000,289.000000 C 327.092651,307.233826 335.040070,325.127747 343.000000,343.000000 C 349.431458,357.440399 357.048370,371.355316 363.000000,386.000000 C 365.659302,392.543488 367.583344,399.363098 370.000000,406.000000 C 374.511810,418.390839 379.725525,430.525330 384.000000,443.000000 C 385.469635,447.289032 390.710510,464.653412 392.000000,469.000000 C 393.380402,473.652954 394.535522,478.372803 396.000000,483.000000 C 398.449280,490.738861 400.845062,498.521027 404.000000,506.000000 C 406.607300,512.180786 409.718628,518.149109 413.000000,524.000000 C 414.538239,526.742737 416.146240,529.459839 418.000000,532.000000 C 421.346222,536.585327 425.084991,540.889648 429.000000,545.000000 C 433.717102,549.952454 438.443237,555.012512 444.000000,559.000000 C 445.999298,560.434692 454.790741,564.916199 457.000000,566.000000 C 468.789551,571.783691 480.473083,578.060303 493.000000,582.000000 C 498.020142,583.578796 518.806213,587.151855 524.000000,588.000000 C 528.978333,588.812927 533.966797,589.665955 539.000000,590.000000 C 546.982422,590.529846 555.000000,590.000000 563.000000,590.000000 C 566.333313,590.000000 569.723816,590.614624 573.000000,590.000000 C 579.327332,588.812988 585.517944,586.375061 591.000000,583.000000 C 598.637634,578.297791 605.296387,571.921936 611.000000,565.000000 C 617.180054,557.499878 621.630127,548.680359 626.000000,540.000000 C 635.408203,521.311401 645.410461,502.413574 650.000000,482.000000 C 650.732056,478.743774 651.916626,445.336456 652.000000,442.000000 C 652.099915,438.001251 652.771790,433.924835 652.000000,430.000000 C 650.471252,422.225647 647.476196,414.537689 643.000000,408.000000 C 638.071289,400.801453 631.004089,395.201355 624.000000,390.000000 C 620.763672,387.596619 606.590942,379.831635 603.000000,378.000000 C 582.799561,367.696381 562.284851,357.821503 541.000000,350.000000 C 517.233643,341.266632 492.601929,334.987976 468.000000,329.000000 C 454.788330,325.784363 441.498901,322.633484 428.000000,321.000000 C 416.572510,319.617188 370.508148,318.250061 359.000000,318.000000 C 343.337036,317.659668 327.666656,318.000000 312.000000,318.000000 C 306.666656,318.000000 301.333344,318.000000 296.000000,318.000000 C 289.000000,318.000000 282.000000,318.000000 275.000000,318.000000 C 271.333344,318.000000 267.666656,318.000000 264.000000,318.000000 C 263.333344,318.000000 262.666656,318.000000 262.000000,318.000000 C 261.333344,318.000000 260.471405,318.471405 260.000000,318.000000 C 259.528595,317.528595 259.528595,316.471405 260.000000,316.000000 C 262.592712,313.407288 267.334412,316.089355 271.000000,316.000000 C 284.678864,315.666565 298.321136,314.333435 312.000000,314.000000 C 316.665283,313.886292 363.333344,313.985870 368.000000,314.000000 C 423.000763,314.166656 478.000854,315.453522 533.000000,315.000000 C 577.343079,314.634338 621.810547,315.706543 666.000000,312.000000 C 682.112671,310.648499 698.143127,308.162994 714.000000,305.000000 C 733.900269,301.030457 753.528259,295.712280 773.000000,290.000000 C 779.068787,288.219635 785.156860,286.420288 791.000000,284.000000 C 791.688599,283.714752 792.333313,283.333344 793.000000,283.000000 C 793.666687,282.666656 795.000000,282.000000 795.000000,282.000000 C 795.000000,282.000000 793.690674,282.719849 793.000000,283.000000 C 779.714172,288.389069 724.741577,304.910370 711.000000,309.000000 C 678.831848,318.573547 646.233765,326.649597 614.000000,336.000000 C 560.829468,351.423798 507.699707,367.037109 455.000000,384.000000 C 416.769470,396.305573 378.780884,409.376312 341.000000,423.000000 C 331.274292,426.507050 321.302795,429.489227 312.000000,434.000000 C 306.753296,436.544037 302.111450,440.194092 297.000000,443.000000 C 295.693237,443.717346 293.000000,445.000000 293.000000,445.000000 C 293.000000,445.000000 294.355347,444.374115 295.000000,444.000000 C 299.157959,441.587036 303.194305,438.937317 307.000000,436.000000 C 313.355011,431.095062 319.819946,426.132813 325.000000,420.000000 C 325.507294,419.399414 329.596558,412.674744 330.000000,412.000000 C 331.379089,409.693420 335.113281,407.445984 334.000000,405.000000 C 333.647949,404.226501 329.849182,403.966553 329.000000,404.000000 C 323.807190,404.204437 273.947021,419.408142 269.000000,421.000000 C 256.854858,424.908081 245.037430,429.771759 233.000000,434.000000 C 205.749329,443.571991 178.472717,453.085266 151.000000,462.000000 C 138.062622,466.198120 124.737404,469.229401 112.000000,474.000000 C 108.925606,475.151459 106.128654,477.005371 103.000000,478.000000 C 99.760422,479.029907 96.382805,479.665039 93.000000,480.000000 C 91.673157,480.131378 90.297668,480.306335 89.000000,480.000000 C 88.274582,479.828766 87.300125,479.682251 87.000000,479.000000 C 86.511429,477.889374 88.384674,473.045746 89.000000,472.000000 C 89.836716,470.577972 94.725517,466.047821 96.000000,465.000000 C 108.711586,454.549103 163.932861,418.539368 178.000000,410.000000 C 223.140549,382.597687 269.320953,356.699463 317.000000,334.000000 C 338.461609,323.782379 360.712677,315.262909 383.000000,307.000000 C 405.732117,298.572174 429.105682,291.976685 452.000000,284.000000 C 455.684357,282.716339 459.415924,281.541626 463.000000,280.000000 C 463.684692,279.705475 465.285248,279.688629 465.000000,279.000000 C 464.899139,278.756531 459.243469,280.899139 459.000000,281.000000 C 457.622772,281.570465 455.622894,281.645660 455.000000,283.000000 C 453.851410,285.497253 455.442230,288.735291 457.000000,291.000000 C 459.305908,294.352356 463.700165,295.619507 467.000000,298.000000 C 491.924835,315.980774 516.563354,334.361206 541.000000,353.000000 C 564.222168,370.712463 587.348083,388.563873 610.000000,407.000000 C 618.805176,414.166412 627.601563,421.360962 636.000000,429.000000 C 651.170593,442.798828 665.666565,457.333405 680.000000,472.000000 C 689.560669,481.782898 698.828369,491.851501 708.000000,502.000000 C 710.375854,504.628876 712.752014,507.261017 715.000000,510.000000 C 718.468445,514.225952 721.392822,518.891785 725.000000,523.000000 C 726.555176,524.771179 728.621826,526.087891 730.000000,528.000000 C 730.435791,528.604675 731.594116,529.549927 731.000000,530.000000 C 730.506287,530.374023 720.435547,520.440430 720.000000,520.000000 C 714.355347,514.291931 709.353882,507.981689 704.000000,502.000000 C 679.759338,474.916748 654.548279,448.687347 631.000000,421.000000 C 605.805969,391.377655 580.974365,361.375183 558.000000,330.000000 C 546.639282,314.485107 536.923218,297.825958 526.000000,282.000000 C 511.340515,260.760895 495.150055,240.581848 481.000000,219.000000 C 474.605743,209.247391 469.752991,198.507751 463.000000,189.000000 C 461.492462,186.877472 459.178711,185.321289 458.000000,183.000000 C 457.377747,181.774567 456.111633,180.048676 457.000000,179.000000 C 457.675446,178.202652 480.964172,180.861847 482.000000,181.000000 C 486.033997,181.538025 526.003784,189.230148 530.000000,190.000000 C 560.362732,195.849274 681.678894,219.938492 712.000000,226.000000 C 778.026917,239.199463 844.016235,252.586655 910.000000,266.000000 C 939.340576,271.964417 968.754578,277.585205 998.000000,284.000000 C 1035.119019,292.141815 1072.713135,298.714020 1109.000000,310.000000 C 1116.861328,312.445007 1124.871338,314.881744 1132.000000,319.000000 C 1132.115479,319.066742 1136.896240,322.916107 1137.000000,323.000000 C 1140.683105,325.979797 1144.611938,328.688599 1148.000000,332.000000 C 1150.197754,334.148041 1151.911987,336.745148 1154.000000,339.000000 C 1154.640625,339.691772 1155.402222,340.270874 1156.000000,341.000000 C 1156.761963,341.929443 1158.716309,343.034943 1158.000000,344.000000 "
       id="path0001"
       style="fill:none;stroke:white;stroke-opacity:1;stroke-width:4px" />
  </g>
</svg>
