<?xml version="1.0" encoding="UTF-8" standalone="no"?>
<!-- Created with Inkscape (http://www.inkscape.org/) -->

<svg
   xmlns:dc="http://purl.org/dc/elements/1.1/"
   xmlns:cc="http://creativecommons.org/ns#"
   xmlns:rdf="http://www.w3.org/1999/02/22-rdf-syntax-ns#"
   xmlns:svg="http://www.w3.org/2000/svg"
   xmlns="http://www.w3.org/2000/svg"
   version="1.1"
   width="1920"
   height="1080"
   id="svg2">
  <defs
     id="defs4" />
  <metadata
     id="metadata7">
    <rdf:RDF>
      <cc:Work
         rdf:about="">
        <dc:format>image/svg+xml</dc:format>
        <dc:type
           rdf:resource="http://purl.org/dc/dcmitype/StillImage" />
        <dc:title></dc:title>
      </cc:Work>
    </rdf:RDF>
  </metadata>
    <image
			     xlink:href=".\DancerD.png"
			     width="1920"
			     height="1080"
			     preserveAspectRatio="none"
			     id="imageDancer"
			     x="0"
			     y="0" />
  <g
     transform="translate(0.0,0.0)"
     id="layer1">
    <path
       initial_time="63.513000"
       final_time="95.385002"
       d="M 1159.000000,345.000000 C 1159.032959,345.222931 1150.190430,350.879486 1150.000000,351.000000 C 1145.072754,354.118103 1139.862549,356.782043 1135.000000,360.000000 C 1131.219116,362.502106 1127.683228,365.356293 1124.000000,368.000000 C 1116.035522,373.716553 1107.492920,378.677979 1100.000000,385.000000 C 1094.775757,389.407898 1075.749268,409.084076 1071.000000,414.000000 C 1066.247803,418.918823 1061.596313,423.935272 1057.000000,429.000000 C 1051.921265,434.596252 1045.872314,439.510315 1042.000000,446.000000 C 1038.541504,451.796082 1036.185059,458.355377 1035.000000,465.000000 C 1034.473267,467.953400 1034.211792,471.105408 1035.000000,474.000000 C 1036.727295,480.343384 1039.923218,486.822906 1045.000000,491.000000 C 1055.094727,499.305725 1106.383057,513.579163 1119.000000,517.000000 C 1140.957153,522.953186 1163.417725,527.243958 1186.000000,530.000000 C 1224.763672,534.730835 1263.951172,535.565369 1303.000000,536.000000 C 1326.008179,536.256104 1349.205811,537.141968 1372.000000,534.000000 C 1377.445923,533.249329 1382.904663,532.064026 1388.000000,530.000000 C 1394.782715,527.252380 1401.598022,523.937073 1407.000000,519.000000 C 1412.119995,514.320618 1415.963867,508.236450 1419.000000,502.000000 C 1420.523315,498.871002 1421.494629,495.443207 1422.000000,492.000000 C 1422.629272,487.712585 1423.993652,482.847504 1422.000000,479.000000 C 1420.404419,475.920715 1408.147827,468.455750 1405.000000,467.000000 C 1394.066406,461.943542 1381.891479,459.924438 1370.000000,458.000000 C 1336.686035,452.608643 1302.744385,451.449982 1269.000000,451.000000 C 1237.641113,450.581818 1206.153198,451.389679 1175.000000,455.000000 C 1160.843018,456.640625 1146.885376,459.789276 1133.000000,463.000000 C 1114.485596,467.281097 1095.886108,471.581268 1078.000000,478.000000 C 1071.119141,480.469330 1064.459839,483.577179 1058.000000,487.000000 C 1049.008057,491.764526 1040.148682,496.904572 1032.000000,503.000000 C 1028.408936,505.686188 1024.457153,508.248505 1022.000000,512.000000 C 1021.422424,512.881775 1021.463135,514.053101 1021.000000,515.000000 C 1020.471985,516.079651 1020.117615,518.441956 1019.000000,518.000000 C 1018.057251,517.627197 1019.566345,512.916382 1020.000000,512.000000 C 1020.757813,510.398560 1032.770142,497.275299 1034.000000,496.000000 C 1039.401855,490.398590 1044.832764,484.745575 1051.000000,480.000000 C 1065.001343,469.226257 1080.112793,459.727081 1096.000000,452.000000 C 1103.017212,448.587067 1110.450195,445.971954 1118.000000,444.000000 C 1135.974121,439.305267 1154.483887,436.504944 1173.000000,435.000000 C 1183.299316,434.162903 1193.721558,433.935883 1204.000000,435.000000 C 1218.566040,436.508026 1233.064331,439.501038 1247.000000,444.000000 C 1256.372559,447.025787 1265.673462,450.739868 1274.000000,456.000000 C 1275.299072,456.820679 1279.872559,460.955963 1281.000000,462.000000 C 1286.188232,466.804443 1291.672607,471.407684 1296.000000,477.000000 C 1300.023315,482.199493 1303.827271,487.795044 1306.000000,494.000000 C 1306.389526,495.112305 1306.916504,499.824463 1307.000000,501.000000 C 1307.259888,504.657440 1307.302368,508.345825 1307.000000,512.000000 C 1306.832764,514.020691 1306.627075,516.071777 1306.000000,518.000000 C 1305.769531,518.708801 1305.634033,519.608154 1305.000000,520.000000 C 1304.432861,520.350464 1303.615967,520.255127 1303.000000,520.000000 C 1301.257935,519.278381 1300.424438,517.235474 1299.000000,516.000000 C 1297.740967,514.908020 1296.452881,513.816528 1295.000000,513.000000 C 1284.045898,506.843903 1272.060181,502.527283 1260.000000,499.000000 C 1238.666382,492.760437 1150.946533,477.522308 1129.000000,474.000000 C 1083.196533,466.648804 1036.840210,463.118408 991.000000,456.000000 C 970.583435,452.829559 950.426819,448.103851 930.000000,445.000000 C 895.132996,439.701965 860.065857,435.763641 825.000000,432.000000 C 810.356934,430.428345 795.680054,429.176849 781.000000,428.000000 C 757.019165,426.077515 733.043335,423.833832 709.000000,423.000000 C 694.675293,422.503204 680.271851,421.673584 666.000000,423.000000 C 660.596985,423.502167 655.226685,424.541870 650.000000,426.000000 C 641.770264,428.295898 633.679749,431.255524 626.000000,435.000000 C 625.209961,435.385223 608.747681,445.537903 608.000000,446.000000 C 605.325012,447.653259 602.460938,449.042297 600.000000,451.000000 C 596.310913,453.934723 592.756348,457.175781 590.000000,461.000000 C 588.256714,463.418671 586.684998,466.098328 586.000000,469.000000 C 585.731934,470.135468 585.872681,474.840302 586.000000,476.000000 C 586.335327,479.054840 585.981384,482.682739 588.000000,485.000000 C 593.022705,490.765839 623.552307,499.266693 631.000000,501.000000 C 653.516296,506.240265 676.889038,507.427460 700.000000,508.000000 C 751.719543,509.281250 803.556763,505.490631 855.000000,500.000000 C 881.863892,497.132751 988.422668,478.851166 1015.000000,474.000000 C 1039.759277,469.480682 1064.467285,464.620575 1089.000000,459.000000 C 1132.263794,449.088074 1175.324341,438.197906 1218.000000,426.000000 C 1250.942749,416.584015 1283.662598,406.321594 1316.000000,395.000000 C 1320.381958,393.465820 1337.677856,386.695526 1342.000000,385.000000 C 1350.355347,381.722290 1358.507324,377.903320 1367.000000,375.000000 C 1369.296265,374.215027 1371.738403,373.879730 1374.000000,373.000000 C 1374.694702,372.729797 1375.608154,372.634033 1376.000000,372.000000 C 1376.350464,371.432892 1376.000000,370.666656 1376.000000,370.000000 C 1376.000000,369.333344 1376.000000,368.666656 1376.000000,368.000000 C 1376.000000,367.333344 1376.126099,366.654633 1376.000000,366.000000 C 1375.321045,362.474670 1374.099121,358.912445 1372.000000,356.000000 C 1370.340454,353.697510 1361.277710,346.693420 1359.000000,345.000000 C 1352.619141,340.255920 1346.211426,335.349152 1339.000000,332.000000 C 1305.525513,316.453796 1269.423828,305.960785 1233.000000,300.000000 C 1190.872925,293.105835 1147.493286,291.932892 1105.000000,296.000000 C 1083.909424,298.018616 1062.837646,302.559845 1043.000000,310.000000 C 1023.309570,317.384949 949.827454,358.845123 932.000000,370.000000 C 918.433411,378.488770 904.342346,386.710114 893.000000,398.000000 C 869.655640,421.236359 846.819275,447.255981 835.000000,478.000000 C 828.263367,495.523193 824.085083,515.881287 829.000000,534.000000 C 833.991760,552.402100 848.120056,568.077637 863.000000,580.000000 C 880.353027,593.903870 902.511230,601.283630 924.000000,607.000000 C 977.112427,621.128845 1033.092529,626.393982 1088.000000,624.000000 C 1116.149292,622.772705 1144.363159,617.185059 1171.000000,608.000000 C 1213.139648,593.469177 1255.358032,575.050415 1290.000000,547.000000 C 1318.726074,523.739807 1343.541992,494.096191 1360.000000,461.000000 C 1366.875610,447.173553 1372.341309,431.383270 1371.000000,416.000000 C 1368.406982,386.261353 1356.786011,354.407898 1335.000000,334.000000 C 1307.565063,308.300476 1159.731201,264.997253 1123.000000,257.000000 C 1098.656616,251.699860 998.903870,245.700882 974.000000,245.000000 C 891.008789,242.664352 807.765503,244.451950 725.000000,251.000000 C 672.694397,255.138199 620.497375,261.949066 569.000000,272.000000 C 557.176880,274.307556 545.434692,277.210602 534.000000,281.000000 C 526.479004,283.492432 518.091125,284.932831 512.000000,290.000000 C 507.735077,293.547974 504.752106,298.736176 503.000000,304.000000 C 502.261200,306.219543 501.928375,315.661804 502.000000,318.000000 C 502.154449,323.041870 502.720154,328.120819 504.000000,333.000000 C 504.455444,334.736328 504.212067,337.840363 506.000000,338.000000 C 506.783051,338.069916 510.659729,330.708710 511.000000,330.000000 C 520.171631,310.898132 524.859619,289.950317 532.000000,270.000000 C 536.903870,256.298523 542.198547,242.737671 547.000000,229.000000 C 552.216797,214.074020 555.689453,198.497498 562.000000,184.000000 C 563.666931,180.170410 564.876465,175.772751 568.000000,173.000000 C 568.671204,172.404160 572.142456,171.264877 573.000000,171.000000 C 578.872620,169.186050 584.854004,167.065369 591.000000,167.000000 C 596.098755,166.945770 601.312744,167.992538 606.000000,170.000000 C 627.337036,179.138306 645.567993,194.673431 663.000000,210.000000 C 690.465027,234.147812 715.122253,261.694580 737.000000,291.000000 C 746.079651,303.162262 776.812012,355.632355 784.000000,369.000000 C 785.835876,372.414276 792.379333,386.478485 794.000000,390.000000 C 796.744995,395.964569 799.862427,401.791779 802.000000,408.000000 C 802.447449,409.299500 802.615723,410.680450 803.000000,412.000000 C 803.294739,413.012054 803.226563,414.283783 804.000000,415.000000 C 804.315125,415.291809 823.581482,419.903503 824.000000,420.000000 C 826.946350,420.679291 892.040771,434.379150 895.000000,435.000000 C 918.992981,440.033722 942.943176,445.280945 967.000000,450.000000 C 1021.212708,460.634552 1075.127319,473.589325 1130.000000,480.000000 C 1156.188965,483.059601 1182.633057,483.909454 1209.000000,484.000000 C 1262.384033,484.183319 1316.217896,484.995789 1369.000000,477.000000 C 1415.684326,469.927948 1461.139282,455.729462 1506.000000,441.000000 C 1525.760132,434.512024 1545.610229,427.714630 1564.000000,418.000000 C 1589.259766,404.656189 1614.372314,389.763885 1635.000000,370.000000 C 1658.058350,347.907227 1677.641846,321.524048 1692.000000,293.000000 C 1699.206421,278.683685 1705.987427,263.027740 1706.000000,247.000000 C 1706.020752,220.531998 1697.845459,192.912704 1683.000000,171.000000 C 1653.334351,127.211975 1604.880249,98.314377 1559.000000,72.000000 C 1521.196411,50.317955 1479.437256,34.914978 1437.000000,25.000000 C 1392.507813,14.604899 1209.642822,2.085507 1164.000000,0.000000 C 1072.428833,-4.184063 980.666687,0.000000 889.000000,0.000000 C 851.000000,0.000000 812.982849,-1.141969 775.000000,0.000000 C 702.902283,2.167646 629.845398,-0.553766 559.000000,13.000000 C 504.541992,23.418613 451.751556,42.672829 401.000000,65.000000 C 377.914032,75.156235 355.371948,87.130760 335.000000,102.000000 C 259.560913,157.062057 190.636490,221.964066 130.000000,293.000000 C 116.434875,308.891602 105.621513,327.007263 95.000000,345.000000 C 80.525032,369.520447 67.490112,394.947083 56.000000,421.000000 C 48.679432,437.598816 42.662926,454.765076 37.000000,472.000000 C 35.863739,475.458160 31.959478,489.488678 31.000000,493.000000 C 28.911520,500.643036 27.182274,508.383209 25.000000,516.000000 C 23.461002,521.371582 22.089523,526.817688 20.000000,532.000000 C 19.442545,533.382568 18.517197,534.601868 18.000000,536.000000 C 17.523169,537.289001 17.859980,538.927917 17.000000,540.000000 C 16.533611,540.581421 14.758104,540.294983 15.000000,541.000000 C 15.551606,542.607666 18.308598,540.167480 20.000000,540.000000 C 24.312244,539.572998 41.669067,539.855774 46.000000,540.000000 C 51.008324,540.166748 56.096569,539.966797 61.000000,541.000000 C 78.179825,544.619934 143.746002,570.362366 160.000000,577.000000 C 182.372513,586.136230 204.591919,595.788635 226.000000,607.000000 C 272.084290,631.134155 316.669067,658.213684 360.000000,687.000000 C 384.822754,703.490662 480.245239,775.004944 504.000000,793.000000 C 515.453735,801.676636 560.727051,837.089722 572.000000,846.000000 C 615.903870,880.702026 658.719971,916.779297 703.000000,951.000000 C 735.230347,975.908386 767.631592,1000.638245 801.000000,1024.000000 C 812.436096,1032.006592 824.193115,1039.551025 836.000000,1047.000000 C 848.522278,1054.900269 860.939209,1063.025879 874.000000,1070.000000 C 878.867249,1072.598999 883.874268,1074.957520 889.000000,1077.000000 C 889.979187,1077.390137 890.959534,1077.831177 892.000000,1078.000000 C 893.316101,1078.213623 894.856689,1078.686035 896.000000,1078.000000 C 898.429565,1076.542236 903.099915,1065.686523 904.000000,1063.000000 C 905.018433,1059.960205 906.749207,1047.196045 907.000000,1044.000000 C 908.642639,1023.064331 909.335632,1001.869690 907.000000,981.000000 C 904.148987,955.524841 897.499390,930.512634 890.000000,906.000000 C 886.233215,893.687866 881.444519,881.667725 876.000000,870.000000 C 864.581970,845.530823 852.182068,821.329712 837.000000,799.000000 C 828.481201,786.470581 789.201172,740.202271 779.000000,729.000000 C 768.208557,717.149536 757.117493,705.490723 745.000000,695.000000 C 716.371582,670.214844 685.231628,648.411987 654.000000,627.000000 C 636.150452,614.762573 562.491028,569.244751 544.000000,558.000000 C 525.487610,546.742249 506.638641,536.047424 488.000000,525.000000 C 453.280945,504.421509 418.488739,483.962219 384.000000,463.000000 C 353.172058,444.262817 322.205780,425.724487 292.000000,406.000000 C 281.161804,398.922607 270.513306,391.551575 260.000000,384.000000 C 243.756134,372.332245 227.781952,360.285339 212.000000,348.000000 C 203.209045,341.156738 194.498962,334.202698 186.000000,327.000000 C 182.937866,324.404907 179.792603,321.883148 177.000000,319.000000 C 173.377411,315.259949 169.969757,311.276886 167.000000,307.000000 C 166.233597,305.896271 163.634033,301.184723 163.000000,300.000000 C 162.648300,299.342834 162.000000,298.745361 162.000000,298.000000 C 162.000000,297.254639 162.365967,296.391846 163.000000,296.000000 C 163.850647,295.474274 168.018646,295.807770 169.000000,296.000000 C 173.768494,296.934082 191.675278,304.784607 196.000000,307.000000 C 207.729858,313.008728 252.004028,341.734802 263.000000,349.000000 C 263.973999,349.643555 308.042206,380.332550 309.000000,381.000000 C 344.353760,405.637390 379.404083,430.713806 415.000000,455.000000 C 433.863037,467.869781 453.000000,480.333344 472.000000,493.000000 C 515.000000,521.666687 557.111206,551.713501 601.000000,579.000000 C 640.571899,603.602600 681.251709,626.399170 722.000000,649.000000 C 743.125122,660.716919 764.769836,671.474609 786.000000,683.000000 C 825.863586,704.641113 864.755859,728.075012 905.000000,749.000000 C 940.844971,767.637634 977.765015,784.132507 1014.000000,802.000000 C 1023.693298,806.779785 1062.343506,826.146362 1072.000000,831.000000 C 1103.700195,846.933411 1134.552124,864.650269 1167.000000,879.000000 C 1196.044312,891.844543 1225.739624,903.363403 1256.000000,913.000000 C 1261.739136,914.827637 1285.149170,920.569641 1291.000000,922.000000 C 1313.934814,927.607056 1336.633789,934.614380 1360.000000,938.000000 C 1368.262085,939.197144 1401.655396,940.749878 1410.000000,941.000000 C 1417.330078,941.219727 1424.721558,941.895996 1432.000000,941.000000 C 1449.732910,938.816956 1467.504883,934.865479 1484.000000,928.000000 C 1499.463867,921.563721 1513.683960,912.160706 1527.000000,902.000000 C 1534.310303,896.421936 1540.864746,889.849426 1547.000000,883.000000 C 1567.950684,859.610535 1587.277466,834.577393 1604.000000,808.000000 C 1620.354736,782.007080 1633.655151,754.119690 1646.000000,726.000000 C 1652.571167,711.031921 1658.049683,695.579346 1663.000000,680.000000 C 1671.986206,651.719238 1680.472168,623.154724 1686.000000,594.000000 C 1690.937256,567.960266 1693.497559,541.461060 1695.000000,515.000000 C 1695.510132,506.014465 1695.842163,496.960510 1695.000000,488.000000 C 1693.158569,468.408386 1689.868408,448.782562 1684.000000,430.000000 C 1678.125732,411.198578 1669.667725,393.162018 1660.000000,376.000000 C 1655.416260,367.862976 1649.992188,360.163483 1644.000000,353.000000 C 1628.877075,334.920959 1612.677734,317.376953 1594.000000,303.000000 C 1567.723389,282.773926 1537.892090,267.353394 1508.000000,253.000000 C 1493.826050,246.194031 1478.994629,240.730957 1464.000000,236.000000 C 1432.235229,225.977921 1399.773071,217.947495 1367.000000,212.000000 C 1351.479980,209.183487 1288.693726,202.585663 1273.000000,201.000000 C 1257.356323,199.419388 1241.709106,197.667267 1226.000000,197.000000 C 1196.360107,195.740997 1166.666626,197.000000 1137.000000,197.000000 C 1121.666626,197.000000 1106.322754,196.430267 1091.000000,197.000000 C 1059.601563,198.167480 1028.184570,200.159622 997.000000,204.000000 C 967.792786,207.596878 938.741333,212.680603 910.000000,219.000000 C 903.090088,220.519302 875.802307,228.054794 869.000000,230.000000 C 842.538940,237.566849 816.056702,245.140350 790.000000,254.000000 C 769.426086,260.995422 749.079163,268.690430 729.000000,277.000000 C 718.523438,281.335602 708.218567,286.087067 698.000000,291.000000 C 682.146118,298.622314 666.204163,306.152527 651.000000,315.000000 C 637.895203,322.625824 625.088623,330.848297 613.000000,340.000000 C 610.362366,341.996826 600.469604,350.798737 598.000000,353.000000 C 585.847961,363.831787 573.334045,374.315002 562.000000,386.000000 C 553.113953,395.161163 544.836121,404.926056 537.000000,415.000000 C 532.003601,421.423279 527.337585,428.114655 523.000000,435.000000 C 515.044250,447.628723 507.814667,460.720764 501.000000,474.000000 C 496.301758,483.155090 492.079010,492.552734 488.000000,502.000000 C 485.865326,506.944000 483.785583,511.919495 482.000000,517.000000 C 479.342804,524.560547 476.829285,532.197693 475.000000,540.000000 C 474.074341,543.948120 473.334473,547.958618 473.000000,552.000000 C 472.890015,553.328796 473.000000,554.666687 473.000000,556.000000 C 473.000000,558.666687 472.227234,561.447754 473.000000,564.000000 C 473.348267,565.150269 474.091400,566.213318 475.000000,567.000000 C 477.930695,569.537476 492.412811,575.530334 496.000000,577.000000 C 504.486603,580.476868 513.118408,583.713318 522.000000,586.000000 C 524.374878,586.611450 548.577209,590.620605 551.000000,591.000000 C 574.612488,594.697510 598.230469,598.503906 622.000000,601.000000 C 633.963135,602.256287 681.992981,605.275269 694.000000,606.000000 C 706.993408,606.784241 720.003235,607.272949 733.000000,608.000000 C 755.005981,609.231079 777.082092,609.680115 799.000000,612.000000 C 810.063721,613.171021 854.018860,620.213440 865.000000,622.000000 C 872.680786,623.249634 880.397034,624.341614 888.000000,626.000000 C 900.797058,628.791321 913.333313,632.666687 926.000000,636.000000 C 932.333313,637.666687 938.714600,639.160706 945.000000,641.000000 C 955.420654,644.049438 965.842529,647.164124 976.000000,651.000000 C 983.820862,653.953491 991.234680,657.903381 999.000000,661.000000 C 1002.624023,662.445190 1006.552246,663.173706 1010.000000,665.000000 C 1013.270142,666.732239 1025.092651,675.710510 1028.000000,678.000000 C 1032.828857,681.802612 1037.797607,685.514648 1042.000000,690.000000 C 1044.279053,692.432495 1046.305786,695.129333 1048.000000,698.000000 C 1051.715820,704.295837 1054.985352,710.972473 1057.000000,718.000000 C 1058.019775,721.557312 1059.749390,736.307922 1060.000000,740.000000 C 1060.225708,743.325684 1060.495605,746.703735 1060.000000,750.000000 C 1058.651733,758.966858 1055.981689,767.853333 1052.000000,776.000000 C 1049.319946,781.483398 1034.841675,801.257446 1031.000000,806.000000 C 1026.695068,811.314575 1021.924438,816.253662 1017.000000,821.000000 C 1007.472107,830.183167 997.785645,839.333130 987.000000,847.000000 C 974.464050,855.911011 961.091125,863.835999 947.000000,870.000000 C 944.440369,871.119690 933.706909,874.308411 931.000000,875.000000 C 921.119324,877.524414 911.181396,880.417725 901.000000,881.000000 C 892.985352,881.458374 884.776794,880.991394 877.000000,879.000000 C 873.819641,878.185608 870.810303,876.697021 868.000000,875.000000 C 861.092590,870.828857 854.724121,865.687317 849.000000,860.000000 C 841.429565,852.478210 834.664978,844.044189 829.000000,835.000000 C 824.884399,828.429382 821.898010,821.191162 819.000000,814.000000 C 814.271973,802.267761 809.459717,790.407654 807.000000,778.000000 C 805.603027,770.953064 804.250122,742.179749 804.000000,735.000000 C 803.744629,727.671143 803.480164,720.314880 804.000000,713.000000 C 805.169617,696.542358 807.248840,680.067078 811.000000,664.000000 C 813.432495,653.580994 827.474731,613.101685 831.000000,603.000000 C 834.162292,593.938477 836.829834,584.644104 841.000000,576.000000 C 847.433411,562.664551 855.145386,549.866699 864.000000,538.000000 C 868.445190,532.042664 888.870544,510.379486 894.000000,505.000000 C 897.903687,500.905975 901.694702,496.669403 906.000000,493.000000 C 920.716248,480.457275 936.397705,468.912292 953.000000,459.000000 C 962.536438,453.306335 1002.864319,434.541931 1013.000000,430.000000 C 1022.546875,425.721924 1032.125000,421.453644 1042.000000,418.000000 C 1061.319336,411.243347 1080.849121,404.582001 1101.000000,401.000000 C 1119.425415,397.724701 1138.344238,398.477325 1157.000000,397.000000 C 1164.671631,396.392517 1172.311646,395.333649 1180.000000,395.000000 C 1196.317993,394.291870 1212.671753,394.592041 1229.000000,395.000000 C 1242.345825,395.333435 1255.770264,395.212311 1269.000000,397.000000 C 1275.091064,397.823059 1281.084351,399.331665 1287.000000,401.000000 C 1297.855835,404.061584 1308.475830,407.942352 1319.000000,412.000000 C 1323.737305,413.826477 1328.548340,415.558502 1333.000000,418.000000 C 1340.782104,422.268127 1348.251953,427.234375 1355.000000,433.000000 C 1360.916260,438.054993 1366.342896,443.765686 1371.000000,450.000000 C 1373.771362,453.709961 1375.938232,457.853485 1378.000000,462.000000 C 1381.858643,469.760254 1385.815308,477.613220 1388.000000,486.000000 C 1389.099609,490.221222 1390.749634,507.645111 1391.000000,512.000000 C 1391.248779,516.326172 1391.000000,520.666687 1391.000000,525.000000 C 1391.000000,532.000000 1391.348755,539.008667 1391.000000,546.000000 C 1390.666260,552.691589 1390.061890,559.384766 1389.000000,566.000000 C 1388.512939,569.034363 1387.634766,571.993103 1387.000000,575.000000 C 1386.297974,578.326050 1385.334961,581.617188 1385.000000,585.000000 C 1384.868652,586.326843 1383.709351,588.665527 1385.000000,589.000000 C 1385.415283,589.107605 1389.811035,580.385132 1390.000000,580.000000 C 1390.419189,579.145325 1407.625000,538.875000 1408.000000,538.000000 C 1412.000000,528.666687 1416.226440,519.427124 1420.000000,510.000000 C 1426.741699,493.157806 1433.337036,476.234924 1439.000000,459.000000 C 1442.030029,449.778229 1445.653687,440.612976 1447.000000,431.000000 C 1447.462280,427.698883 1447.000000,424.333344 1447.000000,421.000000 C 1447.000000,415.666656 1447.561890,410.303650 1447.000000,405.000000 C 1446.497192,400.253967 1446.088501,395.291412 1444.000000,391.000000 C 1442.860718,388.659058 1440.557617,387.086060 1439.000000,385.000000 C 1435.404663,380.184937 1432.889282,374.580872 1429.000000,370.000000 C 1426.786743,367.393158 1416.621704,358.195740 1414.000000,356.000000 C 1411.444580,353.859711 1408.772339,351.850677 1406.000000,350.000000 C 1398.915527,345.270813 1391.554688,340.934692 1384.000000,337.000000 C 1380.427734,335.139496 1376.749023,333.472198 1373.000000,332.000000 C 1369.565918,330.651489 1355.520264,326.104004 1352.000000,325.000000 C 1346.364014,323.232452 1340.809692,321.065674 1335.000000,320.000000 C 1332.862549,319.607941 1324.171509,319.083405 1322.000000,319.000000 C 1319.335327,318.897675 1316.666626,319.000000 1314.000000,319.000000 C 1309.000000,319.000000 1304.000000,319.000000 1299.000000,319.000000 C 1296.333374,319.000000 1293.636963,318.603485 1291.000000,319.000000 C 1288.758301,319.337067 1280.142456,322.259338 1278.000000,323.000000 C 1273.612061,324.516907 1269.062500,325.752411 1265.000000,328.000000 C 1263.541626,328.806824 1262.333374,330.000000 1261.000000,331.000000 C 1258.333374,333.000000 1255.232422,334.524689 1253.000000,337.000000 C 1251.698242,338.443359 1251.341309,340.593323 1250.000000,342.000000 C 1249.170654,342.869812 1247.652588,342.990753 1247.000000,344.000000 C 1246.449585,344.851349 1246.083618,348.989655 1246.000000,350.000000 C 1245.945068,350.664398 1245.893188,351.341949 1246.000000,352.000000 C 1246.168823,353.040466 1246.254639,354.254639 1247.000000,355.000000 C 1247.745361,355.745361 1251.959473,356.831146 1253.000000,357.000000 C 1253.987061,357.160187 1255.001953,356.937866 1256.000000,357.000000 C 1258.682251,357.166992 1261.317749,357.833008 1264.000000,358.000000 C 1265.663452,358.103577 1267.333374,358.000000 1269.000000,358.000000 C 1270.000000,358.000000 1271.000000,358.000000 1272.000000,358.000000 C 1273.000000,358.000000 1274.000000,358.000000 1275.000000,358.000000 C 1275.666626,358.000000 1276.934326,358.663422 1277.000000,358.000000 C 1277.041870,357.577148 1272.422852,357.041870 1272.000000,357.000000 C 1268.351196,356.638702 1264.639160,357.447998 1261.000000,357.000000 C 1256.907837,356.496216 1252.907349,355.316284 1249.000000,354.000000 C 1247.797119,353.594788 1243.151489,351.534058 1242.000000,351.000000 C 1240.647705,350.372772 1239.209351,349.871643 1238.000000,349.000000 C 1236.852783,348.173096 1236.147217,346.826904 1235.000000,346.000000 C 1234.395386,345.564178 1233.558838,345.493286 1233.000000,345.000000 C 1232.098999,344.204620 1231.486206,343.099121 1231.000000,342.000000 C 1230.443970,340.743134 1230.167969,339.364075 1230.000000,338.000000 C 1229.877808,337.007507 1230.000000,336.000000 1230.000000,335.000000 C 1230.000000,334.333344 1229.934326,333.663422 1230.000000,333.000000 C 1230.167480,331.308594 1230.448364,329.607666 1231.000000,328.000000 C 1231.241943,327.294983 1231.564209,326.604675 1232.000000,326.000000 C 1232.826904,324.852722 1233.819336,323.778503 1235.000000,323.000000 C 1236.498535,322.011841 1238.362427,321.735352 1240.000000,321.000000 C 1240.679932,320.694672 1241.274536,320.171234 1242.000000,320.000000 C 1243.622070,319.617065 1245.333374,320.000000 1247.000000,320.000000 C 1249.333374,320.000000 1251.666626,320.000000 1254.000000,320.000000 C 1255.333374,320.000000 1256.723877,319.613617 1258.000000,320.000000 C 1258.575195,320.174133 1260.535278,321.619019 1261.000000,322.000000 C 1262.458252,323.195465 1263.897461,324.470306 1265.000000,326.000000 C 1265.435791,326.604675 1266.714722,329.311371 1267.000000,330.000000 C 1267.403442,330.973846 1267.729492,331.981232 1268.000000,333.000000 C 1268.436279,334.642731 1268.832520,336.308594 1269.000000,338.000000 C 1269.098511,338.995148 1269.000000,340.000000 1269.000000,341.000000 C 1269.000000,341.666656 1269.471436,342.528595 1269.000000,343.000000 C 1268.057251,343.942810 1266.333374,343.000000 1265.000000,343.000000 C 1263.000000,343.000000 1261.000000,343.000000 1259.000000,343.000000 C 1257.666626,343.000000 1256.325317,343.145477 1255.000000,343.000000 C 1254.809082,342.979034 1246.187500,341.041656 1246.000000,341.000000 C 1243.000000,340.333344 1240.054810,339.335327 1237.000000,339.000000 C 1236.005981,338.890869 1234.981934,339.189117 1234.000000,339.000000 C 1233.118652,338.830261 1229.818726,337.367676 1229.000000,337.000000 C 1228.320068,336.694672 1227.725464,336.171234 1227.000000,336.000000 C 1225.053467,335.540497 1223.000000,336.000000 1221.000000,336.000000 C 1219.666626,336.000000 1218.316162,336.213562 1217.000000,336.000000 C 1215.959473,335.831146 1215.040527,335.168854 1214.000000,335.000000 C 1213.341919,334.893219 1212.666626,335.000000 1212.000000,335.000000 C 1211.000000,335.000000 1210.000000,335.000000 1209.000000,335.000000 C 1208.000000,335.000000 1207.000000,335.000000 1206.000000,335.000000 C 1205.333374,335.000000 1204.666626,335.000000 1204.000000,335.000000 C 1203.333374,335.000000 1202.471436,335.471405 1202.000000,335.000000 C 1201.528564,334.528595 1202.000000,333.666656 1202.000000,333.000000 C 1202.000000,332.333344 1202.106812,331.658051 1202.000000,331.000000 C 1201.831177,329.959534 1201.690674,328.796326 1201.000000,328.000000 C 1200.511597,327.436920 1199.527100,327.527039 1199.000000,327.000000 C 1198.472900,326.472961 1198.634033,325.391846 1198.000000,325.000000 C 1197.432861,324.649506 1196.615967,325.255127 1196.000000,325.000000 C 1195.128906,324.639191 1194.666626,323.666656 1194.000000,323.000000 C 1193.333374,322.333344 1192.666626,321.666656 1192.000000,321.000000 C 1191.333374,320.333344 1190.764893,319.551270 1190.000000,319.000000 C 1188.790649,318.128357 1187.209351,317.871643 1186.000000,317.000000 C 1185.235107,316.448730 1184.802002,315.495667 1184.000000,315.000000 C 1183.103394,314.445831 1181.973877,314.403381 1181.000000,314.000000 C 1180.311401,313.714752 1179.604614,313.435822 1179.000000,313.000000 C 1178.235107,312.448730 1177.764893,311.551270 1177.000000,311.000000 C 1176.395386,310.564178 1175.604614,310.435822 1175.000000,310.000000 C 1174.235107,309.448730 1173.597778,308.729126 1173.000000,308.000000 C 1172.238037,307.070557 1171.603271,306.039490 1171.000000,305.000000 C 1170.625854,304.355347 1170.435791,303.604675 1170.000000,303.000000 C 1169.724365,302.617584 1168.356079,301.308868 1168.000000,301.000000 C 1166.740967,299.907990 1165.067871,299.279572 1164.000000,298.000000 C 1163.522461,297.427765 1163.527100,296.527039 1163.000000,296.000000 C 1161.945923,294.945892 1160.289307,294.748230 1159.000000,294.000000 C 1157.960449,293.396759 1156.929443,292.761963 1156.000000,292.000000 C 1154.906372,291.103394 1154.327881,288.513580 1153.000000,289.000000 C 1149.231079,290.380585 1152.495239,297.016815 1152.000000,301.000000 C 1144.454468,361.689178 1137.835815,422.929382 1122.000000,482.000000 C 1109.735962,527.747314 1090.982300,571.607666 1072.000000,615.000000 C 1052.194214,660.274597 961.818848,836.166687 939.000000,880.000000 C 914.689453,926.698792 900.533936,981.091553 864.000000,1019.000000 C 836.627014,1047.402832 800.060303,1068.635864 762.000000,1079.000000 C 757.175659,1080.313721 747.000000,1079.000000 747.000000,1079.000000 C 747.000000,1079.000000 751.046692,1079.429688 753.000000,1079.000000 C 786.355591,1071.661987 817.919373,1055.440186 846.000000,1036.000000 C 898.325562,999.774963 940.886658,950.578979 982.000000,902.000000 C 996.995056,884.282043 1011.026001,865.453552 1022.000000,845.000000 C 1025.892334,837.745483 1037.197388,806.741028 1040.000000,799.000000 C 1040.358887,798.008850 1041.966553,796.420715 1041.000000,796.000000 C 1040.521362,795.791626 1035.229858,806.531250 1035.000000,807.000000 C 1024.748413,827.907593 1014.384460,848.916260 1007.000000,871.000000 C 994.180115,909.338928 983.333374,948.807434 979.000000,989.000000 C 977.034485,1007.230713 974.527100,1026.499390 980.000000,1044.000000 C 981.076172,1047.441162 983.316040,1050.592407 986.000000,1053.000000 C 992.991943,1059.271729 1001.905334,1063.652710 1011.000000,1066.000000 C 1023.591675,1069.249756 1037.110474,1068.723267 1050.000000,1067.000000 C 1053.449463,1066.538818 1056.765015,1065.282959 1060.000000,1064.000000 C 1063.464355,1062.626099 1066.666626,1060.666626 1070.000000,1059.000000 C 1070.666626,1058.666626 1071.274536,1058.171265 1072.000000,1058.000000 C 1072.648804,1057.846802 1073.528564,1058.471436 1074.000000,1058.000000 C 1074.088379,1057.911621 1074.007813,1055.124756 1074.000000,1055.000000 C 1073.833008,1052.317749 1073.743896,1049.582397 1073.000000,1047.000000 C 1071.472534,1041.697998 1069.045532,1036.600952 1066.000000,1032.000000 C 1064.762329,1030.130249 1058.607788,1023.562927 1057.000000,1022.000000 C 1050.726074,1015.901306 1044.345215,1009.754333 1037.000000,1005.000000 C 1023.982666,996.574219 1009.552795,990.353638 995.000000,985.000000 C 985.286926,981.426819 975.136292,979.089661 965.000000,977.000000 C 953.780701,974.687073 942.424683,972.835571 931.000000,972.000000 C 927.343079,971.732544 920.000000,972.000000 920.000000,972.000000 C 920.000000,972.000000 927.333313,972.000000 931.000000,972.000000 C 939.666687,972.000000 948.373962,972.838501 957.000000,972.000000 C 993.176575,968.483521 1029.476196,962.367554 1064.000000,951.000000 C 1083.969116,944.424805 1102.705078,934.358398 1121.000000,924.000000 C 1123.091675,922.815674 1125.141113,921.523926 1127.000000,920.000000 C 1128.093628,919.103394 1130.541138,918.306580 1130.000000,917.000000 C 1129.266479,915.229248 1108.900879,916.754089 1107.000000,917.000000 C 1087.515503,919.520813 1068.599976,925.672180 1050.000000,932.000000 C 1043.494385,934.213257 1029.639771,933.264160 1031.000000,940.000000 C 1031.032959,940.163391 1032.834106,940.015564 1033.000000,940.000000 C 1034.562134,939.853516 1105.459351,926.296814 1107.000000,926.000000 C 1124.010986,922.723145 1140.757446,917.674500 1158.000000,916.000000 C 1159.658813,915.838928 1161.333374,916.000000 1163.000000,916.000000 C 1164.333374,916.000000 1166.905518,914.670044 1167.000000,916.000000 C 1167.020874,916.293884 1160.293945,916.979126 1160.000000,917.000000 C 1159.334961,917.047241 1158.000000,917.000000 1158.000000,917.000000 C 1158.000000,917.000000 1166.019409,916.605835 1170.000000,917.000000 C 1171.691406,917.167480 1173.357300,917.563721 1175.000000,918.000000 C 1176.018799,918.270569 1177.026123,919.403381 1178.000000,919.000000 C 1178.688599,918.714783 1179.000000,917.745361 1179.000000,917.000000 C 1179.000000,916.254639 1178.333374,915.666687 1178.000000,915.000000 C 1177.666626,914.333313 1177.407959,913.623779 1177.000000,913.000000 C 1175.575073,910.821167 1173.519409,909.114014 1172.000000,907.000000 C 1169.030396,902.868347 1166.744995,898.284180 1164.000000,894.000000 C 1163.351563,892.988037 1162.666626,892.000000 1162.000000,891.000000 C 1160.666626,889.000000 1159.523926,886.858887 1158.000000,885.000000 C 1157.402222,884.270874 1155.377930,883.708496 1156.000000,883.000000 C 1156.225464,882.743225 1168.730835,892.789490 1169.000000,893.000000 C 1183.761108,904.546997 1198.671143,915.920898 1213.000000,928.000000 C 1215.391602,930.016113 1238.678345,950.903748 1241.000000,953.000000 C 1248.705444,959.957275 1256.109131,967.253723 1264.000000,974.000000 C 1265.622314,975.386963 1267.650024,979.653259 1269.000000,978.000000 C 1269.205811,977.747925 1257.255249,968.201843 1257.000000,968.000000 C 1254.385498,965.932373 1251.484863,964.221924 1249.000000,962.000000 C 1243.199097,956.812927 1238.418579,950.585266 1233.000000,945.000000 C 1232.015259,943.984985 1230.000000,942.000000 1230.000000,942.000000 C 1230.000000,942.000000 1234.067627,945.934570 1236.000000,948.000000 C 1238.420776,950.587524 1240.531738,953.457703 1243.000000,956.000000 C 1247.436035,960.569092 1252.001221,965.054382 1257.000000,969.000000 C 1259.830200,971.233887 1263.211670,972.714111 1266.000000,975.000000 C 1266.729126,975.597717 1267.156738,977.421631 1268.000000,977.000000 C 1269.054077,976.472961 1267.377197,971.116516 1267.000000,970.000000 C 1265.961304,966.924988 1249.680054,938.777100 1248.000000,936.000000 C 1242.951294,927.654419 1221.429932,895.102722 1216.000000,887.000000 C 1208.793945,876.246948 1201.649658,865.442200 1194.000000,855.000000 C 1179.262695,834.882813 1164.514771,814.685547 1148.000000,796.000000 C 1134.263916,780.458374 1119.198730,766.114563 1104.000000,752.000000 C 1094.647949,743.315063 1084.644409,735.359131 1075.000000,727.000000 C 1051.612427,706.729065 1028.569092,686.059631 1005.000000,666.000000 C 979.584106,644.368530 953.810608,623.158936 928.000000,602.000000 C 912.419495,589.227478 897.184631,575.997742 881.000000,564.000000 C 852.851257,543.133179 823.669067,523.642029 794.000000,505.000000 C 783.882507,498.642822 773.774841,492.165344 763.000000,487.000000 C 736.261963,474.182068 708.094360,464.483154 680.000000,455.000000 C 670.954712,451.946808 634.207397,441.522400 625.000000,439.000000 C 613.381897,435.817169 601.808838,432.379639 590.000000,430.000000 C 578.770508,427.737091 567.404846,426.073242 556.000000,425.000000 C 552.014160,424.624908 536.002625,424.083344 532.000000,424.000000 C 528.000854,423.916718 523.998596,423.894836 520.000000,424.000000 C 507.320190,424.333435 494.472168,423.690460 482.000000,426.000000 C 469.250977,428.360809 456.940948,432.947784 445.000000,438.000000 C 439.095001,440.498413 433.209961,443.262726 428.000000,447.000000 C 414.205048,456.895538 401.183014,468.415894 391.000000,482.000000 C 372.579803,506.572479 359.919342,535.296692 349.000000,564.000000 C 342.388306,581.379944 338.125916,599.669495 335.000000,618.000000 C 330.332611,645.369751 325.348511,673.362000 328.000000,701.000000 C 331.043304,732.722107 339.367737,764.690063 354.000000,793.000000 C 360.095215,804.792786 369.577148,814.649475 379.000000,824.000000 C 408.303192,853.078247 440.158997,880.514709 476.000000,901.000000 C 533.990173,934.144836 598.535217,955.514709 663.000000,973.000000 C 680.929321,977.863098 754.554626,988.791260 773.000000,991.000000 C 855.650818,1000.897095 938.797302,1007.466064 1022.000000,1010.000000 C 1109.302979,1012.658813 1196.726318,1009.492371 1284.000000,1006.000000 C 1293.011719,1005.639404 1383.001587,999.607788 1392.000000,999.000000 C 1453.678223,994.834106 1515.292725,989.710388 1577.000000,986.000000 C 1616.977783,983.596191 1657.001343,982.025574 1697.000000,980.000000 C 1710.000366,979.341675 1722.987183,978.333435 1736.000000,978.000000 C 1747.996094,977.692627 1760.000000,978.000000 1772.000000,978.000000 C 1776.000000,978.000000 1780.025635,977.547363 1784.000000,978.000000 C 1788.418701,978.503235 1792.652466,980.063843 1797.000000,981.000000 C 1798.661621,981.357788 1800.392334,981.448364 1802.000000,982.000000 C 1802.704956,982.241882 1803.274536,982.828735 1804.000000,983.000000 C 1804.648804,983.153198 1806.000000,983.000000 1806.000000,983.000000 C 1806.000000,983.000000 1803.996948,982.921753 1803.000000,983.000000 C 1796.607910,983.501526 1790.362915,985.209351 1784.000000,986.000000 C 1769.385254,987.816101 1754.601563,988.080688 1740.000000,990.000000 C 1730.274414,991.278381 1720.721313,993.689514 1711.000000,995.000000 C 1697.391479,996.834473 1683.691528,997.952271 1670.000000,999.000000 C 1664.008301,999.458496 1658.006958,999.833252 1652.000000,1000.000000 C 1651.000366,1000.027771 1650.000000,1000.000000 1649.000000,1000.000000 C 1648.333374,1000.000000 1647.350464,1000.567078 1647.000000,1000.000000 C 1646.608154,999.365967 1648.537231,996.584290 1649.000000,996.000000 C 1649.303101,995.617371 1666.622925,981.309998 1667.000000,981.000000 C 1691.531738,960.834717 1716.664551,941.401733 1741.000000,921.000000 C 1746.070435,916.749207 1750.736938,912.009705 1756.000000,908.000000 C 1756.956055,907.271667 1759.348267,907.150269 1759.000000,906.000000 C 1758.903442,905.680969 1755.330444,905.955750 1755.000000,906.000000 C 1751.233032,906.504456 1747.511230,907.545593 1744.000000,909.000000 C 1743.379272,909.257080 1730.579712,916.660461 1730.000000,917.000000 C 1728.322754,917.982239 1726.795654,920.743774 1725.000000,920.000000 C 1723.730225,919.474060 1723.727905,917.347168 1724.000000,916.000000 C 1724.329956,914.366333 1726.472900,913.581116 1727.000000,912.000000 C 1727.210815,911.367554 1727.436768,910.503662 1727.000000,910.000000 C 1726.613892,909.554871 1720.587769,909.041748 1720.000000,909.000000 C 1718.337524,908.881836 1716.666626,909.000000 1715.000000,909.000000 C 1712.666626,909.000000 1710.333374,909.000000 1708.000000,909.000000 C 1707.000000,909.000000 1705.773315,909.633972 1705.000000,909.000000 C 1704.342773,908.461243 1703.960083,904.848877 1704.000000,904.000000 C 1704.081787,902.261902 1706.358521,895.617493 1707.000000,894.000000 C 1707.274780,893.307129 1707.828735,892.725403 1708.000000,892.000000 C 1708.229736,891.026733 1708.707153,889.707092 1708.000000,889.000000 C 1707.528564,888.528625 1706.666626,889.000000 1706.000000,889.000000 C 1703.666626,889.000000 1701.328857,888.855042 1699.000000,889.000000 C 1693.635498,889.333984 1688.364502,890.666016 1683.000000,891.000000 C 1681.003906,891.124268 1678.622437,892.169434 1677.000000,891.000000 C 1676.144897,890.383667 1675.925293,889.051453 1676.000000,888.000000 C 1676.052856,887.256531 1677.338257,886.664185 1677.000000,886.000000 C 1676.770020,885.548279 1671.505127,885.041809 1671.000000,885.000000 C 1669.006836,884.835022 1667.000000,885.000000 1665.000000,885.000000 C 1664.000000,885.000000 1662.707153,885.707092 1662.000000,885.000000 C 1661.528564,884.528625 1662.350464,883.567078 1662.000000,883.000000 C 1661.804077,882.682983 1660.362671,882.085632 1660.000000,882.000000 C 1659.351196,881.846802 1658.666626,882.000000 1658.000000,882.000000 C 1654.333374,882.000000 1650.666626,882.000000 1647.000000,882.000000 C 1645.333374,882.000000 1643.666626,882.000000 1642.000000,882.000000 C 1641.333374,882.000000 1640.471436,882.471375 1640.000000,882.000000 C 1639.528564,881.528625 1640.430908,880.508667 1640.000000,880.000000 C 1639.672363,879.613220 1634.505127,879.041809 1634.000000,879.000000 C 1633.003418,878.917542 1631.995117,879.098511 1631.000000,879.000000 C 1629.308594,878.832520 1627.607666,878.551636 1626.000000,878.000000 C 1625.295044,877.758118 1624.558838,877.493286 1624.000000,877.000000 C 1623.098999,876.204590 1622.486206,875.099121 1622.000000,874.000000 C 1621.443970,872.743103 1621.677124,871.195984 1621.000000,870.000000 C 1620.070923,868.359131 1618.604004,866.991333 1617.000000,866.000000 C 1615.206665,864.891663 1613.000000,864.666687 1611.000000,864.000000 C 1609.000000,863.333313 1607.037598,862.541077 1605.000000,862.000000 C 1603.357300,861.563721 1596.675293,860.286987 1595.000000,860.000000 C 1592.676758,859.602051 1590.293945,859.541504 1588.000000,859.000000 C 1586.974121,858.757813 1585.973877,858.403381 1585.000000,858.000000 C 1584.311401,857.714783 1583.604614,857.435791 1583.000000,857.000000 C 1582.235107,856.448730 1581.764893,855.551270 1581.000000,855.000000 C 1580.395386,854.564209 1579.604614,854.435791 1579.000000,854.000000 C 1577.852783,853.173096 1577.093628,851.896606 1576.000000,851.000000 C 1574.141113,849.476074 1572.078979,848.206482 1570.000000,847.000000 C 1568.710693,846.251770 1567.359863,845.610657 1566.000000,845.000000 C 1562.724976,843.529297 1559.294556,842.426331 1556.000000,841.000000 C 1550.936523,838.807861 1546.168823,835.930603 1541.000000,834.000000 C 1538.726685,833.150879 1536.330688,832.675720 1534.000000,832.000000 C 1528.326904,830.355286 1522.635986,828.767517 1517.000000,827.000000 C 1511.971069,825.422852 1507.079224,823.406860 1502.000000,822.000000 C 1499.038330,821.179688 1495.978760,820.755798 1493.000000,820.000000 C 1488.295654,818.806396 1483.562012,817.656311 1479.000000,816.000000 C 1475.914185,814.879639 1473.104126,813.068787 1470.000000,812.000000 C 1468.700562,811.552551 1467.307739,811.422852 1466.000000,811.000000 C 1464.291992,810.447693 1462.498535,809.988159 1461.000000,809.000000 C 1460.212891,808.481018 1459.764893,807.551270 1459.000000,807.000000 C 1458.395386,806.564209 1457.702393,806.249390 1457.000000,806.000000 C 1454.103882,804.971802 1450.990967,804.706055 1448.000000,804.000000 C 1443.987183,803.052734 1440.022705,801.904541 1436.000000,801.000000 C 1434.341675,800.627136 1432.601196,800.570251 1431.000000,800.000000 C 1427.979980,798.924377 1416.775146,792.605225 1414.000000,791.000000 C 1404.793823,785.674866 1396.009399,779.651733 1387.000000,774.000000 C 1376.344482,767.315613 1365.594727,760.780457 1355.000000,754.000000 C 1325.798340,735.311401 1296.488892,716.758118 1268.000000,697.000000 C 1260.357544,691.699707 1185.480591,636.526306 1178.000000,631.000000 C 1163.629272,620.383728 1148.949585,610.163818 1135.000000,599.000000 C 1115.437744,583.344482 1096.371460,567.037231 1078.000000,550.000000 C 1067.976196,540.704224 1057.957031,531.327637 1049.000000,521.000000 C 1046.816040,518.481812 1044.679199,515.879456 1043.000000,513.000000 C 1040.067383,507.971222 1036.717896,502.776978 1036.000000,497.000000 C 1034.999878,488.951538 1037.402466,480.683136 1040.000000,473.000000 C 1042.053589,466.925964 1045.505371,461.375732 1049.000000,456.000000 C 1049.808716,454.756042 1070.078247,429.162628 1071.000000,428.000000 C 1073.651978,424.654999 1076.356201,421.351532 1079.000000,418.000000 C 1081.353882,415.016052 1083.484741,411.849213 1086.000000,409.000000 C 1086.623901,408.293182 1087.333374,407.666656 1088.000000,407.000000 C 1088.666626,406.333344 1089.333374,405.666656 1090.000000,405.000000 C 1090.666626,404.333344 1091.371216,403.702515 1092.000000,403.000000 C 1093.423462,401.409607 1094.849731,399.797852 1096.000000,398.000000 C 1096.401733,397.372162 1097.046265,396.743927 1097.000000,396.000000 C 1096.962646,395.400238 1095.380981,393.464722 1095.000000,393.000000 C 1094.402222,392.270874 1093.360840,391.871033 1093.000000,391.000000 C 1092.489746,389.768158 1093.000000,388.333344 1093.000000,387.000000 C 1093.000000,386.000000 1093.082520,384.996582 1093.000000,384.000000 C 1092.832764,381.979309 1092.680298,379.910065 1092.000000,378.000000 C 1091.098389,375.468353 1089.778564,373.014709 1088.000000,371.000000 C 1086.896973,369.750549 1085.333374,369.000000 1084.000000,368.000000 C 1080.000000,365.000000 1076.341187,361.480682 1072.000000,359.000000 C 1068.237671,356.850067 1063.820557,356.044708 1060.000000,354.000000 C 1058.940308,353.432892 1058.039551,352.603241 1057.000000,352.000000 C 1056.355347,351.625885 1055.493286,350.441223 1055.000000,351.000000 C 1054.801147,351.225250 1056.799194,353.776520 1057.000000,354.000000 C 1058.740112,355.936462 1060.821167,357.575012 1063.000000,359.000000 C 1063.623779,359.407959 1064.274536,359.828766 1065.000000,360.000000 C 1066.297607,360.306335 1067.666626,360.000000 1069.000000,360.000000 C 1069.666626,360.000000 1070.412231,360.314575 1071.000000,360.000000 C 1072.059692,359.432892 1072.651733,358.150269 1073.000000,357.000000 C 1073.676147,354.766785 1073.000000,352.333344 1073.000000,350.000000 C 1073.000000,349.000000 1073.340454,347.940277 1073.000000,347.000000 C 1072.556885,345.776031 1068.977417,341.859680 1068.000000,341.000000 C 1066.368286,339.564850 1058.890991,335.070679 1057.000000,334.000000 C 1054.405518,332.531067 1051.719727,331.221344 1049.000000,330.000000 C 1044.087402,327.793945 1038.975220,326.060822 1034.000000,324.000000 C 1031.654663,323.028534 1029.302979,322.068115 1027.000000,321.000000 C 1026.323853,320.686401 1025.563110,319.511627 1025.000000,320.000000 C 1024.900513,320.086334 1025.949585,322.878265 1026.000000,323.000000 C 1026.855713,325.065857 1028.083984,326.960175 1029.000000,329.000000 C 1029.735352,330.637512 1030.419312,332.301453 1031.000000,334.000000 C 1031.785034,336.296234 1032.834595,338.578949 1033.000000,341.000000 C 1033.321289,345.703094 1032.682495,350.596405 1031.000000,355.000000 C 1029.713135,358.368103 1027.556641,361.457703 1025.000000,364.000000 C 1013.396301,375.538300 998.532288,383.477325 984.000000,391.000000 C 962.066345,402.354034 939.001770,412.176331 915.000000,418.000000 C 905.555786,420.291504 895.716614,420.822601 886.000000,421.000000 C 875.979492,421.182953 865.437012,422.374451 856.000000,419.000000 C 851.949951,417.551819 838.163513,406.914154 835.000000,404.000000 C 830.824951,400.154053 827.124817,395.738953 824.000000,391.000000 C 817.845337,381.666199 813.278503,371.329285 809.000000,361.000000 C 806.983093,356.130737 804.844238,351.202393 804.000000,346.000000 C 803.733032,344.354858 803.768860,342.650543 804.000000,341.000000 C 804.673157,336.193512 805.638916,331.240387 808.000000,327.000000 C 809.205322,324.835266 816.222656,317.726227 818.000000,316.000000 C 820.204529,313.858887 822.189514,311.243256 825.000000,310.000000 C 827.457703,308.912781 838.317749,308.166992 841.000000,308.000000 C 845.657654,307.710022 850.405457,307.182800 855.000000,308.000000 C 872.131653,311.047089 888.372253,318.348114 904.000000,326.000000 C 915.297119,331.531464 957.635193,358.873108 968.000000,366.000000 C 988.984619,380.429169 1009.105042,396.102051 1029.000000,412.000000 C 1037.869019,419.087219 1046.459229,426.520386 1055.000000,434.000000 C 1065.829468,443.483948 1075.710205,454.069000 1087.000000,463.000000 C 1092.075928,467.015442 1098.456299,469.390930 1103.000000,474.000000 C 1103.843750,474.855896 1104.098999,476.204620 1105.000000,477.000000 C 1105.558838,477.493286 1106.365967,478.391846 1107.000000,478.000000 C 1107.106323,477.934296 1107.006226,475.124847 1107.000000,475.000000 C 1106.666260,468.308411 1106.593140,461.507751 1105.000000,455.000000 C 1104.146362,451.512878 1102.887451,448.053925 1101.000000,445.000000 C 1096.779541,438.171204 1090.886841,432.457977 1085.000000,427.000000 C 1081.773315,424.008392 1067.613647,413.510559 1064.000000,411.000000 C 1057.848267,406.726044 1051.662842,402.423126 1045.000000,399.000000 C 1034.759277,393.738647 1023.661377,390.346313 1013.000000,386.000000 C 1005.663025,383.008942 998.551453,379.398621 991.000000,377.000000 C 986.761475,375.653687 982.324036,375.039337 978.000000,374.000000 C 976.663696,373.678802 975.319580,373.384247 974.000000,373.000000 C 972.987915,372.705292 971.973877,372.403381 971.000000,372.000000 C 970.311401,371.714752 969.725403,371.171234 969.000000,371.000000 C 968.351196,370.846832 967.054993,371.664398 967.000000,371.000000 C 966.979065,370.747406 972.747437,370.020905 973.000000,370.000000 C 974.661011,369.862518 976.336548,370.103577 978.000000,370.000000 C 983.364441,369.666016 988.758301,369.188965 994.000000,368.000000 C 997.083923,367.300476 1000.102722,366.267181 1003.000000,365.000000 C 1009.970886,361.951172 1016.702820,358.270172 1023.000000,354.000000 C 1029.075684,349.879974 1035.208618,345.561584 1040.000000,340.000000 C 1042.537231,337.054932 1044.756714,333.683136 1046.000000,330.000000 C 1046.965332,327.140076 1047.713623,323.932892 1047.000000,321.000000 C 1046.147583,317.496643 1043.964966,314.051666 1041.000000,312.000000 C 1031.292480,305.282532 983.696533,297.597504 972.000000,296.000000 C 930.346741,290.311005 762.037537,285.455048 720.000000,285.000000 C 628.983398,284.014771 537.935669,287.037262 447.000000,291.000000 C 416.297333,292.337952 385.600281,294.159637 355.000000,297.000000 C 307.862244,301.375427 260.349915,304.366882 214.000000,314.000000 C 194.587799,318.034515 174.514633,321.707611 157.000000,331.000000 C 152.814972,333.220367 148.319122,335.868896 146.000000,340.000000 C 134.138809,361.128723 131.809738,388.134705 136.000000,412.000000 C 143.039505,452.092957 168.661469,487.371246 193.000000,520.000000 C 206.107040,537.571594 222.431519,552.888794 240.000000,566.000000 C 291.660645,604.553894 348.823273,636.891907 409.000000,660.000000 C 471.577911,684.030151 538.393188,697.452026 605.000000,705.000000 C 635.140442,708.415588 665.844971,708.284119 696.000000,705.000000 C 759.115234,698.126282 822.246826,685.455383 882.000000,664.000000 C 929.563843,646.921448 974.450073,622.267273 1017.000000,595.000000 C 1028.790649,587.444153 1040.099609,578.904297 1050.000000,569.000000 C 1064.096069,554.898315 1080.473877,540.840515 1087.000000,522.000000 C 1090.491333,511.920868 1091.081909,499.854706 1087.000000,490.000000 C 1085.376465,486.080322 1081.686768,483.099579 1078.000000,481.000000 C 1049.898926,464.996552 1016.277893,458.979004 984.000000,457.000000 C 931.672668,453.791748 879.044312,465.044830 828.000000,477.000000 C 809.114624,481.423187 791.391663,489.838196 773.000000,496.000000 C 747.412292,504.572723 721.517639,512.220947 696.000000,521.000000 C 692.310669,522.269287 688.584106,523.458374 685.000000,525.000000 C 682.945862,525.883545 681.000000,527.000000 679.000000,528.000000 C 678.333313,528.333313 677.725403,528.828735 677.000000,529.000000 C 676.026733,529.229736 674.973267,529.229736 674.000000,529.000000 C 672.549194,528.657532 671.359863,527.610657 670.000000,527.000000 C 668.362488,526.264648 666.530640,525.937744 665.000000,525.000000 C 661.978577,523.148926 659.778381,520.199097 657.000000,518.000000 C 654.751648,516.220398 652.187927,514.853455 650.000000,513.000000 C 648.920898,512.085876 648.109802,510.876587 647.000000,510.000000 C 643.007202,506.846222 638.505859,504.363464 634.000000,502.000000 C 625.937500,497.770935 617.310974,494.717102 609.000000,491.000000 C 605.323303,489.355591 601.780090,487.390411 598.000000,486.000000 C 597.572937,485.842926 577.437500,480.125000 577.000000,480.000000 C 570.000000,478.000000 563.101868,475.600983 556.000000,474.000000 C 548.088196,472.216431 539.955078,471.579254 532.000000,470.000000 C 523.275818,468.268066 514.768127,465.493622 506.000000,464.000000 C 500.048798,462.986237 494.027679,462.333832 488.000000,462.000000 C 487.001526,461.944702 485.990326,462.138702 485.000000,462.000000 C 482.596741,461.663422 480.344116,460.627716 478.000000,460.000000 C 475.344818,459.289001 472.728149,458.335846 470.000000,458.000000 C 469.338318,457.918549 468.664398,458.054993 468.000000,458.000000 C 466.989655,457.916382 462.992554,457.206451 462.000000,457.000000 C 460.654419,456.720123 459.289001,456.476837 458.000000,456.000000 C 457.300934,455.741394 456.488373,455.563080 456.000000,455.000000 C 455.740997,454.701385 453.114532,446.378326 453.000000,446.000000 C 451.898651,442.362488 450.808502,438.713593 450.000000,435.000000 C 445.616699,414.866882 444.488098,394.110016 440.000000,374.000000 C 433.886414,346.606537 426.191559,319.519684 417.000000,293.000000 C 412.986206,281.419342 408.732239,269.833466 403.000000,259.000000 C 394.784698,243.473740 385.350769,228.405792 374.000000,215.000000 C 365.769745,205.279663 356.062958,196.807617 346.000000,189.000000 C 341.616821,185.599197 336.970947,182.463196 332.000000,180.000000 C 328.504089,178.267715 313.730896,173.141342 310.000000,172.000000 C 307.371490,171.195908 304.728149,170.335846 302.000000,170.000000 C 301.007507,169.877823 300.000000,170.000000 299.000000,170.000000 C 298.333344,170.000000 297.615906,170.255127 297.000000,170.000000 C 295.693451,169.458801 295.000000,168.000000 294.000000,167.000000 C 293.333344,166.333328 292.764832,165.551270 292.000000,165.000000 C 291.395325,164.564178 290.634033,164.391861 290.000000,164.000000 C 288.582245,163.123779 287.259094,162.092010 286.000000,161.000000 C 285.287750,160.382263 284.787109,159.519012 284.000000,159.000000 C 283.250702,158.505920 279.854004,157.276138 279.000000,157.000000 C 277.692291,156.577148 276.195984,156.677155 275.000000,156.000000 C 274.179565,155.535477 273.519012,154.787094 273.000000,154.000000 C 272.011841,152.501419 271.988159,150.498581 271.000000,149.000000 C 270.221497,147.819351 269.000000,147.000000 268.000000,146.000000 C 267.000000,145.000000 266.214111,143.725189 265.000000,143.000000 C 264.253082,142.553864 255.844162,140.210541 255.000000,140.000000 C 253.350845,139.588684 251.658264,139.372894 250.000000,139.000000 C 248.659119,138.698486 247.345566,138.279861 246.000000,138.000000 C 245.007446,137.793564 241.001877,137.155029 240.000000,137.000000 C 237.670700,136.639557 235.201797,136.841232 233.000000,136.000000 C 231.877304,135.571060 231.063660,134.559525 230.000000,134.000000 C 229.900711,133.947769 225.104172,132.041672 225.000000,132.000000 C 223.333328,131.333328 221.637527,130.735352 220.000000,130.000000 C 219.320053,129.694656 218.699051,129.258606 218.000000,129.000000 C 216.710999,128.523163 215.289001,128.476837 214.000000,128.000000 C 213.300949,127.741402 211.828751,127.725418 212.000000,127.000000 C 212.076584,126.675583 215.669159,126.959274 216.000000,127.000000 C 216.682037,127.083961 219.338028,127.815552 220.000000,128.000000 C 224.367462,129.216904 228.708817,130.536697 233.000000,132.000000 C 235.695587,132.919189 238.197693,134.491852 241.000000,135.000000 C 241.655975,135.118942 242.384079,134.744873 243.000000,135.000000 C 243.871048,135.360794 245.360794,136.128952 245.000000,137.000000 C 244.362198,138.539795 241.666672,137.000000 240.000000,137.000000 C 238.000000,137.000000 236.000000,137.000000 234.000000,137.000000 C 227.666672,137.000000 221.307739,137.568771 215.000000,137.000000 C 211.288284,136.665314 196.643021,133.785690 193.000000,133.000000 C 190.984787,132.565384 182.993332,130.525925 181.000000,130.000000 C 174.978867,128.411377 169.041504,126.509285 163.000000,125.000000 C 157.036896,123.510307 150.792130,123.056442 145.000000,121.000000 C 143.595200,120.501236 142.450836,119.342499 141.000000,119.000000 C 139.377914,118.617081 137.572708,119.551682 136.000000,119.000000 C 133.985947,118.293510 132.387375,116.621964 131.000000,115.000000 C 129.253143,112.957764 127.613182,110.616531 127.000000,108.000000 C 125.704819,102.473274 126.659019,96.515793 128.000000,91.000000 C 128.775543,87.809967 134.526947,75.933922 136.000000,73.000000 C 138.745667,67.531380 150.925552,46.290764 154.000000,41.000000 C 155.953094,37.638966 162.556305,33.928551 160.000000,31.000000 C 159.582657,30.521879 153.549438,33.682346 153.000000,34.000000 C 150.114243,35.668392 147.766159,38.140038 145.000000,40.000000 C 141.774124,42.169071 138.407639,44.129395 135.000000,46.000000 C 133.693237,46.717346 132.450836,47.657505 131.000000,48.000000 C 130.513382,48.114876 128.498291,48.041241 128.000000,48.000000 C 125.979324,47.832764 124.020676,47.167236 122.000000,47.000000 C 121.335602,46.945011 120.638062,46.806812 120.000000,47.000000 C 118.849716,47.348278 117.614540,47.967144 117.000000,49.000000 C 116.529350,49.791019 116.041710,59.080498 116.000000,60.000000 C 115.924477,61.664955 115.548584,63.395630 116.000000,65.000000 C 117.904518,71.768845 122.184807,77.875710 127.000000,83.000000 C 132.572586,88.930305 139.780960,93.243996 147.000000,97.000000 C 150.461121,98.800789 154.243011,99.947739 158.000000,101.000000 C 162.910065,102.375214 167.932037,104.561859 173.000000,104.000000 C 176.262955,103.638252 179.512787,102.142792 182.000000,100.000000 C 185.292694,97.163269 187.430557,93.052872 189.000000,89.000000 C 191.810074,81.743347 192.682861,73.775284 193.000000,66.000000 C 193.150055,62.321274 193.007401,58.541283 192.000000,55.000000 C 191.592117,53.566177 191.126160,51.976719 190.000000,51.000000 C 189.203674,50.309357 185.032562,49.211941 184.000000,49.000000 C 182.034058,48.596474 174.005203,48.083405 172.000000,48.000000 C 170.667816,47.944588 169.333328,48.000000 168.000000,48.000000 C 167.000000,48.000000 165.923874,47.617317 165.000000,48.000000 C 164.128952,48.360798 163.942810,50.000000 163.000000,50.000000 C 161.585785,50.000000 161.083420,47.908962 160.000000,47.000000 C 156.882904,44.384811 153.515610,42.048412 150.000000,40.000000 C 143.301041,36.096783 135.905823,33.524300 129.000000,30.000000 C 125.279793,28.101442 121.731537,25.876181 118.000000,24.000000 C 113.736023,21.856113 109.437302,19.757305 105.000000,18.000000 C 104.019966,17.611876 102.796318,17.690643 102.000000,17.000000 C 101.436920,16.511641 101.527046,15.527046 101.000000,15.000000 C 100.472954,14.472954 99.725418,14.171247 99.000000,14.000000 C 97.702332,13.693663 96.297668,14.306337 95.000000,14.000000 C 94.274582,13.828753 93.688622,12.714765 93.000000,13.000000 C 92.756538,13.100846 91.067635,18.745304 91.000000,19.000000 C 90.563751,20.642735 90.351044,22.336973 90.000000,24.000000 C 89.365280,27.006922 88.335335,29.945169 88.000000,33.000000 C 87.854507,34.325371 88.000000,35.666668 88.000000,37.000000 C 88.000000,38.666668 87.123779,40.582249 88.000000,42.000000 C 88.391853,42.634037 89.365959,43.391857 90.000000,43.000000 C 90.567101,42.649513 90.642479,41.177956 90.000000,41.000000 C 89.063438,40.740589 87.350433,45.093555 87.000000,46.000000 C 86.387100,47.585323 86.167480,49.308598 86.000000,51.000000 C 85.901459,51.995132 85.188759,53.415291 86.000000,54.000000 C 86.855125,54.616337 88.203682,53.690643 89.000000,53.000000 C 90.689247,51.534924 91.486259,49.176250 92.000000,47.000000 C 92.382919,45.377918 92.876221,43.417751 92.000000,42.000000 C 91.608147,41.365963 88.713371,40.215992 88.000000,40.000000 C 86.713943,39.610615 81.341110,39.083496 80.000000,39.000000 C 79.334625,38.958576 78.471405,38.528595 78.000000,39.000000 C 77.764297,39.235703 77.903404,40.680969 78.000000,41.000000 C 78.348274,42.150280 78.808784,44.159527 80.000000,44.000000 C 81.044769,43.860088 81.242180,42.025894 81.000000,41.000000 C 80.891693,40.541206 79.382423,39.275635 79.000000,39.000000 C 78.395332,38.564182 77.708824,38.230495 77.000000,38.000000 C 75.071800,37.372982 72.969872,36.519661 71.000000,37.000000 C 69.380775,37.394836 67.888618,38.589989 67.000000,40.000000 C 66.546890,40.718967 66.083740,44.154301 66.000000,45.000000 C 65.934311,45.663422 65.649513,46.432899 66.000000,47.000000 C 66.587784,47.951057 70.911873,49.743130 72.000000,50.000000 C 75.568581,50.842426 79.333336,50.000000 83.000000,50.000000 C 84.000000,50.000000 85.076118,50.382683 86.000000,50.000000 C 87.742081,49.278404 89.110252,47.662502 90.000000,46.000000 C 90.401001,45.250721 90.916260,41.845699 91.000000,41.000000 C 91.065689,40.336578 91.350487,39.567101 91.000000,39.000000 C 90.804070,38.682980 89.356689,38.107998 89.000000,38.000000 C 87.713943,37.610615 82.341110,37.083496 81.000000,37.000000 C 79.669243,36.917149 77.942810,36.057190 77.000000,37.000000 C 75.821487,38.178513 77.000000,40.333332 77.000000,42.000000 C 77.000000,42.666668 76.806808,43.361938 77.000000,44.000000 C 77.348274,45.150280 77.940361,46.432896 79.000000,47.000000 C 80.469460,47.786430 82.377914,47.382923 84.000000,47.000000 C 84.725418,46.828751 85.608147,46.634037 86.000000,46.000000 C 86.876221,44.582249 86.786430,42.469456 86.000000,41.000000 C 84.865791,38.880718 82.245399,37.857887 80.000000,37.000000 C 78.899101,36.579388 74.175545,36.083542 73.000000,36.000000 C 72.335007,35.952740 71.587784,35.685429 71.000000,36.000000 C 69.940361,36.567104 69.348274,37.849720 69.000000,39.000000 C 68.420433,40.914185 69.000000,43.000000 69.000000,45.000000 C 69.000000,46.333332 68.370857,47.824432 69.000000,49.000000 C 69.567101,50.059643 73.882362,52.558033 75.000000,53.000000 C 75.942757,53.372810 79.989662,53.916382 81.000000,54.000000 C 81.664398,54.054989 82.333336,54.000000 83.000000,54.000000 C 83.666664,54.000000 84.459175,54.389809 85.000000,54.000000 C 86.282684,53.075493 87.746727,46.560722 88.000000,45.000000 C 88.160179,44.012913 88.000000,43.000000 88.000000,42.000000 C 88.000000,41.333332 88.000000,40.000000 88.000000,40.000000 C 88.000000,40.000000 88.000000,44.666668 88.000000,47.000000 C 88.000000,48.333332 87.917152,49.669243 88.000000,51.000000 C 88.166992,53.682224 87.553688,56.734962 89.000000,59.000000 C 90.692390,61.650414 94.046257,62.920971 97.000000,64.000000 C 99.213921,64.808769 101.647125,65.139816 104.000000,65.000000 C 109.165611,64.693047 114.365067,63.301125 119.000000,61.000000 C 122.404137,59.309937 125.479454,56.844517 128.000000,54.000000 C 129.289032,52.545288 130.481171,50.873123 131.000000,49.000000 C 131.533875,47.072571 132.267975,44.546684 131.000000,43.000000 C 129.922424,41.685570 127.693550,41.855888 126.000000,42.000000 C 121.373924,42.393650 116.650017,44.130692 113.000000,47.000000 C 108.856529,50.257214 106.225319,55.222374 104.000000,60.000000 C 102.395302,63.445198 101.504463,67.233047 101.000000,71.000000 C 100.469070,74.964607 99.211143,79.422295 101.000000,83.000000 C 102.490715,85.981422 105.956978,87.639435 109.000000,89.000000 C 109.775818,89.346878 113.154297,89.916260 114.000000,90.000000 C 116.321976,90.229919 118.981880,91.171165 121.000000,90.000000 C 123.324379,88.651115 124.310226,85.597389 125.000000,83.000000 C 125.513336,81.067001 125.356850,78.967911 125.000000,77.000000 C 124.491844,74.197701 124.023888,71.003746 122.000000,69.000000 C 120.613708,67.627502 112.921196,65.338470 111.000000,65.000000 C 108.373779,64.537323 105.552246,64.227242 103.000000,65.000000 C 97.248596,66.741386 91.842896,70.380119 88.000000,75.000000 C 83.129745,80.854965 80.531273,88.539757 79.000000,96.000000 C 78.195740,99.918312 78.004875,104.125763 79.000000,108.000000 C 82.785690,122.738525 90.622124,136.870972 101.000000,148.000000 C 121.556862,170.044754 149.761948,184.090942 177.000000,197.000000 C 197.575546,206.751465 219.827576,212.820450 242.000000,218.000000 C 282.029205,227.350952 322.928253,234.299881 364.000000,236.000000 C 395.370239,237.298538 427.143860,235.803101 458.000000,230.000000 C 465.563019,228.577621 473.369720,226.906601 480.000000,223.000000 C 487.110474,218.810471 493.865265,213.142487 498.000000,206.000000 C 502.293549,198.583130 503.465210,189.553268 504.000000,181.000000 C 504.188354,177.987427 504.371918,174.688675 503.000000,172.000000 C 500.747742,167.586060 496.241852,164.561707 492.000000,162.000000 C 488.660217,159.983063 484.889008,158.312866 481.000000,158.000000 C 473.897095,157.428589 465.736481,157.772629 460.000000,162.000000 C 445.714783,172.527176 438.959351,191.702240 435.000000,209.000000 C 427.333618,242.493011 430.194580,278.788269 439.000000,312.000000 C 443.814240,330.157990 453.586639,347.079407 465.000000,362.000000 C 496.388397,403.033752 536.676392,437.373840 579.000000,467.000000 C 615.274231,492.391632 655.458801,512.674072 697.000000,528.000000 C 791.744995,562.954590 891.900085,583.641296 992.000000,597.000000 C 1038.451172,603.199097 1226.137207,607.128906 1273.000000,607.000000 C 1321.707520,606.866028 1370.434204,604.715576 1419.000000,601.000000 C 1493.581055,595.294128 1567.947998,586.544312 1642.000000,576.000000 C 1686.542114,569.657593 1731.140381,563.027710 1775.000000,553.000000 C 1784.462646,550.836548 1794.634033,549.922607 1803.000000,545.000000 C 1803.812622,544.521851 1805.360840,543.871033 1805.000000,543.000000 C 1804.362183,541.460205 1801.666626,543.000000 1800.000000,543.000000 C 1794.000000,543.000000 1788.000000,543.000000 1782.000000,543.000000 C 1780.666626,543.000000 1779.333374,543.000000 1778.000000,543.000000 C 1777.333374,543.000000 1776.648804,542.846802 1776.000000,543.000000 C 1775.274536,543.171265 1774.715942,543.792847 1774.000000,544.000000 C 1770.782104,544.931091 1767.294067,544.390503 1764.000000,545.000000 C 1758.394287,546.037231 1736.470703,552.396484 1731.000000,554.000000 C 1713.902344,559.011536 1696.752197,563.932922 1680.000000,570.000000 C 1629.829590,588.170105 1580.493774,608.738342 1532.000000,631.000000 C 1509.916626,641.137634 1423.494263,685.666748 1402.000000,697.000000 C 1384.186157,706.392700 1366.320801,715.726501 1349.000000,726.000000 C 1335.718872,733.877502 1322.029175,741.317810 1310.000000,751.000000 C 1308.898315,751.886719 1308.147217,753.173096 1307.000000,754.000000 C 1306.395386,754.435791 1305.377441,755.642700 1305.000000,755.000000 C 1300.505127,747.346619 1319.859131,745.271240 1327.000000,740.000000 C 1342.266235,728.730713 1401.309082,681.009644 1416.000000,669.000000 C 1455.387329,636.801453 1563.510498,611.708984 1533.000000,571.000000 C 1529.784180,566.709229 1323.450928,711.009827 1319.000000,714.000000 C 1255.227295,756.842651 1192.224854,800.838196 1128.000000,843.000000 C 1028.514160,908.309631 935.113586,985.258362 827.000000,1035.000000 C 781.114014,1056.111572 731.962585,1071.586426 682.000000,1079.000000 C 678.373047,1079.538208 672.228027,1082.454956 671.000000,1079.000000 C 668.103577,1070.851074 986.274536,822.437256 993.000000,817.000000 C 1033.563843,784.205811 1073.739136,750.912903 1115.000000,719.000000 C 1144.583984,696.118469 1173.722900,672.506592 1205.000000,652.000000 C 1226.852051,637.672852 1257.778198,591.761536 1273.000000,613.000000 C 1274.375732,614.919556 1189.808838,686.481567 1188.000000,688.000000 C 1149.125244,720.634033 1110.303101,753.499512 1069.000000,783.000000 C 1026.560059,813.312500 980.699707,838.533569 937.000000,867.000000 C 931.964844,870.279968 926.129639,881.365417 922.000000,877.000000 C 921.713684,876.697327 927.724182,869.312317 928.000000,869.000000 C 953.906067,839.669739 1068.299438,732.601990 1097.000000,706.000000 C 1117.951904,686.580139 1140.121582,668.498779 1161.000000,649.000000 C 1177.365723,633.715759 1195.811157,620.096924 1209.000000,602.000000 C 1209.877930,600.795288 1212.018188,599.088745 1211.000000,598.000000 C 1209.858276,596.779175 1138.528564,628.323792 1137.000000,629.000000 C 1077.130371,655.486206 1019.996460,688.223572 959.000000,712.000000 C 945.641785,717.207031 932.074036,722.265442 918.000000,725.000000 C 913.733643,725.828979 896.342957,726.833191 892.000000,727.000000 C 890.667664,727.051147 889.005188,727.876038 888.000000,727.000000 C 880.643616,720.588623 882.441223,707.632874 884.000000,698.000000 C 892.310669,646.641357 930.124634,604.727905 953.000000,558.000000 C 970.763611,521.713989 991.640381,486.762726 1006.000000,449.000000 C 1009.938354,438.643005 1013.282898,427.946655 1015.000000,417.000000 C 1016.395630,408.102631 1018.870239,398.536560 1016.000000,390.000000 C 1014.490173,385.509460 1010.700562,381.958099 1007.000000,379.000000 C 1004.088989,376.673004 1000.489624,375.308167 997.000000,374.000000 C 988.294067,370.736359 979.222839,368.176117 970.000000,367.000000 C 967.354736,366.662689 964.666687,367.000000 962.000000,367.000000 C 960.666687,367.000000 958.999573,366.117584 958.000000,367.000000 C 955.985291,368.778534 956.509033,372.357819 957.000000,375.000000 C 958.934448,385.410065 965.623413,394.547180 972.000000,403.000000 C 981.227722,415.232239 1026.565918,456.800018 1038.000000,467.000000 C 1054.083862,481.347961 1070.288574,495.717499 1088.000000,508.000000 C 1123.470581,532.598022 1160.176270,556.347839 1200.000000,573.000000 C 1238.570313,589.128052 1279.677734,599.655518 1321.000000,606.000000 C 1338.145264,608.632446 1355.697754,609.232788 1373.000000,608.000000 C 1408.151367,605.495544 1444.269653,602.061829 1477.000000,589.000000 C 1490.867798,583.465698 1540.181396,549.124939 1552.000000,540.000000 C 1563.394287,531.202637 1575.274048,522.448975 1584.000000,511.000000 C 1605.054688,483.374969 1621.572754,451.430084 1631.000000,418.000000 C 1636.537231,398.364288 1638.657227,377.227722 1636.000000,357.000000 C 1634.709106,347.173706 1631.062744,337.520050 1626.000000,329.000000 C 1615.267212,310.937592 1600.693237,294.758484 1584.000000,282.000000 C 1566.826294,268.874298 1488.079102,232.003357 1468.000000,224.000000 C 1442.434326,213.809723 1415.749878,206.472321 1389.000000,200.000000 C 1338.288330,187.729935 1286.767334,178.509033 1235.000000,172.000000 C 1187.920166,166.080353 1140.421265,163.667694 1093.000000,162.000000 C 1075.011108,161.367371 1056.938721,160.515350 1039.000000,162.000000 C 1014.751831,164.006836 990.193909,166.648636 967.000000,174.000000 C 957.477966,177.018036 948.146790,181.220032 940.000000,187.000000 C 935.770813,190.000519 931.629700,193.530807 929.000000,198.000000 C 917.924133,216.823547 911.906311,239.178482 911.000000,261.000000 C 909.716858,291.894409 919.264709,322.651489 929.000000,352.000000 C 934.116699,367.425018 941.357910,382.236786 950.000000,396.000000 C 970.679138,428.933197 995.414124,459.591217 1023.000000,487.000000 C 1051.952637,515.766724 1084.261963,541.574585 1119.000000,563.000000 C 1137.150757,574.194885 1156.722534,583.396606 1177.000000,590.000000 C 1213.176880,601.781006 1251.132080,608.316040 1289.000000,612.000000 C 1304.261230,613.484680 1319.775269,613.822205 1335.000000,612.000000 C 1358.841431,609.146423 1383.008545,604.639954 1405.000000,595.000000 C 1412.705200,591.622437 1419.888428,586.781494 1426.000000,581.000000 C 1428.421509,578.709290 1430.707886,576.072693 1432.000000,573.000000 C 1433.699585,568.958496 1434.451050,564.361023 1434.000000,560.000000 C 1433.707031,557.167114 1432.632568,554.333618 1431.000000,552.000000 C 1429.238281,549.481873 1426.674316,547.514160 1424.000000,546.000000 C 1423.082764,545.480652 1422.000000,545.333313 1421.000000,545.000000 C 1420.000000,544.666687 1418.973877,544.403381 1418.000000,544.000000 C 1417.311401,543.714783 1416.604614,543.435791 1416.000000,543.000000 C 1414.852783,542.173096 1414.203003,540.743469 1413.000000,540.000000 C 1412.103394,539.445801 1410.946899,539.463135 1410.000000,539.000000 C 1405.681396,536.887878 1402.084229,533.535828 1398.000000,531.000000 C 1389.499634,525.722168 1381.089355,520.182739 1372.000000,516.000000 C 1370.635254,515.371948 1356.425537,510.474121 1355.000000,510.000000 C 1344.395752,506.473053 1333.959717,502.184845 1323.000000,500.000000 C 1319.389282,499.280182 1304.677979,498.166840 1301.000000,498.000000 C 1299.002075,497.909363 1296.997559,497.900360 1295.000000,498.000000 C 1291.654175,498.166870 1288.089111,497.704102 1285.000000,499.000000 C 1282.599243,500.007111 1280.693481,502.022675 1279.000000,504.000000 C 1277.735718,505.476227 1276.603149,507.152313 1276.000000,509.000000 C 1275.428711,510.750000 1275.083374,518.161011 1275.000000,520.000000 C 1274.939575,521.331970 1274.632446,522.718323 1275.000000,524.000000 C 1275.866943,527.022827 1277.648315,529.912292 1280.000000,532.000000 C 1284.683472,536.157837 1290.950195,538.380920 1297.000000,540.000000 C 1298.938721,540.518860 1306.993042,541.003601 1309.000000,541.000000 C 1316.695557,540.986145 1324.626465,541.203064 1332.000000,539.000000 C 1334.357788,538.295532 1342.926514,533.325256 1345.000000,532.000000 C 1346.404297,531.102417 1348.078125,530.388489 1349.000000,529.000000 C 1351.280640,525.565125 1352.110352,521.121643 1352.000000,517.000000 C 1351.878662,512.467773 1350.971558,507.424286 1348.000000,504.000000 C 1345.947632,501.634949 1333.956299,497.032379 1331.000000,496.000000 C 1295.429565,483.578339 1258.334595,475.067627 1221.000000,470.000000 C 1212.240723,468.811066 1123.838013,466.166687 1115.000000,466.000000 C 1102.335571,465.761139 1089.632935,465.076080 1077.000000,466.000000 C 1065.575317,466.835571 1054.182251,468.514282 1043.000000,471.000000 C 1039.602783,471.755157 1035.497803,471.576752 1033.000000,474.000000 C 1032.243408,474.733978 1032.333374,476.000000 1032.000000,477.000000 C 1031.666626,478.000000 1030.574585,479.035553 1031.000000,480.000000 C 1031.662476,481.501862 1038.394287,483.659241 1040.000000,484.000000 C 1044.238892,484.899567 1048.715332,484.647919 1053.000000,484.000000 C 1067.490601,481.808685 1082.296143,478.306885 1095.000000,471.000000 C 1114.631470,459.708557 1130.464355,442.366791 1145.000000,425.000000 C 1150.578979,418.334381 1155.759277,411.065552 1159.000000,403.000000 C 1161.534790,396.691498 1163.274902,389.793121 1163.000000,383.000000 C 1162.901855,380.575287 1162.887695,377.525024 1161.000000,376.000000 C 1159.051025,374.425446 1148.490845,374.729004 1146.000000,375.000000 C 1118.734253,377.966400 1092.041870,386.813873 1067.000000,398.000000 C 1047.998291,406.488037 1030.297485,418.057709 1014.000000,431.000000 C 1010.677551,433.638428 1007.689758,436.718994 1005.000000,440.000000 C 1001.190186,444.647217 997.640198,449.601807 995.000000,455.000000 C 994.536865,455.946899 994.968201,457.583282 994.000000,458.000000 "
       id="path0002"
       style="fill:none;stroke:white;stroke-opacity:1;stroke-width:4px" />
  </g>
</svg>
