<?xml version="1.0" encoding="UTF-8" standalone="no"?>
<!-- Created with Inkscape (http://www.inkscape.org/) -->

<svg
   xmlns:dc="http://purl.org/dc/elements/1.1/"
   xmlns:cc="http://creativecommons.org/ns#"
   xmlns:rdf="http://www.w3.org/1999/02/22-rdf-syntax-ns#"
   xmlns:svg="http://www.w3.org/2000/svg"
   xmlns="http://www.w3.org/2000/svg"
   version="1.1"
   width="1920"
   height="1080"
   id="svg2">
  <defs
     id="defs4" />
  <metadata
     id="metadata7">
    <rdf:RDF>
      <cc:Work
         rdf:about="">
        <dc:format>image/svg+xml</dc:format>
        <dc:type
           rdf:resource="http://purl.org/dc/dcmitype/StillImage" />
        <dc:title></dc:title>
      </cc:Work>
    </rdf:RDF>
  </metadata>
    <image
			     xlink:href=".\DancerG.png"
			     width="1920"
			     height="1080"
			     preserveAspectRatio="none"
			     id="imageDancer"
			     x="0"
			     y="0" />
  <g
     transform="translate(0.0,0.0)"
     id="layer1">
    <path
       initial_time="124.093002"
       final_time="154.966003"
       d="M 1287.000000,117.000000 C 1287.025269,117.342659 1283.341064,117.958015 1283.000000,118.000000 C 1282.338379,118.081459 1281.658081,117.893211 1281.000000,118.000000 C 1277.878540,118.506538 1275.026611,120.083626 1272.000000,121.000000 C 1268.362549,122.101349 1264.721680,123.229767 1261.000000,124.000000 C 1258.691895,124.477676 1256.310669,124.535103 1254.000000,125.000000 C 1246.232422,126.562767 1238.584106,128.706848 1231.000000,131.000000 C 1221.212402,133.959396 1211.683716,137.716537 1202.000000,141.000000 C 1197.008667,142.692413 1192.000000,144.333328 1187.000000,146.000000 C 1173.000000,150.666672 1158.954468,155.198944 1145.000000,160.000000 C 1134.631836,163.567154 1124.239136,167.078079 1114.000000,171.000000 C 1108.277222,173.192017 1102.731201,175.830139 1097.000000,178.000000 C 1092.711426,179.623657 1075.350708,185.551102 1071.000000,187.000000 C 1062.698608,189.764572 1054.436646,192.680954 1046.000000,195.000000 C 1041.711792,196.178711 1037.261597,196.728760 1033.000000,198.000000 C 1026.532104,199.929352 1020.538086,203.324005 1014.000000,205.000000 C 1007.469910,206.673950 1000.658325,206.945831 994.000000,208.000000 C 991.997375,208.317062 990.003723,208.689941 988.000000,209.000000 C 985.670715,209.360443 983.351074,209.832916 981.000000,210.000000 C 979.670044,210.094513 978.333313,210.000000 977.000000,210.000000 C 976.333313,210.000000 975.471375,210.471405 975.000000,210.000000 C 974.646423,209.646454 974.899475,207.489792 975.000000,207.000000 C 975.255188,205.756622 977.391968,201.114182 978.000000,200.000000 C 985.130310,186.934219 994.669556,175.335266 1003.000000,163.000000 C 1012.003113,149.668762 1022.244263,137.093475 1030.000000,123.000000 C 1032.806641,117.899849 1035.808105,112.698090 1037.000000,107.000000 C 1037.136475,106.347458 1037.000000,105.666664 1037.000000,105.000000 C 1037.000000,104.000000 1037.525757,102.850647 1037.000000,102.000000 C 1036.412231,101.048943 1032.088135,99.256874 1031.000000,99.000000 C 1030.026733,98.770248 1029.000000,99.000000 1028.000000,99.000000 C 1026.333374,99.000000 1024.666626,99.000000 1023.000000,99.000000 C 1022.333313,99.000000 1021.666687,99.000000 1021.000000,99.000000 C 1020.333313,99.000000 1019.666687,99.000000 1019.000000,99.000000 C 1018.333313,99.000000 1017.648804,98.846832 1017.000000,99.000000 C 1016.274597,99.171249 1015.572266,99.522415 1015.000000,100.000000 C 1014.360229,100.533958 1012.457581,103.303551 1012.000000,104.000000 C 1011.262146,105.122986 1008.634033,109.815285 1008.000000,111.000000 C 1007.296570,112.314323 1006.483765,113.589973 1006.000000,115.000000 C 1004.896790,118.215347 1004.334961,121.617195 1004.000000,125.000000 C 1003.671570,128.317108 1003.763733,131.675049 1004.000000,135.000000 C 1004.167114,137.351089 1004.139465,139.805664 1005.000000,142.000000 C 1006.924133,146.906677 1010.107422,151.446762 1014.000000,155.000000 C 1020.504272,160.937195 1028.727051,164.981079 1037.000000,168.000000 C 1039.548706,168.930069 1050.304932,170.687637 1053.000000,171.000000 C 1056.645996,171.422577 1071.330444,171.916641 1075.000000,172.000000 C 1079.665405,172.105972 1084.458130,173.072174 1089.000000,172.000000 C 1089.725464,171.828751 1090.333374,171.333328 1091.000000,171.000000 C 1091.666626,170.666672 1092.608154,170.634033 1093.000000,170.000000 C 1093.350464,169.432892 1093.427124,168.511841 1093.000000,168.000000 C 1091.806030,166.569382 1072.855835,164.167343 1071.000000,164.000000 C 1065.024292,163.461166 1058.999268,164.090881 1053.000000,164.000000 C 1041.996216,163.833313 1031.003784,163.166687 1020.000000,163.000000 C 1016.667053,162.949509 1013.333313,163.000000 1010.000000,163.000000 C 1006.666687,163.000000 1003.333313,163.000000 1000.000000,163.000000 C 999.000000,163.000000 997.850647,162.474274 997.000000,163.000000 C 996.682983,163.195923 996.099487,164.640839 996.000000,165.000000 C 994.839844,169.188431 994.320801,173.707260 995.000000,178.000000 C 995.957703,184.052963 998.290405,190.122055 1002.000000,195.000000 C 1004.300598,198.025177 1016.884460,206.823318 1020.000000,209.000000 C 1022.577820,210.801010 1025.052124,212.905106 1028.000000,214.000000 C 1032.109985,215.526520 1036.631348,216.370255 1041.000000,216.000000 C 1042.050293,215.910980 1043.250366,215.741058 1044.000000,215.000000 C 1047.261108,211.776169 1052.409180,193.547394 1053.000000,189.000000 C 1054.722656,175.740646 1053.835938,161.808716 1050.000000,149.000000 C 1047.046265,139.137161 1041.448364,130.026138 1035.000000,122.000000 C 1027.752808,112.979607 1019.120239,104.609825 1009.000000,99.000000 C 992.580383,89.898308 973.479187,86.311348 955.000000,83.000000 C 950.067444,82.116119 945.005005,81.753105 940.000000,82.000000 C 931.899475,82.399597 923.416260,82.717232 916.000000,86.000000 C 908.621399,89.266090 902.669678,95.258438 897.000000,101.000000 C 893.158630,104.890068 889.388855,109.082443 887.000000,114.000000 C 877.532776,133.488876 871.636047,155.342667 871.000000,177.000000 C 870.481812,194.643326 874.458618,212.605911 881.000000,229.000000 C 884.666626,238.189377 890.278381,246.739914 897.000000,254.000000 C 913.169067,271.464417 931.945068,288.054413 954.000000,297.000000 C 978.903625,307.101044 1007.155701,308.266846 1034.000000,307.000000 C 1043.209351,306.565399 1052.737793,305.091034 1061.000000,301.000000 C 1073.507080,294.807129 1085.930542,286.033325 1093.000000,274.000000 C 1119.491211,228.907593 1130.426025,171.768372 1123.000000,120.000000 C 1121.454712,109.227051 1115.116577,99.233978 1108.000000,91.000000 C 1097.535278,78.892159 1083.305298,70.174294 1069.000000,63.000000 C 1056.184204,56.572685 1042.119873,52.486965 1028.000000,50.000000 C 1004.343323,45.833294 979.884033,44.440170 956.000000,47.000000 C 940.243774,48.688717 924.458923,52.515396 910.000000,59.000000 C 905.613525,60.967255 901.668152,63.892616 898.000000,67.000000 C 892.421875,71.725372 887.178406,77.001205 883.000000,83.000000 C 880.017944,87.281288 877.404480,91.975098 876.000000,97.000000 C 871.588623,112.782761 870.799438,129.656372 872.000000,146.000000 C 873.403870,165.111542 877.469971,184.378403 885.000000,202.000000 C 893.609985,222.148911 905.780579,241.236771 921.000000,257.000000 C 925.817810,261.989960 931.820251,265.850067 938.000000,269.000000 C 952.744629,276.515594 968.529480,283.384277 985.000000,285.000000 C 990.020142,285.492462 995.344604,284.942078 1000.000000,283.000000 C 1008.553223,279.431854 1016.510193,273.466644 1022.000000,266.000000 C 1040.742554,240.508301 1050.711304,208.348328 1055.000000,177.000000 C 1056.088135,169.046356 1056.775269,160.084641 1053.000000,153.000000 C 1051.494385,150.174545 1040.812378,142.529984 1038.000000,141.000000 C 1034.296265,138.985062 1030.138062,137.809082 1026.000000,137.000000 C 1015.837585,135.013000 1005.132568,132.866287 995.000000,135.000000 C 990.404480,135.967728 973.921570,145.416000 970.000000,148.000000 C 966.044067,150.606689 962.079590,153.399948 959.000000,157.000000 C 951.716187,165.514771 945.551819,175.372681 942.000000,186.000000 C 940.617310,190.137131 939.069214,207.638458 939.000000,212.000000 C 938.936340,216.013367 938.798584,220.170151 940.000000,224.000000 C 942.190369,230.982681 946.541504,237.196777 951.000000,243.000000 C 952.435974,244.869095 953.663818,248.312851 956.000000,248.000000 C 958.663635,247.643295 958.620911,243.306580 960.000000,241.000000 C 963.227478,235.601959 966.215332,230.023117 970.000000,225.000000 C 972.698608,221.418304 975.597229,217.921036 979.000000,215.000000 C 988.680786,206.689728 999.699158,199.921890 1011.000000,194.000000 C 1037.755737,179.979401 1066.407349,169.741821 1095.000000,160.000000 C 1109.085938,155.200790 1123.415161,150.953888 1138.000000,148.000000 C 1163.691162,142.796753 1189.869751,140.078445 1216.000000,138.000000 C 1237.276489,136.307617 1258.662598,135.481506 1280.000000,136.000000 C 1288.357544,136.203079 1296.720215,136.844910 1305.000000,138.000000 C 1320.150391,140.113586 1335.348877,142.601746 1350.000000,147.000000 C 1361.027100,150.310333 1371.768188,154.721161 1382.000000,160.000000 C 1385.862427,161.992706 1389.546143,164.361923 1393.000000,167.000000 C 1400.876099,173.015747 1408.606689,179.427200 1415.000000,187.000000 C 1421.382446,194.559937 1426.641602,203.117798 1431.000000,212.000000 C 1433.182861,216.448654 1435.006836,221.145172 1436.000000,226.000000 C 1438.208618,236.796600 1438.413086,247.987564 1438.000000,259.000000 C 1437.722534,266.395996 1437.545654,274.050385 1435.000000,281.000000 C 1434.252563,283.040466 1429.325562,290.278076 1428.000000,292.000000 C 1424.402588,296.672943 1420.824219,301.608093 1416.000000,305.000000 C 1412.151001,307.706268 1394.468506,314.526398 1390.000000,316.000000 C 1380.556030,319.114410 1370.874634,321.825104 1361.000000,323.000000 C 1341.140137,325.362946 1320.913574,324.857910 1301.000000,323.000000 C 1286.646851,321.660889 1230.103027,309.984955 1216.000000,307.000000 C 1198.914307,303.383759 1182.125122,298.424683 1165.000000,295.000000 C 1128.889526,287.778656 1092.648926,280.601410 1056.000000,277.000000 C 1025.132568,273.966705 993.997131,272.915283 963.000000,274.000000 C 949.939819,274.457031 936.859375,275.673157 924.000000,278.000000 C 901.962402,281.987579 880.126526,287.568665 859.000000,295.000000 C 845.909790,299.604523 833.304871,305.585480 821.000000,312.000000 C 817.552979,313.796936 813.958923,315.478943 811.000000,318.000000 C 804.697510,323.369781 799.441162,330.012054 795.000000,337.000000 C 792.440063,341.027954 784.757324,358.562683 783.000000,363.000000 C 781.835632,365.940094 780.797607,368.939972 780.000000,372.000000 C 778.202637,378.895447 776.669617,385.905670 776.000000,393.000000 C 775.624084,396.982300 776.000000,401.000000 776.000000,405.000000 C 776.000000,405.666656 776.000000,407.000000 776.000000,407.000000 C 776.000000,407.000000 775.966736,404.999451 776.000000,404.000000 C 776.166748,398.991669 775.648682,393.825470 777.000000,389.000000 C 779.532837,379.955292 798.091492,347.008057 803.000000,339.000000 C 813.489441,321.886841 825.025879,305.315399 838.000000,290.000000 C 863.899841,259.426270 892.634521,231.143677 923.000000,205.000000 C 957.860779,174.986038 994.544800,146.651611 1034.000000,123.000000 C 1053.310425,111.424278 1073.869873,101.772087 1095.000000,94.000000 C 1132.563232,80.183517 1171.345337,68.422020 1211.000000,63.000000 C 1242.046265,58.755016 1273.868286,58.435974 1305.000000,62.000000 C 1317.610596,63.443684 1330.123169,66.521935 1342.000000,71.000000 C 1356.788086,76.575768 1372.607056,82.046486 1384.000000,93.000000 C 1395.087280,103.659653 1401.893799,118.491982 1407.000000,133.000000 C 1410.584229,143.183762 1412.352173,154.209656 1412.000000,165.000000 C 1411.253418,187.874008 1406.937866,211.384079 1397.000000,232.000000 C 1383.617676,259.761322 1360.923950,282.340851 1339.000000,304.000000 C 1332.666992,310.256470 1304.265503,331.855804 1297.000000,337.000000 C 1255.416016,366.442902 1212.801636,394.732178 1168.000000,419.000000 C 1121.960449,443.938354 1074.236938,466.187561 1025.000000,484.000000 C 1004.848694,491.290161 984.081726,497.155029 963.000000,501.000000 C 927.759216,507.427368 891.748901,513.288513 856.000000,511.000000 C 825.655640,509.057434 795.298401,502.124634 767.000000,491.000000 C 758.380493,487.611511 749.902405,483.175293 743.000000,477.000000 C 720.095093,456.508026 701.442932,430.637695 688.000000,403.000000 C 671.376160,368.822632 662.359253,330.755005 658.000000,293.000000 C 655.895813,274.775635 657.107605,256.115997 660.000000,238.000000 C 663.609436,215.392853 668.426147,192.305298 679.000000,172.000000 C 688.305176,154.130966 702.394775,138.877167 717.000000,125.000000 C 726.860291,115.631210 738.023254,107.446564 750.000000,101.000000 C 790.124756,79.402542 833.715820,63.740421 878.000000,53.000000 C 905.724976,46.275749 1019.520142,34.669529 1048.000000,33.000000 C 1075.952026,31.361414 1104.125366,30.352779 1132.000000,33.000000 C 1172.545654,36.850582 1213.625977,42.354149 1252.000000,56.000000 C 1265.911377,60.946918 1278.767090,68.732262 1291.000000,77.000000 C 1301.784912,84.289070 1313.547852,91.327156 1321.000000,102.000000 C 1326.673828,110.125900 1329.308472,120.234695 1331.000000,130.000000 C 1332.194702,136.897293 1332.711304,144.212402 1331.000000,151.000000 C 1327.390503,165.316818 1318.608154,178.004150 1310.000000,190.000000 C 1306.012451,195.556763 1301.317505,200.698654 1296.000000,205.000000 C 1294.488892,206.222366 1292.595825,206.890411 1291.000000,208.000000 C 1289.247559,209.218475 1287.797852,210.849670 1286.000000,212.000000 C 1285.372192,212.401718 1284.666626,212.666672 1284.000000,213.000000 C 1283.333374,213.333328 1282.725464,213.828751 1282.000000,214.000000 C 1280.053467,214.459503 1278.000000,214.000000 1276.000000,214.000000 C 1274.333374,214.000000 1272.666260,214.034698 1271.000000,214.000000 C 1262.994751,213.833298 1255.005249,213.166702 1247.000000,213.000000 C 1241.667847,212.888962 1236.330200,212.817322 1231.000000,213.000000 C 1196.940063,214.167358 1162.632446,214.495377 1129.000000,220.000000 C 1092.616455,225.954895 1056.659058,235.431168 1022.000000,248.000000 C 1010.224854,252.270172 998.563538,257.269409 988.000000,264.000000 C 968.239441,276.590485 948.810791,290.843994 934.000000,309.000000 C 914.392151,333.036530 899.329468,361.416504 890.000000,391.000000 C 885.759644,404.446075 884.720886,418.903900 885.000000,433.000000 C 885.461121,456.285858 885.415894,481.253418 896.000000,502.000000 C 906.925476,523.415710 926.910950,539.792786 947.000000,553.000000 C 965.878601,565.411377 988.012817,572.802917 1010.000000,578.000000 C 1058.841553,589.544617 1109.888062,593.752686 1160.000000,591.000000 C 1214.634033,587.998962 1268.955566,575.889648 1321.000000,559.000000 C 1342.989136,551.864014 1364.466064,542.364014 1384.000000,530.000000 C 1413.390747,511.397064 1442.759033,490.544678 1464.000000,463.000000 C 1495.050537,422.734528 1515.901245,374.131104 1529.000000,325.000000 C 1535.375244,301.087646 1536.783081,275.683289 1535.000000,251.000000 C 1531.772461,206.319351 1525.906006,159.619659 1505.000000,120.000000 C 1488.267334,88.289246 1461.196533,61.811508 1432.000000,41.000000 C 1407.691895,23.672972 1379.120117,11.567202 1350.000000,5.000000 C 1295.672852,-7.251922 1238.395142,-5.738336 1183.000000,0.000000 C 1136.277222,4.839971 1090.225220,17.170490 1046.000000,33.000000 C 1023.682312,40.988152 1001.824219,51.004307 982.000000,64.000000 C 945.624695,87.845657 911.305176,115.975845 883.000000,149.000000 C 849.290649,188.329269 822.214294,233.744690 801.000000,281.000000 C 793.311279,298.126831 787.310364,316.369202 785.000000,335.000000 C 780.032104,375.060913 778.997070,417.160706 790.000000,456.000000 C 799.477783,489.455688 818.634705,520.374756 841.000000,547.000000 C 851.514221,559.516907 864.615906,570.233459 879.000000,578.000000 C 919.908997,600.088379 965.678040,616.034851 1012.000000,620.000000 C 1046.522827,622.955139 1082.328247,617.537476 1115.000000,606.000000 C 1130.793945,600.422607 1145.793945,591.470337 1158.000000,580.000000 C 1195.531494,544.730469 1224.685547,499.885498 1246.000000,453.000000 C 1273.602661,392.282257 1285.611084,325.033356 1295.000000,259.000000 C 1297.676270,240.177612 1300.015991,220.770935 1297.000000,202.000000 C 1293.335938,179.196075 1286.802368,155.518646 1273.000000,137.000000 C 1270.011963,132.991013 1265.601196,129.956909 1261.000000,128.000000 C 1238.004517,118.219826 1211.874023,113.607361 1187.000000,116.000000 C 1168.261963,117.802414 1097.893921,146.695938 1081.000000,155.000000 C 1043.899658,173.236374 1008.318848,195.222229 976.000000,221.000000 C 962.364197,231.876007 950.513306,244.897873 939.000000,258.000000 C 922.056152,277.282013 903.730225,296.168213 892.000000,319.000000 C 880.386108,341.605438 873.706299,366.857361 870.000000,392.000000 C 869.076355,398.265625 869.101379,404.730743 870.000000,411.000000 C 872.020447,425.095947 875.539429,439.309875 882.000000,452.000000 C 888.684998,465.130951 897.915161,477.292389 909.000000,487.000000 C 911.752686,489.410706 924.725342,496.367310 928.000000,498.000000 C 936.421631,502.198944 945.075073,506.016510 954.000000,509.000000 C 955.303467,509.435730 956.680420,509.615753 958.000000,510.000000 C 959.012085,510.294708 960.026123,511.403381 961.000000,511.000000 C 961.344299,510.857391 961.914368,509.362701 962.000000,509.000000 C 962.153198,508.351166 961.528625,507.471405 962.000000,507.000000 C 964.592712,504.407288 969.333313,507.000000 973.000000,507.000000 C 980.000000,507.000000 987.004456,506.750488 994.000000,507.000000 C 998.675598,507.166779 1003.349792,507.485931 1008.000000,508.000000 C 1018.050659,509.111053 1058.020630,515.368225 1068.000000,517.000000 C 1100.071899,522.244141 1131.893677,528.970215 1164.000000,534.000000 C 1178.624023,536.291016 1193.341431,537.941895 1208.000000,540.000000 C 1238.016968,544.214417 1267.766602,550.827759 1298.000000,553.000000 C 1309.636719,553.836060 1356.337646,553.314941 1368.000000,553.000000 C 1380.346802,552.666565 1392.839966,553.165649 1405.000000,551.000000 C 1422.854370,547.820190 1440.504639,542.536133 1457.000000,535.000000 C 1468.441162,529.772949 1479.292603,522.999329 1489.000000,515.000000 C 1494.278198,510.650482 1499.220093,505.699982 1503.000000,500.000000 C 1512.483398,485.699341 1519.937012,469.671417 1524.000000,453.000000 C 1529.455078,430.616547 1529.784058,406.969421 1528.000000,384.000000 C 1527.022827,371.419556 1524.073120,358.942871 1520.000000,347.000000 C 1509.989380,317.647583 1497.603882,288.531982 1480.000000,263.000000 C 1462.200928,237.184952 1438.455078,215.810562 1415.000000,195.000000 C 1396.299561,178.408035 1376.330444,163.038879 1355.000000,150.000000 C 1303.103882,118.276947 1248.116455,90.910751 1191.000000,70.000000 C 1117.056152,42.928627 1039.556396,25.621784 962.000000,12.000000 C 922.406555,5.045925 882.149597,2.002486 842.000000,0.000000 C 753.110474,-4.433420 663.856873,-5.045151 575.000000,0.000000 C 495.616852,4.507248 416.252380,12.908735 338.000000,27.000000 C 299.808502,33.877319 261.823853,42.756973 225.000000,55.000000 C 168.015182,73.946045 108.683609,91.269287 59.000000,125.000000 C 35.793324,140.755249 10.625126,159.040710 0.000000,185.000000 C -2.777854,191.786850 0.000000,199.666672 0.000000,207.000000 C 0.000000,227.333328 0.000000,247.666672 0.000000,268.000000 C 0.000000,275.333344 -0.189465,282.669128 0.000000,290.000000 C 0.500167,309.352722 -1.346580,329.135071 3.000000,348.000000 C 5.682817,359.643890 11.038289,370.644531 17.000000,381.000000 C 18.663103,383.888794 20.545074,386.745117 23.000000,389.000000 C 29.947920,395.381714 38.453712,400.004883 47.000000,404.000000 C 55.260086,407.861328 90.201828,418.606049 99.000000,421.000000 C 109.535843,423.866760 120.195450,426.423981 131.000000,428.000000 C 146.545532,430.267548 209.306534,434.278595 225.000000,435.000000 C 262.965759,436.745239 300.998444,437.570831 339.000000,437.000000 C 360.021423,436.684235 381.033722,435.553955 402.000000,434.000000 C 448.440369,430.557953 494.849426,426.219421 541.000000,420.000000 C 543.847839,419.616211 674.167297,397.482971 677.000000,397.000000 C 698.338257,393.361908 719.553284,388.931732 741.000000,386.000000 C 776.852783,381.098969 812.913513,377.684814 849.000000,375.000000 C 877.286499,372.895477 905.670471,372.412079 934.000000,371.000000 C 946.668457,370.368530 959.320190,369.333435 972.000000,369.000000 C 991.993103,368.474243 1012.000000,369.000000 1032.000000,369.000000 C 1042.333374,369.000000 1052.666626,369.000000 1063.000000,369.000000 C 1066.000000,369.000000 1069.000000,369.000000 1072.000000,369.000000 C 1074.666626,369.000000 1077.333374,369.000000 1080.000000,369.000000 C 1081.000000,369.000000 1082.000000,369.000000 1083.000000,369.000000 C 1083.666626,369.000000 1084.333374,369.000000 1085.000000,369.000000 C 1085.666626,369.000000 1086.496338,369.436798 1087.000000,369.000000 C 1087.222534,368.806946 1087.973022,362.293396 1088.000000,362.000000 C 1088.366943,358.013367 1088.916626,342.002594 1089.000000,338.000000 C 1089.180420,329.335205 1090.043335,320.603638 1089.000000,312.000000 C 1086.313843,289.848846 1080.519653,268.008179 1073.000000,247.000000 C 1067.272095,230.997513 1059.300415,215.832108 1051.000000,201.000000 C 1047.703857,195.110107 1044.661743,188.880981 1040.000000,184.000000 C 1032.078125,175.705490 1022.331543,168.981461 1012.000000,164.000000 C 996.698792,156.622375 979.764893,152.737534 963.000000,150.000000 C 955.755066,148.816971 948.325073,148.518463 941.000000,149.000000 C 922.078857,150.243820 902.625977,152.008621 885.000000,159.000000 C 866.866577,166.192657 850.956665,178.475906 836.000000,191.000000 C 824.067444,200.991806 812.878418,212.217361 804.000000,225.000000 C 785.546143,251.568771 771.088379,281.264526 761.000000,312.000000 C 750.865112,342.877106 746.844238,375.626831 744.000000,408.000000 C 742.599670,423.938599 741.999573,440.125549 744.000000,456.000000 C 747.527710,483.994049 753.631226,512.176331 765.000000,538.000000 C 771.016235,551.665649 805.219116,600.923584 814.000000,613.000000 C 821.806763,623.736694 829.791077,634.438721 839.000000,644.000000 C 843.138489,648.296875 888.465027,687.123901 893.000000,691.000000 C 911.525208,706.833679 930.800232,721.793274 949.000000,738.000000 C 955.163391,743.488464 961.220032,749.109070 967.000000,755.000000 C 973.940979,762.074280 981.137573,769.009094 987.000000,777.000000 C 988.369629,778.866882 992.898376,786.963440 994.000000,789.000000 C 994.709290,790.311157 995.802124,791.522461 996.000000,793.000000 C 996.225586,794.684631 995.802002,796.501465 995.000000,798.000000 C 994.332703,799.246887 993.173584,800.210876 992.000000,801.000000 C 986.297424,804.834412 979.703247,807.487122 973.000000,809.000000 C 969.419617,809.808044 954.668518,810.119690 951.000000,810.000000 C 947.983154,809.901550 944.738953,810.268555 942.000000,809.000000 C 934.511292,805.531494 928.082825,799.172302 924.000000,792.000000 C 916.478760,778.787537 905.676880,718.110474 904.000000,703.000000 C 901.205750,677.821228 901.534607,652.213074 904.000000,627.000000 C 906.595642,600.454712 928.813110,495.944397 935.000000,470.000000 C 941.303528,443.566345 971.240723,339.043518 979.000000,313.000000 C 984.689209,293.904633 991.313049,275.096039 997.000000,256.000000 C 1006.879883,222.824554 1017.716003,189.840302 1025.000000,156.000000 C 1026.631836,148.418716 1030.935669,117.681534 1032.000000,110.000000 C 1032.737671,104.676025 1033.666016,99.364449 1034.000000,94.000000 C 1034.310669,89.009659 1034.000000,84.000000 1034.000000,79.000000 C 1034.000000,76.333336 1034.000000,73.666664 1034.000000,71.000000 C 1034.000000,70.000000 1034.000000,68.000000 1034.000000,68.000000 C 1034.000000,68.000000 1034.477905,76.028648 1034.000000,80.000000 C 1033.779663,81.831100 1013.442383,164.209534 1013.000000,166.000000 C 1007.725159,187.347870 1003.673523,209.047195 997.000000,230.000000 C 990.594055,250.112671 959.142456,328.525513 951.000000,348.000000 C 932.408752,392.465057 913.151062,436.694000 892.000000,480.000000 C 881.398438,501.706268 870.088196,523.085144 858.000000,544.000000 C 843.236450,569.543701 828.155579,594.997314 811.000000,619.000000 C 801.767273,631.917725 791.934570,644.487122 781.000000,656.000000 C 777.911682,659.251648 774.685547,662.445068 771.000000,665.000000 C 763.280762,670.351196 754.972961,675.223633 746.000000,678.000000 C 740.707336,679.637634 718.530212,681.666077 713.000000,682.000000 C 707.676392,682.321472 702.276794,682.774475 697.000000,682.000000 C 679.783936,679.473206 662.641357,674.624023 647.000000,667.000000 C 631.952515,659.665466 618.219116,649.441833 606.000000,638.000000 C 594.409973,627.147217 584.346863,614.507080 576.000000,601.000000 C 559.453064,574.223572 545.174438,545.396667 537.000000,515.000000 C 532.650085,498.824890 532.029968,481.749756 532.000000,465.000000 C 531.950256,437.205170 532.766479,408.837128 540.000000,382.000000 C 549.354797,347.292664 566.245667,314.665710 585.000000,284.000000 C 588.653198,278.026550 606.471619,256.340546 611.000000,251.000000 C 630.837769,227.604462 650.246704,203.571289 673.000000,183.000000 C 693.325012,164.624130 715.974121,148.852158 739.000000,134.000000 C 747.651917,128.419327 756.724182,123.467606 766.000000,119.000000 C 777.042480,113.681503 787.976501,107.378555 800.000000,105.000000 C 803.923950,104.223740 820.016174,104.640778 824.000000,105.000000 C 827.711731,105.334686 831.652161,105.362633 835.000000,107.000000 C 842.634216,110.733772 848.729736,117.333168 854.000000,124.000000 C 867.874634,141.551331 877.726624,162.212830 886.000000,183.000000 C 888.870361,190.211868 896.367310,220.411560 898.000000,228.000000 C 904.039917,256.072693 907.080627,284.709442 912.000000,313.000000 C 913.030457,318.926086 923.910706,378.084442 925.000000,384.000000 C 926.657593,393.001678 928.414246,401.985382 930.000000,411.000000 C 930.351257,412.996918 930.372986,415.071808 931.000000,417.000000 C 931.460999,418.417633 933.783691,419.731934 933.000000,421.000000 C 932.649536,421.567108 929.638062,421.193176 929.000000,421.000000 C 928.424866,420.825867 926.475708,419.367157 926.000000,419.000000 C 922.822510,416.547516 920.218384,413.398590 917.000000,411.000000 C 913.699463,408.540161 899.575500,400.039673 896.000000,398.000000 C 889.136108,394.084473 882.260498,390.119293 875.000000,387.000000 C 848.462524,375.598846 821.162781,365.409332 793.000000,359.000000 C 786.126343,357.435669 758.026062,354.573547 751.000000,354.000000 C 721.069946,351.556702 690.960815,347.967987 661.000000,350.000000 C 627.535889,352.269623 594.436890,359.464966 562.000000,368.000000 C 546.299988,372.131104 530.913391,377.585419 516.000000,384.000000 C 486.691742,396.606140 457.353546,410.017273 431.000000,428.000000 C 407.196289,444.242798 384.928345,463.270691 366.000000,485.000000 C 355.251587,497.338928 346.085510,511.249634 339.000000,526.000000 C 328.228149,548.424438 318.952789,572.298401 316.000000,597.000000 C 313.897125,614.591675 315.644684,632.826782 320.000000,650.000000 C 322.604187,660.268433 326.730072,670.461243 333.000000,679.000000 C 346.975525,698.032593 365.773041,713.817017 386.000000,726.000000 C 422.594666,748.041565 464.773468,759.803040 506.000000,771.000000 C 530.485779,777.650269 555.713440,781.910156 581.000000,784.000000 C 630.499023,788.090881 680.655640,788.658752 730.000000,783.000000 C 778.204407,777.471985 825.448486,764.681274 872.000000,751.000000 C 893.448608,744.696350 914.773621,737.522217 935.000000,728.000000 C 969.603394,711.709351 1003.434204,692.989319 1034.000000,670.000000 C 1056.046509,653.418274 1075.563721,633.520813 1094.000000,613.000000 C 1098.767456,607.693420 1103.574829,602.257568 1107.000000,596.000000 C 1110.746582,589.155151 1113.942017,581.731079 1115.000000,574.000000 C 1115.589233,569.693970 1115.418091,565.108276 1114.000000,561.000000 C 1113.215698,558.727844 1111.871216,556.508728 1110.000000,555.000000 C 1102.193604,548.705811 1091.809692,546.079529 1082.000000,544.000000 C 1070.739380,541.612915 1024.510498,540.901672 1013.000000,541.000000 C 1001.980225,541.094116 990.872375,541.201111 980.000000,543.000000 C 955.108337,547.118469 930.303955,553.331360 907.000000,563.000000 C 897.070984,567.119507 860.114685,589.301025 851.000000,595.000000 C 843.474304,599.705505 835.877869,604.389954 829.000000,610.000000 C 817.126404,619.684814 805.679321,630.121948 796.000000,642.000000 C 787.763550,652.107422 780.762085,663.303894 775.000000,675.000000 C 773.275757,678.499878 771.850342,682.192200 771.000000,686.000000 C 770.598755,687.796631 770.083435,695.161011 770.000000,697.000000 C 769.954712,697.998962 769.328979,699.258545 770.000000,700.000000 C 771.123901,701.241943 778.350281,701.289856 780.000000,701.000000 C 784.552063,700.200195 801.041870,691.386292 805.000000,689.000000 C 814.591858,683.217224 823.702271,676.522766 832.000000,669.000000 C 852.980713,649.978760 873.144165,629.464722 889.000000,606.000000 C 904.775452,582.654297 917.136169,556.745483 926.000000,530.000000 C 929.948730,518.085205 932.195801,505.526337 933.000000,493.000000 C 934.091064,476.005615 935.309814,458.180420 930.000000,442.000000 C 927.708130,435.016083 910.509094,410.804810 906.000000,405.000000 C 898.764648,395.685455 890.734863,386.925476 882.000000,379.000000 C 861.559570,360.453644 838.972839,344.297882 816.000000,329.000000 C 812.549988,326.702606 776.602417,306.050171 773.000000,304.000000 C 759.901550,296.545502 707.184143,267.301880 694.000000,260.000000 C 671.030273,247.278473 647.587463,235.388489 625.000000,222.000000 C 617.522583,217.567841 610.564026,212.282669 603.000000,208.000000 C 593.919495,202.858688 584.248535,198.832504 575.000000,194.000000 C 567.596436,190.131531 560.403564,185.868469 553.000000,182.000000 C 549.696960,180.274109 546.399719,178.526703 543.000000,177.000000 C 541.362488,176.264648 524.669861,169.658646 523.000000,169.000000 C 517.011292,166.637848 510.810730,164.771286 505.000000,162.000000 C 504.696777,161.855392 498.290924,158.167969 498.000000,158.000000 C 493.989624,155.684540 490.073090,153.203293 486.000000,151.000000 C 484.688843,150.290741 482.000000,150.490707 482.000000,149.000000 C 482.000000,148.254639 485.274597,147.171249 486.000000,147.000000 C 486.567719,146.865982 492.416901,146.983810 493.000000,147.000000 C 499.006927,147.166733 505.067505,147.042648 511.000000,148.000000 C 519.182373,149.320404 551.121765,158.425629 559.000000,161.000000 C 572.239441,165.326248 585.537354,169.780518 598.000000,176.000000 C 626.137390,190.041946 652.452820,207.663406 678.000000,226.000000 C 703.207642,244.092896 726.714600,264.492249 750.000000,285.000000 C 762.740417,296.220673 775.561462,307.454803 787.000000,320.000000 C 809.554016,344.736053 831.420410,370.512909 849.000000,399.000000 C 865.836060,426.282288 879.675903,455.648865 890.000000,486.000000 C 893.516235,496.337219 895.628235,507.167603 897.000000,518.000000 C 900.436218,545.134888 903.069336,572.821167 900.000000,600.000000 C 897.250732,624.344666 889.689270,648.093262 881.000000,671.000000 C 875.448486,685.634949 867.780457,699.418213 860.000000,713.000000 C 843.593201,741.640198 826.641357,770.243896 806.000000,796.000000 C 792.585693,812.738220 776.904297,827.606812 761.000000,842.000000 C 756.252380,846.296509 751.347717,850.478333 746.000000,854.000000 C 741.267334,857.116577 735.553040,858.626465 731.000000,862.000000 C 730.242493,862.561279 729.871033,863.639221 729.000000,864.000000 C 728.384094,864.255127 727.410278,864.525452 727.000000,864.000000 C 726.788574,863.729187 727.880798,860.322266 728.000000,860.000000 C 729.163696,856.854248 735.427734,844.962769 737.000000,842.000000 C 767.292542,784.915955 799.404907,728.801270 832.000000,673.000000 C 867.984863,611.395691 907.251587,551.741821 943.000000,490.000000 C 961.315491,458.366913 977.776428,425.686157 996.000000,394.000000 C 1024.471924,344.494507 1056.993774,297.320068 1084.000000,247.000000 C 1091.861328,232.352112 1120.176147,172.159058 1127.000000,157.000000 C 1130.862793,148.418930 1134.625610,139.784607 1138.000000,131.000000 C 1141.288574,122.438667 1144.595093,113.850296 1147.000000,105.000000 C 1147.891357,101.719604 1148.665039,98.382805 1149.000000,95.000000 C 1149.098511,94.004868 1149.000000,93.000000 1149.000000,92.000000 C 1149.000000,90.333336 1149.000000,88.666664 1149.000000,87.000000 C 1149.000000,85.666664 1149.000000,84.333336 1149.000000,83.000000 C 1149.000000,82.000000 1149.382690,80.923882 1149.000000,80.000000 C 1148.819580,79.564476 1147.382446,78.275635 1147.000000,78.000000 C 1146.395386,77.564186 1145.725464,77.171249 1145.000000,77.000000 C 1144.351196,76.846832 1143.663452,77.065689 1143.000000,77.000000 C 1141.308594,76.832520 1139.691406,76.167480 1138.000000,76.000000 C 1136.009766,75.802925 1134.000000,76.000000 1132.000000,76.000000 C 1130.333374,76.000000 1128.666626,76.000000 1127.000000,76.000000 C 1123.333374,76.000000 1119.646240,75.613716 1116.000000,76.000000 C 1111.253906,76.502800 1106.538330,77.522919 1102.000000,79.000000 C 1098.878174,80.016045 1095.876099,81.417107 1093.000000,83.000000 C 1086.682495,86.476875 1080.576660,90.428238 1075.000000,95.000000 C 1069.167114,99.781845 1063.899780,105.265831 1059.000000,111.000000 C 1053.109375,117.893684 1047.513916,125.135719 1043.000000,133.000000 C 1032.671997,150.993805 1023.793213,170.078064 1018.000000,190.000000 C 1013.103088,206.839722 1011.337219,224.513794 1010.000000,242.000000 C 1009.110413,253.632706 1010.000000,265.333344 1010.000000,277.000000 C 1010.000000,288.333344 1010.000000,299.666656 1010.000000,311.000000 C 1010.000000,315.333344 1010.000000,319.666656 1010.000000,324.000000 C 1010.000000,329.333344 1010.000000,334.666656 1010.000000,340.000000 C 1010.000000,341.333344 1011.323364,343.837097 1010.000000,344.000000 C 1008.635925,344.167938 1008.064270,337.372864 1008.000000,336.000000 C 1007.534607,326.063812 1014.714600,286.681000 1017.000000,277.000000 C 1018.277588,271.588165 1056.255493,155.279846 1058.000000,150.000000 C 1065.837769,126.279099 1074.230957,102.743484 1082.000000,79.000000 C 1090.589478,52.749104 1084.717041,16.320517 1107.000000,0.000000 C 1108.882446,-1.378733 1112.015137,-1.226706 1114.000000,0.000000 C 1114.634033,0.391857 1114.911987,1.259864 1115.000000,2.000000 C 1115.131348,3.104018 1109.274902,26.922731 1109.000000,28.000000 C 1103.649536,48.962540 1080.025269,132.221359 1074.000000,153.000000 C 1067.215576,176.396912 1060.375977,199.782776 1053.000000,223.000000 C 1037.137695,272.929382 1019.500000,322.277710 1003.000000,372.000000 C 988.856995,414.619476 974.379883,457.134827 961.000000,500.000000 C 955.406250,517.920776 950.586853,536.077087 945.000000,554.000000 C 939.259399,572.416199 933.926208,590.996155 927.000000,609.000000 C 925.821228,612.064026 923.681519,614.788574 923.000000,618.000000 C 922.861633,618.652161 923.000000,620.000000 923.000000,620.000000 C 923.000000,620.000000 922.645569,613.979004 923.000000,611.000000 C 923.587463,606.062683 928.669800,586.790894 930.000000,582.000000 C 938.320129,552.033386 976.387024,433.577240 986.000000,404.000000 C 1002.844788,352.171997 1021.291870,300.872223 1038.000000,249.000000 C 1045.273193,226.419525 1051.862061,203.623596 1059.000000,181.000000 C 1068.483765,150.941666 1077.864990,120.845016 1088.000000,91.000000 C 1089.593384,86.307816 1091.296631,81.653397 1093.000000,77.000000 C 1093.979004,74.325546 1094.861572,71.610588 1096.000000,69.000000 C 1096.297974,68.316780 1096.274536,66.828751 1097.000000,67.000000 C 1101.217407,67.995598 1097.000000,75.666664 1097.000000,80.000000 C 1097.000000,82.333336 1097.086182,84.668259 1097.000000,87.000000 C 1096.666382,96.018494 1096.076294,105.039749 1095.000000,114.000000 C 1094.032715,122.052467 1092.283325,129.991821 1091.000000,138.000000 C 1088.225098,155.316330 1086.208740,172.758789 1083.000000,190.000000 C 1079.004395,211.469147 1073.129639,232.556244 1069.000000,254.000000 C 1067.466309,261.964020 1066.479614,270.025757 1065.000000,278.000000 C 1062.269043,292.719116 1058.730957,307.280884 1056.000000,322.000000 C 1054.890381,327.980682 1054.238647,334.044678 1053.000000,340.000000 C 1052.720093,341.345581 1052.333374,342.666656 1052.000000,344.000000 C 1051.666626,345.333344 1051.859985,346.927948 1051.000000,348.000000 C 1050.533569,348.581421 1049.728027,349.159882 1049.000000,349.000000 C 1048.739380,348.942780 1045.157471,344.215363 1045.000000,344.000000 C 1044.290649,343.029846 1041.654297,339.008148 1041.000000,338.000000 C 1036.922119,331.716522 1033.611938,324.902679 1029.000000,319.000000 C 1022.468140,310.639984 1015.423401,302.449921 1007.000000,296.000000 C 1006.170959,295.365204 996.929016,290.476654 996.000000,290.000000 C 987.112549,285.440277 978.276855,280.703796 969.000000,277.000000 C 964.447632,275.182465 945.687500,269.433472 941.000000,268.000000 C 930.710388,264.853363 920.491516,261.388580 910.000000,259.000000 C 909.011475,258.774963 899.001343,257.158539 898.000000,257.000000 C 894.670837,256.472931 881.335083,254.488342 878.000000,254.000000 C 875.667847,253.658508 873.318848,253.422638 871.000000,253.000000 C 867.976624,252.448959 865.054810,251.335342 862.000000,251.000000 C 861.005981,250.890884 859.305176,250.047699 859.000000,251.000000 C 858.781250,251.682663 865.380554,255.639175 866.000000,256.000000 C 874.891663,261.179474 912.528137,277.978485 922.000000,282.000000 C 940.746399,289.959229 959.747253,297.358582 979.000000,304.000000 C 1025.450928,320.023682 1072.711792,333.648163 1120.000000,347.000000 C 1169.718506,361.038025 1219.650024,374.429382 1270.000000,386.000000 C 1294.847412,391.710022 1319.836060,396.903931 1345.000000,401.000000 C 1387.113647,407.855042 1429.445190,413.893768 1472.000000,417.000000 C 1480.146729,417.594666 1561.832031,418.916656 1570.000000,419.000000 C 1582.666016,419.129242 1595.333984,419.124176 1608.000000,419.000000 C 1625.002441,418.833313 1642.069214,419.568481 1659.000000,418.000000 C 1665.056885,417.438904 1670.937988,415.501709 1677.000000,415.000000 C 1678.328735,414.890015 1679.666626,415.000000 1681.000000,415.000000 C 1682.000000,415.000000 1683.910156,415.995972 1684.000000,415.000000 C 1684.020874,414.768005 1673.230469,413.033722 1673.000000,413.000000 C 1672.626709,412.945374 1664.375122,412.040741 1664.000000,412.000000 C 1642.005859,409.611755 1619.916260,408.020020 1598.000000,405.000000 C 1562.496338,400.107635 1527.333374,393.000000 1492.000000,387.000000 C 1474.333374,384.000000 1456.581909,381.462128 1439.000000,378.000000 C 1403.135864,370.937836 1367.513916,362.652679 1332.000000,354.000000 C 1300.185791,346.248749 1268.320435,338.552490 1237.000000,329.000000 C 1221.471802,324.264008 1206.131470,318.881836 1191.000000,313.000000 C 1169.011353,304.452667 1147.440918,294.840912 1126.000000,285.000000 C 1112.180176,278.656982 1098.251709,272.457581 1085.000000,265.000000 C 1080.165283,262.279175 1075.493042,259.254211 1071.000000,256.000000 C 1065.434570,251.969131 1059.875122,247.843048 1055.000000,243.000000 C 1049.792114,237.826370 1044.304688,232.555023 1041.000000,226.000000 C 1039.762573,223.545532 1039.281250,220.734314 1039.000000,218.000000 C 1038.146606,209.703781 1037.004639,200.783554 1040.000000,193.000000 C 1041.168823,189.962860 1062.778931,165.378494 1065.000000,163.000000 C 1072.240845,155.245865 1079.261841,147.016647 1088.000000,141.000000 C 1117.473755,120.705887 1151.397949,107.306656 1185.000000,95.000000 C 1200.867676,89.188522 1217.339722,84.826454 1234.000000,82.000000 C 1268.279297,76.184456 1303.234253,73.521942 1338.000000,74.000000 C 1366.820435,74.396301 1395.682495,77.624161 1424.000000,83.000000 C 1436.235840,85.322868 1448.271118,88.811302 1460.000000,93.000000 C 1480.239624,100.228142 1500.378540,108.270226 1519.000000,119.000000 C 1532.229004,126.622604 1544.880005,135.537796 1556.000000,146.000000 C 1565.138672,154.598145 1573.036865,164.561646 1580.000000,175.000000 C 1591.501343,192.241638 1601.566040,210.653381 1609.000000,230.000000 C 1617.264404,251.507858 1622.045532,274.300842 1626.000000,297.000000 C 1626.890869,302.113770 1628.626465,322.822662 1629.000000,328.000000 C 1630.008667,341.979523 1630.666626,355.988098 1631.000000,370.000000 C 1631.348877,384.662506 1631.000000,399.333344 1631.000000,414.000000 C 1631.000000,419.333344 1631.199585,424.670410 1631.000000,430.000000 C 1630.499634,443.361420 1629.814575,456.752899 1628.000000,470.000000 C 1625.924072,485.155548 1621.931152,499.986389 1619.000000,515.000000 C 1617.634521,521.993835 1616.848755,529.118164 1615.000000,536.000000 C 1613.167480,542.821350 1603.570068,569.420959 1601.000000,576.000000 C 1596.110718,588.515991 1590.890015,600.922607 1585.000000,613.000000 C 1583.169189,616.754028 1581.284058,620.503235 1579.000000,624.000000 C 1573.931885,631.759033 1568.340942,639.241211 1562.000000,646.000000 C 1554.404907,654.095520 1545.902832,661.369690 1537.000000,668.000000 C 1524.389648,677.391479 1510.933838,685.714966 1497.000000,693.000000 C 1490.250977,696.528564 1483.257446,699.691284 1476.000000,702.000000 C 1462.355957,706.340393 1448.200195,709.168640 1434.000000,711.000000 C 1426.719360,711.938965 1419.339478,712.147095 1412.000000,712.000000 C 1400.292847,711.765320 1388.393066,711.703735 1377.000000,709.000000 C 1370.013794,707.342041 1343.496582,696.057861 1337.000000,693.000000 C 1329.442017,689.442566 1321.885254,685.729858 1315.000000,681.000000 C 1300.576294,671.091492 1287.188354,659.556519 1275.000000,647.000000 C 1271.283447,643.171204 1258.198242,626.271179 1255.000000,622.000000 C 1247.683594,612.229126 1238.485840,603.352417 1234.000000,592.000000 C 1233.133789,589.807922 1232.190552,580.349304 1232.000000,578.000000 C 1230.652100,561.384583 1229.346802,544.587830 1231.000000,528.000000 C 1232.828613,509.651825 1237.774780,491.683258 1243.000000,474.000000 C 1258.721069,420.796387 1278.729980,368.811646 1301.000000,318.000000 C 1305.577881,307.554993 1357.726929,206.111908 1363.000000,196.000000 C 1370.515869,181.587036 1374.792603,164.773514 1386.000000,153.000000 C 1387.340088,151.592209 1389.679443,151.426102 1391.000000,150.000000 C 1392.519287,148.359344 1392.906250,145.950287 1394.000000,144.000000 C 1395.538208,141.257248 1396.756226,138.203308 1399.000000,136.000000 C 1399.346680,135.659546 1403.574097,133.233826 1404.000000,133.000000 C 1405.306763,132.282654 1406.563354,131.397919 1408.000000,131.000000 C 1410.094238,130.419937 1418.827026,130.015594 1421.000000,130.000000 C 1426.343628,129.961655 1431.871460,129.498810 1437.000000,131.000000 C 1446.880981,133.892303 1455.594849,140.054184 1464.000000,146.000000 C 1473.446411,152.682373 1481.922363,160.715027 1490.000000,169.000000 C 1518.572510,198.305878 1544.504883,230.209549 1569.000000,263.000000 C 1576.414063,272.924896 1603.401733,314.514984 1610.000000,325.000000 C 1633.170654,361.819519 1654.578491,399.719543 1677.000000,437.000000 C 1694.265503,465.707550 1712.489624,493.851593 1729.000000,523.000000 C 1735.320190,534.157959 1740.698853,545.831238 1747.000000,557.000000 C 1754.640381,570.542603 1763.517578,583.369446 1771.000000,597.000000 C 1774.586670,603.533813 1777.258911,610.553345 1781.000000,617.000000 C 1781.603271,618.039490 1782.513794,618.900879 1783.000000,620.000000 C 1783.556030,621.256897 1783.832031,622.635925 1784.000000,624.000000 C 1784.081421,624.661682 1784.471436,625.528625 1784.000000,626.000000 C 1783.528564,626.471375 1780.656982,626.113098 1780.000000,626.000000 C 1774.597168,625.069824 1754.085327,617.048279 1749.000000,615.000000 C 1741.873413,612.129517 1713.971924,599.227966 1707.000000,596.000000 C 1668.843628,578.333984 1631.374634,559.186707 1593.000000,542.000000 C 1546.103271,520.996582 1498.282104,502.120880 1451.000000,482.000000 C 1425.305298,471.065613 1399.888916,459.466095 1374.000000,449.000000 C 1320.106323,427.212524 1265.549072,407.090332 1211.000000,387.000000 C 1182.110962,376.360229 1152.862427,366.711609 1124.000000,356.000000 C 1071.072021,336.356995 1018.059875,316.840149 966.000000,295.000000 C 925.831909,278.148682 886.157776,260.081787 847.000000,241.000000 C 823.679321,229.635712 800.463928,217.975830 778.000000,205.000000 C 774.236572,202.826141 770.443848,200.651184 767.000000,198.000000 C 764.663513,196.201294 756.126282,188.042908 754.000000,186.000000 C 751.620483,183.713776 748.929443,181.676956 747.000000,179.000000 C 746.564209,178.395340 745.420349,177.468582 746.000000,177.000000 C 746.207458,176.832275 750.801208,180.822067 751.000000,181.000000 C 753.107544,182.886337 754.600403,185.502747 757.000000,187.000000 C 767.463562,193.528793 779.884277,196.693497 792.000000,199.000000 C 806.259216,201.714554 864.488281,203.324493 879.000000,203.000000 C 897.404358,202.588455 915.959961,201.666733 934.000000,198.000000 C 970.362915,190.609039 1005.878784,178.581924 1040.000000,164.000000 C 1064.413818,153.566605 1088.316040,141.319809 1110.000000,126.000000 C 1113.662598,123.412315 1117.021729,120.352745 1120.000000,117.000000 C 1124.606567,111.814331 1130.270508,106.717140 1132.000000,100.000000 C 1133.505249,94.153755 1132.822021,87.336731 1130.000000,82.000000 C 1128.563354,79.283264 1125.728760,77.413651 1123.000000,76.000000 C 1092.778809,60.343628 1057.813843,54.881947 1024.000000,51.000000 C 971.005371,44.916031 917.101196,48.930080 864.000000,54.000000 C 851.371033,55.205769 801.417358,64.401230 789.000000,67.000000 C 749.355164,75.297073 709.184448,82.490616 671.000000,96.000000 C 648.085876,104.106850 625.189636,113.466431 605.000000,127.000000 C 600.492676,130.021362 596.431519,133.796539 593.000000,138.000000 C 585.625122,147.033905 578.533936,156.886444 575.000000,168.000000 C 569.631165,184.883850 569.089172,203.386444 571.000000,221.000000 C 571.750671,227.919601 573.843689,234.796600 577.000000,241.000000 C 581.746521,250.328796 587.764587,259.539825 596.000000,266.000000 C 611.152649,277.886383 630.143677,285.084900 649.000000,289.000000 C 654.385132,290.118103 676.527466,289.549072 682.000000,289.000000 C 707.042603,286.487457 732.835266,283.840698 756.000000,274.000000 C 769.786255,268.143402 818.411804,232.490753 830.000000,223.000000 C 841.124878,213.888733 851.503357,203.797760 861.000000,193.000000 C 878.302979,173.326370 895.478210,153.014099 908.000000,130.000000 C 913.948059,119.067955 918.798645,107.249199 921.000000,95.000000 C 921.648560,91.391151 921.776245,87.583557 921.000000,84.000000 C 920.147339,80.063606 918.794800,75.900230 916.000000,73.000000 C 913.931213,70.853157 910.851196,69.871597 908.000000,69.000000 C 900.606140,66.739723 892.720520,65.585991 885.000000,66.000000 C 875.070007,66.532494 864.976501,68.720772 856.000000,73.000000 C 849.560608,76.069756 844.020630,80.932236 839.000000,86.000000 C 827.270081,97.840050 817.045044,111.403610 809.000000,126.000000 C 801.768372,139.120514 795.711426,153.265945 793.000000,168.000000 C 792.743591,169.393265 792.962769,183.583817 793.000000,185.000000 C 793.166748,191.339905 792.381104,197.867996 794.000000,204.000000 C 794.570801,206.161987 796.486267,207.823746 797.000000,210.000000 C 797.153198,210.648834 796.500244,211.558792 797.000000,212.000000 C 797.503662,212.444641 804.343811,211.144135 805.000000,211.000000 C 812.516418,209.349121 819.502808,205.736176 827.000000,204.000000 C 835.863647,201.947388 845.000854,201.338959 854.000000,200.000000 C 883.002686,195.684784 911.894714,190.557922 941.000000,187.000000 C 961.939148,184.440323 982.967957,182.628830 1004.000000,181.000000 C 1048.612549,177.544952 1093.285522,174.686035 1138.000000,173.000000 C 1159.154297,172.202347 1243.831421,171.166672 1265.000000,171.000000 C 1283.999390,170.850403 1303.019043,170.148636 1322.000000,171.000000 C 1351.756348,172.334671 1381.803223,173.103149 1411.000000,179.000000 C 1419.059814,180.627838 1450.281128,191.166122 1458.000000,194.000000 C 1462.067871,195.493469 1466.299683,196.744843 1470.000000,199.000000 C 1477.070190,203.308990 1483.679565,208.655777 1489.000000,215.000000 C 1493.702393,220.607361 1497.850952,227.004486 1500.000000,234.000000 C 1500.686890,236.236145 1501.053589,245.661331 1501.000000,248.000000 C 1500.738647,259.408508 1499.944702,270.974976 1497.000000,282.000000 C 1494.379639,291.810455 1490.409912,301.406708 1485.000000,310.000000 C 1484.056152,311.499329 1479.210449,316.706238 1478.000000,318.000000 C 1474.135376,322.130890 1470.628174,326.747223 1466.000000,330.000000 C 1460.876099,333.601166 1455.043701,336.358215 1449.000000,338.000000 C 1447.223511,338.482605 1439.840332,338.953369 1438.000000,339.000000 C 1429.662720,339.211304 1421.222168,339.396698 1413.000000,338.000000 C 1400.629517,335.898651 1388.741699,331.424561 1377.000000,327.000000 C 1366.390015,323.001892 1356.398438,317.519745 1346.000000,313.000000 C 1323.801147,303.351105 1301.634644,293.576691 1279.000000,285.000000 C 1250.019653,274.018829 1220.603638,264.168823 1191.000000,255.000000 C 1176.785156,250.597397 1162.638062,245.678070 1148.000000,243.000000 C 1131.539185,239.988434 1064.706299,234.962250 1048.000000,234.000000 C 1021.701843,232.485275 995.338745,231.602417 969.000000,232.000000 C 956.982849,232.181396 944.818665,231.817581 933.000000,234.000000 C 915.791748,237.177643 898.719788,242.311691 883.000000,250.000000 C 876.106384,253.371536 851.055176,271.285828 845.000000,276.000000 C 839.036926,280.642487 833.362183,285.674774 828.000000,291.000000 C 815.940002,302.976837 803.600891,314.974579 794.000000,329.000000 C 787.979187,337.795502 769.469666,376.323578 765.000000,386.000000 C 763.182861,389.933929 761.491699,393.931488 760.000000,398.000000 C 757.350891,405.225281 754.681702,412.490387 753.000000,420.000000 C 751.897705,424.922333 751.334045,429.966827 751.000000,435.000000 C 750.867554,436.995605 751.000000,439.000000 751.000000,441.000000 C 751.000000,441.666656 750.432922,442.649506 751.000000,443.000000 C 752.109558,443.685760 777.869995,429.651520 779.000000,429.000000 C 793.176453,420.826538 806.015015,410.496948 820.000000,402.000000 C 864.381897,375.034546 908.870972,347.811493 956.000000,326.000000 C 1004.435181,303.584015 1055.156250,286.228149 1106.000000,270.000000 C 1130.648560,262.132751 1155.666748,255.260590 1181.000000,250.000000 C 1220.602661,241.776276 1260.635986,234.596649 1301.000000,232.000000 C 1333.606079,229.902420 1366.448730,231.176376 1399.000000,234.000000 C 1412.103760,235.136673 1425.174072,237.085480 1438.000000,240.000000 C 1460.416504,245.093826 1482.612061,251.573914 1504.000000,260.000000 C 1523.001831,267.486023 1541.360107,276.707092 1559.000000,287.000000 C 1565.628052,290.867493 1571.896240,295.348816 1578.000000,300.000000 C 1587.029907,306.881042 1596.647461,313.349640 1604.000000,322.000000 C 1610.293945,329.404816 1615.748535,337.841827 1619.000000,347.000000 C 1621.365845,353.663544 1622.351440,360.937683 1622.000000,368.000000 C 1620.890869,390.285828 1614.806274,412.497833 1606.000000,433.000000 C 1599.905762,447.188202 1565.353882,498.713867 1556.000000,511.000000 C 1545.418945,524.897949 1533.712891,538.021118 1521.000000,550.000000 C 1493.720581,575.704468 1464.671143,599.954285 1433.000000,620.000000 C 1397.226196,642.642456 1358.393677,660.489197 1319.000000,676.000000 C 1305.067017,681.485962 1290.656494,685.932800 1276.000000,689.000000 C 1245.769775,695.326355 1214.871460,699.083313 1184.000000,700.000000 C 1161.636719,700.664063 1138.860474,700.761902 1117.000000,696.000000 C 1106.173340,693.641602 1095.616333,689.505005 1086.000000,684.000000 C 1064.585083,671.740723 1043.401001,657.279480 1028.000000,638.000000 C 998.688477,601.306824 982.392151,555.369324 967.000000,511.000000 C 958.491882,486.474487 953.904541,460.664063 950.000000,435.000000 C 943.259033,390.692932 940.834900,345.779327 939.000000,301.000000 C 937.498840,264.364075 937.901489,227.650208 939.000000,191.000000 C 939.500244,174.310852 939.505737,157.509293 942.000000,141.000000 C 946.818848,109.104324 949.177124,75.110336 965.000000,47.000000 C 975.867859,27.692541 991.530518,8.478739 1012.000000,0.000000 C 1021.546753,-3.954395 1032.666626,0.000000 1043.000000,0.000000 C 1066.666626,0.000000 1090.333374,0.000000 1114.000000,0.000000 C 1156.666626,0.000000 1199.333374,0.000000 1242.000000,0.000000 C 1264.000000,0.000000 1286.006470,-0.534249 1308.000000,0.000000 C 1356.042480,1.167011 1404.591553,-0.866698 1452.000000,7.000000 C 1474.584717,10.747575 1562.286865,37.743797 1584.000000,45.000000 C 1602.612427,51.220005 1620.864136,58.503098 1639.000000,66.000000 C 1670.027588,78.826065 1700.813232,92.303795 1731.000000,107.000000 C 1742.529785,112.613197 1754.312988,117.912437 1765.000000,125.000000 C 1778.623291,134.034897 1791.891357,144.007446 1803.000000,156.000000 C 1809.346558,162.851547 1815.137451,170.496918 1819.000000,179.000000 C 1819.852661,180.876968 1821.663330,188.966125 1822.000000,191.000000 C 1823.311157,198.919937 1824.734009,207.005890 1824.000000,215.000000 C 1823.305054,222.569336 1821.260010,230.133392 1818.000000,237.000000 C 1816.770264,239.590332 1814.479004,241.543442 1813.000000,244.000000 C 1812.615601,244.638550 1812.435791,245.395340 1812.000000,246.000000 C 1811.448730,246.764847 1810.871094,247.639206 1810.000000,248.000000 C 1809.384033,248.255127 1808.665405,247.958572 1808.000000,248.000000 C 1805.317749,248.166992 1802.668945,248.684937 1800.000000,249.000000 C 1791.007080,250.061615 1781.996704,250.970978 1773.000000,252.000000 C 1761.662476,253.296768 1750.318726,254.548325 1739.000000,256.000000 C 1702.949707,260.623596 1666.843384,264.978729 1631.000000,271.000000 C 1605.534790,275.277863 1504.285522,295.763397 1479.000000,301.000000 C 1451.278442,306.741119 1423.481201,312.200684 1396.000000,319.000000 C 1366.442261,326.313080 1249.280640,359.646362 1220.000000,368.000000 C 1168.572021,382.672180 1117.553711,398.776001 1066.000000,413.000000 C 1040.436768,420.053040 1014.829346,426.994354 989.000000,433.000000 C 953.533325,441.246429 918.005920,449.571960 882.000000,455.000000 C 871.734375,456.547577 861.376892,458.312073 851.000000,458.000000 C 838.182190,457.614532 821.330566,461.749146 813.000000,452.000000 C 807.153320,445.157745 809.936157,433.462433 813.000000,425.000000 C 814.994080,419.492188 854.049927,375.325439 858.000000,371.000000 C 869.761780,358.120453 881.893311,345.508148 895.000000,334.000000 C 923.757446,308.749939 953.981873,284.961761 986.000000,264.000000 C 1017.204956,243.570602 1049.884766,225.075195 1084.000000,210.000000 C 1098.173340,203.736908 1113.018921,198.959442 1128.000000,195.000000 C 1148.667847,189.537567 1169.717041,185.008896 1191.000000,183.000000 C 1205.601807,181.621750 1220.361694,182.088654 1235.000000,183.000000 C 1240.364502,183.333984 1245.971191,183.102737 1251.000000,185.000000 C 1260.428711,188.557251 1268.711060,195.041092 1276.000000,202.000000 C 1282.630249,208.329956 1304.023804,238.301590 1309.000000,246.000000 C 1314.993286,255.271957 1320.152832,265.080627 1325.000000,275.000000 C 1335.030884,295.527588 1341.913452,317.499695 1352.000000,338.000000 C 1357.731567,349.649200 1363.753418,361.227661 1371.000000,372.000000 C 1373.382690,375.541931 1376.098633,378.868774 1379.000000,382.000000 C 1383.648560,387.016876 1388.337402,392.164246 1394.000000,396.000000 C 1399.185181,399.512329 1405.136597,401.799225 1411.000000,404.000000 C 1413.271973,404.852753 1415.614502,405.554871 1418.000000,406.000000 C 1421.619263,406.675354 1425.402344,407.782776 1429.000000,407.000000 C 1431.625977,406.428619 1434.111206,404.911713 1436.000000,403.000000 C 1438.411987,400.558716 1439.863159,397.238098 1441.000000,394.000000 C 1446.936279,377.092255 1449.712646,358.917267 1450.000000,341.000000 C 1450.393799,316.442566 1447.128052,291.503479 1440.000000,268.000000 C 1436.019531,254.874954 1429.891479,242.217636 1422.000000,231.000000 C 1410.742920,214.998245 1396.445313,201.009094 1381.000000,189.000000 C 1355.769165,169.382462 1326.940552,154.560471 1298.000000,141.000000 C 1282.243408,133.617065 1265.712036,127.846146 1249.000000,123.000000 C 1215.594238,113.313042 1181.286377,106.849884 1147.000000,101.000000 C 1112.887207,95.179749 1078.420532,91.575333 1044.000000,88.000000 C 1027.700073,86.306892 1011.374084,84.667221 995.000000,84.000000 C 963.359619,82.710701 931.471619,80.490921 900.000000,84.000000 C 878.943481,86.347794 857.953796,90.877220 838.000000,98.000000 C 830.980286,100.505783 824.350525,104.097870 818.000000,108.000000 C 807.037354,114.736122 795.674805,121.497208 787.000000,131.000000 C 770.156982,149.450592 757.496094,171.892975 748.000000,195.000000 C 743.052002,207.040009 740.779053,220.105057 739.000000,233.000000 C 734.622742,264.727234 732.190735,297.095673 735.000000,329.000000 C 737.305481,355.183472 743.787659,381.031097 752.000000,406.000000 C 757.128601,421.593018 763.900940,436.722412 772.000000,451.000000 C 780.852295,466.605316 791.212769,481.474091 803.000000,495.000000 C 807.493408,500.156250 812.247192,505.300934 818.000000,509.000000 C 840.753601,523.630554 866.542114,534.364624 893.000000,540.000000 C 928.223755,547.502502 965.087097,545.695374 1001.000000,543.000000 C 1040.512085,540.034485 1078.976196,528.866150 1118.000000,522.000000 C 1137.321777,518.600342 1156.544434,514.523926 1176.000000,512.000000 C 1202.546143,508.556244 1229.256958,506.167786 1256.000000,505.000000 C 1265.990479,504.563751 1276.040405,504.101959 1286.000000,505.000000 C 1297.135132,506.004059 1308.824951,506.366730 1319.000000,511.000000 C 1324.827393,513.653564 1330.027710,517.977966 1334.000000,523.000000 C 1338.347534,528.496399 1342.002075,535.063477 1343.000000,542.000000 C 1346.652222,567.385803 1341.195557,594.466431 1331.000000,618.000000 C 1327.222900,626.718445 1302.556763,656.123535 1296.000000,663.000000 C 1293.879272,665.224121 1291.323120,666.988098 1289.000000,669.000000 C 1286.321411,671.319702 1283.336426,673.336060 1281.000000,676.000000 C 1280.603760,676.451782 1279.301636,678.480225 1279.000000,679.000000 C 1278.625854,679.644653 1277.628174,680.354065 1278.000000,681.000000 C 1278.166626,681.289429 1293.666138,681.989563 1294.000000,682.000000 C 1296.998535,682.093628 1300.000000,682.000000 1303.000000,682.000000 C 1306.000000,682.000000 1309.000000,682.000000 1312.000000,682.000000 C 1312.666626,682.000000 1313.610229,681.459167 1314.000000,682.000000 C 1314.308228,682.427551 1313.308228,684.572449 1313.000000,685.000000 C 1312.025513,686.352051 1310.259033,686.908020 1309.000000,688.000000 C 1308.287720,688.617737 1307.737793,689.413025 1307.000000,690.000000 C 1304.539063,691.957703 1301.857422,693.686951 1299.000000,695.000000 C 1296.461304,696.166565 1285.689697,699.244202 1283.000000,700.000000 C 1280.353760,700.743591 1277.712524,701.555542 1275.000000,702.000000 C 1270.875000,702.675842 1254.176636,703.833191 1250.000000,704.000000 C 1239.008789,704.438965 1227.993896,704.366028 1217.000000,704.000000 C 1211.991699,703.833252 1206.965332,703.675903 1202.000000,703.000000 C 1192.218872,701.668518 1182.486694,699.729126 1173.000000,697.000000 C 1158.302612,692.771851 1143.782104,687.628967 1130.000000,681.000000 C 1124.745239,678.472534 1119.595947,675.588440 1115.000000,672.000000 C 1106.082520,665.037415 1097.149780,657.496277 1091.000000,648.000000 C 1082.856445,635.425110 1077.711426,620.734070 1075.000000,606.000000 C 1073.009155,595.181641 1073.064697,583.828430 1075.000000,573.000000 C 1079.063354,550.263855 1086.442993,527.384644 1099.000000,508.000000 C 1111.174561,489.205750 1129.402588,474.848328 1147.000000,461.000000 C 1159.356079,451.276337 1172.984741,443.127045 1187.000000,436.000000 C 1218.063232,420.203735 1250.133911,405.218048 1284.000000,397.000000 C 1311.655884,390.288910 1340.562012,387.919739 1369.000000,389.000000 C 1380.828369,389.449310 1392.858521,391.002808 1404.000000,395.000000 C 1419.177368,400.445099 1433.185791,409.212524 1446.000000,419.000000 C 1450.870117,422.719818 1455.620361,426.887909 1459.000000,432.000000 C 1473.269043,453.583313 1484.827759,478.321594 1488.000000,504.000000 C 1492.785645,542.738281 1483.548218,582.714722 1472.000000,620.000000 C 1465.604858,640.647644 1454.493652,659.693787 1443.000000,678.000000 C 1415.453125,721.874268 1383.979126,763.726990 1348.000000,801.000000 C 1314.298218,835.913696 1275.245361,865.459229 1236.000000,894.000000 C 1216.853882,907.923767 1197.336792,921.744080 1176.000000,932.000000 C 1137.236450,950.632324 1096.665161,968.572510 1054.000000,974.000000 C 1024.479614,977.755310 993.714539,974.812195 965.000000,967.000000 C 951.765686,963.399414 938.840271,957.402344 928.000000,949.000000 C 897.909119,925.676514 873.046570,894.964722 854.000000,862.000000 C 834.167358,827.674744 822.000732,788.827087 814.000000,750.000000 C 809.753235,729.390686 809.585449,708.038208 810.000000,687.000000 C 810.831848,644.785217 811.675720,601.676025 823.000000,561.000000 C 828.978821,539.524475 868.994446,459.386108 880.000000,440.000000 C 890.315247,421.829926 901.602905,404.033508 915.000000,388.000000 C 936.160522,362.675262 959.691528,338.924286 986.000000,319.000000 C 1013.027344,298.531281 1042.143188,279.601349 1074.000000,268.000000 C 1086.718872,263.368164 1100.496826,261.942413 1114.000000,261.000000 C 1133.630249,259.629944 1153.892212,258.297577 1173.000000,263.000000 C 1182.699463,265.387024 1192.050049,269.952118 1200.000000,276.000000 C 1201.410034,277.072693 1205.914551,282.599762 1207.000000,284.000000 C 1211.701660,290.064972 1216.651978,296.094971 1220.000000,303.000000 C 1222.437866,308.027832 1224.156982,313.476257 1225.000000,319.000000 C 1225.100586,319.659027 1225.000000,320.333344 1225.000000,321.000000 C 1225.000000,322.000000 1225.525757,323.149353 1225.000000,324.000000 C 1224.804077,324.317017 1223.362671,324.914368 1223.000000,325.000000 C 1220.729126,325.536102 1218.333374,325.000000 1216.000000,325.000000 C 1215.000000,325.000000 1213.981934,324.810883 1213.000000,325.000000 C 1211.237305,325.339447 1209.564819,326.120544 1208.000000,327.000000 C 1206.547119,327.816528 1205.259033,328.907990 1204.000000,330.000000 C 1203.287720,330.617737 1202.580200,331.256866 1202.000000,332.000000 C 1200.803833,333.531982 1199.518799,335.126862 1199.000000,337.000000 C 1198.288208,339.569916 1199.000000,342.333344 1199.000000,345.000000 C 1199.000000,346.333344 1198.786377,347.683868 1199.000000,349.000000 C 1199.168823,350.040466 1199.397095,351.135345 1200.000000,352.000000 C 1200.610352,352.875397 1204.101074,355.424835 1205.000000,356.000000 C 1205.627808,356.401703 1206.311401,356.714752 1207.000000,357.000000 C 1207.973877,357.403381 1209.026123,357.596619 1210.000000,358.000000 C 1210.688599,358.285248 1211.395386,358.564178 1212.000000,359.000000 C 1212.764893,359.551270 1213.402222,360.270874 1214.000000,361.000000 C 1214.761963,361.929443 1215.513794,362.900879 1216.000000,364.000000 C 1216.556030,365.256866 1216.832031,366.635925 1217.000000,368.000000 C 1217.529419,372.300873 1217.000000,376.666656 1217.000000,381.000000 C 1217.000000,384.333344 1217.000000,387.666656 1217.000000,391.000000 C 1217.000000,392.666656 1217.000000,394.333344 1217.000000,396.000000 C 1217.000000,397.333344 1217.000000,398.666656 1217.000000,400.000000 C 1217.000000,400.666656 1216.610229,401.459167 1217.000000,402.000000 C 1217.616333,402.855133 1219.000000,402.666656 1220.000000,403.000000 C 1221.000000,403.333344 1221.995117,403.681854 1223.000000,404.000000 C 1226.317749,405.050385 1229.736694,405.790863 1233.000000,407.000000 C 1236.078491,408.140625 1238.939209,409.812866 1242.000000,411.000000 C 1242.982788,411.381165 1244.103394,411.445831 1245.000000,412.000000 C 1246.604004,412.991333 1247.897461,414.470306 1249.000000,416.000000 C 1251.614868,419.627991 1253.585815,423.757355 1255.000000,428.000000 C 1255.589233,429.767761 1256.748779,437.153625 1257.000000,439.000000 C 1257.992920,446.296326 1258.666382,453.643982 1259.000000,461.000000 C 1259.377563,469.324768 1258.680176,477.672791 1259.000000,486.000000 C 1259.166748,490.342926 1259.258179,494.717621 1260.000000,499.000000 C 1260.648682,502.744812 1261.369995,506.566681 1263.000000,510.000000 C 1264.229736,512.590332 1265.939941,515.005371 1268.000000,517.000000 C 1268.863403,517.835999 1272.945435,520.423584 1274.000000,521.000000 C 1279.108154,523.791992 1284.673462,525.651184 1290.000000,528.000000 C 1293.003906,529.324585 1296.031006,530.598877 1299.000000,532.000000 C 1299.674072,532.318115 1300.333374,532.666687 1301.000000,533.000000 C 1301.666626,533.333313 1302.608154,533.365967 1303.000000,534.000000 C 1303.350464,534.567078 1303.350464,535.432922 1303.000000,536.000000 C 1302.412231,536.951050 1298.063232,538.654236 1297.000000,539.000000 C 1293.143555,540.254028 1289.041382,540.665527 1285.000000,541.000000 C 1281.677979,541.274963 1278.270020,541.646851 1275.000000,541.000000 C 1262.976440,538.621460 1251.225098,533.757874 1241.000000,527.000000 C 1228.709717,518.877319 1188.018311,475.800934 1178.000000,465.000000 C 1166.419189,452.514587 1155.239746,439.606842 1145.000000,426.000000 C 1125.487793,400.071777 1109.432983,371.706268 1091.000000,345.000000 C 1079.598145,328.480682 1068.518677,311.689880 1056.000000,296.000000 C 1053.496582,292.862457 1050.872681,289.803406 1048.000000,287.000000 C 1043.937500,283.035370 1039.321655,279.680450 1035.000000,276.000000 C 1032.660278,274.007446 1030.674316,271.514160 1028.000000,270.000000 C 1027.082764,269.480652 1024.831177,270.040466 1025.000000,269.000000 C 1025.213623,267.683868 1027.666626,269.000000 1029.000000,269.000000 C 1034.000000,269.000000 1039.003174,269.178223 1044.000000,269.000000 C 1048.675537,268.833221 1053.411499,268.913574 1058.000000,268.000000 C 1059.033813,267.794159 1059.959473,267.168854 1061.000000,267.000000 C 1061.987061,266.839813 1063.076172,267.382690 1064.000000,267.000000 C 1064.871094,266.639191 1065.639160,265.871033 1066.000000,265.000000 C 1066.892944,262.844269 1067.010742,260.103027 1066.000000,258.000000 C 1065.768799,257.519073 1061.441284,254.299942 1061.000000,254.000000 C 1058.777344,252.489349 1056.557617,250.824966 1054.000000,250.000000 C 1047.939209,248.045090 1022.359558,246.333786 1016.000000,246.000000 C 1000.354858,245.178833 984.624939,244.857254 969.000000,246.000000 C 957.575317,246.835556 946.190979,248.553833 935.000000,251.000000 C 912.947327,255.820343 890.855042,261.361572 870.000000,270.000000 C 855.253235,276.108307 841.558594,284.577271 828.000000,293.000000 C 821.087524,297.294128 814.234192,301.769623 808.000000,307.000000 C 806.194336,308.514954 804.544312,310.219391 803.000000,312.000000 C 801.908020,313.259094 800.876221,314.582245 800.000000,316.000000 C 799.608154,316.634033 798.608154,317.365967 799.000000,318.000000 C 799.175232,318.283539 802.669495,318.043304 803.000000,318.000000 C 818.392578,315.982910 832.796326,309.138062 848.000000,306.000000 C 888.258301,297.690613 929.088745,292.006195 970.000000,288.000000 C 983.617798,286.666504 997.317932,286.153473 1011.000000,286.000000 C 1023.670227,285.857880 1036.707275,283.926819 1049.000000,287.000000 C 1051.892456,287.723114 1054.333374,289.666656 1057.000000,291.000000 C 1057.666626,291.333344 1058.608154,291.365967 1059.000000,292.000000 C 1059.700928,293.134216 1059.637207,294.828766 1059.000000,296.000000 C 1058.193604,297.482239 1043.495605,306.218842 1042.000000,307.000000 C 1027.953857,314.335999 1013.130066,320.289215 998.000000,325.000000 C 966.724182,334.737762 934.524353,342.105591 902.000000,346.000000 C 873.198059,349.448700 843.897461,350.526428 815.000000,348.000000 C 801.454285,346.815735 787.938904,344.180206 775.000000,340.000000 C 747.462830,331.103485 720.825012,318.871552 696.000000,304.000000 C 689.165527,299.905792 664.075500,280.153656 658.000000,275.000000 C 634.262817,254.864563 612.010132,233.010101 590.000000,211.000000 C 567.989868,188.989899 548.056030,164.964096 526.000000,143.000000 C 521.153687,138.173904 516.392090,133.207489 511.000000,129.000000 C 509.669708,127.961960 495.432007,118.892532 494.000000,118.000000 C 492.350525,116.971909 490.806366,114.282486 489.000000,115.000000 C 483.851074,117.045242 480.608643,141.493286 480.000000,147.000000 C 477.286133,171.553146 479.564758,196.698746 484.000000,221.000000 C 486.574158,235.104233 490.819916,249.063156 497.000000,262.000000 C 507.680084,284.356750 521.709229,305.331848 538.000000,324.000000 C 554.617737,343.042816 573.789063,360.256866 595.000000,374.000000 C 609.770996,383.570526 626.450928,390.007782 643.000000,396.000000 C 665.733215,404.231415 689.178833,410.863983 713.000000,415.000000 C 719.259399,416.086792 744.651917,417.749817 751.000000,418.000000 C 754.330750,418.131287 757.666687,418.000000 761.000000,418.000000 C 763.333313,418.000000 765.666687,418.000000 768.000000,418.000000 C 768.666687,418.000000 769.432922,417.649506 770.000000,418.000000 C 770.634033,418.391846 770.880615,419.264282 771.000000,420.000000 C 771.377563,422.326599 770.167114,424.648895 770.000000,427.000000 C 769.952759,427.664978 769.496338,428.563202 770.000000,429.000000 C 770.222595,429.193054 776.710876,428.056641 777.000000,428.000000 C 783.743652,426.678986 790.266235,424.370544 797.000000,423.000000 C 806.424438,421.081818 844.478394,415.355927 854.000000,414.000000 C 855.309814,413.813477 915.687439,406.165985 917.000000,406.000000 C 961.997070,400.309906 1006.814636,392.923553 1052.000000,389.000000 C 1062.389526,388.097839 1166.581055,383.450409 1177.000000,383.000000 C 1194.329956,382.250824 1211.655029,381.201996 1229.000000,381.000000 C 1251.000977,380.743774 1273.111084,379.766510 1295.000000,382.000000 C 1302.088989,382.723358 1309.104492,384.202637 1316.000000,386.000000 C 1322.120117,387.595245 1328.278320,389.305115 1334.000000,392.000000 C 1336.844849,393.339935 1339.257202,395.461761 1342.000000,397.000000 C 1342.650146,397.364594 1343.495361,397.451508 1344.000000,398.000000 C 1344.151978,398.165131 1345.922852,402.789307 1346.000000,403.000000 C 1346.362549,403.989777 1346.831177,404.959534 1347.000000,406.000000 C 1347.106812,406.658051 1347.653076,407.865967 1347.000000,408.000000 C 1344.513306,408.510437 1345.326538,403.164459 1344.000000,401.000000 C 1342.639648,398.780273 1340.831909,396.849854 1339.000000,395.000000 C 1332.843384,388.782990 1326.395996,382.674866 1319.000000,378.000000 C 1306.640747,370.187988 1293.057373,364.020782 1279.000000,360.000000 C 1267.034424,356.577515 1254.429443,355.631622 1242.000000,355.000000 C 1221.682007,353.967499 1201.025513,353.412567 1181.000000,357.000000 C 1170.624268,358.858734 1160.525513,362.486053 1151.000000,367.000000 C 1130.692505,376.623291 1111.283813,388.637878 1094.000000,403.000000 C 1079.668335,414.909027 1067.356567,429.226715 1056.000000,444.000000 C 1051.434692,449.938782 1046.871460,456.081451 1044.000000,463.000000 C 1041.117188,469.945892 1038.237427,477.518433 1039.000000,485.000000 C 1039.408447,489.006927 1040.711304,493.674713 1044.000000,496.000000 C 1047.141724,498.221436 1063.164795,498.311768 1067.000000,498.000000 C 1107.451172,494.711700 1147.896240,484.444397 1185.000000,468.000000 C 1217.540649,453.578003 1246.811646,431.971375 1274.000000,409.000000 C 1285.168457,399.563751 1296.115967,389.313354 1304.000000,377.000000 C 1316.416504,357.607910 1328.198242,335.955963 1330.000000,313.000000 C 1330.803467,302.762878 1329.362061,291.060303 1323.000000,283.000000 C 1318.382080,277.149384 1310.273315,274.629486 1303.000000,273.000000 C 1246.062866,260.243988 1185.763550,268.758057 1128.000000,277.000000 C 1099.824341,281.020233 990.197998,312.615601 963.000000,321.000000 C 943.757935,326.931824 924.586670,333.255249 906.000000,341.000000 C 894.027710,345.988647 880.722778,349.415741 871.000000,358.000000 C 865.039490,363.262543 860.259888,370.376678 858.000000,378.000000 C 856.768372,382.154633 857.023254,386.778198 858.000000,391.000000 C 861.763550,407.266937 870.368042,422.361694 880.000000,436.000000 C 883.297485,440.669067 923.921387,480.995178 928.000000,485.000000 C 933.888733,490.782196 939.880249,496.462860 946.000000,502.000000 C 950.906250,506.439209 956.157654,510.491180 961.000000,515.000000 C 962.035034,515.963745 963.000000,517.000000 964.000000,518.000000 C 964.666687,518.666687 962.606384,516.721924 962.000000,516.000000 C 947.070679,498.226624 933.889587,478.935272 922.000000,459.000000 C 910.928040,440.435669 901.380249,420.924713 893.000000,401.000000 C 877.960022,365.241241 863.384399,328.876007 855.000000,291.000000 C 852.899597,281.511444 849.500671,242.705353 849.000000,233.000000 C 848.793945,229.005310 847.537903,224.723221 849.000000,221.000000 C 851.327759,215.072342 856.645691,210.447723 862.000000,207.000000 C 869.090027,202.434631 877.668457,200.302368 886.000000,199.000000 C 914.324646,194.572388 943.836609,194.641510 972.000000,200.000000 C 1005.995850,206.468216 1038.014648,221.590256 1069.000000,237.000000 C 1077.447021,241.200897 1109.219360,261.665009 1117.000000,267.000000 C 1144.491455,285.850311 1172.747559,304.132294 1197.000000,327.000000 C 1221.780151,350.365387 1243.469238,377.097473 1263.000000,405.000000 C 1270.705444,416.008301 1277.930054,427.556061 1283.000000,440.000000 C 1292.486938,463.285614 1298.076294,488.164001 1302.000000,513.000000 C 1302.885864,518.606934 1303.833252,541.325989 1304.000000,547.000000 C 1304.078369,549.665527 1304.000000,552.333313 1304.000000,555.000000 C 1304.000000,556.666687 1305.539795,559.362183 1304.000000,560.000000 C 1300.951294,561.262817 1299.379517,555.286255 1297.000000,553.000000 C 1292.747437,548.914185 1288.592651,544.699341 1284.000000,541.000000 C 1277.662476,535.895264 1271.084229,531.004395 1264.000000,527.000000 C 1238.278198,512.460754 1211.288818,499.528931 1183.000000,491.000000 C 1160.019409,484.071472 1135.918213,481.007019 1112.000000,479.000000 C 1100.374146,478.024445 1088.626953,478.037720 1077.000000,479.000000 C 1054.772583,480.839600 1032.770386,485.152771 1011.000000,490.000000 C 1002.552979,491.880737 994.051880,493.828918 986.000000,497.000000 C 975.873779,500.988007 965.894531,505.728516 957.000000,512.000000 C 951.410339,515.941223 946.094116,520.521301 942.000000,526.000000 C 939.769104,528.985291 938.006226,532.411621 937.000000,536.000000 C 934.832520,543.729553 933.126221,552.194031 935.000000,560.000000 C 936.921631,568.005310 942.336365,575.024963 948.000000,581.000000 C 954.424866,587.778137 962.748657,592.625427 971.000000,597.000000 C 1003.815735,614.397766 1038.885620,628.322205 1075.000000,637.000000 C 1095.204834,641.854919 1178.248413,648.915161 1199.000000,650.000000 C 1217.974121,650.991882 1237.132690,652.241089 1256.000000,650.000000 C 1284.259888,646.643250 1312.606934,640.643982 1339.000000,630.000000 C 1349.391968,625.809082 1360.260010,621.102356 1368.000000,613.000000 C 1372.943726,607.824829 1375.777344,600.803101 1378.000000,594.000000 C 1383.651001,576.703247 1388.802612,557.979309 1386.000000,540.000000 C 1382.854370,519.820374 1371.383423,501.240753 1359.000000,485.000000 C 1355.492065,480.399323 1337.584229,465.529480 1333.000000,462.000000 C 1326.095825,456.684357 1253.279785,408.788391 1246.000000,404.000000 C 1214.793091,383.473175 1182.674316,364.314484 1152.000000,343.000000 C 1140.064941,334.706787 1128.157837,326.312561 1117.000000,317.000000 C 1111.568237,312.466583 1091.085449,292.918732 1086.000000,288.000000 C 1083.966919,286.033600 1078.092651,284.088562 1080.000000,282.000000 C 1080.438843,281.519409 1085.547607,286.532074 1086.000000,287.000000 C 1087.320923,288.366150 1091.874268,294.469025 1093.000000,296.000000 C 1110.309204,319.540833 1128.258179,342.771881 1143.000000,368.000000 C 1160.374756,397.734100 1175.175659,429.038513 1188.000000,461.000000 C 1196.479004,482.131775 1203.278809,503.961121 1209.000000,526.000000 C 1217.623657,559.219299 1224.848633,592.931641 1229.000000,627.000000 C 1232.431030,655.156433 1233.746582,683.645142 1233.000000,712.000000 C 1232.823608,718.697571 1231.651001,725.331787 1231.000000,732.000000 C 1230.316772,738.998413 1230.938477,746.240784 1229.000000,753.000000 C 1228.588989,754.432922 1228.485352,756.874084 1227.000000,757.000000 C 1223.910889,757.261780 1217.355469,744.788147 1216.000000,742.000000 C 1204.348511,718.033752 1178.339600,614.108032 1173.000000,588.000000 C 1163.298828,540.565857 1158.067139,492.244873 1154.000000,444.000000 C 1153.243408,435.025665 1152.241699,399.002930 1152.000000,390.000000 C 1151.463135,370.004425 1151.166626,350.002075 1151.000000,330.000000 C 1150.966675,326.000153 1151.000000,322.000000 1151.000000,318.000000 C 1151.000000,314.666656 1151.000000,311.333344 1151.000000,308.000000 C 1151.000000,307.333344 1150.361938,306.193176 1151.000000,306.000000 C 1151.071899,305.978241 1152.958984,308.937073 1153.000000,309.000000 C 1155.372192,312.641632 1157.885010,316.203217 1160.000000,320.000000 C 1165.223755,329.377380 1169.140015,339.429077 1174.000000,349.000000 C 1176.565674,354.052582 1179.541382,358.894501 1182.000000,364.000000 C 1188.931519,378.393616 1193.662354,393.809143 1201.000000,408.000000 C 1201.515259,408.996582 1214.411011,430.045135 1215.000000,431.000000 C 1216.650879,433.676453 1218.413086,436.285126 1220.000000,439.000000 C 1222.107788,442.605804 1223.839478,446.425568 1226.000000,450.000000 C 1226.621704,451.028564 1227.396729,451.960510 1228.000000,453.000000 C 1228.374146,453.644653 1228.564209,454.395325 1229.000000,455.000000 C 1229.551270,455.764832 1231.360840,456.128967 1231.000000,457.000000 C 1230.936279,457.153992 1229.165527,457.019226 1229.000000,457.000000 C 1223.217407,456.328857 1217.580322,454.658020 1212.000000,453.000000 C 1205.885010,451.183105 1181.953491,442.291534 1176.000000,440.000000 C 1161.211182,434.307678 1146.554688,428.266754 1132.000000,422.000000 C 1103.773438,409.846619 1075.060791,398.565704 1048.000000,384.000000 C 1025.443237,371.858612 1003.458130,358.417084 983.000000,343.000000 C 973.007507,335.469727 963.289429,327.372345 955.000000,318.000000 C 938.337463,299.160767 921.908386,279.116638 912.000000,256.000000 C 903.552490,236.291687 899.411072,214.438492 899.000000,193.000000 C 898.844543,184.891144 899.907776,176.497726 903.000000,169.000000 C 907.831116,157.286072 915.546997,146.437805 925.000000,138.000000 C 936.074463,128.114822 989.303894,100.725204 1003.000000,95.000000 C 1020.321045,87.759499 1038.604126,82.746712 1057.000000,79.000000 C 1091.519165,71.969421 1126.775635,66.504974 1162.000000,67.000000 C 1187.924683,67.364334 1213.978516,71.206711 1239.000000,78.000000 C 1246.646484,80.075996 1254.108032,83.091255 1261.000000,87.000000 C 1271.148193,92.755478 1281.557373,99.015671 1289.000000,108.000000 C 1302.028809,123.727676 1311.138062,143.163849 1316.000000,163.000000 C 1319.254395,176.277710 1318.992554,190.475266 1317.000000,204.000000 C 1310.608398,247.382446 1295.750732,289.849060 1276.000000,329.000000 C 1250.588379,379.372223 1214.235962,423.755798 1178.000000,467.000000 C 1168.538208,478.291718 1126.699341,519.873291 1116.000000,530.000000 C 1077.921509,566.040466 1041.803833,605.188354 998.000000,634.000000 C 964.737976,655.877808 927.799927,672.503357 890.000000,685.000000 C 878.703613,688.734558 866.873474,691.240601 855.000000,692.000000 C 840.661133,692.917053 824.904602,695.317810 812.000000,689.000000 C 804.367249,685.263184 798.868713,677.566711 795.000000,670.000000 C 790.029419,660.278076 787.605103,648.911743 788.000000,638.000000 C 789.232117,603.955383 801.878418,570.526917 817.000000,540.000000 C 823.510620,526.856567 859.452881,480.135132 869.000000,469.000000 C 876.364075,460.411041 884.261536,452.186005 893.000000,445.000000 C 904.782166,435.311066 956.036072,402.039337 969.000000,394.000000 C 971.283936,392.583679 976.179565,392.681396 976.000000,390.000000 "
       id="path0004"
       style="fill:none;stroke:white;stroke-opacity:1;stroke-width:4px" />
  </g>
</svg>
