<?xml version="1.0" encoding="UTF-8" standalone="no"?>
<!-- Created with Inkscape (http://www.inkscape.org/) -->

<svg
   xmlns:dc="http://purl.org/dc/elements/1.1/"
   xmlns:cc="http://creativecommons.org/ns#"
   xmlns:rdf="http://www.w3.org/1999/02/22-rdf-syntax-ns#"
   xmlns:svg="http://www.w3.org/2000/svg"
   xmlns="http://www.w3.org/2000/svg"
   version="1.1"
   width="1920"
   height="1080"
   id="svg2">
  <defs
     id="defs4" />
  <metadata
     id="metadata7">
    <rdf:RDF>
      <cc:Work
         rdf:about="">
        <dc:format>image/svg+xml</dc:format>
        <dc:type
           rdf:resource="http://purl.org/dc/dcmitype/StillImage" />
        <dc:title></dc:title>
      </cc:Work>
    </rdf:RDF>
  </metadata>
    <image
			     xlink:href=".\DancerS.png"
			     width="1920"
			     height="1080"
			     preserveAspectRatio="none"
			     id="imageDancer"
			     x="0"
			     y="0" />
  <g
     transform="translate(0.0,0.0)"
     id="layer1">
    <path
       initial_time="95.402000"
       final_time="124.077003"
       d="M 992.000000,458.000000 C 991.783264,458.976227 990.000000,458.000000 989.000000,458.000000 C 987.333313,458.000000 985.666687,458.000000 984.000000,458.000000 C 981.333313,458.000000 978.666687,458.000000 976.000000,458.000000 C 973.666687,458.000000 971.329346,457.863464 969.000000,458.000000 C 963.304016,458.333893 957.672241,459.382782 952.000000,460.000000 C 942.009094,461.087158 931.992126,461.923981 922.000000,463.000000 C 913.325989,463.934082 904.670410,465.032928 896.000000,466.000000 C 874.342346,468.415619 852.707031,471.078156 831.000000,473.000000 C 807.035950,475.121674 782.980835,476.077515 759.000000,478.000000 C 747.989990,478.882660 736.989441,479.890076 726.000000,481.000000 C 698.971375,483.729889 671.880066,486.067841 645.000000,490.000000 C 626.562317,492.697174 608.357361,496.801544 590.000000,500.000000 C 582.010010,501.392120 574.022400,502.808655 566.000000,504.000000 C 558.352234,505.135712 550.660400,505.953278 543.000000,507.000000 C 540.664673,507.319092 538.351074,507.832916 536.000000,508.000000 C 535.335022,508.047272 534.226929,508.626862 534.000000,508.000000 C 533.667664,507.082031 551.210571,493.574402 552.000000,493.000000 C 570.171021,479.778290 590.020508,469.032410 609.000000,457.000000 C 616.341309,452.345856 623.521362,447.430084 631.000000,443.000000 C 637.546143,439.122284 645.129333,436.839844 651.000000,432.000000 C 653.008789,430.343933 654.876831,428.348663 656.000000,426.000000 C 656.733276,424.466644 657.105591,422.696381 657.000000,421.000000 C 656.934509,419.947937 656.605713,418.862701 656.000000,418.000000 C 653.681702,414.697998 640.382263,405.199585 637.000000,403.000000 C 607.625610,383.897034 574.862671,370.591339 544.000000,354.000000 C 512.859253,337.259186 481.480072,320.915497 451.000000,303.000000 C 439.120148,296.017303 426.869873,289.469635 416.000000,281.000000 C 407.817169,274.624054 378.154907,245.511230 371.000000,238.000000 C 366.436462,233.209183 362.009705,228.263077 358.000000,223.000000 C 355.086609,219.175949 352.412964,215.157974 350.000000,211.000000 C 349.251770,209.710663 346.731934,207.783707 348.000000,207.000000 C 349.417755,206.123779 359.183472,221.547058 360.000000,223.000000 C 367.035553,235.518921 372.546692,249.060959 376.000000,263.000000 C 388.977142,315.381439 391.957672,370.045044 393.000000,424.000000 C 393.967896,474.101624 388.861176,524.232971 383.000000,574.000000 C 380.666901,593.810242 376.842499,613.426453 373.000000,633.000000 C 366.815338,664.504395 360.065125,695.923767 352.000000,727.000000 C 350.820984,731.542847 345.408966,749.523071 344.000000,754.000000 C 343.683563,755.005493 343.333344,756.000000 343.000000,757.000000 C 342.666656,758.000000 343.042786,760.153992 342.000000,760.000000 C 339.113434,759.573792 340.739288,727.906189 341.000000,725.000000 C 343.313080,699.214905 367.064209,598.198975 373.000000,573.000000 C 376.633301,557.575684 392.835510,496.289490 397.000000,481.000000 C 411.752350,426.838379 424.975800,372.162384 443.000000,319.000000 C 448.813416,301.853302 475.938751,234.671661 483.000000,218.000000 C 487.421997,207.559631 491.684692,197.015152 497.000000,187.000000 C 504.155823,173.516891 511.215881,159.716278 521.000000,148.000000 C 529.321777,138.034866 539.623474,129.802734 550.000000,122.000000 C 560.053467,114.440224 570.721558,107.569435 582.000000,102.000000 C 604.982544,90.650925 629.343140,82.002914 654.000000,75.000000 C 677.204651,68.409531 700.991821,63.344433 725.000000,61.000000 C 733.293884,60.190090 741.666687,61.000000 750.000000,61.000000 C 758.333313,61.000000 766.677002,60.584885 775.000000,61.000000 C 778.345825,61.166874 781.654175,61.833126 785.000000,62.000000 C 785.665833,62.033211 786.367554,61.789181 787.000000,62.000000 C 788.581116,62.527046 789.932068,63.720413 791.000000,65.000000 C 791.477600,65.572250 791.828735,66.274582 792.000000,67.000000 C 792.153198,67.648834 792.000000,68.333336 792.000000,69.000000 C 792.000000,69.666664 792.000000,70.333336 792.000000,71.000000 C 792.000000,71.666664 792.255127,72.384079 792.000000,73.000000 C 791.639221,73.871040 790.806641,74.511925 790.000000,75.000000 C 785.219360,77.892654 779.241455,78.063599 774.000000,80.000000 C 772.809387,80.439873 761.162354,85.490036 760.000000,86.000000 C 743.604492,93.193306 726.846924,99.667458 711.000000,108.000000 C 693.391663,117.258728 675.533081,126.570175 660.000000,139.000000 C 649.876526,147.100983 641.305176,157.043335 633.000000,167.000000 C 607.757263,197.262283 582.677246,228.298996 564.000000,263.000000 C 544.048584,300.068237 530.424683,340.483490 519.000000,381.000000 C 513.109375,401.890472 508.533478,423.349152 507.000000,445.000000 C 504.854858,475.286743 504.780182,506.281281 511.000000,536.000000 C 514.220947,551.389832 519.986633,566.471924 528.000000,580.000000 C 542.225586,604.015503 561.210510,625.374512 582.000000,644.000000 C 603.827942,663.555847 629.547058,678.472839 655.000000,693.000000 C 662.380798,697.212585 670.095276,700.879456 678.000000,704.000000 C 684.177673,706.438782 690.435913,708.988220 697.000000,710.000000 C 699.306091,710.355469 701.666687,710.000000 704.000000,710.000000 C 704.666687,710.000000 705.474548,710.410278 706.000000,710.000000 C 707.624939,708.731323 709.004395,700.061523 709.000000,698.000000 C 708.959595,679.082092 702.114319,660.529297 695.000000,643.000000 C 692.108032,635.874329 676.250977,609.408447 672.000000,603.000000 C 653.721191,575.444031 633.112122,549.450439 612.000000,524.000000 C 593.919067,502.203644 574.735718,481.310120 555.000000,461.000000 C 547.278076,453.053314 538.845886,445.824310 531.000000,438.000000 C 512.972107,420.021759 495.013000,401.941498 478.000000,383.000000 C 463.769043,367.155884 450.722717,350.286285 437.000000,334.000000 C 427.704529,322.967987 417.881989,312.367554 409.000000,301.000000 C 391.059082,278.038391 373.128113,254.904861 358.000000,230.000000 C 343.063141,205.409988 330.436768,179.400345 319.000000,153.000000 C 316.673645,147.629898 308.925507,125.526520 307.000000,120.000000 C 302.491425,107.059731 297.831238,94.156723 294.000000,81.000000 C 292.847229,77.041321 291.503784,73.092216 291.000000,69.000000 C 290.877808,68.007492 290.292908,66.707108 291.000000,66.000000 C 293.357025,63.642979 297.701996,66.484047 301.000000,66.000000 C 304.443207,65.494644 307.615173,63.808716 311.000000,63.000000 C 323.846161,59.930752 336.920502,57.836136 350.000000,56.000000 C 369.576141,53.251846 389.257263,51.001286 409.000000,50.000000 C 413.161316,49.788952 429.833984,49.925632 434.000000,50.000000 C 452.675598,50.333385 471.472290,49.630783 490.000000,52.000000 C 496.096710,52.779613 502.127411,54.186047 508.000000,56.000000 C 514.860413,58.119072 522.175110,59.801651 528.000000,64.000000 C 532.604980,67.319084 536.790771,71.771088 539.000000,77.000000 C 544.344238,89.648911 545.175720,104.441917 543.000000,118.000000 C 541.037231,130.230774 534.434021,141.414749 528.000000,152.000000 C 515.007629,173.375031 450.545959,250.240295 434.000000,269.000000 C 415.288208,290.215332 394.129425,309.160431 375.000000,330.000000 C 337.933746,370.379913 299.660553,409.980316 267.000000,454.000000 C 239.335602,491.285889 214.124344,530.656128 193.000000,572.000000 C 186.128098,585.449463 180.352097,599.537292 176.000000,614.000000 C 168.747635,638.100769 161.032684,662.831726 161.000000,688.000000 C 160.982346,701.597351 163.594635,715.523193 169.000000,728.000000 C 171.279785,733.262268 174.640045,738.274475 179.000000,742.000000 C 193.166443,754.105164 211.051468,761.992798 229.000000,767.000000 C 248.971161,772.571472 270.416931,774.495239 291.000000,772.000000 C 300.417877,770.858276 309.559113,767.330322 318.000000,763.000000 C 335.204315,754.173889 351.510742,742.853821 365.000000,729.000000 C 387.252167,706.146423 404.707581,678.516174 419.000000,650.000000 C 424.998535,638.031738 429.207397,625.092896 432.000000,612.000000 C 438.144135,583.193665 442.881348,553.313049 440.000000,524.000000 C 436.770477,491.144867 426.424744,458.695374 412.000000,429.000000 C 405.210693,415.023254 395.322205,402.614502 385.000000,391.000000 C 375.593658,380.416016 332.944977,342.983734 322.000000,334.000000 C 310.122040,324.250488 260.451263,288.005829 248.000000,279.000000 C 239.082947,272.550415 229.081909,267.469543 221.000000,260.000000 C 209.873322,249.716400 198.792450,238.543198 192.000000,225.000000 C 186.925705,214.882553 184.411270,203.311142 184.000000,192.000000 C 183.852646,187.947510 183.990784,183.522430 186.000000,180.000000 C 190.747360,171.677246 221.941681,148.183533 230.000000,143.000000 C 261.976227,122.431190 296.899384,105.928986 333.000000,94.000000 C 352.676636,87.498108 373.435760,84.560623 394.000000,82.000000 C 431.100342,77.380325 468.788757,72.380394 506.000000,76.000000 C 538.508118,79.162125 570.308105,88.829338 601.000000,100.000000 C 611.787170,103.926117 622.643982,108.348457 632.000000,115.000000 C 648.520813,126.745285 663.035339,141.637360 675.000000,158.000000 C 681.423828,166.785141 686.317871,176.758591 690.000000,187.000000 C 694.269165,198.874191 697.007690,211.420746 698.000000,224.000000 C 698.945129,235.981293 698.253540,248.194672 696.000000,260.000000 C 695.209412,264.141571 693.210449,267.961121 692.000000,272.000000 C 690.514465,276.956909 689.174683,281.960358 688.000000,287.000000 C 687.614197,288.655304 687.551636,290.392334 687.000000,292.000000 C 686.758118,292.705017 686.171265,293.274597 686.000000,294.000000 C 685.770264,294.973236 686.266907,296.036285 686.000000,297.000000 C 685.481201,298.873138 683.884827,300.269440 683.000000,302.000000 C 681.844299,304.260254 681.372803,306.864624 680.000000,309.000000 C 678.660156,311.084137 661.702393,329.199799 660.000000,331.000000 C 640.403564,351.722565 620.908081,372.601624 600.000000,392.000000 C 587.516113,403.582458 574.582031,414.727264 561.000000,425.000000 C 545.773621,436.516449 482.116669,478.766449 466.000000,489.000000 C 439.119446,506.068268 412.704559,524.218201 384.000000,538.000000 C 367.645905,545.852051 350.326874,551.625000 333.000000,557.000000 C 329.062012,558.221619 325.092224,559.496216 321.000000,560.000000 C 316.037476,560.610901 311.000000,560.000000 306.000000,560.000000 C 304.666656,560.000000 303.333344,560.000000 302.000000,560.000000 C 301.333344,560.000000 300.153168,560.648804 300.000000,560.000000 C 299.871552,559.455933 305.480347,557.206055 306.000000,557.000000 C 308.426239,556.037781 333.493195,548.726929 336.000000,548.000000 C 344.311462,545.589905 352.596283,543.065552 361.000000,541.000000 C 382.839478,535.632019 405.104553,532.134888 427.000000,527.000000 C 450.456024,521.499084 474.139343,516.604919 497.000000,509.000000 C 508.629883,505.131165 519.844604,500.077362 531.000000,495.000000 C 547.959839,487.280762 565.995361,481.049103 581.000000,470.000000 C 585.650940,466.575134 601.215332,449.363159 605.000000,445.000000 C 611.379150,437.645813 617.919739,430.304749 623.000000,422.000000 C 630.860291,409.150696 637.645142,395.419556 642.000000,381.000000 C 644.535156,372.605835 645.331360,363.743103 646.000000,355.000000 C 646.203308,352.341095 646.882690,349.516357 646.000000,347.000000 C 644.587036,342.971893 641.744446,339.049774 638.000000,337.000000 C 633.148499,334.344208 577.523132,330.292084 572.000000,330.000000 C 548.366333,328.750214 524.493408,327.141663 501.000000,330.000000 C 444.421112,336.883728 389.134766,353.167969 335.000000,371.000000 C 288.021545,386.474762 243.674469,409.018768 198.000000,428.000000 C 180.336349,435.340607 162.653336,442.634613 145.000000,450.000000 C 124.317642,458.629150 103.366814,466.650391 83.000000,476.000000 C 78.935661,477.865784 75.131714,480.288574 71.000000,482.000000 C 67.104584,483.613525 62.787628,484.147522 59.000000,486.000000 C 57.920361,486.528046 56.000000,488.000000 56.000000,488.000000 C 56.000000,488.000000 57.973858,486.625671 59.000000,486.000000 C 64.860291,482.426758 70.758743,478.856171 77.000000,476.000000 C 128.972992,452.215637 182.971588,432.451935 238.000000,417.000000 C 292.315399,401.748291 348.035828,391.126495 404.000000,384.000000 C 415.592102,382.523865 462.322937,380.449097 474.000000,380.000000 C 507.648376,378.705902 541.365784,376.378540 575.000000,378.000000 C 585.056152,378.484802 625.031616,383.588684 635.000000,385.000000 C 639.015137,385.568451 643.094788,385.907318 647.000000,387.000000 C 650.457336,387.967377 653.584045,389.895447 657.000000,391.000000 C 658.307678,391.422852 661.167908,390.635925 661.000000,392.000000 C 660.959290,392.330841 657.329651,392.049561 657.000000,392.000000 C 654.758301,391.662933 646.128174,388.780914 644.000000,388.000000 C 641.616821,387.125488 639.302979,386.068115 637.000000,385.000000 C 636.323853,384.686401 635.666687,384.333344 635.000000,384.000000 C 634.333313,383.666656 633.201904,383.717499 633.000000,383.000000 C 632.787048,382.243225 637.532837,375.632294 638.000000,375.000000 C 641.931885,369.678558 647.139954,365.373810 651.000000,360.000000 C 654.835449,354.660400 658.159790,348.929199 661.000000,343.000000 C 666.696838,331.107361 672.320068,318.911499 675.000000,306.000000 C 676.424255,299.138306 677.161194,291.911072 676.000000,285.000000 C 675.702576,283.229767 675.229431,281.307953 674.000000,280.000000 C 669.200256,274.893738 661.829529,272.571289 655.000000,271.000000 C 622.188904,263.451050 587.194519,264.371704 554.000000,270.000000 C 506.492065,278.055206 461.447815,298.163086 418.000000,319.000000 C 398.979279,328.122070 381.220703,339.816101 364.000000,352.000000 C 343.303284,366.643219 322.435364,381.593842 305.000000,400.000000 C 295.646240,409.874573 286.662018,420.633057 281.000000,433.000000 C 274.302032,447.629639 268.373627,463.992371 270.000000,480.000000 C 271.447235,494.244507 279.481934,507.491638 288.000000,519.000000 C 295.443848,529.057068 305.415405,537.327515 316.000000,544.000000 C 349.620789,565.194336 387.206360,581.362427 426.000000,590.000000 C 456.937134,596.888306 489.694000,598.948669 521.000000,594.000000 C 527.146423,593.028381 550.307190,583.512756 556.000000,581.000000 C 578.640320,571.006958 601.088806,560.235046 622.000000,547.000000 C 628.027771,543.184937 632.949341,537.778687 639.000000,534.000000 C 639.632202,533.605164 640.274597,533.171265 641.000000,533.000000 C 641.648804,532.846802 642.649536,532.432922 643.000000,533.000000 C 643.097961,533.158508 642.096558,534.840637 642.000000,535.000000 C 638.165833,541.330627 633.851685,547.410767 629.000000,553.000000 C 624.904785,557.717773 606.623535,574.798767 602.000000,579.000000 C 599.725525,581.066711 597.560242,583.300049 595.000000,585.000000 C 591.895264,587.061462 588.627075,589.143738 585.000000,590.000000 C 584.351196,590.153198 583.632446,590.210815 583.000000,590.000000 C 581.418884,589.472961 579.559631,588.569885 579.000000,587.000000 C 576.319397,579.479980 599.319458,501.520020 602.000000,494.000000 C 613.764893,460.994476 629.416382,429.308289 647.000000,399.000000 C 659.134583,378.084106 715.508057,299.357330 730.000000,280.000000 C 750.747253,252.287247 770.869202,223.822327 795.000000,199.000000 C 801.098877,192.726334 807.677307,186.788910 815.000000,182.000000 C 827.726135,173.677322 841.281616,165.819794 856.000000,162.000000 C 867.955261,158.897308 880.812866,157.992554 893.000000,160.000000 C 900.084778,161.166992 906.947632,164.136780 913.000000,168.000000 C 918.018860,171.203522 960.794128,212.785522 965.000000,217.000000 C 985.989136,238.032013 1006.134460,259.903656 1026.000000,282.000000 C 1036.587524,293.776367 1046.227051,306.393097 1057.000000,318.000000 C 1070.468994,332.511597 1084.445313,346.577637 1099.000000,360.000000 C 1111.864136,371.863281 1126.328857,381.930847 1139.000000,394.000000 C 1141.646729,396.521027 1151.531128,407.304443 1154.000000,410.000000 C 1159.739868,416.267029 1165.612183,422.427856 1171.000000,429.000000 C 1173.113281,431.577820 1174.816040,434.481812 1177.000000,437.000000 C 1177.617676,437.712250 1179.360840,438.128967 1179.000000,439.000000 C 1178.952148,439.115479 1173.125000,439.002502 1173.000000,439.000000 C 1164.661621,438.833313 1156.238281,439.298553 1148.000000,438.000000 C 1107.655640,431.640808 1068.472656,418.710205 1030.000000,405.000000 C 989.223389,390.468750 949.544250,372.703583 911.000000,353.000000 C 889.977295,342.253326 869.885803,329.727936 850.000000,317.000000 C 810.048523,291.428955 771.089050,264.270569 733.000000,236.000000 C 730.606812,234.223740 623.332581,148.855072 621.000000,147.000000 C 604.661560,134.006378 588.352112,120.976387 572.000000,108.000000 C 541.701355,83.956192 510.917816,60.516010 481.000000,36.000000 C 469.841766,26.856436 461.096344,14.049520 448.000000,8.000000 C 440.487915,4.529992 407.247711,0.668855 399.000000,0.000000 C 390.693939,-0.673587 382.333344,0.000000 374.000000,0.000000 C 373.000000,0.000000 372.000000,0.000000 371.000000,0.000000 C 369.666656,0.000000 367.094513,-1.329979 367.000000,0.000000 C 366.832916,2.351093 371.770569,0.235060 374.000000,1.000000 C 381.625885,3.616496 409.227142,20.626377 416.000000,25.000000 C 433.643646,36.393539 449.758972,50.005894 467.000000,62.000000 C 512.383423,93.572006 560.030945,121.840546 605.000000,154.000000 C 653.155884,188.438507 698.753540,226.324066 746.000000,262.000000 C 790.105347,295.304077 833.683960,329.362946 879.000000,361.000000 C 895.980774,372.855011 913.948975,383.246246 931.000000,395.000000 C 943.379028,403.533203 991.902222,439.072510 1004.000000,448.000000 C 1013.387390,454.927368 1022.728394,461.918396 1032.000000,469.000000 C 1041.061035,475.920807 1050.000000,483.000000 1059.000000,490.000000 C 1062.000000,492.333344 1065.150757,494.484772 1068.000000,497.000000 C 1068.706787,497.623962 1069.245117,499.564819 1070.000000,499.000000 C 1070.417969,498.687225 1064.281372,488.439789 1064.000000,488.000000 C 1060.083984,481.878723 1042.519775,458.690125 1038.000000,453.000000 C 1029.027344,441.703888 1019.669373,430.705811 1010.000000,420.000000 C 986.139648,393.582092 960.574707,368.754761 936.000000,343.000000 C 917.932129,324.064514 898.684021,306.165436 882.000000,286.000000 C 875.454163,278.088226 869.602661,269.605499 864.000000,261.000000 C 857.886353,251.609650 851.407410,242.301956 847.000000,232.000000 C 846.045471,229.768906 843.806885,227.113129 845.000000,225.000000 C 847.037537,221.391388 888.901367,212.612076 893.000000,212.000000 C 903.307678,210.460709 1007.579346,208.166687 1018.000000,208.000000 C 1035.997681,207.712112 1054.000000,208.000000 1072.000000,208.000000 C 1098.333374,208.000000 1124.666626,208.000000 1151.000000,208.000000 C 1164.000000,208.000000 1177.000000,208.000000 1190.000000,208.000000 C 1192.666626,208.000000 1195.333374,208.000000 1198.000000,208.000000 C 1200.000000,208.000000 1203.615479,206.037308 1204.000000,208.000000 C 1204.233521,209.192123 1151.129761,229.553406 1150.000000,230.000000 C 1130.080933,237.874435 1109.956055,245.219604 1090.000000,253.000000 C 1033.540405,275.012268 977.083435,297.046295 921.000000,320.000000 C 890.862061,332.334808 861.304077,346.079193 831.000000,358.000000 C 789.392090,374.367432 747.212708,389.262360 705.000000,404.000000 C 685.096313,410.948944 665.241089,418.105774 645.000000,424.000000 C 641.041321,425.152771 636.249878,429.537415 633.000000,427.000000 C 632.474548,426.589722 632.736877,425.612549 633.000000,425.000000 C 634.337769,421.885803 689.500549,371.289246 692.000000,369.000000 C 734.317444,330.241302 777.285461,292.175781 821.000000,255.000000 C 839.044922,239.654236 857.897339,225.277573 876.000000,210.000000 C 894.236572,194.609390 910.880493,177.278931 930.000000,163.000000 C 933.482239,160.399399 938.089233,159.227417 941.000000,156.000000 C 941.499207,155.446503 942.627869,154.401718 942.000000,154.000000 C 938.404297,151.699341 936.970642,160.934433 934.000000,164.000000 C 931.408508,166.674347 902.854126,190.607895 900.000000,193.000000 C 854.990845,230.723495 808.559021,266.745789 764.000000,305.000000 C 738.207642,327.142914 713.727905,350.782196 688.000000,373.000000 C 684.059204,376.403137 680.000000,379.666656 676.000000,383.000000 C 674.000000,384.666656 671.731995,389.943695 670.000000,388.000000 C 669.598083,387.548950 690.549500,368.402588 691.000000,368.000000 C 725.051636,337.570892 760.012573,308.113190 796.000000,280.000000 C 803.145691,274.417786 810.559387,269.182648 818.000000,264.000000 C 821.944763,261.252319 826.583557,252.617859 830.000000,256.000000 C 831.626221,257.609863 816.431274,277.214630 815.000000,279.000000 C 802.467529,294.632690 788.211487,308.959473 773.000000,322.000000 C 768.646057,325.732574 763.482849,328.423248 759.000000,332.000000 C 755.862427,334.503387 753.028015,342.634827 750.000000,340.000000 C 749.546692,339.605530 751.549500,337.397705 752.000000,337.000000 C 752.558777,336.506714 753.880615,336.735718 754.000000,336.000000 C 754.151001,335.069366 752.871033,334.360809 752.000000,334.000000 C 751.384094,333.744873 750.661682,334.081451 750.000000,334.000000 C 748.635925,333.832062 747.364075,333.167938 746.000000,333.000000 C 745.007507,332.877808 743.850647,332.474274 743.000000,333.000000 C 742.682983,333.195923 742.085632,334.637299 742.000000,335.000000 C 741.540466,336.946503 742.000000,339.000000 742.000000,341.000000 C 742.000000,342.000000 741.683777,343.051331 742.000000,344.000000 C 743.054077,347.162292 745.604675,349.681915 748.000000,352.000000 C 750.923889,354.829590 754.326538,357.250305 758.000000,359.000000 C 760.190857,360.043518 769.624329,362.505005 772.000000,363.000000 C 781.876404,365.057892 791.933655,366.331879 802.000000,367.000000 C 807.654236,367.375275 813.418213,367.976959 819.000000,367.000000 C 831.567383,364.800385 843.644104,359.815552 855.000000,354.000000 C 861.830322,350.502075 868.457153,346.307129 874.000000,341.000000 C 876.407654,338.694733 878.430969,335.940979 880.000000,333.000000 C 883.324646,326.768188 886.854370,320.061707 887.000000,313.000000 C 887.165222,304.987823 884.663574,296.517151 880.000000,290.000000 C 874.024353,281.649200 864.270630,276.415863 855.000000,272.000000 C 811.344360,251.205521 762.849182,240.976852 715.000000,234.000000 C 661.218994,226.158234 606.172180,225.610947 552.000000,230.000000 C 528.671814,231.890060 505.275238,235.817276 483.000000,243.000000 C 444.821991,255.310638 408.172699,272.991943 374.000000,294.000000 C 347.301239,310.413361 321.845612,329.527985 300.000000,352.000000 C 286.709381,365.671692 276.081085,381.815826 266.000000,398.000000 C 249.131653,425.080383 234.193695,453.517761 222.000000,483.000000 C 213.981995,502.386139 208.109146,522.652832 203.000000,543.000000 C 201.678497,548.262878 201.059006,553.678040 200.000000,559.000000 C 198.736877,565.347717 197.451782,571.692749 196.000000,578.000000 C 195.691711,579.339355 195.476837,580.710999 195.000000,582.000000 C 194.741394,582.699036 194.634033,583.608154 194.000000,584.000000 C 193.574677,584.262878 191.489410,584.102356 191.000000,584.000000 C 185.301910,582.808105 179.902542,580.139099 175.000000,577.000000 C 171.619690,574.835571 159.828369,563.848083 157.000000,561.000000 C 131.700134,535.523987 106.975082,509.140289 86.000000,480.000000 C 58.946972,442.415710 33.704094,402.790283 16.000000,360.000000 C 7.963390,340.575745 2.688751,319.848480 0.000000,299.000000 C -5.627905,255.361420 0.000000,211.000000 0.000000,167.000000 C 0.000000,132.333328 0.000000,97.666672 0.000000,63.000000 C 0.000000,49.000000 0.000000,35.000000 0.000000,21.000000 C 0.000000,14.000000 -4.949748,4.949748 0.000000,0.000000 C 0.471405,-0.471405 1.333333,0.000000 2.000000,0.000000 C 13.333333,0.000000 24.816429,-1.836345 36.000000,0.000000 C 49.886280,2.280130 103.033119,21.533024 116.000000,27.000000 C 131.522491,33.544449 146.646622,41.181938 161.000000,50.000000 C 166.006302,53.075638 270.274658,129.508072 275.000000,133.000000 C 295.105865,147.857788 314.904785,163.127823 335.000000,178.000000 C 385.429749,215.322296 435.871094,252.641449 487.000000,289.000000 C 538.542175,325.652435 590.568848,361.630890 643.000000,397.000000 C 666.146362,412.614136 689.341248,428.173706 713.000000,443.000000 C 757.080872,470.624268 801.716003,497.395630 847.000000,523.000000 C 880.232178,541.790039 914.452698,558.778503 948.000000,577.000000 C 957.701599,582.269531 967.090393,588.132935 977.000000,593.000000 C 977.611389,593.300293 1006.374451,605.730408 1007.000000,606.000000 C 1009.331299,607.004700 1011.697021,607.931885 1014.000000,609.000000 C 1014.676147,609.313599 1015.274597,609.828735 1016.000000,610.000000 C 1016.648804,610.153198 1017.341919,610.106812 1018.000000,610.000000 C 1019.040466,609.831177 1020.171814,609.652100 1021.000000,609.000000 C 1022.235352,608.027344 1025.280273,602.397949 1026.000000,601.000000 C 1030.788818,591.698853 1034.577759,581.885986 1038.000000,572.000000 C 1041.624634,561.529114 1045.485840,550.976563 1047.000000,540.000000 C 1047.501099,536.367737 1047.272705,532.656494 1047.000000,529.000000 C 1046.498657,522.277405 1047.035889,515.018982 1044.000000,509.000000 C 1041.240234,503.528320 1036.031494,499.498505 1031.000000,496.000000 C 1023.774719,490.976105 1015.510864,487.238159 1007.000000,485.000000 C 968.823669,474.960571 928.430725,473.145660 889.000000,475.000000 C 844.000366,477.116241 799.421082,486.997681 756.000000,499.000000 C 746.899902,501.515411 711.696960,515.325562 703.000000,519.000000 C 675.527710,530.606812 646.576965,540.105713 622.000000,557.000000 C 602.184021,570.621643 585.184753,588.354736 570.000000,607.000000 C 563.283936,615.246582 557.023682,624.155151 553.000000,634.000000 C 547.063477,648.525146 542.353027,664.321899 543.000000,680.000000 C 543.517334,692.536987 547.823303,705.077881 554.000000,716.000000 C 556.207520,719.903564 559.384644,723.346680 563.000000,726.000000 C 576.588684,735.972839 592.752625,742.512817 609.000000,747.000000 C 635.185852,754.231934 662.859375,757.177795 690.000000,756.000000 C 703.584595,755.410461 717.212646,752.622986 730.000000,748.000000 C 755.668701,738.720032 781.333862,726.830078 802.000000,709.000000 C 824.714478,689.402710 841.915039,663.487976 856.000000,637.000000 C 864.116882,621.735474 870.564331,605.115967 873.000000,588.000000 C 876.667786,562.225525 877.721436,534.529846 869.000000,510.000000 C 861.249817,488.201904 844.947815,469.747772 828.000000,454.000000 C 816.481628,443.297241 802.630371,434.759766 788.000000,429.000000 C 757.038025,416.810730 723.254761,411.158722 690.000000,410.000000 C 657.109314,408.853973 623.354980,412.001160 592.000000,422.000000 C 578.642883,426.259460 566.441101,433.897156 555.000000,442.000000 C 535.164734,456.047760 515.479065,471.477356 501.000000,491.000000 C 484.301453,513.515259 472.909271,540.107239 465.000000,567.000000 C 462.818512,574.417480 461.766968,582.271912 462.000000,590.000000 C 462.265991,598.821472 463.427582,607.929871 467.000000,616.000000 C 468.349274,619.048035 470.514984,621.778320 473.000000,624.000000 C 477.901184,628.381836 483.656616,632.272644 490.000000,634.000000 C 498.362183,636.277100 507.602051,636.141418 516.000000,634.000000 C 518.023560,633.484009 525.222351,629.095886 527.000000,628.000000 C 531.486450,625.234192 536.146545,622.595642 540.000000,619.000000 C 541.560547,617.543884 542.849670,615.797852 544.000000,614.000000 C 544.401733,613.372131 544.365967,612.391846 545.000000,612.000000 C 545.567078,611.649536 546.528625,612.471375 547.000000,612.000000 C 547.471375,611.528625 547.210815,610.632446 547.000000,610.000000 C 546.472961,608.418884 544.929993,607.383057 544.000000,606.000000 C 542.915466,604.387085 542.057983,602.630493 541.000000,601.000000 C 538.785278,597.586731 536.398132,594.287048 534.000000,591.000000 C 530.915466,586.772156 518.200073,570.141052 515.000000,566.000000 C 511.371002,561.303955 507.631805,556.693848 504.000000,552.000000 C 493.229370,538.079834 481.898407,524.553345 472.000000,510.000000 C 461.486938,494.542969 453.199097,477.665985 443.000000,462.000000 C 440.780060,458.590118 438.214752,455.413269 436.000000,452.000000 C 433.884094,448.739014 427.156342,444.650421 430.000000,442.000000 C 430.744110,441.306458 439.251160,448.311554 440.000000,449.000000 C 445.749725,454.285889 449.906647,461.079041 455.000000,467.000000 C 486.104187,503.158234 518.767456,537.952576 550.000000,574.000000 C 581.441589,610.288696 610.929077,648.266296 643.000000,684.000000 C 655.913391,698.388245 670.098145,711.601379 683.000000,726.000000 C 708.889771,754.893433 731.928406,786.270569 758.000000,815.000000 C 771.464722,829.837341 785.609680,844.058594 800.000000,858.000000 C 803.897278,861.775696 807.892456,865.454224 812.000000,869.000000 C 817.201782,873.490417 822.225647,878.274475 828.000000,882.000000 C 829.252625,882.808167 830.790649,883.128357 832.000000,884.000000 C 832.764832,884.551270 833.128967,886.360779 834.000000,886.000000 C 834.615906,885.744873 834.000000,884.666687 834.000000,884.000000 C 834.000000,882.000000 834.128235,879.995911 834.000000,878.000000 C 833.331970,867.602417 832.565857,857.098083 830.000000,847.000000 C 827.271240,836.260742 822.953247,825.911743 818.000000,816.000000 C 803.073853,786.131958 786.009888,756.951355 765.000000,731.000000 C 740.524719,700.768188 710.906738,674.871399 681.000000,650.000000 C 661.157959,633.498718 639.643127,619.056091 618.000000,605.000000 C 573.890991,576.353516 527.963745,550.564697 482.000000,525.000000 C 442.518524,503.040680 401.618805,483.710602 362.000000,462.000000 C 347.859436,454.251160 334.595825,444.852875 320.000000,438.000000 C 317.421997,436.789612 314.394531,436.541870 312.000000,435.000000 C 310.414612,433.979156 307.278412,432.742096 308.000000,431.000000 C 308.255127,430.384094 309.335022,431.047272 310.000000,431.000000 C 314.702179,430.665833 319.382233,429.947845 324.000000,429.000000 C 328.395996,428.097687 345.702820,423.293457 350.000000,422.000000 C 355.046814,420.480927 375.016266,413.714661 380.000000,412.000000 C 411.104309,401.298553 441.936432,389.819183 473.000000,379.000000 C 499.280457,369.846710 525.632751,360.900177 552.000000,352.000000 C 562.986023,348.291687 573.917175,344.408051 585.000000,341.000000 C 597.910583,337.029907 610.840454,333.044891 624.000000,330.000000 C 627.630859,329.159882 631.288269,328.334686 635.000000,328.000000 C 635.664001,327.940125 636.333313,328.000000 637.000000,328.000000 C 637.666687,328.000000 638.528625,327.528595 639.000000,328.000000 C 639.471375,328.471405 639.207092,329.366302 639.000000,330.000000 C 637.684937,334.024200 611.702332,367.740997 609.000000,371.000000 C 571.969971,415.657928 529.576843,455.582672 490.000000,498.000000 C 446.233826,544.907349 403.522827,592.810242 359.000000,639.000000 C 341.660919,656.988281 323.205933,673.884338 306.000000,692.000000 C 274.468079,725.199158 244.678513,760.010681 214.000000,794.000000 C 204.670273,804.336609 194.802139,814.210571 186.000000,825.000000 C 181.553772,830.450073 165.035187,853.238953 161.000000,859.000000 C 158.931503,861.953186 156.044830,864.549133 155.000000,868.000000 C 154.806808,868.638062 154.412216,869.685425 155.000000,870.000000 C 155.264908,870.141785 157.766357,868.188904 158.000000,868.000000 C 171.564255,857.032349 220.768204,807.436279 233.000000,795.000000 C 257.720459,769.866272 354.042450,666.862000 378.000000,641.000000 C 390.106476,627.931152 438.027771,575.191956 450.000000,562.000000 C 490.761444,517.085815 533.021484,473.469910 572.000000,427.000000 C 591.539551,403.705109 609.942993,379.461975 628.000000,355.000000 C 630.416443,351.726410 632.785278,348.413269 635.000000,345.000000 C 636.057983,343.369507 636.322815,339.017792 638.000000,340.000000 C 638.579773,340.339508 630.379761,353.445770 630.000000,354.000000 C 625.144653,361.085938 570.482849,427.387665 565.000000,434.000000 C 564.320618,434.819305 532.687805,472.187775 532.000000,473.000000 C 515.340820,492.673004 497.741730,511.585449 482.000000,532.000000 C 477.030762,538.444275 471.658142,544.730896 468.000000,552.000000 C 467.526154,552.941589 467.554169,554.103333 467.000000,555.000000 C 466.504333,555.802002 464.639191,556.128967 465.000000,557.000000 C 465.255127,557.615906 466.335602,556.945007 467.000000,557.000000 C 469.020691,557.167236 470.983246,557.790710 473.000000,558.000000 C 476.982086,558.413208 492.997406,558.916626 497.000000,559.000000 C 508.997406,559.249817 521.000000,559.000000 533.000000,559.000000 C 541.333313,559.000000 549.666687,559.000000 558.000000,559.000000 C 566.000000,559.000000 574.000000,559.000000 582.000000,559.000000 C 583.666687,559.000000 585.333313,559.000000 587.000000,559.000000 C 587.666687,559.000000 589.000000,559.000000 589.000000,559.000000 C 589.000000,559.000000 581.666687,559.000000 578.000000,559.000000 C 566.333313,559.000000 554.663208,559.284302 543.000000,559.000000 C 515.642273,558.333130 488.241608,557.604553 461.000000,555.000000 C 442.229431,553.205383 423.499786,550.648682 405.000000,547.000000 C 374.304138,540.945862 344.028137,532.786316 314.000000,524.000000 C 301.859924,520.447754 289.686249,516.840576 278.000000,512.000000 C 268.359344,508.006714 258.758728,503.672180 250.000000,498.000000 C 246.023483,495.424805 242.808823,491.817322 239.000000,489.000000 C 238.033752,488.285278 236.567108,488.059631 236.000000,487.000000 C 235.370850,485.824432 235.429031,484.204895 236.000000,483.000000 C 238.028763,478.718811 242.763641,476.120789 247.000000,474.000000 C 261.892273,466.544678 327.633484,453.081909 344.000000,450.000000 C 366.794220,445.707703 389.840393,442.277679 413.000000,441.000000 C 464.265106,438.171814 515.880188,439.217163 567.000000,444.000000 C 594.935486,446.613678 622.591675,451.999420 650.000000,458.000000 C 699.920959,468.929382 750.050659,480.324738 798.000000,498.000000 C 830.877075,510.119263 864.589233,522.491333 893.000000,543.000000 C 909.822144,555.143250 923.594727,571.370056 936.000000,588.000000 C 940.820618,594.462341 946.058655,601.174988 948.000000,609.000000 C 952.898804,628.745667 951.904602,650.531433 946.000000,670.000000 C 941.785217,683.896912 932.657227,696.154358 923.000000,707.000000 C 898.074402,734.992920 867.227783,757.862122 835.000000,777.000000 C 790.817749,803.236877 742.302246,822.517883 693.000000,837.000000 C 668.655762,844.150879 643.313965,848.273682 618.000000,850.000000 C 571.079468,853.199829 523.197815,853.805542 477.000000,845.000000 C 439.820251,837.913330 403.721893,824.186890 370.000000,807.000000 C 351.630066,797.637451 334.388153,785.722839 319.000000,772.000000 C 288.669312,744.951782 260.094147,714.736023 239.000000,680.000000 C 218.726471,646.615295 203.295044,609.371033 196.000000,571.000000 C 193.136154,555.936462 193.339615,540.100769 196.000000,525.000000 C 201.415466,494.260864 211.533600,463.515656 228.000000,437.000000 C 249.890640,401.749786 281.856628,373.240845 314.000000,347.000000 C 335.349243,329.571136 359.128693,314.873230 384.000000,303.000000 C 432.325317,279.930145 483.374817,260.906891 536.000000,251.000000 C 582.230469,242.296936 629.992859,243.175644 677.000000,245.000000 C 696.458984,245.755203 716.164429,247.055954 735.000000,252.000000 C 767.811584,260.612549 799.490356,274.268066 829.000000,291.000000 C 840.192871,297.346313 850.611328,305.201782 860.000000,314.000000 C 874.668396,327.745880 889.012268,342.554169 899.000000,360.000000 C 909.527832,378.389252 916.077515,399.176605 920.000000,420.000000 C 920.864441,424.588928 921.174988,443.333649 921.000000,448.000000 C 920.886902,451.016357 920.647522,454.051819 920.000000,457.000000 C 918.869385,462.147766 917.446045,467.331543 915.000000,472.000000 C 914.226501,473.476288 913.490723,475.254639 912.000000,476.000000 C 911.403687,476.298157 910.666687,476.000000 910.000000,476.000000 C 909.333313,476.000000 908.638062,475.806824 908.000000,476.000000 C 906.849731,476.348267 905.567078,476.940369 905.000000,478.000000 C 904.528137,478.881683 905.000000,480.000000 905.000000,481.000000 C 905.000000,481.666656 904.626221,482.447968 905.000000,483.000000 C 906.509521,485.229645 917.356018,488.490814 920.000000,489.000000 C 924.255127,489.819458 928.692566,489.472839 933.000000,489.000000 C 951.328979,486.987976 969.752136,483.520081 987.000000,477.000000 C 992.163513,475.048065 1011.282654,463.866882 1016.000000,461.000000 C 1018.054138,459.751648 1020.253845,458.651855 1022.000000,457.000000 C 1023.210754,455.854645 1025.849121,454.434113 1025.000000,453.000000 C 1024.699829,452.492950 1011.577209,454.881531 1011.000000,455.000000 C 993.416016,458.609253 975.825928,462.746094 959.000000,469.000000 C 957.829590,469.434998 933.120911,481.449951 932.000000,482.000000 C 929.992615,482.985046 927.716736,483.567230 926.000000,485.000000 C 924.720398,486.067902 922.208496,487.533264 923.000000,489.000000 C 924.268860,491.351349 936.459229,488.826721 939.000000,488.000000 C 943.132874,486.655243 947.089233,484.227417 950.000000,481.000000 C 950.249573,480.723236 950.870728,479.349518 951.000000,479.000000 C 951.476807,477.710999 952.787842,476.126129 952.000000,475.000000 C 951.087341,473.695496 915.589905,471.083435 914.000000,471.000000 C 897.689087,470.143890 881.272583,469.592377 865.000000,471.000000 C 828.256042,474.178497 791.915710,481.616516 756.000000,490.000000 C 744.495911,492.685303 732.993103,495.674744 722.000000,500.000000 C 720.612793,500.545807 719.333313,501.333344 718.000000,502.000000 C 716.666687,502.666656 715.455994,504.319794 714.000000,504.000000 C 711.915344,503.542114 711.423462,500.590393 710.000000,499.000000 C 708.742432,497.594971 707.446594,496.209473 706.000000,495.000000 C 687.626587,479.638550 667.642883,466.141907 647.000000,454.000000 C 638.519287,449.011749 602.983765,432.012207 594.000000,428.000000 C 561.501892,413.486145 527.846130,401.708038 495.000000,388.000000 C 473.228516,378.913849 450.548889,371.588745 430.000000,360.000000 C 427.502380,358.591431 418.269653,351.752380 416.000000,350.000000 C 411.878662,346.817932 407.480164,343.872955 404.000000,340.000000 C 403.196716,339.106049 401.432892,338.059631 402.000000,337.000000 C 402.157288,336.706116 403.673126,336.934631 404.000000,337.000000 C 408.249176,337.849823 412.293915,339.754395 416.000000,342.000000 C 418.226563,343.349121 420.228943,345.091827 422.000000,347.000000 C 429.802734,355.406708 436.795288,364.779114 442.000000,375.000000 C 449.174866,389.089752 453.284607,404.631348 457.000000,420.000000 C 459.060455,428.523102 459.151550,437.428406 461.000000,446.000000 C 464.136993,460.546600 467.795990,475.058594 473.000000,489.000000 C 475.450745,495.565430 477.097626,502.992218 482.000000,508.000000 C 482.521423,508.532623 485.299744,509.744690 486.000000,510.000000 C 494.051575,512.935364 502.437988,516.369263 511.000000,516.000000 C 528.902954,515.227844 546.178223,507.413208 562.000000,499.000000 C 571.654114,493.866425 580.332581,486.795258 588.000000,479.000000 C 609.551575,457.089142 628.862549,432.289001 643.000000,405.000000 C 652.843201,386.000000 659.624390,365.130402 663.000000,344.000000 C 664.262024,336.100159 664.759277,327.804169 663.000000,320.000000 C 659.753845,305.600281 653.811340,291.028442 644.000000,280.000000 C 636.285095,271.328064 595.269592,248.409012 585.000000,243.000000 C 567.960510,234.025299 550.266907,226.099991 532.000000,220.000000 C 516.394348,214.788681 452.119324,200.295731 436.000000,197.000000 C 418.443634,193.410446 400.804321,190.029175 383.000000,188.000000 C 377.360046,187.357208 371.674011,187.166733 366.000000,187.000000 C 356.004303,186.706268 345.880341,185.457672 336.000000,187.000000 C 327.355103,188.349487 318.587585,190.642944 311.000000,195.000000 C 309.055511,196.116592 302.532745,202.363403 301.000000,204.000000 C 291.427307,214.221283 282.811829,225.377335 275.000000,237.000000 C 267.089203,248.769897 259.680664,261.006104 254.000000,274.000000 C 250.917358,281.051208 248.702148,288.494995 247.000000,296.000000 C 244.320297,307.815125 242.835327,319.913635 242.000000,332.000000 C 241.402451,340.646057 242.000000,349.333344 242.000000,358.000000 C 242.000000,362.666656 241.652908,367.346252 242.000000,372.000000 C 242.250702,375.361298 244.384033,388.686127 245.000000,392.000000 C 245.561615,395.021423 243.945175,401.335327 247.000000,401.000000 C 249.319397,400.745392 247.000000,396.333344 247.000000,394.000000 C 247.000000,391.333344 246.477020,388.614868 247.000000,386.000000 C 248.699677,377.501648 252.634293,369.486786 257.000000,362.000000 C 261.786224,353.792084 285.711914,324.123047 292.000000,317.000000 C 300.111389,307.811554 308.426331,298.652924 318.000000,291.000000 C 335.553223,276.968445 355.050507,265.344971 375.000000,255.000000 C 391.980896,246.194427 409.747467,238.721359 428.000000,233.000000 C 435.486542,230.653290 443.250610,229.225677 451.000000,228.000000 C 454.308838,227.476669 457.654205,227.166870 461.000000,227.000000 C 465.993805,226.750931 471.000000,227.000000 476.000000,227.000000 C 477.666656,227.000000 479.333344,227.000000 481.000000,227.000000 C 484.333344,227.000000 487.709717,226.466064 491.000000,227.000000 C 494.121429,227.506546 497.309998,228.337494 500.000000,230.000000 C 501.203003,230.743500 501.962372,232.039108 503.000000,233.000000 C 505.254852,235.088074 507.815887,236.838043 510.000000,239.000000 C 512.518311,241.492737 515.024963,244.058105 517.000000,247.000000 C 517.207703,247.309418 518.840942,250.662964 519.000000,251.000000 C 520.401123,253.968948 522.055908,256.855713 523.000000,260.000000 C 524.166138,263.883881 524.333313,268.000000 525.000000,272.000000 C 525.333313,274.000000 525.689941,275.996246 526.000000,278.000000 C 526.360413,280.329315 526.832886,282.648895 527.000000,285.000000 C 527.047241,285.664978 527.552063,286.626251 527.000000,287.000000 C 526.814209,287.125793 517.207581,283.085205 517.000000,283.000000 C 510.642914,280.390503 504.508026,277.206299 498.000000,275.000000 C 490.496246,272.456146 482.781006,270.494568 475.000000,269.000000 C 464.443298,266.972260 453.728912,265.667969 443.000000,265.000000 C 436.013519,264.565033 428.765503,263.203339 422.000000,265.000000 C 416.805206,266.379547 412.271423,269.737518 408.000000,273.000000 C 405.002960,275.289124 402.135040,277.891327 400.000000,281.000000 C 392.565613,291.824707 387.697601,304.399506 384.000000,317.000000 C 382.765472,321.206909 382.050293,325.615967 382.000000,330.000000 C 381.911285,337.731110 382.739716,345.606140 385.000000,353.000000 C 386.307404,357.276764 387.837708,361.837708 391.000000,365.000000 C 391.263519,365.263519 392.647491,365.879059 393.000000,366.000000 C 394.607666,366.551605 396.309937,367.180450 398.000000,367.000000 C 402.156342,366.556244 417.341980,359.022644 421.000000,357.000000 C 427.715668,353.286713 433.878845,348.628204 440.000000,344.000000 C 456.613098,331.438843 471.130157,316.214172 488.000000,304.000000 C 498.188507,296.623260 508.341400,288.722229 520.000000,284.000000 C 524.423523,282.208282 529.261169,281.566864 534.000000,281.000000 C 546.250488,279.534576 559.158447,276.535980 571.000000,280.000000 C 581.825623,283.166809 590.770020,291.287079 599.000000,299.000000 C 607.319397,306.796661 614.933838,315.785614 620.000000,326.000000 C 632.107117,350.410309 638.986511,377.826660 641.000000,405.000000 C 643.205994,434.771729 638.717346,465.161407 631.000000,494.000000 C 627.333984,507.699341 620.890930,520.605408 614.000000,533.000000 C 602.588257,553.526245 588.525452,572.545532 574.000000,591.000000 C 568.743835,597.677917 563.550781,604.586182 557.000000,610.000000 C 555.501770,611.238220 553.795715,612.256226 552.000000,613.000000 C 550.730225,613.525940 549.337585,614.315735 548.000000,614.000000 C 545.009033,613.293945 542.504211,610.679871 541.000000,608.000000 C 537.942261,602.552246 535.008362,577.247192 535.000000,571.000000 C 534.937744,524.419189 544.762268,477.944580 557.000000,433.000000 C 559.939392,422.204620 601.737305,318.344574 606.000000,308.000000 C 611.119446,295.576355 616.759888,283.373230 622.000000,271.000000 C 627.769653,257.376465 632.342651,243.212433 639.000000,230.000000 C 639.437317,229.132126 641.480347,225.821198 642.000000,225.000000 C 642.642700,223.984421 642.849731,221.651718 644.000000,222.000000 C 650.699646,224.028488 644.000000,236.000000 644.000000,243.000000 C 644.000000,263.333344 643.538208,283.671906 644.000000,304.000000 C 644.166687,311.339020 644.202820,318.702515 645.000000,326.000000 C 647.535095,349.207184 651.414612,372.332764 657.000000,395.000000 C 659.345520,404.518921 661.870422,414.108551 666.000000,423.000000 C 667.324646,425.852051 669.386230,428.300964 671.000000,431.000000 C 672.379089,433.306580 673.047729,436.153168 675.000000,438.000000 C 675.541443,438.512207 676.333313,438.666656 677.000000,439.000000 C 677.666687,439.333344 678.274597,439.828766 679.000000,440.000000 C 679.973267,440.229767 681.076111,440.382690 682.000000,440.000000 C 683.742065,439.278412 684.395996,436.991333 686.000000,436.000000 C 686.896667,435.445831 688.103333,435.554169 689.000000,435.000000 C 689.501221,434.690216 693.597412,430.430298 694.000000,430.000000 C 696.420776,427.412445 698.726013,424.717438 701.000000,422.000000 C 703.739502,418.726257 706.640747,415.557526 709.000000,412.000000 C 714.028442,404.417633 718.137329,396.237579 722.000000,388.000000 C 728.096741,374.997986 734.091858,361.818420 738.000000,348.000000 C 739.334778,343.280487 742.407898,323.868774 743.000000,319.000000 C 744.694458,305.066986 746.276123,291.032959 746.000000,277.000000 C 745.881226,270.964233 745.973755,264.705139 744.000000,259.000000 C 740.280151,248.247925 734.024109,238.065872 726.000000,230.000000 C 714.063538,218.001419 698.535889,209.714264 683.000000,203.000000 C 668.453857,196.713470 652.781677,192.431671 637.000000,191.000000 C 596.720642,187.345978 555.527039,191.433197 516.000000,200.000000 C 472.608948,209.404251 430.267334,225.280502 391.000000,246.000000 C 372.185181,255.927673 355.068939,269.059235 339.000000,283.000000 C 303.915039,313.438293 269.328644,345.734497 243.000000,384.000000 C 215.364136,424.165405 196.219467,470.022522 180.000000,516.000000 C 173.275696,535.061462 168.987808,555.009277 166.000000,575.000000 C 161.358963,606.052185 159.795471,637.603577 160.000000,669.000000 C 160.084930,682.038147 164.550629,734.042419 166.000000,747.000000 C 167.273392,758.384216 169.425812,769.653442 171.000000,781.000000 C 173.124969,796.316528 175.592590,811.600952 177.000000,827.000000 C 177.577240,833.315796 177.833282,839.660095 178.000000,846.000000 C 178.035049,847.332886 179.316116,849.786438 178.000000,850.000000 C 176.699402,850.211060 173.230347,836.297302 173.000000,835.000000 C 170.055908,818.418579 169.410904,750.830444 170.000000,734.000000 C 170.937454,707.216736 173.360901,680.395081 178.000000,654.000000 C 186.452744,605.906372 197.742798,558.045044 214.000000,512.000000 C 230.486267,465.306152 252.686859,420.687622 276.000000,377.000000 C 287.411835,355.614807 299.702759,334.574066 314.000000,315.000000 C 340.486267,278.738159 367.947540,242.272415 402.000000,213.000000 C 433.349213,186.051392 469.399902,164.182312 507.000000,147.000000 C 525.701416,138.453918 545.650513,131.945496 566.000000,129.000000 C 604.269287,123.460686 644.155457,122.061974 682.000000,130.000000 C 714.298828,136.774796 745.051758,151.449921 773.000000,169.000000 C 784.604858,176.287277 795.087646,185.590958 804.000000,196.000000 C 831.668213,228.314789 856.076050,264.551208 872.000000,304.000000 C 884.235291,334.310760 888.648987,367.485138 892.000000,400.000000 C 892.393005,403.813141 892.066040,442.167236 892.000000,446.000000 C 891.666626,465.341949 891.877197,484.746460 890.000000,504.000000 C 888.984314,514.417480 886.411682,524.628784 885.000000,535.000000 C 884.592896,537.990906 884.414917,541.010193 884.000000,544.000000 C 883.721252,546.008362 883.167236,547.979309 883.000000,550.000000 C 882.945007,550.664368 883.648804,551.846802 883.000000,552.000000 C 882.637268,552.085632 881.132019,548.348511 881.000000,548.000000 C 879.166809,543.160889 878.690247,537.890869 877.000000,533.000000 C 876.948181,532.850037 874.062866,526.145691 874.000000,526.000000 C 870.686768,518.324646 868.266479,510.189301 864.000000,503.000000 C 862.060364,499.731598 859.710876,496.663757 857.000000,494.000000 C 855.811218,492.831879 854.521484,491.680298 853.000000,491.000000 C 851.448364,490.306244 849.655273,489.613922 848.000000,490.000000 C 842.675842,491.241852 838.568176,495.857910 835.000000,500.000000 C 828.280396,507.800415 824.067200,517.541748 820.000000,527.000000 C 802.466736,567.773438 789.573730,610.661438 780.000000,654.000000 C 769.993530,699.297546 765.777100,745.764343 762.000000,792.000000 C 761.185303,801.972351 760.128235,841.995239 760.000000,852.000000 C 759.444702,895.331055 757.822327,938.782043 761.000000,982.000000 C 761.617004,990.391968 766.710571,1023.684753 768.000000,1032.000000 C 770.435303,1047.704346 763.856384,1068.748779 776.000000,1079.000000 C 776.764160,1079.645020 778.456421,1079.839355 779.000000,1079.000000 C 784.758362,1070.108276 769.044250,1060.146606 766.000000,1050.000000 C 759.448853,1028.164795 746.351563,937.675171 744.000000,915.000000 C 742.666260,902.139160 737.496826,772.920288 737.000000,760.000000 C 736.192688,739.004944 735.333374,718.007935 735.000000,697.000000 C 734.513428,666.337219 735.000000,635.666687 735.000000,605.000000 C 735.000000,591.666687 734.874207,578.332764 735.000000,565.000000 C 735.166687,547.330994 735.833313,529.669006 736.000000,512.000000 C 736.078613,503.667053 736.000000,495.333344 736.000000,487.000000 C 736.000000,483.000000 736.000000,479.000000 736.000000,475.000000 C 736.000000,474.333344 736.661682,473.081451 736.000000,473.000000 C 735.914734,472.989502 735.019836,476.916412 735.000000,477.000000 C 731.842468,490.296906 728.770691,503.617126 726.000000,517.000000 C 723.455261,529.291443 720.414063,541.527771 719.000000,554.000000 C 715.129150,588.140503 713.730530,622.664246 715.000000,657.000000 C 716.313843,692.534729 720.917114,727.965088 727.000000,763.000000 C 729.987488,780.206848 734.086609,797.241150 739.000000,814.000000 C 747.453247,842.832642 757.813904,871.113647 769.000000,899.000000 C 775.942871,916.308228 784.379639,932.979187 792.000000,950.000000 C 794.682983,955.992737 797.197754,962.062134 800.000000,968.000000 C 802.226746,972.718445 805.189819,977.106567 807.000000,982.000000 C 807.476807,983.289001 806.630127,986.111084 808.000000,986.000000 C 809.000183,985.918884 809.010925,975.003418 809.000000,974.000000 C 808.861572,961.264099 806.280090,948.672180 805.000000,936.000000 C 803.956604,925.670959 802.944885,915.338501 802.000000,905.000000 C 799.168091,874.014648 794.751770,843.105408 794.000000,812.000000 C 793.355225,785.322388 794.193542,758.537415 797.000000,732.000000 C 798.423584,718.539124 800.710999,705.130310 804.000000,692.000000 C 810.223938,667.153015 817.085388,642.172852 828.000000,619.000000 C 838.915527,595.825134 853.856323,574.661377 869.000000,554.000000 C 875.711426,544.843262 883.010864,536.066101 891.000000,528.000000 C 906.799927,512.047791 922.814026,495.662323 942.000000,484.000000 C 954.271240,476.540833 968.023743,471.299347 982.000000,468.000000 C 985.906494,467.077789 989.987854,466.882111 994.000000,467.000000 C 998.712036,467.138458 1003.847351,466.768860 1008.000000,469.000000 C 1011.535828,470.899750 1014.248901,474.388245 1016.000000,478.000000 C 1026.782715,500.240112 1028.176147,526.297546 1029.000000,551.000000 C 1030.117798,584.515747 1025.543457,618.325073 1018.000000,651.000000 C 1009.556580,687.573181 992.533325,721.619141 980.000000,757.000000 C 972.924622,776.973450 966.536682,797.195984 959.000000,817.000000 C 950.281189,839.910095 940.333313,862.333313 931.000000,885.000000 C 928.666687,890.666687 926.214294,896.285767 924.000000,902.000000 C 922.590271,905.638000 922.095825,909.709167 920.000000,913.000000 C 919.493530,913.795227 918.933716,915.130798 918.000000,915.000000 C 916.300659,914.762024 913.573059,907.617432 913.000000,906.000000 C 908.818115,894.196716 901.539490,844.427185 900.000000,832.000000 C 897.740173,813.757690 897.563538,795.315125 896.000000,777.000000 C 893.094055,742.960815 890.765442,708.828979 886.000000,675.000000 C 884.203369,662.246155 881.784607,649.575195 879.000000,637.000000 C 874.979736,618.844666 871.691223,600.349487 865.000000,583.000000 C 859.312988,568.254272 851.808716,554.121887 843.000000,541.000000 C 840.692566,537.562744 829.814331,525.036194 827.000000,522.000000 C 810.495300,504.194397 792.105225,488.229492 775.000000,471.000000 C 755.401855,451.259430 735.799622,431.502502 717.000000,411.000000 C 710.133606,403.511658 703.731873,395.609497 697.000000,388.000000 C 694.028564,384.641174 682.008301,371.325836 679.000000,368.000000 C 675.675842,364.325012 672.419617,360.586334 669.000000,357.000000 C 667.698792,355.635315 666.235474,354.424500 665.000000,353.000000 C 663.908020,351.740906 662.876221,350.417755 662.000000,349.000000 C 661.608154,348.365967 660.688538,347.677155 661.000000,347.000000 C 661.574280,345.751373 663.633850,345.850037 665.000000,346.000000 C 668.334045,346.365997 680.254700,353.072968 683.000000,355.000000 C 698.438354,365.836761 711.675293,379.721344 724.000000,394.000000 C 735.723022,407.581604 746.910522,421.985992 755.000000,438.000000 C 772.585266,472.811890 787.413208,510.269226 792.000000,549.000000 C 794.282166,568.270386 785.470764,645.907898 782.000000,665.000000 C 778.470337,684.416138 772.717224,703.444031 766.000000,722.000000 C 761.835388,733.504395 711.149109,844.901306 706.000000,856.000000 C 686.235413,898.601868 664.366028,940.215515 645.000000,983.000000 C 637.979004,998.511108 632.080444,1014.515930 625.000000,1030.000000 C 617.436646,1046.540039 616.431702,1069.375000 601.000000,1079.000000 C 600.151489,1079.529175 598.000000,1079.000000 598.000000,1079.000000 C 598.000000,1079.000000 599.333313,1079.000000 600.000000,1079.000000 C 605.666687,1079.000000 611.333313,1079.000000 617.000000,1079.000000 C 636.000000,1079.000000 655.098755,1080.934814 674.000000,1079.000000 C 683.820068,1077.994751 693.845215,1076.692505 703.000000,1073.000000 C 726.757202,1063.417847 749.814575,1050.041992 768.000000,1032.000000 C 788.807922,1011.356140 849.448364,909.990234 863.000000,884.000000 C 877.166626,856.830261 887.768921,827.882751 898.000000,799.000000 C 906.944214,773.750122 936.845886,670.814209 944.000000,645.000000 C 947.951294,630.742493 951.115967,616.275940 955.000000,602.000000 C 959.736023,584.592712 962.648621,566.474243 970.000000,550.000000 C 972.562927,544.256592 975.465942,538.358643 980.000000,534.000000 C 981.937378,532.137573 984.490601,530.961914 987.000000,530.000000 C 998.782410,525.483643 1011.395935,521.400146 1024.000000,522.000000 C 1039.373779,522.731689 1054.716431,528.226013 1068.000000,536.000000 C 1073.902832,539.454529 1078.781860,544.616211 1083.000000,550.000000 C 1101.130493,573.141052 1117.487061,598.861877 1126.000000,627.000000 C 1135.875854,659.643188 1136.968140,695.025024 1134.000000,729.000000 C 1132.142456,750.262756 1125.747070,771.111877 1118.000000,791.000000 C 1099.759033,837.827637 1075.291260,882.464966 1047.000000,924.000000 C 1033.688599,943.542725 971.039429,1014.626221 955.000000,1032.000000 C 940.610535,1047.586670 929.489990,1068.625000 910.000000,1077.000000 C 908.544800,1077.625366 835.583740,1078.979126 834.000000,1079.000000 C 823.667542,1079.135986 813.333313,1079.000000 803.000000,1079.000000 C 800.333313,1079.000000 797.646667,1079.325806 795.000000,1079.000000 C 790.907776,1078.496216 785.845276,1078.984009 783.000000,1076.000000 C 774.203125,1066.774292 768.180359,1013.746277 768.000000,1001.000000 C 767.607727,973.273926 773.514954,945.398743 782.000000,919.000000 C 807.409485,839.945679 847.860474,765.952148 891.000000,695.000000 C 936.544800,620.091858 990.267578,549.973633 1048.000000,484.000000 C 1072.526611,455.972229 1099.004395,429.374542 1128.000000,406.000000 C 1184.932739,360.104065 1244.943115,316.372864 1311.000000,285.000000 C 1370.616211,256.686035 1435.225342,238.649826 1500.000000,226.000000 C 1523.636719,221.384003 1547.918457,220.276627 1572.000000,220.000000 C 1599.714966,219.681641 1628.349609,217.385712 1655.000000,225.000000 C 1663.748169,227.499435 1671.707275,232.559937 1679.000000,238.000000 C 1680.889282,239.409317 1682.525146,241.161423 1684.000000,243.000000 C 1686.719482,246.390167 1689.284180,250.006927 1691.000000,254.000000 C 1691.542603,255.262726 1691.523193,256.710999 1692.000000,258.000000 C 1692.258545,258.699066 1692.666626,259.333344 1693.000000,260.000000 C 1693.333374,260.666656 1694.359741,261.347229 1694.000000,262.000000 C 1692.382935,264.933838 1687.319214,262.546967 1684.000000,263.000000 C 1658.860352,266.431244 1633.866699,270.957642 1609.000000,276.000000 C 1580.155396,281.848969 1551.425171,288.369232 1523.000000,296.000000 C 1455.684814,314.070801 1389.146240,335.032745 1323.000000,357.000000 C 1246.350586,382.455383 1170.135498,409.372803 1095.000000,439.000000 C 1075.760864,446.586304 999.904480,479.614624 981.000000,488.000000 C 918.006714,515.941589 855.326294,544.600708 793.000000,574.000000 C 768.864868,585.384521 744.480347,596.319946 721.000000,609.000000 C 701.533752,619.512329 683.407227,632.379089 664.000000,643.000000 C 661.384644,644.431335 657.566284,649.536865 656.000000,647.000000 C 653.607483,643.124878 827.345398,518.717407 831.000000,516.000000 C 911.142212,456.408783 992.559937,398.524109 1072.000000,338.000000 C 1100.324829,316.419769 1128.513672,294.638550 1156.000000,272.000000 C 1180.810181,251.565567 1205.453491,230.878662 1229.000000,209.000000 C 1231.417358,206.753845 1233.448120,204.092056 1236.000000,202.000000 C 1236.929443,201.238037 1239.665771,201.000595 1239.000000,200.000000 C 1209.295776,155.358337 1150.315674,260.334381 1105.000000,289.000000 C 1069.490967,311.462219 1032.638550,331.743744 997.000000,354.000000 C 961.631653,376.087524 926.474731,398.542145 892.000000,422.000000 C 889.629333,423.613098 887.187927,425.146545 885.000000,427.000000 C 883.920898,427.914124 881.103394,428.906342 882.000000,430.000000 C 885.047852,433.717773 889.959900,424.605530 894.000000,422.000000 C 952.763855,384.102051 1012.008789,346.923553 1072.000000,311.000000 C 1147.199829,265.969299 1224.305664,224.194382 1300.000000,180.000000 C 1319.747314,168.470444 1338.927368,155.953552 1359.000000,145.000000 C 1360.308594,144.285919 1362.231812,141.722443 1363.000000,143.000000 C 1364.054565,144.753830 1284.704590,198.867615 1283.000000,200.000000 C 1247.093872,223.853058 1210.491211,246.724945 1173.000000,268.000000 C 1138.379395,287.646057 1102.068726,304.165558 1067.000000,323.000000 C 1063.976563,324.623779 1059.716431,330.971832 1058.000000,328.000000 C 1056.055786,324.633789 1064.671997,324.008881 1068.000000,322.000000 C 1150.466553,272.220062 1231.458374,219.953918 1315.000000,172.000000 C 1316.972656,170.867661 1360.998657,147.080856 1363.000000,146.000000 C 1367.330444,143.661285 1373.435425,134.799362 1376.000000,139.000000 C 1376.421509,139.690506 1360.686768,149.572357 1360.000000,150.000000 C 1320.410034,174.653000 1156.986328,264.745544 1116.000000,287.000000 C 1082.587158,305.142242 1047.144653,319.695374 1015.000000,340.000000 C 1013.590881,340.890076 1012.417725,342.123779 1011.000000,343.000000 C 1010.365967,343.391846 1008.734009,343.303741 1009.000000,344.000000 C 1009.169556,344.443787 1019.551758,341.157410 1020.000000,341.000000 C 1034.226563,336.003540 1089.260010,311.210907 1103.000000,305.000000 C 1137.240723,289.522003 1170.115112,270.965729 1205.000000,257.000000 C 1208.914307,255.432938 1215.386475,249.104584 1217.000000,253.000000 C 1219.567139,259.197571 1204.880493,258.771942 1199.000000,262.000000 C 1197.296143,262.935303 1195.765869,264.187836 1194.000000,265.000000 C 1193.042358,265.440460 1190.831177,264.959534 1191.000000,266.000000 C 1191.106812,266.658051 1192.649536,266.567108 1193.000000,266.000000 C 1193.195923,265.682983 1192.217896,264.302338 1192.000000,264.000000 C 1191.448730,263.235168 1190.666626,262.666656 1190.000000,262.000000 C 1188.333374,260.333344 1186.610229,258.721222 1185.000000,257.000000 C 1182.579224,254.412460 1180.420776,251.587540 1178.000000,249.000000 C 1176.711792,247.623032 1175.275146,246.389099 1174.000000,245.000000 C 1171.200439,241.950195 1160.626587,229.199951 1158.000000,226.000000 C 1153.937378,221.050705 1150.000000,216.000000 1146.000000,211.000000 C 1144.666626,209.333328 1143.259766,207.722900 1142.000000,206.000000 C 1141.290649,205.029846 1141.019531,202.363586 1140.000000,203.000000 C 1139.508911,203.306519 1146.676758,214.519806 1147.000000,215.000000 C 1156.754395,229.491043 1200.059570,284.382111 1211.000000,298.000000 C 1224.338257,314.602600 1238.468384,330.554596 1252.000000,347.000000 C 1281.967896,383.420929 1314.380127,418.064972 1341.000000,457.000000 C 1365.268311,492.495575 1386.532715,530.168945 1405.000000,569.000000 C 1411.752930,583.199341 1418.050659,597.780762 1422.000000,613.000000 C 1430.454224,645.579346 1437.069580,679.358582 1436.000000,713.000000 C 1435.210571,737.829163 1428.387329,762.282104 1421.000000,786.000000 C 1417.446655,797.408386 1412.984009,808.657410 1407.000000,819.000000 C 1403.127075,825.693787 1383.951660,850.059753 1379.000000,856.000000 C 1377.262817,858.084045 1369.876343,866.040283 1368.000000,868.000000 C 1367.021973,869.021484 1365.926636,869.931641 1365.000000,871.000000 C 1363.907959,872.259094 1362.929932,873.616943 1362.000000,875.000000 C 1360.915405,876.612915 1359.518799,878.126892 1359.000000,880.000000 C 1358.288208,882.569885 1359.000000,885.333313 1359.000000,888.000000 C 1359.000000,891.000000 1358.310791,894.080261 1359.000000,897.000000 C 1359.342529,898.450806 1360.372803,899.647644 1361.000000,901.000000 C 1362.068115,903.302979 1362.931885,905.697021 1364.000000,908.000000 C 1364.313599,908.676147 1364.264282,909.880615 1365.000000,910.000000 C 1365.465332,910.075500 1366.786133,908.420105 1367.000000,908.000000 C 1367.727417,906.571594 1372.772461,871.586731 1373.000000,870.000000 C 1374.479248,859.686523 1376.220215,849.389771 1377.000000,839.000000 C 1379.320679,808.079773 1380.211548,776.983459 1379.000000,746.000000 C 1377.560181,709.178589 1373.254395,672.473022 1368.000000,636.000000 C 1365.436401,618.205322 1362.448853,600.419250 1358.000000,583.000000 C 1351.583130,557.874939 1343.605591,533.086853 1334.000000,509.000000 C 1330.990112,501.452271 1316.677246,472.246063 1313.000000,465.000000 C 1310.772705,460.611206 1308.869385,455.998627 1306.000000,452.000000 C 1302.012451,446.443237 1297.213745,441.426636 1292.000000,437.000000 C 1288.335327,433.888550 1283.924438,431.776611 1280.000000,429.000000 C 1278.639404,428.037384 1277.452881,426.816528 1276.000000,426.000000 C 1274.435181,425.120544 1272.486450,422.993652 1271.000000,424.000000 C 1270.171875,424.560638 1270.770264,429.026764 1271.000000,430.000000 C 1271.513794,432.176239 1273.017578,433.991302 1274.000000,436.000000 C 1277.733765,443.634216 1282.049683,451.030212 1285.000000,459.000000 C 1291.231812,475.834076 1296.291138,493.255035 1299.000000,511.000000 C 1299.629272,515.122253 1299.988525,531.830017 1300.000000,536.000000 C 1300.053345,555.344727 1302.397583,575.161621 1298.000000,594.000000 C 1295.422485,605.041382 1290.132935,615.463623 1284.000000,625.000000 C 1282.083374,627.980286 1279.820068,630.854614 1277.000000,633.000000 C 1269.050049,639.047852 1259.786499,643.999390 1250.000000,646.000000 C 1235.615723,648.940552 1220.243652,647.560059 1206.000000,644.000000 C 1198.478271,642.119995 1190.986328,638.926941 1185.000000,634.000000 C 1166.417358,618.705933 1151.534546,598.097900 1142.000000,576.000000 C 1138.244019,567.294739 1132.693481,529.455566 1132.000000,520.000000 C 1129.585205,487.073273 1128.526611,453.374298 1135.000000,421.000000 C 1138.392578,404.032990 1165.166992,339.896515 1172.000000,324.000000 C 1179.300659,307.015381 1187.604004,290.470764 1196.000000,274.000000 C 1210.969238,244.633942 1226.761597,215.683777 1243.000000,187.000000 C 1253.307739,168.792114 1263.372559,150.394867 1275.000000,133.000000 C 1275.926147,131.614380 1279.966187,126.307281 1281.000000,125.000000 C 1282.614868,122.957962 1284.575073,121.178810 1286.000000,119.000000 C 1286.407959,118.376205 1287.360474,117.652397 1287.000000,117.000000 "
       id="path0003"
       style="fill:none;stroke:white;stroke-opacity:1;stroke-width:4px" />
  </g>
</svg>
