<?xml version="1.0" encoding="UTF-8" standalone="no"?>
<!-- Created with Inkscape (http://www.inkscape.org/) -->

<svg
   xmlns:dc="http://purl.org/dc/elements/1.1/"
   xmlns:cc="http://creativecommons.org/ns#"
   xmlns:rdf="http://www.w3.org/1999/02/22-rdf-syntax-ns#"
   xmlns:svg="http://www.w3.org/2000/svg"
   xmlns="http://www.w3.org/2000/svg"
   version="1.1"
   width="1024"
   height="768"
   id="svg2">
  <defs
     id="defs4" />
  <metadata
     id="metadata7">
    <rdf:RDF>
      <cc:Work
         rdf:about="">
        <dc:format>image/svg+xml</dc:format>
        <dc:type
           rdf:resource="http://purl.org/dc/dcmitype/StillImage" />
        <dc:title></dc:title>
      </cc:Work>
    </rdf:RDF>
  </metadata>
  <path
     d="m 954,92 c -0.75,0.333328 -1.5,0.666664 -2,1 -0.5,0.333336 -0.66669,0.833336 -1,1 -0.33331,0.166664 -0.66669,0 -1,0 -0.33331,0 -0.66669,-0.166664 -1,0 -0.33331,0.166664 -0.66669,0.833336 -1,1 -0.33331,0.166664 -0.66669,-0.166664 -1,0 -0.33331,0.166664 -0.66669,0.833336 -1,1 -0.33331,0.166664 -0.66669,0 -1,0 -0.33331,0 -0.66669,-0.166664 -1,0 -0.33331,0.166664 -0.66669,0.833336 -1,1 -0.33331,0.166664 -0.66669,0 -1,0 -0.33331,0 -0.66669,0 -1,0 -0.33331,0 -0.66669,-0.166664 -1,0 -0.33331,0.166664 -0.66669,0.833336 -1,1 -0.33331,0.166664 -0.66669,0 -1,0 -0.33331,0 -0.66669,-0.166664 -1,0 -0.33331,0.166664 -1,1.166664 -1,1 0,-0.166664 0.66669,-1.5 1,-2 0.33331,-0.5 0.66669,-0.666664 1,-1 0.33331,-0.333336 0.66669,-0.666664 1,-1 0.33331,-0.333336 0.66669,-0.666664 1,-1 0.33331,-0.333336 0.83331,-0.666664 1,-1 0.16669,-0.333336 -0.16669,-0.666664 0,-1 0.16669,-0.333336 0.83331,-0.666664 1,-1 0.16669,-0.333336 0,-0.666664 0,-1 0,-0.333336 0,-0.666664 0,-1 0,-0.333336 -0.16669,-0.833336 0,-1 0.16669,-0.166664 0.83331,0.333336 1,0 0.16669,-0.333336 0,-1.5 0,-2 0,-0.5 0,-0.666664 0,-1 0,-0.333336 -0.16669,-0.666664 0,-1 0.16669,-0.333336 0.83331,-0.666664 1,-1 0.16669,-0.333336 0.16669,-1 0,-1 -0.16669,0 -0.66669,0.5 -1,1 -0.33331,0.5 -0.5,1.166664 -1,2 -0.5,0.833336 -1.33331,2.166664 -2,3 -0.66669,0.833336 -1.5,1.5 -2,2 -0.5,0.5 -0.5,0.5 -1,1 -0.5,0.5 -1.5,1.666664 -2,2 -0.5,0.333336 -0.66669,0 -1,0 -0.33331,0 -0.66669,0 -1,0 -0.33331,0 -0.83331,0.166664 -1,0 -0.16669,-0.166664 0,-0.666664 0,-1 0,-0.333336 0,-0.666664 0,-1 0,-0.333336 -0.16669,-0.666664 0,-1 0.16669,-0.333336 0.66669,-0.5 1,-1 0.33331,-0.5 0.5,-1.333336 1,-2 0.5,-0.666664 1.33331,-1.166664 2,-2 0.66669,-0.833336 1.5,-2 2,-3 0.5,-1 0.83331,-2.166664 1,-3 0.16669,-0.833336 0,-1.333336 0,-2 0,-0.666664 0,-1.5 0,-2 0,-0.5 0.16669,-0.5 0,-1 -0.16669,-0.5 -0.83331,-1.5 -1,-2 -0.16669,-0.5 0,-0.666664 0,-1 0,-0.333336 0.16669,-0.833336 0,-1 -0.16669,-0.166664 -0.66669,-0.333336 -1,0 -0.33331,0.333336 -0.5,1.166664 -1,2 -0.5,0.833336 -1.5,2 -2,3 -0.5,1 -0.5,2.166664 -1,3 -0.5,0.833336 -1.5,1.333336 -2,2 -0.5,0.666664 -0.66669,1.166664 -1,2 -0.33331,0.833336 -0.66669,2 -1,3 -0.33331,1 -0.66669,2.166664 -1,3 -0.33331,0.833336 -0.66669,1.333336 -1,2 -0.33331,0.666664 -0.66669,1.333336 -1,2 -0.33331,0.666664 -0.66669,1.5 -1,2 -0.33331,0.5 -0.66669,0.666664 -1,1 -0.33331,0.333336 -0.83331,0.5 -1,1 -0.16669,0.5 0.16669,1.5 0,2 -0.16669,0.5 -0.66669,0.666664 -1,1 -0.33331,0.333336 -0.66669,0.666664 -1,1 -0.33331,0.33334 -0.66669,0.66666 -1,1 -0.33331,0.33334 -0.83331,0.66666 -1,1 -0.16669,0.33334 0.16669,0.83334 0,1 -0.16669,0.16666 -0.66669,-0.33334 -1,0 -0.33331,0.33334 -0.66669,1.66666 -1,2 -0.33331,0.33334 -0.66669,-0.16666 -1,0 -0.33331,0.16666 -0.66669,0.66666 -1,1 -0.33331,0.33334 -0.66669,0.66666 -1,1 -0.33331,0.33334 -0.66669,0.66666 -1,1 -0.33331,0.33334 -0.66669,0.66666 -1,1 -0.33331,0.33334 -0.66669,0.66666 -1,1 -0.33331,0.33334 -0.66669,0.83334 -1,1 -0.33331,0.16666 -0.66669,-0.16666 -1,0 -0.33331,0.16666 -0.66669,0.83334 -1,1 -0.33331,0.16666 -0.83331,-0.16666 -1,0 -0.16669,0.16666 0.16669,0.83334 0,1 -0.16669,0.16666 -0.83331,-0.16666 -1,0 -0.16669,0.16666 0.33331,0.83334 0,1 -0.33331,0.16666 -1.5,-0.16666 -2,0 -0.5,0.16666 -0.66669,0.66666 -1,1 -0.33331,0.33334 -0.5,0.66666 -1,1 -0.5,0.33334 -1.5,0.66666 -2,1 -0.5,0.33334 -0.5,0.66666 -1,1 -0.5,0.33334 -1.5,0.66666 -2,1 -0.5,0.33334 -0.66669,0.83334 -1,1 -0.33331,0.16666 -0.5,-0.16666 -1,0 -0.5,0.16666 -1.5,0.66666 -2,1 -0.5,0.33334 -0.66669,0.83334 -1,1 -0.33331,0.16666 -0.66669,0 -1,0 -0.33331,0 -0.66669,-0.16666 -1,0 -0.33331,0.16666 -0.66669,0.83334 -1,1 -0.33331,0.16666 -0.66669,-0.16666 -1,0 -0.33331,0.16666 -0.5,0.83334 -1,1 -0.5,0.16666 -1.33331,-0.16666 -2,0 -0.66669,0.16666 -1.5,0.66666 -2,1 -0.5,0.33334 -0.66669,0.83334 -1,1 -0.33331,0.16666 -0.66669,0 -1,0 -0.33331,0 -0.66669,-0.16666 -1,0 -0.33331,0.16666 -0.66669,0.83334 -1,1 -0.33331,0.16666 -0.66669,0 -1,0 -0.33331,0 -0.66669,-0.16666 -1,0 -0.33331,0.16666 -0.66669,0.83334 -1,1 -0.33331,0.16667 -0.66669,-0.16666 -1,0 -0.33331,0.16667 -0.66669,0.83333 -1,1 -0.33331,0.16667 -0.66669,-0.16667 -1,0 -0.33331,0.16667 -0.66669,0.83333 -1,1 -0.33331,0.16667 -0.83331,-0.16667 -1,0 -0.16669,0.16667 0.16669,0.83333 0,1 -0.16669,0.16667 -0.66669,-0.16667 -1,0 -0.33331,0.16667 -0.66669,0.83333 -1,1 -0.33331,0.16667 -0.66669,-0.16667 -1,0 -0.33331,0.16667 -0.5,0.66667 -1,1 -0.5,0.33333 -1.5,0.66667 -2,1 -0.5,0.33333 -0.66669,0.83333 -1,1 -0.33331,0.16667 -0.66669,-0.16667 -1,0 -0.33331,0.16667 -0.66669,0.83333 -1,1 -0.33331,0.16667 -0.66669,-0.16667 -1,0 -0.33331,0.16667 -0.66669,0.66667 -1,1 -0.33331,0.33333 -0.66669,0.66667 -1,1 -0.33331,0.33333 -0.66669,0.66667 -1,1 -0.33331,0.33333 -0.66669,0.83333 -1,1 -0.33331,0.16667 -0.66669,-0.16667 -1,0 -0.33331,0.16667 -0.66669,0.66667 -1,1 -0.33331,0.33333 -0.66669,0.66667 -1,1 -0.33331,0.33333 -0.5,0.66667 -1,1 -0.5,0.33333 -1.5,0.5 -2,1 -0.5,0.5 -0.66669,1.66667 -1,2 -0.33331,0.33333 -0.5,-0.33333 -1,0 -0.5,0.33333 -1.5,1.5 -2,2 -0.5,0.5 -0.5,0.66667 -1,1 -0.5,0.33333 -1.5,0.5 -2,1 -0.5,0.5 -0.5,1.5 -1,2 -0.5,0.5 -1.5,0.5 -2,1 -0.5,0.5 -0.66669,1.5 -1,2 -0.33331,0.5 -0.33331,0.66667 -1,1 -0.66669,0.33333 -2.33331,0.66667 -3,1 -0.66669,0.33333 -0.66669,0.66667 -1,1 -0.33331,0.33333 -0.5,0.66667 -1,1 -0.5,0.33333 -1.5,0.66667 -2,1 -0.5,0.33333 -0.83331,1 -1,1 -0.16669,0 -0.16669,-0.83333 0,-1 0.16669,-0.16667 0.83331,0.16667 1,0 0.16669,-0.16667 -0.16669,-0.5 0,-1 0.16669,-0.5 0.66669,-1.5 1,-2 0.33331,-0.5 0.83331,-0.5 1,-1 0.16669,-0.5 -0.16669,-1.16667 0,-2 0.16669,-0.83333 0.66669,-2.16667 1,-3 0.33331,-0.83333 0.5,-1.16667 1,-2 0.5,-0.83333 1.5,-2.16667 2,-3 0.5,-0.83333 0.66669,-1.5 1,-2 0.33331,-0.5 0.66669,-0.5 1,-1 0.33331,-0.5 0.66669,-1.33333 1,-2 0.33331,-0.66667 0.66669,-1.5 1,-2 0.33331,-0.5 0.66669,-0.5 1,-1 0.33331,-0.5 0.66669,-1.33333 1,-2 0.33331,-0.66667 0.66669,-1.33333 1,-2 0.33331,-0.66667 0.66669,-1.33333 1,-2 0.33331,-0.66667 0.66669,-1.5 1,-2 0.33331,-0.5 0.83331,-0.5 1,-1 0.16669,-0.5 -0.16669,-1.33334 0,-2 0.16669,-0.66666 0.5,-1.33334 1,-2 0.5,-0.66666 1.5,-1.33334 2,-2 0.5,-0.66666 0.83331,-1.33334 1,-2 0.16669,-0.66666 0,-1.5 0,-2 0,-0.5 0.16669,-1.16666 0,-1 -0.16669,0.16666 -0.33331,1.16666 -1,2 -0.66669,0.83334 -2.16669,2 -3,3 -0.83331,1 -1.16669,1.66666 -2,3 -0.83331,1.33334 -1.83331,3.5 -3,5 -1.16669,1.5 -3,3 -4,4 -1,1 -1,1.16667 -2,2 -1,0.83333 -3.16669,2.33333 -4,3 -0.83331,0.66667 -0.83331,1 -1,1 -0.16669,0 -0.16669,-0.83333 0,-1 0.16669,-0.16667 0.66669,0.5 1,0 0.33331,-0.5 0.5,-2.33333 1,-3 0.5,-0.66667 1.5,-0.5 2,-1 0.5,-0.5 0.33331,-1.16667 1,-2 0.66669,-0.83333 2.5,-2.16667 3,-3 0.5,-0.83333 -0.16669,-1.5 0,-2 0.16669,-0.5 0.83331,-0.66667 1,-1 0.16669,-0.33334 0.16669,-0.83334 0,-1 -0.16669,-0.16666 -0.66669,-0.16666 -1,0 -0.33331,0.16666 -0.33331,0.33334 -1,1 -0.66669,0.66667 -1.83331,2 -3,3 -1.16669,1 -3,2.16667 -4,3 -1,0.83333 -1.33331,1.33333 -2,2 -0.66669,0.66667 -1.5,1.5 -2,2 -0.5,0.5 -1,1 -1,1 0,0 0.66669,-0.66667 1,-1 0.33331,-0.33333 0.66669,-0.5 1,-1 0.33331,-0.5 0.5,-1.16667 1,-2 0.5,-0.83333 1.66669,-2.33333 2,-3 0.33331,-0.66667 0.33331,-1.16667 0,-1 -0.33331,0.16667 -1,1 -2,2 -1,1 -2.66669,2.66667 -4,4 -1.33331,1.33333 -2.83331,2.83333 -4,4 -1.16669,1.16667 -1.83331,1.83333 -3,3 -1.16669,1.16667 -2.83331,2.83333 -4,4 -1.16669,1.16667 -2.33331,2.33333 -3,3 -0.66669,0.66667 -0.83331,1 -1,1 -0.16669,0 -0.16669,-0.5 0,-1 0.16669,-0.5 0.5,-1.16667 1,-2 0.5,-0.83333 1,-1.66667 2,-3 1,-1.33333 3,-3.83333 4,-5 1,-1.16667 1.5,-1.33333 2,-2 0.5,-0.66667 0.83331,-1.33333 1,-2 0.16669,-0.66667 0.16669,-1.5 0,-2 -0.16669,-0.5 -0.5,-1 -1,-1 -0.5,0 -0.83331,0.16667 -2,1 -1.16669,0.83333 -3.66669,2.83333 -5,4 -1.33331,1.16667 -1.83331,1.66667 -3,3 -1.16669,1.33333 -2.66669,3.5 -4,5 -1.33331,1.5 -3.16669,3 -4,4 -0.83331,1 -0.66669,1.33333 -1,2 -0.33331,0.66667 -0.66669,1.33333 -1,2 -0.33331,0.66667 -0.83331,1.5 -1,2 -0.16669,0.5 0.16669,0.83333 0,1 -0.16669,0.16667 -1,0 -1,0 0,0 0.83331,0.16667 1,0 0.16669,-0.16667 -0.16669,-0.33333 0,-1 0.16669,-0.66667 0.83331,-2.33333 1,-3 0.16669,-0.66667 0,-0.66667 0,-1 0,-0.33333 0.16669,-0.83333 0,-1 -0.16669,-0.16667 -0.66669,-0.16667 -1,0 -0.33331,0.16667 -0.33331,0.33333 -1,1 -0.66669,0.66667 -2,2 -3,3 -1,1 -2.16669,2.33333 -3,3 -0.83331,0.66667 -1.16669,0.5 -2,1 -0.83331,0.5 -2,1.5 -3,2 -1,0.5 -2.16669,0.66667 -3,1 -0.83331,0.33333 -1.33331,0.66667 -2,1 -0.66669,0.33333 -1.5,0.66667 -2,1 -0.5,0.33333 -0.66669,0.66667 -1,1 -0.33331,0.33333 -0.5,0.5 -1,1 -0.5,0.5 -1.66669,1.5 -2,2 -0.33331,0.5 0.33331,0.66667 0,1 -0.33331,0.33333 -1.33331,0.5 -2,1 -0.66669,0.5 -1.5,1.5 -2,2 -0.5,0.5 -0.5,0.66667 -1,1 -0.5,0.33333 -1.5,0.5 -2,1 -0.5,0.5 -0.66669,1.66667 -1,2 -0.33331,0.33333 -0.66669,-0.16667 -1,0 -0.33331,0.16667 -0.83331,0.66667 -1,1 -0.16669,0.33333 0.16669,0.66667 0,1 -0.16669,0.33333 -0.66669,0.66667 -1,1 -0.33331,0.33333 -0.66669,0.66667 -1,1 -0.33331,0.33333 -0.66669,0.66667 -1,1 -0.33331,0.33333 -0.66669,0.66667 -1,1 -0.33331,0.33333 -0.66669,0.66667 -1,1 -0.33331,0.33333 -0.83331,0.66667 -1,1 -0.16669,0.33333 0.16669,0.66667 0,1 -0.16669,0.33333 -0.66669,0.5 -1,1 -0.33331,0.5 -0.83331,1.5 -1,2 -0.16669,0.5 0.16669,0.66667 0,1 -0.16669,0.33333 -0.66669,0.66667 -1,1 -0.33331,0.33333 -0.83331,0.66667 -1,1 -0.16669,0.33333 0.16669,0.66667 0,1 -0.16669,0.33333 -0.66669,0.66667 -1,1 -0.33331,0.33333 -0.83331,0.66667 -1,1 -0.16669,0.33333 0.16669,0.66667 0,1 -0.16669,0.33333 -0.66669,0.66667 -1,1 -0.33331,0.33333 -0.66669,0.66667 -1,1 -0.33331,0.33333 -0.66669,0.66667 -1,1 -0.33331,0.33333 -0.66669,0.5 -1,1 -0.33331,0.5 -0.66669,1.5 -1,2 -0.33331,0.5 -0.66669,0.66667 -1,1 -0.33331,0.33333 -0.66669,0.83333 -1,1 -0.33331,0.16667 -0.66669,-0.16667 -1,0 -0.33331,0.16667 -0.66669,0.66667 -1,1 -0.33331,0.33333 -0.83331,0.66667 -1,1 -0.16669,0.33333 0.16669,0.66667 0,1 -0.16669,0.33333 -0.83331,0.66667 -1,1 -0.16669,0.33333 0.33331,0.5 0,1 -0.33331,0.5 -1.66669,1.5 -2,2 -0.33331,0.5 0.16669,0.66667 0,1 -0.16669,0.33333 -0.66669,0.66667 -1,1 -0.33331,0.33333 -0.66669,0.66667 -1,1 -0.33331,0.33333 -0.66669,0.66667 -1,1 -0.33331,0.33333 -0.83331,0.66667 -1,1 -0.16669,0.33333 0.16669,0.5 0,1 -0.16669,0.5 -0.66669,1.5 -1,2 -0.33331,0.5 -0.66669,0.66667 -1,1 -0.33331,0.33333 -0.66669,0.33333 -1,1 -0.33331,0.66667 -0.66669,2.33333 -1,3 -0.33331,0.66667 -0.66669,0.5 -1,1 -0.33331,0.5 -0.5,1.16667 -1,2 -0.5,0.83333 -1.5,2.33333 -2,3 -0.5,0.66667 -0.5,0.33333 -1,1 -0.5,0.66667 -1.33331,2.16667 -2,3 -0.66669,0.83333 -1.5,1.16667 -2,2 -0.5,0.83333 -0.66669,2.33333 -1,3 -0.33331,0.66667 -0.66669,0.66667 -1,1 -0.33331,0.33333 -0.5,0.5 -1,1 -0.5,0.5 -1.5,1.5 -2,2 -0.5,0.5 -0.5,0.5 -1,1 -0.5,0.5 -1.33331,1.5 -2,2 -0.66669,0.5 -1.66669,0.66667 -2,1 -0.33331,0.33333 0.16669,0.83333 0,1 -0.16669,0.16667 -0.83331,-0.16667 -1,0 -0.16669,0.16667 -0.16669,1 0,1 0.16669,0 0.83331,-0.66667 1,-1 0.16669,-0.33333 -0.33331,-0.66667 0,-1 0.33331,-0.33333 1.66669,-0.66667 2,-1 0.33331,-0.33333 -0.16669,-0.66667 0,-1 0.16669,-0.33333 0.66669,-0.83333 1,-1 0.33331,-0.16667 0.83331,0.16667 1,0 0.16669,-0.16667 -0.16669,-0.66667 0,-1 0.16669,-0.33333 0.66669,-0.66667 1,-1 0.33331,-0.33333 0.66669,-0.83333 1,-1 0.33331,-0.16667 0.83331,0.16667 1,0 0.16669,-0.16667 -0.16669,-0.83333 0,-1 0.16669,-0.16667 0.66669,0 1,0 0.33331,0 0.66669,0 1,0 0.33331,0 0.66669,0.16667 1,0 0.33331,-0.16667 0.66669,-0.83333 1,-1 0.33331,-0.16667 0.66669,0 1,0 0.33331,0 0.66669,0 1,0 0.33331,0 0.66669,0.16667 1,0 0.33331,-0.16667 0.66669,-0.83333 1,-1 0.33331,-0.16667 0.66669,0.16667 1,0 0.33331,-0.16667 0.66669,-0.83333 1,-1 0.33331,-0.16667 0.66669,0 1,0 0.33331,0 0.66669,0 1,0 0.33331,0 0.83331,0.16667 1,0 0.16669,-0.16667 -0.16669,-0.83333 0,-1 0.16669,-0.16667 0.66669,0 1,0 0.33331,0 0.83331,0.16667 1,0 0.16669,-0.16667 -0.16669,-0.83333 0,-1 0.16669,-0.16667 0.66669,0 1,0 0.33331,0 0.83331,0.16667 1,0 0.16669,-0.16667 -0.16669,-0.83333 0,-1 0.16669,-0.16667 0.83331,0.16667 1,0 0.16669,-0.16667 -0.16669,-0.83333 0,-1 0.16669,-0.16667 0.66669,0 1,0 0.33331,0 0.83331,0.16667 1,0 0.16669,-0.16667 -0.16669,-0.83333 0,-1 0.16669,-0.16667 0.66669,0.16667 1,0 0.33331,-0.16667 0.66669,-0.66667 1,-1 0.33331,-0.33333 0.66669,-0.66667 1,-1 0.33331,-0.33333 0.66669,-0.66667 1,-1 0.33331,-0.33333 0.66669,-0.66667 1,-1 0.33331,-0.33333 0.66669,-0.66667 1,-1 0.33331,-0.33333 0.83331,-0.66667 1,-1 0.16669,-0.33333 -0.16669,-0.83333 0,-1 0.16669,-0.16667 0.83331,0.16667 1,0 0.16669,-0.16667 -0.16669,-1 0,-1 0.16669,0 0.66669,0.83333 1,1 0.33331,0.16667 0.5,0 1,0 0.5,0 1.33331,0.16667 2,0 0.66669,-0.16667 1.33331,-0.66667 2,-1 0.66669,-0.33333 1.33331,-0.66667 2,-1 0.66669,-0.33333 1.5,-0.66667 2,-1 0.5,-0.33333 0.83331,-0.5 1,-1 0.16669,-0.5 0.16669,-1.5 0,-2 -0.16669,-0.5 -0.83331,-0.66667 -1,-1 -0.16669,-0.33333 0.16669,-0.66667 0,-1 -0.16669,-0.33333 -0.66669,-1 -1,-1 -0.33331,0 -0.66669,0.66667 -1,1 -0.33331,0.33333 -0.66669,0.66667 -1,1 -0.33331,0.33333 -1,0.83333 -1,1 0,0.16667 0.83331,0.16667 1,0 0.16669,-0.16667 -0.16669,-0.83333 0,-1 0.16669,-0.16667 0.83331,0.16667 1,0 0.16669,-0.16667 -0.16669,-0.83333 0,-1 0.16669,-0.16667 0.83331,-0.16667 1,0 0.16669,0.16667 -0.33331,0.83333 0,1 0.33331,0.16667 1.5,0.16667 2,0 0.5,-0.16667 0.66669,-0.83333 1,-1 0.33331,-0.16667 0.66669,0 1,0 0.33331,0 0.83331,0.16667 1,0 0.16669,-0.16667 0,-1 0,-1 0,0 0.16669,0.66667 0,1 -0.16669,0.33333 -0.83331,0.66667 -1,1 -0.16669,0.33333 0,0.66667 0,1 0,0.33333 -0.16669,0.66667 0,1 0.16669,0.33333 0.83331,0.66667 1,1 0.16669,0.33333 0.16669,0.66667 0,1 -0.16669,0.33333 -0.66669,0.66667 -1,1 -0.33331,0.33333 -0.66669,0.66667 -1,1 -0.33331,0.33333 -0.66669,0.83333 -1,1 -0.33331,0.16667 -0.83331,-0.16667 -1,0 -0.16669,0.16667 -0.16669,0.83333 0,1 0.16669,0.16667 0.83331,-0.16667 1,0 0.16669,0.16667 0.16669,0.83333 0,1 -0.16669,0.16667 -0.66669,-0.16667 -1,0 -0.33331,0.16667 -0.66669,0.83333 -1,1 -0.33331,0.16667 -0.5,-0.33333 -1,0 -0.5,0.33333 -1.5,1.5 -2,2 -0.5,0.5 -0.66669,0.66667 -1,1 -0.33331,0.33333 -0.66669,0.66667 -1,1 -0.33331,0.33333 -0.66669,0.83333 -1,1 -0.33331,0.16667 -0.83331,-0.16667 -1,0 -0.16669,0.16667 0.16669,0.83333 0,1 -0.16669,0.16667 -0.83331,-0.16667 -1,0 -0.16669,0.16667 0,0.66667 0,1 0,0.33333 0,0.66667 0,1 0,0.33333 0.16669,0.66667 0,1 -0.16669,0.33333 -0.83331,0.66667 -1,1 -0.16669,0.33333 0.16669,0.66667 0,1 -0.16669,0.33333 -0.83331,0.66667 -1,1 -0.16669,0.33333 0.16669,0.66667 0,1 -0.16669,0.33333 -0.66669,0.66667 -1,1 -0.33331,0.33333 -0.66669,0.5 -1,1 -0.33331,0.5 -0.66669,1.66667 -1,2 -0.33331,0.33333 -0.66669,-0.16667 -1,0 -0.33331,0.16667 -0.66669,0.83333 -1,1 -0.33331,0.16667 -0.66669,-0.16667 -1,0 -0.33331,0.16667 -0.5,0.5 -1,1 -0.5,0.5 -1.5,1.66667 -2,2 -0.5,0.33333 -0.83331,-0.16667 -1,0 -0.16669,0.16667 0.33331,0.5 0,1 -0.33331,0.5 -1.5,1.5 -2,2 -0.5,0.5 -0.66669,0.66667 -1,1 -0.33331,0.33333 -0.83331,0.66667 -1,1 -0.16669,0.33333 0.16669,0.83333 0,1 -0.16669,0.16667 -0.66669,-0.16667 -1,0 -0.33331,0.16667 -0.66669,0.66667 -1,1 -0.33331,0.33334 -0.83331,0.66666 -1,1 -0.16669,0.33334 0.16669,0.83334 0,1 -0.16669,0.16666 -0.66669,-0.16666 -1,0 -0.33331,0.16666 -1,0.83334 -1,1 0,0.16666 0.66669,0.16666 1,0 0.33331,-0.16666 0.66669,-0.66666 1,-1 0.33331,-0.33334 0.83331,-0.66666 1,-1 0.16669,-0.33334 -0.16669,-0.83334 0,-1 0.16669,-0.16667 0.66669,0 1,0 0.33331,0 0.66669,0.16666 1,0 0.33331,-0.16667 0.66669,-0.66667 1,-1 0.33331,-0.33333 0.33331,-0.66667 1,-1 0.66669,-0.33333 2.33331,-0.66667 3,-1 0.66669,-0.33333 0.5,-0.66667 1,-1 0.5,-0.33333 1.5,-0.83333 2,-1 0.5,-0.16667 0.66669,0.16667 1,0 0.33331,-0.16667 0.66669,-0.83333 1,-1 0.33331,-0.16667 0.66669,0.16667 1,0 0.33331,-0.16667 0.66669,-0.83333 1,-1 0.33331,-0.16667 0.83331,0.16667 1,0 0.16669,-0.16667 -0.16669,-0.83333 0,-1 0.16669,-0.16667 0.66669,0 1,0 0.33331,0 0.83331,0.16667 1,0 0.16669,-0.16667 -0.16669,-0.83333 0,-1 0.16669,-0.16667 0.66669,0 1,0 0.33331,0 0.66669,0.16667 1,0 0.33331,-0.16667 0.66669,-0.66667 1,-1 0.33331,-0.33333 0.66669,-0.66667 1,-1 0.33331,-0.33333 0.66669,-0.83333 1,-1 0.33331,-0.16667 0.66669,0 1,0 0.33331,0 0.83331,0.16667 1,0 0.16669,-0.16667 -0.16669,-0.83333 0,-1 0.16669,-0.16667 0.66669,0.16667 1,0 0.33331,-0.16667 0.66669,-0.83333 1,-1 0.33331,-0.16667 0.66669,0 1,0 0.33331,0 0.66669,0.16667 1,0 0.33331,-0.16667 0.66669,-0.83333 1,-1 0.33331,-0.16667 0.66669,0.16667 1,0 0.33331,-0.16667 0.66669,-0.83333 1,-1 0.33331,-0.16667 0.66669,0.16667 1,0 0.33331,-0.16667 0.66669,-0.83333 1,-1 0.33331,-0.16667 0.83331,0.16667 1,0 0.16669,-0.16667 -0.16669,-0.83333 0,-1 0.16669,-0.16667 0.66669,0.16667 1,0 0.33331,-0.16667 0.66669,-0.66667 1,-1 0.33331,-0.33333 0.66669,-0.66667 1,-1 0.33331,-0.33333 0.83331,-0.66667 1,-1 0.16669,-0.33333 -0.16669,-0.83333 0,-1 0.16669,-0.16667 0.5,0.16667 1,0 0.5,-0.16667 1.5,-0.5 2,-1 0.5,-0.5 0.66669,-1.5 1,-2 0.33331,-0.5 0.66669,-0.83333 1,-1 0.33331,-0.16667 0.66669,0.16667 1,0 0.33331,-0.16667 0.5,-0.66667 1,-1 0.5,-0.33333 1.5,-0.66667 2,-1 0.5,-0.33333 0.66669,-0.66667 1,-1 0.33331,-0.33333 0.5,-0.66667 1,-1 0.5,-0.33333 1.5,-0.66667 2,-1 0.5,-0.33333 0.5,-0.83333 1,-1 0.5,-0.16667 1.5,0.16667 2,0 0.5,-0.16667 0.66669,-0.83333 1,-1 0.33331,-0.16667 0.66669,0 1,0 0.33331,0 0.66669,0 1,0 0.33331,0 0.66669,0.16667 1,0 0.33331,-0.16667 0.66669,-0.83333 1,-1 0.33331,-0.16667 0.66669,0 1,0 0.33331,0 0.5,0 1,0 0.5,0 1.33331,0 2,0 0.66669,0 1.5,0 2,0 0.5,0 0.5,0 1,0 0.5,0 1.5,0 2,0 0.5,0 0.66669,0 1,0 0.33331,0 0.66669,0.16667 1,0 0.33331,-0.16667 0.66669,-0.83333 1,-1 0.33331,-0.16667 0.66669,0 1,0 0.33331,0 0.66669,-0.16667 1,0 0.33331,0.16667 0.66669,0.83333 1,1 0.33331,0.16667 0.66669,0 1,0 0.33331,0 0.66669,0 1,0 0.33331,0 0.66669,0 1,0 0.33331,0 0.66669,0 1,0 0.33331,0 0.66669,0 1,0 0.33331,0 0.5,0 1,0 0.5,0 1.5,0 2,0 0.5,0 0.66669,-0.16667 1,0 0.33331,0.16667 0.66669,0.83333 1,1 0.33331,0.16667 0.66669,0 1,0 0.33331,0 0.66669,0 1,0 0.33331,0 0.66669,0 1,0 0.33331,0 0.66669,0 1,0 0.33331,0 0.5,0 1,0 0.5,0 1.5,0 2,0 0.5,0 0.5,0 1,0 0.5,0 1.5,0 2,0 0.5,0 0.66669,0 1,0 0.33331,0 0.33331,0 1,0 0.66669,0 2,0.16667 3,0 1,-0.16667 2.33331,-0.83333 3,-1 0.66669,-0.16667 0.33331,0.16667 1,0 0.66669,-0.16667 2.16669,-0.83333 3,-1 0.83331,-0.16667 1.33331,0 2,0 0.66669,0 1.33331,0.16667 2,0 0.66669,-0.16667 1.33331,-0.83333 2,-1 0.66669,-0.16667 1.16669,0.16667 2,0 0.83331,-0.16667 2,-0.66667 3,-1 1,-0.33333 1.83331,-0.66667 3,-1 1.16669,-0.33333 3,-0.66667 4,-1 1,-0.33333 1.16669,-0.66667 2,-1 0.83331,-0.33333 1.83331,-0.66667 3,-1 1.16669,-0.33333 3,-0.66667 4,-1 1,-0.33333 1,-0.66667 2,-1 1,-0.33333 2.83331,-0.5 4,-1 1.16669,-0.5 2.16669,-1.5 3,-2 0.83331,-0.5 1,-0.5 2,-1 1,-0.5 2.83331,-1.5 4,-2 1.16669,-0.5 1.83331,-0.33333 3,-1 1.16669,-0.66667 3,-2.33333 4,-3 1,-0.66667 1.5,-0.66667 2,-1 0.5,-0.33333 0.66669,-0.83333 1,-1 0.33331,-0.16667 0.83331,0.16667 1,0 0.16669,-0.16667 -0.16669,-0.83333 0,-1 0.16669,-0.16667 1.16669,0 1,0 -0.16669,0 -1.16669,-0.16667 -2,0 -0.83331,0.16667 -2.16669,0.66667 -3,1 -0.83331,0.33333 -1.16669,0.66667 -2,1 -0.83331,0.33333 -2,0.5 -3,1 -1,0.5 -1.83331,1.5 -3,2 -1.16669,0.5 -3,0.66667 -4,1 -1,0.33333 -0.66669,0.5 -2,1 -1.33331,0.5 -4.5,1.5 -6,2 -1.5,0.5 -2.16669,0.66667 -3,1 -0.83331,0.33333 -1.33331,0.83333 -2,1 -0.66669,0.16667 -1.66669,-0.16667 -2,0 -0.33331,0.16667 0,1 0,1 0,0 -0.16669,-0.83333 0,-1 0.16669,-0.16667 0.66669,0.16667 1,0 0.33331,-0.16667 0.33331,-0.66667 1,-1 0.66669,-0.33333 2,-0.66667 3,-1 1,-0.33333 2.33331,-0.66667 3,-1 0.66669,-0.33333 0.5,-0.66667 1,-1 0.5,-0.33333 1.66669,-0.66667 2,-1 0.33331,-0.33333 0.16669,-0.83333 0,-1 -0.16669,-0.16667 -0.5,-0.16667 -1,0 -0.5,0.16667 -1.16669,0.66667 -2,1 -0.83331,0.33333 -2,0.5 -3,1 -1,0.5 -1.83331,1.33333 -3,2 -1.16669,0.66667 -2.83331,1.5 -4,2 -1.16669,0.5 -2.33331,0.66667 -3,1 -0.66669,0.33333 -0.66669,1 -1,1 -0.33331,0 -0.66669,-0.83333 -1,-1 -0.33331,-0.16667 -0.83331,0.16667 -1,0 -0.16669,-0.16667 -0.16669,-0.83333 0,-1 0.16669,-0.16667 0.83331,0.16667 1,0 0.16669,-0.16667 0,-1 0,-1 0,0 0.33331,0.66667 0,1 -0.33331,0.33333 -1.33331,0.66667 -2,1 -0.66669,0.33333 -1.16669,0.66667 -2,1 -0.83331,0.33333 -2,0.66667 -3,1 -1,0.33333 -2.16669,0.66667 -3,1 -0.83331,0.33333 -2,1 -2,1 0,0 1.33331,-0.66667 2,-1 0.66669,-0.33333 1.16669,-0.5 2,-1 0.83331,-0.5 2.16669,-1.5 3,-2 0.83331,-0.5 1.33331,-0.66667 2,-1 0.66669,-0.33333 1.5,-0.66667 2,-1 0.5,-0.33333 0.83331,-0.66667 1,-1 0.16669,-0.33333 0.33331,-1 0,-1 -0.33331,0 -1.33331,0.66667 -2,1 -0.66669,0.33333 -1.16669,0.5 -2,1 -0.83331,0.5 -1.33331,1.16667 -3,2 -1.66669,0.83333 -5.16669,2.33333 -7,3 -1.83331,0.66667 -3,0.83333 -4,1 -1,0.16667 -1.5,0 -2,0 -0.5,0 -0.83331,0.16667 -1,0 -0.16669,-0.16667 -0.16669,-0.66667 0,-1 0.16669,-0.33333 0.66669,-0.83333 1,-1 0.33331,-0.16667 0.66669,0.16667 1,0 0.33331,-0.16667 0.66669,-0.83333 1,-1 0.33331,-0.16667 0.66669,0.16667 1,0 0.33331,-0.16667 0.5,-0.66667 1,-1 0.5,-0.33333 1.33331,-0.66667 2,-1 0.66669,-0.33333 1.33331,-0.5 2,-1 0.66669,-0.5 1.5,-1.5 2,-2 0.5,-0.5 0.66669,-0.83333 1,-1 0.33331,-0.16667 1,0.16667 1,0 0,-0.16667 -0.33331,-1 -1,-1 -0.66669,0 -2.16669,0.83333 -3,1 -0.83331,0.16667 -0.83331,-0.16667 -2,0 -1.16669,0.16667 -3.66669,0.66667 -5,1 -1.33331,0.33333 -2,0.83333 -3,1 -1,0.16667 -2.33331,-0.16667 -3,0 -0.66669,0.16667 -0.5,0.83333 -1,1 -0.5,0.16667 -1.5,0 -2,0 -0.5,0 -0.5,0 -1,0 -0.5,0 -1.33331,-0.16667 -2,0 -0.66669,0.16667 -1.5,0.66667 -2,1 -0.5,0.33333 -0.83331,1 -1,1 -0.16669,0 -0.33331,-0.66667 0,-1 0.33331,-0.33333 1.33331,-0.83333 2,-1 0.66669,-0.16667 1.33331,0.16667 2,0 0.66669,-0.16667 1.33331,-0.66667 2,-1 0.66669,-0.33333 1.33331,-0.83333 2,-1 0.66669,-0.16667 1.33331,0.16667 2,0 0.66669,-0.16667 1.5,-0.66667 2,-1 0.5,-0.33333 0.66669,-0.66667 1,-1 0.33331,-0.33333 0.66669,-0.83333 1,-1 0.33331,-0.16667 1,0 1,0 0,0 -0.83331,0.16667 -1,0 -0.16669,-0.16667 -0.16669,-0.66667 0,-1 0.16669,-0.33333 0.83331,-0.66667 1,-1 0.16669,-0.33333 -0.16669,-0.66667 0,-1 0.16669,-0.33333 0.5,-0.66667 1,-1 0.5,-0.33333 1.5,-0.66667 2,-1 0.5,-0.33333 0.66669,-0.66667 1,-1 0.33331,-0.33333 0.66669,-0.66667 1,-1 0.33331,-0.33333 0.66669,-0.66667 1,-1 0.33331,-0.33333 0.83331,-0.66667 1,-1 0.16669,-0.33333 -0.16669,-0.66667 0,-1 0.16669,-0.33333 0.66669,-0.83333 1,-1 0.33331,-0.16667 0.83331,0.16667 1,0 0.16669,-0.16667 -0.16669,-0.83333 0,-1 0.16669,-0.16667 0.66669,0.33333 1,0 0.33331,-0.33333 0.66669,-1.5 1,-2 0.33331,-0.5 0.66669,-0.66667 1,-1 0.33331,-0.33333 0.66669,-0.66667 1,-1 0.33331,-0.33333 0.66669,-0.66667 1,-1 0.33331,-0.33333 0.66669,-0.66667 1,-1 0.33331,-0.33333 0.66669,-0.83333 1,-1 0.33331,-0.16667 0.66669,0.33333 1,0 0.33331,-0.33333 0.66669,-1.66667 1,-2 0.33331,-0.33333 0.66669,0.16667 1,0 0.33331,-0.16667 0.83331,-0.66667 1,-1 0.16669,-0.33333 -0.16669,-0.83333 0,-1 0.16669,-0.16667 0.66669,0.16667 1,0 0.33331,-0.16667 0.66669,-0.83333 1,-1 0.33331,-0.16667 0.66669,0 1,0 0.33331,0 0.66669,0 1,0 0.33331,0 0.5,0.16667 1,0 0.5,-0.16667 1.5,-0.66667 2,-1 0.5,-0.33333 0.66669,-0.83333 1,-1 0.33331,-0.16667 0.5,0.16667 1,0 0.5,-0.16667 1.33331,-0.83333 2,-1 0.66669,-0.16667 1.5,0 2,0 0.5,0 0.66669,0.16667 1,0 0.33331,-0.16667 0.5,-0.83333 1,-1 0.5,-0.16667 1.33331,0.16667 2,0 0.66669,-0.16667 1.5,-0.83333 2,-1 0.5,-0.16667 0.5,0.16667 1,0 0.5,-0.16667 1.5,-0.83333 2,-1 0.5,-0.16667 0.5,0.16667 1,0 0.5,-0.16667 1.33331,-0.83333 2,-1 0.66669,-0.16667 1.33331,0.16667 2,0 0.66669,-0.16667 1.33331,-0.66667 2,-1 0.66669,-0.33333 1.33331,-0.83333 2,-1 0.66669,-0.16667 1.5,0.16667 2,0 0.5,-0.16667 0.5,-0.83333 1,-1 0.5,-0.16667 1.5,0.16667 2,0 0.5,-0.16667 0.33331,-0.66667 1,-1 0.66669,-0.33333 2.16669,-0.83333 3,-1 0.83331,-0.16667 1.16669,0.16667 2,0 0.83331,-0.16667 2,-0.66667 3,-1 1,-0.33333 2.33331,-0.83333 3,-1 0.66669,-0.16667 0.5,0.16667 1,0 0.5,-0.16667 1.33331,-0.66667 2,-1 0.66669,-0.33333 1.33331,-0.66667 2,-1 0.66669,-0.33333 1.33331,-0.66667 2,-1 0.66669,-0.33333 1.5,-0.83333 2,-1 0.5,-0.16667 0.33331,0.16667 1,0 0.66669,-0.16667 2,-0.66667 3,-1 1,-0.33333 2,-0.66667 3,-1 1,-0.33333 2.16669,-0.66667 3,-1 0.83331,-0.33333 0.83331,-0.5 2,-1 1.16669,-0.5 3.83331,-1.66667 5,-2 1.16669,-0.33333 1.16669,0.16667 2,0 0.83331,-0.16667 2,-0.5 3,-1 1,-0.5 2.33331,-1.5 3,-2 0.66669,-0.5 0.16669,-0.5 1,-1 0.83331,-0.5 2.66669,-1.16667 4,-2 1.33331,-0.83333 2.66669,-2 4,-3 1.33331,-1 3,-2.16667 4,-3 1,-0.83333 1.16669,-1.33333 2,-2 0.83331,-0.66667 2,-1.16667 3,-2 1,-0.83333 2,-2.33333 3,-3 1,-0.66667 2,-0.33333 3,-1 1,-0.66667 2,-2.16667 3,-3 1,-0.83333 2.33331,-1.66667 3,-2 0.66669,-0.33333 1,0.16667 1,0 0,-0.16667 -0.5,-1 -1,-1 -0.5,0 -1.33331,0.66667 -2,1 -0.66669,0.33333 -1.16669,0.66667 -2,1 -0.83331,0.33333 -1.66669,0.33333 -3,1 -1.33331,0.66667 -3.83331,2.33333 -5,3 -1.16669,0.66667 -0.83331,0.5 -2,1 -1.16669,0.5 -3.33331,1.33333 -5,2 -1.66669,0.66667 -3.5,1.5 -5,2 -1.5,0.5 -2.33331,0.5 -4,1 -1.66669,0.5 -4.33331,1.33333 -6,2 -1.66669,0.66667 -3.16669,1.66667 -4,2 -0.83331,0.33333 -0.83331,-0.16667 -1,0 -0.16669,0.16667 -0.16669,1 0,1 0.16669,0 0.66669,-0.66667 1,-1 0.33331,-0.33333 0.66669,-0.66667 1,-1 0.33331,-0.33333 0.33331,-0.5 1,-1 0.66669,-0.5 2.33331,-1.5 3,-2 0.66669,-0.5 0.5,-0.66667 1,-1 0.5,-0.33333 1.83331,-0.83333 2,-1 0.16669,-0.16667 -0.66669,0 -1,0 -0.33331,0 0.16669,-0.5 -1,0 -1.16669,0.5 -3.66669,2 -6,3 -2.33331,1 -5.83331,2.16667 -8,3 -2.16669,0.83333 -3.16669,1.5 -5,2 -1.83331,0.5 -5.16669,1 -6,1 -0.83331,0 0.16669,-0.33333 1,-1 0.83331,-0.66667 2.83331,-2.16667 4,-3 1.16669,-0.83333 1.83331,-1.16667 3,-2 1.16669,-0.83333 3.16669,-2.33333 4,-3 0.83331,-0.66667 0.83331,-1 1,-1 0.16669,0 0.5,0.66667 0,1 -0.5,0.33333 -1.5,0.5 -3,1 -1.5,0.5 -4.5,1.5 -6,2 -1.5,0.5 -2,0.66667 -3,1 -1,0.33333 -2.33331,0.83333 -3,1 -0.66669,0.16667 -1,0 -1,0 0,0 0.66669,0.16667 1,0 0.33331,-0.16667 0.33331,-0.5 1,-1 0.66669,-0.5 2,-1.5 3,-2 1,-0.5 2.16669,-0.66667 3,-1 0.83331,-0.33333 1.33331,-0.66667 2,-1 0.66669,-0.33333 1,-0.33333 2,-1 1,-0.66667 3,-2.16667 4,-3 1,-0.83333 1.5,-1.33333 2,-2 0.5,-0.66667 0.83331,-1.5 1,-2 0.16669,-0.5 0.16669,-0.66667 0,-1 -0.16669,-0.33333 -0.83331,-1 -1,-1 -0.16669,0 0.33331,0.66667 0,1 -0.33331,0.33333 -1.16669,0.33333 -2,1 -0.83331,0.66667 -2.16669,2.33333 -3,3 -0.83331,0.66667 -1.33331,0.66667 -2,1 -0.66669,0.33333 -1.66669,1 -2,1 -0.33331,0 0,-0.66667 0,-1 0,-0.33333 0,-0.66667 0,-1 0,-0.33333 0,-0.66667 0,-1 0,-0.33333 -0.16669,-0.83333 0,-1 0.16669,-0.16667 0.5,0.33333 1,0 0.5,-0.33333 1.33331,-1.33333 2,-2 0.66669,-0.66667 1.16669,-1.33333 2,-2 0.83331,-0.66667 2,-1.16667 3,-2 1,-0.83334 2,-2.16666 3,-3 1,-0.83334 2.16669,-1.5 3,-2 0.83331,-0.5 1.33331,-0.5 2,-1 0.66669,-0.5 1.5,-1.5 2,-2 0.5,-0.5 0.66669,-0.83334 1,-1 0.33331,-0.16666 0.66669,0.16666 1,0 0.33331,-0.16666 0.66669,-0.5 1,-1 0.33331,-0.5 0.66669,-1.5 1,-2 0.33331,-0.5 0.66669,-0.66666 1,-1 0.33331,-0.33334 0.66669,-0.66666 1,-1 0.33331,-0.33334 0.66669,-0.66666 1,-1 0.33331,-0.33334 0.66669,-0.66666 1,-1 0.33331,-0.33334 0.66669,-0.83334 1,-1 0.33331,-0.16666 0.5,0.16666 1,0 0.5,-0.16666 1.5,-0.83334 2,-1 0.5,-0.16666 0.66669,0.16666 1,0 0.33331,-0.16666 0.66669,-0.83334 1,-1 0.33331,-0.16666 0.66669,0 1,0 0.33331,0 0.83331,0.16666 1,0 0.16669,-0.16666 -0.16669,-0.83334 0,-1 0.16669,-0.16666 0.66669,0 1,0 0.33331,0 0.5,0.16666 1,0 0.5,-0.16666 1.5,-0.66666 2,-1 0.5,-0.33334 0.66669,-0.83334 1,-1 0.33331,-0.16666 0.66669,0.16666 1,0 0.33331,-0.16666 0.66669,-0.83334 1,-1 0.33331,-0.16666 0.66669,0 1,0 0.33331,0 0.66669,0.16666 1,0 0.33331,-0.16666 0.66669,-0.83334 1,-1 0.33331,-0.16666 0.66669,0.16666 1,0 0.33331,-0.16666 0.66669,-0.83334 1,-1 0.33331,-0.16666 0.83331,0.16666 1,0 0.16669,-0.16666 -0.16669,-0.83334 0,-1 0.16669,-0.16666 0.66669,0.16666 1,0 0.33331,-0.16666 0.66669,-0.83334 1,-1 0.33331,-0.16666 0.66669,0.16666 1,0 0.33331,-0.16666 0.5,-0.66666 1,-1 0.5,-0.333336 1.5,-0.666664 2,-1 0.5,-0.333336 0.66669,-0.666664 1,-1 0.33331,-0.333336 0.5,-0.666664 1,-1 0.5,-0.333336 1.5,-0.666664 2,-1 0.5,-0.333336 0.5,-0.5 1,-1 0.5,-0.5 1.5,-1.5 2,-2 0.5,-0.5 0.5,-0.666664 1,-1 0.5,-0.333336 1.5,-0.666664 2,-1 0.5,-0.333336 0.83331,-0.666664 1,-1 0.16669,-0.333336 -0.16669,-0.666664 0,-1 0.16669,-0.333336 0.66669,-0.5 1,-1 0.33331,-0.5 0.66669,-1.333336 1,-2 0.33331,-0.666664 0.66669,-1.5 1,-2 0.33331,-0.5 0.5,-0.5 1,-1 0.5,-0.5 1.5,-1.333336 2,-2 0.5,-0.666664 0.66669,-1.5 1,-2 0.33331,-0.5 0.83331,-0.666664 1,-1 0.16669,-0.333336 -0.16669,-0.5 0,-1 0.16669,-0.5 0.66669,-1.5 1,-2 0.33331,-0.5 0.66669,-0.666664 1,-1 0.33331,-0.333336 0.66669,-0.5 1,-1 0.33331,-0.5 0.83331,-1.333336 1,-2 0.16669,-0.666664 -0.16669,-1.5 0,-2 0.16669,-0.5 0.83331,-0.666664 1,-1 0.16669,-0.333336 -0.16669,-0.5 0,-1 0.16669,-0.5 0.83331,-1.5 1,-2 0.16669,-0.5 -0.16669,-0.5 0,-1 0.16669,-0.5 0.66669,-1.5 1,-2 0.33331,-0.5 0.83331,-0.666668 1,-1 0.16669,-0.333332 0,-0.666668 0,-1 0,-0.333332 0,-0.666668 0,-1 0,-0.333332 0,-0.666668 0,-1 0,-0.333332 0,-0.666668 0,-1 0,-0.333332 0,-0.666668 0,-1 0,-0.333332 0.16669,-1 0,-1 -0.16669,0 -0.5,0.666668 -1,1 -0.5,0.333332 -1.5,0.5 -2,1 -0.5,0.5 -0.33331,1.333332 -1,2 -0.66669,0.666668 -2.16669,1.333332 -3,2 -0.83331,0.666668 -1.16669,1.166668 -2,2 -0.83331,0.833332 -2.16669,2.166664 -3,3 -0.83331,0.833336 -1.5,1.333336 -2,2 -0.5,0.666664 -0.66669,1.5 -1,2 -0.33331,0.5 -0.66669,0.666664 -1,1 -0.33331,0.333336 -0.83331,0.666664 -1,1 -0.16669,0.333336 0.16669,0.666664 0,1 -0.16669,0.333336 -0.5,0.5 -1,1 -0.5,0.5 -1.5,1.5 -2,2 -0.5,0.5 -0.66669,0.666664 -1,1 -0.33331,0.333336 -0.66669,0.666664 -1,1 -0.33331,0.333336 -0.66669,0.666664 -1,1 -0.33331,0.333336 -0.66669,0.666664 -1,1 -0.33331,0.333336 -0.66669,0.666664 -1,1 -0.33331,0.333336 -0.5,0.666664 -1,1 -0.5,0.333336 -1.5,0.666664 -2,1 -0.5,0.333336 -0.66669,0.666664 -1,1 -0.33331,0.333336 -0.66669,0.666664 -1,1 -0.33331,0.333336 -0.83331,0.666664 -1,1 -0.16669,0.333336 0.16669,0.833336 0,1 -0.16669,0.166664 -0.66669,-0.166664 -1,0 -0.33331,0.166664 -0.66669,0.666664 -1,1 -0.33331,0.333336 -0.66669,0.833336 -1,1 -0.33331,0.166664 -0.5,-0.166664 -1,0 -0.5,0.166664 -1.5,0.666664 -2,1 -0.5,0.333336 -0.83331,0.666664 -1,1 -0.16669,0.333336 0.16669,0.833336 0,1 -0.16669,0.166664 -0.83331,-0.166664 -1,0 -0.16669,0.166664 0,1 0,1"
     id="path0003"
     style="fill:none;stroke:#000000;stroke-opacity:1" />
</svg>
