<?xml version="1.0" encoding="UTF-8" standalone="no"?>
<!-- Created with Inkscape (http://www.inkscape.org/) -->

<svg
   xmlns:dc="http://purl.org/dc/elements/1.1/"
   xmlns:cc="http://creativecommons.org/ns#"
   xmlns:rdf="http://www.w3.org/1999/02/22-rdf-syntax-ns#"
   xmlns:svg="http://www.w3.org/2000/svg"
   xmlns="http://www.w3.org/2000/svg"
   version="1.1"
   width="1029.5891"
   height="733.04431"
   id="svg2">
  <defs
     id="defs4" />
  <metadata
     id="metadata7">
    <rdf:RDF>
      <cc:Work
         rdf:about="">
        <dc:format>image/svg+xml</dc:format>
        <dc:type
           rdf:resource="http://purl.org/dc/dcmitype/StillImage" />
        <dc:title></dc:title>
      </cc:Work>
    </rdf:RDF>
  </metadata>
  <path
     d="m 237.9392,431.1062 c -0.9086,3.18553 -1.8608,6.41781 -2.8523,9.68681 -0.9916,3.26898 -2.0226,6.57459 -3.0892,9.90686 -1.0666,3.33226 -2.1686,6.6911 -3.3023,10.06648 -1.1336,3.37536 -2.2988,6.76726 -3.4915,10.16561 -1.1928,3.39834 -2.4132,6.80311 -3.6572,10.20425 -1.244,3.40117 -2.5116,6.79864 -3.7989,10.18247 -1.2873,3.38382 -2.5943,6.75393 -3.9169,10.10025 -1.3227,3.34629 -2.6611,6.66879 -4.0112,9.95744 -1.3501,3.28867 -2.7923,6.6748 -4.2925,10.09908 -1.5001,3.42432 -3.0582,6.88678 -4.6402,10.32804 -1.58195,3.44131 -3.18782,6.8614 -4.78357,10.201 -1.5957,3.33961 -3.18125,6.59867 -4.72254,9.71787 -1.5413,3.11921 -3.11864,6.22995 -4.63775,9.17426 -1.51911,2.94439 -2.97997,5.72236 -4.28834,8.17614 -1.30835,2.45376 -2.54448,4.71469 -3.49364,6.42789 -0.94917,1.71313 -1.69166,3.00989 -1.77195,3.14125 -0.0803,0.13104 -0.4418,0.70919 -0.97508,1.55277 -0.53332,0.84365 -1.23849,1.95318 -2.00619,3.14797 -0.7677,1.19477 -1.63807,2.54061 -2.56201,3.95536 -0.92394,1.41474 -1.90145,2.89846 -2.88341,4.3691 -0.98195,1.47064 -2.00853,2.99385 -3.06068,4.53695 -1.05215,1.54304 -2.12989,3.10592 -3.21422,4.65592 -1.08434,1.54996 -2.17528,3.08698 -3.2538,4.57832 -1.07851,1.49128 -2.14465,2.93691 -3.17934,4.30405 -1.03472,1.36714 -2.07818,2.72147 -3.12639,4.05491 -1.04823,1.33339 -2.10123,2.64582 -3.15509,3.92921 -1.05385,1.2834 -2.10854,2.53765 -3.16008,3.75472 -1.05158,1.21711 -2.10004,2.39692 -3.14145,3.53144 -1.04137,1.13447 -2.07573,2.22365 -3.09906,3.25926 -1.02332,1.03561 -2.03562,2.01777 -3.033,2.93825 -0.99736,0.92048 -1.97977,1.77935 -2.94325,2.56842 -0.96351,0.78907 -1.86374,1.57732 -2.82982,2.14974 -0.55975,0.33145 -1.06162,0.47725 -1.40684,0.662 -0.34519,0.18513 -0.57105,0.33633 -0.69066,0.46124 -0.1197,0.12492 -0.13302,0.22307 -0.0531,0.30132 0.0797,0.0781 0.25281,0.13698 0.50585,0.18273 0.25303,0.0439 0.5861,0.0781 0.98611,0.10458 0.40002,0.0245 0.86695,0.0486 1.38775,0.068 0.52085,0.0194 1.0955,0.0439 1.71086,0.072 0.61539,0.0292 1.27149,0.0657 1.9552,0.11664 0.68375,0.0509 1.37451,0.16434 2.06694,0.32854 0.69239,0.16416 1.38643,0.37956 2.07675,0.63461 0.69028,0.25516 1.37687,0.55035 2.05436,0.87433 0.67748,0.32414 1.34586,0.67671 1.99976,1.04727 0.65392,0.37034 1.34986,0.80073 2.04005,1.24805 0.69021,0.44712 1.37471,0.91167 2.00574,1.35074 0.63102,0.43884 1.26507,0.89458 1.76961,1.26126 0.50456,0.36691 0.93656,0.68584 0.99263,0.7283 0.0571,0.0436 0.28465,0.25711 0.6118,0.58059 0.32714,0.32367 0.7533,0.7554 1.2059,1.23071 0.45261,0.47531 0.95983,1.01497 1.49153,1.58542 0.53168,0.57051 1.08785,1.1718 1.63825,1.77036 0.55042,0.59855 1.12331,1.21534 1.7097,1.83249 0.58636,0.61718 1.18625,1.23471 1.79055,1.83481 0.60433,0.60005 1.21309,1.18274 1.81729,1.73005 0.60421,0.5474 1.20386,1.05945 1.7899,1.51837 0.98159,0.76868 1.88226,1.47287 2.72758,2.1163 0.84535,0.64346 1.63531,1.22612 2.39551,1.75181 0.76019,0.52573 1.4906,0.99436 2.21679,1.40971 0.72617,0.41551 1.4481,0.7774 2.19137,1.08985 0.74326,0.31251 1.50786,0.57533 2.31936,0.79234 0.81145,0.21722 1.66982,0.38829 2.60064,0.51717 0.93079,0.1287 1.93406,0.21579 3.03528,0.26439 1.10126,0.0486 2.30028,0.0342 3.62329,0.0342 1.62839,-0.002 3.47019,-0.17352 5.47884,-0.55719 2.00866,-0.38394 4.18409,-0.95917 6.47939,-1.70469 2.29527,-0.74556 4.71048,-1.66173 7.19858,-2.72797 2.4882,-1.06629 5.0494,-2.28266 7.6367,-3.62857 2.5872,-1.34593 5.2006,-2.82143 7.7932,-4.40602 2.5926,-1.58456 5.1644,-3.27818 7.6686,-5.06032 2.5041,-1.78218 4.9406,-3.65289 7.2626,-5.5916 2.3219,-1.93872 4.5293,-3.94547 6.5753,-5.99974 2.046,-2.0543 4.0677,-4.18817 6.0517,-6.38877 1.9841,-2.20061 3.9305,-4.46796 5.8261,-6.78903 1.8955,-2.32113 3.7402,-4.69604 5.5208,-7.11183 1.7805,-2.41578 3.4968,-4.87246 5.1358,-7.35707 1.6389,-2.48463 3.2004,-4.99722 4.6712,-7.52485 1.4708,-2.52763 2.8509,-5.07029 4.127,-7.61508 1.2761,-2.5448 2.4482,-5.09171 3.5031,-7.62782 1.0549,-2.53609 2.0185,-5.0532 2.7997,-7.56297 0.08,-0.25809 -0.2659,0.64699 -0.4705,1.17911 -0.2046,0.53213 -0.4544,1.19809 -0.7409,1.98221 -0.2863,0.7841 -0.6093,1.68638 -0.9601,2.69109 -0.3509,1.00469 -0.7297,2.1118 -1.1279,3.30572 -0.3985,1.19385 -0.8159,2.47451 -1.2445,3.82619 -0.4287,1.35171 -0.8682,2.77441 -1.3101,4.2525 -0.4417,1.47807 -0.8861,3.01149 -1.3242,4.58458 -0.4378,1.57307 -0.87,3.18578 -1.2872,4.82247 -0.417,1.63665 -0.861,3.25834 -1.3074,4.86394 -0.4467,1.60555 -0.8954,3.19507 -1.3229,4.76737 -0.4277,1.5723 -0.8336,3.12739 -1.1942,4.66429 -0.3606,1.53682 -0.6757,3.05543 -0.9212,4.55463 -0.2454,1.49922 -0.4214,2.97911 -0.504,4.43851 -0.083,1.4594 -0.072,2.89831 0.057,4.31572 0.1287,1.41741 0.3752,2.81331 0.7629,4.18654 0.3878,1.3733 0.9174,2.72391 1.6127,4.05081 0.4272,0.81503 0.9311,1.58809 1.5006,2.31846 0.5695,0.73035 1.2044,1.41802 1.893,2.06215 0.6887,0.64415 1.4312,1.24479 2.2158,1.80115 0.7846,0.55633 1.6113,1.06839 2.4686,1.53544 0.8572,0.46704 1.7451,0.889 2.6517,1.26509 0.9067,0.37617 1.8322,0.70641 2.7651,0.99015 0.9328,0.28382 1.8728,0.52074 2.8085,0.71042 0.9357,0.18943 1.867,0.33196 2.7823,0.42624 1.1411,0.11772 2.2997,0.16668 3.4668,0.15048 1.1671,-0.0144 2.3427,-0.0968 3.5177,-0.23962 1.175,-0.14274 2.3494,-0.34797 3.5142,-0.61216 1.1648,-0.26438 2.3199,-0.58743 3.4563,-0.96674 1.1364,-0.37908 2.2541,-0.81463 3.344,-1.30293 1.09,-0.48832 2.1521,-1.02969 3.1775,-1.62105 1.0253,-0.59137 2.0138,-1.23274 2.9563,-1.9211 0.9425,-0.68834 1.8392,-1.42375 2.6808,-2.20309 1.0635,-0.98473 2.064,-1.98666 3.0018,-3.01574 0.9378,-1.02904 1.8128,-2.08526 2.6253,-3.17864 0.8124,-1.09339 1.5622,-2.22397 2.2494,-3.40169 0.6873,-1.17778 1.312,-2.4027 1.8744,-3.6848 0.5624,-1.28212 1.0624,-2.62148 1.5001,-4.02802 0.4378,-1.40652 0.813,-2.88027 1.1263,-4.4313 0.3135,-1.55102 0.5644,-3.17923 0.7535,-4.8947 0.189,-1.71544 0.3163,-3.51815 0.3815,-5.41811 0.065,-1.89993 -0.014,-3.81764 -0.2348,-5.72481 -0.2182,-1.90721 -0.5732,-3.8039 -1.0545,-5.66193 -0.4817,-1.85804 -1.0891,-3.67739 -1.8129,-5.42979 -0.7238,-1.75248 -1.5638,-3.438 -2.5097,-5.0285 -0.946,-1.59048 -1.9978,-3.08587 -3.1454,-4.45794 -1.1475,-1.37212 -2.3908,-2.6209 -3.7196,-3.71818 -1.3288,-1.0973 -2.743,-2.04309 -4.2325,-2.80923 -1.4895,-0.7661 -3.0218,-1.54019 -4.6841,-1.73102 -2.0355,-0.23379 -3.7768,-0.10782 -5.2151,-0.18857 -1.4381,-0.0801 -2.5861,-0.1773 -3.4736,-0.28966 -0.8875,-0.11232 -1.5146,-0.23961 -1.911,-0.38005 -0.3965,-0.1404 -0.5621,-0.29405 -0.527,-0.45929 0.034,-0.16488 0.2712,-0.34117 0.6782,-0.5274 0.4073,-0.18619 0.9852,-0.38151 1.7046,-0.5848 0.7194,-0.20325 1.5801,-0.41407 2.5522,-0.63093 0.9722,-0.21676 2.0559,-0.43935 3.2213,-0.66615 1.1654,-0.22647 2.3827,-0.46947 3.6298,-0.72304 1.247,-0.25369 2.5237,-0.51847 3.8078,-0.78959 1.2839,-0.27119 2.5752,-0.54851 3.8514,-0.82742 1.2762,-0.27897 2.5373,-0.5593 3.7609,-0.83641 1.2236,-0.27702 2.4098,-0.55092 3.5361,-0.81662 1.1263,-0.26583 2.1928,-0.52328 3.177,-0.76797 0.9842,-0.24448 1.8863,-0.47628 2.6837,-0.69057 0.7974,-0.21384 1.4903,-0.41065 2.0562,-0.58437 1.2091,-0.37177 2.6287,-0.81738 4.2314,-1.34174 1.6026,-0.52434 3.3883,-1.12718 5.3297,-1.81278 1.9414,-0.68555 4.0384,-1.45382 6.2638,-2.30899 2.2255,-0.85516 4.5792,-1.79722 7.034,-2.83041 2.4547,-1.0332 5.0104,-2.15746 7.6397,-3.37708 2.6293,-1.21956 5.3322,-2.53444 8.0815,-3.94884 2.7491,-1.41439 5.5445,-2.9283 8.3588,-4.5459 2.8143,-1.61756 5.6475,-3.33886 8.4723,-5.16807 2.8247,-1.8292 5.6706,-3.75446 8.5177,-5.77694 2.8472,-2.02255 5.6956,-4.14229 8.5252,-6.36059 2.8297,-2.21823 5.7212,-4.48135 8.5741,-6.84418 2.8529,-2.36278 5.6671,-4.82538 8.3422,-7.4426 2.6751,-2.6172 5.039,-4.98204 7.234,-7.24788 2.1949,-2.26586 4.2209,-4.43275 6.2199,-6.6542 1.9991,-2.2214 3.8908,-4.55105 5.7366,-7.19601 1.8458,-2.64501 3.6458,-5.60534 5.4616,-9.0882 0.2906,-0.55715 0.7505,-1.61784 1.2904,-2.96247 0.5399,-1.3446 1.1597,-2.97305 1.7697,-4.66564 0.61,-1.69254 1.2101,-3.44923 1.7107,-5.05037 0.5006,-1.60106 0.9016,-3.04653 1.1135,-4.11665 0.2119,-1.07012 0.4058,-2.17059 0.5729,-3.28659 0.1673,-1.11598 0.3077,-2.24755 0.4131,-3.37977 0.1055,-1.1323 0.1754,-2.26522 0.2011,-3.38407 0.024,-1.11882 0.011,-2.2235 -0.062,-3.29927 -0.07,-1.07575 -0.1939,-2.12254 -0.3785,-3.12558 -0.1847,-1.00299 -0.4311,-1.96219 -0.7472,-2.86281 -0.3164,-0.90061 -0.7024,-1.74259 -1.1674,-2.5111 -0.4651,-0.76859 -1.0087,-1.46364 -1.6399,-2.07053 -0.6311,-0.60687 -1.4673,-1.09184 -2.4582,-1.45693 -0.991,-0.36497 -2.1369,-0.61031 -3.3876,-0.73759 -1.2507,-0.12744 -2.6062,-0.13716 -4.0165,-0.0292 -1.4103,0.10656 -2.8586,0.4131 -4.3452,0.6665 -2.5517,0.43496 -4.9168,0.92247 -7.1072,1.67616 -2.1902,0.7537 -4.2188,1.68914 -6.1362,2.76671 -1.9174,1.07755 -3.7236,2.29727 -5.4694,3.61942 -1.7458,1.32218 -3.4311,2.74682 -5.1067,4.23429 -1.6756,1.48748 -3.224,3.0042 -4.6706,4.57774 -1.4466,1.57347 -2.7915,3.20375 -4.0601,4.91821 -1.2687,1.71445 -2.4612,3.51319 -3.6029,5.4236 -1.1418,1.91043 -2.2329,3.93259 -3.2988,6.09386 -1.0659,2.1613 -2.073,4.37795 -3.0301,6.63536 -0.9571,2.25742 -1.8642,4.55573 -2.7299,6.8803 -0.8658,2.3246 -1.6904,4.67552 -2.4823,7.03836 -0.7919,2.36277 -1.5514,4.73748 -2.2869,7.10955 -0.7355,2.37212 -1.4136,4.75838 -2.0599,7.13592 -0.6463,2.37757 -1.2607,4.74648 -1.8687,7.08387 -0.6081,2.3373 -1.2097,4.64313 -1.8305,6.89452 -0.6208,2.25146 -1.3613,4.41859 -1.9453,6.56815 -0.501,1.84392 -0.8536,3.76855 -1.3414,5.69984 -0.4877,1.93136 -1.0087,3.89419 -1.5403,5.88874 -0.5316,1.99459 -1.0739,4.02091 -1.6043,6.07933 -0.5304,2.05836 -1.0489,4.14877 -1.5331,6.27155 -0.484,2.12274 -0.9675,4.26105 -1.4443,6.40672 -0.4767,2.14571 -0.9471,4.29888 -1.4051,6.45132 -0.4578,2.15244 -0.9037,4.3042 -1.3315,6.44723 -0.4276,2.14295 -0.8374,4.27719 -1.2234,6.39444 -0.3859,2.11731 -0.7257,4.30071 -1.0219,6.51093 -0.2959,2.21029 -0.5488,4.4474 -0.7606,6.67211 -0.2118,2.22471 -0.3829,4.43707 -0.5155,6.59783 -0.1327,2.16075 -0.2275,4.2699 -0.2867,6.28821 -0.059,2.0183 -0.1046,4.03265 -0.09,5.93566 0.014,1.90309 0.091,3.69488 0.2721,5.26824 0.06,0.52042 0.205,1.30496 0.3859,2.20748 0.1804,0.90249 0.3494,1.93358 0.5967,2.91555 0.14,0.55556 0.3922,1.18953 0.6414,1.88014 0.2488,0.69061 0.5514,1.41883 0.8951,2.1384 0.3568,0.74689 0.7006,1.49522 1.1285,2.23682 0.4276,0.74159 0.9285,1.48171 1.5651,2.22777 0.6367,0.74612 1.3135,1.51038 2.0308,2.26185 0.7172,0.75144 1.4749,1.49007 2.2731,2.18475 0.7983,0.69474 1.6183,1.29812 2.46,1.84559 0.8418,0.54747 1.7053,1.03903 2.591,1.51006 0.8856,0.47093 1.833,0.87761 2.7991,1.2423 0.9661,0.3645 1.9509,0.68735 2.9115,0.99062 0.9606,0.30326 1.9348,0.55866 2.9176,0.7601 0.9828,0.20174 1.9742,0.34895 2.9691,0.43691 0.9949,0.0875 1.9934,0.11574 2.9903,0.0774 0.9969,-0.0389 1.9922,-0.14184 2.9809,-0.31735 0.9888,-0.17532 1.9709,-0.42331 2.9413,-0.74855 0.9704,-0.32512 1.9168,-0.75309 2.8712,-1.21547 1.5475,-0.74975 3.1066,-1.67607 4.6493,-2.8192 1.5427,-1.1431 3.0808,-2.4782 4.6218,-3.97081 1.5409,-1.4926 3.0846,-3.14275 4.6386,-4.91607 1.5539,-1.77331 3.118,-3.66979 4.6998,-5.65501 1.5818,-1.98522 3.1812,-4.05916 4.8056,-6.18752 1.6245,-2.12834 3.2739,-4.31102 4.9558,-6.51364 1.6818,-2.20266 3.3961,-4.42528 5.1503,-6.63347 1.7541,-2.20815 3.5481,-4.4019 5.3893,-6.54685 1.8412,-2.14493 3.7296,-4.24103 5.6727,-6.2539 1.9431,-2.01292 3.9408,-3.94258 6.0006,-5.75462 2.0597,-1.81208 4.1815,-3.50651 6.3728,-5.04893 2.1912,-1.5424 4.4519,-2.93281 6.7895,-4.13683 2.3376,-1.20402 4.752,-2.2216 7.2507,-3.01844 2.4987,-0.7968 5.0816,-1.37286 7.7563,-1.69373 2.6746,-0.32076 5.4408,-0.38635 8.3061,-0.16236 2.8654,0.22407 6.6838,-0.70916 8.9007,1.57499 1.8606,1.91714 -5.1986,-0.60968 -7.6708,-0.65891 -2.4722,-0.049 -4.8601,0.0666 -7.165,0.33096 -2.3049,0.26439 -4.5269,0.67783 -6.6671,1.22386 -2.1403,0.54599 -4.1988,1.22472 -6.177,2.01971 -1.9783,0.79504 -3.8762,1.70649 -5.695,2.7182 -1.8189,1.01167 -3.5587,2.12364 -5.2207,3.31957 -1.6621,1.19596 -3.2465,2.47598 -4.7544,3.8238 -1.5079,1.34784 -2.9394,2.7635 -4.2958,4.23083 -1.3564,1.46732 -2.6377,2.98632 -3.8452,4.54078 -1.2076,1.55443 -2.3413,3.14439 -3.4026,4.75352 -1.0613,1.6092 -2.05,3.23766 -2.9677,4.86918 -0.9176,1.63152 -1.764,3.26611 -2.5406,4.88757 -0.7766,1.62148 -1.4834,3.2298 -2.1216,4.80886 -0.6383,1.57907 -1.2079,3.12884 -1.7105,4.63306 -0.5024,1.50421 -0.9377,2.96293 -1.3071,4.35994 -0.3693,1.39702 -0.6418,2.73861 -0.9117,3.98977 -0.278,1.28985 -0.5477,2.52468 -0.7188,3.72383 -0.171,1.19921 -0.2746,2.35564 -0.313,3.4675 -0.039,1.11189 -0.014,2.17919 0.076,3.20002 0.088,1.02087 0.2381,1.99525 0.4481,2.92131 0.2095,0.92606 0.4782,1.80382 0.8033,2.63146 0.3251,0.8276 0.7065,1.60504 1.1415,2.33046 0.435,0.7254 0.9239,1.39874 1.4634,2.01826 0.5395,0.61944 1.1299,1.185 1.7682,1.69481 0.6384,0.50982 1.3247,0.96385 2.0563,1.36026 0.7315,0.39658 1.5083,0.73527 2.3275,1.01463 0.8191,0.27946 1.6807,0.49921 2.5819,0.65772 0.9011,0.15858 1.8419,0.25563 2.8195,0.28965 0.9776,0.0342 1.992,0.004 3.0404,-0.0898 1.0483,-0.0943 2.1307,-0.25369 3.2443,-0.4797 1.1136,-0.22647 2.2584,-0.51948 3.4315,-0.88155 1.1732,-0.36207 2.4004,-0.73438 3.602,-1.29445 2.2579,-1.05244 4.3635,-2.32936 6.4042,-3.6437 2.0407,-1.31435 3.9886,-2.72355 5.8479,-4.21321 1.8592,-1.48968 3.6298,-3.05977 5.3157,-4.6958 1.6858,-1.63595 3.287,-3.33789 4.8075,-5.09127 1.5205,-1.75336 2.9604,-3.55817 4.3236,-5.39991 1.3632,-1.84174 2.6497,-3.72044 3.8636,-5.62156 1.2139,-1.90114 2.3551,-3.82473 3.4278,-5.75622 1.0726,-1.93151 2.0766,-3.87101 3.0161,-5.80392 0.9394,-1.93291 1.8142,-3.85927 2.6285,-5.76459 0.8142,-1.90535 1.5679,-3.78963 2.265,-5.63841 0.697,-1.84874 1.3376,-3.66203 1.9255,-5.42524 0.588,-1.76317 1.1234,-3.47634 1.6104,-5.12501 0.4868,-1.64866 0.9252,-3.23278 1.3191,-4.73787 0.3936,-1.50509 0.7432,-2.93116 1.052,-4.26373 0.3091,-1.33254 0.5772,-2.57161 0.809,-3.70267 0.2318,-1.13109 0.7777,-3.95041 0.5902,-3.05468 -0.451,2.15543 -0.8557,4.22034 -1.2851,6.1879 -0.4296,1.96763 -0.8594,3.84286 -1.288,5.63391 -0.4286,1.79105 -0.8558,3.49796 -1.2798,5.12878 -0.4243,1.63081 -0.845,3.18562 -1.2609,4.67249 -0.416,1.48691 -0.8269,2.90588 -1.2311,4.26508 -0.4043,1.35925 -0.8016,2.65871 -1.1904,3.90652 -0.3888,1.24785 -0.769,2.4441 -1.1389,3.59684 -0.3698,1.15273 -0.7292,2.26202 -1.0764,3.33595 -0.347,1.07396 -0.6822,2.11256 -1.0032,3.12396 -0.3208,1.01142 -0.6279,1.99566 -0.919,2.96082 -0.2912,0.96519 -0.5664,1.91129 -0.824,2.84655 -0.2576,0.93519 -0.4977,1.85951 -0.7182,2.78102 -0.2207,0.92157 -0.4214,1.84034 -0.6014,2.76448 -0.18,0.92417 -0.3382,1.85369 -0.4738,2.79671 -0.1358,0.94304 -0.2479,1.89965 -0.3354,2.87786 -0.087,0.97826 -0.1364,1.97876 -0.1862,3.00787 -0.039,0.77726 -0.084,1.51155 -0.099,2.20794 -0.014,0.69633 -0.011,1.35399 0.011,1.97555 0.019,0.62149 0.058,1.20703 0.1127,1.75912 0.054,0.5521 0.126,1.0708 0.2134,1.55869 0.087,0.48789 0.1905,0.94508 0.3086,1.37416 0.1181,0.42916 0.2518,0.83016 0.4005,1.20568 0.1481,0.37567 0.3115,0.72565 0.4881,1.05301 0.1769,0.32757 0.3674,0.632 0.5716,0.91644 0.2041,0.28433 0.4447,0.55721 0.7124,0.81756 0.2678,0.26049 0.5628,0.5085 0.8755,0.74387 0.3125,0.23522 0.6432,0.45831 0.982,0.66756 0.3387,0.20952 0.6859,0.40583 1.0319,0.58846 0.346,0.18273 0.7143,0.36012 1.0779,0.52536 0.3635,0.16524 0.7225,0.31882 1.0498,0.45344 0.3271,0.13464 0.6463,0.25904 0.8951,0.35381 0.2489,0.0949 0.451,0.16758 0.4744,0.1764 0.024,0.0108 0.1478,0.0245 0.3416,0.0436 0.194,0.0144 0.4574,0.0292 0.7593,0.0292 0.3018,-2.3e-4 0.6538,-0.0108 1.042,-0.0342 0.3883,-0.0241 0.8126,-0.0666 1.2595,-0.12924 0.4466,-0.063 0.9278,-0.14238 1.4378,-0.24203 0.5101,-0.0992 1.0493,-0.21821 1.6125,-0.36012 0.5631,-0.14184 1.1503,-0.3057 1.7566,-0.495 0.6062,-0.189 1.2315,-0.40338 1.8706,-0.64507 0.6391,-0.24203 1.3039,-0.50715 1.9937,-0.79704 0.6897,-0.28966 1.4045,-0.60428 2.1434,-0.94439 0.739,-0.3402 1.5022,-0.70576 2.2891,-1.09812 0.7869,-0.39219 1.5975,-0.81143 2.4309,-1.25824 0.8335,-0.44663 1.6899,-0.92135 2.5686,-1.42472 0.8787,-0.50335 1.7797,-1.0355 2.7023,-1.59752 0.9226,-0.56201 1.8668,-1.15387 2.832,-1.77669 0.9651,-0.62278 1.9513,-1.2765 2.9576,-1.96227 M 730.622,499.76466 c -2.2019,-0.10494 -4.4488,-0.1521 -6.7292,-0.14184 -2.2804,0.0108 -4.5943,0.0778 -6.9305,0.20259 -2.3362,0.12492 -4.6946,0.30715 -7.0639,0.54654 -2.3693,0.23911 -4.7495,0.5356 -7.1292,0.8886 -2.3798,0.35284 -4.759,0.76263 -7.1265,1.22865 -2.3674,0.46607 -4.7231,0.98838 -7.0556,1.56686 -2.3325,0.57848 -4.642,1.21306 -6.9168,1.90341 -2.2749,0.69043 -4.5154,1.43662 -6.71,2.23832 -2.1946,0.80175 -4.3894,1.76346 -6.5557,2.84567 -2.1663,1.08223 -4.3042,2.28498 -6.3852,3.56881 -2.0809,1.28381 -4.1048,2.59169 -6.0431,3.94121 -1.9384,1.34953 -3.7911,2.7406 -5.5297,4.19079 -1.7386,1.45015 -3.3418,2.95477 -4.7802,4.42089 -1.4385,1.46617 -2.712,2.89381 -3.7913,4.18995 -1.0793,1.29618 -1.8894,2.57708 -2.4728,3.71781 -0.5834,1.14079 -1.0263,2.50951 -1.1126,2.87736 -0.087,0.3679 -0.1458,0.99217 -0.137,1.70283 0.011,0.7107 0.085,1.50784 0.2726,2.22162 0.1871,0.71379 0.5219,1.45436 0.9747,2.17675 0.453,0.72243 1.0238,1.42676 1.6829,2.06799 0.6592,0.64121 1.2495,1.13659 1.907,1.57872 0.6575,0.44226 1.3822,0.83099 2.3101,1.25927 0.928,0.42816 1.9384,0.81541 3.0465,1.17354 1.1081,0.3582 2.3139,0.68712 3.6327,0.99922 1.3187,0.31201 2.7086,0.59258 4.1438,0.84389 1.4353,0.25126 2.9161,0.47337 4.4166,0.66858 1.5007,0.19526 3.0211,0.36403 4.5358,0.50797 1.5147,0.14436 3.0237,0.2639 4.5013,0.36159 1.4776,0.0976 3.026,0.1692 4.543,0.21918 1.5169,0.0506 3.0025,0.0797 4.3545,0.0949 1.3519,0.0144 2.6723,0.0108 3.7058,-10e-4 1.0336,-0.0108 1.8823,-0.0338 1.9845,-0.0389 0.1022,-0.004 0.5518,-0.0338 1.2084,-0.0758 0.6566,-0.0439 1.5201,-0.1026 2.4501,-0.171 0.9299,-0.068 1.9773,-0.14778 3.0781,-0.23573 1.1009,-0.0878 2.2552,-0.1836 3.399,-0.28429 1.1439,-0.10062 2.3282,-0.20909 3.5275,-0.32321 1.1993,-0.1143 2.4135,-0.23425 3.617,-0.35867 1.2035,-0.12492 2.3962,-0.25369 3.5525,-0.38588 1.1562,-0.13212 2.2762,-0.26777 3.3339,-0.40482 1.0578,-0.13716 2.0777,-0.25517 3.0346,-0.35576 0.9569,-0.10062 1.8508,-0.1836 2.6566,-0.25128 0.8058,-0.067 1.5234,-0.11862 2.1278,-0.15552 0.6044,-0.0389 1.0955,-0.0598 1.4484,-0.0695 0.3528,-0.0108 0.5672,-0.004 0.6181,0.004 0.051,0.0144 -0.062,0.0389 -0.363,0.0754 -0.3007,0.0338 -0.7908,0.0806 -1.4943,0.13374 -0.7035,0.0526 -1.6338,-0.004 -2.7768,0.18036 -1.5171,0.24642 -2.9795,0.69957 -4.4592,1.01697 -1.4798,0.31736 -2.9533,0.61542 -4.4221,0.90065 -1.4687,0.28528 -2.9327,0.5578 -4.3931,0.82413 -1.4604,0.26632 -2.9174,0.52662 -4.3723,0.78732 -1.4549,0.26096 -2.9077,0.52189 -4.3598,0.79016 -1.452,0.26827 -2.9034,0.54369 -4.3554,0.83281 -1.4519,0.28918 -2.9046,0.59194 -4.3592,0.91515 -1.4547,0.32317 -2.9113,0.66669 -4.3713,1.03716 -1.4601,0.37033 -3.0236,0.80007 -4.6544,1.27395 -1.6308,0.47387 -3.329,0.99222 -5.0582,1.54019 -1.7293,0.54797 -3.4897,1.12561 -5.2451,1.7183 -1.7553,0.59268 -3.5057,1.20033 -5.2148,1.80831 -1.7092,0.60799 -3.4017,1.23804 -5.0041,1.85287 -1.6024,0.61481 -3.1147,1.21442 -4.4634,1.76146 -1.3487,0.54704 -2.634,1.08852 -3.632,1.51666 -0.9981,0.42819 -1.8095,0.78927 -1.9093,0.8369 -0.1006,0.0486 -0.7519,0.3781 -1.7563,0.90975 -1.0045,0.53143 -2.3614,1.26306 -3.8716,2.11056 -1.5103,0.84747 -3.2238,1.83429 -5.0167,2.91141 -1.7928,1.07708 -3.6649,2.24445 -5.4919,3.45304 -1.8271,1.2086 -3.7348,2.50703 -5.6743,3.87643 -1.9395,1.36939 -3.9107,2.80976 -5.865,4.30222 -1.9541,1.49239 -3.8913,3.0369 -5.7624,4.61464 -1.8712,1.57775 -3.6765,3.18875 -5.3669,4.81404 -1.6905,1.62531 -3.2368,3.38746 -4.6387,5.23921 -1.4018,1.8518 -2.6592,3.79319 -3.7718,5.77699 -1.1127,1.98385 -2.0806,4.01004 -2.9034,6.03144 -0.8228,2.02138 -1.5006,4.038 -2.033,6.0025 -0.5324,1.96452 -0.7747,3.8574 -0.8189,5.61641 -0.044,1.75903 0.1098,3.38422 0.3698,4.81335 0.26,1.42914 0.5053,2.09962 0.9368,3.08329 0.3927,0.89521 0.9064,1.74139 1.4872,2.52767 0.4906,0.66398 1.056,1.27728 1.6712,1.82766 0.7357,0.65819 1.5431,1.24276 2.3937,1.74386 1.2463,0.73424 2.58,1.32304 3.935,1.82945 1.7353,0.64852 3.3881,1.19176 5.3409,1.53653 1.9528,0.34458 4.0422,0.65319 6.2343,0.91028 2.192,0.25709 4.4868,0.46267 6.8503,0.60235 2.3635,0.1395 4.7958,0.21276 7.2629,0.20455 2.4672,-0.0108 4.9692,-0.0972 7.4721,-0.28285 2.503,-0.18554 4.8983,-0.37616 7.204,-0.57868 2.3058,-0.20261 4.5218,-0.41699 6.6664,-0.6503 2.1446,-0.23328 4.2177,-0.48503 6.2373,-0.76245 2.0196,-0.27752 3.9858,-0.58019 5.9165,-0.91528 1.9307,-0.33485 3.8261,-0.70236 5.7041,-1.10869 1.8781,-0.40632 3.7388,-0.85164 5.6002,-1.3428 1.8615,-0.4911 3.7237,-1.02804 5.6048,-1.61745 1.881,-0.58946 3.8031,-1.17262 5.7175,-1.93276 0.082,-0.0342 0.244,-0.20261 0.5923,-0.35867 0.3484,-0.15588 0.8362,-0.34603 1.4299,-0.56547 0.5937,-0.21917 1.2931,-0.46703 2.0646,-0.73858 0.7713,-0.27117 1.6147,-0.56574 2.4961,-0.8777 0.8815,-0.31201 1.8011,-0.64137 2.7248,-0.98265 0.9238,-0.34117 1.8518,-0.69435 2.7502,-1.05354 0.8984,-0.35917 1.7672,-0.72454 2.5725,-1.09035 0.8053,-0.36596 1.5471,-0.73203 2.1917,-1.09307 0.5328,-0.2984 1.097,-0.60127 1.6907,-0.91193 0.5937,-0.31054 1.2169,-0.62896 1.8677,-0.95834 0.6506,-0.32951 1.3288,-0.66971 2.0324,-1.02431 0.7036,-0.35478 1.4328,-0.7234 2.1853,-1.10972 0.7526,-0.38637 1.5286,-0.79014 2.3261,-1.21471 0.7975,-0.42476 1.6164,-0.86983 2.4548,-1.33911 0.8383,-0.46948 1.6961,-0.96259 2.5713,-1.48307 0.8754,-0.52053 1.768,-1.06829 2.6761,-1.64654 m 7.8456,-177.13357 c -1.6811,2.03195 -3.3363,4.14508 -4.9649,6.33247 -1.6287,2.18744 -3.2308,4.44915 -4.8057,6.77834 -1.5748,2.32921 -3.1225,4.72586 -4.6424,7.18324 -1.5198,2.45729 -3.0118,4.97536 -4.4753,7.54722 -1.4635,2.57187 -2.8985,5.19759 -4.3044,7.87034 -1.4058,2.6728 -2.7825,5.3926 -4.1295,8.15261 -1.347,2.75998 -2.6641,5.56024 -3.9508,8.39389 -1.2867,2.83361 -2.543,5.70069 -3.7681,8.59433 -1.2252,2.89364 -2.4193,5.81386 -3.5817,8.75383 -1.1623,2.94001 -2.293,5.89975 -3.3912,8.87247 -1.0983,2.97272 -2.1642,5.9584 -3.1971,8.95018 -1.0328,2.99181 -2.0327,5.98973 -2.9988,8.987 -0.9662,2.99725 -1.8987,5.99389 -2.7969,8.98299 -0.8982,2.98908 -1.762,5.97071 -2.5909,8.93799 -0.8289,2.96725 -1.6229,5.92026 -2.3812,8.85204 -0.7584,2.93184 -1.5069,5.83656 -2.1675,8.72534 -0.75,3.27929 -1.4847,6.56573 -2.2747,9.84267 -0.79,3.27701 -1.6094,6.55038 -2.4513,9.821 -0.8418,3.27063 -1.706,6.53853 -2.5856,9.80472 -0.8795,3.26612 -1.7743,6.53048 -2.6774,9.79397 -0.903,3.26349 -1.8144,6.52609 -2.7269,9.78872 -0.9125,3.26266 -1.8262,6.52532 -2.7339,9.78894 -0.9078,3.26365 -1.8097,6.52822 -2.6986,9.79466 -0.8889,3.26646 -1.7649,6.53476 -2.6208,9.80588 -0.8559,3.27112 -1.6621,6.32547 -2.419,9.21888 -0.7569,2.89345 -1.4644,5.62588 -2.123,8.2532 -0.6585,2.62732 -1.268,5.14946 -1.8289,7.62223 -0.5609,2.47282 -1.0731,4.89625 -1.537,7.32616 -0.4636,2.42989 -0.8795,4.86626 -1.2472,7.36484 -0.3679,2.49858 -0.6873,5.05942 -0.9594,7.73826 -0.2722,2.67886 -0.4966,5.47574 -0.6739,8.44648 -0.1773,2.97072 -0.4969,6.11595 -0.3902,9.48949 0.034,1.08931 0.3985,2.09077 0.5404,3.08147 0.1419,0.99071 0.2503,1.94804 0.3412,2.88116 0.091,0.93312 0.1649,1.84203 0.2362,2.73598 0.072,0.89393 0.1415,1.77293 0.2255,2.64607 0.084,0.87316 0.1812,1.74053 0.3086,2.61133 0.1267,0.87077 0.2833,1.74498 0.485,2.63175 0.2018,0.8868 0.4486,1.78619 0.7561,2.70736 0.3077,0.92115 0.6763,1.86415 1.1214,2.83813 M 824.2635,460.61371 c -1.2922,1.79732 -2.5592,3.67191 -3.7975,5.61252 -1.2383,1.94058 -2.4479,3.9473 -3.625,6.0088 -1.1771,2.06152 -2.3218,4.17789 -3.4304,6.33798 -1.1086,2.16007 -2.1811,4.36385 -3.2138,6.60017 -1.0327,2.23628 -2.0256,4.50509 -2.975,6.79525 -0.9494,2.29014 -1.8554,4.60165 -2.7141,6.92332 -0.8588,2.32168 -1.6705,4.65351 -2.4312,6.98436 -0.7608,2.3308 -1.4708,4.66063 -2.1262,6.97826 -0.6554,2.31764 -1.228,4.71109 -1.7248,7.13619 -0.4967,2.42505 -0.9176,4.88173 -1.2694,7.32587 -0.3519,2.44413 -0.6348,4.87575 -0.8557,7.25064 -0.2206,2.37488 -0.3795,4.6931 -0.4835,6.91043 -0.1041,2.21733 -0.039,4.3882 0.1206,6.41925 0.1607,2.03101 0.4184,3.92226 0.7036,5.58033 0.2854,1.65805 0.6256,3.17086 0.909,4.31319 0.2832,1.1423 0.5378,2.0022 0.5665,2.09007 0.029,0.0878 0.195,0.49873 0.4627,1.09388 0.2679,0.59515 0.637,1.3747 1.0706,2.20012 0.4335,0.82546 0.9459,1.7408 1.5212,2.67369 0.5752,0.93281 1.2135,1.88308 1.8993,2.77846 0.7035,0.91854 1.4428,1.83128 2.2205,2.71989 0.7777,0.8886 1.5938,1.75305 2.4508,2.57502 0.8569,0.82199 1.7548,1.60146 2.696,2.32017 0.9412,0.71876 1.9258,1.37664 2.9564,1.95541 1.0305,0.57877 2.0202,1.05953 2.9966,1.46005 0.9765,0.40047 1.9396,0.72074 2.9169,0.97843 0.9773,0.25758 1.9687,0.45295 3.0016,0.60311 1.033,0.15012 2.1075,0.25563 3.251,0.33436 1.1093,0.0758 2.3292,0.10062 3.622,0.0439 1.2927,-0.0569 2.6584,-0.19483 4.0591,-0.4442 1.4007,-0.24883 2.8363,-0.60944 4.2692,-1.11069 1.4329,-0.50126 2.8339,-1.19516 4.2523,-1.95617 1.2202,-0.65462 2.7506,-1.49648 4.3932,-2.60258 1.6425,-1.10607 3.4241,-2.42358 5.2275,-3.87101 1.8035,-1.44742 3.6287,-3.02479 5.3586,-4.65055 1.7298,-1.62582 3.3643,-3.29998 4.7861,-4.94115 1.5061,-1.73847 2.8608,-3.29535 4.1212,-4.76427 1.2604,-1.46893 2.4266,-2.84991 3.5559,-4.23655 1.1293,-1.38662 2.2486,-2.69837 3.3882,-4.10944 1.1397,-1.41098 2.2997,-2.92133 3.5107,-4.70509 1.2109,-1.78378 2.5004,-3.56764 3.7636,-5.37289 1.2632,-1.80526 2.5001,-3.63183 3.606,-5.50098 1.1058,-1.86916 2.2416,-3.75396 3.3563,-5.64889 1.1146,-1.89486 2.2082,-3.79982 3.2294,-5.70922 1.0213,-1.90941 1.8897,-3.71576 2.742,-5.52096 0.8524,-1.8052 1.6888,-3.60915 2.646,-5.51364 0.9571,-1.90447 1.7666,-4.04375 2.5651,-6.17049 0.7986,-2.12679 1.7522,-4.16813 2.4999,-6.0955 0.7673,-1.97802 1.2209,-3.83295 1.7983,-5.4299 0.5772,-1.59688 1.1066,-2.99404 1.5104,-4.2314 0.4039,-1.23736 0.7626,-2.288 1.0795,-3.16508 0.3169,-0.87707 0.5918,-1.58057 0.8276,-2.12352 0.2356,-0.54297 0.4331,-0.9254 0.5939,-1.16039 0.1609,-0.23522 0.2857,-0.3227 0.3781,-0.27556 0.092,0.0486 0.151,0.22794 0.1801,0.53062 0.029,0.3023 0.029,0.72629 1e-4,1.25831 -0.029,0.53201 -0.083,1.17227 -0.1613,1.9077 -0.079,0.7354 -0.181,1.56598 -0.3052,2.4786 -0.124,0.91265 -0.2683,1.9074 -0.4311,2.97109 -0.1629,1.06377 -0.3436,2.19649 -0.539,3.38516 -0.1961,1.18864 -0.4062,2.43324 -0.6286,3.7207 -0.2226,1.28747 -0.4569,2.6178 -0.7005,3.97786 -0.2433,1.36008 -0.818,3.36746 -1.3986,5.39156 -0.5805,2.02408 -1.051,4.09158 -1.4343,5.49183 -0.8615,3.14743 -1.6707,5.70298 -2.4023,8.36484 -0.7317,2.66189 -1.5,5.39656 -2.6223,8.80175 -1.1224,3.40516 -2.2765,6.8634 -3.4575,10.35482 -1.181,3.49142 -2.389,7.01609 -3.619,10.55417 -1.2301,3.53808 -2.4822,7.08957 -3.7515,10.63469 -1.2693,3.54516 -2.5559,7.0839 -3.8547,10.59648 -1.2988,3.51257 -2.6101,6.99897 -3.9287,10.43947 -1.3186,3.44045 -2.6448,6.83495 -3.9735,10.16367 -1.3287,3.32874 -2.7263,6.6548 -4.1629,9.93476 -1.4367,3.27996 -2.9124,6.5138 -4.3976,9.65808 -1.4852,3.14429 -2.9798,6.19898 -4.4541,9.12061 -1.4744,2.92164 -2.9285,5.71027 -4.3326,8.32238 -1.4042,2.61208 -2.7296,4.96846 -3.9445,7.04941 -1.2148,2.08098 -2.3192,3.88656 -3.2811,5.39714 -0.9619,1.51063 -1.8475,2.78933 -2.5258,3.72202 -0.6783,0.93265 -1.2155,1.58222 -1.2816,1.64536 -0.066,0.063 -0.5092,0.5722 -1.1699,1.32327 -0.6606,0.75112 -1.539,1.74425 -2.476,2.77542 -0.9369,1.03113 -1.9655,2.13187 -2.9762,3.14546 -1.0108,1.01366 -2.0038,1.94017 -2.8696,2.62296 -0.8656,0.68278 -1.7321,1.39074 -2.6096,2.10944 -0.8775,0.71874 -1.7661,1.44828 -2.6759,2.17426 -0.9099,0.72599 -1.8411,1.44848 -2.8039,2.15309 -0.9627,0.70459 -1.9571,1.39136 -2.9934,2.04586 -1.0363,0.65455 -2.0526,1.33211 -3.0716,2.0185 -1.0192,0.68632 -2.041,1.38141 -3.0882,2.07079 -1.0473,0.68946 -2.1199,1.3732 -3.2407,2.03692 -1.1209,0.66373 -2.2898,1.30745 -3.5296,1.91675 -1.2398,0.60933 -2.503,1.16051 -3.8003,1.65706 -1.2973,0.49655 -2.6289,0.93837 -4.0054,1.32896 -1.3765,0.39074 -2.7981,0.72993 -4.2755,1.02142 -1.4774,0.2916 -6.2193,0.62743 -4.6106,0.73451 2.9826,0.19872 5.9401,-0.39805 8.8559,-0.86022 2.9158,-0.4622 5.7945,-1.09517 8.6335,-1.8851 2.8389,-0.78995 5.6381,-1.73673 8.3947,-2.82645 2.7567,-1.08969 5.4709,-2.32229 8.1399,-3.68388 2.6691,-1.3615 5.293,-2.85198 7.8691,-4.45743 2.576,-1.6054 5.1042,-3.32575 7.5819,-5.14714 2.4776,-1.82136 4.9048,-3.74371 7.2787,-5.75307 2.3739,-2.00936 4.6946,-4.10573 6.9594,-6.27512 2.2648,-2.16942 4.4736,-4.41187 6.6239,-6.71337 2.1503,-2.3015 4.2419,-4.66206 6.2723,-7.06776 2.0304,-2.40562 3.9994,-4.8564 5.9046,-7.33829 1.9051,-2.48186 3.7462,-4.99484 5.5207,-7.52499 1.7744,-2.53012 3.4822,-5.07742 5.1207,-7.62786 1.6384,-2.55049 3.2075,-5.10413 4.7046,-7.64698 1.497,-2.54286 2.922,-5.07484 4.2722,-7.58208 1.3503,-2.50728 2.204,-5.24641 3.8239,-7.43352 0.8404,-1.13466 -0.8361,2.74187 -1.3177,4.15035 -0.4816,1.40849 -1.0014,2.83981 -1.5469,4.2875 -0.5454,1.44774 -1.1165,2.91191 -1.7008,4.38598 -0.5843,1.47415 -1.1817,2.9582 -1.7797,4.44581 -0.598,1.48759 -1.1967,2.97864 -1.7835,4.46677 -0.5867,1.48813 -1.1616,2.97331 -1.712,4.44908 -0.5505,1.4758 -1.0765,2.94215 -1.5656,4.39266 -0.4891,1.45053 -0.9413,2.8852 -1.344,4.29752 -0.4029,1.41235 -0.6816,2.84256 -0.852,4.26906 -0.1705,1.42652 -0.2323,2.84933 -0.2011,4.24696 0.029,1.39764 0.1555,2.77014 0.3572,4.09591 0.2022,1.32581 0.4816,2.60486 0.8237,3.81577 0.3421,1.21088 0.718,2.33498 1.1338,3.36472 0.416,1.02975 0.8716,1.96515 1.3732,2.79864 0.5015,0.83344 0.8843,1.54048 1.4012,2.15026 0.5168,0.60977 1.6865,1.34477 2.2055,1.56696 0.5188,0.22212 1.4718,0.30909 2.5515,0.26586 1.0798,-0.0439 2.2863,-0.21773 3.3124,-0.51687 1.0264,-0.29938 1.7992,-0.66256 2.4481,-1.02687 0.6488,-0.3645 1.1737,-0.72984 1.7042,-1.03408 0.5616,-0.3222 1.3804,-0.99119 2.3676,-1.85691 0.9872,-0.8657 2.1427,-1.92798 3.3779,-3.03642 1.2352,-1.10843 2.5405,-2.33887 3.8175,-3.61682 1.2771,-1.27798 2.5259,-2.60344 3.6483,-3.90184 1.1223,-1.29843 2.2579,-2.73998 3.3886,-4.27962 1.1307,-1.53965 2.2564,-3.1774 3.359,-4.86841 1.1025,-1.69097 2.182,-3.43508 3.2202,-5.18737 1.0381,-1.75228 2.0349,-3.51277 2.9722,-5.23645 0.9372,-1.7237 1.8362,-3.49931 2.6628,-5.21532 0.8266,-1.71601 1.5808,-3.37248 2.2284,-4.8578 0.6476,-1.48531 1.2099,-2.88825 1.6209,-3.96421 0.4112,-1.07601 0.6929,-1.91348 0.7132,-2.00241 0.019,-0.0889 0.055,-0.2605 0.079,-0.41456 0.023,-0.15408 0.039,-0.29063 0.019,-0.30958 -0.019,-0.0194 -0.057,0.0338 -0.124,0.19785 -0.067,0.16182 -0.1611,0.4306 -0.2883,0.84102 -0.1277,0.41018 -0.278,0.91713 -0.4496,1.52137 -0.1717,0.60426 -0.3645,1.30574 -0.5763,2.10512 -0.2119,0.79933 -0.4432,1.69654 -0.692,2.6921 -0.2488,0.99558 -0.515,2.08951 -0.7969,3.28239 -0.2819,1.1929 -0.5683,2.50515 -0.8537,3.89641 -0.2854,1.39132 -0.5695,2.86156 -0.8471,4.37045 -0.2776,1.5089 -0.6623,3.09431 -1.0347,4.678 -0.3723,1.58368 -0.7327,3.16561 -0.9612,4.6674 -0.2284,1.50178 -0.467,2.63704 -0.6817,3.70595 -0.2147,1.06895 -0.4063,2.07153 -0.54,3.30795 -0.1336,1.23638 -0.1961,2.4746 -0.1976,3.47539 0,1.00076 0.1101,1.90751 0.1634,2.05086 0.053,0.14346 0.1595,0.56304 0.3068,1.04811 0.1476,0.48502 0.3354,1.03543 0.5532,1.44027 0.2177,0.40483 0.4868,0.83757 0.8032,1.25722 0.3162,0.41991 0.6804,0.82631 1.0887,1.17904 0.4083,0.35284 0.8612,0.68389 1.3555,0.97691 0.4943,0.29306 1.0301,0.54783 1.6042,0.7479 0.5741,0.20024 1.1866,0.34555 1.8342,0.41942 0.6477,0.0738 1.3307,0.0763 2.0458,-0.0108 0.7151,-0.0855 1.5276,-0.30569 2.4101,-0.63471 0.8826,-0.32951 1.8351,-0.76797 2.8304,-1.29082 0.9952,-0.52283 2.0331,-1.12999 3.0862,-1.79631 1.0532,-0.66629 2.1215,-1.3918 3.1777,-2.15131 1.0561,-0.75956 2.1652,-1.63198 3.251,-2.53308 1.0858,-0.9011 2.1483,-1.83085 3.1113,-2.70508 0.9629,-0.87428 1.825,-1.78124 2.479,-2.50911 0.6538,-0.7279 1.1644,-1.35547 1.2296,-1.43424 0.065,-0.0788 0.4738,-0.55632 1.0666,-1.32266 0.593,-0.76636 1.3702,-1.82156 2.1723,-3.05577 0.8022,-1.2342 1.7283,-2.67737 2.7342,-4.26931 1.0059,-1.59201 2.0918,-3.3327 3.2133,-5.162 1.1216,-1.82931 2.3115,-3.78661 3.55,-5.84124 1.2385,-2.05466 2.5256,-4.20667 3.8416,-6.4254 1.3161,-2.21874 2.661,-4.50421 4.0153,-6.82578 1.3542,-2.32161 2.7176,-4.6793 4.0707,-7.04241 1.353,-2.36313 2.7281,-4.77117 4.1178,-7.20823 1.3897,-2.43704 2.794,-4.90316 4.2054,-7.38243 1.4115,-2.47928 2.83,-4.97174 4.2482,-7.4615 1.4182,-2.4898 2.836,-4.97689 4.246,-7.44552 1.4099,-2.46865 2.812,-4.91872 4.1988,-7.33443 1.3867,-2.41567 2.758,-4.79701 4.1067,-7.1281 1.3486,-2.33111 2.6743,-4.61202 3.9697,-6.82686 1.2954,-2.2148 2.5698,-4.35811 3.7878,-6.43041 0.3563,-0.6063 0.7558,-1.38642 1.2143,-2.29272 0.4583,-0.90628 0.9667,-1.94423 1.5123,-3.08239 0.5455,-1.13818 1.1285,-2.37659 1.7365,-3.68388 0.6079,-1.30723 1.241,-2.68346 1.8869,-4.09707 0.6459,-1.41363 1.3045,-2.86479 1.9636,-4.32205 0.6592,-1.45734 1.3188,-2.92072 1.9666,-4.35888 0.6478,-1.43818 1.2838,-2.85108 1.8958,-4.20741 0.6119,-1.35628 1.1998,-2.65596 1.7512,-3.86764 0.5515,-1.21171 1.0666,-2.33541 1.533,-3.33974 0.4666,-1.00433 0.8842,-1.88928 1.241,-2.62354 0.3567,-0.73424 0.6526,-1.31772 0.8752,-1.71911 0.2226,-0.40143 0.3718,-0.62067 0.4355,-0.6265 0.064,-0.004 0.044,0.20174 -0.078,0.65439 -0.1197,0.45246 -0.3373,1.14987 -0.6649,2.12349 -0.3275,0.9736 -0.7655,2.22343 -1.3258,3.78088 -0.5602,1.55744 -1.258,3.41698 -2.0603,5.62646 -0.9894,2.725 -1.9843,5.46108 -3.0244,8.19213 -1.0401,2.73101 -2.1102,5.4624 -3.2045,8.19433 -1.0943,2.73195 -2.2128,5.46444 -3.3495,8.19762 -1.1369,2.73321 -2.292,5.46716 -3.4596,8.20193 -1.1675,2.73481 -2.3476,5.47051 -3.5342,8.20723 -1.1867,2.73675 -2.3799,5.47461 -3.5739,8.2136 -1.194,2.739 -2.3887,5.47927 -3.5783,8.22088 -1.1897,2.74167 -2.3742,5.48469 -3.5477,8.22928 -1.1736,2.7446 -2.3363,5.49079 -3.482,8.23867 -1.1458,2.74792 -2.2748,5.49754 -3.3811,8.24908 -1.1064,2.75155 -2.19,5.50497 -3.2452,8.26045 -1.055,2.75551 -2.0817,5.51315 -3.0738,8.27293 -0.9922,2.75985 -1.95,5.52189 -2.8676,8.28635 -0.9177,2.76448 -1.795,5.53136 -2.6263,8.30079 -0.8312,2.76943 -1.6164,5.54146 -2.3497,8.31623 -0.7332,2.77483 -1.9938,5.48363 -2.0379,8.33276 -0.019,1.2647 1.2157,-2.21553 1.8522,-3.30354 0.6365,-1.08799 1.2915,-2.16322 1.9632,-3.22704 0.6717,-1.06376 1.3601,-2.11604 2.0633,-3.15812 0.7033,-1.04209 1.4214,-2.07396 2.1527,-3.09693 0.7311,-1.02294 1.4755,-2.03694 2.231,-3.0433 0.7556,-1.00634 1.5224,-2.00498 2.2987,-2.9973 0.7762,-0.99231 1.562,-1.97822 2.3555,-2.95897 0.7934,-0.98078 1.5944,-1.95644 2.4014,-2.92828 0.8069,-0.97182 1.6688,-2.00174 2.5654,-3.06783 0.8965,-1.06608 1.8278,-2.16833 2.7736,-3.28482 0.9458,-1.11645 1.9061,-2.24706 2.8607,-3.36988 0.9546,-1.12286 1.9035,-2.23793 2.8265,-3.32327 0.923,-1.08533 1.8692,-2.20286 2.7815,-3.28419 0.9124,-1.0813 1.7908,-2.1264 2.5785,-3.06681 0.7877,-0.94041 1.5336,-1.83814 2.1071,-2.53177 0.5734,-0.69361 1.0236,-1.24513 1.0727,-1.30705 0.049,-0.0617 0.415,-0.46364 1.0088,-1.10272 0.5939,-0.63896 1.416,-1.51502 2.3776,-2.52552 0.9616,-1.01049 2.0873,-2.1863 3.3252,-3.47134 1.238,-1.28498 2.5882,-2.67917 3.9988,-4.12628 1.4107,-1.44708 2.9063,-2.97812 4.4535,-4.56005 1.5472,-1.58193 3.146,-3.21475 4.763,-4.86554 1.617,-1.65075 3.2521,-3.31947 4.872,-4.97308 1.6199,-1.65364 3.2246,-3.29216 4.7806,-4.8827 1.556,-1.5905 3.0879,-3.16391 4.5716,-4.6989 1.4836,-1.53497 2.9188,-3.03152 4.2816,-4.46823 1.3628,-1.43672 2.653,-2.8136 3.8465,-4.10934 1.1936,-1.29568 2.2904,-2.51014 3.2663,-3.62211 0.9758,-1.11191 1.8307,-2.12128 2.5405,-3.00674 0.7098,-0.88543 1.2745,-1.64691 1.6698,-2.26308 0.3951,-0.61618 0.6212,-1.08706 0.6536,-1.39124 0.034,-0.30424 -0.2313,-0.65547 -0.5078,-0.39123 -1.1872,1.13481 -2.0492,2.58055 -3.086,3.87871 -1.0368,1.29822 -2.0815,2.60104 -3.1331,3.90663 -1.0517,1.3056 -2.1103,2.61391 -3.175,3.92308 -1.0647,1.30914 -2.1356,2.61915 -3.2116,3.92811 -1.076,1.30894 -2.1573,2.61682 -3.2429,3.92177 -1.0856,1.30491 -2.1755,2.60685 -3.2688,3.904 -1.0934,1.29711 -2.1902,2.58941 -3.2896,3.87486 -1.0994,1.28552 -2.2013,2.56419 -3.305,3.83427 -1.1036,1.27004 -2.2089,2.53141 -3.3151,3.78223 -1.1061,1.25082 -2.213,2.49106 -3.3199,3.71882 -1.1068,1.22778 -2.2136,2.44301 -3.3194,3.64394 -1.1058,1.20088 -2.2107,2.38743 -3.3138,3.55771 -1.103,1.17024 -2.2041,2.32425 -3.3026,3.46002 -1.0985,1.13583 -2.1942,2.25344 -3.2863,3.35102 -1.0921,1.09753 -2.1806,2.17505 -3.2646,3.2305 -1.0841,1.05548 -2.7913,1.69365 -3.2377,3.09859 -0.2826,0.88889 1.0531,1.58062 1.642,2.38703 0.5889,0.80642 1.2173,1.62348 1.8795,2.45096 0.6622,0.82744 1.3582,1.66523 2.0822,2.51316 0.7241,0.84785 1.4761,1.70578 2.2504,2.57358 0.7743,0.86776 1.5709,1.74539 2.3839,2.63248 0.813,0.88713 1.6425,1.78379 2.4827,2.68962 0.8402,0.90587 1.6911,1.821 2.5469,2.74503 0.8559,0.92407 1.7166,1.8571 2.5765,2.79879 0.86,0.94167 1.7191,1.89205 2.5715,2.85077 0.8525,0.95877 1.6983,1.92591 2.5318,2.90116 0.8334,0.97528 1.6545,1.95864 2.4574,2.94984 0.803,0.99116 1.5877,1.99012 2.3486,2.99668 0.7608,1.00656 1.4977,2.02063 2.2049,3.042 0.7072,1.02134 1.3847,2.04995 2.0267,3.08552 0.642,1.03558 1.2485,2.07814 1.8138,3.12743 0.5653,1.04926 0.4219,3.38209 1.5663,3.16755 1.7021,-0.31932 2.1371,-2.82557 3.1841,-4.39297 1.0468,-1.56739 2.0829,-3.23082 3.1191,-4.96899 1.0364,-1.73819 2.0729,-3.55117 3.1208,-5.4176 1.0478,-1.86648 2.1069,-3.78647 3.1884,-5.73873 1.0815,-1.95226 2.1852,-3.9368 3.3225,-5.93237 1.1371,-1.99555 2.3077,-4.00215 3.5228,-5.9985 1.215,-1.99638 2.4744,-3.98253 3.7893,-5.93722 1.3149,-1.95473 2.6853,-3.87798 4.1222,-5.74856 1.4369,-1.87056 2.9404,-3.68843 4.5213,-5.43236 1.581,-1.74391 3.2396,-3.41384 4.9868,-4.98865 1.7472,-1.57476 3.5829,-3.05434 5.5183,-4.41754 1.9355,-1.36317 3.9706,-2.60991 6.1164,-3.71896 2.1458,-1.10905 4.4022,-2.08046 6.7804,-2.89291 2.3783,-0.81246 4.8783,-1.46602 7.5111,-1.93939 2.6327,-0.47336 5.3983,-0.76662 8.3077,-0.85842 2.9095,-0.0918 6.0332,-0.39609 9.1709,0.34992 2.4763,0.58869 -5.0036,-0.15156 -7.3915,0.0389 -2.3878,0.19289 -4.6996,0.55915 -6.9348,1.07979 -2.2353,0.52061 -4.3938,1.19595 -6.4753,2.00737 -2.0816,0.81139 -4.086,1.75889 -6.0129,2.82386 -1.927,1.06497 -3.7763,2.24746 -5.5476,3.52899 -1.7714,1.28155 -3.4646,2.66202 -5.0794,4.12303 -1.6147,1.46099 -3.1509,3.00247 -4.6081,4.60587 -1.4572,1.60341 -2.8354,3.26875 -4.1341,4.97747 -1.2987,1.70872 -2.5178,3.4609 -3.6571,5.23791 -1.1392,1.77702 -2.1984,3.57891 -3.1772,5.38717 -0.9787,1.80822 -1.877,3.62279 -2.6944,5.42523 -0.8173,1.80236 -1.5537,3.59255 -2.2086,5.35202 -0.6549,1.75946 -1.2285,3.48822 -1.7201,5.16774 -0.4915,1.67951 -0.9012,3.30975 -1.2284,4.87224 -0.3271,1.56244 -0.5721,3.05714 -0.734,4.4655 -0.1617,1.40839 -0.3777,2.73862 -0.2366,3.94765 0.17,1.46009 0.7068,2.72718 1.1946,3.877 0.4878,1.14982 1.0616,2.16027 1.7109,3.04072 0.6492,0.88044 1.3738,1.63082 2.163,2.26048 0.7893,0.62966 1.6431,1.13864 2.5509,1.53623 0.9079,0.39754 1.8697,0.68385 2.8748,0.86806 1.0051,0.18425 2.0534,0.26633 3.1343,0.25611 1.0809,-0.0108 2.1943,-0.11376 3.3297,-0.29985 1.1353,-0.18662 2.2926,-0.45637 3.4609,-0.79972 1.1686,-0.3436 2.3895,-0.81954 3.6369,-1.39656 1.2473,-0.57703 2.5209,-1.25516 3.7948,-2.0031 1.2738,-0.74797 2.5611,-1.59264 3.8223,-2.47602 1.2613,-0.88341 2.4964,-1.80553 3.6658,-2.70832 1.1695,-0.90281 2.083,-1.69339 2.9232,-2.47997 0.8403,-0.7866 1.6074,-1.56926 2.484,-2.45621 0.8698,-0.88003 1.6346,-1.69896 2.2899,-2.43761 0.6553,-0.73872 1.4171,-1.67697 1.633,-1.95664 0.2158,-0.27946 0.866,-1.1354 1.5598,-2.09368 0.6939,-0.95836 1.4314,-2.01924 1.8223,-2.70927 0.4087,-0.72146 0.7758,-1.42064 1.1202,-2.09178 0.3446,-0.67122 0.6662,-1.31451 0.9842,-1.92413 0.5107,-0.97935 0.9425,-1.66155 1.3738,-2.40412 0.4311,-0.74253 0.8619,-1.54541 1.3704,-2.76595 0.5084,-1.2206 1.1639,-2.40298 1.8197,-3.60913 0.6558,-1.20621 1.3118,-2.43617 1.8212,-3.75192 0.5093,-1.31576 1.1084,-2.69652 1.7221,-4.11183 0.6137,-1.4153 1.2419,-2.86509 1.8093,-4.31877 0.5675,-1.45374 1.1131,-3.0132 1.6746,-4.59965 0.5616,-1.58648 1.1389,-3.2 1.7699,-4.76183 0.631,-1.5618 1.2067,-3.17376 1.7998,-4.80528 0.593,-1.63148 1.2033,-3.28259 1.9032,-4.9226 0.6999,-1.64004 1.076,-3.35286 1.4707,-5.07777 0.3946,-1.7249 -0.2751,-5.13601 1.5822,-5.15028 1.7039,-0.0144 -0.6032,3.46044 -1.0204,5.30946 -0.417,1.84901 -0.905,3.77102 -1.445,5.74736 -0.5399,1.97638 -1.1319,4.00713 -1.7571,6.07365 -0.6252,2.06647 -1.2838,4.16877 -1.9569,6.28816 -0.6731,2.11939 -1.3607,4.25595 -2.0442,6.39099 -0.6834,2.1351 -1.3626,4.2687 -2.019,6.38222 -0.6564,2.11351 -1.2898,4.20691 -1.8814,6.26163 -0.5918,2.0547 -1.1419,4.07073 -1.6315,6.0294 -0.4897,1.95869 -0.919,3.85999 -1.269,5.68541 -0.3499,1.82542 -0.6211,3.57494 -0.7942,5.22986 -0.173,1.65487 -0.2485,3.21524 -0.2069,4.66244 0.044,1.44716 0.1998,2.78118 0.4931,3.9834 0.2935,1.20216 0.7223,2.27262 1.3051,3.19262 0.5829,0.92005 1.3197,1.68962 2.2295,2.29023 0.9098,0.60055 1.9925,1.03212 3.2667,1.27609 1.2742,0.24397 2.762,0.45976 4.4161,0.15012 1.2559,-0.23522 2.4226,-0.93026 3.6178,-1.60085 1.1952,-0.6706 2.3793,-1.47285 3.5512,-2.39047 1.172,-0.91762 2.3318,-1.95064 3.4785,-3.08289 1.1467,-1.13228 2.2802,-2.3638 3.3996,-3.67834 1.1193,-1.31458 2.1889,-2.71219 3.2255,-4.17663 1.0366,-1.46446 2.0403,-2.99579 3.0277,-4.57783 0.9874,-1.58202 1.9586,-3.21475 2.9304,-4.88196 0.9718,-1.66723 1.9442,-3.36903 2.9339,-5.08907 0.9897,-1.72004 1.8841,-3.5059 2.7206,-5.31767 0.8365,-1.8117 1.6151,-3.64932 2.3736,-5.4729 0.7583,-1.82354 1.4964,-3.63306 2.2517,-5.38866 0.7554,-1.75557 1.528,-3.4572 2.3554,-5.065 0.8273,-1.60778 1.5968,-3.1691 2.3252,-4.66787 0.7283,-1.49882 1.4154,-2.93501 2.0782,-4.29246 0.6628,-1.35745 1.3012,-2.63615 1.9321,-3.8199 0.6309,-1.18376 1.2636,-2.26646 1.8865,-3.25023 0.586,-0.92543 1.1905,-1.90955 1.7639,-2.8328 0.5734,-0.92324 1.1063,-1.79163 1.5207,-2.50357 0.4146,-0.71199 0.7104,-1.26759 0.81,-1.56522 0.1,-0.29744 0,-0.33729 -0.3689,-0.0194 -0.3713,0.31978 -0.8269,0.85069 -1.347,1.5638 -0.5202,0.71312 -1.1049,1.60837 -1.7341,2.65682 -0.6293,1.04841 -1.3031,2.25003 -2.0015,3.57579 -0.6984,1.32577 -1.4214,2.77569 -2.149,4.32079 -0.7277,1.54508 -1.4124,3.27901 -2.0462,5.14343 -0.6338,1.86449 -1.2166,3.85952 -1.7404,5.92706 -0.5237,2.06751 -0.9885,4.20751 -1.3861,6.36174 -0.3975,2.15429 -0.7281,4.32282 -0.9835,6.44758 -0.2553,2.12468 -0.3169,4.1686 -0.2537,6.06276 0.063,1.89412 0.2518,3.63843 0.4956,5.16393 0.2439,1.52544 0.5909,2.92577 0.9007,3.99148 0.3097,1.06571 0.6295,1.89058 0.6774,1.98394 0.049,0.0938 0.3059,0.63821 0.7188,1.42292 0.4131,0.78469 0.9814,1.80936 1.6493,2.86301 0.6679,1.05365 1.4591,2.18307 2.3536,3.24738 0.8946,1.06427 1.8927,2.06339 2.9744,2.85654 1.0816,0.79312 2.1935,1.5516 3.3307,2.23794 1.137,0.68633 2.2993,1.30043 3.4819,1.80485 1.1825,0.50439 2.3852,0.89906 3.6031,1.14642 1.2179,0.24739 2.4509,0.3475 3.6942,0.26244 1.2433,-0.0851 2.4687,-0.27411 3.6794,-0.57818 1.2107,-0.30375 2.4065,-0.72249 3.5906,-1.2654 1.1841,-0.54292 2.3565,-1.21018 3.5201,-2.01175 1.1637,-0.80156 2.3186,-1.73736 3.4678,-2.81729 1.1492,-1.07995 2.2469,-2.26465 3.2563,-3.45264 1.0095,-1.18798 1.9306,-2.37922 2.7267,-3.47212 0.7961,-1.09296 1.5044,-2.16096 2.0323,-2.99245 0.5279,-0.83151 0.912,-1.50019 0.9499,-1.57324 0.039,-0.0738 0.2796,-0.53631 0.6203,-1.23323 0.3412,-0.69689 0.7816,-1.62779 1.2157,-2.63713 0.434,-1.00931 0.8803,-2.13384 1.2612,-3.27297 0.3811,-1.13919 0.6965,-2.293 0.8691,-3.36098 0.1726,-1.06798 0.3514,-2.17582 0.5141,-3.30694 0.1631,-1.1311 0.3098,-2.28546 0.4185,-3.44646 0.1089,-1.16102 0.1791,-2.32868 0.1903,-3.48637 0.01,-1.15772 -0.039,-2.30546 -0.1709,-3.42664 -0.1315,-1.12126 -0.3217,-2.28222 -0.5713,-3.44905 -0.2498,-1.16678 -0.5591,-2.33941 -0.9296,-3.48385 -0.3709,-1.14447 -0.8026,-2.26071 -1.2978,-3.31486 -0.4952,-1.05408 -1.0535,-2.04606 -1.6769,-2.94181 -0.623,-0.8953 -1.4061,-1.7718 -2.2918,-2.61623 -0.8856,-0.84436 -1.8738,-1.65668 -2.9068,-2.42352 -1.033,-0.76687 -2.111,-1.48829 -3.1762,-2.151 -1.0652,-0.66271 -2.0703,-1.3657 -3.1001,-1.79858 -1.888,-0.79369 -3.4875,-1.31551 -4.7741,-1.87344 -1.2866,-0.55796 -2.3,-1.04976 -3.1353,-1.47643 -0.8353,-0.42671 -1.4924,-0.78818 -2.0662,-1.08567 -0.5739,-0.29743 -1.0646,-0.53091 -1.5669,-0.70133 -0.5023,-0.17064 -0.8502,-0.29549 -1.0557,-0.38589 -0.2054,-0.0898 -0.2682,-0.14472 -0.2004,-0.1746 0.067,-0.0292 0.2663,-0.0338 0.5834,-0.0194 0.3172,0.0108 0.7531,0.0389 1.2959,0.07 0.5428,0.0292 1.1925,0.0684 1.9372,0.10116 0.7447,0.0338 1.5843,0.0603 2.5071,0.0738 0.9227,0.0144 1.9287,0.0144 3.0058,-0.0144 1.0771,-0.0245 2.2254,-0.0763 3.4332,-0.16128 1.2076,-0.0851 2.4746,-0.20455 3.7891,-0.36839 1.3145,-0.1638 2.6764,-0.37227 4.0739,-0.6348 1.3976,-0.26293 2.8307,-0.57989 4.2874,-0.96145 1.4568,-0.38153 2.9228,-0.87088 4.4295,-1.3479 0.9121,-0.28868 1.8605,-0.50241 2.801,-0.7706 0.9405,-0.26827 1.8858,-0.54707 2.8297,-0.83538 0.9438,-0.28818 1.8863,-0.58591 2.8212,-0.89136 0.9348,-0.30571 1.8622,-0.61889 2.7758,-0.93861 0.9137,-0.31978 1.8135,-0.64594 2.6936,-0.97705 0.88,-0.33097 1.7402,-0.66725 2.5744,-1.00676 0.8341,-0.33972 1.6422,-0.68253 2.4181,-1.02759 0.7759,-0.34506 1.5197,-0.69211 2.2251,-1.03977 0.7054,-0.34747 1.3724,-0.69579 1.9949,-1.04304 0.6226,-0.34749 1.2006,-0.69361 1.728,-1.03761 0.5275,-0.34409 1.0042,-0.68559 1.4241,-1.02341 0.4199,-0.33779 0.7831,-0.67176 1.0832,-1.00039 0.3004,-0.32853 0.5373,-0.65201 0.7054,-0.96861 0.1681,-0.31637 0.2667,-0.6264 0.2906,-0.92799 0.023,-0.30183 -0.029,-0.59506 -0.1607,-0.87876 -0.133,-0.28383 -0.3475,-0.55766 -0.6498,-0.82057 m 79.3766,-85.83017 c 0.7693,-0.8174 1.5352,-1.63404 2.2972,-2.44687 0.7621,-0.8129 1.5202,-1.62203 2.2743,-2.42436 0.754,-0.80234 1.5038,-1.59797 2.2491,-2.38378 0.7452,-0.78583 1.486,-1.56191 2.2218,-2.32517 0.7359,-0.76332 1.4668,-1.5138 2.1926,-2.24854 0.7257,-0.73472 1.4462,-1.45366 2.1611,-2.15381 0.7149,-0.70011 1.4242,-1.38148 2.1276,-2.041 0.7033,-0.65956 1.4008,-1.29731 2.0919,-1.91021 0.6911,-0.6129 1.376,-1.20102 2.0542,-1.76132 0.6781,-0.56032 1.3497,-1.09278 2.0143,-1.59442 0.6645,-0.50166 1.3221,-0.97249 1.9723,-1.40951 0.6502,-0.4369 1.293,-0.84013 1.9283,-1.20645 0.6352,-0.36645 1.2626,-0.69576 1.882,-0.98534 0.6194,-0.28966 1.2308,-0.53937 1.8338,-0.74626 0.6029,-0.20715 1.1976,-0.37084 1.7834,-0.48906 0.5858,-0.11808 1.1626,-0.22259 1.7309,-0.21384 1.0817,0.0144 2.0316,0.32027 2.8631,0.78901 0.8316,0.46899 1.5439,1.13555 2.1479,1.97507 0.604,0.83955 1.0996,1.85198 1.4977,3.01266 0.3981,1.1606 0.6987,2.46945 0.9126,3.90175 0.2139,1.43224 0.3412,2.98798 0.3927,4.64242 0.052,1.65445 0.029,3.40758 -0.063,5.2347 -0.09,1.82706 -0.244,3.72816 -0.4524,5.67843 -0.2085,1.95031 -0.471,3.94983 -0.7772,5.9738 -0.3061,2.02401 -0.6742,4.12447 -1.0869,6.25716 -0.4126,2.13271 -0.8695,4.29766 -1.3528,6.45057 -0.4831,2.15294 -0.993,4.29392 -1.511,6.37862 -0.5181,2.08466 -1.0445,4.11311 -1.5613,6.04109 -0.5168,1.92795 -1.043,3.8074 -1.5464,5.55511 -0.5034,1.74773 -0.984,3.36369 -1.4095,4.76469 -0.4258,1.40101 -0.815,2.63898 -1.1076,3.55277 -0.2925,0.91377 -0.5071,1.55534 -0.5264,1.60731 -0.019,0.052 -0.1918,0.58249 -0.4831,1.48977 -0.2912,0.90721 -0.7004,2.19119 -1.1926,3.75003 -0.4922,1.55883 -1.0767,3.41852 -1.7324,5.51628 -0.6557,2.09777 -1.3826,4.43359 -2.1595,6.9447 -0.7768,2.51111 -1.6132,5.22344 -2.495,8.09376 -0.8818,2.87026 -1.8091,5.89852 -2.7678,9.04134 -0.9587,3.14284 -1.9487,6.40033 -2.9562,9.72911 -1.0074,3.32876 -2.0322,6.72885 -3.0603,10.15695 -1.0281,3.4281 -2.0691,6.91013 -3.1123,10.41264 -1.0433,3.50251 -2.089,7.02542 -3.1265,10.53527 -1.0375,3.50981 -2.0668,7.00649 -3.0776,10.45649 -1.0108,3.44995 -2.003,6.85323 -2.9661,10.1763 -0.9631,3.32304 -1.8971,6.56583 -2.7915,9.69473 -0.8945,3.12896 -1.7494,6.1441 -2.5542,9.01184 -0.8049,2.86775 -1.5596,5.58814 -2.2539,8.12753 -0.6943,2.5394 -2.8277,9.05079 -1.8909,7.04185 1.4376,-3.08279 2.1614,-6.54774 3.2732,-9.93996 1.1118,-3.39223 2.2429,-6.85818 3.3891,-10.38222 1.1463,-3.5241 2.3076,-7.10629 3.4798,-10.73099 1.1723,-3.62468 2.3553,-7.29184 3.5451,-10.98594 1.1897,-3.69407 2.3861,-7.41508 3.5849,-11.14736 1.1988,-3.73234 2.3999,-7.47589 3.5993,-11.21525 1.1994,-3.73928 2.3969,-7.47428 3.5884,-11.18935 1.1915,-3.7151 2.3769,-7.4103 3.552,-11.06997 1.1751,-3.65969 2.3862,-7.41459 3.6117,-11.20021 1.2253,-3.7856 2.4651,-7.60183 3.6977,-11.38406 1.2326,-3.78222 2.458,-7.53045 3.6546,-11.17995 1.1966,-3.64952 2.3644,-7.20039 3.4819,-10.58789 1.1176,-3.38752 2.2309,-6.74253 3.284,-9.90223 1.053,-3.1597 2.0457,-6.1241 2.9219,-8.73054 0.8761,-2.60636 1.6819,-4.98553 2.2918,-6.77849 0.6098,-1.79295 1.0689,-3.1309 1.1161,-3.2613 0.049,-0.1314 0.3257,-0.77196 0.7648,-1.72258 0.4394,-0.95061 1.0388,-2.2106 1.7253,-3.5791 0.6865,-1.36841 1.4832,-2.91074 2.3519,-4.52396 0.8688,-1.61325 1.8095,-3.29747 2.7838,-4.94976 0.9744,-1.65233 2.0056,-3.3381 3.0725,-5.00359 1.0671,-1.66541 2.17,-3.31052 3.2877,-4.88147 1.1178,-1.57094 2.2505,-3.06774 3.3772,-4.4365 1.1266,-1.36877 2.2472,-2.60957 3.3409,-3.66858 1.0936,-1.05898 2.1988,-1.83416 3.2973,-2.35894 1.0986,-0.52479 2.1906,-0.79923 3.2581,-0.85681 1.0674,-0.0572 2.1103,0.10152 3.1106,0.4442 1.0002,0.34263 1.9578,0.86873 2.8547,1.54471 0.897,0.67597 1.7486,1.66926 2.5254,2.82078 0.7768,1.15153 1.4787,2.46135 2.0762,3.77038 0.5975,1.30905 0.954,2.82269 1.1689,4.09281 0.2147,1.27006 0.3036,2.46402 0.3188,2.63149 0.014,0.16722 0.1109,1.07075 0.1253,2.50421 0.014,1.43351 -0.052,3.39714 -0.3597,5.68534 -0.3081,2.28812 -0.6983,4.94651 -1.1682,7.857 -0.4699,2.91051 -1.0194,6.07316 -1.6463,9.36985 -0.6268,3.29668 -1.1621,6.75738 -1.7587,10.38056 -0.5966,3.62315 -1.2544,7.40869 -2.1265,11.35507 -0.8719,3.94635 -1.7433,8.08038 -2.6593,12.2662 -0.9162,4.18581 -1.8771,8.42345 -2.9282,12.57698 -1.0511,4.15356 -2.1579,8.30677 -3.2825,12.51621 -1.1245,4.2095 -2.2667,8.47521 -3.3887,12.85389 -1.122,4.37861 -2.1726,8.69137 -3.2188,13.0126 -1.0462,4.32122 -2.0878,8.65091 -3.1916,13.06319 -1.1037,4.41234 -2.6095,10.28992 -4.0885,16.12809 -1.4788,5.83818 -2.931,11.63695 -3.9274,15.89159 -0.9965,4.25462 -2.1449,8.14214 -3.2443,11.94242 -1.0993,3.80024 -4.349,7.68575 -2.9497,11.41881 1.144,3.0519 2.5192,-7.54987 3.9442,-12.25026 1.4249,-4.7004 2.8719,-9.61342 4.0767,-13.52605 1.2049,-3.91266 2.2815,-7.69824 3.3832,-11.62445 1.1016,-3.9262 2.2283,-7.99305 3.5335,-12.46833 1.3051,-4.47527 2.8646,-9.20707 4.4522,-14.00749 1.5876,-4.80046 3.2032,-9.6696 4.6205,-14.41948 1.4174,-4.74988 2.8643,-9.53246 4.3421,-14.31167 1.4779,-4.77924 2.9867,-9.55518 4.5281,-14.29172 1.5413,-4.73655 3.25,-9.54649 5.0767,-14.35158 1.8269,-4.80508 3.7719,-9.60525 5.786,-14.32231 2.0141,-4.71704 4.0974,-9.35094 6.2009,-13.82344 2.1033,-4.47251 4.2268,-8.78364 6.3213,-12.85501 2.0945,-4.0714 4.2948,-8.01588 6.4509,-11.67057 2.1559,-3.65472 4.2677,-7.01962 6.1849,-9.93198 1.9173,-2.91235 3.509,-5.02927 4.6889,-6.47444 1.1798,-1.44513 2.0825,-2.33125 2.2173,-2.444 0.1346,-0.11268 0.8775,-0.8694 1.7867,-1.67379 0.9092,-0.80431 1.9849,-1.65629 2.7855,-1.95959 0.8007,-0.30326 1.6594,-0.56982 2.5016,-0.74349 0.8421,-0.17352 1.6677,-0.25417 2.4021,-0.18619 0.7342,0.0684 1.4447,0.22939 2.1071,0.49714 0.6624,0.26777 1.2768,0.64205 1.819,1.13694 0.5421,0.49494 1.0122,1.11036 1.3859,1.86026 0.3737,0.74994 0.6511,1.63431 0.808,2.66708 0.1569,1.0328 0.2219,2.28526 0.2108,3.70235 -0.011,1.41701 -0.098,2.99869 -0.2449,4.6899 -0.1467,1.69122 -0.3558,3.49189 -0.6092,5.34692 -0.2537,1.85506 -0.5525,3.76444 -0.8801,5.67322 -0.3276,1.9087 -0.7231,3.94443 -1.1419,5.95627 -0.419,2.01179 -0.8608,3.99978 -1.2812,5.81294 -0.4204,1.81317 -0.8581,3.57933 -1.2102,4.95599 -0.3519,1.37664 -0.6571,2.49158 -0.6959,2.61924 -0.039,0.1278 -0.2147,0.70497 -0.4753,1.55962 -0.2601,0.8547 -0.6045,1.98677 -0.9793,3.22409 -0.3747,1.23732 -0.7997,2.64364 -1.2502,4.14256 -0.4505,1.49897 -0.9266,3.09053 -1.4042,4.69832 -0.4777,1.60773 -0.9757,3.29551 -1.4849,5.0348 -0.5093,1.73927 -1.0295,3.52996 -1.5509,5.34362 -0.5214,1.81365 -1.044,3.65026 -1.5581,5.4812 -0.514,1.83091 -1.0195,3.65623 -1.5067,5.4474 -0.4871,1.79109 -0.9754,3.61195 -1.4621,5.45778 -0.4868,1.84582 -0.9722,3.71673 -1.4537,5.60804 -0.4816,1.89137 -0.9589,3.80309 -1.43,5.73073 -0.471,1.92755 -0.9358,3.87097 -1.3917,5.82558 -0.4558,1.95458 -0.9026,3.92047 -1.3381,5.89289 -0.4355,1.97249 -0.8596,3.95152 -1.2697,5.93255 -0.4102,1.98104 -0.8064,3.96401 -1.1864,5.94443 -0.38,1.98039 -0.7434,3.95818 -1.088,5.92869 -0.3446,1.97055 -0.682,3.86856 -1.0083,5.69992 -0.3261,1.8313 -0.6416,3.59591 -0.9422,5.29967 -0.3004,1.70379 -0.5866,3.34659 -0.8541,4.93441 -0.2673,1.58781 -0.5165,3.12055 -0.7434,4.60409 -0.2268,1.48351 -0.4316,2.91775 -0.6107,4.30857 -0.179,1.39079 -0.332,2.73823 -0.4559,4.04799 -0.1233,1.30984 -0.2177,2.58202 -0.2786,3.82246 -0.061,1.24034 -0.089,2.44901 -0.079,3.63162 0.011,1.18269 0.056,2.33937 0.1428,3.47588 0.087,1.1365 0.2149,2.25289 0.3873,3.35491 0.1721,1.10205 0.3888,2.18972 0.6535,3.26892 0.2647,1.07921 0.5773,2.14987 0.9419,3.21786 0.3645,1.06798 0.781,2.13329 1.2529,3.20172 0.4719,1.06842 0.9994,2.13996 1.5861,3.22043 0.5866,1.08047 1.3122,2.16493 2.1557,3.19068 0.8436,1.02575 2.3346,2.41571 2.8641,2.8386 0.5293,0.42282 1.5169,0.94997 2.6607,1.38802 1.1438,0.43787 2.4438,0.78701 3.598,0.85368 1.1542,0.0666 2.308,0.0342 3.4725,-0.0846 1.1644,-0.1206 2.3394,-0.33048 3.536,-0.62262 1.1966,-0.29206 2.4149,-0.66551 3.6658,-1.11294 1.2508,-0.44712 2.5342,-0.96849 3.8613,-1.55552 1.3271,-0.58703 2.6978,-1.23998 4.1231,-1.9508 1.4253,-0.71088 2.9053,-1.47964 4.4509,-2.29846 1.5455,-0.81875 3.098,-1.68759 4.6463,-2.59848 1.5483,-0.91091 3.0926,-1.8639 4.6216,-2.85107 1.5291,-0.98716 3.0429,-2.0085 4.5307,-3.05608 1.4876,-1.04751 2.9492,-2.12134 4.3735,-3.21343 1.4244,-1.0921 2.8115,-2.20255 4.1504,-3.32334 1.339,-1.12083 2.6296,-2.252 3.8611,-3.38568 1.2315,-1.13369 2.4037,-2.26981 3.5057,-3.40045 1.102,-1.13069 2.1336,-2.25581 3.0841,-3.36765 0.6521,-0.76292 1.3366,-1.59023 2.0408,-2.47304 0.7042,-0.88283 1.4281,-1.82115 2.1593,-2.80609 0.731,-0.98491 1.4693,-2.01644 2.2022,-3.08574 0.7328,-1.06926 1.4603,-2.1762 2.1697,-3.31204 0.7094,-1.1358 1.4009,-2.30045 2.0618,-3.48502 0.6608,-1.18458 1.2912,-2.38903 1.8783,-3.60457 0.5872,-1.21554 1.1313,-2.44209 1.6196,-3.67081 0.4882,-1.22868 0.9208,-2.4595 1.285,-3.68357 0.3645,-1.22409 0.6603,-2.44138 0.8754,-3.64306 0.2155,-1.2017 0.3494,-2.38768 0.3902,-3.54915 0.039,-1.1615 -0.011,-2.29846 -0.1704,-3.40193 -0.159,-1.10349 -0.4238,-2.17353 -0.8069,-3.20126 -0.3835,-1.02771 -0.8189,-2.07004 -1.3857,-3.06114 -0.5667,-0.99104 -1.2646,-1.93093 -2.1726,-2.75371 -0.9081,-0.82281 -1.7796,-1.53804 -2.8075,-2.18424 -1.0278,-0.64619 -2.212,-1.22336 -3.7455,-1.77005 -0.9624,-0.34312 -2.146,-0.53548 -3.3044,-0.59775 -1.1584,-0.0623 -2.2916,0.004 -3.1531,0.18274 -0.8617,0.1773 -1.6985,0.47336 -2.5109,0.8771 -0.8125,0.40385 -1.6006,0.91527 -2.3647,1.52313 -0.7641,0.60788 -1.5043,1.31214 -2.221,2.10161 -0.7166,0.78946 -1.4097,1.66415 -2.0797,2.61277 -0.67,0.94867 -1.3169,1.9713 -1.9411,3.0567 -0.6242,1.08539 -1.2257,2.23355 -1.8049,3.4332 -0.5793,1.19968 -1.1362,2.45091 -1.6713,3.74243 -0.5351,1.29152 -1.0483,2.62339 -1.5401,3.9843 -0.4918,1.36093 -0.9621,2.75096 -1.4115,4.15879 -0.449,1.40789 -0.8776,2.83362 -1.2853,4.26597 -0.4078,1.43238 -0.7948,2.87138 -1.1617,4.30585 -0.367,1.43444 -0.7136,2.86429 -1.0406,4.27835 -0.327,1.41406 -0.6341,2.81234 -0.9219,4.18356 -0.2877,1.37122 -0.6136,2.70574 -0.8058,4.02136 -0.3075,2.10379 -0.4209,4.10134 -0.5183,5.97578 -0.097,1.87447 -0.1202,3.63345 -0.072,5.28297 0.049,1.64954 0.1652,3.18956 0.3499,4.62614 0.1847,1.43658 0.436,2.76973 0.7501,4.00533 0.3143,1.23566 0.6912,2.37382 1.1273,3.42052 0.4359,1.04668 0.9312,2.00192 1.4816,2.87163 0.5504,0.86974 1.1561,1.654 1.8131,2.35874 0.6571,0.7048 1.3656,1.33009 2.1218,1.8819 0.7562,0.55179 1.56,1.03012 2.4077,1.44099 0.8477,0.41067 1.7392,0.75418 2.6707,1.03606 0.9316,0.28188 1.9032,0.50225 2.911,0.66717 1.0078,0.16488 2.0519,0.2741 3.1284,0.33437 1.0765,0.0598 2.1854,0.0709 3.323,0.0389 1.1375,-0.0338 2.3037,-0.10926 3.4948,-0.22454 1.1909,-0.1152 2.4067,-0.26681 3.6436,-0.44955 1.2369,-0.18273 2.5127,-0.3159 3.77,-0.63694 1.329,-0.33923 2.6466,-0.87043 4.0146,-1.3529 1.3681,-0.48258 2.7638,-0.99565 4.1808,-1.53724 1.417,-0.5416 2.8552,-1.11159 4.3082,-1.70773 1.453,-0.59607 2.9208,-1.21829 4.397,-1.8643 1.476,-0.64598 2.9606,-1.31572 4.4469,-2.00692 1.4864,-0.69124 2.9746,-1.4039 4.4583,-2.13574 1.4836,-0.73181 2.9627,-1.48273 4.4307,-2.25052 1.4681,-0.76777 2.9251,-1.55238 4.3647,-2.3515 1.4395,-0.79913 2.8999,-1.66796 4.3593,-2.58344 1.4593,-0.91546 2.9176,-1.87765 4.353,-2.86354 1.4354,-0.98586 2.8479,-1.99539 4.2156,-3.00557 1.3678,-1.01016 2.6907,-2.02099 3.9471,-3.00951 1.2563,-0.98849 2.3115,-1.81516 3.2898,-2.61025 0.9784,-0.79517 2.3545,-1.98976 2.829,-2.42093 0.4743,-0.43108 1.3433,-1.31967 2.2007,-2.2187 0.8574,-0.89899 1.9178,-2.04478 2.1323,-2.28118 0.2143,-0.23619 0.642,-0.72565 1.0936,-1.25874 0.4514,-0.53308 0.9274,-1.10997 1.2385,-1.52172 0.596,-0.78883 1.2255,-1.69725 1.8828,-2.69116 0.6574,-0.99387 1.3427,-2.07322 2.0502,-3.20391 0.7076,-1.13069 1.4257,-2.32625 2.1273,-3.56223 0.7015,-1.23594 1.3863,-2.51237 2.0272,-3.80481 0.6409,-1.29245 1.2379,-2.60087 1.7636,-3.90092 0.5259,-1.3 0.9805,-2.59159 1.3366,-3.85033 0.3562,-1.25874 0.6455,-2.51222 0.8519,-3.74634 0.206,-1.23413 0.3295,-2.4489 0.3528,-3.63027 0.023,-1.18136 -0.053,-2.32926 -0.2443,-3.42965 -0.1922,-1.10041 -0.5002,-2.15329 -0.9408,-3.14457 -0.4403,-0.99109 -0.9846,-2.0061 -1.6774,-2.9455 -0.6927,-0.93938 -1.534,-1.80311 -2.569,-2.49172 -1.0349,-0.68861 -2.253,-1.32118 -3.658,-1.79026 -1.4049,-0.46901 -2.9966,-0.77479 -4.7785,-0.80955 -0.6013,-0.0108 -1.4209,0.0108 -2.2982,0.13464 -0.8773,0.12636 -1.8122,0.35964 -2.6441,0.77513 -0.8319,0.41551 -1.6652,0.95587 -2.4959,1.61143 -0.8307,0.65551 -1.6588,1.42607 -2.4801,2.30165 -0.8214,0.87557 -1.6361,1.85614 -2.44,2.93155 -0.804,1.07546 -1.5972,2.24575 -2.3756,3.50084 -0.7785,1.2551 -1.5421,2.595 -2.287,4.0096 -0.7448,1.41459 -1.4709,2.90396 -2.1741,4.45785 -0.7032,1.55392 -1.3834,3.17244 -2.0368,4.84549 -0.6534,1.67308 -1.2799,3.4007 -1.8754,5.17271 -0.5955,1.77205 -1.16,3.58852 -1.6896,5.43935 -0.5295,1.85085 -1.0241,3.73603 -1.4796,5.64543 -0.4554,1.90946 -0.872,3.84315 -1.2453,5.79103 -0.3733,1.94784 -0.7036,3.90991 -0.9867,5.87603 -0.2835,1.96612 -0.4379,3.81993 -0.487,5.631 -0.049,1.81107 0.077,4.47706 0.1458,5.37467 0.069,0.89764 0.2774,2.61061 0.6005,4.4104 0.323,1.7998 0.7617,3.68641 1.2923,4.9312 0.5307,1.24485 1.1056,2.39854 1.7249,3.46382 0.6194,1.06527 1.283,2.04202 1.991,2.93286 0.708,0.89084 1.4604,1.6958 2.2571,2.41742 0.7968,0.7216 1.6379,1.35986 2.5234,1.91732 0.8855,0.55743 1.8154,1.03416 2.7898,1.43273 0.9742,0.39852 1.993,0.71885 3.0561,0.96352 1.0383,0.23912 2.1836,0.32418 3.4144,0.26489 1.2308,-0.0592 2.5471,-0.26341 3.9279,-0.60217 1.3808,-0.33872 2.8259,-0.81317 4.3142,-1.41322 1.4883,-0.60006 3.0198,-1.326 4.5732,-2.1684 1.5534,-0.84238 3.3025,-2.00439 5.0956,-3.32437 1.7933,-1.32005 3.6306,-2.79795 5.3607,-4.27221 1.73,-1.47422 3.5264,-3.1478 4.9771,-4.55443 1.4508,-1.40665 2.7296,-2.74936 2.9032,-2.95256 0.1737,-0.20325 0.8399,-1.02398 1.7823,-2.22554 0.9423,-1.20157 2.1608,-2.7838 3.4394,-4.50979 1.2785,-1.72593 2.7039,-3.69714 4.1901,-5.82894 1.4862,-2.13174 3.0332,-4.42411 4.5551,-6.79237 1.5219,-2.3683 3.1056,-4.91404 4.7301,-7.6288 1.6245,-2.71476 3.2898,-5.59848 4.9753,-8.64271 1.6854,-3.04422 3.3909,-6.24896 5.0956,-9.6057 1.7047,-3.35677 3.4085,-6.86549 5.0908,-10.51773 1.6822,-3.65223 3.392,-7.39028 5.1247,-11.19015 1.7328,-3.79992 3.4885,-7.6617 5.2628,-11.56156 1.7742,-3.89986 3.567,-7.83772 5.3737,-11.78982 1.8067,-3.95204 3.6274,-7.91831 5.4575,-11.87489 1.8302,-3.95656 3.6698,-7.90346 5.5144,-11.81684 1.8446,-3.91336 3.6942,-7.79319 5.5443,-11.61568 1.85,-3.82245 3.7005,-7.58749 5.5469,-11.27132 1.8465,-3.68382 3.5476,-7.36412 5.5227,-10.78385 1.2184,-2.10964 -2.2171,4.53515 -3.4088,7.0263 -1.1918,2.49113 -2.4344,5.1239 -3.7141,7.87586 -1.2798,2.75199 -2.5966,5.62328 -3.9366,8.59142 -1.3401,2.96815 -2.7034,6.03324 -4.0762,9.17286 -1.3729,3.13961 -2.7551,6.35383 -4.133,9.62022 -1.3779,3.26643 -2.7514,6.58501 -4.1068,9.9335 -1.3554,3.34849 -2.6926,6.72689 -3.9978,10.11274 -1.3053,3.38591 -2.5785,6.77936 -3.806,10.15792 -1.2275,3.37859 -2.4092,6.74241 -3.5313,10.06902 -1.1221,3.32662 -2.1846,6.61607 -3.1737,9.84602 -0.9891,3.2299 -1.9048,6.40037 -2.7332,9.48895 -0.8285,3.08857 -1.5697,6.09531 -2.2099,8.99781 -0.6402,2.90248 -1.1794,5.70083 -1.6038,8.37263 -0.4243,2.67172 -0.7339,5.21699 -0.9147,7.61331 -0.1808,2.39634 -0.2333,4.64379 -0.143,6.72003 0.091,2.07619 0.2848,3.9903 0.712,5.69257 0.2421,0.96455 0.5666,1.88055 0.8624,2.77899 0.2958,0.89847 0.6007,1.76909 0.9171,2.61192 0.3162,0.8428 0.6443,1.65788 0.9859,2.44529 0.3417,0.78742 0.6972,1.54719 1.0688,2.27934 0.3718,0.73222 0.7593,1.43681 1.1655,2.11397 0.4063,0.67714 0.8308,1.32682 1.2763,1.94909 0.4452,0.62232 0.9117,1.21724 1.401,1.78488 0.4894,0.56771 1.0018,1.10808 1.5397,1.62125 0.5379,0.51321 1.1697,1.0045 1.872,1.47211 0.7022,0.46753 1.475,0.91134 2.295,1.32944 0.82,0.41796 1.6872,0.8106 2.5783,1.17549 0.8911,0.36499 1.806,0.70233 2.7215,1.01025 0.9156,0.30813 1.9001,0.59175 2.879,0.84553 0.9788,0.2537 1.952,0.47776 2.8449,0.66563 0.893,0.18813 1.7741,0.34556 2.4662,0.45831 0.692,0.11322 1.2634,0.18706 1.3317,0.19246 0.068,0.004 0.3694,0.002 0.8108,-0.0144 0.4413,-0.0144 1.0226,-0.0436 1.6515,-0.0952 0.6287,-0.0497 1.3392,-0.11574 2.09,-0.20023 0.7507,-0.0851 1.5417,-0.18814 2.3316,-0.31252 0.79,-0.12402 1.613,-0.26633 2.4534,-0.42671 0.8404,-0.16056 1.6982,-0.33825 2.5576,-0.53415 0.8594,-0.19591 1.7205,-0.4097 2.5676,-0.64119 0.847,-0.23134 1.68,-0.48064 2.4832,-0.7478 0.8031,-0.26681 1.6107,-0.54898 2.4198,-0.84495 0.8091,-0.29598 1.6196,-0.60595 2.4288,-0.9288 0.8092,-0.32271 1.617,-0.65857 2.4205,-1.00611 0.8035,-0.34751 1.6027,-0.70695 2.3947,-1.07709 0.792,-0.37033 1.5767,-0.75101 2.3514,-1.14152 0.7747,-0.39074 1.5393,-0.7907 2.2909,-1.19954 0.7516,-0.40872 1.4902,-0.8262 2.2129,-1.25114 0.7228,-0.42477 1.4295,-0.85741 2.1175,-1.29638 m -60.7491,-84.70213 c 1.4768,1.01379 2.9945,1.97148 4.5474,2.87091 1.5531,0.8994 3.1414,1.74053 4.7597,2.52131 1.6183,0.78082 3.2665,1.50127 4.9391,2.15925 1.6726,0.658 3.3697,1.25355 5.0856,1.78462 1.716,0.53104 3.451,0.99751 5.1994,1.39738 1.7484,0.39998 3.5104,0.73314 5.2803,0.99767 1.77,0.26438 3.5479,0.46022 5.3284,0.58534 1.7805,0.12492 3.5635,0.17928 5.3437,0.16056 1.7801,-0.0194 3.5573,-0.11034 5.326,-0.27702 1.7689,-0.16668 3.5292,-0.40824 5.2757,-0.72668 1.7465,-0.31881 3.4792,-0.71422 5.1925,-1.1891 1.7133,-0.4748 3.4072,-1.02895 5.0764,-1.66426 1.6692,-0.63529 3.3135,-1.35185 4.9275,-2.15175 1.614,-0.79985 3.1979,-1.68313 4.7459,-2.65182 1.5481,-0.9687 3.0603,-2.02282 4.5313,-3.16443 1.4711,-1.14167 2.9009,-2.37087 4.284,-3.68968"
     id="path3275"
     style="fill:none;stroke:#000000;stroke-width:4.86000013px;stroke-linecap:butt;stroke-linejoin:miter;stroke-opacity:1" />
</svg>
