<?xml version="1.0" encoding="UTF-8" standalone="no"?>
<!-- Created with Inkscape (http://www.inkscape.org/) -->

<svg
   xmlns:dc="http://purl.org/dc/elements/1.1/"
   xmlns:cc="http://creativecommons.org/ns#"
   xmlns:rdf="http://www.w3.org/1999/02/22-rdf-syntax-ns#"
   xmlns:svg="http://www.w3.org/2000/svg"
   xmlns="http://www.w3.org/2000/svg"
   version="1.1"
   width="1029.5891"
   height="733.04431"
   id="svg2">
  <defs
     id="defs4" />
  <metadata
     id="metadata7">
    <rdf:RDF>
      <cc:Work
         rdf:about="">
        <dc:format>image/svg+xml</dc:format>
        <dc:type
           rdf:resource="http://purl.org/dc/dcmitype/StillImage" />
        <dc:title></dc:title>
      </cc:Work>
    </rdf:RDF>
  </metadata>
  <path
     d="m 22.952624,693.69696 c -2.518322,-5.61274 3.493345,-5.34722 4.918419,-8.19737 0.244398,-0.4888 -0.244398,-1.15068 0,-1.63947 0.345631,-0.69126 1.293842,-0.94821 1.639473,-1.63947 0.244398,-0.4888 -0.244398,-1.15068 0,-1.63948 0.345631,-0.69126 1.293842,-0.94821 1.639473,-1.63947 0.244398,-0.4888 -0.386427,-1.25305 0,-1.63947 0.386428,-0.38643 1.253046,-0.38643 1.639473,0 0.386428,0.38642 0,1.09298 0,1.63947 0,3.82544 0,7.65087 0,11.47631 0,0.54649 -0.386427,1.25305 0,1.63947 0.386428,0.38643 1.253046,0.38643 1.639473,0 0.386428,-0.38642 -0.386427,-1.25304 0,-1.63947 0.386428,-0.38643 1.150677,0.2444 1.639473,0 3.624966,-1.81248 0.508764,-1.01753 1.639473,-3.27895 3.411548,-6.82309 -0.113182,1.75266 3.278947,-1.63947 0.386427,-0.38643 -0.244399,-1.15068 0,-1.63947 3.411547,-6.8231 -0.113182,1.75265 3.278946,-1.63947 0.386427,-0.38643 -0.386428,-1.25305 0,-1.63948 0.386427,-0.38643 1.253046,0.38643 1.639473,0 0.386428,-0.38643 -0.386427,-1.25304 0,-1.63947 3.287376,-3.28738 -0.302316,3.4301 3.278946,1.63947 6.823095,-3.41155 -1.752655,0.11318 1.639473,-3.27894 0.386428,-0.38643 1.150677,0.24439 1.639473,0 0.435298,-0.21765 4.700771,-4.48313 4.91842,-4.91842 0.244398,-0.4888 -0.386428,-1.25305 0,-1.63948 2.250257,-2.25025 1.639473,2.89319 1.639473,3.27895 0,0.85731 0.215543,6.12681 0,6.55789 -0.345631,0.69126 -1.293842,0.94821 -1.639473,1.63948 -0.244398,0.48879 0,1.09298 0,1.63947 0,0.54649 -0.386428,1.25304 0,1.63947 0.386427,0.38643 1.253045,0.38643 1.639473,0 0.386427,-0.38643 -0.244398,-1.15068 0,-1.63947 0.691262,-1.38253 2.587684,-1.89642 3.278946,-3.27895 0.244398,-0.48879 -0.244398,-1.15067 0,-1.63947 0.691263,-1.38253 2.587684,-1.89642 3.278946,-3.27895 0.244399,-0.48879 -0.244398,-1.15067 0,-1.63947 0.437808,-0.87562 4.055295,-4.0553 4.91842,-4.91842 2.732455,-2.73245 5.46491,-5.46491 8.197365,-8.19737 0.546491,-0.54649 0.996419,-1.21077 1.639473,-1.63947 2.033516,-1.35568 4.602707,-1.81256 6.557893,-3.27894 1.236568,-0.92743 2.185964,-2.18597 3.278946,-3.27895 0.546491,-0.54649 0.94821,-1.29384 1.639473,-1.63947 0.488796,-0.2444 1.150677,0.24439 1.639473,0 0.691263,-0.34564 0.948211,-1.29385 1.639473,-1.63948 0.488797,-0.2444 1.639473,-0.54649 1.639473,0 0,0.77286 -1.293841,0.94821 -1.639473,1.63948 -0.244398,0.48879 0,1.09298 0,1.63947 -0.546491,1.09298 -0.961634,2.26219 -1.639473,3.27895 -0.428703,0.64305 -1.395075,0.90627 -1.639473,1.63947 -0.345631,1.03689 0.265087,2.2186 0,3.27894 -1.188713,4.75486 -1.279077,1.91862 -3.278946,4.91842 -0.677839,1.01676 -0.961635,2.26219 -1.639473,3.27895 -0.428703,0.64305 -1.293842,0.94821 -1.639473,1.63947 -0.244399,0.4888 0.172815,1.12103 0,1.63948 -0.386428,1.15928 -1.253046,2.11966 -1.639473,3.27894 -0.172816,0.51845 0.386427,1.25305 0,1.63948 -0.386428,0.38642 -1.253046,-0.38643 -1.639474,0 -0.386427,0.38642 -0.546491,1.63947 0,1.63947 3.43901,0 -0.160063,-4.91842 3.278947,-4.91842 0.546491,0 0,1.09298 0,1.63947 0,0.60208 -0.06597,6.49192 0,6.5579 0.386427,0.38642 1.092982,0 1.639473,0 0.546491,0 1.092982,0 1.639473,0 0.546491,0 1.253045,0.38642 1.639473,0 3.392128,-3.39213 -5.183621,0.1326 1.639473,-3.27895 0.488796,-0.2444 1.253046,0.38643 1.639473,0 0.386428,-0.38643 0,-2.18597 0,-1.63947 0,0.68966 -0.243851,9.34913 0,9.83683 1.01295,2.02591 1.582882,1.63948 3.278946,1.63948 0.546491,0 1.092982,0 1.639473,0 0.546492,0 1.150677,0.2444 1.639474,0 0.4353,-0.21765 4.70077,-4.48312 4.91842,-4.91842 0.2444,-0.4888 -0.54649,-1.63947 0,-1.63947 0.54649,0 -0.2444,1.15067 0,1.63947 0.34563,0.69126 1.29384,0.94821 1.63947,1.63947 0.4888,0.97759 -0.77285,2.50609 0,3.27895 0.38643,0.38643 1.25305,-0.38643 1.63948,0 0.38642,0.38643 -0.38643,1.25304 0,1.63947 0.2312,0.23121 4.58211,0.16815 4.91841,0 0.69127,-0.34563 1.09299,-1.09298 1.63948,-1.63947 0.54649,-0.54649 1.29384,-0.94821 1.63947,-1.63948 0.2444,-0.48879 -0.2444,-1.15067 0,-1.63947 0.34563,-0.69126 1.39508,-0.90628 1.63947,-1.63947 0.2938,-0.88139 0,-5.16983 0,-6.55789 0,-6.01141 0,-12.02281 0,-18.03421 0,-0.38959 -0.18372,-6.19044 0,-6.55789 0.34564,-0.69126 1.29385,-0.94821 1.63948,-1.63947 0.65579,-1.31158 -0.65579,-3.60684 0,-4.91842 0.2444,-0.4888 1.25304,0.38642 1.63947,0 0.77286,-0.77286 -0.77286,-2.50609 0,-3.27895 0.38643,-0.38643 1.25305,-0.38643 1.63947,0 0.38643,0.38643 -0.38642,1.25305 0,1.63947 0.38643,0.38643 1.15068,-0.24439 1.63948,0 1.96736,0.98369 2.95105,3.93474 4.91842,4.91842 0.97759,0.4888 2.30135,-0.48879 3.27894,0 0.69126,0.34563 0.94821,1.29384 1.63947,1.63948 0.4888,0.24439 1.25305,-0.38643 1.63948,0 0.38643,0.38642 0,1.09298 0,1.63947 0,1.09298 0.34563,2.24205 0,3.27895 -0.38643,1.15928 -1.25305,2.11966 -1.63948,3.27894 -0.17281,0.51845 0.17282,1.12103 0,1.63947 -0.38642,1.15929 -1.34309,2.09345 -1.63947,3.27895 0,10.8749 0.77286,-2.31856 -1.63947,4.91842 -0.34563,1.03689 0.34563,2.24205 0,3.27895 -2.0259,6.0777 -1.63947,-1.99844 -1.63947,3.27894 0,1.63948 0,3.27895 0,4.91842 0,0.54649 0.54649,1.63948 0,1.63948 -0.5465,0 -0.2444,-1.15068 0,-1.63948 0.34563,-0.69126 1.29384,-0.94821 1.63947,-1.63947 0.2444,-0.4888 -0.2444,-1.15068 0,-1.63947 0.34563,-0.69127 1.29384,-0.94821 1.63947,-1.63948 0.2444,-0.48879 -0.2444,-1.15067 0,-1.63947 0.69126,-1.38253 2.58769,-1.89642 3.27895,-3.27895 0.2444,-0.48879 -0.38643,-1.25304 0,-1.63947 0.38643,-0.38643 1.15067,0.2444 1.63947,0 0.42684,-0.21342 1.99733,-2.92109 3.27895,-1.63947 0.23121,0.2312 0.16815,4.58211 0,4.91842 -0.34563,0.69126 -1.39508,0.90627 -1.63948,1.63947 -0.34563,1.03689 0,2.18596 0,3.27895 0,0.54649 0.2444,1.15067 0,1.63947 -0.34563,0.69126 -1.29384,0.94821 -1.63947,1.63947 -0.2444,0.4888 -0.54649,1.63948 0,1.63948 0.77286,0 1.09298,-1.09299 1.63947,-1.63948 3.75905,-3.75904 -0.69126,1.0369 3.27895,-4.91842 0.4287,-0.64305 1.21077,-0.99642 1.63947,-1.63947 0.67784,-1.01676 0.96164,-2.26219 1.63948,-3.27895 0.8574,-1.28611 2.42154,-1.99283 3.27894,-3.27894 0.67784,-1.01676 0.96164,-2.26219 1.63948,-3.27895 1.50361,-2.25542 2.52924,-1.68616 4.91842,-3.27895 0.64305,-0.4287 0.99641,-1.21077 1.63947,-1.63947 3.50525,-2.33683 7.63594,-3.38227 11.47631,-4.91842 3.35093,-1.34037 6.60754,-3.30377 9.83684,-4.91842 2.18596,-1.09298 4.37193,-2.18596 6.55789,-3.27894 1.09298,-0.54649 2.26219,-0.96164 3.27895,-1.63948 0.64305,-0.4287 0.94821,-1.29384 1.63947,-1.63947 0.43307,-0.21653 5.42367,-0.50525 3.27895,1.63947 -0.38643,0.38643 -1.25305,-0.38642 -1.63948,0 -0.77285,0.77286 0.77286,2.50609 0,3.27895 -0.38642,0.38643 -1.25304,-0.38643 -1.63947,0 -0.38643,0.38643 0.38643,1.25305 0,1.63947 -0.38643,0.38643 -1.25305,-0.38642 -1.63947,0 -0.38643,0.38643 0.38642,1.25305 0,1.63948 -0.77286,0.77285 -2.30136,-0.4888 -3.27895,0 -1.38252,0.69126 -1.89642,2.58768 -3.27895,3.27894 -0.48879,0.2444 -1.25304,-0.38643 -1.63947,0 -0.86408,0.86408 -0.96163,2.26219 -1.63947,3.27895 -1.28611,1.92916 -3.52728,3.06357 -4.91842,4.91842 -0.7332,0.97759 -1.09298,2.18596 -1.63947,3.27894 -1.09299,2.18597 -2.18597,4.37193 -3.27895,6.5579 -0.54649,1.09298 -1.09298,2.18596 -1.63947,3.27894 -0.54649,1.09298 -1.3431,2.09344 -1.63948,3.27895 -0.26508,1.06035 0.34564,2.24205 0,3.27895 -0.24439,0.73319 -1.39507,0.90627 -1.63947,1.63947 -0.34563,1.03689 0,2.18596 0,3.27894 0,0.5465 0,1.09299 0,1.63948 0,0.54649 -0.38643,1.25304 0,1.63947 0.38643,0.38643 1.15068,0.2444 1.63947,0 3.62497,-1.81248 0.50877,-1.01753 1.63948,-3.27895 0.69126,-1.38252 2.58768,-1.89642 3.27894,-3.27894 0.2444,-0.4888 -0.24439,-1.15068 0,-1.63947 0.34563,-0.69127 1.29385,-0.94822 1.63948,-1.63948 0.24439,-0.48879 -0.54649,-1.63947 0,-1.63947 0.54649,0 -0.2444,1.15068 0,1.63947 0.34563,0.69126 1.29384,0.94821 1.63947,1.63948 0.4888,0.97759 -0.77286,2.50609 0,3.27894 0.16395,0.16395 4.75447,0.16395 4.91842,0 0.38643,-0.38643 -0.38643,-1.25304 0,-1.63947 0.38643,-0.38643 1.15068,0.2444 1.63947,0 0.69126,-0.34563 1.09298,-1.09298 1.63947,-1.63947 0.5465,-0.5465 1.29385,-0.94822 1.63948,-1.63948 0.2444,-0.48879 -0.54649,-1.63947 0,-1.63947 0.54649,0 -0.2444,1.15068 0,1.63947 0.34563,0.69126 1.29384,0.94821 1.63947,1.63948 1.03115,2.0623 -2.35461,3.27894 1.63947,3.27894 2.00128,0 3.7806,0.63618 4.91842,-1.63947 0.2444,-0.4888 -0.38642,-1.25305 0,-1.63947 0.38643,-0.38643 1.25305,0.38642 1.63948,0 0.77285,-0.77286 -0.77286,-4.05181 0,-3.27895 0.86407,0.86408 1.25304,2.11966 1.63947,3.27895 0.17282,0.51844 -0.38643,1.25304 0,1.63947 0.38643,0.38643 1.09298,0 1.63947,0 3.14363,0 2.53824,0.74071 4.91842,-1.63947 0.86313,-0.86313 4.48061,-4.04281 4.91842,-4.91842 0.4888,-0.9776 -0.48879,-2.30136 0,-3.27895 0.34563,-0.69126 1.29384,-0.94821 1.63947,-1.63947 0.2444,-0.4888 0,-1.09299 0,-1.63948 0,-1.09298 0,-2.18596 0,-3.27894 0,-4.37193 0,-8.74386 0,-13.11579 0,-0.54649 0,-1.09298 0,-1.63947 0,-0.54649 0.2444,-1.15068 0,-1.63947 -0.34563,-0.69127 -1.29384,-0.94821 -1.63947,-1.63948 -0.32502,-0.65003 0.33517,-4.58325 0,-4.91842 -0.38643,-0.38642 -1.25304,0.38643 -1.63947,0 -0.38643,-0.38642 0,-2.18596 0,-1.63947 0,7.46335 -0.77286,0.0938 1.63947,4.91842 0.2444,0.4888 -0.17281,1.12103 0,1.63947 1.98119,5.94357 0.77787,1.16681 3.27895,4.91842 1.35568,2.03352 1.92327,4.52438 3.27894,6.55789 2.50108,3.75162 1.29776,-1.02514 3.27895,4.91842 0.17282,0.51845 -0.2444,1.15068 0,1.63948 0.34563,0.69126 1.29384,0.94821 1.63947,1.63947 0.18373,0.36746 0,6.1683 0,6.55789 0,0.85732 0.21555,6.12681 0,6.5579 -2.0259,4.0518 -1.63947,-0.56591 -1.63947,3.27894 0,0.54649 -0.38643,2.0259 0,1.63947 0.86408,-0.86407 0.7754,-2.41486 1.63947,-3.27894 0.38643,-0.38643 1.15068,0.2444 1.63948,0 1.87952,-0.93976 2.28052,-3.42078 3.27894,-4.91842 0.85741,-1.28611 2.58769,-1.89642 3.27895,-3.27895 0.2444,-0.48879 -0.38643,-1.25304 0,-1.63947 0.38643,-0.38643 1.25304,0.38643 1.63947,0 0.38643,-0.38643 -0.54649,-1.63947 0,-1.63947 0.54649,0 0,1.09298 0,1.63947 0,0.54649 0,1.09298 0,1.63947 0,2.18597 0,4.37193 0,6.5579 0,0.54649 0,1.09298 0,1.63947 0,0.54649 -0.54649,1.63947 0,1.63947 0.77286,0 1.29384,-0.94821 1.63948,-1.63947 0.24439,-0.4888 -0.2444,-1.15068 0,-1.63947 0.34563,-0.69127 1.39507,-0.90628 1.63947,-1.63948 0.34563,-1.03689 -0.34563,-2.24205 0,-3.27894 0.2444,-0.7332 1.29384,-0.94821 1.63947,-1.63948 0.2444,-0.48879 -0.2444,-1.15067 0,-1.63947 0.34563,-0.69126 1.29384,-0.94821 1.63947,-1.63947 0.4888,-0.9776 -0.77285,-2.50609 0,-3.27895 0.38643,-0.38643 1.25305,0.38643 1.63948,0 0.38643,-0.38643 -0.38643,-1.25305 0,-1.63947 0.38643,-0.38643 1.25304,0.38642 1.63947,0 0.38643,-0.38643 -0.38643,-1.25305 0,-1.63948 0.38643,-0.38642 1.15068,0.2444 1.63947,0 0.99402,-0.497 5.85575,-6.03128 6.5579,-6.55789 0.97759,-0.73319 2.41486,-0.77539 3.27894,-1.63947 0.86408,-0.86408 0.90628,-2.30135 1.63948,-3.27895 0.92742,-1.23657 2.18596,-2.18596 3.27894,-3.27894 1.09298,-1.09299 2.04238,-2.35152 3.27895,-3.27895 0.97759,-0.73319 2.26219,-0.96163 3.27894,-1.63947 0.64306,-0.42871 0.99642,-1.21077 1.63948,-1.63948 1.01676,-0.67784 2.26219,-0.96163 3.27894,-1.63947 2.65486,-1.7699 1.1506,-3.27895 4.91842,-3.27895 0.54649,0 1.25305,-0.38642 1.63948,0 0.38642,0.38643 0.24439,1.15068 0,1.63948 -0.34564,0.69126 -1.21077,0.99642 -1.63948,1.63947 -0.67784,1.01676 -0.96163,2.26219 -1.63947,3.27895 -1.28611,1.92916 -3.52728,3.06356 -4.91842,4.91842 -0.73319,0.97759 -0.90628,2.30135 -1.63947,3.27894 -0.92743,1.23657 -2.48369,1.95351 -3.27895,3.27895 -0.88913,1.48188 -0.75034,3.43654 -1.63947,4.91842 -0.79526,1.32543 -2.35152,2.04238 -3.27895,3.27894 -1.64779,2.19706 -2.33426,5.83565 -3.27894,8.19737 -0.45384,1.13459 -1.25305,2.11966 -1.63948,3.27895 -0.49184,1.47552 0.49184,3.44289 0,4.91842 -0.2444,0.73319 -1.29384,0.94821 -1.63947,1.63947 -0.2444,0.48879 0,1.09298 0,1.63947 0,0.54649 -0.38643,1.25305 0,1.63947 0.38643,0.38643 1.09298,0 1.63947,0 0.54649,0 1.15068,0.2444 1.63948,0 0.7592,-0.3796 5.59364,-5.59364 6.55789,-6.55789 0.54649,-0.54649 1.09298,-1.09298 1.63947,-1.63947 0.54649,-0.54649 1.29384,-0.94821 1.63947,-1.63947 0.2444,-0.4888 -0.38642,-1.25305 0,-1.63948 1.13071,-1.13071 3.06553,1.21264 3.27895,1.63948 0.4888,0.97759 -0.4888,2.30135 0,3.27894 0.34563,0.69126 1.29384,0.94821 1.63947,1.63948 0.2444,0.48879 -0.38642,1.25304 0,1.63947 0.38643,0.38643 1.25305,-0.38643 1.63948,0 0.38642,0.38643 -0.38643,1.25304 0,1.63947 1.13071,1.13071 3.06552,-1.21264 3.27894,-1.63947 0.2444,-0.4888 -0.38642,-1.25305 0,-1.63947 3.39213,-3.39213 -0.1326,5.18362 3.27895,-1.63948 0.2444,-0.48879 -0.38643,-1.25304 0,-1.63947 0.38643,-0.38643 1.25304,-0.38643 1.63947,0 0.38643,0.38643 -0.38643,1.25304 0,1.63947 0.38643,0.38643 1.25305,-0.38643 1.63948,0 0.38642,0.38643 -0.38643,1.25305 0,1.63948 0.38642,0.38642 1.09298,0 1.63947,0 0.54649,0 1.09298,0 1.63947,0 0.54649,0 1.15068,0.24439 1.63947,0 0.31383,-0.15692 6.40098,-6.24407 6.5579,-6.5579 0.48879,-0.97759 -0.77286,-2.50609 0,-3.27894 0.38642,-0.38643 1.25304,0.38642 1.63947,0 0.38643,-0.38643 0,-1.09299 0,-1.63948 0,-1.65103 0.30222,-8.93018 0,-9.83684 -2.0259,-6.0777 -1.63947,1.99844 -1.63947,-3.27894 0,-3.27895 0,-6.55789 0,-9.83684 0,-0.54649 -0.38643,-1.25305 0,-1.63947 0.38642,-0.38643 1.25304,-0.38643 1.63947,0 0.38643,0.38642 -0.2444,1.15067 0,1.63947 0.98368,1.96737 3.93474,2.95105 4.91842,4.91842 0.2444,0.4888 -0.2444,1.15068 0,1.63947 0.69126,1.38253 2.42154,1.99284 3.27895,3.27895 0.67783,1.01676 1.09298,2.18596 1.63947,3.27894 0.54649,1.09299 1.25304,2.11967 1.63947,3.27895 0.17282,0.51845 -0.17281,1.12103 0,1.63947 0.38643,1.15929 1.3431,2.09344 1.63947,3.27895 0.26509,1.06035 -0.26508,2.2186 0,3.27895 0.29638,1.1855 1.3431,2.09344 1.63948,3.27894 0.5389,2.1556 -0.67872,6.16123 0,8.19737 0.2444,0.73319 1.29384,0.94821 1.63947,1.63947 0.2444,0.4888 0,1.09298 0,1.63947 0,0.5465 0,1.09299 0,1.63948 0,3.84485 0.38643,-0.77286 -1.63947,3.27894 -0.2444,0.4888 0.38643,1.25305 0,1.63948 -0.38643,0.38642 -1.63948,0.54649 -1.63948,0 0,-0.54649 1.25305,0.38642 1.63948,0 0.77285,-0.77286 -0.4888,-2.30136 0,-3.27895 0.34563,-0.69126 1.29384,-0.94821 1.63947,-1.63947 0.2444,-0.4888 -0.2444,-1.15068 0,-1.63948 0.34563,-0.69126 1.21077,-0.99641 1.63947,-1.63947 1.35568,-2.03351 1.81256,-4.60271 3.27895,-6.55789 0.92743,-1.23657 2.35152,-2.04238 3.27895,-3.27895 0.73319,-0.97759 1.01076,-2.23109 1.63947,-3.27894 1.01376,-1.68961 2.26518,-3.22882 3.27895,-4.91842 0.62871,-1.04785 0.90627,-2.30136 1.63947,-3.27895 0.92743,-1.23657 2.18596,-2.18596 3.27895,-3.27895 1.09298,-1.09298 2.18596,-2.18596 3.27894,-3.27894 1.09298,-1.09298 1.99284,-2.42154 3.27895,-3.27895 1.01676,-0.67784 2.26219,-0.96163 3.27894,-1.63947 0.64306,-0.4287 0.99642,-1.21077 1.63948,-1.63947 11.88713,-5.94357 -2.59224,1.72815 4.91842,-3.27895 3.76964,-2.5131 4.42772,-0.76585 8.19736,-3.27895 0.64306,-0.4287 0.94821,-1.29384 1.63948,-1.63947 0.48879,-0.2444 1.15067,0.2444 1.63947,0 4.0518,-2.0259 -0.56591,-1.63947 3.27894,-1.63947 0.5465,0 2.02591,-0.38643 1.63948,0 -0.86408,0.86408 -2.41487,0.77539 -3.27895,1.63947 -0.38643,0.38643 0.2444,1.15068 0,1.63947 -0.80664,1.61329 -5.75125,4.94461 -6.55789,6.5579 -0.77286,1.54571 -0.86662,3.37271 -1.63947,4.91842 -0.34564,0.69126 -1.29385,0.94821 -1.63948,1.63947 -0.77285,1.54571 -0.99765,3.31386 -1.63947,4.91842 -0.90767,2.26918 -2.18596,4.37193 -3.27895,6.55789 -1.09298,2.18596 -1.92327,4.52438 -3.27894,6.55789 -0.42871,0.64306 -1.21077,0.99642 -1.63948,1.63948 -2.12827,3.1924 -1.63947,3.00874 -1.63947,6.55789 0,0.54649 0,1.09298 0,1.63947 0,0.54649 0.54649,1.63947 0,1.63947 -0.54649,0 -0.38643,-1.25304 0,-1.63947 0.38643,-0.38643 1.25305,0.38643 1.63947,0 0.38643,-0.38643 -0.38642,-1.25304 0,-1.63947 0.38643,-0.38643 1.15068,0.2444 1.63948,0 1.38252,-0.69126 1.89642,-2.58769 3.27894,-3.27895 0.4888,-0.2444 1.25305,0.38643 1.63948,0 0.38642,-0.38643 -0.38643,-1.25304 0,-1.63947 0.38642,-0.38643 1.15067,0.2444 1.63947,0 0.69126,-0.34563 0.86662,-1.63947 1.63947,-1.63947 0.12033,0 -0.15041,4.61759 0,4.91842 0.34563,0.69126 1.29384,0.94821 1.63948,1.63947 0.24439,0.48879 -0.38643,1.25304 0,1.63947 0.38642,0.38643 1.09298,0 1.63947,0 0.54649,0 1.09298,0 1.63947,0 0.54649,0 1.25305,0.38643 1.63948,0 0.38642,-0.38643 -0.2444,-1.15068 0,-1.63947 0.34563,-0.69126 1.29384,-0.94821 1.63947,-1.63947 0.2444,-0.4888 -0.38643,-1.25305 0,-1.63948 0.38643,-0.38643 1.25304,0.38643 1.63947,0 0.38643,-0.38643 -0.54649,-1.63947 0,-1.63947 0.77286,0 0.94821,1.29384 1.63947,1.63947 0.4888,0.2444 1.09299,0 1.63948,0 4.17764,0 2.18518,-1.91233 4.91842,-3.27894 0.48879,-0.2444 1.25304,0.38642 1.63947,0 0.9798,-0.9798 -1.77207,-3.27895 1.63947,-3.27895 0.54649,0 -0.2444,1.15068 0,1.63947 0.34563,0.69127 1.29384,0.94821 1.63948,1.63948 0.24439,0.48879 -0.2444,1.15067 0,1.63947 1.01295,2.0259 1.58288,1.63947 3.27894,1.63947 0.54649,0 1.25305,0.38643 1.63948,0 0.38642,-0.38643 -0.2444,-1.15067 0,-1.63947 0.34563,-0.69126 1.29384,-0.94821 1.63947,-1.63947 0.2444,-0.4888 0,-1.09299 0,-1.63948 0,-0.54649 0,-1.09298 0,-1.63947 0,-1.61056 -0.36145,-8.7525 0,-9.83684 4.64437,-9.28874 -0.611,2.44398 1.63947,-6.55789 0.29638,-1.18551 1.3431,-2.09344 1.63947,-3.27895 0.26509,-1.06035 -0.26508,-2.2186 0,-3.27894 0.17939,-0.71755 4.43444,-9.19153 4.91842,-9.83684 0.92743,-1.23657 2.35152,-2.04238 3.27895,-3.27895 0.7332,-0.97759 0.96163,-2.26219 1.63947,-3.27894 0.42871,-0.64306 1.09299,-1.09299 1.63948,-1.63948 1.09298,-1.09298 2.18596,-2.18596 3.27894,-3.27894 0.54649,-0.5465 0.99642,-1.21077 1.63948,-1.63948 0.82562,-3.61203 3.37271,-0.86662 4.91842,-1.63947 7.50322,-3.75161 -6.95697,0.67952 4.91841,-3.27895 1.0369,-0.34563 2.30136,0.4888 3.27895,0 0.69126,-0.34563 0.90628,-1.39507 1.63947,-1.63947 1.0369,-0.34563 2.24206,0.34563 3.27895,0 0.73319,-0.2444 0.94821,-1.29384 1.63947,-1.63947 0.4888,-0.2444 1.15068,0.2444 1.63948,0 0.69126,-0.34563 0.86661,-1.63948 1.63947,-1.63948 0.54649,0 0,1.09299 0,1.63948 0,0.54649 0,1.09298 0,1.63947 0,0.54649 0.38643,1.25305 0,1.63947 -0.38643,0.38643 -1.25305,-0.38642 -1.63947,0 -0.38643,0.38643 0.24439,1.15068 0,1.63948 -0.34563,0.69126 -1.21077,0.99642 -1.63948,1.63947 -1.82007,2.73011 -3.01899,7.30428 -4.91842,9.83684 -0.92742,1.23657 -2.35152,2.04238 -3.27894,3.27894 -0.7332,0.9776 -0.90628,2.30136 -1.63948,3.27895 -0.92742,1.23657 -2.48368,1.95351 -3.27894,3.27895 -0.88913,1.48188 -0.99765,3.31386 -1.63947,4.91842 -0.45384,1.13459 -1.09299,2.18596 -1.63948,3.27894 -0.54649,1.63948 -0.99765,3.31387 -1.63947,4.91842 -0.45384,1.13459 -1.3431,2.09344 -1.63947,3.27895 -0.26509,1.06035 0.34563,2.24205 0,3.27894 -0.2444,0.7332 -1.39508,0.90628 -1.63948,1.63948 -0.34563,1.03689 0,2.18596 0,3.27894 0,0.54649 -0.2444,1.15068 0,1.63948 0.34563,0.69126 1.29384,0.94821 1.63948,1.63947 0.24439,0.4888 -0.38643,1.25305 0,1.63947 0.38642,0.38643 1.15067,-0.2444 1.63947,0 0.69126,0.34563 0.94821,1.29384 1.63947,1.63948 0.4888,0.24439 1.09298,0 1.63948,0 0.54649,0 1.25304,0.38642 1.63947,0 0.38643,-0.38643 -0.38643,-1.25305 0,-1.63948 0.38643,-0.38642 1.15068,0.2444 1.63947,0 1.0443,-0.52215 6.90912,-6.90912 8.19737,-8.19736 0.54649,-0.54649 1.09298,-1.09298 1.63947,-1.63948 0.54649,-0.54649 0.86662,-1.63947 1.63947,-1.63947 0.54649,0 -0.24439,1.15068 0,1.63947 0.53323,1.06647 1.9221,2.3179 3.27895,1.63948 3.26583,-1.63292 0.12083,-4.91842 3.27895,-4.91842 1.09298,0 -0.4888,2.30135 0,3.27894 0.34563,0.69127 1.29384,0.94821 1.63947,1.63948 1.13071,2.26142 -1.98549,1.46646 1.63947,3.27894 0.13976,0.0699 6.41814,0.0699 6.55789,0 0.69127,-0.34563 1.29385,-0.94821 1.63948,-1.63947 0.2444,-0.4888 -0.2444,-1.15068 0,-1.63947 0.69126,-1.38253 2.58768,-1.89642 3.27894,-3.27895 0.2444,-0.4888 -0.24439,-1.15068 0,-1.63947 0.34563,-0.69126 1.29385,-0.94821 1.63948,-1.63948 0.48879,-0.97759 -0.77286,-2.50609 0,-3.27894 0.38642,-0.38643 1.25304,0.38643 1.63947,0 0.38643,-0.38643 -0.2444,-1.15068 0,-1.63947 0.34563,-0.69127 1.29384,-0.94822 1.63947,-1.63948 0.4888,-0.97759 -0.48879,-2.30135 0,-3.27894 2.0259,-4.05181 1.63948,0.56591 1.63948,-3.27895 0,-7.65087 0,-15.30175 0,-22.95262 0,-1.63948 0,-3.27895 0,-4.91842 0,-0.54649 -0.54649,-1.63948 0,-1.63948 0.54649,0 -0.38643,1.25305 0,1.63948 0.38642,0.38642 1.25304,-0.38643 1.63947,0 0.38643,0.38642 -0.38643,1.25304 0,1.63947 0.38643,0.38643 1.25304,-0.38643 1.63947,0 0.77286,0.77286 -0.48879,2.30135 0,3.27895 0.34563,0.69126 1.29384,0.94821 1.63948,1.63947 0.24439,0.4888 -0.17282,1.12103 0,1.63947 0.38642,1.15929 1.34309,2.09344 1.63947,3.27895 0.26509,1.06035 -0.26509,2.2186 0,3.27895 0.59275,2.37101 2.50609,4.23932 3.27894,6.55789 0.17282,0.51844 -0.17281,1.12102 0,1.63947 0.38643,1.15928 1.3431,2.09344 1.63948,3.27895 0.39763,1.59052 -0.51845,3.36308 0,4.91842 0.38643,1.15928 1.25304,2.11966 1.63947,3.27894 0.0778,0.23329 0.30887,9.2191 0,9.83684 -0.34563,0.69126 -1.29384,0.94821 -1.63947,1.63947 -0.2444,0.4888 0.2444,1.15068 0,1.63948 -3.41155,6.82309 0.11318,-1.75266 -3.27895,1.63947 -0.38643,0.38643 0.38643,1.25305 0,1.63947 -0.38643,0.38643 -1.63947,0.54649 -1.63947,0 0,-0.77285 1.29384,-0.94821 1.63947,-1.63947 0.2444,-0.4888 -0.2444,-1.15068 0,-1.63947 0.34563,-0.69127 1.21077,-0.99642 1.63947,-1.63948 0.67784,-1.01675 1.09299,-2.18596 1.63948,-3.27894 1.09298,-1.09298 2.35152,-2.04238 3.27894,-3.27895 1.89943,-2.53256 3.09835,-7.10672 4.91842,-9.83684 1.28611,-1.92916 3.52728,-3.06356 4.91842,-4.91842 0.7332,-0.97759 0.96164,-2.26218 1.63948,-3.27894 1.26113,-1.8917 3.65728,-3.02672 4.91842,-4.91842 0.67783,-1.01676 0.77539,-2.41487 1.63947,-3.27895 0.86408,-0.86408 2.26219,-0.96163 3.27894,-1.63947 0.64306,-0.4287 0.99642,-1.21077 1.63948,-1.63947 2.03351,-1.35568 4.52437,-1.92327 6.55789,-3.27895 0.64305,-0.4287 0.99642,-1.21077 1.63947,-1.63947 1.01676,-0.67784 2.26219,-0.96164 3.27895,-1.63948 0.64305,-0.4287 0.99642,-1.21077 1.63947,-1.63947 1.01676,-0.67784 2.26219,-0.96163 3.27895,-1.63947 1.49244,-0.99496 3.46529,-4.19186 4.91842,-4.91842 0.48879,-0.2444 1.63947,-0.54649 1.63947,0 0,0.52863 -2.82347,2.368 -3.27895,3.27894 -0.24439,0.4888 0.38643,1.25305 0,1.63948 -0.86407,0.86408 -2.41486,0.77539 -3.27894,1.63947 -0.10506,0.10506 -3.07536,6.25251 -3.27895,6.55789 -0.4287,0.64306 -1.21077,0.99642 -1.63947,1.63948 -0.67784,1.01675 -0.90628,2.30135 -1.63947,3.27894 -0.92743,1.23657 -2.35152,2.04238 -3.27895,3.27895 -3.31778,4.42371 0.0275,2.68668 -3.27895,8.19736 -2.79974,4.66624 -3.64964,1.48279 -4.91842,6.5579 -0.26508,1.06034 0.26509,2.21859 0,3.27894 -0.29637,1.18551 -1.25304,2.11967 -1.63947,3.27895 -0.30833,0.92499 0,3.84111 0,4.91842 0,0.54649 -0.38643,1.25304 0,1.63947 0.38643,0.38643 1.09298,0 1.63947,0 0.5465,0 1.25305,0.38643 1.63948,0 0.38643,-0.38643 -0.38643,-1.25304 0,-1.63947 0.38643,-0.38643 1.15067,0.2444 1.63947,0 1.38253,-0.69126 1.99284,-2.42154 3.27895,-3.27895 1.01675,-0.67784 2.26219,-0.96163 3.27894,-1.63947 1.92917,-1.28611 3.06357,-3.52728 4.91842,-4.91842 0.9776,-0.7332 2.26219,-0.96164 3.27895,-1.63947 0.64305,-0.42871 0.99642,-1.21077 1.63947,-1.63948 1.18063,-0.78709 4.16517,-2.39272 4.91842,-1.63947 0.38643,0.38643 0,1.09298 0,1.63947 0,3.27895 0,6.5579 0,9.83684 0,1.09298 -0.4888,2.30135 0,3.27895 0.2444,0.48879 1.25305,-0.38643 1.63947,0 0.38643,0.38643 -0.38642,1.25304 0,1.63947 0.38643,0.38643 1.09299,0 1.63948,0 0.54649,0 1.15067,0.2444 1.63947,0 0.69126,-0.34563 1.09298,-1.09298 1.63947,-1.63947 0.54649,-0.54649 1.29385,-0.94821 1.63948,-1.63948 0.24439,-0.48879 -0.2444,-1.15067 0,-1.63947 0.34563,-0.69126 1.29384,-0.94821 1.63947,-1.63947 0.2444,-0.4888 -0.54649,-1.63947 0,-1.63947 0.19288,0 -0.2411,4.67732 0,4.91841 0.38643,0.38643 1.15068,-0.24439 1.63947,0 0.69127,0.34564 0.94821,1.29385 1.63948,1.63948 0.48879,0.2444 1.09298,0 1.63947,0 0.54649,0 1.25304,0.38643 1.63947,0 0.38643,-0.38643 -0.38643,-1.25305 0,-1.63948 0.38643,-0.38642 1.25305,-0.38642 1.63948,0 0.38642,0.38643 -0.2444,1.15068 0,1.63948 0.34563,0.69126 1.09298,1.09298 1.63947,1.63947 0.54649,0.54649 0.94821,1.29384 1.63947,1.63947 0.0858,0.0429 4.83265,0.0429 4.91842,0 0.69126,-0.34563 1.09298,-1.09298 1.63947,-1.63947 0.54649,-0.54649 1.29385,-0.94821 1.63948,-1.63947 0.2444,-0.4888 -0.2444,-1.15068 0,-1.63948 0.34563,-0.69126 1.29384,-0.94821 1.63947,-1.63947 0.2444,-0.48879 -0.17282,-1.12102 0,-1.63947 0.38643,-1.15928 1.25305,-2.11967 1.63947,-3.27895 0.17282,-0.51844 -0.24439,-1.15067 0,-1.63947 0.34563,-0.69126 1.39508,-0.90628 1.63948,-1.63947 0.49184,-1.47553 -0.49185,-3.4429 0,-4.91842 0.38642,-1.15929 1.34309,-2.09344 1.63947,-3.27895 0.39763,-1.59052 0,-3.27895 0,-4.91842 0,-3.27894 0,-6.55789 0,-9.83684 0,-7.46335 0.77285,-0.0938 -1.63947,-4.91842 -0.2444,-0.48879 0,-1.09298 0,-1.63947 0,-1.09298 0.34563,-2.24205 0,-3.27895 -0.2444,-0.73319 -1.29385,-0.94821 -1.63948,-1.63947 -0.24439,-0.4888 0,-1.09298 0,-1.63947 0,-0.54649 0,-1.09298 0,-1.63948 0,-0.54649 -0.54649,-1.63947 0,-1.63947 1.09299,0 -0.48879,2.30135 0,3.27895 0.69127,1.38252 2.58769,1.89642 3.27895,3.27894 0.2444,0.4888 -0.17282,1.12103 0,1.63948 0.77285,2.31856 2.68619,4.18688 3.27895,6.55789 1.21195,4.84782 -1.84381,1.91352 1.63947,6.55789 0.92742,1.23657 2.35152,2.04238 3.27894,3.27895 1.46639,1.95518 1.92327,4.52437 3.27895,6.55789 1.99987,2.9998 2.09023,0.16357 3.27895,4.91842 0.26508,1.06035 -0.34563,2.24205 0,3.27895 2.41233,7.23698 1.63947,-5.95648 1.63947,4.91842 0,1.09298 0.34563,2.24205 0,3.27894 -0.38643,1.15928 -1.25305,2.11967 -1.63947,3.27895 -1.20617,3.61849 2.0922,-0.45273 -1.63948,3.27894 -1.23138,1.23139 -3.27894,3.62705 -3.27894,1.63948 0,-0.77286 1.09298,-1.09298 1.63947,-1.63948 0.54649,-0.54649 1.09298,-1.09298 1.63947,-1.63947 0.5465,-0.54649 0.94821,-1.29384 1.63948,-1.63947 0.48879,-0.2444 1.25304,0.38643 1.63947,0 0.86408,-0.86408 0.7754,-2.41487 1.63947,-3.27895 0.86408,-0.86408 2.41487,-0.77539 3.27895,-1.63947 0.86408,-0.86408 0.90628,-2.30135 1.63947,-3.27895 7.0912,-7.0912 0.25695,0.43432 4.91842,-6.55789 0.42871,-0.64305 1.29384,-0.94821 1.63948,-1.63947 0.4899,-0.9798 -1.07926,-3.27895 1.63947,-3.27895 0.54649,0 0.2444,1.15068 0,1.63947 -0.34563,0.69127 -1.39508,0.90628 -1.63947,1.63948 -0.81974,2.45921 0.81973,5.73815 0,8.19736 -2.02591,6.0777 -1.63948,-1.99844 -1.63948,3.27895 0,0.54649 0,1.09298 0,1.63947 0,0.54649 -0.38643,2.0259 0,1.63947 6.39843,-6.39842 -0.3795,-0.88047 1.63948,-4.91841 2.49983,-4.99968 1.29971,2.9985 3.27894,-4.91842 0.26509,-1.06035 -0.48879,-2.30136 0,-3.27895 0.69126,-1.38253 2.35152,-2.04238 3.27895,-3.27895 1.46639,-1.95518 1.81255,-4.6027 3.27894,-6.55789 0.92743,-1.23657 2.35152,-2.04238 3.27895,-3.27894 0.73319,-0.9776 0.96163,-2.26219 1.63947,-3.27895 0.42871,-0.64306 1.09299,-1.09298 1.63948,-1.63947 1.09298,-1.09299 2.04237,-2.35152 3.27894,-3.27895 0.9776,-0.7332 2.26219,-0.96163 3.27895,-1.63947 0.64305,-0.42871 0.99642,-1.21077 1.63947,-1.63948 1.01676,-0.67784 2.18597,-1.09298 3.27895,-1.63947 3.27894,-1.63947 6.55789,-3.27895 9.83684,-4.91842 1.09298,-0.54649 2.18596,-1.09298 3.27894,-1.63947 1.09299,0 2.24206,0.34563 3.27895,0 0.73319,-0.2444 0.94821,-1.29384 1.63947,-1.63948 0.4888,-0.24439 1.15068,0.2444 1.63948,0 0.69126,-0.34563 2.18596,-2.18596 1.63947,-1.63947 -3.27895,3.27895 -6.55789,6.55789 -9.83684,9.83684 -1.09298,1.09298 -2.07195,2.31335 -3.27895,3.27895 -1.53862,1.2309 -3.52513,1.88566 -4.91842,3.27894 -1.39328,1.39329 -2.04804,3.3798 -3.27894,4.91842 -0.9656,1.207 -2.35152,2.04238 -3.27895,3.27895 -0.73319,0.97759 -0.90628,2.30135 -1.63947,3.27894 -0.92743,1.23657 -2.35152,2.04238 -3.27895,3.27895 -0.48398,0.64531 -4.73903,9.1193 -4.91842,9.83684 -0.26508,1.06035 0.26509,2.2186 0,3.27895 -0.29637,1.1855 -1.25304,2.11966 -1.63947,3.27894 -0.31657,0.94971 0,5.13715 0,6.55789 0,0.5465 0,1.09299 0,1.63948 0,0.54649 -0.38643,1.25304 0,1.63947 0.38643,0.38643 1.09298,0 1.63947,0 0.54649,0 1.15068,0.2444 1.63948,0 0.69126,-0.34563 0.94821,-1.29384 1.63947,-1.63947 4.03794,-2.01897 -1.48001,4.75895 4.91842,-1.63948 0.86408,-0.86407 0.90628,-2.30135 1.63947,-3.27894 0.92743,-1.23657 2.18597,-2.18597 3.27895,-3.27895 1.09298,-1.09298 2.04238,-2.35152 3.27894,-3.27894 0.9776,-0.7332 2.41487,-0.7754 3.27895,-1.63948 1.99685,-1.99685 0.76797,-3.66293 3.27895,-4.91842 1.45731,-0.72865 2.36812,0.18217 1.63947,1.63948 -0.34563,0.69126 -1.39507,0.90627 -1.63947,1.63947 -0.34563,1.03689 0,2.18596 0,3.27895 0,3.27894 0,6.55789 0,9.83683 0,0.5465 -0.38643,1.25305 0,1.63948 0.16394,0.16394 4.75447,0.16394 4.91842,0 0.38642,-0.38643 -0.2444,-1.15068 0,-1.63948 0.69126,-1.38252 2.58768,-1.89642 3.27894,-3.27894 0.2444,-0.4888 -0.2444,-1.15068 0,-1.63948 0.34563,-0.69126 1.29384,-0.94821 1.63948,-1.63947 0.24439,-0.48879 0,-1.09298 0,-1.63947 0,-0.54649 0,-2.18597 0,-1.63947 0,2.34602 -0.77286,3.71225 1.63947,4.91841 0.4888,0.2444 1.15068,-0.24439 1.63947,0 2.7137,1.35686 0.44041,3.13215 4.91842,1.63948 3.26247,-1.08749 0.76509,-1.53018 1.63947,-3.27895 0.98369,-1.96737 3.93474,-2.95105 4.91842,-4.91842 0.2444,-0.48879 -0.24439,-1.15067 0,-1.63947 0.34563,-0.69126 1.29385,-0.94821 1.63948,-1.63947 0.48879,-0.9776 -0.4888,-2.30136 0,-3.27895 0.34563,-0.69126 1.29384,-0.94821 1.63947,-1.63947 0.24923,-0.49846 0,-5.4258 0,-6.5579 0,-6.55789 0,-13.11578 0,-19.67367 0,-1.63948 0,-3.27895 0,-4.91842 0,-0.54649 -0.54649,-1.63948 0,-1.63948 0.54649,0 -0.2444,1.15068 0,1.63948 0.34563,0.69126 1.39507,0.90628 1.63947,1.63947 0.34563,1.03689 -0.34563,2.24205 0,3.27895 0.2444,0.73319 1.09298,1.09298 1.63948,1.63947 0,1.09298 -0.21436,2.20719 0,3.27895 -0.37623,3.29229 2.56517,5.34229 3.27894,8.19736 0.26509,1.06035 -0.26508,2.2186 0,3.27895 0.29638,1.1855 1.3431,2.09344 1.63948,3.27894 0.26508,1.06035 -0.26509,2.2186 0,3.27895 0.29637,1.18551 1.34309,2.09344 1.63947,3.27895 0.15809,0.63238 0.15809,9.20446 0,9.83684 -0.29638,1.1855 -1.25305,2.11966 -1.63947,3.27894 -0.17282,0.51845 0.17281,1.12103 0,1.63947 -0.38643,1.15929 -0.96164,2.26219 -1.63948,3.27895 -0.46327,0.69491 -4.24009,4.57925 -4.91842,4.91842 -0.48879,0.2444 -1.63947,0.54649 -1.63947,0 0,-3.41155 2.29915,-0.65967 3.27895,-1.63947 0.86407,-0.86408 0.96163,-2.26219 1.63947,-3.27895 1.39143,-2.08715 5.04278,-4.53774 6.55789,-6.55789 0.7332,-0.97759 0.90628,-2.30135 1.63947,-3.27895 1.85486,-2.47313 4.70304,-4.08475 6.5579,-6.55789 0.73319,-0.97759 0.96163,-2.26219 1.63947,-3.27895 0.85741,-1.2861 2.58768,-1.89642 3.27895,-3.27894 0.24439,-0.4888 -0.38643,-1.25305 0,-1.63948 1.09298,-1.09298 2.73245,0.5465 1.63947,1.63948 -0.38643,0.38642 -1.39508,-0.4888 -1.63947,0 -0.4888,0.97759 0.34563,2.24205 0,3.27894 -0.2444,0.7332 -1.29385,0.94821 -1.63948,1.63948 -0.24439,0.48879 0,1.09298 0,1.63947 0,1.09298 0.34563,2.24205 0,3.27895 -0.24439,0.73319 -1.29384,0.94821 -1.63947,1.63947 -0.2444,0.4888 -0.38643,1.25304 0,1.63947 0.38643,0.38643 1.25305,0.38643 1.63947,0 0.38643,-0.38643 -0.17281,-1.12102 0,-1.63947 0.38643,-1.15928 1.09299,-2.18596 1.63948,-3.27895 0.54649,-1.09298 0.90627,-2.30135 1.63947,-3.27894 0.92743,-1.23657 2.48368,-1.95351 3.27895,-3.27895 0.88912,-1.48188 0.86661,-3.37271 1.63947,-4.91842 0.88119,-1.76238 2.18596,-3.27894 3.27894,-4.91842 1.09299,-1.63947 2.04805,-3.37979 3.27895,-4.91842 0.9656,-1.20699 2.31335,-2.07195 3.27895,-3.27894 2.4618,-3.07725 3.77132,-7.05027 6.55789,-9.83684 0.86408,-0.86408 2.30135,-0.90628 3.27895,-1.63948 1.23656,-0.92742 1.99283,-2.42154 3.27894,-3.27894 0.45471,-0.30314 1.15068,0.2444 1.63948,0 0.69126,-0.34563 0.94821,-1.29384 1.63947,-1.63947 0.48879,-0.2444 1.09298,0 1.63947,0 0.54649,0 1.09298,0 1.63947,0 0.5465,0 1.25305,-0.38643 1.63948,0 0.38643,0.38642 0,1.09298 0,1.63947 0,0.54649 0.38643,1.25304 0,1.63947 -0.38643,0.38643 -1.09298,0 -1.63948,0 -0.54649,0.54649 -1.21077,0.99642 -1.63947,1.63947 -1.35568,2.03352 -1.81256,4.60271 -3.27894,6.5579 -4.86724,6.48964 -1.74426,0.10478 -8.19737,6.55789 -1.39328,1.39328 -2.18596,3.27895 -3.27895,4.91842 -2.18596,3.27895 -4.37192,6.55789 -6.55789,9.83684 -1.09298,1.63947 -2.39775,3.15604 -3.27895,4.91842 -1.54571,3.09142 -1.9953,6.62773 -3.27894,9.83684 -0.45384,1.13459 -1.3431,2.09344 -1.63947,3.27894 -0.26509,1.06035 0,2.18597 0,3.27895 0,0.54649 -0.2444,1.15067 0,1.63947 0.34563,0.69126 0.94821,1.29384 1.63947,1.63947 0.23566,0.11784 8.12289,0.0248 8.19736,0 0.7332,-0.24439 0.99642,-1.21077 1.63948,-1.63947 1.01676,-0.67784 2.18596,-1.09298 3.27894,-1.63947 1.09299,-0.54649 2.41487,-0.7754 3.27895,-1.63948 0.86408,-0.86407 0.77539,-2.41486 1.63947,-3.27894 6.39843,-6.39843 0.88048,0.3795 4.91842,-1.63947 0.69126,-0.34564 0.86662,-1.63948 1.63948,-1.63948 0.54649,0 0,1.09298 0,1.63948 0,1.09298 0,2.18596 0,3.27894 0,1.09298 0,2.18597 0,3.27895 0,0.54649 -0.2444,1.15067 0,1.63947 0.34563,0.69126 1.29384,0.94821 1.63947,1.63947 0.2444,0.4888 -0.38643,1.25305 0,1.63948 0.16395,0.16394 4.75447,0.16394 4.91842,0 0.38643,-0.38643 -0.38643,-1.25305 0,-1.63948 0.86408,-0.86407 2.26219,-0.96163 3.27894,-1.63947 0.64306,-0.4287 1.09299,-1.09298 1.63948,-1.63947 0.54649,-0.54649 1.29384,-0.94821 1.63947,-1.63948 0.2444,-0.48879 0,-1.09298 0,-1.63947 0.54649,-1.09298 0.96163,-2.26219 1.63947,-3.27894 0.42871,-0.64306 1.09299,-1.09299 1.63948,-1.63948 0.54649,-0.54649 0.94821,-1.29384 1.63947,-1.63947 0.4888,-0.2444 1.25305,0.38643 1.63947,0 0.38643,-0.38643 -0.38642,-1.25305 0,-1.63947 0.38643,-0.38643 1.25305,0.38642 1.63948,0 0.38642,-0.38643 -0.2444,-1.15068 0,-1.63948 3.75161,-7.50322 -0.67952,6.95697 3.27894,-4.91842 0.17282,-0.51844 0,-1.09298 0,-1.63947 0.54649,-1.63947 0.99765,-3.31387 1.63948,-4.91842 0.90767,-2.26918 2.68619,-4.18688 3.27894,-6.55789 0.66272,-2.65087 -0.53588,-5.51797 0,-8.19737 0.23965,-1.19826 1.25305,-2.11966 1.63947,-3.27894 0.31657,-0.94971 0,-5.13715 0,-6.5579 0,-0.54649 0,-1.09298 0,-1.63947 0,-0.54649 -0.24439,-1.15068 0,-1.63947 0.34564,-0.69126 1.29385,-0.94821 1.63948,-1.63947 0.2444,-0.4888 -0.38643,-1.25305 0,-1.63948 0.38643,-0.38643 1.25304,0.38643 1.63947,0 0.38643,-0.38643 -0.38643,-1.25304 0,-1.63947 0.38643,-0.38643 1.25305,0.38643 1.63947,0 0.38643,-0.38643 -0.38642,-1.25305 0,-1.63947 0.38643,-0.38643 1.63948,-0.5465 1.63948,0 0,0.54649 -1.25305,-0.38643 -1.63948,0 -0.38642,0.38642 0,1.09298 0,1.63947 0,0.54649 0,1.09298 0,1.63947 0,3.82544 0,7.65088 0,11.47631 0,1.09299 -0.26508,2.2186 0,3.27895 0.29638,1.18551 1.3431,2.09344 1.63948,3.27895 0.26508,1.06034 -0.26509,2.21859 0,3.27894 0.29637,1.18551 1.34309,2.09344 1.63947,3.27895 0.26509,1.06035 -0.26509,2.2186 0,3.27895 0.29638,1.1855 1.3431,2.09344 1.63947,3.27894 0.26509,1.06035 -0.26508,2.2186 0,3.27895 2.12827,8.51308 1.63948,-1.75021 1.63948,6.55789 0,3.27895 0,6.55789 0,9.83684 0,0.54649 0.38642,1.25304 0,1.63947 -0.38643,0.38643 -1.25305,-0.38643 -1.63948,0 -0.38642,0.38643 -0.54649,1.63947 0,1.63947 2.71873,0 1.14958,-2.29914 1.63948,-3.27894 0.34563,-0.69126 1.09298,-1.09298 1.63947,-1.63947 3.75904,-3.75905 -0.69126,1.03689 3.27895,-4.91842 0.4287,-0.64306 1.21077,-0.99642 1.63947,-1.63948 1.35568,-2.03351 2.18596,-4.37193 3.27894,-6.55789 0.5465,-1.09298 1.09299,-2.18596 1.63948,-3.27895 0.54649,-1.09298 0.90628,-2.30135 1.63947,-3.27894 1.39114,-1.85485 3.63231,-2.98926 4.91842,-4.91842 0.67784,-1.01676 0.96163,-2.26219 1.63947,-3.27895 0.42871,-0.64305 1.09299,-1.09298 1.63948,-1.63947 0.54649,-0.54649 0.99642,-1.21077 1.63947,-1.63947 1.01676,-0.67784 2.26219,-0.96164 3.27895,-1.63948 1.8917,-1.26113 3.02672,-3.65728 4.91842,-4.91842 1.01675,-0.67783 2.26218,-0.96163 3.27894,-1.63947 1.28611,-0.8574 2.18597,-2.18596 3.27895,-3.27895 0.54649,-0.54649 0.94821,-1.29384 1.63947,-1.63947 0.4888,-0.2444 1.25305,0.38643 1.63947,0 0.38643,-0.38643 -0.38642,-1.25304 0,-1.63947 0.38643,-0.38643 1.63948,-0.54649 1.63948,0 0,0.77285 -1.29384,0.94821 -1.63948,1.63947 -0.24439,0.4888 0.2444,1.15068 0,1.63947 -0.69126,1.38253 -2.42154,1.99284 -3.27894,3.27895 -0.20359,0.30539 -3.17389,6.45284 -3.27895,6.55789 -0.86408,0.86408 -2.41487,0.7754 -3.27894,1.63948 -1.72816,1.72815 -1.81256,4.6027 -3.27895,6.55789 -0.92743,1.23657 -2.35152,2.04238 -3.27895,3.27895 -1.64779,2.19706 -2.33426,5.83564 -3.27894,8.19736 -1.34038,3.35093 -3.30377,6.60754 -4.91842,9.83684 -0.54649,1.09298 -1.25305,2.11966 -1.63948,3.27895 -0.17281,0.51844 0.17282,1.12102 0,1.63947 -0.38642,1.15928 -1.25304,2.11966 -1.63947,3.27894 -0.27125,0.81377 -0.13962,4.7788 0,4.91842 1.28162,1.28162 2.85211,-1.42605 3.27895,-1.63947 0.48879,-0.2444 1.15067,0.2444 1.63947,0 0.69126,-0.34563 0.99642,-1.21077 1.63947,-1.63947 1.01676,-0.67784 2.26219,-0.96164 3.27895,-1.63948 0.64305,-0.4287 0.99642,-1.21077 1.63947,-1.63947 3.02672,-2.01781 6.81012,-2.9006 9.83684,-4.91842 0.83801,-0.55867 3.38959,-4.80777 4.91842,-3.27894 0.38643,0.38642 0,1.09298 0,1.63947 0,0.54649 0.2444,1.15068 0,1.63947 -0.34563,0.69126 -1.29384,0.94821 -1.63947,1.63948 -0.24923,0.49845 0,5.4258 0,6.55789 0,0.54649 -0.38643,1.25304 0,1.63947 0.38643,0.38643 1.09298,0 1.63947,0 4.57347,0 2.34941,-2.34941 4.91842,-4.91842 0.86408,-0.86408 2.26219,-0.96163 3.27895,-1.63947 1.2861,-0.85741 2.18596,-2.18597 3.27894,-3.27895 0.54649,-0.54649 1.29384,-0.94821 1.63948,-1.63947 0.24439,-0.4888 -0.38643,-1.25305 0,-1.63947 0.38642,-0.38643 1.25304,-0.38643 1.63947,0 0.77285,0.77285 -1.09298,3.27894 0,3.27894 0.77285,0 1.09298,-1.09298 1.63947,-1.63947 0.54649,-0.54649 1.09298,-1.09298 1.63947,-1.63947 0.73835,-0.73835 4.66895,-4.17 4.91842,-4.91842 0.34564,-1.0369 -0.26508,-2.2186 0,-3.27895 0.29638,-1.1855 1.25305,-2.11966 1.63948,-3.27895 0.17281,-0.51844 -0.17282,-1.12102 0,-1.63947 0.38642,-1.15928 1.34309,-2.09344 1.63947,-3.27894 0.37157,-1.48626 0,-6.29284 0,-8.19737 0,-1.42074 0.31657,-5.60819 0,-6.55789 -0.38643,-1.15929 -1.25305,-2.11967 -1.63947,-3.27895 -0.34563,-1.03689 0.34563,-2.24205 0,-3.27895 -0.38643,-1.15928 -1.25305,-2.11966 -1.63948,-3.27894 -0.17281,-0.51845 0.2444,-1.15068 0,-1.63947 -0.34563,-0.69127 -1.39507,-0.90628 -1.63947,-1.63948 -0.30222,-0.90666 0,-8.1858 0,-9.83684 0,-0.54649 0,-1.09298 0,-1.63947 0,-0.54649 0.38643,-1.25305 0,-1.63947 -2.25026,-2.25026 -1.63947,2.89319 -1.63947,3.27894 0,3.97026 2.43286,4.81304 3.27894,8.19737 0.26509,1.06035 -0.26508,2.2186 0,3.27895 0.29638,1.1855 1.09299,2.18596 1.63948,3.27894 0.54649,1.09298 0.90628,2.30135 1.63947,3.27895 0.92743,1.23657 2.35152,2.04238 3.27895,3.27894 0.73319,0.9776 0.96163,2.26219 1.63947,3.27895 0.4287,0.64305 1.21077,0.99642 1.63947,1.63947 0.67784,1.01676 0.96164,2.26219 1.63948,3.27895 1.99987,2.9998 2.09023,0.16357 3.27894,4.91842 0.26509,1.06035 0,2.18596 0,3.27895 0,1.09298 0,2.18596 0,3.27894 0,1.70493 0.32241,8.5472 0,9.83684 -0.29637,1.18551 -1.09298,2.18596 -1.63947,3.27895 -1.09298,2.18596 -2.50609,4.23932 -3.27895,6.55789 -0.17281,0.51845 0.2444,1.15068 0,1.63947 -0.69126,1.38253 -2.58768,1.89642 -3.27894,3.27895 -0.2444,0.48879 -0.54649,1.63947 0,1.63947 2.71872,0 1.14957,-2.29915 1.63947,-3.27895 0.34563,-0.69126 1.09298,-1.09298 1.63947,-1.63947 1.28057,-1.28057 3.97529,-3.50372 4.91842,-4.91842 4.66147,-6.9922 -2.17278,0.53331 4.91842,-6.55789 7.0912,-7.0912 0.25695,0.43431 4.91842,-6.55789 0.4287,-0.64306 1.09298,-1.09298 1.63947,-1.63948 0.5465,-0.54649 1.29385,-0.94821 1.63948,-1.63947 0.2444,-0.4888 -0.54649,-1.63947 0,-1.63947 0.54649,0 0.38642,1.25304 0,1.63947 -0.38643,0.38643 -1.25305,-0.38643 -1.63948,0 -0.38642,0.38643 0.17282,1.12103 0,1.63947 -0.77285,2.31857 -2.50609,4.23933 -3.27894,6.5579 -0.17282,0.51844 0,1.09298 0,1.63947 0,1.09298 0,2.18596 0,3.27895 0,0.54649 -0.38643,1.25304 0,1.63947 0.38643,0.38643 1.25304,0.38643 1.63947,0 0.38643,-0.38643 -0.2444,-1.15068 0,-1.63947 0.34563,-0.69127 1.09298,-1.09299 1.63947,-1.63948 0.5465,-0.54649 1.21077,-0.99642 1.63948,-1.63947 0.67784,-1.01676 0.77539,-2.41487 1.63947,-3.27895 0.38643,-0.38642 1.15068,0.2444 1.63947,0 0.69127,-0.34563 0.86662,-1.63947 1.63948,-1.63947 0.54649,0 -0.54649,1.63947 0,1.63947 0.33556,0 4.24531,-4.46968 4.91842,-4.91842 1.01675,-0.67783 2.30135,-0.90627 3.27894,-1.63947 1.23657,-0.92742 2.18597,-2.18596 3.27895,-3.27894 3.27894,-3.27895 6.55789,-6.5579 9.83684,-9.83684 1.09298,-1.09299 2.04238,-2.35152 3.27894,-3.27895 1.59748,-1.19811 3.91552,-1.27313 4.91842,-3.27895 0.2444,-0.48879 -0.2444,-1.15067 0,-1.63947 0.34563,-0.69126 2.18597,-2.18596 1.63948,-1.63947 -10.03938,10.03937 2.07378,-2.76505 -4.91842,6.55789 -0.92743,1.23657 -2.48369,1.95351 -3.27895,3.27895 -0.88913,1.48188 -0.75034,3.43653 -1.63947,4.91842 -9.14946,15.24909 3.28583,-11.49008 -6.5579,8.19736 -0.77285,1.54571 -1.09298,3.27895 -1.63947,4.91842 -0.54649,1.63947 -1.30055,3.22382 -1.63947,4.91842 -0.4287,2.14351 0,4.37193 0,6.55789 0,1.63948 0,3.27895 0,4.91842 0,0.54649 -0.38643,1.25305 0,1.63947 0.38643,0.38643 1.09298,0 1.63947,0 0.54649,0 1.15068,0.2444 1.63947,0 0.69127,-0.34563 0.99642,-1.21077 1.63948,-1.63947 1.01676,-0.67784 2.41487,-0.77539 3.27894,-1.63947 0.86408,-0.86408 0.90628,-2.30135 1.63948,-3.27895 0.92742,-1.23657 2.35152,-2.04238 3.27894,-3.27894 0.7332,-0.9776 0.90628,-2.30136 1.63948,-3.27895 0.92742,-1.23657 2.35152,-2.04238 3.27894,-3.27895 0.7332,-0.97759 1.25305,-2.11966 1.63948,-3.27894 0.17281,-0.51845 -0.5465,-1.63948 0,-1.63948 0.54649,0 0.24439,1.15068 0,1.63948 -0.34564,0.69126 -1.29385,0.94821 -1.63948,1.63947 -0.2444,0.4888 0.13255,1.1093 0,1.63947 -0.41914,1.67656 -0.99765,3.31387 -1.63947,4.91842 -0.45384,1.13459 -1.3431,2.09344 -1.63947,3.27895 -0.26509,1.06035 0,2.18596 0,3.27895 0,1.09298 0,2.18596 0,3.27894 0,0.39762 -0.0527,4.8657 0,4.91842 0.38642,0.38643 1.09298,0 1.63947,0 0.54649,0 1.09298,0 1.63947,0 2.43571,0 4.51933,0.39909 6.55789,-1.63947 0.86408,-0.86408 0.96164,-2.26219 1.63948,-3.27895 1.28611,-1.92916 3.52728,-3.06357 4.91842,-4.91842 1.46639,-1.95518 1.55079,-4.82973 3.27894,-6.55789 0.86408,-0.86408 2.60111,-0.62272 3.27895,-1.63947 0.60628,-0.90942 -0.34563,-2.24206 0,-3.27895 0.2444,-0.73319 1.29384,-0.94821 1.63947,-1.63947 0.2444,-0.4888 -0.2444,-1.15068 0,-1.63948 0.34563,-0.69126 1.29384,-0.94821 1.63948,-1.63947 0.48879,-0.97759 -0.4888,-2.30135 0,-3.27894 0.34563,-0.69127 1.29384,-0.94822 1.63947,-1.63948 0.2444,-0.48879 -0.2444,-1.15067 0,-1.63947 0.69126,-1.38253 2.42154,-1.99284 3.27895,-3.27895 0.67783,-1.01676 0.77539,-2.41487 1.63947,-3.27894 0.86408,-0.86408 2.30135,-0.90628 3.27894,-1.63948 1.23657,-0.92742 2.07195,-2.31335 3.27895,-3.27894 3.51163,-2.80931 7.50122,-4.57035 11.47631,-6.5579 2.18597,-1.09298 4.23933,-2.50609 6.55789,-3.27894 1.03189,-0.34396 6.71961,0 8.19737,0 3.27895,0 6.55789,0 9.83684,0 0.54649,0 1.25304,-0.38643 1.63947,0 0.38643,0.38643 -0.38643,1.25304 0,1.63947 0.38643,0.38643 1.25305,-0.38643 1.63948,0 0.38642,0.38643 0.38642,1.25305 0,1.63947 -0.38643,0.38643 -1.15068,-0.24439 -1.63948,0 -1.45313,0.72657 -3.42598,3.92347 -4.91842,4.91842 -3.02672,2.01782 -6.81012,2.90061 -9.83684,4.91842 -0.64305,0.42871 -1.09298,1.09299 -1.63947,1.63948 -2.18596,2.18596 -4.37193,4.37192 -6.55789,6.55789 -1.09298,1.09298 -2.18597,2.18596 -3.27895,3.27895 -0.54649,0.54649 -1.21077,0.99641 -1.63947,1.63947 -1.35568,2.03351 -1.92327,4.52437 -3.27895,6.55789 -1.99987,2.9998 -2.09023,0.16357 -3.27894,4.91842 -0.26509,1.06035 0.34563,2.24205 0,3.27895 -0.2444,0.73319 -1.29384,0.94821 -1.63948,1.63947 -0.24439,0.4888 0,1.09298 0,1.63947 0,0.54649 -0.38642,1.25305 0,1.63948 0.38643,0.38642 1.25305,-0.38643 1.63948,0 0.38642,0.38642 -0.38643,1.25304 0,1.63947 0.13962,0.13962 4.10465,0.27125 4.91842,0 1.15928,-0.38643 2.11966,-1.25305 3.27894,-1.63947 4.88044,-1.62682 -3.36388,3.88206 4.91842,-1.63948 0.64306,-0.4287 1.09298,-1.09298 1.63947,-1.63947 1.09299,0 2.30136,0.4888 3.27895,0 0.4888,-0.2444 -0.38643,-1.25305 0,-1.63947 0.38643,-0.38643 1.63947,-0.54649 1.63947,0 0,0.77285 -1.29384,0.94821 -1.63947,1.63947 -0.2444,0.4888 0.2444,1.15068 0,1.63947 -2.49984,4.99968 -1.29971,-2.9985 -3.27895,4.91842 -0.39763,1.59052 0,3.27895 0,4.91842 0,0.54649 0,1.09298 0,1.63947 0,0.5465 -0.38642,1.25305 0,1.63948 0.38643,0.38642 1.09299,0 1.63948,0 0.54649,0 1.09298,0 1.63947,0 1.63947,0 3.36308,0.51844 4.91842,0 0.7332,-0.2444 1.09298,-1.09298 1.63947,-1.63948 0.54649,-0.54649 1.21077,-0.99641 1.63948,-1.63947 0.67784,-1.01676 0.96163,-2.26219 1.63947,-3.27895 0.4287,-0.64305 1.09298,-1.09298 1.63947,-1.63947 0.54649,-0.54649 1.29384,-0.94821 1.63948,-1.63947 0.24439,-0.4888 -0.54649,-1.63947 0,-1.63947 0.54649,0 0,1.09298 0,1.63947 0,2.01897 -0.2444,3.03455 1.63947,4.91842 0.77285,0.77285 2.24205,-0.34563 3.27895,0 1.15928,0.38643 2.11966,1.25304 3.27894,1.63947 0.51845,0.17282 1.09298,0 1.63947,0 3.4443,0 1.78178,0.30314 6.5579,-3.27895 0.61828,-0.46371 1.09298,-1.09298 1.63947,-1.63947 0.54649,-0.54649 1.39508,-0.90628 1.63947,-1.63947 0.34563,-1.0369 -0.26508,-2.2186 0,-3.27895 0.81396,-3.2558 4.10447,-6.58103 4.91842,-9.83684 0.26509,-1.06034 -0.21435,-2.20719 0,-3.27894 0.33892,-1.6946 1.30056,-3.22383 1.63948,-4.91842 0.35508,-1.77544 0,-9.72376 0,-11.47631 0,-3.27895 0.46371,-6.59085 0,-9.83684 -0.2444,-1.71079 -1.30056,-3.22382 -1.63948,-4.91842 -0.21435,-1.07176 0,-2.18597 0,-3.27895 0,-2.18596 0,-4.37193 0,-6.55789 0,-0.54649 0,-1.09298 0,-1.63947 0,-0.54649 -0.54649,-1.63948 0,-1.63948 0.54649,0 0,1.09299 0,1.63948 0,2.73245 0,5.46491 0,8.19736 0,0.54649 0,1.09298 0,1.63948 0,0.54649 -0.2444,1.15067 0,1.63947 0.72657,1.45313 3.92346,3.42598 4.91842,4.91842 5.52154,8.2823 0.0127,0.038 1.63948,4.91842 0.38642,1.15928 1.09298,2.18596 1.63947,3.27894 1.45731,2.91462 2.60364,4.82087 3.27894,8.19737 0.21436,1.07176 0,2.18596 0,3.27895 0,1.63947 0,3.27894 0,4.91841 0,4.37193 0,8.74386 0,13.11579 0,0.73835 0.24948,4.41947 0,4.91842 -0.34563,0.69126 -1.09298,1.09298 -1.63947,1.63947 -0.54649,0.54649 -0.94821,1.29384 -1.63947,1.63947 -0.4888,0.2444 -1.15068,-0.24439 -1.63947,0 -0.69127,0.34564 -0.94822,1.29385 -1.63948,1.63948 -0.48879,0.2444 -1.15067,-0.2444 -1.63947,0 -0.42684,0.21342 -2.77018,2.14823 -1.63947,3.27894 1.52882,1.52883 4.0804,-2.72027 4.91842,-3.27894 1.01675,-0.67784 2.26218,-0.96164 3.27894,-1.63948 1.92916,-1.2861 3.06357,-3.52728 4.91842,-4.91841 4.78762,-3.59072 2.25531,0.81836 6.55789,-4.91842 3.59072,-4.78762 -0.81836,-2.25531 4.91842,-6.5579 7.94042,-5.95531 -0.0961,1.73559 4.91842,-3.27894 2.18597,-2.18597 4.37193,-4.37193 6.55789,-6.55789 0.5465,-0.5465 1.09299,-1.09299 1.63948,-1.63948 0.54649,-0.54649 0.94821,-1.29384 1.63947,-1.63947 0.4888,-0.2444 1.25305,0.38643 1.63947,0 0.38643,-0.38643 -0.38642,-1.25305 0,-1.63947 0.38643,-0.38643 1.63948,-0.5465 1.63948,0 0,0.54649 -1.25305,-0.38643 -1.63948,0 -0.38642,0.38642 0.2444,1.15067 0,1.63947 -0.69126,1.38252 -2.42154,1.99284 -3.27894,3.27895 -0.67784,1.01675 -0.96164,2.26218 -1.63948,3.27894 -0.4287,0.64306 -1.21077,0.99642 -1.63947,1.63947 -3.61203,0.82563 -0.86662,3.37271 -1.63947,4.91842 -0.34563,0.69127 -1.29384,0.94821 -1.63948,1.63948 -0.24439,0.48879 0.17282,1.12102 0,1.63947 -0.38642,1.15928 -1.25304,2.11966 -1.63947,3.27895 -0.17281,0.51844 0.2444,1.15067 0,1.63947 -0.34563,0.69126 -1.39507,0.90628 -1.63947,1.63947 -0.34563,1.0369 0.34563,2.24205 0,3.27895 -0.4888,1.46639 -2.58769,1.89642 -3.27895,3.27894 -0.2444,0.4888 0.2444,1.15068 0,1.63948 -0.34563,0.69126 -1.29384,0.94821 -1.63947,1.63947 -0.0429,0.0858 -0.0429,4.83265 0,4.91842 0.34563,0.69126 1.29384,0.94821 1.63947,1.63947 0.4888,0.9776 -0.77285,2.50609 0,3.27895 0.38643,0.38643 1.25305,-0.38643 1.63948,0 0.38642,0.38643 0,1.09298 0,1.63947 0,3.27895 0,6.5579 0,9.83684 0,0.54649 0,1.09298 0,1.63947 0,0.5465 -0.38643,1.25305 0,1.63948 0.38642,0.38643 1.25304,-0.38643 1.63947,0 0.0743,0.0743 0,7.42436 0,8.19736 0,3.27895 0,6.5579 0,9.83684 0,0.54649 0.54649,1.63947 0,1.63947 -0.28746,0 0.29849,-5.9609 0,-6.55789 -0.34563,-0.69126 -1.39508,-0.90628 -1.63947,-1.63947 -0.34564,-1.03689 0.34563,-2.24205 0,-3.27895 -0.2444,-0.73319 -1.29385,-0.94821 -1.63948,-1.63947 -0.2444,-0.4888 0.2444,-1.15068 0,-1.63947 -0.21765,-0.4353 -4.48312,-4.70077 -4.91842,-4.91842 -0.48879,-0.2444 -1.15067,0.2444 -1.63947,0 -0.69126,-0.34563 -1.09298,-1.09298 -1.63947,-1.63948 -1.28057,-1.28057 -3.50372,-3.97528 -4.91842,-4.91841 -1.01676,-0.67784 -2.18597,-1.09299 -3.27895,-1.63948 -2.18596,-1.09298 -4.28871,-2.37127 -6.55789,-3.27894 -1.60455,-0.64183 -3.31387,-0.99766 -4.91842,-1.63948 -1.13459,-0.45383 -2.11966,-1.25304 -3.27895,-1.63947 -0.51844,-0.17282 -1.12102,0.17282 -1.63947,0 -1.15928,-0.38643 -2.09344,-1.3431 -3.27895,-1.63947 -1.06034,-0.26509 -2.24205,0.34563 -3.27894,0 -0.7332,-0.2444 -0.90628,-1.39508 -1.63948,-1.63948 -0.75049,-0.25016 -7.28228,0 -8.19736,0 -0.54649,0 -1.12103,0.17282 -1.63947,0 -1.15929,-0.38642 -2.11967,-1.25304 -3.27895,-1.63947 -0.31528,-0.10509 -4.91842,0.0841 -4.91842,0 0,-0.54649 1.15068,-0.2444 1.63947,0 0.69127,0.34563 0.90628,1.39508 1.63948,1.63947 11.51515,3.83839 -2.7713,-3.487 4.91842,1.63948 1.01675,0.67784 2.26218,0.96163 3.27894,1.63947 0.64306,0.4287 0.90628,1.39507 1.63948,1.63947 1.03689,0.34563 2.24205,-0.34563 3.27894,0 0.7332,0.2444 1.09298,1.09298 1.63947,1.63948 0.5465,0.54649 1.09299,1.09298 1.63948,1.63947 5.43745,5.43745 -0.77286,-1.54571 1.63947,3.27895 0.34563,0.69126 1.29384,0.94821 1.63947,1.63947 0.2444,0.48879 0,1.09298 0,1.63947 0,0.54649 0.2444,1.15068 0,1.63947 -3.75161,7.50323 0.67952,-6.95696 -3.27894,4.91842 -0.17282,0.51845 0.2444,1.15068 0,1.63948 -1.81248,3.62496 -1.01753,0.50876 -3.27895,1.63947 -6.82309,3.41155 1.75266,-0.11318 -1.63947,3.27895 -0.38643,0.38642 -1.25305,-0.38643 -1.63947,0 -0.38643,0.38642 0.38642,1.25304 0,1.63947 -0.38643,0.38643 -1.25305,-0.38643 -1.63948,0 -0.38643,0.38643 0.38643,1.25304 0,1.63947 -0.38643,0.38643 -1.25304,0.38643 -1.63947,0 -0.81974,-0.81973 0.81974,-4.09868 0,-4.91842 -0.38643,-0.38642 -1.09298,0 -1.63947,0 -0.54649,0 -1.15068,-0.2444 -1.63948,0 -0.69126,0.34563 -1.09298,1.09299 -1.63947,1.63948 -0.54649,0.54649 -1.21077,0.99642 -1.63947,1.63947 -0.67784,1.01676 -0.96164,2.26219 -1.63948,3.27895 -1.50361,2.25542 -2.52924,1.68616 -4.91842,3.27894 -4.07808,2.71873 -0.18835,0.37672 -1.63947,3.27895 -3.41155,6.82309 0.11318,-1.75266 -3.27895,1.63947 -0.38642,0.38643 0.38643,1.25305 0,1.63947 -0.38642,0.38643 -1.25304,-0.38642 -1.63947,0 -0.38643,0.38643 0.38643,1.25305 0,1.63948 -0.38643,0.38642 -1.25304,-0.38643 -1.63947,0 -0.38643,0.38642 0.38643,1.25304 0,1.63947 -0.38643,0.38643 -1.15068,-0.2444 -1.63947,0 -0.69127,0.34563 -0.94821,1.29384 -1.63948,1.63947 -0.49894,0.24948 -4.18007,0 -4.91842,0 -0.54649,0 -1.25304,0.38643 -1.63947,0 -0.38643,-0.38642 0.38643,-1.25304 0,-1.63947 -0.38643,-0.38643 -1.15068,0.2444 -1.63947,0 -0.69127,-0.34563 -0.94821,-1.29384 -1.63948,-1.63947 -0.48879,-0.2444 -1.25304,0.38642 -1.63947,0 -0.38643,-0.38643 0.38643,-1.25305 0,-1.63948 -0.38643,-0.38642 -1.25304,0.38643 -1.63947,0 -0.23121,-0.2312 -0.16815,-4.58211 0,-4.91842 0.34563,-0.69126 1.39507,-0.90627 1.63947,-1.63947 0.34563,-1.03689 -0.34563,-2.24205 0,-3.27894 0.2444,-0.7332 1.39508,-0.90628 1.63947,-1.63948 0.34564,-1.03689 -0.26508,-2.2186 0,-3.27894 0.29638,-1.18551 1.25305,-2.11967 1.63948,-3.27895 0.17281,-0.51845 -0.17282,-1.12103 0,-1.63947 0.38642,-1.15929 1.25304,-2.11967 1.63947,-3.27895 0.34563,-1.03689 0,-2.18596 0,-3.27895 0,-0.54649 0,-1.09298 0,-1.63947 0,-0.54649 0.38643,-1.25304 0,-1.63947 -0.38643,-0.38643 -1.15068,0.2444 -1.63947,0 -0.69127,-0.34563 -0.94821,-1.29384 -1.63948,-1.63947 -0.48879,-0.2444 -1.15067,0.24439 -1.63947,0 -0.69126,-0.34564 -0.94821,-1.29385 -1.63947,-1.63948 -0.8894,-0.44469 -6.1093,0.4486 -6.55789,0 -0.38643,-0.38643 0.38642,-1.25304 0,-1.63947 -0.066,-0.066 -5.95582,0 -6.5579,0 -0.54649,0 -1.25304,-0.38643 -1.63947,0 -0.38643,0.38643 -0.2444,1.15068 0,1.63947 0.21765,0.4353 4.48312,4.70077 4.91842,4.91842 0.4888,0.2444 1.15068,-0.2444 1.63947,0 3.62497,1.81248 0.50877,1.01753 1.63948,3.27895 0.69126,1.38252 2.58768,1.89642 3.27894,3.27894 0.27061,0.54122 0.047,8.10338 0,8.19737 -0.34563,0.69126 -1.21077,0.99642 -1.63947,1.63947 -0.67784,1.01676 -0.96164,2.26219 -1.63947,3.27895 -0.45454,0.6818 -5.97153,6.26471 -6.5579,6.55789 -0.48879,0.2444 -1.15067,-0.2444 -1.63947,0 -0.69126,0.34563 -0.94821,1.29384 -1.63947,1.63947 -0.4888,0.2444 -1.12103,-0.17281 -1.63948,0 -1.15928,0.38643 -2.11966,1.25305 -3.27894,1.63948 -1.02902,0.343 -5.23806,0 -6.5579,0 -0.54649,0 -1.09298,0 -1.63947,0 -0.54649,0 -1.15067,0.2444 -1.63947,0 -0.69126,-0.34563 -0.94821,-1.29384 -1.63947,-1.63948 -0.4888,-0.24439 -1.25305,0.38643 -1.63948,0 -0.38643,-0.38642 0.2444,-1.15067 0,-1.63947 -0.34563,-0.69126 -1.29384,-0.94821 -1.63947,-1.63947 -0.17998,-0.35996 -0.0405,-9.71521 0,-9.83684 0.2444,-0.7332 1.39507,-0.90628 1.63947,-1.63947 0.37178,-1.11534 -0.43465,-7.32806 0,-8.19737 0.34563,-0.69126 1.29384,-0.94821 1.63948,-1.63947 0.24439,-0.4888 -0.2444,-1.15068 0,-1.63948 0.69126,-1.38252 2.42154,-1.99283 3.27894,-3.27894 0.67784,-1.01676 0.96164,-2.26219 1.63947,-3.27895 0.85741,-1.28611 2.42155,-1.99284 3.27895,-3.27894 0.67784,-1.01676 0.96164,-2.26219 1.63947,-3.27895 0.85741,-1.28611 2.58769,-1.89642 3.27895,-3.27895 0.2444,-0.48879 -0.2444,-1.15067 0,-1.63947 0.34563,-0.69126 1.09298,-1.09298 1.63947,-1.63947 0.54649,-0.54649 0.94821,-1.29384 1.63948,-1.63948 0.48879,-0.24439 1.09298,0 1.63947,0 0.54649,0 1.09298,0 1.63947,0 0.54649,0 1.25305,0.38643 1.63948,0 0.38642,-0.38642 0.54649,-1.63947 0,-1.63947 -0.52864,0 -2.368,2.82347 -3.27895,3.27895 -0.4888,0.2444 -1.15068,-0.2444 -1.63947,0 -0.69127,0.34563 -0.94821,1.29384 -1.63948,1.63947 -0.48879,0.2444 -1.12102,-0.17282 -1.63947,0 -1.09298,0.54649 -2.18596,1.09298 -3.27895,1.63947 -0.54649,0 -1.12102,-0.17281 -1.63947,0 -1.15928,0.38643 -2.11966,1.25305 -3.27895,1.63948 -4.88043,1.62681 3.36389,-3.88206 -4.91841,1.63947 -0.64306,0.4287 -0.99642,1.21077 -1.63948,1.63947 -1.01676,0.67784 -2.26219,0.96164 -3.27894,1.63948 -1.28611,0.8574 -2.18597,2.18596 -3.27895,3.27894 -0.54649,0.54649 -1.09298,1.09298 -1.63947,1.63948 -0.54649,0.54649 -1.29384,0.94821 -1.63948,1.63947 -0.65579,1.31158 0.65579,3.60684 0,4.91842 -0.34563,0.69126 -1.21077,0.99642 -1.63947,1.63947 -0.67784,1.01676 -0.96163,2.26219 -1.63947,3.27895 -2.50108,3.75161 -1.29776,-1.02515 -3.27895,4.91842 -0.17281,0.51844 0.17282,1.12102 0,1.63947 -0.38643,1.15928 -1.25304,2.11966 -1.63947,3.27895 -0.21265,0.63795 0.25442,4.66399 0,4.91841 -0.38643,0.38643 -1.25305,-0.38642 -1.63947,0 -0.38643,0.38643 0.24439,1.15068 0,1.63948 -0.34564,0.69126 -1.29385,0.94821 -1.63948,1.63947 -0.2444,0.4888 0.54649,1.63947 0,1.63947 -0.54649,0 0.2444,-1.15067 0,-1.63947 -0.34563,-0.69126 -1.29384,-0.94821 -1.63947,-1.63947 -0.2444,-0.4888 0.2444,-1.15068 0,-1.63948 -0.34563,-0.69126 -1.39508,-0.90627 -1.63947,-1.63947 -0.34564,-1.03689 0.26508,-2.2186 0,-3.27894 -1.45731,-5.82924 -1.27515,-1.27515 -4.91842,-4.91842 -0.86408,-0.86408 -0.96164,-2.26219 -1.63948,-3.27895 -1.50361,-2.25542 -2.52924,-1.68616 -4.91842,-3.27895 -1.2861,-0.8574 -1.89642,-2.58768 -3.27894,-3.27894 -1.03045,-0.51523 -5.52745,0.51522 -6.55789,0 -0.69127,-0.34563 -0.94822,-1.29384 -1.63948,-1.63948 -1.03429,-0.51714 -7.16307,0.51715 -8.19736,0 -0.69127,-0.34563 -0.94821,-1.29384 -1.63948,-1.63947 -0.60781,-0.3039 -9.83684,0.27135 -9.83684,0 0,-1.98757 2.04756,0.40809 3.27895,1.63947 0.54649,0.5465 0.94821,1.29385 1.63947,1.63948 2.90223,1.45111 0.56023,-2.43862 3.27895,1.63947 0.67784,1.01676 0.96163,2.26219 1.63947,3.27895 0.42871,0.64305 1.29385,0.94821 1.63948,1.63947 0.24439,0.4888 -0.2444,1.15068 0,1.63947 0.34563,0.69127 1.29384,0.94821 1.63947,1.63948 0.21554,0.43108 0,5.70057 0,6.55789 0,1.09298 0.34563,2.24205 0,3.27894 -0.4888,1.46639 -2.58768,1.89643 -3.27895,3.27895 -1.13071,2.26142 1.9855,1.46646 -1.63947,3.27895 -0.4888,0.2444 -1.25305,-0.38643 -1.63947,0 -0.38643,0.38642 0.38642,1.25304 0,1.63947 -0.57549,0.57549 -7.06493,-0.56622 -8.19737,0 -0.69126,0.34563 -0.94821,1.29384 -1.63947,1.63947 -1.31158,0.65579 -3.60684,-0.65579 -4.91842,0 -0.69126,0.34563 -0.94821,1.29385 -1.63947,1.63948 -0.4888,0.24439 -1.09299,0 -1.63948,0 -0.54649,0 -1.09298,0 -1.63947,0 -3.27895,0 -6.55789,0 -9.83684,0 -0.54649,0 -1.09298,0 -1.63947,0 -0.54649,0 -1.25305,0.38642 -1.63947,0 -0.38643,-0.38643 0.38642,-1.25305 0,-1.63948 -0.38643,-0.38642 -1.25305,0.38643 -1.63948,0 -0.44859,-0.44859 0.4447,-5.6685 0,-6.55789 -0.34563,-0.69126 -1.29384,-0.94821 -1.63947,-1.63947 -0.2444,-0.4888 0,-1.09298 0,-1.63948 -0.54649,-1.09298 -0.96164,-2.26218 -1.63947,-3.27894 -0.28559,-0.42838 -6.3933,-6.50303 -6.5579,-6.55789 -1.03689,-0.34564 -2.24205,0.34563 -3.27894,0 -0.7332,-0.2444 -0.94821,-1.29385 -1.63948,-1.63948 -0.48879,-0.2444 -1.15067,0.2444 -1.63947,0 -5.43745,-5.43744 1.54571,0.77286 -3.27895,-1.63947 -1.38252,-0.69126 -1.89642,-2.58768 -3.27894,-3.27895 -0.4888,-0.24439 -1.25305,0.38643 -1.63947,0 -0.38643,-0.38642 0.38642,-1.25304 0,-1.63947 -0.77286,-0.77285 -2.5061,0.77286 -3.27895,0 -0.38643,-0.38643 0.38643,-1.25304 0,-1.63947 -0.38643,-0.38643 -1.15068,0.2444 -1.63947,0 -0.69127,-0.34563 -0.94821,-1.29384 -1.63948,-1.63948 -0.48879,-0.24439 -1.15067,0.2444 -1.63947,0 -0.69126,-0.34563 -0.94821,-1.29384 -1.63947,-1.63947 -0.49895,-0.24947 -4.18007,0 -4.91842,0 -4.37193,0 -8.74386,0 -13.11579,0 -2.73245,0 -5.46491,0 -8.19736,0 -0.54649,0 -1.09298,0 -1.63948,0 -0.54649,0 -1.15067,-0.2444 -1.63947,0 -0.69126,0.34563 -0.94821,1.29384 -1.63947,1.63947 -0.9776,0.4888 -2.30136,-0.48879 -3.27895,0 -0.69126,0.34564 -1.63947,0.86662 -1.63947,1.63948 0,0.54649 1.09298,0 1.63947,0 0.54649,0 1.09298,0 1.63947,0 2.73246,0 5.46492,0 8.19737,0 0.54649,0 1.09298,0 1.63947,0 0.54649,0 1.15068,-0.2444 1.63948,0 0.69126,0.34563 0.94821,1.29384 1.63947,1.63947 4.03794,2.01897 -1.48001,-4.75895 4.91842,1.63947 3.98195,3.98196 -0.48753,2.40744 3.27895,4.91842 1.01675,0.67784 2.30135,0.90628 3.27894,1.63948 2.28409,1.71306 4.48953,4.48952 6.55789,6.55789 0.54649,0.54649 0.94821,1.29384 1.63948,1.63947 0.48879,0.2444 1.25304,-0.38643 1.63947,0 0.38643,0.38643 -0.38643,1.25305 0,1.63947 0.38643,0.38643 1.25305,-0.38642 1.63947,0 0.38643,0.38643 0.38643,1.25305 0,1.63948 -0.38642,0.38643 -1.25304,-0.38643 -1.63947,0 -0.38643,0.38643 0.38643,1.25304 0,1.63947 -0.38643,0.38643 -1.15068,-0.2444 -1.63947,0 -7.50323,3.75161 6.95696,-0.67951 -4.91842,3.27895 -0.51845,0.17281 -1.12103,-0.17282 -1.63948,0 -1.15928,0.38642 -2.11966,1.25304 -3.27894,1.63947 -0.51845,0.17282 -1.12103,-0.17282 -1.63947,0 -2.31857,0.77286 -4.23933,2.50609 -6.5579,3.27895 -0.51844,0.17281 -1.12102,-0.17282 -1.63947,0 -1.15928,0.38642 -2.11966,1.25304 -3.27895,1.63947 -0.51844,0.17282 -1.15067,-0.2444 -1.63947,0 -0.69126,0.34563 -0.94821,1.29384 -1.63947,1.63947 -0.43109,0.21555 -5.70058,0 -6.5579,0 -0.68966,0 -9.34913,0.24385 -9.83683,0 -0.69127,-0.34563 -0.94821,-1.29384 -1.63948,-1.63947 -0.48879,-0.2444 -1.15067,0.2444 -1.63947,0 -0.69126,-0.34563 -0.94821,-1.29384 -1.63947,-1.63947 -0.4888,-0.2444 -1.15068,0.24439 -1.63948,0 -0.69126,-0.34563 -0.94821,-1.29385 -1.63947,-1.63948 -0.4888,-0.24439 -1.25305,0.38643 -1.63947,0 -0.38643,-0.38642 0.38642,-1.25304 0,-1.63947 -0.38643,-0.38643 -1.15068,0.2444 -1.63948,0 -0.67833,-0.33917 -4.45514,-4.22351 -4.91842,-4.91842 -0.67783,-1.01676 -1.25304,-2.11966 -1.63947,-3.27895 -0.17281,-0.51844 0.2444,-1.15067 0,-1.63947 -0.34563,-0.69126 -1.29384,-0.94821 -1.63947,-1.63947 -0.2444,-0.4888 0,-1.09298 0,-1.63947 0,-0.5465 0,-1.09299 0,-1.63948 0,-0.54649 -0.2444,-1.15067 0,-1.63947 0.29318,-0.58637 5.87609,-6.10336 6.55789,-6.55789 1.01676,-0.67784 2.26219,-0.96164 3.27895,-1.63948 0.64305,-0.4287 0.94821,-1.29384 1.63947,-1.63947 0.4888,-0.2444 1.12103,0.17282 1.63947,0 1.15929,-0.38643 2.11967,-1.25304 3.27895,-1.63947 0.51845,-0.17282 1.15068,0.2444 1.63947,0 0.69127,-0.34563 0.94821,-1.29384 1.63948,-1.63948 0.48879,-0.24439 1.25304,0.38643 1.63947,0 0.38643,-0.38642 -0.38643,-1.25304 0,-1.63947 0.38643,-0.38643 1.15068,0.2444 1.63947,0 0.42684,-0.21342 2.77018,-2.14824 1.63948,-3.27894 -0.38643,-0.38643 -1.25305,0.38642 -1.63948,0 -0.38643,-0.38643 0.38643,-1.25305 0,-1.63948 -0.33517,-0.33517 -4.26838,0.32502 -4.91842,0 -0.69126,-0.34563 -0.94821,-1.29384 -1.63947,-1.63947 -0.97759,-0.4888 -2.30135,0.4888 -3.27895,0 -0.69126,-0.34563 -0.90627,-1.39508 -1.63947,-1.63947 -0.88139,-0.2938 -5.16983,0 -6.55789,0 -3.82544,0 -7.65088,0 -11.47631,0 -2.73246,0 -5.46491,0 -8.19737,0 -1.09298,0 -2.30135,-0.4888 -3.27895,0 -0.48879,0.24439 0.38643,1.25304 0,1.63947 -0.38642,0.38643 -1.15067,-0.2444 -1.63947,0 -0.87561,0.43781 -4.05529,4.05529 -4.91842,4.91842 -0.86312,0.86312 -4.48061,4.0428 -4.91842,4.91842 -0.2444,0.48879 0.2444,1.15067 0,1.63947 -0.34563,0.69126 -1.29384,0.94821 -1.63947,1.63947 -0.2444,0.4888 0.2444,1.15068 0,1.63948 -0.24219,0.48437 -3.03676,2.79457 -3.27895,3.27894 -0.49776,0.99553 0.49777,8.84132 0,9.83684 -0.34563,0.69126 -1.29384,0.94821 -1.63947,1.63947 -0.2444,0.4888 0,1.09299 0,1.63948 0,0.54649 0,1.09298 0,1.63947 0,0.39762 0.0527,4.8657 0,4.91842 -1.20616,1.20616 -2.95882,-1.31935 -3.27895,-1.63947 -0.54649,-0.54649 -1.09298,-1.09298 -1.63947,-1.63948 -0.54649,-0.54649 -0.94821,-1.29384 -1.63947,-1.63947 -0.4888,-0.2444 -1.15068,0.2444 -1.63948,0 -1.96736,-0.98368 -2.95105,-3.93473 -4.91841,-4.91842 -0.4888,-0.2444 -1.09299,0 -1.63948,0 -1.09298,-0.54649 -2.26219,-0.96163 -3.27894,-1.63947 -3.75162,-2.50108 1.02514,-1.29776 -4.91842,-3.27895 -0.51845,-0.17281 -1.15068,0.2444 -1.63948,0 -7.50322,-3.75161 6.95697,0.67952 -4.91842,-3.27894 -0.51844,-0.17282 -1.15067,0.24439 -1.63947,0 -1.38252,-0.69127 -1.89642,-2.58769 -3.27894,-3.27895 -0.9776,-0.4888 -2.30136,0.4888 -3.27895,0 -0.69126,-0.34563 -0.94821,-1.29384 -1.63947,-1.63947 -0.59289,-0.29645 -7.05705,0 -8.19737,0 -3.84486,0 0.77286,-0.38643 -3.27895,1.63947 -0.97759,0.4888 -2.24205,-0.34563 -3.27894,0 -1.15928,0.38643 -2.11967,1.25305 -3.27895,1.63947 -0.51845,0.17282 -1.12102,-0.17281 -1.63947,0 -2.31857,0.77286 -4.18688,2.6862 -6.55789,3.27895 -1.06035,0.26509 -2.18597,0 -3.27895,0 -1.09298,0.54649 -2.11966,1.25304 -3.27895,1.63947 -1.47552,0.49184 -3.44289,-0.49184 -4.91842,0 -0.73319,0.2444 -0.94821,1.29384 -1.63947,1.63948 -0.4888,0.24439 -2.18596,0 -1.63947,0 7.46335,0 0.0938,0.77285 4.91842,-1.63948 0.36745,-0.18373 6.1683,0 6.55789,0 0.85731,0 6.12681,-0.21554 6.55789,0 0.69126,0.34563 1.29384,0.94821 1.63948,1.63948 0.24439,0.48879 -0.2444,1.15067 0,1.63947 0.34563,0.69126 1.29384,0.94821 1.63947,1.63947 0.2444,0.4888 -0.2444,1.15068 0,1.63947 0.34563,0.69127 1.29384,0.94822 1.63947,1.63948 0.2444,0.48879 -0.2444,1.15067 0,1.63947 0.34563,0.69126 1.29384,0.94821 1.63947,1.63947 0.2444,0.4888 0.5465,1.63948 0,1.63948 -0.54649,0 0,-2.18597 0,-1.63948 0,1.09299 0.4888,2.30136 0,3.27895 -0.48879,0.97759 -2.30135,-0.4888 -3.27894,0 -0.69126,0.34563 -0.94821,1.29384 -1.63947,1.63947 -0.36746,0.18373 -6.16831,0 -6.5579,0 -2.73245,0 -5.46491,0 -8.19736,0 -1.09298,0 -2.2186,0.26509 -3.27895,0 -1.1855,-0.29637 -2.09344,-1.34309 -3.27895,-1.63947 -1.59052,-0.39763 -3.36307,0.51845 -4.91841,0 -1.15929,-0.38643 -2.09345,-1.3431 -3.27895,-1.63947 -0.79874,-0.19969 -5.69098,0.43345 -6.55789,0 -0.69127,-0.34563 -0.94821,-1.29384 -1.63948,-1.63948 -0.97759,-0.48879 -2.30135,0.4888 -3.27894,0 -0.69126,-0.34563 -0.94821,-1.29384 -1.63948,-1.63947 -0.48879,-0.2444 -1.25304,0.38643 -1.63947,0 -0.23121,-0.23121 -0.16815,-4.58212 0,-4.91842 0.34563,-0.69126 1.29384,-0.94821 1.63947,-1.63947 0.4888,-0.97759 -0.48879,-2.30135 0,-3.27895 0.34564,-0.69126 1.29385,-0.94821 1.63948,-1.63947 0.2444,-0.4888 -0.2444,-1.15068 0,-1.63947 0.34563,-0.69127 1.39507,-0.90628 1.63947,-1.63948 0.34563,-1.03689 0,-2.18596 0,-3.27894 0,-0.54649 -0.2444,-1.15068 0,-1.63948 0.34563,-0.69126 1.29384,-0.94821 1.63947,-1.63947 0.4888,-0.97759 -0.77285,-2.50609 0,-3.27895 0.38643,-0.38642 1.25305,0.38643 1.63948,0 0.38642,-0.38642 0,-1.09298 0,-1.63947 0,-0.54649 0.38642,-1.25304 0,-1.63947 -0.77286,-0.77286 -2.50609,0.77285 -3.27895,0 -0.38643,-0.38643 0.38643,-1.25305 0,-1.63947 -0.0527,-0.0527 -4.5208,0 -4.91842,0 -6.70991,0 4.82466,0.38642 -3.27894,-1.63948 -1.59053,-0.39763 -3.27895,0 -4.91842,0 -1.09299,0 -2.18597,0 -3.27895,0 -4.37193,0 -8.74386,0 -13.11579,0 -1.09298,0 -2.18596,0 -3.27894,0 -0.54649,0 -1.15068,-0.2444 -1.63947,0 -0.69127,0.34563 -0.94822,1.29384 -1.63948,1.63948 -0.48879,0.24439 -1.09298,0 -1.63947,0 -0.54649,0 -1.09298,0 -1.63947,0 -0.54649,0 -1.63948,0.54649 -1.63948,0 0,-0.5465 1.09299,0 1.63948,0 0.54649,0 1.25304,-0.38643 1.63947,0 0.38643,0.38642 -0.38643,1.25304 0,1.63947 0.002,0.002 4.91099,-0.002 4.91842,0 0.73319,0.2444 0.94821,1.29384 1.63947,1.63947 0.4888,0.2444 1.15068,-0.2444 1.63947,0 0.69127,0.34563 0.94822,1.29384 1.63948,1.63947 0.48879,0.2444 1.15067,-0.24439 1.63947,0 0.69126,0.34564 0.90628,1.39508 1.63947,1.63948 1.0369,0.34563 2.24206,-0.34563 3.27895,0 0.74842,0.24947 4.18007,4.18007 4.91842,4.91842 0.96425,0.96424 6.17829,5.79868 6.55789,6.55789 0.2444,0.4888 0,1.09298 0,1.63947 0,0.54649 0,1.09298 0,1.63948 0,0.73834 0.24948,4.41947 0,4.91841 -0.34563,0.69127 -1.29384,0.94822 -1.63947,1.63948 -0.2444,0.48879 0.38643,1.25304 0,1.63947 -0.38643,0.38643 -1.15068,-0.2444 -1.63947,0 -0.69127,0.34563 -1.09299,1.09298 -1.63948,1.63947 -1.28057,1.28057 -3.50371,3.97529 -4.91842,4.91842 -5.95531,3.97021 -1.15937,-0.48009 -4.91842,3.27895 -0.54649,0.54649 -1.09298,1.09298 -1.63947,1.63947 -0.54649,0.54649 -0.86662,1.63948 -1.63947,1.63948 -0.54649,0 -0.54649,-1.63948 0,-1.63948 0.54649,0 0,2.18597 0,1.63948 0,-1.09299 0.48879,-2.30136 0,-3.27895 -0.2444,-0.4888 -1.25305,0.38643 -1.63948,0 -0.38642,-0.38643 0.38643,-1.25305 0,-1.63947 -0.38642,-0.38643 -1.15067,0.24439 -1.63947,0 -0.69126,-0.34563 -0.94821,-1.29385 -1.63947,-1.63948 -0.4888,-0.24439 -1.09298,0 -1.63947,0 -0.5465,0 -1.09299,0 -1.63948,0 -0.39761,0 -4.86569,0.0527 -4.91842,0 -0.38642,-0.38642 0.38643,-1.25304 0,-1.63947 -0.38642,-0.38643 -1.15067,0.2444 -1.63947,0 -0.69126,-0.34563 -0.94821,-1.29384 -1.63947,-1.63947 -0.4888,-0.2444 -1.25305,0.38642 -1.63948,0 -0.38642,-0.38643 0.2444,-1.15068 0,-1.63948 -0.34563,-0.69126 -1.09298,-1.09298 -1.63947,-1.63947 -0.54649,-0.54649 -1.09298,-1.09298 -1.63947,-1.63947 -1.63948,-1.63948 -3.27895,-3.27895 -4.91842,-4.91842 -0.54649,-0.54649 -0.99642,-1.21077 -1.63947,-1.63947 -1.01676,-0.67784 -2.26219,-0.96164 -3.27895,-1.63948 -1.4147,-0.94313 -3.63785,-3.63785 -4.91842,-4.91842 -0.54649,-0.54649 -0.94821,-1.29384 -1.63947,-1.63947 -0.4888,-0.2444 -1.25305,0.38643 -1.63948,0 -0.38642,-0.38643 0.38643,-1.25305 0,-1.63947 -0.38642,-0.38643 -1.15067,0.2444 -1.63947,0 -0.69126,-0.34563 -0.94821,-1.29384 -1.63947,-1.63948 -0.4888,-0.24439 -1.25305,0.38643 -1.63948,0 -0.38642,-0.38642 0.38643,-1.25304 0,-1.63947 -0.38642,-0.38643 -1.15067,0.2444 -1.63947,0 -0.69126,-0.34563 -0.94821,-1.29384 -1.63947,-1.63947 -0.4888,-0.2444 -1.15068,0.2444 -1.63948,0 -0.69126,-0.34563 -0.94821,-1.29384 -1.63947,-1.63948 -1.31158,-0.65578 -3.60684,0.65579 -4.91842,0 -0.69126,-0.34563 -0.94821,-1.29384 -1.63947,-1.63947 -0.4888,-0.2444 -1.09298,0 -1.63947,0 -0.54649,0 -1.09299,0 -1.63948,0 -2.73245,0 -5.46491,0 -8.19736,0 -2.18597,0 -4.37193,0 -6.5579,0 -0.54649,0 -1.63947,0.54649 -1.63947,0 0,-0.54649 1.15068,-0.2444 1.63947,0 0.69127,0.34563 0.94822,1.29384 1.63948,1.63947 0.48879,0.2444 1.15067,-0.24439 1.63947,0 0.69126,0.34564 0.90628,1.39508 1.63947,1.63948 1.0369,0.34563 2.24206,-0.34563 3.27895,0 1.46639,0.48879 1.89642,2.58768 3.27895,3.27894 0.48879,0.2444 1.15067,-0.24439 1.63947,0 3.62497,1.81249 0.50876,1.01753 1.63947,3.27895 0.34563,0.69126 1.29384,0.94821 1.63948,1.63947 0.24439,0.4888 -0.17282,1.12103 0,1.63948 0.38642,1.15928 1.25304,2.11966 1.63947,3.27894 0.30129,0.90389 -0.35052,6.20738 0,6.55789 0.38643,0.38643 1.25304,-0.38642 1.63947,0 0.16395,0.16395 0.16395,4.75448 0,4.91842 -0.38643,0.38643 -1.25304,-0.38642 -1.63947,0 -0.38643,0.38643 0.38643,1.25305 0,1.63948 -0.77286,0.77285 -2.50609,-0.77286 -3.27895,0 -0.38642,0.38642 0.38643,1.25304 0,1.63947 -0.77285,0.77286 -2.30135,-0.4888 -3.27894,0 -0.69127,0.34563 -0.94821,1.29384 -1.63948,1.63947 -0.97759,0.4888 -2.30135,-0.48879 -3.27894,0 -0.69127,0.34563 -0.94821,1.29385 -1.63948,1.63948 -0.48879,0.24439 -1.15067,-0.2444 -1.63947,0 -0.69126,0.34563 -0.94821,1.29384 -1.63947,1.63947 -0.4888,0.2444 -1.09298,0 -1.63948,0 -0.54649,0 -1.09298,0 -1.63947,0 -1.16206,0 -9.41295,0.21194 -9.83684,0 -0.69126,-0.34563 -0.94821,-1.29384 -1.63947,-1.63947 -0.97759,-0.4888 -2.30135,0.48879 -3.27895,0 -0.69126,-0.34563 -1.09298,-1.09299 -1.63947,-1.63948 -0.54649,-0.54649 -1.29384,-0.94821 -1.63947,-1.63947 -0.2444,-0.4888 0.2444,-1.15068 0,-1.63947 -0.34563,-0.69127 -1.29384,-0.94821 -1.63948,-1.63948 -0.24439,-0.48879 0.2444,-1.15067 0,-1.63947 -0.34563,-0.69126 -1.29384,-0.94821 -1.63947,-1.63947 -0.2444,-0.4888 0.17282,-1.12103 0,-1.63948 -0.38643,-1.15928 -1.25304,-2.11966 -1.63947,-3.27894 -0.17282,-0.51845 0.2444,-1.15068 0,-1.63947 -0.34563,-0.69127 -1.29384,-0.94821 -1.63947,-1.63948 -0.0699,-0.13976 -0.0699,-6.41813 0,-6.55789 0.4378,-0.87562 4.05529,-4.0553 4.91841,-4.91842 2.73246,-2.73245 5.46491,-5.46491 8.19737,-8.19736 0.86312,-0.86313 4.0428,-4.48062 4.91842,-4.91842 0.4888,-0.2444 2.18596,0 1.63947,0 -1.09298,0 -2.24205,-0.34564 -3.27894,0 -0.7332,0.24439 -0.94821,1.29384 -1.63948,1.63947 -0.97759,0.4888 -2.30135,-0.4888 -3.27894,0 -0.69127,0.34563 -0.94821,1.29384 -1.63948,1.63947 -0.48879,0.2444 -1.15067,-0.2444 -1.63947,0 -0.69126,0.34563 -0.90628,1.39508 -1.63947,1.63948 -1.0369,0.34563 -2.24205,-0.34564 -3.27895,0 -0.73319,0.24439 -0.94821,1.29384 -1.63947,1.63947 -0.4888,0.2444 -1.15068,-0.2444 -1.63947,0 -1.38253,0.69126 -1.89643,2.58768 -3.27895,3.27894 -0.4888,0.2444 -1.25305,-0.38642 -1.63947,0 -0.38643,0.38643 0.38642,1.25305 0,1.63948 -0.38643,0.38643 -1.25305,-0.38643 -1.63948,0 -0.77285,0.77285 0.77286,2.50609 0,3.27894 -0.38642,0.38643 -1.25304,-0.38642 -1.63947,0 -0.38643,0.38643 0.38643,1.25305 0,1.63948 -0.38643,0.38642 -1.25305,-0.38643 -1.63947,0 -0.38643,0.38642 0.24439,1.15067 0,1.63947 -0.34563,0.69126 -1.09299,1.09298 -1.63948,1.63947 -0.54649,0.54649 -0.99642,1.21077 -1.63947,1.63948 -1.01676,0.67783 -2.26219,0.96163 -3.27895,1.63947 -1.8917,1.26113 -3.02672,3.65729 -4.91842,4.91842 -1.01675,0.67784 -2.41486,0.77539 -3.27894,1.63947 -0.86408,0.86408 -0.96164,2.26219 -1.63947,3.27895 -0.42871,0.64305 -1.39508,0.90628 -1.63948,1.63947 -0.34563,1.03689 0.34563,2.24205 0,3.27895 -0.2444,0.73319 -1.29384,0.94821 -1.63947,1.63947 -0.4888,0.97759 1.09298,3.27895 0,3.27895 -1.09298,0 0.4888,-2.30136 0,-3.27895 -0.34563,-0.69126 -1.29384,-0.94821 -1.63947,-1.63947 -0.42969,-0.85938 0.42968,-2.41957 0,-3.27895 -0.34564,-0.69126 -1.29385,-0.94821 -1.63948,-1.63947 -0.2444,-0.4888 0.2444,-1.15068 0,-1.63948 -0.69126,-1.38252 -2.58768,-1.89642 -3.27894,-3.27894 -0.2444,-0.4888 0.38642,-1.25305 0,-1.63947 -0.38643,-0.38643 -1.15068,0.24439 -1.63948,0 -0.69126,-0.34564 -1.09298,-1.09299 -1.63947,-1.63948 -1.28057,-1.28057 -3.50372,-3.97528 -4.91842,-4.91842 -1.01676,-0.67784 -2.41487,-0.77539 -3.27894,-1.63947 -0.38643,-0.38643 0.38642,-1.25305 0,-1.63947 -0.86408,-0.86408 -2.26219,-0.96164 -3.27895,-1.63948 -0.64306,-0.4287 -0.94821,-1.29384 -1.63947,-1.63947 -0.4888,-0.2444 -1.15068,0.2444 -1.63948,0 -0.69126,-0.34563 -0.94821,-1.29384 -1.63947,-1.63947 -0.97759,-0.4888 -2.30135,0.48879 -3.27895,0 -0.69126,-0.34563 -0.94821,-1.29384 -1.63947,-1.63948 -0.88939,-0.44469 -6.1093,0.4486 -6.55789,0 -0.38643,-0.38642 0.38643,-1.25304 0,-1.63947 -0.38643,-0.38643 -2.18597,0 -1.63948,0 7.46335,0 0.0938,-0.77285 4.91842,1.63947 0.4888,0.2444 1.15068,-0.24439 1.63948,0 0.69126,0.34564 1.09298,1.09299 1.63947,1.63948 0.54649,0.54649 1.09298,1.09298 1.63947,1.63947 0.54649,0.54649 1.09299,1.09298 1.63948,1.63947 0.54649,0.54649 1.29384,0.94821 1.63947,1.63948 0.2444,0.48879 -0.17282,1.12102 0,1.63947 3.95846,11.87539 -0.47267,-2.58481 3.27895,4.91842 0.21554,0.43108 0,5.70058 0,6.55789 0,0.54649 0,1.09298 0,1.63947 0,0.5465 0.38642,1.25305 0,1.63948 -0.38643,0.38643 -1.25305,-0.38643 -1.63948,0 -0.38642,0.38643 0.2444,1.15067 0,1.63947 -0.34563,0.69126 -1.29384,0.94821 -1.63947,1.63947 -1.13071,2.26142 1.98549,1.46647 -1.63947,3.27895 -0.4888,0.2444 -1.25305,-0.38643 -1.63948,0 -0.38642,0.38643 0.38643,1.25305 0,1.63947 -0.77285,0.77286 -2.50609,-0.77285 -3.27894,0 -0.38643,0.38643 0.54649,1.63948 0,1.63948 -0.77286,0 -0.94821,-1.29385 -1.63948,-1.63948 -0.97759,-0.48879 -2.50609,0.77286 -3.27894,0 -0.81974,-0.81973 0.81973,-4.09868 0,-4.91842 -0.38643,-0.38642 -1.25305,0.38643 -1.63948,0 -0.38642,-0.38642 0.38643,-1.25304 0,-1.63947 -0.38642,-0.38643 -1.25304,0.38643 -1.63947,0 -0.38643,-0.38643 0.2444,-1.15068 0,-1.63947 -0.34563,-0.69126 -1.29384,-0.94821 -1.63947,-1.63948 -0.2444,-0.48879 0.38643,-1.25304 0,-1.63947 -0.38643,-0.38643 -1.25305,0.38643 -1.63947,0 -0.38643,-0.38643 0.24439,-1.15067 0,-1.63947 -0.15692,-0.31383 -6.24407,-6.40098 -6.5579,-6.55789 -0.48879,-0.2444 -1.25304,0.38642 -1.63947,0 -3.39213,-3.39213 5.18362,0.1326 -1.63947,-3.27895 -0.4888,-0.2444 -1.1093,0.13254 -1.63948,0 -16.5646,-4.14115 1.18401,0.592 -6.55789,-3.27895 -0.49895,-0.24947 -4.18007,0 -4.91842,0 -3.27894,0 -6.55789,0 -9.83684,0 -1.53916,0 -7.25796,-0.31313 -8.19736,0 -0.7332,0.2444 -0.90628,1.39508 -1.63948,1.63948 -2.07378,0.69126 -4.4841,-0.69127 -6.55789,0 -0.73319,0.2444 -0.94821,1.29384 -1.63947,1.63947 -0.4888,0.2444 -1.12103,-0.17282 -1.63947,0 -1.15929,0.38643 -2.11967,1.25305 -3.27895,1.63947 -1.03689,0.34563 -2.50609,-0.77285 -3.27895,0 -2.18596,2.18597 2.73246,1.63948 -1.63947,1.63948 -0.54649,0 -2.18596,0 -1.63947,0 6.0114,0 12.0228,0 18.0342,0 1.09298,0 2.18597,0 3.27895,0 1.09298,0 2.2186,-0.26509 3.27894,0 1.18551,0.29637 2.08069,1.39982 3.27895,1.63947 1.60764,0.32153 3.27895,0 4.91842,0 0.54649,0 1.12103,-0.17282 1.63947,0 1.15929,0.38643 2.11967,1.25304 3.27895,1.63947 1.03689,0.34563 2.50609,-0.77285 3.27894,0 0.38643,0.38643 0,1.09298 0,1.63948 0,0.54649 0.38643,1.25304 0,1.63947 -0.38642,0.38643 -1.25304,-0.38643 -1.63947,0 -0.38643,0.38643 0.2444,1.15068 0,1.63947 -0.34563,0.69126 -1.29384,0.94821 -1.63947,1.63947 -0.4888,0.9776 0.77285,2.5061 0,3.27895 -0.38643,0.38643 -1.25305,-0.38643 -1.63947,0 -0.38643,0.38643 0.38642,1.25305 0,1.63947 -0.38643,0.38643 -1.63948,0.5465 -1.63948,0 0,-0.54649 1.25305,-0.38642 1.63948,0 0.16394,0.16395 0.16394,4.75448 0,4.91842 -0.38643,0.38643 -1.09299,0 -1.63948,0 -1.16206,0 -9.41295,-0.21194 -9.83684,0 -0.69126,0.34563 -0.94821,1.29385 -1.63947,1.63948 -0.97759,0.48879 -2.24205,-0.34563 -3.27895,0 -1.15928,0.38642 -2.11966,1.25304 -3.27894,1.63947 -0.51845,0.17282 -1.12103,-0.17282 -1.63947,0 -1.15929,0.38643 -2.11967,1.25305 -3.27895,1.63947 -0.51845,0.17282 -1.12103,-0.17281 -1.63947,0 -1.15929,0.38643 -2.11967,1.25305 -3.27895,1.63948 -0.88729,0.29576 -5.99937,0 -6.55789,0 -2.73246,0 -5.46491,0 -8.19737,0 -0.54649,0 -1.10359,0.10717 -1.63947,0 -2.20949,-0.4419 -4.33531,-1.26905 -6.55789,-1.63948 -1.07811,-0.17968 -2.2186,0.26509 -3.27895,0 -2.96735,0.98816 -3.04913,-2.65585 -4.91842,-3.27894 -1.03689,-0.34563 -2.30135,0.48879 -3.27895,0 -0.48879,-0.2444 0.2444,-1.15068 0,-1.63948 -0.34563,-0.69126 -1.29384,-0.94821 -1.63947,-1.63947 -0.0699,-0.13976 -0.0699,-6.41813 0,-6.55789 0.34563,-0.69126 1.29384,-0.94821 1.63947,-1.63948 0.32502,-0.65003 -0.33516,-4.58325 0,-4.91841 0.38643,-0.38643 1.25305,0.38642 1.63948,0 0.38643,-0.38643 0,-1.09299 0,-1.63948 0,-0.54649 0.38643,-1.25304 0,-1.63947 -0.38643,-0.38643 -1.09298,0 -1.63948,0 -2.73245,0 -5.46491,0 -8.19736,0 -0.54649,0 -1.25305,-0.38643 -1.63947,0 -0.38643,0.38643 0.38642,1.25304 0,1.63947 -0.38643,0.38643 -1.63948,0.54649 -1.63948,0 0,-0.54649 1.09298,0 1.63948,0 0.54649,0 1.09298,0 1.63947,0 0.54649,0 1.25304,-0.38643 1.63947,0 0.38643,0.38643 -0.2444,1.15068 0,1.63948 0.69126,1.38252 2.58769,1.89642 3.27895,3.27894 0.2444,0.4888 -0.38643,1.25305 0,1.63947 0.38643,0.38643 1.25304,-0.38642 1.63947,0 0.38643,0.38643 -0.38643,1.25305 0,1.63948 0.38643,0.38643 1.25305,-0.38643 1.63947,0 0.38643,0.38643 0.38643,1.25304 0,1.63947 -0.38642,0.38643 -1.25304,-0.38643 -1.63947,0 -3.39213,3.39213 5.18362,-0.1326 -1.63947,3.27895 -0.59289,0.29644 -7.05705,0 -8.19737,0 -0.54649,0 -1.25304,0.38642 -1.63947,0 -0.38643,-0.38643 0.38643,-1.25305 0,-1.63948 -0.4486,-0.44859 -5.6685,0.4447 -6.55789,0 -0.69127,-0.34563 -0.94821,-1.29384 -1.63948,-1.63947 -0.49894,-0.24947 -4.18007,0 -4.91842,0 -0.54649,0 -1.25304,-0.38643 -1.63947,0 -0.81973,0.81974 0.81974,4.09868 0,4.91842 -0.38643,0.38643 -1.25304,-0.38643 -1.63947,0 -0.77286,0.77286 0.77285,2.50609 0,3.27895 -0.38643,0.38642 -1.25305,-0.38643 -1.63947,0 -0.38643,0.38642 0.38642,1.25304 0,1.63947 -0.38643,0.38643 -1.09299,0 -1.63948,0 -0.54649,0 -1.09298,0 -1.63947,0 -0.54649,0 -1.09298,0 -1.63947,0 -0.54649,0 -1.25305,0.38643 -1.63948,0 -0.57548,-0.57549 0.56622,-7.06493 0,-8.19737 -0.34563,-0.69126 -1.29384,-0.94821 -1.63947,-1.63947 -0.2444,-0.4888 0.2444,-1.15068 0,-1.63947 -0.98368,-1.96737 -3.93474,-2.95105 -4.91842,-4.91842 -0.2444,-0.4888 0.38643,-1.25305 0,-1.63947 -0.38643,-0.38643 -1.25305,0.38642 -1.63947,0 -0.38643,-0.38643 0.2444,-1.15068 0,-1.63948 -0.34563,-0.69126 -1.29384,-0.94821 -1.63948,-1.63947 -0.24439,-0.4888 0,-1.09298 0,-1.63947 0,-0.54649 -0.38642,-1.25305 0,-1.63948 0.38643,-0.38642 1.09299,0 1.63948,0 0,-0.54649 -0.2444,-1.15067 0,-1.63947 0.93976,-1.87952 3.42078,-2.28052 4.91842,-3.27895 0.64305,-0.4287 0.94821,-1.29384 1.63947,-1.63947 0.97759,-0.4888 2.30135,0.4888 3.27895,0 4.0518,-2.0259 -0.56591,-1.63947 3.27894,-1.63947 4.37193,0 -0.54649,0.54649 1.63948,-1.63948 0.38642,-0.38642 1.63947,-0.54649 1.63947,0 0,0.5465 -1.25305,-0.38642 -1.63947,0 -0.38643,0.38643 0.38642,1.25305 0,1.63948 -0.38643,0.38643 -1.25305,-0.38643 -1.63948,0 -0.38643,0.38643 0.38643,1.25304 0,1.63947 -0.38643,0.38643 -1.15067,-0.2444 -1.63947,0 -0.69126,0.34563 -0.94821,1.29384 -1.63947,1.63947 -0.4888,0.2444 -1.18477,-0.30313 -1.63948,0 -1.28611,0.85741 -1.99283,2.42154 -3.27894,3.27895 -0.45471,0.30314 -1.15068,-0.2444 -1.63948,0 -0.69126,0.34563 -0.94821,1.29384 -1.63947,1.63947 -0.4888,0.2444 -1.15068,-0.2444 -1.63947,0 -2.12622,1.06311 -5.74719,7.40471 -6.5579,9.83684 -0.17281,0.51845 0.17282,1.12103 0,1.63947 -0.38642,1.15929 -1.25304,2.11967 -1.63947,3.27895 -0.45803,1.37409 0.54326,5.47137 0,6.55789 -0.34563,0.69127 -1.29384,0.94821 -1.63947,1.63948 -0.2444,0.48879 0,1.09298 0,1.63947 0,0.54649 -0.38643,1.25305 0,1.63947 0.38643,0.38643 1.09298,0 1.63947,0 0.54649,0 1.25305,0.38643 1.63947,0 1.28162,-1.28162 -1.42605,-2.85211 -1.63947,-3.27894 -0.51997,-1.03995 0.53252,-7.13233 0,-8.19737 -0.34563,-0.69126 -1.39507,-0.90628 -1.63947,-1.63947 -0.39547,-1.1864 0.54043,-6.01746 0,-6.55789 -0.38643,-0.38643 -1.25305,0.38642 -1.63947,0 -0.77286,-0.77286 0.77285,-2.5061 0,-3.27895 -0.77286,-0.77286 -2.5061,0.77285 -3.27895,0 -0.38643,-0.38643 -0.54649,-1.63947 0,-1.63947 0.54649,0 0.38643,1.25304 0,1.63947 -0.38643,0.38643 -1.25305,-0.38643 -1.63947,0 -0.38643,0.38643 0.38642,1.25304 0,1.63947 -0.38643,0.38643 -1.09299,0 -1.63948,0 -0.54649,0 -1.15067,0.2444 -1.63947,0 -0.69126,-0.34563 -0.94821,-1.29384 -1.63947,-1.63947 -0.4888,-0.2444 -1.15068,0.2444 -1.63948,0 -0.69126,-0.34563 -0.94821,-1.29384 -1.63947,-1.63947 -0.4888,-0.2444 -1.15068,0.24439 -1.63947,0 -6.8231,-3.41155 1.75265,0.11318 -1.63948,-3.27895 -0.38642,-0.38643 -1.25304,0.38643 -1.63947,0 -0.38643,-0.38643 0.38643,-1.25305 0,-1.63947 -0.38643,-0.38643 -1.63947,0.54649 -1.63947,0 0,-0.54649 1.15068,-0.2444 1.63947,0 1.87952,0.93976 2.28052,3.42078 3.27895,4.91842 0.4287,0.64305 1.21077,0.99642 1.63947,1.63947 0.67784,1.01676 0.96164,2.26219 1.63947,3.27895 2.50108,3.75161 1.29776,-1.02515 3.27895,4.91841 0.30833,0.92499 0,3.84111 0,4.91842 0,0.5465 0,1.09299 0,1.63948 0,0.54649 0.38643,1.25304 0,1.63947 -0.38643,0.38643 -1.25305,-0.38643 -1.63947,0 -0.38643,0.38643 0.38642,1.25305 0,1.63947 -0.38643,0.38643 -1.25305,-0.38642 -1.63948,0 -0.38642,0.38643 0.2444,1.15068 0,1.63948 -1.81248,3.62496 -1.01752,0.50876 -3.27894,1.63947 -0.69126,0.34563 -0.90628,1.39507 -1.63948,1.63947 -1.03689,0.34563 -2.24205,-0.34563 -3.27894,0 -0.7332,0.2444 -0.94821,1.29384 -1.63947,1.63948 -0.9776,0.48879 -2.30136,-0.4888 -3.27895,0 -0.69126,0.34563 -0.94821,1.29384 -1.63947,1.63947 -0.4888,0.2444 -1.25305,0.38643 -1.63948,0 -0.0743,-0.0743 0,-7.42436 0,-8.19737 0,-2.00127 0.63619,-3.78059 -1.63947,-4.91842 -0.4888,-0.24439 -1.25305,0.38643 -1.63947,0 -0.38643,-0.38642 0,-1.09298 0,-1.63947 0,-0.54649 -0.54649,-1.63947 0,-1.63947 0.54649,0 0,1.09298 0,1.63947 0,0.54649 0.54649,1.63947 0,1.63947 -0.12033,0 0.15041,-4.61759 0,-4.91842 -0.34563,-0.69126 -1.29385,-0.94821 -1.63948,-1.63947 -0.24439,-0.48879 0.2444,-1.15067 0,-1.63947 -0.34563,-0.69126 -1.29384,-0.94821 -1.63947,-1.63947 -0.2444,-0.4888 0.38643,-1.25305 0,-1.63948 -0.38643,-0.38643 -1.15068,0.2444 -1.63947,0 -1.38253,-0.69126 -1.99284,-2.42154 -3.27895,-3.27894 -0.82563,-3.61203 -3.37271,-0.86662 -4.91842,-1.63948 -0.69126,-0.34563 -0.94821,-1.29384 -1.63947,-1.63947 -0.4888,-0.2444 -1.12103,0.17282 -1.63947,0 -1.15929,-0.38643 -2.11967,-1.25305 -3.27895,-1.63947 -1.47553,-0.49185 -3.44289,0.49184 -4.91842,0 -0.73319,-0.2444 -0.94821,-1.29384 -1.63947,-1.63948 -0.4888,-0.24439 -1.09299,0 -1.63948,0 -1.09298,0 -2.18596,0 -3.27894,0 -0.54649,0 -1.25305,-0.38642 -1.63948,0 -0.38642,0.38643 0.38643,1.25305 0,1.63948 -0.38642,0.38642 -1.25304,-0.38643 -1.63947,0 -0.81974,0.81973 0.81974,4.09868 0,4.91842 -0.38643,0.38642 -1.25304,-0.38643 -1.63947,0 -0.77286,0.77285 1.09298,3.27894 0,3.27894 -0.54649,0 -0.38643,-1.25304 0,-1.63947 0.38643,-0.38643 1.09298,0 1.63947,0 0.73835,0 4.41947,-0.24947 4.91842,0 0.69126,0.34563 0.94821,1.29384 1.63947,1.63947 0.9776,0.4888 2.50609,-0.77285 3.27895,0 0.38643,0.38643 -0.38643,1.25305 0,1.63948 0.38643,0.38642 1.25305,-0.38643 1.63947,0 0.38643,0.38642 -0.38642,1.25304 0,1.63947 2.18597,2.18596 1.63948,-2.73246 1.63948,1.63947 0,2.73246 0,5.46491 0,8.19737 0,0.54649 0.38642,1.25304 0,1.63947 -0.38643,0.38643 -1.15068,-0.2444 -1.63948,0 -0.69126,0.34563 -0.94821,1.29384 -1.63947,1.63947 -0.4888,0.2444 -1.15068,-0.24439 -1.63947,0 -0.69127,0.34563 -0.94821,1.29385 -1.63948,1.63948 -0.48879,0.24439 -1.15067,-0.2444 -1.63947,0 -3.73167,3.73167 0.33955,0.43331 -3.27895,1.63947 -1.15928,0.38643 -2.11966,1.25305 -3.27894,1.63947 -0.51845,0.17282 -1.15068,-0.2444 -1.63947,0 -0.69127,0.34563 -0.94822,1.29384 -1.63948,1.63948 -0.48879,0.24439 -1.25304,-0.38643 -1.63947,0 -0.38643,0.38642 0.38643,1.25304 0,1.63947 -0.38643,0.38643 -1.25305,0.38643 -1.63947,0 -0.38643,-0.38643 0.38642,-1.25305 0,-1.63947 -0.38643,-0.38643 -1.25305,0.38642 -1.63948,0 -0.38642,-0.38643 0.38643,-1.25305 0,-1.63948 -0.38642,-0.38642 -1.25304,0.38643 -1.63947,0 -0.575487,-0.57548 0.56622,-7.06492 0,-8.19736 -3.411548,-6.8231 0.11318,1.75265 -3.278947,-1.63948 -0.06597,-0.066 0,-5.95581 0,-6.55789 0,-0.54649 -0.546491,-1.63947 0,-1.63947 0.546491,0 0,2.18596 0,1.63947 0,-1.09298 0,-2.18596 0,-3.27894 0,-0.5465 0.386428,-1.25305 0,-1.63948 -0.386427,-0.38643 -1.253045,0.38643 -1.639473,0 -0.386427,-0.38643 0.244398,-1.15067 0,-1.63947 -0.345631,-0.69126 -1.293842,-0.94821 -1.639473,-1.63947 -0.244398,-0.4888 0.386428,-1.25305 0,-1.63948 -0.386427,-0.38642 -1.150677,0.2444 -1.639473,0 -0.691263,-0.34563 -0.94821,-1.29384 -1.639473,-1.63947 -0.431086,-0.21554 -5.700578,0 -6.557892,0 -0.546492,0 -1.092983,0 -1.639474,0 -0.546491,0 -1.253045,-0.38643 -1.639473,0 -0.386427,0.38643 0.386428,1.25305 0,1.63947 -0.386427,0.38643 -1.092982,0 -1.639473,0 -0.546491,0 -2.185964,0 -1.639473,0 9.290348,0 0.546491,-1.09298 3.278946,1.63948 0.386428,0.38642 1.253046,-0.38643 1.639473,0 0.386428,0.38642 -0.386427,1.25304 0,1.63947 0.386428,0.38643 1.253046,-0.38643 1.639474,0 0.772855,0.77285 -0.488797,2.30135 0,3.27895 0.345631,0.69126 1.293841,0.94821 1.639473,1.63947 0.350096,0.70019 0,7.54926 0,8.19736 0,1.38807 0.293797,5.67651 0,6.5579 -0.244399,0.73319 -1.293842,0.94821 -1.639473,1.63947 -0.244399,0.4888 0.244398,1.15068 0,1.63947 -0.691263,1.38253 -2.587684,1.89642 -3.278947,3.27895 -1.130709,2.26142 1.985492,1.46646 -1.639473,3.27895 -0.488796,0.24439 -1.150676,-0.2444 -1.639473,0 -0.691262,0.34563 -0.906278,1.39507 -1.639473,1.63947 -0.839227,0.27974 -8.664761,0 -9.836839,0 -0.738349,0 -4.419472,0.24947 -4.918419,0 -3.624965,-1.81248 -0.508764,-1.01753 -1.639473,-3.27895 -0.345631,-0.69126 -1.293842,-0.94821 -1.639473,-1.63947 -0.244398,-0.4888 0.244398,-1.15068 0,-1.63947 -0.345631,-0.69127 -1.293842,-0.94821 -1.639473,-1.63948 -0.488797,-0.97759 0.772855,-2.50609 0,-3.27894 -0.386428,-0.38643 -1.253046,0.38642 -1.639473,0 -0.386428,-0.38643 0.244398,-1.15068 0,-1.63948 -0.345632,-0.69126 -1.293842,-0.94821 -1.639474,-1.63947 -0.215542,-0.43109 0,-5.70058 0,-6.55789 0,-0.68967 -0.243851,-9.34914 0,-9.83684 0.345632,-0.69126 1.293842,-0.94821 1.639474,-1.63947 0.244398,-0.4888 0,-1.09299 0,-1.63948 0.546491,-0.54649 1.293841,-0.94821 1.639473,-1.63947 0.244398,-0.4888 -0.303139,-1.18477 0,-1.63947 1.222064,-1.8331 4.773434,-4.77344 6.557892,-6.5579 0.546491,-0.54649 1.293842,-0.94821 1.639473,-1.63947 0.244398,-0.4888 -0.386427,-1.25304 0,-1.63947 0.386428,-0.38643 1.253046,-0.38643 1.639473,0 0.386428,0.38643 0.386428,1.25304 0,1.63947 -0.386427,0.38643 -1.150676,-0.2444 -1.639473,0 -0.691262,0.34563 -1.293842,0.94821 -1.639473,1.63947 -0.244398,0.4888 0.244398,1.15068 0,1.63948 -0.293184,0.58637 -5.876094,6.10336 -6.557892,6.55789 -1.016758,0.67784 -2.414868,0.77539 -3.278947,1.63947 -6.398428,6.39843 0.379499,0.88048 -1.639473,4.91842 -0.691262,1.38253 -2.790149,1.81256 -3.278946,3.27895 0,7.46335 0.772855,0.0938 -1.639473,4.91842 -0.215543,0.43108 0,5.70058 0,6.55789 0,0.54649 0.546491,1.63947 0,1.63947 -1.092982,0 0.488796,-2.30135 0,-3.27894 -0.345631,-0.69127 -1.293842,-0.94821 -1.639473,-1.63948 -0.488797,-0.97759 0.345631,-2.24205 0,-3.27894 -3.958462,-11.87539 0.472666,2.5848 -3.278946,-4.91842 -0.488797,-0.97759 0.772855,-2.50609 0,-3.27895 -0.386428,-0.38643 -1.253046,0.38643 -1.639473,0 -0.386428,-0.38643 0.244398,-1.15067 0,-1.63947 -0.345632,-0.69126 -1.293842,-0.94821 -1.639474,-1.63947 -0.244398,-0.4888 0.244399,-1.15068 0,-1.63948 -0.345631,-0.69126 -1.293841,-0.94821 -1.639473,-1.63947 -0.244398,-0.4888 0.244399,-1.15068 0,-1.63947 -0.345631,-0.69127 -1.293841,-0.94821 -1.639473,-1.63948 -0.244398,-0.48879 0.244398,-1.15067 0,-1.63947 -3.411547,-6.82309 0.113182,1.75266 -3.278946,-1.63947 -0.386427,-0.38643 0.386428,-1.25305 0,-1.63948 -0.386427,-0.38642 -1.253046,0.38643 -1.639473,0 -0.386428,-0.38642 -0.546491,-1.63947 0,-1.63947 0.546491,0 0.386427,1.25305 0,1.63947 -0.386428,0.38643 -1.253046,-0.38642 -1.639473,0 -1.932138,1.93214 -3.278946,4.37193 -4.918419,6.5579 z"
     id="path2985"
     style="fill:none;stroke:#000000;stroke-width:1px;stroke-linecap:butt;stroke-linejoin:miter;stroke-opacity:1" />
</svg>
