<?xml version="1.0" encoding="UTF-8" standalone="no"?>
<!-- Created with Inkscape (http://www.inkscape.org/) -->

<svg
   xmlns:dc="http://purl.org/dc/elements/1.1/"
   xmlns:cc="http://creativecommons.org/ns#"
   xmlns:rdf="http://www.w3.org/1999/02/22-rdf-syntax-ns#"
   xmlns:svg="http://www.w3.org/2000/svg"
   xmlns="http://www.w3.org/2000/svg"
   version="1.1"
   width="1029.5891"
   height="733.04431"
   id="svg2">
  <defs
     id="defs4" />
  <metadata
     id="metadata7">
    <rdf:RDF>
      <cc:Work
         rdf:about="">
        <dc:format>image/svg+xml</dc:format>
        <dc:type
           rdf:resource="http://purl.org/dc/dcmitype/StillImage" />
        <dc:title></dc:title>
      </cc:Work>
    </rdf:RDF>
  </metadata>
  <path
     d="m 330.4818,61.957132 c -2.01737,0.935222 -4.15527,1.853356 -6.37528,2.075356 -0.45257,0.04526 -0.8758,-0.02331 -1.32253,0.09156 -1.25646,0.323092 -2.43584,0.731662 -3.73021,0.915599 -0.74442,0.105785 -1.43887,0.500682 -2.17031,0.610398 -0.50947,0.07642 -1.01363,-0.196914 -1.55991,-0.09156 -0.46176,0.08905 -0.97271,0.250127 -1.42426,0.366239 -0.47544,0.122257 -1.80378,0.61478 -2.20422,0.885078 -0.26104,0.176205 -0.45387,0.455443 -0.71213,0.610399 -0.1741,0.104461 -0.42138,0.188868 -0.57649,0.305199 -0.17471,0.131037 -0.34034,0.358313 -0.54258,0.48832 -0.51197,0.329127 -1.07561,0.513118 -1.59381,0.824038 -0.28491,0.170941 -0.50886,0.427407 -0.77996,0.610399 -0.2487,0.167872 -0.5513,0.258911 -0.81386,0.396759 -0.28431,0.149262 -1.20855,1.026649 -1.49209,1.281838 -0.43085,0.387765 -0.51777,0.901473 -0.77995,1.373397 -0.14349,0.258273 -0.40188,0.474676 -0.50867,0.762999 -0.0326,0.08808 0.13305,0.676114 -0.0339,0.976638 -0.14251,0.256517 -0.4045,0.453423 -0.54258,0.701958 -0.0679,0.122127 -0.0181,0.291743 -0.10173,0.42728 -0.31095,0.503742 -0.69076,1.113336 -0.84778,1.678596 -0.0804,0.289648 -0.12087,0.605458 -0.23737,0.885079 -0.1789,0.429341 -0.61975,0.705081 -0.74605,1.159757 -0.30018,1.080651 -0.40908,2.206143 -0.67822,3.296154 -0.12285,0.497539 -0.34118,1.014626 -0.47475,1.495477 -0.0729,0.262346 -0.0999,0.545052 -0.20347,0.793519 -0.16142,0.387407 -0.0953,0.806786 -0.23738,1.190278 -0.44927,1.21303 -0.5282,2.507607 -0.84777,3.753952 -0.0566,0.220767 -0.14228,0.330537 -0.23738,0.518839 -0.23279,0.460915 -0.35526,2.416912 -0.40693,3.021475 -0.0186,0.217743 -0.10619,0.359263 -0.16956,0.549359 -0.088,0.264071 -0.0602,0.583147 -0.13564,0.854558 -0.17094,0.615367 -0.30277,1.198952 -0.37302,1.831197 -0.0151,0.135818 0.35492,0.979319 0.44084,1.159757 0.0919,0.193071 -0.0216,0.479903 0.0678,0.640919 0.11941,0.214937 0.37302,0.351986 0.37302,0.640919 0,0.137023 -0.15931,0.124939 -0.20346,0.244159 -0.0978,0.264105 0.0611,0.640783 0,0.9156 -0.0903,0.40652 -0.24211,0.88045 -0.40694,1.25132 -0.12084,0.2719 -1.61583,1.63737 -1.93292,1.92275 -0.41714,0.37543 -0.91094,1.6119 -1.11907,2.1364 -0.39336,0.99126 -0.31319,2.76854 -0.37302,3.84551 -0.065,1.16969 -0.36571,2.25909 -0.27129,3.44876 0.0246,0.3095 0.16163,0.58383 0.20347,0.88507 0.10848,0.78111 0.092,2.40716 0,3.23512 -0.0403,0.36244 -0.20257,0.69229 -0.23738,1.0682 -0.0641,0.6919 -0.0222,1.43642 0.10173,2.10587 0.0578,0.31203 -0.0348,1.71903 -0.0678,2.10588 -0.10291,1.20404 -0.32388,3.45315 -0.13564,4.63903 0.0434,0.27326 0.21673,0.52347 0.27128,0.79352 0.19757,0.97792 0.259,1.94692 0.57649,2.89939 0.13851,0.41552 0.12125,0.95073 0.33911,1.34288 0.10931,0.19676 0.267,0.33303 0.33911,0.54936 0.0511,0.15339 -0.0302,0.33446 0.0339,0.48832 0.14677,0.35224 0.51994,0.57372 0.71214,0.88508 0.24604,0.39859 0.38135,0.85688 0.64431,1.25131 0.30475,0.45714 0.75256,0.82991 1.15297,1.19028 0.2204,0.19836 0.33324,0.52682 0.57649,0.70196 0.5234,0.37685 -0.29654,-0.38897 0.27129,0.12208 0.43628,0.39265 0.75382,0.98224 1.25471,1.34288 0.77124,0.55529 1.66598,0.92443 2.4755,1.43443 0.21342,0.13446 0.32564,0.39317 0.54258,0.54936 0.94953,0.68366 1.91793,1.31438 2.74679,2.16692 0.68222,0.70171 0.85416,1.74659 1.35645,2.59419 1.0646,1.79652 2.31368,3.60439 3.76412,5.12735 2.85674,2.99958 5.94755,5.76409 9.4951,7.93519 1.47542,0.90296 3.46866,1.7898 5.05274,2.50263 1.21849,0.54832 2.55977,0.83915 3.83195,1.2208 0.72693,0.21808 1.40783,0.56812 2.1364,0.79352 1.0812,0.3345 2.21297,0.52675 3.32328,0.73248 1.16514,0.21589 2.31046,0.51366 3.49284,0.6104 0.74003,0.0605 1.46676,-0.12971 2.20421,-0.1526 1.19503,-0.0371 2.40199,0.0215 3.59458,-0.061 1.31583,-0.0911 2.63548,-0.39403 3.93368,-0.6104 1.70052,-0.28342 3.40903,-0.48421 5.08665,-0.9156 1.78397,-0.45873 3.52942,-1.23629 5.22231,-1.95327 0.80443,-0.34071 1.60392,-0.69172 2.40768,-1.03768 0.40268,-0.17333 0.84578,-0.28518 1.2208,-0.51884 1.15823,-0.72167 2.16801,-1.6684 3.32328,-2.41108 1.04385,-0.67104 2.15184,-1.16129 3.11982,-1.95327 0.30618,-0.25052 0.51692,-0.64483 0.77995,-0.94612 0.41411,-0.47434 0.86546,-0.90792 1.28862,-1.3734 0.2387,-0.26257 0.39576,-0.56241 0.67822,-0.79352 0.70822,-0.57945 1.64162,-0.97838 2.40769,-1.49547 0.96413,-0.65079 1.76784,-1.49457 2.67897,-2.19744 0.24318,-0.1876 0.40257,0.18368 0.64431,0.1526 0.16816,-0.0216 0.27999,-0.10917 0.44084,-0.1526 0.53097,-0.14336 1.15118,-0.0284 1.69555,-0.061 0.70892,-0.0425 1.39125,-0.32052 2.10249,-0.36624 0.98373,-0.0632 1.95237,-0.0273 2.91635,-0.24416 0.59826,-0.13461 1.14548,-0.48373 1.72946,-0.67144 1.53519,-0.49345 3.07862,-1.01291 4.40844,-1.95327 1.18439,-0.83754 2.19417,-1.94867 3.3911,-2.77732 1.44913,-1.00324 3.08684,-2.25945 4.30671,-3.54031 0.65673,-0.68957 1.12751,-1.55024 1.72946,-2.289 0.47091,-0.57793 0.96988,-1.12491 1.42426,-1.70911 0.30507,-0.39223 0.42149,-0.93183 0.71213,-1.34288 0.64152,-0.90729 1.23509,-1.84514 1.66165,-2.86888 0.0804,-0.19304 0.26586,-0.35158 0.33911,-0.54936 1.03712,-2.80023 1.8461,-7.10032 3.93368,-9.24754 0.0985,-0.10133 0.11622,-0.31824 0.23738,-0.42728 0.30553,-0.27498 0.51013,-0.61172 0.81386,-0.88508 0.40531,-0.36477 0.91478,-0.60966 1.32253,-0.97663 1.08424,-0.97582 2.29233,-1.8454 3.49284,-2.68576 0.74857,-0.524 1.5639,-0.93068 2.30595,-1.46496 1.15973,-0.835 2.15752,-1.91453 3.35719,-2.68575 1.09239,-0.70225 2.25908,-1.33557 3.28938,-2.1364 0.81021,-0.62976 1.48234,-1.43836 2.30595,-2.04483 0.65509,-0.48239 1.37325,-0.87162 2.03466,-1.34288 0.49836,-0.35508 0.89439,-0.79753 1.35644,-1.19028 0.61537,-0.52306 1.34105,-0.92966 1.89902,-1.52599 1.32691,-1.41814 2.709,-2.788216 4.0015,-4.242278 0.89459,-1.006409 1.65597,-2.19722 2.67898,-3.082514 1.1924,-1.031891 2.54121,-1.840829 3.6963,-2.929914 0.85238,-0.803674 1.57289,-1.712174 2.33986,-2.594196 0.72449,-0.833163 1.48547,-1.634983 2.20422,-2.472115 1.32219,-1.539967 2.34963,-3.282187 3.49284,-4.94423 0.93633,-1.361284 1.94313,-2.630107 2.67897,-4.120193 1.44274,-2.92154 1.81642,-5.984816 2.33986,-9.125462 0.16642,-0.998522 0.45809,-1.980548 0.71214,-2.960435 0.21126,-0.814862 0.32922,-1.656025 0.54257,-2.472115 0.21484,-0.821771 0.48202,-1.621891 0.57649,-2.472115 0.15647,-1.408231 0.0889,-2.838704 0.23738,-4.242272 0.0873,-0.825157 0.33928,-1.671638 0.54257,-2.472115 0.53202,-2.0948 1.20056,-4.194029 1.59382,-6.317628 0.1145,-0.618267 0.0779,-1.238512 0.10174,-1.861717 0.0487,-1.270036 0.17318,-2.543936 0.23737,-3.814993 0.0693,-1.372519 0.36868,-2.725787 0.44085,-4.089672 0.0575,-1.087323 0.13564,-2.209939 0.13564,-3.296154 0,-0.355978 -0.10173,-0.707589 -0.10173,-1.068198 0,-0.294609 0.087,-0.539674 0.13564,-0.824038 0.0457,-0.267153 -0.0373,-0.555377 0,-0.824038 0.082,-0.590637 0.26731,-1.188585 0.33911,-1.770157 0.0238,-0.19238 -0.16301,-0.202406 -0.20346,-0.366239 -0.0548,-0.221887 -0.0106,-0.532015 -0.0339,-0.762999 -0.0239,-0.23661 0.11665,-0.79718 0,-1.007158 -0.046,-0.08275 -0.34672,-0.161822 -0.27129,0.03052 0.0585,0.149154 0.36665,0.268018 0.27129,0.396759 -0.0905,0.122201 -0.19836,-0.247619 -0.33912,-0.305199 -0.0482,-0.01973 -0.0147,0.104166 -0.0339,0.152599 -0.095,0.239465 -0.27143,0.496571 -0.40693,0.701959 -0.8633,1.308578 -2.01464,2.387113 -2.91635,3.662393 -0.8946,1.265229 -1.6608,2.821681 -2.10248,4.303312 -0.37945,1.272885 -0.58767,2.557982 -0.84778,3.845513 -0.0349,0.172894 -0.20502,0.737332 -0.44084,0.701958 -0.0706,-0.01059 -1.19148,-1.295046 -1.32253,-1.434437 -0.74712,-0.794664 -1.79079,-1.49201 -2.27204,-2.502635 -0.39399,-0.827371 -0.30595,-1.854717 -0.67823,-2.716275 -0.36191,-0.837571 -0.96248,-1.466018 -1.42426,-2.227956 -0.42956,-0.708775 -0.65062,-1.537353 -1.05124,-2.258476 -0.15001,-0.270012 -0.42202,-0.438323 -0.6104,-0.671438 -0.31539,-0.39029 -0.57625,-1.139375 -1.11907,-1.220798 -0.10679,-0.01602 -0.28335,2.082973 -0.33911,2.319516 -0.37243,1.58019 -1.31766,3.463533 -0.77995,5.09683 0.34412,1.045277 1.06501,2.016979 1.79729,2.807835 0.0929,0.100311 0.53108,0.458316 0.47475,0.610398 -0.11777,0.317974 -1.90271,-1.293926 -2.06857,-1.403917 -1.09582,-0.726702 -2.17855,-1.39283 -3.22155,-2.197436 -0.10421,-0.08039 -1.55216,-1.471932 -1.62773,-1.403917 -0.12644,0.113795 -0.10902,0.417569 -0.13565,0.549359 -0.29038,1.43741 -0.25458,1.922309 0.44085,3.174074 0.0363,0.06531 0.006,0.171838 0.0678,0.21364 0.32708,0.220779 -0.20596,-0.781619 -0.44085,-1.098718 -0.10399,-0.140399 -0.0745,-0.579879 -0.16955,-0.579879 -0.44454,0 0.56896,2.136979 0.67822,2.350035 0.081,0.158019 1.10722,1.360804 0.77995,1.434438 -0.38169,0.08588 -0.68445,-0.654835 -0.91559,-0.793519 -0.64235,-0.38541 0.37647,1.421742 0.44084,1.495477 0.16971,0.194399 0.84778,0.53842 0.84778,0.610399 0,0.08481 -0.20793,0.01203 -0.23738,0.09156 -0.0821,0.221683 0.46613,0.53239 0.57649,0.671439 0.32972,0.415448 0.49841,0.886495 0.81386,1.312357 0.25461,0.343719 0.72394,0.619055 0.9156,1.007158 0.24959,0.505421 0.27621,1.138098 0.54258,1.617557 0.32717,0.588909 0.88168,0.8117 0.88168,1.556517 0,0.24057 -0.11772,0.490548 -0.13564,0.732479 -0.0776,1.047558 0.20352,1.495305 -0.13564,2.563675 -0.0856,0.269562 0.0392,0.633558 0,0.915598 -0.10889,0.783976 -0.10064,1.970342 -0.33911,2.685755 -0.17099,0.512971 -0.55898,0.929345 -0.74605,1.434437 -0.17169,0.463568 -0.11344,1.070409 -0.20346,1.556517 -0.0514,0.277712 -0.27598,0.531497 -0.37303,0.793519 -0.18662,0.503875 -0.28261,1.240887 -0.23737,1.770156 0.0277,0.323983 0.26723,0.608059 0.3052,0.915599 0.0659,0.534139 -0.0964,1.38303 0.16955,1.861716 0.35231,0.634152 1.83276,2.890934 1.72947,3.448754 -0.13008,0.702422 -1.00128,1.314613 -1.526,1.739636 -0.1399,0.113319 -0.18332,0.287068 -0.3052,0.39676 -0.269,0.242099 -0.5931,0.468198 -0.88169,0.701958 -0.87261,0.706815 -1.84408,1.29343 -2.67897,2.044836 -0.41164,0.370478 -0.89513,0.681866 -1.28862,1.068198 -0.31497,0.309245 -0.57108,0.636541 -0.9156,0.915599 -0.35625,0.288565 -0.78435,0.491555 -1.15297,0.762998 -0.53112,0.391092 -1.04766,0.841519 -1.55991,1.251318 -0.89406,0.715243 -1.69833,1.528298 -2.57724,2.258475 -0.68058,0.565401 -1.48998,1.029322 -2.23813,1.495478 -0.571,0.355774 -1.01824,0.861318 -1.55991,1.251317 -1.04998,0.755985 -2.26026,1.580899 -3.08591,2.594195 -0.24357,0.298936 -0.41773,0.640238 -0.64431,0.946118 -0.22885,0.308957 -0.5708,0.53023 -0.74604,0.885079 -0.21487,0.435111 -0.45798,0.803875 -0.81386,1.159758 -0.75222,0.752221 -1.67523,1.390514 -2.33987,2.227955 -0.68998,0.869386 -1.07156,1.919677 -1.72946,2.807835 -0.81402,1.098923 -1.84587,2.132285 -2.50942,3.326674 -0.2328,0.419048 -0.45756,1.001165 -0.57648,1.464957 -0.11765,0.458828 -0.0947,0.961858 -0.3052,1.403917 -0.19663,0.412907 -0.44403,0.814186 -0.57649,1.251318 -0.21963,0.724779 -0.34176,1.680989 -0.94951,2.227959 -0.11833,0.10649 -0.36954,0.15103 -0.50867,0.21364 -0.22151,0.0997 -0.37121,0.2586 -0.6104,0.36624 -0.41156,0.1852 -0.89531,0.12211 -1.32253,0.33572 -0.65508,0.32754 -1.27782,0.75911 -1.96684,1.00715 -0.87507,0.31503 -1.77714,0.52909 -2.64506,0.85456 -0.5856,0.2196 -1.04058,0.67371 -1.62773,0.88508 -1.65957,0.59745 -3.32448,1.14188 -4.98492,1.73964 -1.00472,0.3617 -1.89104,0.8924 -2.81462,1.40391 -0.66474,0.36817 -1.4299,0.54459 -2.10248,0.88508 -0.57916,0.2932 -1.10898,0.68335 -1.69556,0.97664 -0.54051,0.27026 -1.0974,0.49805 -1.62773,0.79352 -1.36953,0.76303 -2.51777,1.85087 -3.83194,2.68575 -1.41239,0.89728 -2.76845,1.83504 -4.06933,2.8994 -1.87695,1.53569 -3.93345,2.17663 -5.08666,4.42539 -0.23371,0.45575 -0.92006,0.87868 -1.01733,1.40392 -0.006,0.03 -0.0305,0.0916 0,0.0916 0.31275,0 1.35111,-1.73886 1.526,-2.01432 0.22683,-0.35725 0.50412,-0.66327 0.71213,-1.03768 0.27296,-0.49132 0.48855,-1.03538 0.81387,-1.49547 0.48795,-0.69011 1.05143,-1.39996 1.42426,-2.16692 0.28361,-0.58344 0.50315,-1.18886 0.77995,-1.77016 0.37225,-0.78171 0.7811,-1.58308 1.18689,-2.35003 0.22613,-0.4274 0.57172,-0.80258 0.67822,-1.28184 0.2576,-1.15921 -0.20234,-1.97166 -0.3052,-3.08251 -0.10181,-1.09962 -1.14445,-1.793 -1.89902,-2.47212 -0.69717,-0.62745 -1.5189,-1.81576 -2.30595,-2.25847 -0.58493,-0.32903 -1.24846,-0.43359 -1.86511,-0.67144 -1.81809,-0.70127 -4.77583,-1.19155 -6.68047,-0.763 -0.28632,0.0644 -0.62295,-0.0293 -0.9156,0 -0.4584,0.0458 -0.88641,0.20488 -1.32253,0.33572 -0.95713,0.28714 -2.05283,0.38494 -2.88244,1.00716 -0.18019,0.13514 -0.27768,0.31094 -0.44084,0.45779 -0.10803,0.0972 -0.26221,0.11391 -0.37303,0.21364 -0.11899,0.1071 -0.13324,0.25975 -0.27128,0.36624 -0.34042,0.26261 -0.77498,0.32189 -1.08516,0.64092 -0.32106,0.33023 -0.42767,0.78789 -0.71213,1.12924 -0.22422,0.26906 -0.54792,0.39629 -0.74604,0.70196 -0.44764,0.69064 -0.7677,1.52061 -1.11907,2.25847 -0.10749,0.22575 -0.29598,0.41626 -0.40693,0.64092 -0.33651,0.68143 -0.50345,1.42411 -0.84778,2.10588 -0.25459,0.5041 -0.20201,1.13169 -0.40693,1.64808 -0.66161,1.66725 -1.31998,3.40787 -2.37377,4.88319 -0.74157,1.03819 -2.08499,1.54453 -3.15373,2.16691 -0.54269,0.31604 -1.05097,0.68658 -1.62773,0.94612 -1.90978,0.8594 -3.9925,1.21479 -5.93443,1.9838 -0.21702,0.0859 -1.39784,0.4357 -1.526,0.57988 -0.0281,0.0316 -0.0724,0.10474 -0.0339,0.12208 0.0548,0.0247 0.11065,-0.0493 0.16956,-0.061 0.16748,-0.0335 0.44741,0.0657 0.61039,0.0916 1.06118,0.16854 2.05067,0.0179 3.08591,-0.24416 1.15729,-0.29294 2.4186,-0.59212 3.49284,-1.12924 1.76795,-0.88398 3.36564,-2.1766 4.88319,-3.41823 0.67758,-0.55439 1.39423,-1.05921 2.06857,-1.61756 0.27352,-0.22648 0.54942,-0.46396 0.81387,-0.70196 0.0588,-0.0529 0.26225,-0.17499 0.20346,-0.12208 -1.34077,1.2067 -2.6143,2.61698 -3.49283,4.24227 -1.26985,2.34921 -3.20477,6.2482 -5.66315,7.47739 -1.46691,0.73345 -3.18656,0.68645 -4.74755,1.03768 -0.71434,0.16072 -1.42422,0.37455 -2.13639,0.54935 -0.58322,0.14316 -1.13998,0.2855 -1.69555,0.51884 -0.40091,0.16838 -0.63253,0.39676 -0.6104,0.39676 0.0471,0 0.18663,-0.1526 0.3052,-0.1526 0.91996,0 1.8163,0.2644 2.74679,0.21364 2.87709,-0.15693 5.88261,-0.77428 8.44385,-2.13639 1.05205,-0.5595 1.9787,-1.28551 2.91635,-2.01432 0.30356,-0.23595 0.61675,-0.45429 0.88169,-0.73248 10e-4,-10e-4 0.49189,-0.47643 0.50866,-0.4578 0.0346,0.0384 -0.50919,0.3567 -0.54257,0.39676 -0.58915,0.70698 -1.09337,1.48538 -1.72947,2.16692 -1.57615,1.68874 -3.40028,3.43866 -5.42576,4.57799 -1.31515,0.73977 -2.91153,1.12769 -4.34062,1.58704 -0.72158,0.23193 -1.67474,0.4082 -2.30595,0.85455 -0.66826,0.47256 -1.34317,0.96099 -2.00075,1.43444 -0.0674,0.0486 -1.41509,0.95718 -1.32253,1.00716 1.3817,0.74612 3.89711,-0.19792 5.2223,-0.64092 1.2864,-0.43002 2.67112,-0.64225 3.93368,-1.12924 1.34256,-0.51784 2.55249,-1.25956 3.62848,-2.22795 0.28292,-0.25463 0.51468,-0.55791 0.81387,-0.79352 0.10093,-0.0795 0.33911,-0.0547 0.33911,-0.18312 0,-0.0395 -0.0639,-0.0497 -0.10173,-0.061 -0.49225,-0.14767 -1.53975,1.86425 -1.79729,2.19744 -0.28066,0.36311 -0.62141,0.69332 -0.98342,0.97663 -1.62029,1.26805 -3.69639,1.55653 -5.66314,1.86172 -0.70293,0.10907 -1.39383,0.32589 -2.10249,0.39676 -0.79227,0.0792 -1.25356,-0.20312 -2.00075,-0.42728 -0.92172,-0.27651 -1.92269,-0.46727 -2.81462,-0.82404 -0.51989,-0.20796 -1.00574,-0.53181 -1.526,-0.73248 -0.63685,-0.24564 -1.31884,-0.3251 -1.93292,-0.64092 -0.17911,-0.0921 -0.31199,-0.2523 -0.47476,-0.36624 -0.44236,-0.30965 -0.95026,-0.53755 -1.42426,-0.79351 -0.26932,-0.14543 -1.14959,-0.45475 -1.32253,-0.6104 -0.2151,-0.19359 0.0577,-0.16078 0.10173,-0.21364 0.0553,-0.0664 0.0374,-0.34199 0.10173,-0.4578 0.1693,-0.30473 0.75812,-0.78057 0.64431,-1.19028 -0.0338,-0.12153 -1.19463,-1.10753 -1.35644,-1.2208 -0.38014,-0.2661 -0.67803,-0.6519 -1.08515,-0.88507 -1.84158,-1.05473 -3.33515,-1.69368 -5.42577,-2.1364 -0.29714,-0.0629 -0.58955,-0.0258 -0.88169,-0.0916 -0.15145,-0.0341 -0.26693,-0.14712 -0.40693,-0.18312 -0.77631,-0.19962 -1.72247,0.0927 -2.47551,0.18312 -0.51431,0.0617 -1.07532,0 -1.59382,0 -0.13971,0 -0.86288,-0.0837 -0.94951,-0.21364 -0.0847,-0.12701 0.52588,-1.27338 0.71214,-1.46496 1.5444,-1.58853 2.1995,-1.98747 2.61115,-4.33383 0.11165,-0.63644 0.2008,-1.27177 -0.10174,-1.86172 -0.5055,-0.98572 -1.29412,-1.66277 -2.20421,-2.25847 -0.25191,-0.16489 -0.54062,-0.26394 -0.77996,-0.4578 -0.51985,-0.42108 -0.90053,-0.82613 -1.526,-1.12924 -0.77666,-0.37638 -2.01654,-0.51013 -2.88243,-0.79352 -0.29094,-0.0952 -0.54968,-0.27042 -0.84778,-0.36624 -1.05443,-0.33892 -2.14179,-0.64334 -3.15373,-1.09871 -0.31283,-0.14078 -0.57555,-0.3719 -0.88168,-0.51884 -0.67706,-0.32499 -1.37081,-0.56815 -2.00076,-0.94612 -0.29191,-0.17515 -1.13716,-2.04758 -1.28862,-2.41108 -0.20088,-0.48212 0.008,-0.92045 0.20347,-1.34287 0.14432,-0.31173 0.23657,-0.67968 0.37302,-1.00716 0.0765,-0.18356 0.27017,-0.2958 0.37302,-0.4578 0.41247,-0.64963 0.87635,-1.32867 1.42427,-1.89224 0.16815,-0.17296 0.40582,-0.28499 0.57648,-0.4578 0.29146,-0.29509 0.23745,-0.70209 0.40694,-1.03767 0.11119,-0.22017 0.4529,-0.71487 0.50866,-0.9156 0.0245,-0.0882 -0.022,-0.18579 0,-0.27468 0.0559,-0.22642 0.32144,-0.4101 0.40694,-0.64092 0.0747,-0.2017 0.0753,-0.4373 0.13564,-0.64092 0.14518,-0.489984 0.55502,-0.874438 0.67822,-1.373399 0.15163,-0.614089 0.27148,-1.313565 0.37302,-1.953276 0.11243,-0.708304 0.39734,-1.374009 0.50867,-2.075356 0.0233,-0.146869 -0.12453,-0.79532 -0.10174,-0.824038 0.0433,-0.05455 0.12627,-0.06753 0.16956,-0.12208 0.0577,-0.07274 0.0852,-0.706895 0.10173,-0.885078 0.044,-0.475542 0.0271,-0.958072 0.0678,-1.434438 0.0246,-0.287699 0.13564,-0.568629 0.13564,-0.854558 0,-0.159105 -0.14018,-0.210539 -0.10173,-0.366239 0.0801,-0.324249 0.38026,-1.323311 0.27128,-1.617557 -0.2458,-0.663677 -0.0498,-1.15395 -0.16955,-1.800677 -0.0683,-0.36877 -0.16031,-0.740792 -0.20347,-1.129238 -0.0551,-0.496102 -0.36616,-0.97629 -0.47475,-1.464957 -0.0587,-0.264158 -0.16024,-1.914596 -0.0678,-2.136396 0.21275,-0.510611 0.89198,-0.736566 1.28862,-1.129238 0.34214,-0.338723 0.62844,-0.954563 0.98342,-1.220797 0.33645,-0.25234 0.6586,-0.620928 1.01733,-0.885079 0.92196,-0.678897 1.96363,-1.235607 2.95026,-1.800676 0.29633,-0.169719 0.62146,-0.542504 0.94951,-0.640919 0.48304,-0.144912 1.46467,0.179177 2.00075,0.21364 0.51876,0.03335 0.99216,-0.320393 1.526,-0.18312 0.308,0.0792 0.22171,0.422107 0.44084,0.579879 0.11719,0.08438 1.38516,0.823103 1.39035,0.824038 0.16918,0.03045 0.93365,-0.432483 1.08516,-0.549359 0.7021,-0.541619 0.92718,-1.445607 1.15297,-2.258475 0.0342,-0.122999 -0.0277,-0.271886 0,-0.39676 0.0826,-0.37147 0.31189,-0.756707 0.47476,-1.098718 0.22471,-0.471896 0.80482,-0.981727 1.15297,-1.373397 0.3356,-0.377552 0.54125,-0.870632 0.88169,-1.220798 0.0942,-0.09694 0.25288,-0.171208 0.33911,-0.274679 0.40586,-0.487032 0.77554,-1.280845 1.45818,-1.434437 0.16528,-0.03719 0.51137,-0.155916 0.67822,-0.09156 0.13726,0.05294 0.13672,0.245131 0.23737,0.335719 0.0709,0.06385 0.18593,0.04888 0.27129,0.09156 0.47954,0.239769 0.95684,0.565857 1.39036,0.885078 0.19975,0.147095 0.34319,0.341502 0.54257,0.488319 0.51669,0.38047 1.18522,0.639416 1.66164,1.068198 0.94673,0.85205 1.52067,2.09801 1.69556,3.357194 0.0453,0.326175 0.12996,0.707402 0.10173,1.037678 -0.0507,0.593691 -0.25481,1.106922 0.0339,1.678597 0.21106,0.41789 0.49613,0.680342 0.81386,1.007158 0.24011,0.246961 0.5074,0.628027 0.81387,0.793518 0.68347,0.369075 2.20554,0.69855 2.98417,0.488319 0.19912,-0.05376 0.39818,-0.14492 0.6104,-0.183119 0.69171,-0.124508 1.48193,-0.0968 2.06857,-0.549359 0.15965,-0.123159 0.23224,-0.322462 0.40694,-0.427279 0.40689,-0.244135 1.14575,-0.697451 0.98342,-1.281838 -0.14415,-0.51894 -1.6172,-1.280779 -2.03467,-1.495477 -0.57737,-0.296936 -1.19526,-0.56839 -1.76337,-0.824039 -0.12354,-0.05559 -0.0429,-0.268852 -0.13564,-0.366239 -0.32726,-0.343621 -0.79098,-0.514421 -1.08516,-0.885078 -0.27628,-0.348117 -0.11617,-0.861713 -0.44084,-1.251318 -0.2755,-0.330595 -0.7148,-0.545928 -0.94951,-0.915598 -0.13759,-0.216697 -0.19031,-0.477921 -0.3052,-0.701959 -0.31066,-0.605793 -0.76771,-1.237752 -1.2208,-1.739636 -0.37484,-0.415207 -0.89196,-0.678967 -1.25471,-1.098718 -0.23867,-0.276178 -0.28895,-0.672201 -0.54257,-0.946119 -0.35274,-0.380957 -0.75069,-0.695217 -1.11907,-1.068198 -0.5783,-0.585532 -1.79819,-0.711656 -2.1703,-1.495477 -0.50332,-1.060176 -0.56302,-2.445654 -1.45818,-3.204594 -0.84175,-0.713654 -2.14861,-0.504855 -3.22155,-0.762998 -0.27848,-0.067 -0.73984,-0.179135 -0.98342,-0.335719 -0.11426,-0.07345 -0.13795,-0.184159 -0.27129,-0.24416 -0.57605,-0.259224 -1.46012,-0.28054 -1.96684,-0.671439 -0.44758,-0.345278 -0.97667,-0.529543 -1.45817,-0.854558 -1.07263,-0.724023 -1.9764,-1.622617 -3.11982,-2.227956 -1.84059,-0.974432 -3.7977,-1.594542 -5.73097,-2.319515 -0.39799,-0.149248 -0.86223,-0.375567 -1.28862,-0.4578 -0.81572,-0.157317 -1.74852,-0.151485 -2.57724,-0.213639 -0.65837,-0.04938 -1.29494,0.21268 -1.93293,0.335719 -0.88144,0.169993 -1.80612,0.200368 -2.67897,0.396759 -0.54873,0.123466 -1.15316,0.292144 -1.72946,0.36624 -0.95972,0.123392 -1.95847,0.3596 -2.88244,0.671438 -0.0792,0.02672 -0.35528,0.03005 -0.40693,0.06104 -0.0975,0.0585 -0.61696,0.569048 -0.81387,0.701959 -0.33108,0.223479 -0.90947,0.312185 -1.15297,0.640919 -0.24528,0.331127 -0.53496,0.615376 -0.77996,0.946118 -0.13151,0.177541 -0.146,0.36894 -0.27129,0.549359 -0.0907,0.130579 -0.2768,0.247211 -0.33911,0.396759 -0.16236,0.389668 -0.30489,0.808091 -0.47475,1.190278 -0.0807,0.181518 -0.32963,0.331775 -0.40693,0.488319 -0.14289,0.289337 -0.2494,0.719984 -0.44085,1.007158 -0.16059,0.240885 -0.38951,0.433874 -0.50866,0.701959 -0.37149,0.835835 -0.66993,1.686714 -0.98342,2.533155 -0.11456,0.309307 0.058,1.134058 0,1.342877 -0.0909,0.327301 -0.15656,0.638907 -0.20347,0.976639 -0.0346,0.249108 0.0672,0.551738 0,0.793518 -0.0741,0.26661 -0.13778,0.501537 -0.10173,0.793518 0.0545,0.441396 0.36254,0.763166 0.23737,1.251318 -0.062,0.242013 -0.17469,0.473543 -0.20346,0.732479 -0.0252,0.226416 0.0344,0.547849 -0.0339,0.762998 -0.47322,1.490638 -0.82091,2.99312 -1.42427,4.486432 -0.0955,0.236281 -0.0915,0.591994 -0.20346,0.793518 -0.66107,1.189928 -0.85622,2.578864 -1.526,3.784473 -0.10449,0.188077 -0.26885,0.331325 -0.37302,0.518839 -0.27544,0.495791 -0.34925,1.052276 -0.67822,1.525997 -0.19049,0.274297 -0.50566,0.452922 -0.67822,0.732479 -0.35119,0.568914 -0.66482,1.122139 -1.05125,1.678597 -0.19105,0.275122 -0.50002,0.451825 -0.67822,0.732478 -0.25508,0.401748 -0.52316,0.959163 -0.88168,1.281838 -0.24832,0.223485 -0.67616,0.965224 -0.84778,1.068198 -0.19787,0.118724 -0.3633,0.278998 -0.50867,0.488319 -0.31746,0.45715 -0.47589,0.955032 -0.84777,1.373397 -0.0876,0.09855 -0.1551,0.58013 -0.20347,0.732479 -0.18136,0.571289 0.0528,1.573187 -0.0339,2.197436 -0.0312,0.224319 -0.2057,0.511788 -0.13564,0.732478 0.0562,0.177031 0.24905,0.356746 0.33911,0.518839 0.29715,0.534867 0.47403,1.188972 0.77995,1.739637 0.13436,0.241848 0.05,0.676499 0.13565,0.946118 0.0802,0.252707 0.27591,0.500802 0.37302,0.762999 0.0493,0.133005 -0.0256,0.284401 0.0339,0.427279 0.25239,0.605741 0.26152,1.304578 0.20346,1.983797 -0.0401,0.46972 -0.23876,0.95236 -0.33911,1.40392 -0.0826,0.37154 -0.007,0.80975 -0.0678,1.19028 -0.1341,0.84486 -1.03416,2.71606 -1.49208,3.44875 -1.0206,1.63295 -2.26803,3.20003 -2.88244,5.06631 -0.40746,1.23766 0.0269,2.45255 0.27128,3.66239 0.19353,0.95795 0.0526,1.96562 0.23738,2.92992 0.46401,2.42212 2.07159,4.30039 3.11982,6.47022 0.17005,0.35201 0.26916,0.74755 0.44084,1.09872 0.26825,0.5487 0.61058,1.06856 0.88169,1.61756 0.20386,0.41281 0.35386,0.91587 0.64431,1.28184 0.44489,0.56056 0.99072,1.09261 1.32253,1.73963 0.19619,0.38258 0.28908,0.81955 0.54258,1.19028 0.44526,0.65119 1.38242,0.96236 1.76337,1.64808 0.22055,0.39699 0.22939,0.86375 0.54258,1.25132 0.37889,0.46888 0.95072,0.78889 1.18688,1.37339 0.43728,1.08225 0.86978,2.2023 1.59382,3.14356 0.46537,0.60497 0.96708,1.2324 1.45818,1.80067 0.19549,0.22621 0.45958,0.39154 0.64431,0.64092 0.43336,0.58504 0.79454,1.19471 1.2208,1.77016 0.40575,0.54777 0.97396,1.00575 1.35644,1.55652 0.0635,0.0914 0.0673,0.21732 0.13564,0.3052 0.26259,0.33761 0.68923,0.59617 1.01733,0.85455 0.22216,0.17495 0.38576,0.43069 0.6104,0.6104 0.85435,0.68348 1.69259,1.40789 2.57724,2.04484 0.35369,0.25465 0.69787,0.56961 1.05124,0.82404 0.15933,0.11471 0.32253,0.13767 0.47476,0.27468 0.45211,0.4069 0.86748,0.85335 1.45817,1.09871 0.84587,0.35136 1.76375,0.55661 2.57724,1.00716 0.51714,0.28642 1.02047,0.65204 1.59382,0.82404 0.94186,0.28256 1.93887,0.41889 2.88244,0.70196 1.07933,0.3238 2.05086,0.89834 3.15373,1.19028 2.05375,0.54364 4.11061,1.05254 6.10399,1.77015 1.38708,0.49935 2.4519,1.60893 3.76412,2.25848 1.14341,0.56599 2.29857,0.86745 3.49284,1.25132 0.49132,0.15792 0.93848,0.40499 1.42427,0.57988 1.34938,0.48577 3.50407,0.57621 4.95101,0.73247 1.04143,0.11248 2.02085,0.50835 3.05199,0.64092 1.67227,0.21501 3.37337,0.0196 5.05275,0.0916 1.69683,0.0727 3.38319,0.17154 5.08666,0.12208 0.80063,-0.0232 1.57827,-0.2196 2.37377,-0.27468 1.45963,-0.10105 2.91521,-0.008 4.37452,-0.18312 1.22118,-0.14654 2.43784,-0.48803 3.6624,-0.57987 1.06342,-0.0798 2.15557,-0.24019 3.18764,-0.51884 2.62661,-0.70919 5.58929,-1.74887 8.03691,-2.96044 0.70179,-0.34738 1.3561,-0.8282 2.03467,-1.2208 0.93137,-0.53886 1.98272,-0.82969 2.91635,-1.37339 1.3144,-0.76545 2.48947,-1.7777 3.83194,-2.50264 1.21478,-0.65598 2.48397,-1.22809 3.69631,-1.89223 1.04779,-0.57401 2.05456,-1.23059 3.0859,-1.8312 0.60234,-0.35077 1.24434,-0.6257 1.8312,-1.00716 1.81729,-1.18124 3.6066,-2.45899 5.45968,-3.57083 1.35856,-0.81514 2.76848,-1.56153 4.06932,-2.47212 1.17201,-0.8204 2.42013,-1.75918 3.39111,-2.80783 0.24691,-0.26666 0.45326,-0.56776 0.71213,-0.82404 0.30523,-0.30218 0.70079,-0.52644 1.05124,-0.763 0.35714,-0.24107 0.664,-0.62812 0.98342,-0.9156 1.1952,-1.07568 1.99903,-2.48856 3.08591,-3.66239 0.15099,-0.16307 0.37712,-0.27837 0.54258,-0.42728 0.44126,-0.39714 0.73073,-0.95456 1.11906,-1.40392 0.52041,-0.60219 1.01188,-1.18854 1.45818,-1.83119 0.27169,-0.39124 0.68359,-0.68112 0.91559,-1.09872 0.10216,-0.18389 0.17837,-0.40865 0.3052,-0.57988 0.0453,-0.0611 0.11304,-0.10173 0.16956,-0.1526 0.0565,-0.061 0.12153,-0.1152 0.16955,-0.18312 0.18535,-0.26213 0.32908,-0.77998 0.47476,-0.97664 0.34217,-0.46193 0.62232,-0.92029 0.88169,-1.46496 0.11376,-0.2389 0.1411,-0.52866 0.27128,-0.76299 0.0706,-0.12701 0.18108,-0.19694 0.27129,-0.3052 0.14767,-0.17721 0.2249,-0.46586 0.33911,-0.67144 0.35388,-0.63699 0.817,-1.34174 1.32253,-1.86172 0.69399,-0.71381 1.52845,-1.19696 2.4416,-1.55652 0.54749,-0.21557 1.12124,-0.71869 1.59382,-1.03767 0.40007,-0.27005 0.90672,-0.37166 1.35644,-0.51884 0.68324,-0.22361 1.35694,-0.54237 2.03466,-0.79352 1.23293,-0.45691 2.43132,-1.07866 3.69631,-1.43444 0.83294,-0.23426 1.66858,-0.46396 2.4755,-0.763 0.46391,-0.17191 0.98334,-0.19327 1.45818,-0.33572 2.1165,-0.63495 4.21628,-1.31765 6.37527,-1.86171 1.26823,-0.31959 2.56029,-0.52286 3.83195,-0.82404 2.37527,-0.56256 4.72474,-1.21972 7.0535,-1.95328 2.34547,-0.73882 4.76688,-1.3058 7.01959,-2.31951 0.69057,-0.31076 1.35155,-0.68168 2.03466,-1.00716 0.85256,-0.40622 1.76626,-0.66893 2.61115,-1.09872 1.70398,-0.8668 3.23585,-1.66448 4.78146,-2.77731 0.33531,-0.24143 0.61961,-0.59724 0.94951,-0.85456 0.94715,-0.73878 1.99119,-1.459022 2.74679,-2.411079 0.446,-0.56196 0.71543,-1.201726 1.08516,-1.800676 0.5908,-0.957101 1.10741,-1.977402 1.69555,-2.960435 0.13038,-0.217925 0.32857,-0.413561 0.44084,-0.640918 0.20053,-0.406067 0.35329,-0.849556 0.57649,-1.251318 0.35748,-0.643472 0.86541,-1.28729 1.35644,-1.831197 0.24606,-0.272554 0.57012,-0.517154 0.77996,-0.824038 0.66411,-0.971269 1.02236,-2.037971 1.72946,-3.021474 0.34429,-0.478877 0.77233,-0.894892 1.15297,-1.342878 1.31456,-1.547129 2.66654,-3.058279 4.2728,-4.333831 1.15181,-0.914675 2.43867,-1.687018 3.6963,-2.441596 0.5725,-0.343498 1.0726,-0.802887 1.62773,-1.159758 0.66839,-0.42968 1.53913,-0.713993 2.27204,-1.007158 0.64041,-0.256162 1.18885,-0.672419 1.79729,-0.976638 1.0234,-0.511702 2.15237,-0.796625 3.22155,-1.190278 1.09215,-0.402113 2.34389,-1.09665 3.42501,-1.403917 1.49775,-0.425675 3.01192,-0.802322 4.51017,-1.220798 1.40921,-0.393605 2.76167,-1.005136 4.17106,-1.373397 2.6314,-0.68756 5.309,-1.248195 7.9691,-1.800677 0.79717,-0.165566 1.61405,-0.124307 2.40768,-0.274679 2.42562,-0.45959 4.87281,-0.869778 7.29087,-1.342878 1.09597,-0.214428 2.20379,-0.370814 3.28938,-0.671438 1.63242,-0.452056 3.2565,-1.031139 4.78145,-1.770157 0.5016,-0.243083 0.97394,-0.589498 1.49209,-0.793518 0.97975,-0.385778 1.95344,-0.759781 2.91635,-1.159758 0.27809,-0.115515 2.04966,-1.075246 1.96684,-1.373398 -0.0326,-0.117222 -0.19046,0.15323 -0.27129,0.24416 -0.0693,0.07794 -0.3726,0.04572 -0.47475,0.06104 -1.27055,0.190582 -2.41573,1.003671 -3.59457,1.464957 -1.87915,0.735317 -4.41582,1.098718 -6.4431,1.098718 -0.2395,0 -0.51072,0.06582 -0.74605,0.03052 -0.26801,-0.0402 -0.47792,-0.30043 -0.74604,-0.366239 -0.3618,-0.08881 -0.77304,-0.07931 -1.11906,-0.18312 -0.87321,-0.261961 -3.94843,0.636405 -4.40844,0.305199 -0.0541,-0.03897 -0.0661,-0.251579 -0.13564,-0.305199 -0.17235,-0.13295 -0.42213,-0.168777 -0.6104,-0.274679 -0.31742,-0.178549 -0.61859,-0.66907 -0.81387,-0.976639 -0.48292,-0.760607 -0.24065,-1.322093 0.16956,-2.014316 0.36461,-0.615275 0.62616,-1.402488 1.08515,-1.953276 0.14983,-0.179797 0.39597,-0.296532 0.54258,-0.457799 0.34365,-0.378019 0.64347,-0.815702 1.05124,-1.159758 0.48476,-0.409014 1.05455,-0.722655 1.49209,-1.190278 0.83898,-0.896663 1.49773,-1.746623 2.06857,-2.838354 0.21311,-0.407562 0.53038,-0.764974 0.71213,-1.190278 0.0939,-0.219803 0.13526,-0.491884 0.23738,-0.701959 0.19128,-0.393481 0.56103,-0.718124 0.81387,-1.068198 0.28633,-0.396462 0.4575,-0.838825 0.71213,-1.251317 0.7173,-1.162036 1.70233,-2.128254 2.10248,-3.448754 0.056,-0.184736 0.24294,-0.336201 0.20347,-0.549359 -0.0275,-0.148573 -0.14123,-0.274298 -0.16956,-0.427279 -0.009,-0.04966 0.0396,-0.305199 -0.0339,-0.305199 -0.0711,0 -0.18981,0.26239 -0.23738,0.305199 -0.63205,0.568852 -1.28693,1.165378 -1.96684,1.678597 -1.80898,1.36549 -3.72,2.549151 -5.59532,3.814993 -0.54394,0.36716 -1.12912,0.654263 -1.66164,1.037678 -0.0763,0.05496 -0.15672,0.200996 -0.23738,0.152599 -0.0894,-0.05362 -0.0172,-0.214099 -0.0678,-0.305199 -0.11293,-0.203267 -0.33016,-0.350122 -0.44084,-0.549359 -0.53875,-0.969745 -0.2957,-2.017693 -0.10174,-3.021474 0.23265,-1.203923 0.12258,-2.457103 0.3052,-3.662393 0.0494,-0.326201 0.30269,-1.974299 0.0678,-2.227956 -0.32419,-0.350124 -0.72666,1.443135 -0.81387,1.617557 -0.66959,1.339187 -1.54663,3.548459 -2.57724,4.608511 -0.28545,0.293602 -0.79951,0.112237 -0.98342,-0.1526 -0.83864,-1.207636 -0.62327,-3.002501 -0.23738,-4.333831 0.12725,-0.438992 0.34999,-0.832101 0.44085,-1.281838 0.16118,-0.797855 0.16886,-1.517851 0.23737,-2.319516 0.007,-0.07648 0.16956,-0.313111 0.16956,-0.335719 0,-0.03955 -0.0626,-0.05517 -0.10173,-0.06104 -0.23071,-0.0346 -1.29159,2.03727 -1.42427,2.319516 -0.70324,1.495998 -1.44621,2.93711 -2.10248,4.455911 -0.15835,0.366459 -0.38236,0.719787 -0.50867,1.098718 -0.55356,1.660699 -1.24327,3.753767 -2.30595,5.18839 -0.49904,0.673706 -1.20328,1.11511 -1.79729,1.709117 -0.15964,0.159642 -0.22668,0.37284 -0.40693,0.518839 -0.16612,0.134559 -0.35314,0.206271 -0.50866,0.366239 -0.2609,0.268353 -0.45946,0.663997 -0.74605,0.885079 -0.71666,0.552854 -1.64173,0.879322 -2.37377,1.464957 -0.34028,0.272223 -0.56517,0.597665 -0.84778,0.915598 -0.39148,0.440423 -1.06374,0.499566 -1.49208,0.885079 -0.79098,0.711875 -1.81082,1.364226 -2.78071,1.800676 -0.13167,0.05925 -0.25352,0.2335 -0.37302,0.3052 -0.15342,0.09205 -0.38601,0.116086 -0.54258,0.213639 -0.44606,0.277935 -0.89087,0.537454 -1.35644,0.793519 -0.42496,0.233728 -0.7735,0.549492 -1.2208,0.732478 -0.2631,0.107633 -0.47989,0.377954 -0.74604,0.457799 -0.97215,0.291645 -1.94499,0.646347 -2.88244,1.068198 -0.43382,0.19522 -0.92233,0.28269 -1.35644,0.488319 -0.39949,0.189233 -0.79756,0.434771 -1.2208,0.579879 -0.69478,0.238211 -1.43314,0.429944 -2.13639,0.640919 -1.52186,0.456556 -2.92451,1.113861 -4.40844,1.648077 -2.19282,0.789415 -4.46059,1.401837 -6.57874,2.411075 -0.75021,0.357453 -1.39345,0.917454 -2.10249,1.342878 -0.89591,0.537547 -1.85074,0.988369 -2.74679,1.525997 -0.51763,0.310578 -0.95174,0.706194 -1.45818,1.037678 -0.27165,0.17781 -0.57843,0.214952 -0.84777,0.396759 -0.52722,0.355874 -0.98186,0.876396 -1.49209,1.220798 -0.92209,0.622412 -1.92776,1.219505 -2.91635,1.831196 -0.60679,0.375455 -1.24511,0.747064 -1.8312,1.098718 -0.50009,0.300057 -0.83878,0.777018 -1.35644,1.068198 -0.72855,0.409811 -1.47833,0.784233 -2.1703,1.251318 -0.22347,0.15084 -0.53448,0.207562 -0.74605,0.366239 -0.44038,0.330284 -1.02968,0.716073 -1.52599,0.976638 -0.3903,0.204904 -0.8296,0.322632 -1.18689,0.579879 -1.37784,0.992041 -2.81951,1.890394 -4.3067,2.655235 -0.47779,0.245718 -1.55991,0.830226 -1.55991,0.762999 0,-0.03391 0.0899,0.0318 0.10173,0 0.0779,-0.210243 -0.33117,0.02695 0.0678,-0.1526 -0.0226,0.05087 -0.0201,0.181239 -0.0678,0.1526 -0.36483,-0.218897 0.12303,-0.361951 0.13565,-0.3052 0.0121,0.05434 -0.0122,0.1526 -0.0678,0.1526 -0.0557,0 -0.0171,-0.129757 -0.0678,-0.1526 -0.0346,-0.01559 -0.0761,0.05448 -0.0678,0.09156 0.009,0.03861 0.10173,0.02149 0.10173,0.06104 0,0.03391 -0.13564,0 -0.10173,0 0.0721,0 0.26911,-0.143733 0.3052,-0.12208 7.4e-4,4.43e-4 0.11018,0.18312 0.16955,0.18312 0.038,0 0.10093,-0.07294 0.0678,-0.09156 -0.10011,-0.05631 -0.45117,-0.03583 -0.33911,-0.06104 0.46938,-0.105611 0.37828,0.09156 0.67822,0.09156 0.33751,0 0.71148,-0.0784 1.05124,-0.12208 0.22152,-0.02848 0.87265,4.01e-4 1.08515,-0.152599 0.17321,-0.124712 2.55397,-1.044141 2.67897,-0.976639 0.15727,-0.0066 0.0106,0.152192 0.0678,0.18312 0.0939,0.05072 0.41765,-0.06695 0.27129,0.1526 -0.053,0.07953 -0.25111,-0.08538 -0.10174,-0.1526 0.0241,-0.01084 0.31308,0.18312 0.23738,0.18312 -0.22977,0 -0.49225,-0.369845 -0.71213,-0.457799 -0.10871,-0.04349 -0.24641,-0.02005 -0.33911,-0.09156 -0.0862,-0.06651 -0.13565,-0.260609 -0.13565,-0.36624 0,-0.14227 0.11185,-0.581482 0.27129,-0.366239"
     id="path2983"
     style="fill:none;stroke:#000000;stroke-width:1px;stroke-linecap:butt;stroke-linejoin:miter;stroke-opacity:1" />
</svg>
