<?xml version="1.0" encoding="UTF-8" standalone="no"?>
<!-- Created with Inkscape (http://www.inkscape.org/) -->

<svg
   xmlns:dc="http://purl.org/dc/elements/1.1/"
   xmlns:cc="http://creativecommons.org/ns#"
   xmlns:rdf="http://www.w3.org/1999/02/22-rdf-syntax-ns#"
   xmlns:svg="http://www.w3.org/2000/svg"
   xmlns="http://www.w3.org/2000/svg"
   version="1.1"
   width="1029.5891"
   height="733.04431"
   id="svg2">
  <defs
     id="defs4" />
  <metadata
     id="metadata7">
    <rdf:RDF>
      <cc:Work
         rdf:about="">
        <dc:format>image/svg+xml</dc:format>
        <dc:type
           rdf:resource="http://purl.org/dc/dcmitype/StillImage" />
        <dc:title></dc:title>
      </cc:Work>
    </rdf:RDF>
  </metadata>
  <path
     d="m 389.24964,598.70909 c 1.90565,-0.66089 2.78633,-0.99243 3.89977,-2.10587 0.36491,-0.36491 0.95937,-0.84707 1.35645,-1.15976 0.30861,-0.24303 0.60469,-0.67582 0.84777,-0.97664 0.94626,-1.171 2.2608,-2.30824 3.6624,-2.86888 0.21714,-0.0869 0.45733,-0.0474 0.67822,-0.0915 0.33613,-0.0672 0.64554,-0.29771 0.98342,-0.33572 0.74799,-0.0842 1.55387,0 2.30595,0 0.74115,0 1.50969,-0.082 2.23813,0 0.26578,0.0299 0.46581,0.33291 0.71213,0.3052 0.15661,-0.0176 0.31385,-0.1526 0.47475,-0.1526 0.14996,0 0.25881,0.18031 0.40694,0.21363 0.4217,0.0949 0.83242,0.1503 1.25471,0.21364 0.21091,0.0316 0.40242,0.19737 0.61039,0.24416 0.13188,0.0297 0.27741,-0.006 0.40694,0.061 0.54338,0.27946 -0.2696,-0.0804 0.16955,0.18312 0.27682,0.1661 1.84522,0.65355 1.96684,0.763 0.10123,0.0911 0.10634,0.22658 0.23738,0.3052 0.23554,0.14132 0.8906,0.27969 1.15298,0.42728 0.83452,0.46942 1.53299,1.05345 2.23812,1.61756 0.12959,0.10367 0.31752,0.0416 0.44085,0.1526 0.45874,0.41287 1.09329,0.72462 1.62773,1.0682 0.3065,0.19703 1.23748,1.3208 1.526,1.61755 0.46609,0.47942 1.04751,0.88949 1.49208,1.40392 0.28593,0.33086 0.40958,0.72682 0.67822,1.03768 0.56139,0.6496 1.06004,1.33948 1.55991,2.01431 0.2168,0.29269 0.59618,0.55134 0.77995,0.85456 0.0735,0.12123 0.0762,0.27188 0.13565,0.39676 0.10455,0.21956 0.36391,0.39749 0.50866,0.57988 0.76047,0.95819 1.63874,2.02257 2.64507,2.77732 1.02329,0.76746 2.03196,1.5199 3.0859,2.19743 0.42386,0.27248 1.11568,0.41126 1.59382,0.51884 0.42298,0.0952 0.8085,0.38391 1.2208,0.51884 0.36397,0.11912 0.71965,0.24173 1.08515,0.33572 0.31904,0.082 1.17304,-0.3787 1.45818,-0.12208 0.34488,0.31039 -1.44445,0.44181 -1.55991,0.4578 -1.32713,0.18375 -2.72942,0.35507 -4.06933,0.27468 -2.08657,-0.1252 -4.19877,-0.0233 -6.27354,-0.39676 -0.69491,-0.12509 -1.38089,-0.32518 -2.06857,-0.4578 -0.40169,-0.0775 -0.75666,-0.0303 -1.15298,-0.18312 -0.0779,-0.03 -0.52436,-0.2355 -0.44084,-0.33572 0.1486,-0.17832 1.40336,0.70328 1.5599,0.82404 1.20832,0.93213 2.25714,2.08749 3.3572,3.14355 0.39723,0.38134 0.91172,0.60691 1.32253,0.97664 0.16992,0.15293 0.78449,0.7141 0.71213,1.00716 -0.0127,0.0514 -0.0934,0.0698 -0.10173,0.12208 -0.006,0.0375 0.081,0.0559 0.0678,0.0916 -0.01,0.0265 -0.31299,-0.19563 -0.57649,-0.27468 -0.4334,-0.13002 -0.86693,-0.27547 -1.28862,-0.42728 -1.2226,-0.44014 -3.17819,-0.54958 -4.47626,-0.70196 -0.7945,-0.0933 -1.71287,-0.24429 -2.4755,-0.51884 -0.45417,-0.1635 -0.91338,-0.39292 -1.39035,-0.48832 -0.53825,-0.10765 -1.04679,-0.22936 -1.55991,-0.42728 -0.41868,-0.16148 -0.77304,-0.4272 -1.15298,-0.64092 -0.63709,-0.35836 -1.32825,-0.61607 -2.00075,-0.88507 -0.29215,-0.11686 -0.54186,-0.36584 -0.81387,-0.51884 -0.48618,-0.27348 -1.02594,-0.49297 -1.52599,-0.763 -0.0661,-0.0357 -0.65964,-0.43021 -0.71213,-0.33572 -0.15356,0.27639 0.13412,0.79717 0.16955,1.0682 0.0986,0.7546 0.17347,1.65864 0.44084,2.38055 0.12532,0.33834 0.372,0.62982 0.47476,0.97664 0.94855,3.20135 2.81057,6.55991 4.6119,9.3391 0.56942,0.87853 1.66056,1.51574 2.27204,2.38056 0.58404,0.826 2.04214,2.24063 2.88244,2.80783 0.24684,0.16662 0.56947,0.25132 0.81387,0.42728 0.58105,0.41836 1.08515,0.95833 1.66164,1.3734 0.57824,0.41633 1.27538,0.74007 1.83119,1.19028 0.15513,0.12565 0.21954,0.35018 0.37302,0.48832 0.43563,0.39206 1.16167,0.64561 1.66165,0.9156 0.19158,0.10345 0.38911,0.32663 0.57648,0.45779 0.38304,0.26813 0.82226,0.45088 1.2208,0.70196 1.07844,0.67942 2.0671,1.36329 3.22155,1.92276 0.67748,0.32832 1.42595,0.55012 2.10249,0.85456 0.12702,0.0572 0.21578,0.17941 0.33911,0.24416 0.42785,0.22462 0.933,0.25966 1.35644,0.48832 0.32671,0.17642 0.17604,0.17127 0.47475,0.27468 1.09823,0.38015 2.19105,0.83809 3.32329,1.12923 0.66994,0.17227 1.35875,0.30861 2.00075,0.54936 1.08013,0.40505 2.34027,0.31702 3.45892,0.54936 1.05957,0.22007 2.10583,0.2967 3.18764,0.36624 0.39351,0.0253 0.75154,0.18312 1.15298,0.18312 0.29855,0 0.59248,-0.10922 0.88169,-0.1526 0.44076,-0.0661 0.94483,0 1.39035,0 1.07823,0 2.17817,0.0265 3.25546,-0.0305 2.37019,-0.12548 4.71297,-0.4476 7.08741,-0.54936 4.28178,-0.1835 8.50369,0.30175 12.71664,0.88508 0.45963,0.0636 1.0601,0.32632 1.49209,0.48832 0.7138,0.26768 1.51812,0.3674 2.23812,0.6104 0.68205,0.23019 1.37572,0.64959 2.03467,0.94612 0.40123,0.18055 0.72684,0.50024 1.11906,0.70195 0.88556,0.45544 1.81157,0.91845 2.64506,1.49548 0.79826,0.55264 1.54023,1.17847 2.37378,1.6786 0.75891,0.45535 1.52727,0.89461 2.27204,1.3734 0.55949,0.35967 1.07749,0.80795 1.66164,1.12923 0.40847,0.22466 0.86882,0.38103 1.28862,0.57988 0.74532,0.35305 1.36808,0.8954 2.13639,1.2208 2.32769,0.98585 4.71062,1.84365 7.12132,2.62472 1.27375,0.41269 2.53307,0.81523 3.86586,1.00715 3.62849,0.52251 7.16411,-0.7548 10.54634,-1.86171 0.60264,-0.19723 1.23729,-0.29378 1.8312,-0.51884 1.66977,-0.63276 3.13577,-1.61995 4.6119,-2.5942 0.50065,-0.33043 1.03023,-0.62346 1.49208,-1.00715 0.78119,-0.64899 1.43184,-1.43526 2.1364,-2.16692 0.29506,-0.30641 0.65316,-0.54682 0.94951,-0.85456 1.04786,-1.08817 1.97017,-2.30986 3.01808,-3.38771 0.31744,-0.32651 0.68328,-0.62933 0.98342,-0.97664 1.01533,-1.17487 1.9084,-2.47611 2.91635,-3.66239 0.60723,-0.71467 1.38104,-1.27733 2.00075,-1.9838 0.36873,-0.42034 0.68665,-0.88771 1.05125,-1.31236 0.57378,-0.66829 1.29024,-1.19678 1.89902,-1.83119 1.58426,-1.65098 3.18861,-3.25539 5.01883,-4.63904 0.55419,-0.41896 1.18027,-0.75138 1.76337,-1.12923 1.31425,-0.85163 2.62462,-1.7218 4.03542,-2.41108 1.59065,-0.77715 3.24182,-1.44356 4.84928,-2.16691 0.23186,-0.10434 0.92952,-0.29155 1.15297,-0.36624 1.0262,-0.34305 2.04343,-0.77952 3.08591,-1.0682 1.06464,-0.29483 2.15096,-0.53759 3.22155,-0.82404 1.22022,-0.32649 2.42468,-0.62796 3.62848,-1.00716 0.26355,-0.083 0.3551,-0.03 0.6104,-0.1526 0.44347,-0.21286 0.87862,-0.36525 1.35644,-0.51884 0.1182,-0.038 1.39035,-0.33028 1.39035,-0.36624 0,-0.0156 -0.38429,0.13661 -0.74604,0.18312 -0.42582,0.0548 -0.86873,0.0617 -1.28862,0.18312 -1.79648,0.5197 -3.69737,0.95318 -5.39185,1.77016 -0.61293,0.29552 -1.20394,0.64378 -1.8312,0.9156 -1.80754,0.78326 -3.75294,1.9573 -5.56141,2.59419 -1.79079,0.63067 -3.65386,1.22656 -5.29013,2.22796 -2.14933,1.31539 -3.78354,3.48168 -5.18839,5.52411 -0.22266,0.32372 -1.66164,1.94481 -1.66164,2.28899 0,0.1412 0.75883,-0.0916 0.88169,-0.0916 0.78506,0 1.50404,-0.0796 2.27204,-0.24416 0.18715,-0.0401 2.00288,-0.5174 2.1364,-0.42727 0.0738,0.0498 -0.28807,0.29743 -0.33911,0.33571 -0.40672,0.30504 -0.67756,0.59405 -0.94951,1.03768 -0.89897,1.46644 -2.2834,2.55017 -3.45893,3.78448 -0.4235,0.44466 -1.23591,1.14979 -1.35644,1.80067 -0.10342,0.55845 1.49208,-0.62695 1.49208,-0.061 0,0.25662 -0.29338,0.29223 -0.27128,0.6104 0.0505,0.72697 0.23946,1.50677 0.37302,2.22796 0.042,0.22683 0.19722,0.42407 0.23737,0.64092 0.0446,0.24086 -0.1857,0.42388 -0.0678,0.67143 0.22835,0.47953 0.38534,-0.0361 0.3052,0 -0.24973,0.11239 0.49096,1.34153 0.6104,1.55652 0.28722,0.51699 0.19968,1.44945 0.74604,1.80068 0.31145,0.20021 0.74274,0.21719 1.08516,0.33572 1.34582,0.46586 2.78974,0.57388 4.20497,0.64092 1.64721,0.078 3.16216,-0.29596 4.74754,-0.67144 2.94718,-0.69802 5.86219,-1.46355 8.74905,-2.38056 1.0333,-0.32822 2.03015,-0.77374 3.08591,-1.03768 0.51052,-0.12763 1.04466,-0.17531 1.55991,-0.27468 0.30589,-0.059 0.63582,-0.18312 0.94951,-0.18312 0.0354,0 -0.0695,0.016 -0.10174,0.0305 -0.15749,0.0709 -0.27917,0.20193 -0.44084,0.27468 -0.20012,0.0901 -0.49516,0.0611 -0.71213,0.12208 -0.62697,0.17634 -1.25738,0.4394 -1.86511,0.67144 -2.47092,0.94345 -4.96613,1.7349 -7.52825,2.38056 -0.78398,0.19756 -1.55318,0.50286 -2.33987,0.67144 -0.86547,0.18546 -1.74538,0.30279 -2.61115,0.48832 -1.45999,0.31285 -2.90363,0.71187 -4.37452,0.97663 -1.1693,0.21048 -2.3897,0.33033 -3.52675,0.67144 -2.07738,0.62322 -3.99182,1.48 -5.93443,2.4416 -0.61237,0.30312 -1.15799,0.72634 -1.76338,1.03768 -0.64464,0.33153 -0.10877,-0.0358 -0.71213,0.33572 -1.40764,0.86681 -3.18324,2.15251 -4.37452,3.29615 -0.71359,0.68504 -1.4053,1.41736 -2.1364,2.07536 -0.29458,0.26511 -0.68985,0.43774 -0.98342,0.70195 -0.47284,0.42556 -0.94831,0.90926 -1.39035,1.3734 -0.94145,0.98852 -1.69965,2.18872 -2.67898,3.14356 -1.13074,1.10247 -2.02545,2.43255 -3.15372,3.54031 -0.32551,0.31959 -0.72548,0.56745 -1.05125,0.88508 -0.43821,0.42726 -0.90107,0.81096 -1.35644,1.22079 -0.21786,0.19608 -0.37737,0.46116 -0.6104,0.64092 -0.58658,0.45251 -1.21355,0.8177 -1.8651,1.15976 -1.1236,0.58989 -2.05983,1.26538 -3.28938,1.73964 -0.76328,0.29441 -1.69021,0.0337 -2.4755,0.12208 -0.80024,0.09 -1.60187,0.35143 -2.40769,0.39676 -0.69359,0.039 -1.43694,-0.20482 -2.13639,-0.24416 -1.13099,-0.0636 -2.26597,-0.11118 -3.3572,-0.4578 -1.17521,-0.3733 -2.27236,-1.02036 -3.42501,-1.46496 -0.42395,-0.16352 -0.91662,-0.16328 -1.32253,-0.36624 -0.47274,-0.23637 -0.89767,-0.5918 -1.35644,-0.85456 -0.53324,-0.3054 -1.21801,-0.52973 -1.79729,-0.73248 -0.67251,-0.23537 -1.39691,-0.30756 -2.06857,-0.54935 -1.21648,-0.43794 -2.32732,-1.21071 -3.49284,-1.77016 -0.92113,-0.44214 -1.92988,-0.68405 -2.84853,-1.12924 -0.79431,-0.38494 -1.56464,-0.883 -2.33986,-1.31236 -0.57329,-0.31751 -1.23255,-0.48519 -1.79729,-0.82403 -0.38304,-0.22983 -0.74369,-0.51778 -1.15297,-0.70196 -0.54865,-0.24689 -1.23914,-0.52674 -1.8312,-0.64092 -0.30435,-0.0587 -0.62645,-0.053 -0.9156,-0.18312 -1.83393,-0.82527 -3.67473,-1.58149 -5.56141,-2.289 -0.7326,-0.27472 -1.52053,-0.33438 -2.27204,-0.51884 -3.84376,-0.94347 -7.85567,-1.46576 -11.83495,-1.19027 -0.51009,0.0353 -1.00565,-0.14963 -1.526,-0.12208 -0.5381,0.0285 -1.00232,0.28054 -1.526,0.36624 -1.82526,0.29868 -3.74983,0.45664 -5.49359,1.12923 -0.60958,0.23513 -1.16522,0.6153 -1.76337,0.85456 -0.48358,0.19343 -1.01508,0.28768 -1.49209,0.51884 -1.98847,0.96365 -4.02119,1.88424 -5.93443,2.96044 -0.39865,0.22424 -0.90616,0.28013 -1.32253,0.48831 -0.56417,0.28209 -1.11993,0.56501 -1.69555,0.82404 -0.23577,0.10609 -0.46652,0.12284 -0.71214,0.18312 -1.31785,0.32347 -2.66562,0.67761 -3.96759,1.0682 -0.67314,0.20194 -1.32459,0.45835 -2.00075,0.64092 -0.73394,0.19816 -1.58092,0.0551 -2.33986,0.18312 -1.26582,0.21361 -3.54693,0.59825 -4.78146,0.12208 -0.39404,-0.15199 -1.49934,0.0567 -1.79729,-0.12208 -0.10437,-0.0626 -0.0852,-0.16804 -0.20346,-0.21364 -0.51454,-0.19847 -1.27638,-0.0507 -1.8312,-0.12208 -1.13514,-0.14595 -2.5961,-0.38999 -3.62848,-0.85456 -0.60595,-0.27268 -1.17142,-0.67021 -1.69555,-1.00716 -0.23655,-0.15206 -0.54465,-0.15393 -0.77996,-0.3052 -0.25597,-0.16455 -0.43166,-0.456 -0.67822,-0.64092 -0.23143,-0.17357 -0.48736,-0.31492 -0.71213,-0.48831 -0.32528,-0.25094 -0.54524,-0.72513 -0.9156,-0.9156 -0.32337,-0.16631 -0.73372,-0.4162 -1.01733,-0.67144 -0.54616,-0.49155 -0.96775,-1.11842 -1.45818,-1.64808 -0.1273,-0.13748 -0.20272,-0.36557 -0.33911,-0.48832 -0.1319,-0.11871 -0.30584,-0.19889 -0.44084,-0.3052 -0.20092,-0.15822 -0.18995,-0.37037 -0.33911,-0.54936 -0.30828,-0.36993 -0.73933,-0.66787 -1.01733,-1.06819 -0.17088,-0.24607 -0.23826,-0.52241 -0.3052,-0.79352 -0.0816,-0.33068 -0.69669,-0.96661 -0.9156,-1.28184 -0.18062,-0.2601 -0.16881,-0.6346 -0.33911,-0.9156 -0.33519,-0.55307 -0.70218,-1.0808 -1.01733,-1.64807 -0.26631,-0.47936 -0.38913,-1.06668 -0.64431,-1.526 -0.12444,-0.22399 -0.31805,-0.46199 -0.40693,-0.70196 -0.32995,-0.89084 -0.51448,-1.87303 -0.64431,-2.80784 -0.0543,-0.39091 -0.31027,-0.76826 -0.40694,-1.15975 -0.12832,-0.51974 -0.15015,-0.9853 -0.33911,-1.49548 -0.14091,-0.38048 -0.25355,-0.97125 -0.40693,-1.28184 -0.0746,-0.15115 -0.19125,-0.29174 -0.23738,-0.4578 -0.0418,-0.15054 0.0379,-0.30695 -0.0339,-0.4578 -0.21161,-0.44439 -0.55757,-1.23368 -0.6104,-1.70911 -0.0301,-0.27108 0.0334,-0.5534 0,-0.82404 -0.0639,-0.5173 -0.40693,-1.08526 -0.40693,-1.58704 0,-0.28724 -0.12553,-0.51616 -0.16955,-0.79352 -0.0681,-0.42915 0.0189,-0.80362 -0.13565,-1.22079 -0.0858,-0.23171 -0.061,-0.47398 -0.16955,-0.70196 -0.0327,-0.0686 -0.15768,-0.25582 -0.13565,-0.18312 0.0783,0.25833 0.27129,1.03293 0.27129,0.763 0,-0.65259 -0.36369,-1.03577 -0.81386,-1.3734 -0.14321,-0.10741 -0.21252,-0.25231 -0.33911,-0.36624 -0.0339,-0.0305 -0.1345,-0.12331 -0.10174,-0.0916 0.17969,0.17416 0.69153,0.31776 0.54258,0.51884 -0.14783,0.19957 -0.36204,-0.42728 -0.6104,-0.42728 -0.0219,0 -0.44255,0.33521 -0.84778,0.21364 -0.67812,-0.20344 -1.5592,-0.18288 -2.10248,-0.36624 -1.2006,-0.4052 -2.22515,-0.86963 -3.22155,-1.58704 -0.1135,-0.0817 -0.15165,-0.2415 -0.27129,-0.33572 -0.45446,-0.35789 -0.83852,-0.72415 -1.25471,-1.09871 -0.39135,-0.35222 -0.87932,-0.56001 -1.25471,-0.94612 -0.7746,-0.79674 -1.60385,-1.59969 -2.27204,-2.4416 -0.25657,-0.32328 -0.70034,-0.51832 -0.98342,-0.82404 -1.20855,-1.30524 -2.83701,-2.35135 -4.3067,-3.29615 -0.57589,-0.37021 -2.09208,-1.23127 -2.71288,-1.43444 -0.23973,-0.0785 -0.51598,-0.10069 -0.74605,-0.21364 -0.51234,-0.25151 -1.06809,-0.48982 -1.62773,-0.64092 -0.58455,-0.15783 -1.22575,-0.20386 -1.79728,-0.39676 -0.10918,-0.0368 -0.19493,-0.15003 -0.3052,-0.18312 -0.46979,-0.14093 -1.13293,-0.19962 -1.62773,-0.24415 -1.64806,-0.14833 -3.31846,-0.18312 -4.98493,-0.18312 -1.0896,0 -2.31412,0.11614 -3.3911,-0.0916 -1.42706,-0.27522 -2.90332,-0.49459 -4.3067,-0.9156 -0.62159,-0.18648 -1.36067,-0.25799 -1.93293,-0.57988 -0.44456,-0.25007 -0.9891,-0.45346 -1.39036,-0.763 -0.18507,-0.14277 -0.39548,-0.34727 -0.61039,-0.4578 -0.85867,-0.4416 -1.70322,-1.04123 -2.30596,-1.80068 -0.25776,-0.32478 -0.63846,-0.5733 -0.91559,-0.88507 -0.26431,-0.29735 -0.487,-0.61585 -0.74605,-0.9156 -0.15433,-0.17858 -0.37064,-0.29397 -0.47475,-0.51884 -0.28615,-0.61808 -0.6604,-1.16141 -1.01733,-1.73964 -0.38898,-0.63015 -0.67828,-1.31244 -1.08516,-1.92275 -0.50071,-0.75108 -0.71048,-1.70468 -1.01733,-2.53316 -0.0693,-0.18706 -0.19307,-0.34998 -0.23738,-0.54936 -0.1119,-0.50357 -0.1732,-3.12712 -0.0678,-3.60135 0.0347,-0.15611 0.16323,-0.26396 0.20347,-0.39676 0.11425,-0.37702 0.22115,-0.7705 0.33911,-1.15976 0.18808,-0.62067 0.26688,-1.30184 0.37302,-1.92275 0.091,-0.53211 0.40825,-1.01782 0.47476,-1.55652 0.0352,-0.28507 -0.0164,-0.57437 0,-0.85456 0.0235,-0.40215 0.26722,-0.8094 0.37302,-1.19028 0.11929,-0.42946 0.11239,-0.90573 0.20346,-1.34288 0.10536,-0.50571 0.26928,-1.03928 0.3052,-1.55651 0.0409,-0.58896 0.0551,-1.18215 0.10174,-1.77016 0.0718,-0.90475 0.40693,-1.80328 0.40693,-2.71627 0,-1.0911 -0.0156,-2.2378 0.13564,-3.32668 0.26072,-1.87717 -0.22295,-4.57124 -1.01733,-6.28711 -0.0502,-0.10841 -0.59163,-1.52599 -0.6104,-1.52599 -0.0355,0 0.0555,0.28708 -0.0339,0.48832 -0.19434,0.43726 0.49033,2.63374 0.6104,3.17407 0.29114,1.31013 0.57929,2.61271 0.77995,3.93707 0.0673,0.444 0.3504,1.01747 0.3052,1.46496 -0.0164,0.16247 -0.21932,0.34207 -0.23737,0.48832 -0.0517,0.41857 0.18929,0.90122 0.23737,1.31236 0.0671,0.57389 0.0339,1.2228 0.0339,1.80067 0,0.0822 0.0339,0.16199 0.0339,0.24416 0,0.0789 -0.14004,0.14469 -0.10174,0.21364 0.0738,0.13287 0.41549,-0.66599 0.44085,-0.763 0.17778,-0.68001 0.46324,-1.32904 0.71213,-1.98379 0.33108,-0.87101 0.57207,-1.80601 0.94951,-2.65524 0.36457,-0.82029 0.83047,-1.57759 1.2208,-2.38055 0.13132,-0.27016 0.19995,-0.74299 0.37302,-0.97664 0.0585,-0.079 0.12479,-0.15464 0.20346,-0.21364 0.0283,-0.0212 0.10174,0.005 0.10174,-0.0305 0,-0.0351 -0.28375,0.33696 -0.33911,0.39676 -0.30638,0.33089 -0.37367,0.6431 -0.50867,1.09872 -0.24032,0.81108 -0.46037,1.64438 -0.64431,2.47211 -0.0159,0.0715 -0.23014,1.2208 -0.16955,1.2208 0.24221,0 0.59895,-0.89763 0.71213,-1.03768 1.07071,-1.32501 2.41852,-2.40793 3.45892,-3.75395 0.38229,-0.49458 0.80982,-0.97044 1.15298,-1.49548 0.13664,-0.20905 0.23157,-0.54501 0.44084,-0.70196 1.00614,-0.7546 2.14416,-1.42902 3.18764,-2.16691 0.0654,-0.0463 0.93365,-0.60844 0.9156,-0.64092 -0.0959,-0.17267 -1.56329,1.70529 -1.59382,1.73963 -1.94759,2.19105 -3.50239,4.47312 -4.88319,6.95855 -0.40661,0.73189 -0.48123,1.05321 -0.77995,1.77016 -0.4572,1.09728 -0.67823,1.46056 -0.67823,2.71627 0,0.19119 0.13684,0.34213 0.16956,0.51884 0.11923,0.64383 0.0199,1.35902 0.13564,1.9838 0.0213,0.11507 0.2271,0.17758 0.20347,0.3052 -0.0325,0.17565 -0.15144,0.20152 -0.0678,0.42728 0.18278,0.49351 0.25078,1.03128 0.50866,1.49547 0.12914,0.23245 0.38208,0.31661 0.54258,0.51884 0.10508,0.1324 0.12357,0.40297 0.23738,0.48832 0.0505,0.0379 0.2314,0.0574 0.20346,0.18312 -0.001,0.005 -0.2894,0.17914 -0.33911,0.33572 -0.1153,0.36321 -0.0784,0.72683 -0.23737,1.09872 -0.1383,0.32361 -0.36496,0.58534 -0.54258,0.88508 -0.44042,0.7432 -0.80547,1.53071 -1.25471,2.25847 -0.29434,0.47684 -0.19388,1.12525 -0.33911,1.64808 -0.14606,0.5258 -0.42667,1.27877 -0.20347,1.8312 0.25372,0.62795 1.64179,2.67682 2.27204,2.96043 0.43397,0.19529 0.94448,0.44988 1.39036,0.6104 0.17492,0.063 0.40918,0.0666 0.57649,0.1526 0.26619,0.1369 0.61246,0.39318 0.91559,0.42728 1.80436,0.20299 3.55213,-0.20028 5.35795,-0.33572 0.65967,-0.0495 1.19442,0.142 1.8312,0.21364 0.80251,0.0903 1.64079,-0.10296 2.44159,0 0.16025,0.0206 0.27991,0.12846 0.44084,0.1526 0.87624,0.13143 1.82798,0.0113 2.71289,0.061 0.74783,0.0421 1.40197,0.4454 2.13639,0.51884 0.4114,0.0411 0.89306,0.0496 1.28862,0.18312 2.93388,0.99018 5.64017,2.53971 8.2743,4.12019 0.49862,0.29917 0.88501,0.78162 1.28862,1.19028 0.30273,0.30651 0.72466,0.44477 1.05124,0.70196 0.1304,0.10268 0.1561,0.31382 0.27129,0.39675 0.0985,0.071 0.10954,-0.0643 0.20347,-0.0305 0.094,0.0338 0.14335,0.14928 0.23737,0.18312 0.56665,0.204 1.6064,0.15734 2.03467,-0.30519 0.63005,-0.68046 0.50906,-1.39717 0.0339,-2.16692 -0.0835,-0.13533 -0.25641,-0.30411 -0.3052,-0.4578 -0.0827,-0.26053 0.0425,-0.55936 -0.0678,-0.82404 -0.18285,-0.43883 -0.54628,-0.77077 -0.74605,-1.19028 -0.1137,-0.23877 -0.101,-0.51621 -0.16955,-0.76299 -0.0679,-0.2446 -0.25698,-0.41102 -0.3052,-0.67144 -0.0299,-0.16168 -0.002,-0.33061 -0.0678,-0.48832 -0.06,-0.14408 -0.40694,-0.5187 -0.40694,-0.64092 0,-0.15666 0.16144,-0.1566 0.10174,-0.33572 -0.0192,-0.0577 -0.10822,-0.0678 -0.13565,-0.12208 -0.12604,-0.24956 -0.0425,-0.73359 -0.0678,-1.00716 -0.0534,-0.57726 -0.40693,-1.12056 -0.40693,-1.6786 0,-0.4547 -0.16658,-0.86629 -0.23738,-1.31235 -0.0668,-0.42067 0.0907,-0.84252 0.0339,-1.25132 -0.0558,-0.4017 -0.25518,-0.88201 -0.13564,-1.31236 0.0472,-0.16974 0.24258,-0.28874 0.3052,-0.4578 0.10415,-0.28121 -0.21799,-1.13578 -0.16956,-1.19027 0.96995,-1.0912 2.63603,-1.76498 3.01808,-3.17408 0.30129,-1.1112 -0.89197,-2.12375 -1.28862,-3.20459 -0.0309,-0.0842 0.2726,-0.6249 0.3052,-0.73248 0.17722,-0.58481 0.31457,-1.15733 0.50867,-1.73964 0.25779,-0.77337 0.71433,-1.46476 0.94951,-2.25847 0.21396,-0.72214 0.38683,-1.4412 0.64431,-2.1364 0.33347,-0.90037 1.0852,-1.65325 1.55991,-2.47211 1.58319,-2.73101 3.14586,-4.5667 5.79879,-6.31763 0.73125,-0.48263 1.34456,-1.0356 2.1703,-1.3734 1.27387,-0.52113 2.78069,-0.73068 4.13715,-0.94612 0.70449,-0.11189 1.36224,-0.48579 2.06857,-0.54936 1.13007,-0.1017 2.25831,-0.26289 3.39111,-0.33572 1.53326,-0.0986 3.11156,-0.0305 4.64581,-0.0305 0.74393,0 1.49473,-0.0291 2.23813,0 0.61328,0.024 1.21948,0.18701 1.8312,0.1526 1.88727,-0.10616 3.71361,-0.88364 5.5275,-1.37339 0.73433,-0.19827 1.6197,-0.21997 2.30595,-0.54936 0.80111,-0.38454 1.71039,-0.60765 2.50942,-1.00716 0.95369,-0.47685 1.9552,-0.90761 2.91635,-1.3734 0.30967,-0.15007 0.59368,-0.4524 0.88168,-0.64092 0.65255,-0.42712 1.3517,-0.84241 2.00076,-1.25132 0.0962,-0.0606 0.86759,-0.43482 0.81386,-0.57987 -0.0373,-0.10073 -0.19231,0.25126 -0.20346,0.27468 -0.12183,0.25582 -0.3718,0.39565 -0.57649,0.57987 -0.80395,0.72355 -1.57537,1.43725 -2.47551,2.04484 -1.83029,1.23544 -3.84039,2.27609 -5.93443,2.99095 -0.62153,0.21218 -1.25728,0.33748 -1.89902,0.4578 -0.14694,0.0275 -2.27204,0.54769 -2.27204,0.6104 0,0.065 1.56068,0.38611 1.62773,0.39676 1.78017,0.28274 3.39173,-0.18462 5.15448,-0.33572 0.11692,-0.01 1.10789,-0.13716 1.18689,-0.0305 0.0489,0.066 -1.01384,0.88333 -1.05125,0.9156 -1.95508,1.68626 -3.4551,2.17831 -5.86661,2.86888 -0.49065,0.1405 -0.97506,0.3373 -1.42426,0.57987 -0.0879,0.0475 -0.13745,0.18312 -0.23738,0.18312 -0.0482,0 0.31632,-0.24416 0.44084,-0.24416 0.41706,0 0.87568,0.16238 1.28862,0.21364 1.60283,0.19898 3.20103,0.50255 4.81537,0.64092 0.18134,0.0156 0.36119,0.0462 0.54258,0.061 0.0451,0.004 0.13564,-0.0452 0.13564,0 0,0.0454 -0.62439,0.31689 -0.71213,0.36624 -1.31769,0.7412 -2.98002,0.71878 -4.37452,1.2208 -0.12571,0.0453 -0.45367,0.1449 -0.33911,0.21364 0.23285,0.13971 0.55408,-0.0886 0.77995,-0.0305 0.0295,0.008 0.0982,0.061 0.0678,0.061 -0.0791,0 -0.12771,-0.0993 -0.20346,-0.12208 -0.19383,-0.0582 -0.20865,0.24338 -0.40694,0.21364 -0.0834,-0.0751 -0.0927,-0.10962 -0.20346,-0.12208 -1.72654,-0.19424 -3.43826,-0.1756 -5.15448,-0.51884 -2.2255,-0.4451 -4.35363,-1.18269 -6.61266,-1.49548 -0.2216,-0.0307 -0.40544,-0.12163 -0.6104,-0.18312 -0.52539,-0.15762 -1.40313,-0.0795 -1.93292,0 -1.17472,0.17621 -3.32796,1.42777 -4.2728,2.1364 -0.23544,0.17658 -0.59276,0.22829 -0.81386,0.42728 -0.32492,0.29243 -0.57739,0.67225 -0.9156,0.97664 -1.19167,1.0725 -2.37614,2.1874 -3.35719,3.44875 -0.38013,0.48874 -0.97289,0.78789 -1.32253,1.31236 -0.287,0.43049 -0.23954,0.82987 -0.40694,1.28184 -0.15702,0.42396 -0.45224,0.82429 -0.6104,1.25131 -0.14837,0.40061 -0.35251,3.4613 -0.16955,3.84552 0.13537,0.28426 0.40007,0.53082 0.50866,0.82403 0.18163,0.49039 -0.16441,-0.1418 0.0339,0.27468 0.0299,0.0629 0.16955,0.0524 0.16955,0.12208 0,0.16351 -0.41772,0.18486 -0.47475,0.27468 -0.0673,0.10602 -0.028,0.29053 -0.10174,0.39676 -0.32011,0.46096 -0.9192,0.65552 -1.05124,1.19028 -0.11873,0.48084 0.10379,0.74172 0.20347,1.19028 0.28754,1.29393 1.26045,2.05 2.20421,2.89939 0.14042,0.12637 0.32083,0.12128 0.47476,0.21364 0.22601,0.13561 1.35539,0.97003 1.39035,1.19028 0.0133,0.0839 -1.18289,1.40809 -1.32253,1.61756 -0.29449,0.44173 -0.5477,1.09587 -0.64431,1.61755 -0.18066,0.97557 -0.21246,2.0959 0,3.052 0.0464,0.20897 -0.0376,0.40756 0,0.6104 0.039,0.21071 0.18751,0.3779 0.23738,0.57988 0.10263,0.41566 0.0477,0.89028 0.13564,1.31235 0.0646,0.31026 0.23738,0.65776 0.23738,0.97664 0,0.47804 -0.0211,0.70142 0.13564,1.15976 0.20676,0.60477 0.0899,1.30938 0.20347,1.92275 0.0913,0.49308 0.66817,1.34625 0.84778,1.8312 0.22399,0.60478 0.41384,1.3736 0.77995,1.92276 0.14703,0.22053 0.3454,0.27939 0.54258,0.42728 0.13605,0.10204 0.25736,0.35957 0.33911,0.48832 0.25348,0.39922 0.91603,0.65869 1.28862,0.94611 0.28542,0.22019 0.53139,0.46166 0.88169,0.57988 0.148,0.0499 0.37675,0.0542 0.50866,0.12208 0.0837,0.043 0.15941,0.20523 0.23738,0.1526 0.0514,-0.0347 -0.0193,-0.15118 0.0339,-0.18312 0.0291,-0.0174 0.13564,0 0.10173,0 -0.1558,0 -1.22569,-0.16951 -2.1703,-0.48832 -0.85307,-0.2879 -1.68657,-0.59753 -2.54333,-0.85455 -0.71674,-0.21503 -1.67496,-0.25766 -2.33986,-0.57988 -0.85084,-0.41233 -1.70194,-1.06156 -2.27205,-1.8312 -0.31144,-0.42045 -0.71381,-0.80647 -0.98342,-1.25132 -0.2607,-0.43015 -0.44935,-0.92024 -0.67822,-1.37339 -0.23743,-0.47012 -0.57692,-0.86545 -0.84777,-1.31236 -0.30198,-0.49826 -0.35157,-1.1693 -0.57649,-1.70912 -0.13814,-0.33153 -0.4438,-0.68742 -0.50867,-1.03768 -0.042,-0.227 -0.006,-0.47268 -0.0339,-0.70196 -0.0363,-0.29418 -0.16579,-0.5799 -0.20346,-0.88507 -0.0201,-0.16267 -0.16199,-0.32233 -0.13565,-0.48832 0.0254,-0.16028 0.14963,-0.28193 0.20347,-0.42728 0.17608,-0.47543 0.15682,-1.07579 0.40693,-1.526 0.0906,-0.16317 0.25127,-0.26916 0.33911,-0.42728 0.12456,-0.2242 0.16531,-0.47533 0.3052,-0.70196 0.16963,-0.2748 0.47485,-0.45794 0.64431,-0.73248 0.10793,-0.17484 0.0986,-0.35371 0.20347,-0.51884 0.16447,-0.25904 0.43319,-0.47729 0.6104,-0.73247 0.26124,-0.3762 0.35784,-0.90514 0.50866,-1.31236 0.0946,-0.25538 0.49968,-0.30337 0.64431,-0.82404 0.0274,-0.0986 0.25471,-0.41258 0.3052,-0.48832 0.0393,-0.0589 0.20347,0.01 0.20347,-0.061 0,-0.0708 -0.20347,-0.13185 -0.20347,-0.061 0,0.0396 0.0782,0.0293 0.10173,0.061 0.0277,0.0374 -0.0678,0.16863 -0.0678,0.12208 0,-0.0665 0.21883,0.0956 0.13565,-0.0916 -0.10454,-0.23521 -0.22518,0.12208 -0.13565,0.12208 0.0681,0 0.0697,-0.13565 0.13565,-0.1526 0.0328,-0.008 0.10173,0.0339 0.10173,0 0,-0.0366 -0.37359,-0.0922 -0.23738,0.061 0.065,0.0731 0.23068,-0.0275 -0.0339,0.0916 -0.0116,0.005 0.4093,-0.1526 0.0339,-0.1526 -0.009,0 0.22702,-0.0318 0.13565,0.0916 -0.0382,0.0516 -0.22117,-0.0533 -0.16956,-0.0916 0.0499,-0.037 -0.0122,0.14159 0.0339,0.18312 0.0588,0.0529 0.17857,0.0529 0.23738,0 0.11066,-0.0996 -0.1922,-0.2365 -0.27129,-0.18312 -0.17799,0.12015 0.23738,-0.0586 0.23738,0 0,0.0339 -0.0765,-0.0227 -0.10173,0 0.006,0.0557 -0.006,0.24416 -0.10174,0.24416 -0.1536,0 0.24779,-0.22301 0.10174,-0.0916 -0.0369,0.0332 -0.11157,0.0177 -0.13565,0.061 -0.013,0.0235 0.20347,-0.0946 0.20347,-0.061 0,0.0708 -0.16908,-8.6e-4 -0.20347,0.061 -0.0541,0.0973 -0.10896,0.19712 -0.13564,0.3052 -0.0458,0.18562 0.19371,0.7584 0.23737,0.9156 0.47472,1.70899 0.98495,3.71128 0.54258,5.46307"
     id="path3129"
     style="fill:none;stroke:#000000;stroke-width:1px;stroke-linecap:butt;stroke-linejoin:miter;stroke-opacity:1" />
</svg>
